<?xml version="1.0" encoding="UTF-8" standalone="no"?>
<!DOCTYPE svg PUBLIC "-//W3C//DTD SVG 1.1//EN"
 "http://www.w3.org/Graphics/SVG/1.1/DTD/svg11.dtd">
<!-- Generated by graphviz version 2.40.1 (20161225.0304)
 -->
<!-- Title: EJuiAutoCompleteFkField Pages: 1 -->
<svg width="140pt" height="234pt"
 viewBox="0.00 0.00 139.61 234.00" xmlns="http://www.w3.org/2000/svg" xmlns:xlink="http://www.w3.org/1999/xlink">
<g id="graph0" class="graph" transform="scale(1 1) rotate(0) translate(4 230)">
<title>EJuiAutoCompleteFkField</title>
<polygon fill="#ffffff" stroke="transparent" points="-4,4 -4,-230 135.6055,-230 135.6055,4 -4,4"/>
<!-- Node0 -->
<g id="node1" class="node">
<title>Node0</title>
<polygon fill="#bfbfbf" stroke="#000000" points="0,-.5 0,-134.5 131.6055,-134.5 131.6055,-.5 0,-.5"/>
<text text-anchor="middle" x="65.8027" y="-122.5" font-family="Helvetica,sans-Serif" font-size="10.00" fill="#000000">EJuiAutoCompleteFkField</text>
<polyline fill="none" stroke="#000000" points="0,-116.5 131.6055,-116.5 "/>
<text text-anchor="start" x="8" y="-104.5" font-family="Helvetica,sans-Serif" font-size="10.00" fill="#000000">+ $showFKField</text>
<text text-anchor="start" x="8" y="-94.5" font-family="Helvetica,sans-Serif" font-size="10.00" fill="#000000">+ $showDelImage</text>
<text text-anchor="start" x="8" y="-84.5" font-family="Helvetica,sans-Serif" font-size="10.00" fill="#000000">+ $defaultVal</text>
<text text-anchor="start" x="8" y="-74.5" font-family="Helvetica,sans-Serif" font-size="10.00" fill="#000000">+ $cssClass</text>
<text text-anchor="start" x="8" y="-64.5" font-family="Helvetica,sans-Serif" font-size="10.00" fill="#000000">+ $FKFieldSize</text>
<text text-anchor="start" x="8" y="-54.5" font-family="Helvetica,sans-Serif" font-size="10.00" fill="#000000">+ $relName</text>
<text text-anchor="start" x="8" y="-44.5" font-family="Helvetica,sans-Serif" font-size="10.00" fill="#000000">+ $displayAttr</text>
<text text-anchor="start" x="8" y="-34.5" font-family="Helvetica,sans-Serif" font-size="10.00" fill="#000000">+ $autoCompleteLength</text>
<polyline fill="none" stroke="#000000" points="0,-28.5 131.6055,-28.5 "/>
<text text-anchor="start" x="8" y="-16.5" font-family="Helvetica,sans-Serif" font-size="10.00" fill="#000000">+ init()</text>
<text text-anchor="start" x="8" y="-6.5" font-family="Helvetica,sans-Serif" font-size="10.00" fill="#000000">+ run()</text>
</g>
<!-- Node1 -->
<g id="node2" class="node">
<title>Node1</title>
<polygon fill="#ffffff" stroke="#bfbfbf" points="16.1157,-171.5 16.1157,-225.5 115.4897,-225.5 115.4897,-171.5 16.1157,-171.5"/>
<text text-anchor="middle" x="65.8027" y="-213.5" font-family="Helvetica,sans-Serif" font-size="10.00" fill="#000000">CJuiAutoComplete</text>
<polyline fill="none" stroke="#bfbfbf" points="16.1157,-207.5 115.4897,-207.5 "/>
<text text-anchor="middle" x="65.8027" y="-195.5" font-family="Helvetica,sans-Serif" font-size="10.00" fill="#000000"> </text>
<polyline fill="none" stroke="#bfbfbf" points="16.1157,-189.5 115.4897,-189.5 "/>
<text text-anchor="middle" x="65.8027" y="-177.5" font-family="Helvetica,sans-Serif" font-size="10.00" fill="#000000"> </text>
</g>
<!-- Node1&#45;&gt;Node0 -->
<g id="edge1" class="edge">
<title>Node1&#45;&gt;Node0</title>
<path fill="none" stroke="#191970" d="M65.8027,-161.2321C65.8027,-152.8764 65.8027,-143.7626 65.8027,-134.607"/>
<polygon fill="none" stroke="#191970" points="62.3028,-161.3567 65.8027,-171.3567 69.3028,-161.3567 62.3028,-161.3567"/>
</g>
</g>
</svg>
