<?xml version="1.0" encoding="UTF-8" standalone="no"?>
<!DOCTYPE svg PUBLIC "-//W3C//DTD SVG 1.1//EN"
 "http://www.w3.org/Graphics/SVG/1.1/DTD/svg11.dtd">
<!-- Generated by graphviz version 2.40.1 (20161225.0304)
 -->
<!-- Title: Swift_Mime_HeaderEncoder_QpHeaderEncoder Pages: 1 -->
<svg width="306pt" height="456pt"
 viewBox="0.00 0.00 305.95 456.00" xmlns="http://www.w3.org/2000/svg" xmlns:xlink="http://www.w3.org/1999/xlink">
<g id="graph0" class="graph" transform="scale(1 1) rotate(0) translate(4 452)">
<title>Swift_Mime_HeaderEncoder_QpHeaderEncoder</title>
<polygon fill="#ffffff" stroke="transparent" points="-4,4 -4,-452 301.9526,-452 301.9526,4 -4,4"/>
<!-- Node0 -->
<g id="node1" class="node">
<title>Node0</title>
<polygon fill="#bfbfbf" stroke="#000000" points="75.6724,-.5 75.6724,-94.5 218.9526,-94.5 218.9526,-.5 75.6724,-.5"/>
<text text-anchor="start" x="83.6724" y="-82.5" font-family="Helvetica,sans-Serif" font-size="10.00" fill="#000000">Swift_Mime_HeaderEncoder</text>
<text text-anchor="middle" x="147.3125" y="-72.5" font-family="Helvetica,sans-Serif" font-size="10.00" fill="#000000">_QpHeaderEncoder</text>
<polyline fill="none" stroke="#000000" points="75.6724,-66.5 218.9526,-66.5 "/>
<text text-anchor="middle" x="147.3125" y="-54.5" font-family="Helvetica,sans-Serif" font-size="10.00" fill="#000000"> </text>
<polyline fill="none" stroke="#000000" points="75.6724,-48.5 218.9526,-48.5 "/>
<text text-anchor="start" x="83.6724" y="-36.5" font-family="Helvetica,sans-Serif" font-size="10.00" fill="#000000">+ __construct()</text>
<text text-anchor="start" x="83.6724" y="-26.5" font-family="Helvetica,sans-Serif" font-size="10.00" fill="#000000">+ getName()</text>
<text text-anchor="start" x="83.6724" y="-16.5" font-family="Helvetica,sans-Serif" font-size="10.00" fill="#000000">+ encodeString()</text>
<text text-anchor="start" x="83.6724" y="-6.5" font-family="Helvetica,sans-Serif" font-size="10.00" fill="#000000"># _encodeByteSequence()</text>
</g>
<!-- Node1 -->
<g id="node2" class="node">
<title>Node1</title>
<g id="a_node2"><a xlink:href="class_swift___encoder___qp_encoder.html" target="_top" xlink:title="{Swift_Encoder_QpEncoder\n|# $_charStream\l# $_filter\l# $_qpMap\l# $_safeMap\l|+ __construct()\l+ encodeString()\l+ charsetChanged()\l# _encodeByteSequence()\l# _nextSequence()\l# _standardize()\l}">
<polygon fill="#ffffff" stroke="#000000" points="0,-131.5 0,-265.5 136.625,-265.5 136.625,-131.5 0,-131.5"/>
<text text-anchor="middle" x="68.3125" y="-253.5" font-family="Helvetica,sans-Serif" font-size="10.00" fill="#000000">Swift_Encoder_QpEncoder</text>
<polyline fill="none" stroke="#000000" points="0,-247.5 136.625,-247.5 "/>
<text text-anchor="start" x="8" y="-235.5" font-family="Helvetica,sans-Serif" font-size="10.00" fill="#000000"># $_charStream</text>
<text text-anchor="start" x="8" y="-225.5" font-family="Helvetica,sans-Serif" font-size="10.00" fill="#000000"># $_filter</text>
<text text-anchor="start" x="8" y="-215.5" font-family="Helvetica,sans-Serif" font-size="10.00" fill="#000000"># $_qpMap</text>
<text text-anchor="start" x="8" y="-205.5" font-family="Helvetica,sans-Serif" font-size="10.00" fill="#000000"># $_safeMap</text>
<polyline fill="none" stroke="#000000" points="0,-199.5 136.625,-199.5 "/>
<text text-anchor="start" x="8" y="-187.5" font-family="Helvetica,sans-Serif" font-size="10.00" fill="#000000">+ __construct()</text>
<text text-anchor="start" x="8" y="-177.5" font-family="Helvetica,sans-Serif" font-size="10.00" fill="#000000">+ encodeString()</text>
<text text-anchor="start" x="8" y="-167.5" font-family="Helvetica,sans-Serif" font-size="10.00" fill="#000000">+ charsetChanged()</text>
<text text-anchor="start" x="8" y="-157.5" font-family="Helvetica,sans-Serif" font-size="10.00" fill="#000000"># _encodeByteSequence()</text>
<text text-anchor="start" x="8" y="-147.5" font-family="Helvetica,sans-Serif" font-size="10.00" fill="#000000"># _nextSequence()</text>
<text text-anchor="start" x="8" y="-137.5" font-family="Helvetica,sans-Serif" font-size="10.00" fill="#000000"># _standardize()</text>
</a>
</g>
</g>
<!-- Node1&#45;&gt;Node0 -->
<g id="edge1" class="edge">
<title>Node1&#45;&gt;Node0</title>
<path fill="none" stroke="#191970" d="M108.1719,-122.3131C113.1332,-112.8301 118.0869,-103.3617 122.7199,-94.5061"/>
<polygon fill="none" stroke="#191970" points="104.9576,-120.9067 103.4231,-131.3898 111.1601,-124.1517 104.9576,-120.9067"/>
</g>
<!-- Node2 -->
<g id="node3" class="node">
<title>Node2</title>
<g id="a_node3"><a xlink:href="interface_swift___encoder.html" target="_top" xlink:title="{Swift_Encoder\n||+ encodeString()\l}">
<polygon fill="#ffffff" stroke="#000000" points="102.208,-302.5 102.208,-356.5 192.417,-356.5 192.417,-302.5 102.208,-302.5"/>
<text text-anchor="middle" x="147.3125" y="-344.5" font-family="Helvetica,sans-Serif" font-size="10.00" fill="#000000">Swift_Encoder</text>
<polyline fill="none" stroke="#000000" points="102.208,-338.5 192.417,-338.5 "/>
<text text-anchor="middle" x="147.3125" y="-326.5" font-family="Helvetica,sans-Serif" font-size="10.00" fill="#000000"> </text>
<polyline fill="none" stroke="#000000" points="102.208,-320.5 192.417,-320.5 "/>
<text text-anchor="start" x="110.208" y="-308.5" font-family="Helvetica,sans-Serif" font-size="10.00" fill="#000000">+ encodeString()</text>
</a>
</g>
</g>
<!-- Node2&#45;&gt;Node1 -->
<g id="edge2" class="edge">
<title>Node2&#45;&gt;Node1</title>
<path fill="none" stroke="#191970" d="M125.6735,-293.6176C120.4096,-284.8889 114.6097,-275.2713 108.7816,-265.607"/>
<polygon fill="none" stroke="#191970" points="122.7822,-295.6008 130.9436,-302.3567 128.7766,-291.9859 122.7822,-295.6008"/>
</g>
<!-- Node4 -->
<g id="node5" class="node">
<title>Node4</title>
<g id="a_node5"><a xlink:href="interface_swift___mime___header_encoder.html" target="_top" xlink:title="{Swift_Mime_HeaderEncoder\n||+ getName()\l}">
<polygon fill="#ffffff" stroke="#000000" points="154.6724,-171.5 154.6724,-225.5 297.9526,-225.5 297.9526,-171.5 154.6724,-171.5"/>
<text text-anchor="middle" x="226.3125" y="-213.5" font-family="Helvetica,sans-Serif" font-size="10.00" fill="#000000">Swift_Mime_HeaderEncoder</text>
<polyline fill="none" stroke="#000000" points="154.6724,-207.5 297.9526,-207.5 "/>
<text text-anchor="middle" x="226.3125" y="-195.5" font-family="Helvetica,sans-Serif" font-size="10.00" fill="#000000"> </text>
<polyline fill="none" stroke="#000000" points="154.6724,-189.5 297.9526,-189.5 "/>
<text text-anchor="start" x="162.6724" y="-177.5" font-family="Helvetica,sans-Serif" font-size="10.00" fill="#000000">+ getName()</text>
</a>
</g>
</g>
<!-- Node2&#45;&gt;Node4 -->
<g id="edge5" class="edge">
<title>Node2&#45;&gt;Node4</title>
<path fill="none" stroke="#191970" d="M169.0069,-293.5257C181.945,-272.0715 198.1061,-245.2726 209.9646,-225.6085"/>
<polygon fill="none" stroke="#191970" points="165.8484,-291.9859 163.6814,-302.3567 171.8428,-295.6008 165.8484,-291.9859"/>
</g>
<!-- Node3 -->
<g id="node4" class="node">
<title>Node3</title>
<g id="a_node4"><a xlink:href="interface_swift___mime___charset_observer.html" target="_top" xlink:title="{Swift_Mime_CharsetObserver\n||+ charsetChanged()\l}">
<polygon fill="#ffffff" stroke="#000000" points="72.6255,-393.5 72.6255,-447.5 221.9995,-447.5 221.9995,-393.5 72.6255,-393.5"/>
<text text-anchor="middle" x="147.3125" y="-435.5" font-family="Helvetica,sans-Serif" font-size="10.00" fill="#000000">Swift_Mime_CharsetObserver</text>
<polyline fill="none" stroke="#000000" points="72.6255,-429.5 221.9995,-429.5 "/>
<text text-anchor="middle" x="147.3125" y="-417.5" font-family="Helvetica,sans-Serif" font-size="10.00" fill="#000000"> </text>
<polyline fill="none" stroke="#000000" points="72.6255,-411.5 221.9995,-411.5 "/>
<text text-anchor="start" x="80.6255" y="-399.5" font-family="Helvetica,sans-Serif" font-size="10.00" fill="#000000">+ charsetChanged()</text>
</a>
</g>
</g>
<!-- Node3&#45;&gt;Node2 -->
<g id="edge3" class="edge">
<title>Node3&#45;&gt;Node2</title>
<path fill="none" stroke="#191970" d="M147.3125,-383.12C147.3125,-374.3006 147.3125,-365.0605 147.3125,-356.7837"/>
<polygon fill="none" stroke="#191970" points="143.8126,-383.197 147.3125,-393.197 150.8126,-383.197 143.8126,-383.197"/>
</g>
<!-- Node4&#45;&gt;Node0 -->
<g id="edge4" class="edge">
<title>Node4&#45;&gt;Node0</title>
<path fill="none" stroke="#191970" d="M207.3326,-162.222C196.7036,-141.9058 183.3303,-116.3441 171.9064,-94.5085"/>
<polygon fill="none" stroke="#191970" points="204.2692,-163.9169 212.0062,-171.155 210.4717,-160.6719 204.2692,-163.9169"/>
</g>
</g>
</svg>
