<?xml version="1.0" encoding="UTF-8" standalone="no"?>
<!DOCTYPE svg PUBLIC "-//W3C//DTD SVG 1.1//EN"
 "http://www.w3.org/Graphics/SVG/1.1/DTD/svg11.dtd">
<!-- Generated by graphviz version 2.40.1 (20161225.0304)
 -->
<!-- Title: Swift_Mime_ContentEncoder_PlainContentEncoder Pages: 1 -->
<svg width="157pt" height="396pt"
 viewBox="0.00 0.00 157.37 396.00" xmlns="http://www.w3.org/2000/svg" xmlns:xlink="http://www.w3.org/1999/xlink">
<g id="graph0" class="graph" transform="scale(1 1) rotate(0) translate(4 392)">
<title>Swift_Mime_ContentEncoder_PlainContentEncoder</title>
<polygon fill="#ffffff" stroke="transparent" points="-4,4 -4,-392 153.374,-392 153.374,4 -4,4"/>
<!-- Node4 -->
<g id="node1" class="node">
<title>Node4</title>
<polygon fill="#bfbfbf" stroke="#000000" points="1.9336,-.5 1.9336,-104.5 147.4404,-104.5 147.4404,-.5 1.9336,-.5"/>
<text text-anchor="start" x="9.9336" y="-92.5" font-family="Helvetica,sans-Serif" font-size="10.00" fill="#000000">Swift_Mime_ContentEncoder</text>
<text text-anchor="middle" x="74.687" y="-82.5" font-family="Helvetica,sans-Serif" font-size="10.00" fill="#000000">_PlainContentEncoder</text>
<polyline fill="none" stroke="#000000" points="1.9336,-76.5 147.4404,-76.5 "/>
<text text-anchor="middle" x="74.687" y="-64.5" font-family="Helvetica,sans-Serif" font-size="10.00" fill="#000000"> </text>
<polyline fill="none" stroke="#000000" points="1.9336,-58.5 147.4404,-58.5 "/>
<text text-anchor="start" x="9.9336" y="-46.5" font-family="Helvetica,sans-Serif" font-size="10.00" fill="#000000">+ __construct()</text>
<text text-anchor="start" x="9.9336" y="-36.5" font-family="Helvetica,sans-Serif" font-size="10.00" fill="#000000">+ encodeString()</text>
<text text-anchor="start" x="9.9336" y="-26.5" font-family="Helvetica,sans-Serif" font-size="10.00" fill="#000000">+ encodeByteStream()</text>
<text text-anchor="start" x="9.9336" y="-16.5" font-family="Helvetica,sans-Serif" font-size="10.00" fill="#000000">+ getName()</text>
<text text-anchor="start" x="9.9336" y="-6.5" font-family="Helvetica,sans-Serif" font-size="10.00" fill="#000000">+ charsetChanged()</text>
</g>
<!-- Node5 -->
<g id="node2" class="node">
<title>Node5</title>
<g id="a_node2"><a xlink:href="interface_swift___mime___content_encoder.html" target="_top" xlink:title="{Swift_Mime_ContentEncoder\n||+ encodeByteStream()\l+ getName()\l}">
<polygon fill="#ffffff" stroke="#000000" points="1.9336,-141.5 1.9336,-205.5 147.4404,-205.5 147.4404,-141.5 1.9336,-141.5"/>
<text text-anchor="middle" x="74.687" y="-193.5" font-family="Helvetica,sans-Serif" font-size="10.00" fill="#000000">Swift_Mime_ContentEncoder</text>
<polyline fill="none" stroke="#000000" points="1.9336,-187.5 147.4404,-187.5 "/>
<text text-anchor="middle" x="74.687" y="-175.5" font-family="Helvetica,sans-Serif" font-size="10.00" fill="#000000"> </text>
<polyline fill="none" stroke="#000000" points="1.9336,-169.5 147.4404,-169.5 "/>
<text text-anchor="start" x="9.9336" y="-157.5" font-family="Helvetica,sans-Serif" font-size="10.00" fill="#000000">+ encodeByteStream()</text>
<text text-anchor="start" x="9.9336" y="-147.5" font-family="Helvetica,sans-Serif" font-size="10.00" fill="#000000">+ getName()</text>
</a>
</g>
</g>
<!-- Node5&#45;&gt;Node4 -->
<g id="edge1" class="edge">
<title>Node5&#45;&gt;Node4</title>
<path fill="none" stroke="#191970" d="M74.687,-131.3083C74.687,-122.7813 74.687,-113.7187 74.687,-104.8906"/>
<polygon fill="none" stroke="#191970" points="71.1871,-131.3919 74.687,-141.3919 78.1871,-131.3919 71.1871,-131.3919"/>
</g>
<!-- Node6 -->
<g id="node3" class="node">
<title>Node6</title>
<g id="a_node3"><a xlink:href="interface_swift___encoder.html" target="_top" xlink:title="{Swift_Encoder\n||+ encodeString()\l}">
<polygon fill="#ffffff" stroke="#000000" points="29.5825,-242.5 29.5825,-296.5 119.7915,-296.5 119.7915,-242.5 29.5825,-242.5"/>
<text text-anchor="middle" x="74.687" y="-284.5" font-family="Helvetica,sans-Serif" font-size="10.00" fill="#000000">Swift_Encoder</text>
<polyline fill="none" stroke="#000000" points="29.5825,-278.5 119.7915,-278.5 "/>
<text text-anchor="middle" x="74.687" y="-266.5" font-family="Helvetica,sans-Serif" font-size="10.00" fill="#000000"> </text>
<polyline fill="none" stroke="#000000" points="29.5825,-260.5 119.7915,-260.5 "/>
<text text-anchor="start" x="37.5825" y="-248.5" font-family="Helvetica,sans-Serif" font-size="10.00" fill="#000000">+ encodeString()</text>
</a>
</g>
</g>
<!-- Node6&#45;&gt;Node5 -->
<g id="edge2" class="edge">
<title>Node6&#45;&gt;Node5</title>
<path fill="none" stroke="#191970" d="M74.687,-232.2276C74.687,-223.4295 74.687,-214.1248 74.687,-205.5792"/>
<polygon fill="none" stroke="#191970" points="71.1871,-232.247 74.687,-242.247 78.1871,-232.2471 71.1871,-232.247"/>
</g>
<!-- Node7 -->
<g id="node4" class="node">
<title>Node7</title>
<g id="a_node4"><a xlink:href="interface_swift___mime___charset_observer.html" target="_top" xlink:title="{Swift_Mime_CharsetObserver\n||+ charsetChanged()\l}">
<polygon fill="#ffffff" stroke="#000000" points="0,-333.5 0,-387.5 149.374,-387.5 149.374,-333.5 0,-333.5"/>
<text text-anchor="middle" x="74.687" y="-375.5" font-family="Helvetica,sans-Serif" font-size="10.00" fill="#000000">Swift_Mime_CharsetObserver</text>
<polyline fill="none" stroke="#000000" points="0,-369.5 149.374,-369.5 "/>
<text text-anchor="middle" x="74.687" y="-357.5" font-family="Helvetica,sans-Serif" font-size="10.00" fill="#000000"> </text>
<polyline fill="none" stroke="#000000" points="0,-351.5 149.374,-351.5 "/>
<text text-anchor="start" x="8" y="-339.5" font-family="Helvetica,sans-Serif" font-size="10.00" fill="#000000">+ charsetChanged()</text>
</a>
</g>
</g>
<!-- Node7&#45;&gt;Node6 -->
<g id="edge3" class="edge">
<title>Node7&#45;&gt;Node6</title>
<path fill="none" stroke="#191970" d="M74.687,-323.12C74.687,-314.3006 74.687,-305.0605 74.687,-296.7837"/>
<polygon fill="none" stroke="#191970" points="71.1871,-323.197 74.687,-333.197 78.1871,-323.197 71.1871,-323.197"/>
</g>
</g>
</svg>
