<?xml version="1.0" encoding="UTF-8" standalone="no"?>
<!DOCTYPE svg PUBLIC "-//W3C//DTD SVG 1.1//EN"
 "http://www.w3.org/Graphics/SVG/1.1/DTD/svg11.dtd">
<!-- Generated by graphviz version 2.40.1 (20161225.0304)
 -->
<!-- Title: Google_ReviewAuthor Pages: 1 -->
<svg width="124pt" height="204pt"
 viewBox="0.00 0.00 124.06 204.00" xmlns="http://www.w3.org/2000/svg" xmlns:xlink="http://www.w3.org/1999/xlink">
<g id="graph0" class="graph" transform="scale(1 1) rotate(0) translate(4 200)">
<title>Google_ReviewAuthor</title>
<polygon fill="#ffffff" stroke="transparent" points="-4,4 -4,-200 120.0586,-200 120.0586,4 -4,4"/>
<!-- Node0 -->
<g id="node1" class="node">
<title>Node0</title>
<polygon fill="#bfbfbf" stroke="#000000" points="0,-.5 0,-64.5 116.0586,-64.5 116.0586,-.5 0,-.5"/>
<text text-anchor="middle" x="58.0293" y="-52.5" font-family="Helvetica,sans-Serif" font-size="10.00" fill="#000000">Google_ReviewAuthor</text>
<polyline fill="none" stroke="#000000" points="0,-46.5 116.0586,-46.5 "/>
<text text-anchor="start" x="8" y="-34.5" font-family="Helvetica,sans-Serif" font-size="10.00" fill="#000000">+ $displayName</text>
<polyline fill="none" stroke="#000000" points="0,-28.5 116.0586,-28.5 "/>
<text text-anchor="start" x="8" y="-16.5" font-family="Helvetica,sans-Serif" font-size="10.00" fill="#000000">+ setDisplayName()</text>
<text text-anchor="start" x="8" y="-6.5" font-family="Helvetica,sans-Serif" font-size="10.00" fill="#000000">+ getDisplayName()</text>
</g>
<!-- Node1 -->
<g id="node2" class="node">
<title>Node1</title>
<g id="a_node2"><a xlink:href="class_google___model.html" target="_top" xlink:title="{Google_Model\n||+ __construct()\l+ assertIsArray()\l# mapTypes()\l# isAssociativeArray()\l# useObjects()\l}">
<polygon fill="#ffffff" stroke="#000000" points="1.6846,-101.5 1.6846,-195.5 114.374,-195.5 114.374,-101.5 1.6846,-101.5"/>
<text text-anchor="middle" x="58.0293" y="-183.5" font-family="Helvetica,sans-Serif" font-size="10.00" fill="#000000">Google_Model</text>
<polyline fill="none" stroke="#000000" points="1.6846,-177.5 114.374,-177.5 "/>
<text text-anchor="middle" x="58.0293" y="-165.5" font-family="Helvetica,sans-Serif" font-size="10.00" fill="#000000"> </text>
<polyline fill="none" stroke="#000000" points="1.6846,-159.5 114.374,-159.5 "/>
<text text-anchor="start" x="9.6846" y="-147.5" font-family="Helvetica,sans-Serif" font-size="10.00" fill="#000000">+ __construct()</text>
<text text-anchor="start" x="9.6846" y="-137.5" font-family="Helvetica,sans-Serif" font-size="10.00" fill="#000000">+ assertIsArray()</text>
<text text-anchor="start" x="9.6846" y="-127.5" font-family="Helvetica,sans-Serif" font-size="10.00" fill="#000000"># mapTypes()</text>
<text text-anchor="start" x="9.6846" y="-117.5" font-family="Helvetica,sans-Serif" font-size="10.00" fill="#000000"># isAssociativeArray()</text>
<text text-anchor="start" x="9.6846" y="-107.5" font-family="Helvetica,sans-Serif" font-size="10.00" fill="#000000"># useObjects()</text>
</a>
</g>
</g>
<!-- Node1&#45;&gt;Node0 -->
<g id="edge1" class="edge">
<title>Node1&#45;&gt;Node0</title>
<path fill="none" stroke="#191970" d="M58.0293,-91.1299C58.0293,-82.0561 58.0293,-72.9618 58.0293,-64.7354"/>
<polygon fill="none" stroke="#191970" points="54.5294,-91.3183 58.0293,-101.3184 61.5294,-91.3184 54.5294,-91.3183"/>
</g>
</g>
</svg>
