<?xml version="1.0" encoding="UTF-8" standalone="no"?>
<!DOCTYPE svg PUBLIC "-//W3C//DTD SVG 1.1//EN"
 "http://www.w3.org/Graphics/SVG/1.1/DTD/svg11.dtd">
<!-- Generated by graphviz version 2.40.1 (20161225.0304)
 -->
<!-- Title: Google_ColumnServiceResource Pages: 1 -->
<svg width="172pt" height="234pt"
 viewBox="0.00 0.00 172.41 234.00" xmlns="http://www.w3.org/2000/svg" xmlns:xlink="http://www.w3.org/1999/xlink">
<g id="graph0" class="graph" transform="scale(1 1) rotate(0) translate(4 230)">
<title>Google_ColumnServiceResource</title>
<polygon fill="#ffffff" stroke="transparent" points="-4,4 -4,-230 168.4082,-230 168.4082,4 -4,4"/>
<!-- Node2 -->
<g id="node1" class="node">
<title>Node2</title>
<polygon fill="#bfbfbf" stroke="#000000" points="0,-.5 0,-104.5 164.4082,-104.5 164.4082,-.5 0,-.5"/>
<text text-anchor="middle" x="82.2041" y="-92.5" font-family="Helvetica,sans-Serif" font-size="10.00" fill="#000000">Google_ColumnServiceResource</text>
<polyline fill="none" stroke="#000000" points="0,-86.5 164.4082,-86.5 "/>
<text text-anchor="middle" x="82.2041" y="-74.5" font-family="Helvetica,sans-Serif" font-size="10.00" fill="#000000"> </text>
<polyline fill="none" stroke="#000000" points="0,-68.5 164.4082,-68.5 "/>
<text text-anchor="start" x="8" y="-56.5" font-family="Helvetica,sans-Serif" font-size="10.00" fill="#000000">+ delete()</text>
<text text-anchor="start" x="8" y="-46.5" font-family="Helvetica,sans-Serif" font-size="10.00" fill="#000000">+ get()</text>
<text text-anchor="start" x="8" y="-36.5" font-family="Helvetica,sans-Serif" font-size="10.00" fill="#000000">+ insert()</text>
<text text-anchor="start" x="8" y="-26.5" font-family="Helvetica,sans-Serif" font-size="10.00" fill="#000000">+ listColumn()</text>
<text text-anchor="start" x="8" y="-16.5" font-family="Helvetica,sans-Serif" font-size="10.00" fill="#000000">+ patch()</text>
<text text-anchor="start" x="8" y="-6.5" font-family="Helvetica,sans-Serif" font-size="10.00" fill="#000000">+ update()</text>
</g>
<!-- Node3 -->
<g id="node2" class="node">
<title>Node3</title>
<g id="a_node2"><a xlink:href="class_google___service_resource.html" target="_top" xlink:title="{Google_ServiceResource\n||+ __construct()\l+ __call()\l+ useObjects()\l# stripNull()\l}">
<polygon fill="#ffffff" stroke="#000000" points="17.229,-141.5 17.229,-225.5 147.1792,-225.5 147.1792,-141.5 17.229,-141.5"/>
<text text-anchor="middle" x="82.2041" y="-213.5" font-family="Helvetica,sans-Serif" font-size="10.00" fill="#000000">Google_ServiceResource</text>
<polyline fill="none" stroke="#000000" points="17.229,-207.5 147.1792,-207.5 "/>
<text text-anchor="middle" x="82.2041" y="-195.5" font-family="Helvetica,sans-Serif" font-size="10.00" fill="#000000"> </text>
<polyline fill="none" stroke="#000000" points="17.229,-189.5 147.1792,-189.5 "/>
<text text-anchor="start" x="25.229" y="-177.5" font-family="Helvetica,sans-Serif" font-size="10.00" fill="#000000">+ __construct()</text>
<text text-anchor="start" x="25.229" y="-167.5" font-family="Helvetica,sans-Serif" font-size="10.00" fill="#000000">+ __call()</text>
<text text-anchor="start" x="25.229" y="-157.5" font-family="Helvetica,sans-Serif" font-size="10.00" fill="#000000">+ useObjects()</text>
<text text-anchor="start" x="25.229" y="-147.5" font-family="Helvetica,sans-Serif" font-size="10.00" fill="#000000"># stripNull()</text>
</a>
</g>
</g>
<!-- Node3&#45;&gt;Node2 -->
<g id="edge1" class="edge">
<title>Node3&#45;&gt;Node2</title>
<path fill="none" stroke="#191970" d="M82.2041,-131.2546C82.2041,-122.5097 82.2041,-113.4358 82.2041,-104.6923"/>
<polygon fill="none" stroke="#191970" points="78.7042,-131.3297 82.2041,-141.3297 85.7042,-131.3297 78.7042,-131.3297"/>
</g>
</g>
</svg>
