<?xml version="1.0" encoding="UTF-8" standalone="no"?>
<!DOCTYPE svg PUBLIC "-//W3C//DTD SVG 1.1//EN"
 "http://www.w3.org/Graphics/SVG/1.1/DTD/svg11.dtd">
<!-- Generated by graphviz version 2.40.1 (20161225.0304)
 -->
<!-- Title: Swift_Events_TransportChangeEvent Pages: 1 -->
<svg width="165pt" height="305pt"
 viewBox="0.00 0.00 164.82 305.00" xmlns="http://www.w3.org/2000/svg" xmlns:xlink="http://www.w3.org/1999/xlink">
<g id="graph0" class="graph" transform="scale(1 1) rotate(0) translate(4 301)">
<title>Swift_Events_TransportChangeEvent</title>
<polygon fill="#ffffff" stroke="transparent" points="-4,4 -4,-301 160.8203,-301 160.8203,4 -4,4"/>
<!-- Node3 -->
<g id="node1" class="node">
<title>Node3</title>
<polygon fill="#bfbfbf" stroke="#000000" points="0,-.5 0,-64.5 156.8203,-64.5 156.8203,-.5 0,-.5"/>
<text text-anchor="start" x="8" y="-52.5" font-family="Helvetica,sans-Serif" font-size="10.00" fill="#000000">Swift_Events_TransportChange</text>
<text text-anchor="middle" x="78.4102" y="-42.5" font-family="Helvetica,sans-Serif" font-size="10.00" fill="#000000">Event</text>
<polyline fill="none" stroke="#000000" points="0,-36.5 156.8203,-36.5 "/>
<text text-anchor="middle" x="78.4102" y="-24.5" font-family="Helvetica,sans-Serif" font-size="10.00" fill="#000000"> </text>
<polyline fill="none" stroke="#000000" points="0,-18.5 156.8203,-18.5 "/>
<text text-anchor="start" x="8" y="-6.5" font-family="Helvetica,sans-Serif" font-size="10.00" fill="#000000">+ getTransport()</text>
</g>
<!-- Node4 -->
<g id="node2" class="node">
<title>Node4</title>
<g id="a_node2"><a xlink:href="class_swift___events___event_object.html" target="_top" xlink:title="{Swift_Events_EventObject\n||+ __construct()\l+ getSource()\l+ cancelBubble()\l+ bubbleCancelled()\l}">
<polygon fill="#ffffff" stroke="#000000" points="11.4917,-101.5 11.4917,-185.5 145.3286,-185.5 145.3286,-101.5 11.4917,-101.5"/>
<text text-anchor="middle" x="78.4102" y="-173.5" font-family="Helvetica,sans-Serif" font-size="10.00" fill="#000000">Swift_Events_EventObject</text>
<polyline fill="none" stroke="#000000" points="11.4917,-167.5 145.3286,-167.5 "/>
<text text-anchor="middle" x="78.4102" y="-155.5" font-family="Helvetica,sans-Serif" font-size="10.00" fill="#000000"> </text>
<polyline fill="none" stroke="#000000" points="11.4917,-149.5 145.3286,-149.5 "/>
<text text-anchor="start" x="19.4917" y="-137.5" font-family="Helvetica,sans-Serif" font-size="10.00" fill="#000000">+ __construct()</text>
<text text-anchor="start" x="19.4917" y="-127.5" font-family="Helvetica,sans-Serif" font-size="10.00" fill="#000000">+ getSource()</text>
<text text-anchor="start" x="19.4917" y="-117.5" font-family="Helvetica,sans-Serif" font-size="10.00" fill="#000000">+ cancelBubble()</text>
<text text-anchor="start" x="19.4917" y="-107.5" font-family="Helvetica,sans-Serif" font-size="10.00" fill="#000000">+ bubbleCancelled()</text>
</a>
</g>
</g>
<!-- Node4&#45;&gt;Node3 -->
<g id="edge1" class="edge">
<title>Node4&#45;&gt;Node3</title>
<path fill="none" stroke="#191970" d="M78.4102,-91.1185C78.4102,-82.0854 78.4102,-72.9418 78.4102,-64.6489"/>
<polygon fill="none" stroke="#191970" points="74.9103,-91.219 78.4102,-101.219 81.9103,-91.219 74.9103,-91.219"/>
</g>
<!-- Node5 -->
<g id="node3" class="node">
<title>Node5</title>
<g id="a_node3"><a xlink:href="interface_swift___events___event.html" target="_top" xlink:title="{Swift_Events_Event\n||+ getSource()\l+ cancelBubble()\l+ bubbleCancelled()\l}">
<polygon fill="#ffffff" stroke="#000000" points="25.52,-222.5 25.52,-296.5 131.3003,-296.5 131.3003,-222.5 25.52,-222.5"/>
<text text-anchor="middle" x="78.4102" y="-284.5" font-family="Helvetica,sans-Serif" font-size="10.00" fill="#000000">Swift_Events_Event</text>
<polyline fill="none" stroke="#000000" points="25.52,-278.5 131.3003,-278.5 "/>
<text text-anchor="middle" x="78.4102" y="-266.5" font-family="Helvetica,sans-Serif" font-size="10.00" fill="#000000"> </text>
<polyline fill="none" stroke="#000000" points="25.52,-260.5 131.3003,-260.5 "/>
<text text-anchor="start" x="33.52" y="-248.5" font-family="Helvetica,sans-Serif" font-size="10.00" fill="#000000">+ getSource()</text>
<text text-anchor="start" x="33.52" y="-238.5" font-family="Helvetica,sans-Serif" font-size="10.00" fill="#000000">+ cancelBubble()</text>
<text text-anchor="start" x="33.52" y="-228.5" font-family="Helvetica,sans-Serif" font-size="10.00" fill="#000000">+ bubbleCancelled()</text>
</a>
</g>
</g>
<!-- Node5&#45;&gt;Node4 -->
<g id="edge2" class="edge">
<title>Node5&#45;&gt;Node4</title>
<path fill="none" stroke="#191970" d="M78.4102,-212.3716C78.4102,-203.5842 78.4102,-194.4515 78.4102,-185.8197"/>
<polygon fill="none" stroke="#191970" points="74.9103,-212.4779 78.4102,-222.4779 81.9103,-212.478 74.9103,-212.4779"/>
</g>
</g>
</svg>
