<?xml version="1.0" encoding="UTF-8" standalone="no"?>
<!DOCTYPE svg PUBLIC "-//W3C//DTD SVG 1.1//EN"
 "http://www.w3.org/Graphics/SVG/1.1/DTD/svg11.dtd">
<!-- Generated by graphviz version 2.40.1 (20161225.0304)
 -->
<!-- Title: Swift_Transport_Esmtp_Auth_PlainAuthenticator Pages: 1 -->
<svg width="137pt" height="194pt"
 viewBox="0.00 0.00 136.86 194.00" xmlns="http://www.w3.org/2000/svg" xmlns:xlink="http://www.w3.org/1999/xlink">
<g id="graph0" class="graph" transform="scale(1 1) rotate(0) translate(4 190)">
<title>Swift_Transport_Esmtp_Auth_PlainAuthenticator</title>
<polygon fill="#ffffff" stroke="transparent" points="-4,4 -4,-190 132.8564,-190 132.8564,4 -4,4"/>
<!-- Node0 -->
<g id="node1" class="node">
<title>Node0</title>
<polygon fill="#bfbfbf" stroke="#000000" points="0,-.5 0,-74.5 128.8564,-74.5 128.8564,-.5 0,-.5"/>
<text text-anchor="start" x="8" y="-62.5" font-family="Helvetica,sans-Serif" font-size="10.00" fill="#000000">Swift_Transport_Esmtp</text>
<text text-anchor="middle" x="64.4282" y="-52.5" font-family="Helvetica,sans-Serif" font-size="10.00" fill="#000000">_Auth_PlainAuthenticator</text>
<polyline fill="none" stroke="#000000" points="0,-46.5 128.8564,-46.5 "/>
<text text-anchor="middle" x="64.4282" y="-34.5" font-family="Helvetica,sans-Serif" font-size="10.00" fill="#000000"> </text>
<polyline fill="none" stroke="#000000" points="0,-28.5 128.8564,-28.5 "/>
<text text-anchor="start" x="8" y="-16.5" font-family="Helvetica,sans-Serif" font-size="10.00" fill="#000000">+ getAuthKeyword()</text>
<text text-anchor="start" x="8" y="-6.5" font-family="Helvetica,sans-Serif" font-size="10.00" fill="#000000">+ authenticate()</text>
</g>
<!-- Node1 -->
<g id="node2" class="node">
<title>Node1</title>
<g id="a_node2"><a xlink:href="interface_swift___transport___esmtp___authenticator.html" target="_top" xlink:title="{Swift_Transport_Esmtp\l_Authenticator\n||+ getAuthKeyword()\l+ authenticate()\l}">
<polygon fill="#ffffff" stroke="#000000" points="4.6484,-111.5 4.6484,-185.5 124.208,-185.5 124.208,-111.5 4.6484,-111.5"/>
<text text-anchor="start" x="12.6484" y="-173.5" font-family="Helvetica,sans-Serif" font-size="10.00" fill="#000000">Swift_Transport_Esmtp</text>
<text text-anchor="middle" x="64.4282" y="-163.5" font-family="Helvetica,sans-Serif" font-size="10.00" fill="#000000">_Authenticator</text>
<polyline fill="none" stroke="#000000" points="4.6484,-157.5 124.208,-157.5 "/>
<text text-anchor="middle" x="64.4282" y="-145.5" font-family="Helvetica,sans-Serif" font-size="10.00" fill="#000000"> </text>
<polyline fill="none" stroke="#000000" points="4.6484,-139.5 124.208,-139.5 "/>
<text text-anchor="start" x="12.6484" y="-127.5" font-family="Helvetica,sans-Serif" font-size="10.00" fill="#000000">+ getAuthKeyword()</text>
<text text-anchor="start" x="12.6484" y="-117.5" font-family="Helvetica,sans-Serif" font-size="10.00" fill="#000000">+ authenticate()</text>
</a>
</g>
</g>
<!-- Node1&#45;&gt;Node0 -->
<g id="edge1" class="edge">
<title>Node1&#45;&gt;Node0</title>
<path fill="none" stroke="#191970" d="M64.4282,-101.1104C64.4282,-92.336 64.4282,-83.2851 64.4282,-74.8608"/>
<polygon fill="none" stroke="#191970" points="60.9283,-101.2298 64.4282,-111.2298 67.9283,-101.2299 60.9283,-101.2298"/>
</g>
</g>
</svg>
