<?xml version="1.0" encoding="UTF-8" standalone="no"?>
<!DOCTYPE svg PUBLIC "-//W3C//DTD SVG 1.1//EN"
 "http://www.w3.org/Graphics/SVG/1.1/DTD/svg11.dtd">
<!-- Generated by graphviz version 2.40.1 (20161225.0304)
 -->
<!-- Title: CommentsModule Pages: 1 -->
<svg width="182pt" height="264pt"
 viewBox="0.00 0.00 181.54 264.00" xmlns="http://www.w3.org/2000/svg" xmlns:xlink="http://www.w3.org/1999/xlink">
<g id="graph0" class="graph" transform="scale(1 1) rotate(0) translate(4 260)">
<title>CommentsModule</title>
<polygon fill="#ffffff" stroke="transparent" points="-4,4 -4,-260 177.5391,-260 177.5391,4 -4,4"/>
<!-- Node2 -->
<g id="node1" class="node">
<title>Node2</title>
<polygon fill="#bfbfbf" stroke="#000000" points="0,-.5 0,-164.5 173.5391,-164.5 173.5391,-.5 0,-.5"/>
<text text-anchor="middle" x="86.7695" y="-152.5" font-family="Helvetica,sans-Serif" font-size="10.00" fill="#000000">CommentsModule</text>
<polyline fill="none" stroke="#000000" points="0,-146.5 173.5391,-146.5 "/>
<text text-anchor="start" x="8" y="-134.5" font-family="Helvetica,sans-Serif" font-size="10.00" fill="#000000">+ $defaultController</text>
<text text-anchor="start" x="8" y="-124.5" font-family="Helvetica,sans-Serif" font-size="10.00" fill="#000000">+ CAPTCHA_ACTION_ROUTE</text>
<text text-anchor="start" x="8" y="-114.5" font-family="Helvetica,sans-Serif" font-size="10.00" fill="#000000">+ DELETE_ACTION_ROUTE</text>
<text text-anchor="start" x="8" y="-104.5" font-family="Helvetica,sans-Serif" font-size="10.00" fill="#000000">+ APPROVE_ACTION_ROUTE</text>
<text text-anchor="start" x="8" y="-94.5" font-family="Helvetica,sans-Serif" font-size="10.00" fill="#000000">+ DISAPPROVE_ACTION_ROUTE</text>
<text text-anchor="start" x="8" y="-84.5" font-family="Helvetica,sans-Serif" font-size="10.00" fill="#000000">+ $commentableModels</text>
<text text-anchor="start" x="8" y="-74.5" font-family="Helvetica,sans-Serif" font-size="10.00" fill="#000000">+ $postCommentAction</text>
<text text-anchor="start" x="8" y="-64.5" font-family="Helvetica,sans-Serif" font-size="10.00" fill="#000000">+ $userConfig</text>
<text text-anchor="start" x="8" y="-54.5" font-family="Helvetica,sans-Serif" font-size="10.00" fill="#000000"># $_defaultModelConfig</text>
<polyline fill="none" stroke="#000000" points="0,-48.5 173.5391,-48.5 "/>
<text text-anchor="start" x="8" y="-36.5" font-family="Helvetica,sans-Serif" font-size="10.00" fill="#000000">+ init()</text>
<text text-anchor="start" x="8" y="-26.5" font-family="Helvetica,sans-Serif" font-size="10.00" fill="#000000">+ outComments()</text>
<text text-anchor="start" x="8" y="-16.5" font-family="Helvetica,sans-Serif" font-size="10.00" fill="#000000">+ getModelConfig()</text>
<text text-anchor="start" x="8" y="-6.5" font-family="Helvetica,sans-Serif" font-size="10.00" fill="#000000">+ setDefaultModelConfig()</text>
</g>
<!-- Node3 -->
<g id="node2" class="node">
<title>Node3</title>
<polygon fill="#ffffff" stroke="#bfbfbf" points="48.5669,-201.5 48.5669,-255.5 124.9722,-255.5 124.9722,-201.5 48.5669,-201.5"/>
<text text-anchor="middle" x="86.7695" y="-243.5" font-family="Helvetica,sans-Serif" font-size="10.00" fill="#000000">CWebModule</text>
<polyline fill="none" stroke="#bfbfbf" points="48.5669,-237.5 124.9722,-237.5 "/>
<text text-anchor="middle" x="86.7695" y="-225.5" font-family="Helvetica,sans-Serif" font-size="10.00" fill="#000000"> </text>
<polyline fill="none" stroke="#bfbfbf" points="48.5669,-219.5 124.9722,-219.5 "/>
<text text-anchor="middle" x="86.7695" y="-207.5" font-family="Helvetica,sans-Serif" font-size="10.00" fill="#000000"> </text>
</g>
<!-- Node3&#45;&gt;Node2 -->
<g id="edge1" class="edge">
<title>Node3&#45;&gt;Node2</title>
<path fill="none" stroke="#191970" d="M86.7695,-191.3747C86.7695,-183.0924 86.7695,-173.9901 86.7695,-164.6855"/>
<polygon fill="none" stroke="#191970" points="83.2696,-191.3806 86.7695,-201.3807 90.2696,-191.3807 83.2696,-191.3806"/>
</g>
</g>
</svg>
