<?xml version="1.0" encoding="UTF-8" standalone="no"?>
<!DOCTYPE svg PUBLIC "-//W3C//DTD SVG 1.1//EN"
 "http://www.w3.org/Graphics/SVG/1.1/DTD/svg11.dtd">
<!-- Generated by graphviz version 2.40.1 (20161225.0304)
 -->
<!-- Title: Swift_Plugins_Loggers_EchoLogger Pages: 1 -->
<svg width="126pt" height="214pt"
 viewBox="0.00 0.00 125.73 214.00" xmlns="http://www.w3.org/2000/svg" xmlns:xlink="http://www.w3.org/1999/xlink">
<g id="graph0" class="graph" transform="scale(1 1) rotate(0) translate(4 210)">
<title>Swift_Plugins_Loggers_EchoLogger</title>
<polygon fill="#ffffff" stroke="transparent" points="-4,4 -4,-210 121.7285,-210 121.7285,4 -4,4"/>
<!-- Node0 -->
<g id="node1" class="node">
<title>Node0</title>
<polygon fill="#bfbfbf" stroke="#000000" points="0,-.5 0,-94.5 117.7285,-94.5 117.7285,-.5 0,-.5"/>
<text text-anchor="start" x="8" y="-82.5" font-family="Helvetica,sans-Serif" font-size="10.00" fill="#000000">Swift_Plugins_Loggers</text>
<text text-anchor="middle" x="58.8643" y="-72.5" font-family="Helvetica,sans-Serif" font-size="10.00" fill="#000000">_EchoLogger</text>
<polyline fill="none" stroke="#000000" points="0,-66.5 117.7285,-66.5 "/>
<text text-anchor="middle" x="58.8643" y="-54.5" font-family="Helvetica,sans-Serif" font-size="10.00" fill="#000000"> </text>
<polyline fill="none" stroke="#000000" points="0,-48.5 117.7285,-48.5 "/>
<text text-anchor="start" x="8" y="-36.5" font-family="Helvetica,sans-Serif" font-size="10.00" fill="#000000">+ __construct()</text>
<text text-anchor="start" x="8" y="-26.5" font-family="Helvetica,sans-Serif" font-size="10.00" fill="#000000">+ add()</text>
<text text-anchor="start" x="8" y="-16.5" font-family="Helvetica,sans-Serif" font-size="10.00" fill="#000000">+ clear()</text>
<text text-anchor="start" x="8" y="-6.5" font-family="Helvetica,sans-Serif" font-size="10.00" fill="#000000">+ dump()</text>
</g>
<!-- Node1 -->
<g id="node2" class="node">
<title>Node1</title>
<g id="a_node2"><a xlink:href="interface_swift___plugins___logger.html" target="_top" xlink:title="{Swift_Plugins_Logger\n||+ add()\l+ clear()\l+ dump()\l}">
<polygon fill="#ffffff" stroke="#000000" points="2.5,-131.5 2.5,-205.5 115.2285,-205.5 115.2285,-131.5 2.5,-131.5"/>
<text text-anchor="middle" x="58.8643" y="-193.5" font-family="Helvetica,sans-Serif" font-size="10.00" fill="#000000">Swift_Plugins_Logger</text>
<polyline fill="none" stroke="#000000" points="2.5,-187.5 115.2285,-187.5 "/>
<text text-anchor="middle" x="58.8643" y="-175.5" font-family="Helvetica,sans-Serif" font-size="10.00" fill="#000000"> </text>
<polyline fill="none" stroke="#000000" points="2.5,-169.5 115.2285,-169.5 "/>
<text text-anchor="start" x="10.5" y="-157.5" font-family="Helvetica,sans-Serif" font-size="10.00" fill="#000000">+ add()</text>
<text text-anchor="start" x="10.5" y="-147.5" font-family="Helvetica,sans-Serif" font-size="10.00" fill="#000000">+ clear()</text>
<text text-anchor="start" x="10.5" y="-137.5" font-family="Helvetica,sans-Serif" font-size="10.00" fill="#000000">+ dump()</text>
</a>
</g>
</g>
<!-- Node1&#45;&gt;Node0 -->
<g id="edge1" class="edge">
<title>Node1&#45;&gt;Node0</title>
<path fill="none" stroke="#191970" d="M58.8643,-120.9307C58.8643,-112.3143 58.8643,-103.3308 58.8643,-94.7244"/>
<polygon fill="none" stroke="#191970" points="55.3644,-121.2087 58.8643,-131.2087 62.3644,-121.2087 55.3644,-121.2087"/>
</g>
</g>
</svg>
