<?xml version="1.0" encoding="UTF-8" standalone="no"?>
<!DOCTYPE svg PUBLIC "-//W3C//DTD SVG 1.1//EN"
 "http://www.w3.org/Graphics/SVG/1.1/DTD/svg11.dtd">
<!-- Generated by graphviz version 2.40.1 (20161225.0304)
 -->
<!-- Title: Swift_StreamFilters_ByteArrayReplacementFilter Pages: 1 -->
<svg width="155pt" height="194pt"
 viewBox="0.00 0.00 154.61 194.00" xmlns="http://www.w3.org/2000/svg" xmlns:xlink="http://www.w3.org/1999/xlink">
<g id="graph0" class="graph" transform="scale(1 1) rotate(0) translate(4 190)">
<title>Swift_StreamFilters_ByteArrayReplacementFilter</title>
<polygon fill="#ffffff" stroke="transparent" points="-4,4 -4,-190 150.6055,-190 150.6055,4 -4,4"/>
<!-- Node0 -->
<g id="node1" class="node">
<title>Node0</title>
<polygon fill="#bfbfbf" stroke="#000000" points="0,-.5 0,-84.5 146.6055,-84.5 146.6055,-.5 0,-.5"/>
<text text-anchor="start" x="8" y="-72.5" font-family="Helvetica,sans-Serif" font-size="10.00" fill="#000000">Swift_StreamFilters</text>
<text text-anchor="middle" x="73.3027" y="-62.5" font-family="Helvetica,sans-Serif" font-size="10.00" fill="#000000">_ByteArrayReplacementFilter</text>
<polyline fill="none" stroke="#000000" points="0,-56.5 146.6055,-56.5 "/>
<text text-anchor="middle" x="73.3027" y="-44.5" font-family="Helvetica,sans-Serif" font-size="10.00" fill="#000000"> </text>
<polyline fill="none" stroke="#000000" points="0,-38.5 146.6055,-38.5 "/>
<text text-anchor="start" x="8" y="-26.5" font-family="Helvetica,sans-Serif" font-size="10.00" fill="#000000">+ __construct()</text>
<text text-anchor="start" x="8" y="-16.5" font-family="Helvetica,sans-Serif" font-size="10.00" fill="#000000">+ shouldBuffer()</text>
<text text-anchor="start" x="8" y="-6.5" font-family="Helvetica,sans-Serif" font-size="10.00" fill="#000000">+ filter()</text>
</g>
<!-- Node1 -->
<g id="node2" class="node">
<title>Node1</title>
<g id="a_node2"><a xlink:href="interface_swift___stream_filter.html" target="_top" xlink:title="{Swift_StreamFilter\n||+ shouldBuffer()\l+ filter()\l}">
<polygon fill="#ffffff" stroke="#000000" points="24.4604,-121.5 24.4604,-185.5 122.145,-185.5 122.145,-121.5 24.4604,-121.5"/>
<text text-anchor="middle" x="73.3027" y="-173.5" font-family="Helvetica,sans-Serif" font-size="10.00" fill="#000000">Swift_StreamFilter</text>
<polyline fill="none" stroke="#000000" points="24.4604,-167.5 122.145,-167.5 "/>
<text text-anchor="middle" x="73.3027" y="-155.5" font-family="Helvetica,sans-Serif" font-size="10.00" fill="#000000"> </text>
<polyline fill="none" stroke="#000000" points="24.4604,-149.5 122.145,-149.5 "/>
<text text-anchor="start" x="32.4604" y="-137.5" font-family="Helvetica,sans-Serif" font-size="10.00" fill="#000000">+ shouldBuffer()</text>
<text text-anchor="start" x="32.4604" y="-127.5" font-family="Helvetica,sans-Serif" font-size="10.00" fill="#000000">+ filter()</text>
</a>
</g>
</g>
<!-- Node1&#45;&gt;Node0 -->
<g id="edge1" class="edge">
<title>Node1&#45;&gt;Node0</title>
<path fill="none" stroke="#191970" d="M73.3027,-111.1673C73.3027,-102.5509 73.3027,-93.4852 73.3027,-84.8676"/>
<polygon fill="none" stroke="#191970" points="69.8028,-111.3942 73.3027,-121.3942 76.8028,-111.3942 69.8028,-111.3942"/>
</g>
</g>
</svg>
