<?xml version="1.0" encoding="UTF-8" standalone="no"?>
<!DOCTYPE svg PUBLIC "-//W3C//DTD SVG 1.1//EN"
 "http://www.w3.org/Graphics/SVG/1.1/DTD/svg11.dtd">
<!-- Generated by graphviz version 2.40.1 (20161225.0304)
 -->
<!-- Title: Google_LicensingService Pages: 1 -->
<svg width="137pt" height="174pt"
 viewBox="0.00 0.00 137.40 174.00" xmlns="http://www.w3.org/2000/svg" xmlns:xlink="http://www.w3.org/1999/xlink">
<g id="graph0" class="graph" transform="scale(1 1) rotate(0) translate(4 170)">
<title>Google_LicensingService</title>
<polygon fill="#ffffff" stroke="transparent" points="-4,4 -4,-170 133.4033,-170 133.4033,4 -4,4"/>
<!-- Node2 -->
<g id="node1" class="node">
<title>Node2</title>
<polygon fill="#bfbfbf" stroke="#000000" points="0,-.5 0,-54.5 129.4033,-54.5 129.4033,-.5 0,-.5"/>
<text text-anchor="middle" x="64.7017" y="-42.5" font-family="Helvetica,sans-Serif" font-size="10.00" fill="#000000">Google_LicensingService</text>
<polyline fill="none" stroke="#000000" points="0,-36.5 129.4033,-36.5 "/>
<text text-anchor="start" x="8" y="-24.5" font-family="Helvetica,sans-Serif" font-size="10.00" fill="#000000">+ $licenseAssignments</text>
<polyline fill="none" stroke="#000000" points="0,-18.5 129.4033,-18.5 "/>
<text text-anchor="start" x="8" y="-6.5" font-family="Helvetica,sans-Serif" font-size="10.00" fill="#000000">+ __construct()</text>
</g>
<!-- Node3 -->
<g id="node2" class="node">
<title>Node3</title>
<g id="a_node2"><a xlink:href="class_google___service.html" target="_top" xlink:title="{Google_Service\n|+ $version\l+ $servicePath\l+ $resource\l|}">
<polygon fill="#ffffff" stroke="#000000" points="21.1255,-91.5 21.1255,-165.5 108.2778,-165.5 108.2778,-91.5 21.1255,-91.5"/>
<text text-anchor="middle" x="64.7017" y="-153.5" font-family="Helvetica,sans-Serif" font-size="10.00" fill="#000000">Google_Service</text>
<polyline fill="none" stroke="#000000" points="21.1255,-147.5 108.2778,-147.5 "/>
<text text-anchor="start" x="29.1255" y="-135.5" font-family="Helvetica,sans-Serif" font-size="10.00" fill="#000000">+ $version</text>
<text text-anchor="start" x="29.1255" y="-125.5" font-family="Helvetica,sans-Serif" font-size="10.00" fill="#000000">+ $servicePath</text>
<text text-anchor="start" x="29.1255" y="-115.5" font-family="Helvetica,sans-Serif" font-size="10.00" fill="#000000">+ $resource</text>
<polyline fill="none" stroke="#000000" points="21.1255,-109.5 108.2778,-109.5 "/>
<text text-anchor="middle" x="64.7017" y="-97.5" font-family="Helvetica,sans-Serif" font-size="10.00" fill="#000000"> </text>
</a>
</g>
</g>
<!-- Node3&#45;&gt;Node2 -->
<g id="edge1" class="edge">
<title>Node3&#45;&gt;Node2</title>
<path fill="none" stroke="#191970" d="M64.7017,-81.3008C64.7017,-72.1879 64.7017,-62.931 64.7017,-54.7239"/>
<polygon fill="none" stroke="#191970" points="61.2018,-81.4648 64.7017,-91.4648 68.2018,-81.4649 61.2018,-81.4648"/>
</g>
</g>
</svg>
