<?xml version="1.0" encoding="UTF-8" standalone="no"?>
<!DOCTYPE svg PUBLIC "-//W3C//DTD SVG 1.1//EN"
 "http://www.w3.org/Graphics/SVG/1.1/DTD/svg11.dtd">
<!-- Generated by graphviz version 2.40.1 (20161225.0304)
 -->
<!-- Title: Swift_Encoder_QpEncoder Pages: 1 -->
<svg width="157pt" height="325pt"
 viewBox="0.00 0.00 157.37 325.00" xmlns="http://www.w3.org/2000/svg" xmlns:xlink="http://www.w3.org/1999/xlink">
<g id="graph0" class="graph" transform="scale(1 1) rotate(0) translate(4 321)">
<title>Swift_Encoder_QpEncoder</title>
<polygon fill="#ffffff" stroke="transparent" points="-4,4 -4,-321 153.374,-321 153.374,4 -4,4"/>
<!-- Node5 -->
<g id="node1" class="node">
<title>Node5</title>
<polygon fill="#bfbfbf" stroke="#000000" points="6.3745,-.5 6.3745,-134.5 142.9995,-134.5 142.9995,-.5 6.3745,-.5"/>
<text text-anchor="middle" x="74.687" y="-122.5" font-family="Helvetica,sans-Serif" font-size="10.00" fill="#000000">Swift_Encoder_QpEncoder</text>
<polyline fill="none" stroke="#000000" points="6.3745,-116.5 142.9995,-116.5 "/>
<text text-anchor="start" x="14.3745" y="-104.5" font-family="Helvetica,sans-Serif" font-size="10.00" fill="#000000"># $_charStream</text>
<text text-anchor="start" x="14.3745" y="-94.5" font-family="Helvetica,sans-Serif" font-size="10.00" fill="#000000"># $_filter</text>
<text text-anchor="start" x="14.3745" y="-84.5" font-family="Helvetica,sans-Serif" font-size="10.00" fill="#000000"># $_qpMap</text>
<text text-anchor="start" x="14.3745" y="-74.5" font-family="Helvetica,sans-Serif" font-size="10.00" fill="#000000"># $_safeMap</text>
<polyline fill="none" stroke="#000000" points="6.3745,-68.5 142.9995,-68.5 "/>
<text text-anchor="start" x="14.3745" y="-56.5" font-family="Helvetica,sans-Serif" font-size="10.00" fill="#000000">+ __construct()</text>
<text text-anchor="start" x="14.3745" y="-46.5" font-family="Helvetica,sans-Serif" font-size="10.00" fill="#000000">+ encodeString()</text>
<text text-anchor="start" x="14.3745" y="-36.5" font-family="Helvetica,sans-Serif" font-size="10.00" fill="#000000">+ charsetChanged()</text>
<text text-anchor="start" x="14.3745" y="-26.5" font-family="Helvetica,sans-Serif" font-size="10.00" fill="#000000"># _encodeByteSequence()</text>
<text text-anchor="start" x="14.3745" y="-16.5" font-family="Helvetica,sans-Serif" font-size="10.00" fill="#000000"># _nextSequence()</text>
<text text-anchor="start" x="14.3745" y="-6.5" font-family="Helvetica,sans-Serif" font-size="10.00" fill="#000000"># _standardize()</text>
</g>
<!-- Node6 -->
<g id="node2" class="node">
<title>Node6</title>
<g id="a_node2"><a xlink:href="interface_swift___encoder.html" target="_top" xlink:title="{Swift_Encoder\n||+ encodeString()\l}">
<polygon fill="#ffffff" stroke="#000000" points="29.5825,-171.5 29.5825,-225.5 119.7915,-225.5 119.7915,-171.5 29.5825,-171.5"/>
<text text-anchor="middle" x="74.687" y="-213.5" font-family="Helvetica,sans-Serif" font-size="10.00" fill="#000000">Swift_Encoder</text>
<polyline fill="none" stroke="#000000" points="29.5825,-207.5 119.7915,-207.5 "/>
<text text-anchor="middle" x="74.687" y="-195.5" font-family="Helvetica,sans-Serif" font-size="10.00" fill="#000000"> </text>
<polyline fill="none" stroke="#000000" points="29.5825,-189.5 119.7915,-189.5 "/>
<text text-anchor="start" x="37.5825" y="-177.5" font-family="Helvetica,sans-Serif" font-size="10.00" fill="#000000">+ encodeString()</text>
</a>
</g>
</g>
<!-- Node6&#45;&gt;Node5 -->
<g id="edge1" class="edge">
<title>Node6&#45;&gt;Node5</title>
<path fill="none" stroke="#191970" d="M74.687,-161.2321C74.687,-152.8764 74.687,-143.7626 74.687,-134.607"/>
<polygon fill="none" stroke="#191970" points="71.1871,-161.3567 74.687,-171.3567 78.1871,-161.3567 71.1871,-161.3567"/>
</g>
<!-- Node7 -->
<g id="node3" class="node">
<title>Node7</title>
<g id="a_node3"><a xlink:href="interface_swift___mime___charset_observer.html" target="_top" xlink:title="{Swift_Mime_CharsetObserver\n||+ charsetChanged()\l}">
<polygon fill="#ffffff" stroke="#000000" points="0,-262.5 0,-316.5 149.374,-316.5 149.374,-262.5 0,-262.5"/>
<text text-anchor="middle" x="74.687" y="-304.5" font-family="Helvetica,sans-Serif" font-size="10.00" fill="#000000">Swift_Mime_CharsetObserver</text>
<polyline fill="none" stroke="#000000" points="0,-298.5 149.374,-298.5 "/>
<text text-anchor="middle" x="74.687" y="-286.5" font-family="Helvetica,sans-Serif" font-size="10.00" fill="#000000"> </text>
<polyline fill="none" stroke="#000000" points="0,-280.5 149.374,-280.5 "/>
<text text-anchor="start" x="8" y="-268.5" font-family="Helvetica,sans-Serif" font-size="10.00" fill="#000000">+ charsetChanged()</text>
</a>
</g>
</g>
<!-- Node7&#45;&gt;Node6 -->
<g id="edge2" class="edge">
<title>Node7&#45;&gt;Node6</title>
<path fill="none" stroke="#191970" d="M74.687,-252.12C74.687,-243.3006 74.687,-234.0605 74.687,-225.7837"/>
<polygon fill="none" stroke="#191970" points="71.1871,-252.197 74.687,-262.197 78.1871,-252.197 71.1871,-252.197"/>
</g>
</g>
</svg>
