<?xml version="1.0" encoding="UTF-8" standalone="no"?>
<!DOCTYPE svg PUBLIC "-//W3C//DTD SVG 1.1//EN"
 "http://www.w3.org/Graphics/SVG/1.1/DTD/svg11.dtd">
<!-- Generated by graphviz version 2.40.1 (20161225.0304)
 -->
<!-- Title: CImageComponent Pages: 1 -->
<svg width="132pt" height="174pt"
 viewBox="0.00 0.00 131.84 174.00" xmlns="http://www.w3.org/2000/svg" xmlns:xlink="http://www.w3.org/1999/xlink">
<g id="graph0" class="graph" transform="scale(1 1) rotate(0) translate(4 170)">
<title>CImageComponent</title>
<polygon fill="#ffffff" stroke="transparent" points="-4,4 -4,-170 127.8418,-170 127.8418,4 -4,4"/>
<!-- Node0 -->
<g id="node1" class="node">
<title>Node0</title>
<polygon fill="#bfbfbf" stroke="#000000" points="10.564,-.5 10.564,-74.5 113.2778,-74.5 113.2778,-.5 10.564,-.5"/>
<text text-anchor="middle" x="61.9209" y="-62.5" font-family="Helvetica,sans-Serif" font-size="10.00" fill="#000000">CImageComponent</text>
<polyline fill="none" stroke="#000000" points="10.564,-56.5 113.2778,-56.5 "/>
<text text-anchor="start" x="18.564" y="-44.5" font-family="Helvetica,sans-Serif" font-size="10.00" fill="#000000">+ $driver</text>
<text text-anchor="start" x="18.564" y="-34.5" font-family="Helvetica,sans-Serif" font-size="10.00" fill="#000000">+ $params</text>
<polyline fill="none" stroke="#000000" points="10.564,-28.5 113.2778,-28.5 "/>
<text text-anchor="start" x="18.564" y="-16.5" font-family="Helvetica,sans-Serif" font-size="10.00" fill="#000000">+ init()</text>
<text text-anchor="start" x="18.564" y="-6.5" font-family="Helvetica,sans-Serif" font-size="10.00" fill="#000000">+ load()</text>
</g>
<!-- Node1 -->
<g id="node2" class="node">
<title>Node1</title>
<polygon fill="#ffffff" stroke="#bfbfbf" points="0,-111.5 0,-165.5 123.8418,-165.5 123.8418,-111.5 0,-111.5"/>
<text text-anchor="middle" x="61.9209" y="-153.5" font-family="Helvetica,sans-Serif" font-size="10.00" fill="#000000">CApplicationComponent</text>
<polyline fill="none" stroke="#bfbfbf" points="0,-147.5 123.8418,-147.5 "/>
<text text-anchor="middle" x="61.9209" y="-135.5" font-family="Helvetica,sans-Serif" font-size="10.00" fill="#000000"> </text>
<polyline fill="none" stroke="#bfbfbf" points="0,-129.5 123.8418,-129.5 "/>
<text text-anchor="middle" x="61.9209" y="-117.5" font-family="Helvetica,sans-Serif" font-size="10.00" fill="#000000"> </text>
</g>
<!-- Node1&#45;&gt;Node0 -->
<g id="edge1" class="edge">
<title>Node1&#45;&gt;Node0</title>
<path fill="none" stroke="#191970" d="M61.9209,-101.1725C61.9209,-92.4692 61.9209,-83.2047 61.9209,-74.515"/>
<polygon fill="none" stroke="#191970" points="58.421,-101.4338 61.9209,-111.4339 65.421,-101.4339 58.421,-101.4338"/>
</g>
</g>
</svg>
