<?xml version="1.0" encoding="UTF-8" standalone="no"?>
<!DOCTYPE svg PUBLIC "-//W3C//DTD SVG 1.1//EN"
 "http://www.w3.org/Graphics/SVG/1.1/DTD/svg11.dtd">
<!-- Generated by graphviz version 2.40.1 (20161225.0304)
 -->
<!-- Title: Google_ComposeRequestSourceObjectsObjectPreconditions Pages: 1 -->
<svg width="174pt" height="214pt"
 viewBox="0.00 0.00 173.54 214.00" xmlns="http://www.w3.org/2000/svg" xmlns:xlink="http://www.w3.org/1999/xlink">
<g id="graph0" class="graph" transform="scale(1 1) rotate(0) translate(4 210)">
<title>Google_ComposeRequestSourceObjectsObjectPreconditions</title>
<polygon fill="#ffffff" stroke="transparent" points="-4,4 -4,-210 169.5361,-210 169.5361,4 -4,4"/>
<!-- Node2 -->
<g id="node1" class="node">
<title>Node2</title>
<polygon fill="#bfbfbf" stroke="#000000" points="0,-.5 0,-74.5 165.5361,-74.5 165.5361,-.5 0,-.5"/>
<text text-anchor="start" x="8" y="-62.5" font-family="Helvetica,sans-Serif" font-size="10.00" fill="#000000">Google_ComposeRequestSource</text>
<text text-anchor="middle" x="82.7681" y="-52.5" font-family="Helvetica,sans-Serif" font-size="10.00" fill="#000000">ObjectsObjectPreconditions</text>
<polyline fill="none" stroke="#000000" points="0,-46.5 165.5361,-46.5 "/>
<text text-anchor="start" x="8" y="-34.5" font-family="Helvetica,sans-Serif" font-size="10.00" fill="#000000">+ $ifGenerationMatch</text>
<polyline fill="none" stroke="#000000" points="0,-28.5 165.5361,-28.5 "/>
<text text-anchor="start" x="8" y="-16.5" font-family="Helvetica,sans-Serif" font-size="10.00" fill="#000000">+ setIfGenerationMatch()</text>
<text text-anchor="start" x="8" y="-6.5" font-family="Helvetica,sans-Serif" font-size="10.00" fill="#000000">+ getIfGenerationMatch()</text>
</g>
<!-- Node3 -->
<g id="node2" class="node">
<title>Node3</title>
<g id="a_node2"><a xlink:href="class_google___model.html" target="_top" xlink:title="{Google_Model\n||+ __construct()\l+ assertIsArray()\l# mapTypes()\l# isAssociativeArray()\l# useObjects()\l}">
<polygon fill="#ffffff" stroke="#000000" points="26.4233,-111.5 26.4233,-205.5 139.1128,-205.5 139.1128,-111.5 26.4233,-111.5"/>
<text text-anchor="middle" x="82.7681" y="-193.5" font-family="Helvetica,sans-Serif" font-size="10.00" fill="#000000">Google_Model</text>
<polyline fill="none" stroke="#000000" points="26.4233,-187.5 139.1128,-187.5 "/>
<text text-anchor="middle" x="82.7681" y="-175.5" font-family="Helvetica,sans-Serif" font-size="10.00" fill="#000000"> </text>
<polyline fill="none" stroke="#000000" points="26.4233,-169.5 139.1128,-169.5 "/>
<text text-anchor="start" x="34.4233" y="-157.5" font-family="Helvetica,sans-Serif" font-size="10.00" fill="#000000">+ __construct()</text>
<text text-anchor="start" x="34.4233" y="-147.5" font-family="Helvetica,sans-Serif" font-size="10.00" fill="#000000">+ assertIsArray()</text>
<text text-anchor="start" x="34.4233" y="-137.5" font-family="Helvetica,sans-Serif" font-size="10.00" fill="#000000"># mapTypes()</text>
<text text-anchor="start" x="34.4233" y="-127.5" font-family="Helvetica,sans-Serif" font-size="10.00" fill="#000000"># isAssociativeArray()</text>
<text text-anchor="start" x="34.4233" y="-117.5" font-family="Helvetica,sans-Serif" font-size="10.00" fill="#000000"># useObjects()</text>
</a>
</g>
</g>
<!-- Node3&#45;&gt;Node2 -->
<g id="edge1" class="edge">
<title>Node3&#45;&gt;Node2</title>
<path fill="none" stroke="#191970" d="M82.7681,-101.2279C82.7681,-92.1684 82.7681,-83.0122 82.7681,-74.5748"/>
<polygon fill="none" stroke="#191970" points="79.2682,-101.3717 82.7681,-111.3718 86.2682,-101.3718 79.2682,-101.3717"/>
</g>
</g>
</svg>
