<?xml version="1.0" encoding="UTF-8" standalone="no"?>
<!DOCTYPE svg PUBLIC "-//W3C//DTD SVG 1.1//EN"
 "http://www.w3.org/Graphics/SVG/1.1/DTD/svg11.dtd">
<!-- Generated by graphviz version 2.40.1 (20161225.0304)
 -->
<!-- Title: Swift_Plugins_BandwidthMonitorPlugin Pages: 1 -->
<svg width="640pt" height="546pt"
 viewBox="0.00 0.00 640.00 546.00" xmlns="http://www.w3.org/2000/svg" xmlns:xlink="http://www.w3.org/1999/xlink">
<g id="graph0" class="graph" transform="scale(1 1) rotate(0) translate(4 542)">
<title>Swift_Plugins_BandwidthMonitorPlugin</title>
<polygon fill="#ffffff" stroke="transparent" points="-4,4 -4,-542 636.0044,-542 636.0044,4 -4,4"/>
<!-- Node0 -->
<g id="node1" class="node">
<title>Node0</title>
<polygon fill="#bfbfbf" stroke="#000000" points="245.3301,-141.5 245.3301,-315.5 406.9648,-315.5 406.9648,-141.5 245.3301,-141.5"/>
<text text-anchor="start" x="253.3301" y="-303.5" font-family="Helvetica,sans-Serif" font-size="10.00" fill="#000000">Swift_Plugins_BandwidthMonitor</text>
<text text-anchor="middle" x="326.1475" y="-293.5" font-family="Helvetica,sans-Serif" font-size="10.00" fill="#000000">Plugin</text>
<polyline fill="none" stroke="#000000" points="245.3301,-287.5 406.9648,-287.5 "/>
<text text-anchor="middle" x="326.1475" y="-275.5" font-family="Helvetica,sans-Serif" font-size="10.00" fill="#000000"> </text>
<polyline fill="none" stroke="#000000" points="245.3301,-269.5 406.9648,-269.5 "/>
<text text-anchor="start" x="253.3301" y="-257.5" font-family="Helvetica,sans-Serif" font-size="10.00" fill="#000000">+ beforeSendPerformed()</text>
<text text-anchor="start" x="253.3301" y="-247.5" font-family="Helvetica,sans-Serif" font-size="10.00" fill="#000000">+ sendPerformed()</text>
<text text-anchor="start" x="253.3301" y="-237.5" font-family="Helvetica,sans-Serif" font-size="10.00" fill="#000000">+ commandSent()</text>
<text text-anchor="start" x="253.3301" y="-227.5" font-family="Helvetica,sans-Serif" font-size="10.00" fill="#000000">+ responseReceived()</text>
<text text-anchor="start" x="253.3301" y="-217.5" font-family="Helvetica,sans-Serif" font-size="10.00" fill="#000000">+ write()</text>
<text text-anchor="start" x="253.3301" y="-207.5" font-family="Helvetica,sans-Serif" font-size="10.00" fill="#000000">+ commit()</text>
<text text-anchor="start" x="253.3301" y="-197.5" font-family="Helvetica,sans-Serif" font-size="10.00" fill="#000000">+ bind()</text>
<text text-anchor="start" x="253.3301" y="-187.5" font-family="Helvetica,sans-Serif" font-size="10.00" fill="#000000">+ unbind()</text>
<text text-anchor="start" x="253.3301" y="-177.5" font-family="Helvetica,sans-Serif" font-size="10.00" fill="#000000">+ flushBuffers()</text>
<text text-anchor="start" x="253.3301" y="-167.5" font-family="Helvetica,sans-Serif" font-size="10.00" fill="#000000">+ getBytesOut()</text>
<text text-anchor="start" x="253.3301" y="-157.5" font-family="Helvetica,sans-Serif" font-size="10.00" fill="#000000">+ getBytesIn()</text>
<text text-anchor="start" x="253.3301" y="-147.5" font-family="Helvetica,sans-Serif" font-size="10.00" fill="#000000">+ reset()</text>
</g>
<!-- Node6 -->
<g id="node7" class="node">
<title>Node6</title>
<g id="a_node7"><a xlink:href="class_swift___plugins___throttler_plugin.html" target="_top" xlink:title="{Swift_Plugins_ThrottlerPlugin\n|+ BYTES_PER_MINUTE\l+ MESSAGES_PER_MINUTE\l|+ __construct()\l+ beforeSendPerformed()\l+ sendPerformed()\l+ sleep()\l+ getTimestamp()\l}">
<polygon fill="#ffffff" stroke="#000000" points="250.7671,-.5 250.7671,-104.5 401.5278,-104.5 401.5278,-.5 250.7671,-.5"/>
<text text-anchor="middle" x="326.1475" y="-92.5" font-family="Helvetica,sans-Serif" font-size="10.00" fill="#000000">Swift_Plugins_ThrottlerPlugin</text>
<polyline fill="none" stroke="#000000" points="250.7671,-86.5 401.5278,-86.5 "/>
<text text-anchor="start" x="258.7671" y="-74.5" font-family="Helvetica,sans-Serif" font-size="10.00" fill="#000000">+ BYTES_PER_MINUTE</text>
<text text-anchor="start" x="258.7671" y="-64.5" font-family="Helvetica,sans-Serif" font-size="10.00" fill="#000000">+ MESSAGES_PER_MINUTE</text>
<polyline fill="none" stroke="#000000" points="250.7671,-58.5 401.5278,-58.5 "/>
<text text-anchor="start" x="258.7671" y="-46.5" font-family="Helvetica,sans-Serif" font-size="10.00" fill="#000000">+ __construct()</text>
<text text-anchor="start" x="258.7671" y="-36.5" font-family="Helvetica,sans-Serif" font-size="10.00" fill="#000000">+ beforeSendPerformed()</text>
<text text-anchor="start" x="258.7671" y="-26.5" font-family="Helvetica,sans-Serif" font-size="10.00" fill="#000000">+ sendPerformed()</text>
<text text-anchor="start" x="258.7671" y="-16.5" font-family="Helvetica,sans-Serif" font-size="10.00" fill="#000000">+ sleep()</text>
<text text-anchor="start" x="258.7671" y="-6.5" font-family="Helvetica,sans-Serif" font-size="10.00" fill="#000000">+ getTimestamp()</text>
</a>
</g>
</g>
<!-- Node0&#45;&gt;Node6 -->
<g id="edge8" class="edge">
<title>Node0&#45;&gt;Node6</title>
<path fill="none" stroke="#191970" d="M326.1475,-131.0787C326.1475,-122.081 326.1475,-113.2162 326.1475,-104.8665"/>
<polygon fill="none" stroke="#191970" points="322.6476,-131.2734 326.1475,-141.2734 329.6476,-131.2735 322.6476,-131.2734"/>
</g>
<!-- Node1 -->
<g id="node2" class="node">
<title>Node1</title>
<g id="a_node2"><a xlink:href="interface_swift___events___send_listener.html" target="_top" xlink:title="{Swift_Events_SendListener\n||+ beforeSendPerformed()\l+ sendPerformed()\l}">
<polygon fill="#ffffff" stroke="#000000" points="0,-367.5 0,-431.5 138.2949,-431.5 138.2949,-367.5 0,-367.5"/>
<text text-anchor="middle" x="69.1475" y="-419.5" font-family="Helvetica,sans-Serif" font-size="10.00" fill="#000000">Swift_Events_SendListener</text>
<polyline fill="none" stroke="#000000" points="0,-413.5 138.2949,-413.5 "/>
<text text-anchor="middle" x="69.1475" y="-401.5" font-family="Helvetica,sans-Serif" font-size="10.00" fill="#000000"> </text>
<polyline fill="none" stroke="#000000" points="0,-395.5 138.2949,-395.5 "/>
<text text-anchor="start" x="8" y="-383.5" font-family="Helvetica,sans-Serif" font-size="10.00" fill="#000000">+ beforeSendPerformed()</text>
<text text-anchor="start" x="8" y="-373.5" font-family="Helvetica,sans-Serif" font-size="10.00" fill="#000000">+ sendPerformed()</text>
</a>
</g>
</g>
<!-- Node1&#45;&gt;Node0 -->
<g id="edge1" class="edge">
<title>Node1&#45;&gt;Node0</title>
<path fill="none" stroke="#191970" d="M126.149,-361.5729C161.1389,-338.2917 206.5039,-308.1072 245.1811,-282.3726"/>
<polygon fill="none" stroke="#191970" points="123.8738,-358.8827 117.4872,-367.3362 127.7515,-364.7106 123.8738,-358.8827"/>
</g>
<!-- Node2 -->
<g id="node3" class="node">
<title>Node2</title>
<g id="a_node3"><a xlink:href="interface_swift___events___event_listener.html" target="_top" xlink:title="{Swift_Events_EventListener\n||}">
<polygon fill="#ffffff" stroke="#000000" points="166.8916,-483.5 166.8916,-537.5 307.4033,-537.5 307.4033,-483.5 166.8916,-483.5"/>
<text text-anchor="middle" x="237.1475" y="-525.5" font-family="Helvetica,sans-Serif" font-size="10.00" fill="#000000">Swift_Events_EventListener</text>
<polyline fill="none" stroke="#000000" points="166.8916,-519.5 307.4033,-519.5 "/>
<text text-anchor="middle" x="237.1475" y="-507.5" font-family="Helvetica,sans-Serif" font-size="10.00" fill="#000000"> </text>
<polyline fill="none" stroke="#000000" points="166.8916,-501.5 307.4033,-501.5 "/>
<text text-anchor="middle" x="237.1475" y="-489.5" font-family="Helvetica,sans-Serif" font-size="10.00" fill="#000000"> </text>
</a>
</g>
</g>
<!-- Node2&#45;&gt;Node1 -->
<g id="edge2" class="edge">
<title>Node2&#45;&gt;Node1</title>
<path fill="none" stroke="#191970" d="M187.5148,-477.707C165.5329,-463.1832 139.7568,-446.1526 117.8802,-431.6984"/>
<polygon fill="none" stroke="#191970" points="185.7773,-480.7539 196.05,-483.3463 189.6361,-474.9135 185.7773,-480.7539"/>
</g>
<!-- Node3 -->
<g id="node4" class="node">
<title>Node3</title>
<g id="a_node4"><a xlink:href="interface_swift___events___command_listener.html" target="_top" xlink:title="{Swift_Events_CommandListener\n||+ commandSent()\l}">
<polygon fill="#ffffff" stroke="#000000" points="156.6133,-372.5 156.6133,-426.5 317.6816,-426.5 317.6816,-372.5 156.6133,-372.5"/>
<text text-anchor="middle" x="237.1475" y="-414.5" font-family="Helvetica,sans-Serif" font-size="10.00" fill="#000000">Swift_Events_CommandListener</text>
<polyline fill="none" stroke="#000000" points="156.6133,-408.5 317.6816,-408.5 "/>
<text text-anchor="middle" x="237.1475" y="-396.5" font-family="Helvetica,sans-Serif" font-size="10.00" fill="#000000"> </text>
<polyline fill="none" stroke="#000000" points="156.6133,-390.5 317.6816,-390.5 "/>
<text text-anchor="start" x="164.6133" y="-378.5" font-family="Helvetica,sans-Serif" font-size="10.00" fill="#000000">+ commandSent()</text>
</a>
</g>
</g>
<!-- Node2&#45;&gt;Node3 -->
<g id="edge4" class="edge">
<title>Node2&#45;&gt;Node3</title>
<path fill="none" stroke="#191970" d="M237.1475,-473.2125C237.1475,-458.0069 237.1475,-440.75 237.1475,-426.758"/>
<polygon fill="none" stroke="#191970" points="233.6476,-473.3463 237.1475,-483.3463 240.6476,-473.3464 233.6476,-473.3463"/>
</g>
<!-- Node4 -->
<g id="node5" class="node">
<title>Node4</title>
<g id="a_node5"><a xlink:href="interface_swift___events___response_listener.html" target="_top" xlink:title="{Swift_Events_ResponseListener\n||+ responseReceived()\l}">
<polygon fill="#ffffff" stroke="#000000" points="336.1626,-372.5 336.1626,-426.5 496.1323,-426.5 496.1323,-372.5 336.1626,-372.5"/>
<text text-anchor="middle" x="416.1475" y="-414.5" font-family="Helvetica,sans-Serif" font-size="10.00" fill="#000000">Swift_Events_ResponseListener</text>
<polyline fill="none" stroke="#000000" points="336.1626,-408.5 496.1323,-408.5 "/>
<text text-anchor="middle" x="416.1475" y="-396.5" font-family="Helvetica,sans-Serif" font-size="10.00" fill="#000000"> </text>
<polyline fill="none" stroke="#000000" points="336.1626,-390.5 496.1323,-390.5 "/>
<text text-anchor="start" x="344.1626" y="-378.5" font-family="Helvetica,sans-Serif" font-size="10.00" fill="#000000">+ responseReceived()</text>
</a>
</g>
</g>
<!-- Node2&#45;&gt;Node4 -->
<g id="edge6" class="edge">
<title>Node2&#45;&gt;Node4</title>
<path fill="none" stroke="#191970" d="M289.6516,-477.9416C315.9882,-461.6099 347.5119,-442.0617 372.5013,-426.5655"/>
<polygon fill="none" stroke="#191970" points="287.5899,-475.1017 280.9358,-483.3463 291.2789,-481.0507 287.5899,-475.1017"/>
</g>
<!-- Node3&#45;&gt;Node0 -->
<g id="edge3" class="edge">
<title>Node3&#45;&gt;Node0</title>
<path fill="none" stroke="#191970" d="M256.0531,-363.1756C263.3348,-349.1851 272.0016,-332.5331 280.7161,-315.7895"/>
<polygon fill="none" stroke="#191970" points="252.762,-361.9182 251.2498,-372.4045 258.9713,-365.15 252.762,-361.9182"/>
</g>
<!-- Node4&#45;&gt;Node0 -->
<g id="edge5" class="edge">
<title>Node4&#45;&gt;Node0</title>
<path fill="none" stroke="#191970" d="M397.0294,-363.1756C389.6659,-349.1851 380.9017,-332.5331 372.0893,-315.7895"/>
<polygon fill="none" stroke="#191970" points="394.132,-365.1855 401.8867,-372.4045 400.3264,-361.9252 394.132,-365.1855"/>
</g>
<!-- Node5 -->
<g id="node6" class="node">
<title>Node5</title>
<g id="a_node6"><a xlink:href="interface_swift___input_byte_stream.html" target="_top" xlink:title="{Swift_InputByteStream\n||+ write()\l+ commit()\l+ bind()\l+ unbind()\l+ flushBuffers()\l}">
<polygon fill="#ffffff" stroke="#000000" points="514.2905,-352.5 514.2905,-446.5 632.0044,-446.5 632.0044,-352.5 514.2905,-352.5"/>
<text text-anchor="middle" x="573.1475" y="-434.5" font-family="Helvetica,sans-Serif" font-size="10.00" fill="#000000">Swift_InputByteStream</text>
<polyline fill="none" stroke="#000000" points="514.2905,-428.5 632.0044,-428.5 "/>
<text text-anchor="middle" x="573.1475" y="-416.5" font-family="Helvetica,sans-Serif" font-size="10.00" fill="#000000"> </text>
<polyline fill="none" stroke="#000000" points="514.2905,-410.5 632.0044,-410.5 "/>
<text text-anchor="start" x="522.2905" y="-398.5" font-family="Helvetica,sans-Serif" font-size="10.00" fill="#000000">+ write()</text>
<text text-anchor="start" x="522.2905" y="-388.5" font-family="Helvetica,sans-Serif" font-size="10.00" fill="#000000">+ commit()</text>
<text text-anchor="start" x="522.2905" y="-378.5" font-family="Helvetica,sans-Serif" font-size="10.00" fill="#000000">+ bind()</text>
<text text-anchor="start" x="522.2905" y="-368.5" font-family="Helvetica,sans-Serif" font-size="10.00" fill="#000000">+ unbind()</text>
<text text-anchor="start" x="522.2905" y="-358.5" font-family="Helvetica,sans-Serif" font-size="10.00" fill="#000000">+ flushBuffers()</text>
</a>
</g>
</g>
<!-- Node5&#45;&gt;Node0 -->
<g id="edge7" class="edge">
<title>Node5&#45;&gt;Node0</title>
<path fill="none" stroke="#191970" d="M505.7028,-352.3856C505.5174,-352.2568 505.3323,-352.1283 505.1475,-352 473.2029,-329.8232 437.9871,-305.4995 407.3036,-284.3466"/>
<polygon fill="none" stroke="#191970" points="503.9814,-355.4515 514.1901,-358.2855 507.9769,-349.7038 503.9814,-355.4515"/>
</g>
</g>
</svg>
