<?xml version="1.0" encoding="UTF-8" standalone="no"?>
<!DOCTYPE svg PUBLIC "-//W3C//DTD SVG 1.1//EN"
 "http://www.w3.org/Graphics/SVG/1.1/DTD/svg11.dtd">
<!-- Generated by graphviz version 2.40.1 (20161225.0304)
 -->
<!-- Title: Swift_Plugins_BandwidthMonitorPlugin Pages: 1 -->
<svg width="640pt" height="405pt"
 viewBox="0.00 0.00 640.00 405.00" xmlns="http://www.w3.org/2000/svg" xmlns:xlink="http://www.w3.org/1999/xlink">
<g id="graph0" class="graph" transform="scale(1 1) rotate(0) translate(4 401)">
<title>Swift_Plugins_BandwidthMonitorPlugin</title>
<polygon fill="#ffffff" stroke="transparent" points="-4,4 -4,-401 636.0044,-401 636.0044,4 -4,4"/>
<!-- Node7 -->
<g id="node1" class="node">
<title>Node7</title>
<polygon fill="#bfbfbf" stroke="#000000" points="245.3301,-.5 245.3301,-174.5 406.9648,-174.5 406.9648,-.5 245.3301,-.5"/>
<text text-anchor="start" x="253.3301" y="-162.5" font-family="Helvetica,sans-Serif" font-size="10.00" fill="#000000">Swift_Plugins_BandwidthMonitor</text>
<text text-anchor="middle" x="326.1475" y="-152.5" font-family="Helvetica,sans-Serif" font-size="10.00" fill="#000000">Plugin</text>
<polyline fill="none" stroke="#000000" points="245.3301,-146.5 406.9648,-146.5 "/>
<text text-anchor="middle" x="326.1475" y="-134.5" font-family="Helvetica,sans-Serif" font-size="10.00" fill="#000000"> </text>
<polyline fill="none" stroke="#000000" points="245.3301,-128.5 406.9648,-128.5 "/>
<text text-anchor="start" x="253.3301" y="-116.5" font-family="Helvetica,sans-Serif" font-size="10.00" fill="#000000">+ beforeSendPerformed()</text>
<text text-anchor="start" x="253.3301" y="-106.5" font-family="Helvetica,sans-Serif" font-size="10.00" fill="#000000">+ sendPerformed()</text>
<text text-anchor="start" x="253.3301" y="-96.5" font-family="Helvetica,sans-Serif" font-size="10.00" fill="#000000">+ commandSent()</text>
<text text-anchor="start" x="253.3301" y="-86.5" font-family="Helvetica,sans-Serif" font-size="10.00" fill="#000000">+ responseReceived()</text>
<text text-anchor="start" x="253.3301" y="-76.5" font-family="Helvetica,sans-Serif" font-size="10.00" fill="#000000">+ write()</text>
<text text-anchor="start" x="253.3301" y="-66.5" font-family="Helvetica,sans-Serif" font-size="10.00" fill="#000000">+ commit()</text>
<text text-anchor="start" x="253.3301" y="-56.5" font-family="Helvetica,sans-Serif" font-size="10.00" fill="#000000">+ bind()</text>
<text text-anchor="start" x="253.3301" y="-46.5" font-family="Helvetica,sans-Serif" font-size="10.00" fill="#000000">+ unbind()</text>
<text text-anchor="start" x="253.3301" y="-36.5" font-family="Helvetica,sans-Serif" font-size="10.00" fill="#000000">+ flushBuffers()</text>
<text text-anchor="start" x="253.3301" y="-26.5" font-family="Helvetica,sans-Serif" font-size="10.00" fill="#000000">+ getBytesOut()</text>
<text text-anchor="start" x="253.3301" y="-16.5" font-family="Helvetica,sans-Serif" font-size="10.00" fill="#000000">+ getBytesIn()</text>
<text text-anchor="start" x="253.3301" y="-6.5" font-family="Helvetica,sans-Serif" font-size="10.00" fill="#000000">+ reset()</text>
</g>
<!-- Node8 -->
<g id="node2" class="node">
<title>Node8</title>
<g id="a_node2"><a xlink:href="interface_swift___events___send_listener.html" target="_top" xlink:title="{Swift_Events_SendListener\n||+ beforeSendPerformed()\l+ sendPerformed()\l}">
<polygon fill="#ffffff" stroke="#000000" points="0,-226.5 0,-290.5 138.2949,-290.5 138.2949,-226.5 0,-226.5"/>
<text text-anchor="middle" x="69.1475" y="-278.5" font-family="Helvetica,sans-Serif" font-size="10.00" fill="#000000">Swift_Events_SendListener</text>
<polyline fill="none" stroke="#000000" points="0,-272.5 138.2949,-272.5 "/>
<text text-anchor="middle" x="69.1475" y="-260.5" font-family="Helvetica,sans-Serif" font-size="10.00" fill="#000000"> </text>
<polyline fill="none" stroke="#000000" points="0,-254.5 138.2949,-254.5 "/>
<text text-anchor="start" x="8" y="-242.5" font-family="Helvetica,sans-Serif" font-size="10.00" fill="#000000">+ beforeSendPerformed()</text>
<text text-anchor="start" x="8" y="-232.5" font-family="Helvetica,sans-Serif" font-size="10.00" fill="#000000">+ sendPerformed()</text>
</a>
</g>
</g>
<!-- Node8&#45;&gt;Node7 -->
<g id="edge1" class="edge">
<title>Node8&#45;&gt;Node7</title>
<path fill="none" stroke="#191970" d="M126.149,-220.5729C161.1389,-197.2917 206.5039,-167.1072 245.1811,-141.3726"/>
<polygon fill="none" stroke="#191970" points="123.8738,-217.8827 117.4872,-226.3362 127.7515,-223.7106 123.8738,-217.8827"/>
</g>
<!-- Node9 -->
<g id="node3" class="node">
<title>Node9</title>
<g id="a_node3"><a xlink:href="interface_swift___events___event_listener.html" target="_top" xlink:title="{Swift_Events_EventListener\n||}">
<polygon fill="#ffffff" stroke="#000000" points="166.8916,-342.5 166.8916,-396.5 307.4033,-396.5 307.4033,-342.5 166.8916,-342.5"/>
<text text-anchor="middle" x="237.1475" y="-384.5" font-family="Helvetica,sans-Serif" font-size="10.00" fill="#000000">Swift_Events_EventListener</text>
<polyline fill="none" stroke="#000000" points="166.8916,-378.5 307.4033,-378.5 "/>
<text text-anchor="middle" x="237.1475" y="-366.5" font-family="Helvetica,sans-Serif" font-size="10.00" fill="#000000"> </text>
<polyline fill="none" stroke="#000000" points="166.8916,-360.5 307.4033,-360.5 "/>
<text text-anchor="middle" x="237.1475" y="-348.5" font-family="Helvetica,sans-Serif" font-size="10.00" fill="#000000"> </text>
</a>
</g>
</g>
<!-- Node9&#45;&gt;Node8 -->
<g id="edge2" class="edge">
<title>Node9&#45;&gt;Node8</title>
<path fill="none" stroke="#191970" d="M187.5148,-336.707C165.5329,-322.1832 139.7568,-305.1526 117.8802,-290.6984"/>
<polygon fill="none" stroke="#191970" points="185.7773,-339.7539 196.05,-342.3463 189.6361,-333.9135 185.7773,-339.7539"/>
</g>
<!-- Node10 -->
<g id="node4" class="node">
<title>Node10</title>
<g id="a_node4"><a xlink:href="interface_swift___events___command_listener.html" target="_top" xlink:title="{Swift_Events_CommandListener\n||+ commandSent()\l}">
<polygon fill="#ffffff" stroke="#000000" points="156.6133,-231.5 156.6133,-285.5 317.6816,-285.5 317.6816,-231.5 156.6133,-231.5"/>
<text text-anchor="middle" x="237.1475" y="-273.5" font-family="Helvetica,sans-Serif" font-size="10.00" fill="#000000">Swift_Events_CommandListener</text>
<polyline fill="none" stroke="#000000" points="156.6133,-267.5 317.6816,-267.5 "/>
<text text-anchor="middle" x="237.1475" y="-255.5" font-family="Helvetica,sans-Serif" font-size="10.00" fill="#000000"> </text>
<polyline fill="none" stroke="#000000" points="156.6133,-249.5 317.6816,-249.5 "/>
<text text-anchor="start" x="164.6133" y="-237.5" font-family="Helvetica,sans-Serif" font-size="10.00" fill="#000000">+ commandSent()</text>
</a>
</g>
</g>
<!-- Node9&#45;&gt;Node10 -->
<g id="edge4" class="edge">
<title>Node9&#45;&gt;Node10</title>
<path fill="none" stroke="#191970" d="M237.1475,-332.2125C237.1475,-317.0069 237.1475,-299.75 237.1475,-285.758"/>
<polygon fill="none" stroke="#191970" points="233.6476,-332.3463 237.1475,-342.3463 240.6476,-332.3464 233.6476,-332.3463"/>
</g>
<!-- Node11 -->
<g id="node5" class="node">
<title>Node11</title>
<g id="a_node5"><a xlink:href="interface_swift___events___response_listener.html" target="_top" xlink:title="{Swift_Events_ResponseListener\n||+ responseReceived()\l}">
<polygon fill="#ffffff" stroke="#000000" points="336.1626,-231.5 336.1626,-285.5 496.1323,-285.5 496.1323,-231.5 336.1626,-231.5"/>
<text text-anchor="middle" x="416.1475" y="-273.5" font-family="Helvetica,sans-Serif" font-size="10.00" fill="#000000">Swift_Events_ResponseListener</text>
<polyline fill="none" stroke="#000000" points="336.1626,-267.5 496.1323,-267.5 "/>
<text text-anchor="middle" x="416.1475" y="-255.5" font-family="Helvetica,sans-Serif" font-size="10.00" fill="#000000"> </text>
<polyline fill="none" stroke="#000000" points="336.1626,-249.5 496.1323,-249.5 "/>
<text text-anchor="start" x="344.1626" y="-237.5" font-family="Helvetica,sans-Serif" font-size="10.00" fill="#000000">+ responseReceived()</text>
</a>
</g>
</g>
<!-- Node9&#45;&gt;Node11 -->
<g id="edge6" class="edge">
<title>Node9&#45;&gt;Node11</title>
<path fill="none" stroke="#191970" d="M289.6516,-336.9416C315.9882,-320.6099 347.5119,-301.0617 372.5013,-285.5655"/>
<polygon fill="none" stroke="#191970" points="287.5899,-334.1017 280.9358,-342.3463 291.2789,-340.0507 287.5899,-334.1017"/>
</g>
<!-- Node10&#45;&gt;Node7 -->
<g id="edge3" class="edge">
<title>Node10&#45;&gt;Node7</title>
<path fill="none" stroke="#191970" d="M256.0531,-222.1756C263.3348,-208.1851 272.0016,-191.5331 280.7161,-174.7895"/>
<polygon fill="none" stroke="#191970" points="252.762,-220.9182 251.2498,-231.4045 258.9713,-224.15 252.762,-220.9182"/>
</g>
<!-- Node11&#45;&gt;Node7 -->
<g id="edge5" class="edge">
<title>Node11&#45;&gt;Node7</title>
<path fill="none" stroke="#191970" d="M397.0294,-222.1756C389.6659,-208.1851 380.9017,-191.5331 372.0893,-174.7895"/>
<polygon fill="none" stroke="#191970" points="394.132,-224.1855 401.8867,-231.4045 400.3264,-220.9252 394.132,-224.1855"/>
</g>
<!-- Node12 -->
<g id="node6" class="node">
<title>Node12</title>
<g id="a_node6"><a xlink:href="interface_swift___input_byte_stream.html" target="_top" xlink:title="{Swift_InputByteStream\n||+ write()\l+ commit()\l+ bind()\l+ unbind()\l+ flushBuffers()\l}">
<polygon fill="#ffffff" stroke="#000000" points="514.2905,-211.5 514.2905,-305.5 632.0044,-305.5 632.0044,-211.5 514.2905,-211.5"/>
<text text-anchor="middle" x="573.1475" y="-293.5" font-family="Helvetica,sans-Serif" font-size="10.00" fill="#000000">Swift_InputByteStream</text>
<polyline fill="none" stroke="#000000" points="514.2905,-287.5 632.0044,-287.5 "/>
<text text-anchor="middle" x="573.1475" y="-275.5" font-family="Helvetica,sans-Serif" font-size="10.00" fill="#000000"> </text>
<polyline fill="none" stroke="#000000" points="514.2905,-269.5 632.0044,-269.5 "/>
<text text-anchor="start" x="522.2905" y="-257.5" font-family="Helvetica,sans-Serif" font-size="10.00" fill="#000000">+ write()</text>
<text text-anchor="start" x="522.2905" y="-247.5" font-family="Helvetica,sans-Serif" font-size="10.00" fill="#000000">+ commit()</text>
<text text-anchor="start" x="522.2905" y="-237.5" font-family="Helvetica,sans-Serif" font-size="10.00" fill="#000000">+ bind()</text>
<text text-anchor="start" x="522.2905" y="-227.5" font-family="Helvetica,sans-Serif" font-size="10.00" fill="#000000">+ unbind()</text>
<text text-anchor="start" x="522.2905" y="-217.5" font-family="Helvetica,sans-Serif" font-size="10.00" fill="#000000">+ flushBuffers()</text>
</a>
</g>
</g>
<!-- Node12&#45;&gt;Node7 -->
<g id="edge7" class="edge">
<title>Node12&#45;&gt;Node7</title>
<path fill="none" stroke="#191970" d="M505.7028,-211.3856C505.5174,-211.2568 505.3323,-211.1283 505.1475,-211 473.2029,-188.8232 437.9871,-164.4995 407.3036,-143.3466"/>
<polygon fill="none" stroke="#191970" points="503.9814,-214.4515 514.1901,-217.2855 507.9769,-208.7038 503.9814,-214.4515"/>
</g>
</g>
</svg>
