<?xml version="1.0" encoding="UTF-8" standalone="no"?>
<!DOCTYPE svg PUBLIC "-//W3C//DTD SVG 1.1//EN"
 "http://www.w3.org/Graphics/SVG/1.1/DTD/svg11.dtd">
<!-- Generated by graphviz version 2.40.1 (20161225.0304)
 -->
<!-- Title: HolePictures Pages: 1 -->
<svg width="105pt" height="264pt"
 viewBox="0.00 0.00 104.88 264.00" xmlns="http://www.w3.org/2000/svg" xmlns:xlink="http://www.w3.org/1999/xlink">
<g id="graph0" class="graph" transform="scale(1 1) rotate(0) translate(4 260)">
<title>HolePictures</title>
<polygon fill="#ffffff" stroke="transparent" points="-4,4 -4,-260 100.8789,-260 100.8789,4 -4,4"/>
<!-- Node0 -->
<g id="node1" class="node">
<title>Node0</title>
<polygon fill="#bfbfbf" stroke="#000000" points="0,-.5 0,-164.5 96.8789,-164.5 96.8789,-.5 0,-.5"/>
<text text-anchor="middle" x="48.4395" y="-152.5" font-family="Helvetica,sans-Serif" font-size="10.00" fill="#000000">HolePictures</text>
<polyline fill="none" stroke="#000000" points="0,-146.5 96.8789,-146.5 "/>
<text text-anchor="middle" x="48.4395" y="-134.5" font-family="Helvetica,sans-Serif" font-size="10.00" fill="#000000"> </text>
<polyline fill="none" stroke="#000000" points="0,-128.5 96.8789,-128.5 "/>
<text text-anchor="start" x="8" y="-116.5" font-family="Helvetica,sans-Serif" font-size="10.00" fill="#000000">+ tableName()</text>
<text text-anchor="start" x="8" y="-106.5" font-family="Helvetica,sans-Serif" font-size="10.00" fill="#000000">+ getOriginal()</text>
<text text-anchor="start" x="8" y="-96.5" font-family="Helvetica,sans-Serif" font-size="10.00" fill="#000000">+ getMedium()</text>
<text text-anchor="start" x="8" y="-86.5" font-family="Helvetica,sans-Serif" font-size="10.00" fill="#000000">+ getSmall()</text>
<text text-anchor="start" x="8" y="-76.5" font-family="Helvetica,sans-Serif" font-size="10.00" fill="#000000">+ getLastOrder()</text>
<text text-anchor="start" x="8" y="-66.5" font-family="Helvetica,sans-Serif" font-size="10.00" fill="#000000">+ rules()</text>
<text text-anchor="start" x="8" y="-56.5" font-family="Helvetica,sans-Serif" font-size="10.00" fill="#000000">+ relations()</text>
<text text-anchor="start" x="8" y="-46.5" font-family="Helvetica,sans-Serif" font-size="10.00" fill="#000000">+ attributeLabels()</text>
<text text-anchor="start" x="8" y="-36.5" font-family="Helvetica,sans-Serif" font-size="10.00" fill="#000000">+ BeforeDelete()</text>
<text text-anchor="start" x="8" y="-26.5" font-family="Helvetica,sans-Serif" font-size="10.00" fill="#000000">+ afterDelete()</text>
<text text-anchor="start" x="8" y="-16.5" font-family="Helvetica,sans-Serif" font-size="10.00" fill="#000000">+ search()</text>
<text text-anchor="start" x="8" y="-6.5" font-family="Helvetica,sans-Serif" font-size="10.00" fill="#000000">+ model()</text>
</g>
<!-- Node1 -->
<g id="node2" class="node">
<title>Node1</title>
<polygon fill="#ffffff" stroke="#bfbfbf" points="7.0947,-201.5 7.0947,-255.5 89.7842,-255.5 89.7842,-201.5 7.0947,-201.5"/>
<text text-anchor="middle" x="48.4395" y="-243.5" font-family="Helvetica,sans-Serif" font-size="10.00" fill="#000000">CActiveRecord</text>
<polyline fill="none" stroke="#bfbfbf" points="7.0947,-237.5 89.7842,-237.5 "/>
<text text-anchor="middle" x="48.4395" y="-225.5" font-family="Helvetica,sans-Serif" font-size="10.00" fill="#000000"> </text>
<polyline fill="none" stroke="#bfbfbf" points="7.0947,-219.5 89.7842,-219.5 "/>
<text text-anchor="middle" x="48.4395" y="-207.5" font-family="Helvetica,sans-Serif" font-size="10.00" fill="#000000"> </text>
</g>
<!-- Node1&#45;&gt;Node0 -->
<g id="edge1" class="edge">
<title>Node1&#45;&gt;Node0</title>
<path fill="none" stroke="#191970" d="M48.4395,-191.3747C48.4395,-183.0924 48.4395,-173.9901 48.4395,-164.6855"/>
<polygon fill="none" stroke="#191970" points="44.9396,-191.3806 48.4395,-201.3807 51.9396,-191.3807 44.9396,-191.3806"/>
</g>
</g>
</svg>
