<?xml version="1.0" encoding="UTF-8" standalone="no"?>
<!DOCTYPE svg PUBLIC "-//W3C//DTD SVG 1.1//EN"
 "http://www.w3.org/Graphics/SVG/1.1/DTD/svg11.dtd">
<!-- Generated by graphviz version 2.40.1 (20161225.0304)
 -->
<!-- Title: EventMedia Pages: 1 -->
<svg width="91pt" height="164pt"
 viewBox="0.00 0.00 90.69 164.00" xmlns="http://www.w3.org/2000/svg" xmlns:xlink="http://www.w3.org/1999/xlink">
<g id="graph0" class="graph" transform="scale(1 1) rotate(0) translate(4 160)">
<title>EventMedia</title>
<polygon fill="#ffffff" stroke="transparent" points="-4,4 -4,-160 86.6895,-160 86.6895,4 -4,4"/>
<!-- Node2 -->
<g id="node1" class="node">
<title>Node2</title>
<polygon fill="#bfbfbf" stroke="#000000" points="1.5259,-.5 1.5259,-64.5 81.1636,-64.5 81.1636,-.5 1.5259,-.5"/>
<text text-anchor="middle" x="41.3447" y="-52.5" font-family="Helvetica,sans-Serif" font-size="10.00" fill="#000000">EventMedia</text>
<polyline fill="none" stroke="#000000" points="1.5259,-46.5 81.1636,-46.5 "/>
<text text-anchor="middle" x="41.3447" y="-34.5" font-family="Helvetica,sans-Serif" font-size="10.00" fill="#000000"> </text>
<polyline fill="none" stroke="#000000" points="1.5259,-28.5 81.1636,-28.5 "/>
<text text-anchor="start" x="9.5259" y="-16.5" font-family="Helvetica,sans-Serif" font-size="10.00" fill="#000000">+ tableName()</text>
<text text-anchor="start" x="9.5259" y="-6.5" font-family="Helvetica,sans-Serif" font-size="10.00" fill="#000000">+ model()</text>
</g>
<!-- Node3 -->
<g id="node2" class="node">
<title>Node3</title>
<polygon fill="#ffffff" stroke="#bfbfbf" points="0,-101.5 0,-155.5 82.6895,-155.5 82.6895,-101.5 0,-101.5"/>
<text text-anchor="middle" x="41.3447" y="-143.5" font-family="Helvetica,sans-Serif" font-size="10.00" fill="#000000">CActiveRecord</text>
<polyline fill="none" stroke="#bfbfbf" points="0,-137.5 82.6895,-137.5 "/>
<text text-anchor="middle" x="41.3447" y="-125.5" font-family="Helvetica,sans-Serif" font-size="10.00" fill="#000000"> </text>
<polyline fill="none" stroke="#bfbfbf" points="0,-119.5 82.6895,-119.5 "/>
<text text-anchor="middle" x="41.3447" y="-107.5" font-family="Helvetica,sans-Serif" font-size="10.00" fill="#000000"> </text>
</g>
<!-- Node3&#45;&gt;Node2 -->
<g id="edge1" class="edge">
<title>Node3&#45;&gt;Node2</title>
<path fill="none" stroke="#191970" d="M41.3447,-91.2276C41.3447,-82.4295 41.3447,-73.1248 41.3447,-64.5792"/>
<polygon fill="none" stroke="#191970" points="37.8448,-91.247 41.3447,-101.247 44.8448,-91.2471 37.8448,-91.247"/>
</g>
</g>
</svg>
