<?xml version="1.0" encoding="UTF-8" standalone="no"?>
<!DOCTYPE svg PUBLIC "-//W3C//DTD SVG 1.1//EN"
 "http://www.w3.org/Graphics/SVG/1.1/DTD/svg11.dtd">
<!-- Generated by graphviz version 2.40.1 (20161225.0304)
 -->
<!-- Title: Google_ActivitiesServiceResource Pages: 1 -->
<svg width="138pt" height="304pt"
 viewBox="0.00 0.00 137.95 304.00" xmlns="http://www.w3.org/2000/svg" xmlns:xlink="http://www.w3.org/1999/xlink">
<g id="graph0" class="graph" transform="scale(1 1) rotate(0) translate(4 300)">
<title>Google_ActivitiesServiceResource</title>
<polygon fill="#ffffff" stroke="transparent" points="-4,4 -4,-300 133.9502,-300 133.9502,4 -4,4"/>
<!-- Node2 -->
<g id="node1" class="node">
<title>Node2</title>
<polygon fill="#bfbfbf" stroke="#000000" points="1.6724,-.5 1.6724,-174.5 128.2778,-174.5 128.2778,-.5 1.6724,-.5"/>
<text text-anchor="start" x="9.6724" y="-162.5" font-family="Helvetica,sans-Serif" font-size="10.00" fill="#000000">Google_ActivitiesService</text>
<text text-anchor="middle" x="64.9751" y="-152.5" font-family="Helvetica,sans-Serif" font-size="10.00" fill="#000000">Resource</text>
<polyline fill="none" stroke="#000000" points="1.6724,-146.5 128.2778,-146.5 "/>
<text text-anchor="middle" x="64.9751" y="-134.5" font-family="Helvetica,sans-Serif" font-size="10.00" fill="#000000"> </text>
<polyline fill="none" stroke="#000000" points="1.6724,-128.5 128.2778,-128.5 "/>
<text text-anchor="start" x="9.6724" y="-116.5" font-family="Helvetica,sans-Serif" font-size="10.00" fill="#000000">+ listActivities()</text>
<text text-anchor="start" x="9.6724" y="-106.5" font-family="Helvetica,sans-Serif" font-size="10.00" fill="#000000">+ delete()</text>
<text text-anchor="start" x="9.6724" y="-96.5" font-family="Helvetica,sans-Serif" font-size="10.00" fill="#000000">+ listActivities()</text>
<text text-anchor="start" x="9.6724" y="-86.5" font-family="Helvetica,sans-Serif" font-size="10.00" fill="#000000">+ get()</text>
<text text-anchor="start" x="9.6724" y="-76.5" font-family="Helvetica,sans-Serif" font-size="10.00" fill="#000000">+ insert()</text>
<text text-anchor="start" x="9.6724" y="-66.5" font-family="Helvetica,sans-Serif" font-size="10.00" fill="#000000">+ listActivities()</text>
<text text-anchor="start" x="9.6724" y="-56.5" font-family="Helvetica,sans-Serif" font-size="10.00" fill="#000000">+ get()</text>
<text text-anchor="start" x="9.6724" y="-46.5" font-family="Helvetica,sans-Serif" font-size="10.00" fill="#000000">+ listActivities()</text>
<text text-anchor="start" x="9.6724" y="-36.5" font-family="Helvetica,sans-Serif" font-size="10.00" fill="#000000">+ search()</text>
<text text-anchor="start" x="9.6724" y="-26.5" font-family="Helvetica,sans-Serif" font-size="10.00" fill="#000000">+ listActivities()</text>
<text text-anchor="start" x="9.6724" y="-16.5" font-family="Helvetica,sans-Serif" font-size="10.00" fill="#000000">+ insert()</text>
<text text-anchor="start" x="9.6724" y="-6.5" font-family="Helvetica,sans-Serif" font-size="10.00" fill="#000000">+ listActivities()</text>
</g>
<!-- Node3 -->
<g id="node2" class="node">
<title>Node3</title>
<g id="a_node2"><a xlink:href="class_google___service_resource.html" target="_top" xlink:title="{Google_ServiceResource\n||+ __construct()\l+ __call()\l+ useObjects()\l# stripNull()\l}">
<polygon fill="#ffffff" stroke="#000000" points="0,-211.5 0,-295.5 129.9502,-295.5 129.9502,-211.5 0,-211.5"/>
<text text-anchor="middle" x="64.9751" y="-283.5" font-family="Helvetica,sans-Serif" font-size="10.00" fill="#000000">Google_ServiceResource</text>
<polyline fill="none" stroke="#000000" points="0,-277.5 129.9502,-277.5 "/>
<text text-anchor="middle" x="64.9751" y="-265.5" font-family="Helvetica,sans-Serif" font-size="10.00" fill="#000000"> </text>
<polyline fill="none" stroke="#000000" points="0,-259.5 129.9502,-259.5 "/>
<text text-anchor="start" x="8" y="-247.5" font-family="Helvetica,sans-Serif" font-size="10.00" fill="#000000">+ __construct()</text>
<text text-anchor="start" x="8" y="-237.5" font-family="Helvetica,sans-Serif" font-size="10.00" fill="#000000">+ __call()</text>
<text text-anchor="start" x="8" y="-227.5" font-family="Helvetica,sans-Serif" font-size="10.00" fill="#000000">+ useObjects()</text>
<text text-anchor="start" x="8" y="-217.5" font-family="Helvetica,sans-Serif" font-size="10.00" fill="#000000"># stripNull()</text>
</a>
</g>
</g>
<!-- Node3&#45;&gt;Node2 -->
<g id="edge1" class="edge">
<title>Node3&#45;&gt;Node2</title>
<path fill="none" stroke="#191970" d="M33.3571,-201.1329C32.1262,-192.6702 31.4283,-183.7133 31.2634,-174.6901"/>
<polygon fill="none" stroke="#191970" points="29.945,-201.9384 35.123,-211.1817 36.8393,-200.7268 29.945,-201.9384"/>
</g>
<!-- Node3&#45;&gt;Node2 -->
<g id="edge2" class="edge">
<title>Node3&#45;&gt;Node2</title>
<path fill="none" stroke="#191970" d="M46.0043,-201.1329C45.2657,-192.6702 44.847,-183.7133 44.7481,-174.6901"/>
<polygon fill="none" stroke="#191970" points="42.5345,-201.6038 47.0638,-211.1817 49.4959,-200.8698 42.5345,-201.6038"/>
</g>
<!-- Node3&#45;&gt;Node2 -->
<g id="edge3" class="edge">
<title>Node3&#45;&gt;Node2</title>
<path fill="none" stroke="#191970" d="M58.6515,-201.1329C58.4053,-192.6702 58.2657,-183.7133 58.2327,-174.6901"/>
<polygon fill="none" stroke="#191970" points="55.1555,-201.3108 59.0047,-211.1817 62.1512,-201.0649 55.1555,-201.3108"/>
</g>
<!-- Node3&#45;&gt;Node2 -->
<g id="edge4" class="edge">
<title>Node3&#45;&gt;Node2</title>
<path fill="none" stroke="#191970" d="M71.2987,-201.1329C71.5449,-192.6702 71.6845,-183.7133 71.7174,-174.6901"/>
<polygon fill="none" stroke="#191970" points="67.799,-201.0649 70.9455,-211.1817 74.7947,-201.3108 67.799,-201.0649"/>
</g>
<!-- Node3&#45;&gt;Node2 -->
<g id="edge5" class="edge">
<title>Node3&#45;&gt;Node2</title>
<path fill="none" stroke="#191970" d="M83.9459,-201.1329C84.6844,-192.6702 85.1032,-183.7133 85.2021,-174.6901"/>
<polygon fill="none" stroke="#191970" points="80.4543,-200.8698 82.8863,-211.1817 87.4157,-201.6038 80.4543,-200.8698"/>
</g>
<!-- Node3&#45;&gt;Node2 -->
<g id="edge6" class="edge">
<title>Node3&#45;&gt;Node2</title>
<path fill="none" stroke="#191970" d="M96.5931,-201.1329C97.824,-192.6702 98.5219,-183.7133 98.6868,-174.6901"/>
<polygon fill="none" stroke="#191970" points="93.1109,-200.7268 94.8272,-211.1817 100.0052,-201.9384 93.1109,-200.7268"/>
</g>
</g>
</svg>
