<?xml version="1.0" encoding="UTF-8" standalone="no"?>
<!DOCTYPE svg PUBLIC "-//W3C//DTD SVG 1.1//EN"
 "http://www.w3.org/Graphics/SVG/1.1/DTD/svg11.dtd">
<!-- Generated by graphviz version 2.40.1 (20161225.0304)
 -->
<!-- Title: Google_MobileDeviceAction Pages: 1 -->
<svg width="150pt" height="204pt"
 viewBox="0.00 0.00 149.62 204.00" xmlns="http://www.w3.org/2000/svg" xmlns:xlink="http://www.w3.org/1999/xlink">
<g id="graph0" class="graph" transform="scale(1 1) rotate(0) translate(4 200)">
<title>Google_MobileDeviceAction</title>
<polygon fill="#ffffff" stroke="transparent" points="-4,4 -4,-200 145.625,-200 145.625,4 -4,4"/>
<!-- Node0 -->
<g id="node1" class="node">
<title>Node0</title>
<polygon fill="#bfbfbf" stroke="#000000" points="0,-.5 0,-64.5 141.625,-64.5 141.625,-.5 0,-.5"/>
<text text-anchor="middle" x="70.8125" y="-52.5" font-family="Helvetica,sans-Serif" font-size="10.00" fill="#000000">Google_MobileDeviceAction</text>
<polyline fill="none" stroke="#000000" points="0,-46.5 141.625,-46.5 "/>
<text text-anchor="start" x="8" y="-34.5" font-family="Helvetica,sans-Serif" font-size="10.00" fill="#000000">+ $action</text>
<polyline fill="none" stroke="#000000" points="0,-28.5 141.625,-28.5 "/>
<text text-anchor="start" x="8" y="-16.5" font-family="Helvetica,sans-Serif" font-size="10.00" fill="#000000">+ setAction()</text>
<text text-anchor="start" x="8" y="-6.5" font-family="Helvetica,sans-Serif" font-size="10.00" fill="#000000">+ getAction()</text>
</g>
<!-- Node1 -->
<g id="node2" class="node">
<title>Node1</title>
<g id="a_node2"><a xlink:href="class_google___model.html" target="_top" xlink:title="{Google_Model\n||+ __construct()\l+ assertIsArray()\l# mapTypes()\l# isAssociativeArray()\l# useObjects()\l}">
<polygon fill="#ffffff" stroke="#000000" points="14.4678,-101.5 14.4678,-195.5 127.1572,-195.5 127.1572,-101.5 14.4678,-101.5"/>
<text text-anchor="middle" x="70.8125" y="-183.5" font-family="Helvetica,sans-Serif" font-size="10.00" fill="#000000">Google_Model</text>
<polyline fill="none" stroke="#000000" points="14.4678,-177.5 127.1572,-177.5 "/>
<text text-anchor="middle" x="70.8125" y="-165.5" font-family="Helvetica,sans-Serif" font-size="10.00" fill="#000000"> </text>
<polyline fill="none" stroke="#000000" points="14.4678,-159.5 127.1572,-159.5 "/>
<text text-anchor="start" x="22.4678" y="-147.5" font-family="Helvetica,sans-Serif" font-size="10.00" fill="#000000">+ __construct()</text>
<text text-anchor="start" x="22.4678" y="-137.5" font-family="Helvetica,sans-Serif" font-size="10.00" fill="#000000">+ assertIsArray()</text>
<text text-anchor="start" x="22.4678" y="-127.5" font-family="Helvetica,sans-Serif" font-size="10.00" fill="#000000"># mapTypes()</text>
<text text-anchor="start" x="22.4678" y="-117.5" font-family="Helvetica,sans-Serif" font-size="10.00" fill="#000000"># isAssociativeArray()</text>
<text text-anchor="start" x="22.4678" y="-107.5" font-family="Helvetica,sans-Serif" font-size="10.00" fill="#000000"># useObjects()</text>
</a>
</g>
</g>
<!-- Node1&#45;&gt;Node0 -->
<g id="edge1" class="edge">
<title>Node1&#45;&gt;Node0</title>
<path fill="none" stroke="#191970" d="M70.8125,-91.1299C70.8125,-82.0561 70.8125,-72.9618 70.8125,-64.7354"/>
<polygon fill="none" stroke="#191970" points="67.3126,-91.3183 70.8125,-101.3184 74.3126,-91.3184 67.3126,-91.3183"/>
</g>
</g>
</svg>
