<?xml version="1.0" encoding="UTF-8" standalone="no"?>
<!DOCTYPE svg PUBLIC "-//W3C//DTD SVG 1.1//EN"
 "http://www.w3.org/Graphics/SVG/1.1/DTD/svg11.dtd">
<!-- Generated by graphviz version 2.40.1 (20161225.0304)
 -->
<!-- Title: Google_BlindWriteRequest Pages: 1 -->
<svg width="144pt" height="224pt"
 viewBox="0.00 0.00 144.44 224.00" xmlns="http://www.w3.org/2000/svg" xmlns:xlink="http://www.w3.org/1999/xlink">
<g id="graph0" class="graph" transform="scale(1 1) rotate(0) translate(4 220)">
<title>Google_BlindWriteRequest</title>
<polygon fill="#ffffff" stroke="transparent" points="-4,4 -4,-220 140.4443,-220 140.4443,4 -4,4"/>
<!-- Node2 -->
<g id="node1" class="node">
<title>Node2</title>
<polygon fill="#bfbfbf" stroke="#000000" points="0,-.5 0,-84.5 136.4443,-84.5 136.4443,-.5 0,-.5"/>
<text text-anchor="middle" x="68.2222" y="-72.5" font-family="Helvetica,sans-Serif" font-size="10.00" fill="#000000">Google_BlindWriteRequest</text>
<polyline fill="none" stroke="#000000" points="0,-66.5 136.4443,-66.5 "/>
<text text-anchor="start" x="8" y="-54.5" font-family="Helvetica,sans-Serif" font-size="10.00" fill="#000000">+ $mutation</text>
<text text-anchor="start" x="8" y="-44.5" font-family="Helvetica,sans-Serif" font-size="10.00" fill="#000000"># $__mutationType</text>
<text text-anchor="start" x="8" y="-34.5" font-family="Helvetica,sans-Serif" font-size="10.00" fill="#000000"># $__mutationDataType</text>
<polyline fill="none" stroke="#000000" points="0,-28.5 136.4443,-28.5 "/>
<text text-anchor="start" x="8" y="-16.5" font-family="Helvetica,sans-Serif" font-size="10.00" fill="#000000">+ setMutation()</text>
<text text-anchor="start" x="8" y="-6.5" font-family="Helvetica,sans-Serif" font-size="10.00" fill="#000000">+ getMutation()</text>
</g>
<!-- Node3 -->
<g id="node2" class="node">
<title>Node3</title>
<g id="a_node2"><a xlink:href="class_google___model.html" target="_top" xlink:title="{Google_Model\n||+ __construct()\l+ assertIsArray()\l# mapTypes()\l# isAssociativeArray()\l# useObjects()\l}">
<polygon fill="#ffffff" stroke="#000000" points="11.8774,-121.5 11.8774,-215.5 124.5669,-215.5 124.5669,-121.5 11.8774,-121.5"/>
<text text-anchor="middle" x="68.2222" y="-203.5" font-family="Helvetica,sans-Serif" font-size="10.00" fill="#000000">Google_Model</text>
<polyline fill="none" stroke="#000000" points="11.8774,-197.5 124.5669,-197.5 "/>
<text text-anchor="middle" x="68.2222" y="-185.5" font-family="Helvetica,sans-Serif" font-size="10.00" fill="#000000"> </text>
<polyline fill="none" stroke="#000000" points="11.8774,-179.5 124.5669,-179.5 "/>
<text text-anchor="start" x="19.8774" y="-167.5" font-family="Helvetica,sans-Serif" font-size="10.00" fill="#000000">+ __construct()</text>
<text text-anchor="start" x="19.8774" y="-157.5" font-family="Helvetica,sans-Serif" font-size="10.00" fill="#000000">+ assertIsArray()</text>
<text text-anchor="start" x="19.8774" y="-147.5" font-family="Helvetica,sans-Serif" font-size="10.00" fill="#000000"># mapTypes()</text>
<text text-anchor="start" x="19.8774" y="-137.5" font-family="Helvetica,sans-Serif" font-size="10.00" fill="#000000"># isAssociativeArray()</text>
<text text-anchor="start" x="19.8774" y="-127.5" font-family="Helvetica,sans-Serif" font-size="10.00" fill="#000000"># useObjects()</text>
</a>
</g>
</g>
<!-- Node3&#45;&gt;Node2 -->
<g id="edge1" class="edge">
<title>Node3&#45;&gt;Node2</title>
<path fill="none" stroke="#191970" d="M68.2222,-110.9387C68.2222,-102.0848 68.2222,-93.0866 68.2222,-84.6505"/>
<polygon fill="none" stroke="#191970" points="64.7223,-111.2237 68.2222,-121.2238 71.7223,-111.2238 64.7223,-111.2237"/>
</g>
</g>
</svg>
