<?xml version="1.0" encoding="UTF-8" standalone="no"?>
<!DOCTYPE svg PUBLIC "-//W3C//DTD SVG 1.1//EN"
 "http://www.w3.org/Graphics/SVG/1.1/DTD/svg11.dtd">
<!-- Generated by graphviz version 2.40.1 (20161225.0304)
 -->
<!-- Title: Swift_Events_ResponseEvent Pages: 1 -->
<svg width="158pt" height="315pt"
 viewBox="0.00 0.00 157.96 315.00" xmlns="http://www.w3.org/2000/svg" xmlns:xlink="http://www.w3.org/1999/xlink">
<g id="graph0" class="graph" transform="scale(1 1) rotate(0) translate(4 311)">
<title>Swift_Events_ResponseEvent</title>
<polygon fill="#ffffff" stroke="transparent" points="-4,4 -4,-311 153.9648,-311 153.9648,4 -4,4"/>
<!-- Node3 -->
<g id="node1" class="node">
<title>Node3</title>
<polygon fill="#bfbfbf" stroke="#000000" points="0,-.5 0,-74.5 149.9648,-74.5 149.9648,-.5 0,-.5"/>
<text text-anchor="middle" x="74.9824" y="-62.5" font-family="Helvetica,sans-Serif" font-size="10.00" fill="#000000">Swift_Events_ResponseEvent</text>
<polyline fill="none" stroke="#000000" points="0,-56.5 149.9648,-56.5 "/>
<text text-anchor="middle" x="74.9824" y="-44.5" font-family="Helvetica,sans-Serif" font-size="10.00" fill="#000000"> </text>
<polyline fill="none" stroke="#000000" points="0,-38.5 149.9648,-38.5 "/>
<text text-anchor="start" x="8" y="-26.5" font-family="Helvetica,sans-Serif" font-size="10.00" fill="#000000">+ __construct()</text>
<text text-anchor="start" x="8" y="-16.5" font-family="Helvetica,sans-Serif" font-size="10.00" fill="#000000">+ getResponse()</text>
<text text-anchor="start" x="8" y="-6.5" font-family="Helvetica,sans-Serif" font-size="10.00" fill="#000000">+ isValid()</text>
</g>
<!-- Node4 -->
<g id="node2" class="node">
<title>Node4</title>
<g id="a_node2"><a xlink:href="class_swift___events___event_object.html" target="_top" xlink:title="{Swift_Events_EventObject\n||+ __construct()\l+ getSource()\l+ cancelBubble()\l+ bubbleCancelled()\l}">
<polygon fill="#ffffff" stroke="#000000" points="8.064,-111.5 8.064,-195.5 141.9009,-195.5 141.9009,-111.5 8.064,-111.5"/>
<text text-anchor="middle" x="74.9824" y="-183.5" font-family="Helvetica,sans-Serif" font-size="10.00" fill="#000000">Swift_Events_EventObject</text>
<polyline fill="none" stroke="#000000" points="8.064,-177.5 141.9009,-177.5 "/>
<text text-anchor="middle" x="74.9824" y="-165.5" font-family="Helvetica,sans-Serif" font-size="10.00" fill="#000000"> </text>
<polyline fill="none" stroke="#000000" points="8.064,-159.5 141.9009,-159.5 "/>
<text text-anchor="start" x="16.064" y="-147.5" font-family="Helvetica,sans-Serif" font-size="10.00" fill="#000000">+ __construct()</text>
<text text-anchor="start" x="16.064" y="-137.5" font-family="Helvetica,sans-Serif" font-size="10.00" fill="#000000">+ getSource()</text>
<text text-anchor="start" x="16.064" y="-127.5" font-family="Helvetica,sans-Serif" font-size="10.00" fill="#000000">+ cancelBubble()</text>
<text text-anchor="start" x="16.064" y="-117.5" font-family="Helvetica,sans-Serif" font-size="10.00" fill="#000000">+ bubbleCancelled()</text>
</a>
</g>
</g>
<!-- Node4&#45;&gt;Node3 -->
<g id="edge1" class="edge">
<title>Node4&#45;&gt;Node3</title>
<path fill="none" stroke="#191970" d="M74.9824,-101.0572C74.9824,-92.2275 74.9824,-83.2244 74.9824,-74.8766"/>
<polygon fill="none" stroke="#191970" points="71.4825,-101.2932 74.9824,-111.2932 78.4825,-101.2932 71.4825,-101.2932"/>
</g>
<!-- Node5 -->
<g id="node3" class="node">
<title>Node5</title>
<g id="a_node3"><a xlink:href="interface_swift___events___event.html" target="_top" xlink:title="{Swift_Events_Event\n||+ getSource()\l+ cancelBubble()\l+ bubbleCancelled()\l}">
<polygon fill="#ffffff" stroke="#000000" points="22.0923,-232.5 22.0923,-306.5 127.8726,-306.5 127.8726,-232.5 22.0923,-232.5"/>
<text text-anchor="middle" x="74.9824" y="-294.5" font-family="Helvetica,sans-Serif" font-size="10.00" fill="#000000">Swift_Events_Event</text>
<polyline fill="none" stroke="#000000" points="22.0923,-288.5 127.8726,-288.5 "/>
<text text-anchor="middle" x="74.9824" y="-276.5" font-family="Helvetica,sans-Serif" font-size="10.00" fill="#000000"> </text>
<polyline fill="none" stroke="#000000" points="22.0923,-270.5 127.8726,-270.5 "/>
<text text-anchor="start" x="30.0923" y="-258.5" font-family="Helvetica,sans-Serif" font-size="10.00" fill="#000000">+ getSource()</text>
<text text-anchor="start" x="30.0923" y="-248.5" font-family="Helvetica,sans-Serif" font-size="10.00" fill="#000000">+ cancelBubble()</text>
<text text-anchor="start" x="30.0923" y="-238.5" font-family="Helvetica,sans-Serif" font-size="10.00" fill="#000000">+ bubbleCancelled()</text>
</a>
</g>
</g>
<!-- Node5&#45;&gt;Node4 -->
<g id="edge2" class="edge">
<title>Node5&#45;&gt;Node4</title>
<path fill="none" stroke="#191970" d="M74.9824,-222.3716C74.9824,-213.5842 74.9824,-204.4515 74.9824,-195.8197"/>
<polygon fill="none" stroke="#191970" points="71.4825,-222.4779 74.9824,-232.4779 78.4825,-222.478 71.4825,-222.4779"/>
</g>
</g>
</svg>
