<?xml version="1.0" encoding="UTF-8" standalone="no"?>
<!DOCTYPE svg PUBLIC "-//W3C//DTD SVG 1.1//EN"
 "http://www.w3.org/Graphics/SVG/1.1/DTD/svg11.dtd">
<!-- Generated by graphviz version 2.40.1 (20161225.0304)
 -->
<!-- Title: Google_ManagementCustomDataSourcesServiceResource Pages: 1 -->
<svg width="176pt" height="204pt"
 viewBox="0.00 0.00 175.75 204.00" xmlns="http://www.w3.org/2000/svg" xmlns:xlink="http://www.w3.org/1999/xlink">
<g id="graph0" class="graph" transform="scale(1 1) rotate(0) translate(4 200)">
<title>Google_ManagementCustomDataSourcesServiceResource</title>
<polygon fill="#ffffff" stroke="transparent" points="-4,4 -4,-200 171.7529,-200 171.7529,4 -4,4"/>
<!-- Node2 -->
<g id="node1" class="node">
<title>Node2</title>
<polygon fill="#bfbfbf" stroke="#000000" points="0,-.5 0,-74.5 167.7529,-74.5 167.7529,-.5 0,-.5"/>
<text text-anchor="start" x="8" y="-62.5" font-family="Helvetica,sans-Serif" font-size="10.00" fill="#000000">Google_ManagementCustomData</text>
<text text-anchor="middle" x="83.8765" y="-52.5" font-family="Helvetica,sans-Serif" font-size="10.00" fill="#000000">SourcesServiceResource</text>
<polyline fill="none" stroke="#000000" points="0,-46.5 167.7529,-46.5 "/>
<text text-anchor="middle" x="83.8765" y="-34.5" font-family="Helvetica,sans-Serif" font-size="10.00" fill="#000000"> </text>
<polyline fill="none" stroke="#000000" points="0,-28.5 167.7529,-28.5 "/>
<text text-anchor="start" x="8" y="-16.5" font-family="Helvetica,sans-Serif" font-size="10.00" fill="#000000">+ listManagementCustomData</text>
<text text-anchor="start" x="8" y="-6.5" font-family="Helvetica,sans-Serif" font-size="10.00" fill="#000000">Sources()</text>
</g>
<!-- Node3 -->
<g id="node2" class="node">
<title>Node3</title>
<g id="a_node2"><a xlink:href="class_google___service_resource.html" target="_top" xlink:title="{Google_ServiceResource\n||+ __construct()\l+ __call()\l+ useObjects()\l# stripNull()\l}">
<polygon fill="#ffffff" stroke="#000000" points="18.9014,-111.5 18.9014,-195.5 148.8516,-195.5 148.8516,-111.5 18.9014,-111.5"/>
<text text-anchor="middle" x="83.8765" y="-183.5" font-family="Helvetica,sans-Serif" font-size="10.00" fill="#000000">Google_ServiceResource</text>
<polyline fill="none" stroke="#000000" points="18.9014,-177.5 148.8516,-177.5 "/>
<text text-anchor="middle" x="83.8765" y="-165.5" font-family="Helvetica,sans-Serif" font-size="10.00" fill="#000000"> </text>
<polyline fill="none" stroke="#000000" points="18.9014,-159.5 148.8516,-159.5 "/>
<text text-anchor="start" x="26.9014" y="-147.5" font-family="Helvetica,sans-Serif" font-size="10.00" fill="#000000">+ __construct()</text>
<text text-anchor="start" x="26.9014" y="-137.5" font-family="Helvetica,sans-Serif" font-size="10.00" fill="#000000">+ __call()</text>
<text text-anchor="start" x="26.9014" y="-127.5" font-family="Helvetica,sans-Serif" font-size="10.00" fill="#000000">+ useObjects()</text>
<text text-anchor="start" x="26.9014" y="-117.5" font-family="Helvetica,sans-Serif" font-size="10.00" fill="#000000"># stripNull()</text>
</a>
</g>
</g>
<!-- Node3&#45;&gt;Node2 -->
<g id="edge1" class="edge">
<title>Node3&#45;&gt;Node2</title>
<path fill="none" stroke="#191970" d="M83.8765,-101.0572C83.8765,-92.2275 83.8765,-83.2244 83.8765,-74.8766"/>
<polygon fill="none" stroke="#191970" points="80.3766,-101.2932 83.8765,-111.2932 87.3766,-101.2932 80.3766,-101.2932"/>
</g>
</g>
</svg>
