<?xml version="1.0" encoding="UTF-8" standalone="no"?>
<!DOCTYPE svg PUBLIC "-//W3C//DTD SVG 1.1//EN"
 "http://www.w3.org/Graphics/SVG/1.1/DTD/svg11.dtd">
<!-- Generated by graphviz version 2.40.1 (20161225.0304)
 -->
<!-- Title: Google_AdunitsServiceResource Pages: 1 -->
<svg width="171pt" height="224pt"
 viewBox="0.00 0.00 171.30 224.00" xmlns="http://www.w3.org/2000/svg" xmlns:xlink="http://www.w3.org/1999/xlink">
<g id="graph0" class="graph" transform="scale(1 1) rotate(0) translate(4 220)">
<title>Google_AdunitsServiceResource</title>
<polygon fill="#ffffff" stroke="transparent" points="-4,4 -4,-220 167.3047,-220 167.3047,4 -4,4"/>
<!-- Node0 -->
<g id="node1" class="node">
<title>Node0</title>
<polygon fill="#bfbfbf" stroke="#000000" points="0,-.5 0,-94.5 163.3047,-94.5 163.3047,-.5 0,-.5"/>
<text text-anchor="middle" x="81.6523" y="-82.5" font-family="Helvetica,sans-Serif" font-size="10.00" fill="#000000">Google_AdunitsServiceResource</text>
<polyline fill="none" stroke="#000000" points="0,-76.5 163.3047,-76.5 "/>
<text text-anchor="middle" x="81.6523" y="-64.5" font-family="Helvetica,sans-Serif" font-size="10.00" fill="#000000"> </text>
<polyline fill="none" stroke="#000000" points="0,-58.5 163.3047,-58.5 "/>
<text text-anchor="start" x="8" y="-46.5" font-family="Helvetica,sans-Serif" font-size="10.00" fill="#000000">+ get()</text>
<text text-anchor="start" x="8" y="-36.5" font-family="Helvetica,sans-Serif" font-size="10.00" fill="#000000">+ listAdunits()</text>
<text text-anchor="start" x="8" y="-26.5" font-family="Helvetica,sans-Serif" font-size="10.00" fill="#000000">+ get()</text>
<text text-anchor="start" x="8" y="-16.5" font-family="Helvetica,sans-Serif" font-size="10.00" fill="#000000">+ getAdCode()</text>
<text text-anchor="start" x="8" y="-6.5" font-family="Helvetica,sans-Serif" font-size="10.00" fill="#000000">+ listAdunits()</text>
</g>
<!-- Node1 -->
<g id="node2" class="node">
<title>Node1</title>
<g id="a_node2"><a xlink:href="class_google___service_resource.html" target="_top" xlink:title="{Google_ServiceResource\n||+ __construct()\l+ __call()\l+ useObjects()\l# stripNull()\l}">
<polygon fill="#ffffff" stroke="#000000" points="16.6772,-131.5 16.6772,-215.5 146.6274,-215.5 146.6274,-131.5 16.6772,-131.5"/>
<text text-anchor="middle" x="81.6523" y="-203.5" font-family="Helvetica,sans-Serif" font-size="10.00" fill="#000000">Google_ServiceResource</text>
<polyline fill="none" stroke="#000000" points="16.6772,-197.5 146.6274,-197.5 "/>
<text text-anchor="middle" x="81.6523" y="-185.5" font-family="Helvetica,sans-Serif" font-size="10.00" fill="#000000"> </text>
<polyline fill="none" stroke="#000000" points="16.6772,-179.5 146.6274,-179.5 "/>
<text text-anchor="start" x="24.6772" y="-167.5" font-family="Helvetica,sans-Serif" font-size="10.00" fill="#000000">+ __construct()</text>
<text text-anchor="start" x="24.6772" y="-157.5" font-family="Helvetica,sans-Serif" font-size="10.00" fill="#000000">+ __call()</text>
<text text-anchor="start" x="24.6772" y="-147.5" font-family="Helvetica,sans-Serif" font-size="10.00" fill="#000000">+ useObjects()</text>
<text text-anchor="start" x="24.6772" y="-137.5" font-family="Helvetica,sans-Serif" font-size="10.00" fill="#000000"># stripNull()</text>
</a>
</g>
</g>
<!-- Node1&#45;&gt;Node0 -->
<g id="edge1" class="edge">
<title>Node1&#45;&gt;Node0</title>
<path fill="none" stroke="#191970" d="M74.9878,-121.0873C74.8453,-112.3328 74.881,-103.2974 75.0951,-94.6838"/>
<polygon fill="none" stroke="#191970" points="71.4914,-121.2827 75.237,-131.1933 78.4893,-121.11 71.4914,-121.2827"/>
</g>
<!-- Node1&#45;&gt;Node0 -->
<g id="edge2" class="edge">
<title>Node1&#45;&gt;Node0</title>
<path fill="none" stroke="#191970" d="M88.3169,-121.0873C88.4594,-112.3328 88.4237,-103.2974 88.2096,-94.6838"/>
<polygon fill="none" stroke="#191970" points="84.8154,-121.11 88.0677,-131.1933 91.8132,-121.2827 84.8154,-121.11"/>
</g>
</g>
</svg>
