<?xml version="1.0" encoding="UTF-8" standalone="no"?>
<!DOCTYPE svg PUBLIC "-//W3C//DTD SVG 1.1//EN"
 "http://www.w3.org/Graphics/SVG/1.1/DTD/svg11.dtd">
<!-- Generated by graphviz version 2.40.1 (20161225.0304)
 -->
<!-- Title: Swift_Plugins_ReporterPlugin Pages: 1 -->
<svg width="156pt" height="275pt"
 viewBox="0.00 0.00 156.29 275.00" xmlns="http://www.w3.org/2000/svg" xmlns:xlink="http://www.w3.org/1999/xlink">
<g id="graph0" class="graph" transform="scale(1 1) rotate(0) translate(4 271)">
<title>Swift_Plugins_ReporterPlugin</title>
<polygon fill="#ffffff" stroke="transparent" points="-4,4 -4,-271 152.2949,-271 152.2949,4 -4,4"/>
<!-- Node0 -->
<g id="node1" class="node">
<title>Node0</title>
<polygon fill="#bfbfbf" stroke="#000000" points="0,-.5 0,-74.5 148.2949,-74.5 148.2949,-.5 0,-.5"/>
<text text-anchor="middle" x="74.1475" y="-62.5" font-family="Helvetica,sans-Serif" font-size="10.00" fill="#000000">Swift_Plugins_ReporterPlugin</text>
<polyline fill="none" stroke="#000000" points="0,-56.5 148.2949,-56.5 "/>
<text text-anchor="middle" x="74.1475" y="-44.5" font-family="Helvetica,sans-Serif" font-size="10.00" fill="#000000"> </text>
<polyline fill="none" stroke="#000000" points="0,-38.5 148.2949,-38.5 "/>
<text text-anchor="start" x="8" y="-26.5" font-family="Helvetica,sans-Serif" font-size="10.00" fill="#000000">+ __construct()</text>
<text text-anchor="start" x="8" y="-16.5" font-family="Helvetica,sans-Serif" font-size="10.00" fill="#000000">+ beforeSendPerformed()</text>
<text text-anchor="start" x="8" y="-6.5" font-family="Helvetica,sans-Serif" font-size="10.00" fill="#000000">+ sendPerformed()</text>
</g>
<!-- Node1 -->
<g id="node2" class="node">
<title>Node1</title>
<g id="a_node2"><a xlink:href="interface_swift___events___send_listener.html" target="_top" xlink:title="{Swift_Events_SendListener\n||+ beforeSendPerformed()\l+ sendPerformed()\l}">
<polygon fill="#ffffff" stroke="#000000" points="5,-111.5 5,-175.5 143.2949,-175.5 143.2949,-111.5 5,-111.5"/>
<text text-anchor="middle" x="74.1475" y="-163.5" font-family="Helvetica,sans-Serif" font-size="10.00" fill="#000000">Swift_Events_SendListener</text>
<polyline fill="none" stroke="#000000" points="5,-157.5 143.2949,-157.5 "/>
<text text-anchor="middle" x="74.1475" y="-145.5" font-family="Helvetica,sans-Serif" font-size="10.00" fill="#000000"> </text>
<polyline fill="none" stroke="#000000" points="5,-139.5 143.2949,-139.5 "/>
<text text-anchor="start" x="13" y="-127.5" font-family="Helvetica,sans-Serif" font-size="10.00" fill="#000000">+ beforeSendPerformed()</text>
<text text-anchor="start" x="13" y="-117.5" font-family="Helvetica,sans-Serif" font-size="10.00" fill="#000000">+ sendPerformed()</text>
</a>
</g>
</g>
<!-- Node1&#45;&gt;Node0 -->
<g id="edge1" class="edge">
<title>Node1&#45;&gt;Node0</title>
<path fill="none" stroke="#191970" d="M74.1475,-101.3257C74.1475,-92.5209 74.1475,-83.2998 74.1475,-74.6912"/>
<polygon fill="none" stroke="#191970" points="70.6476,-101.4088 74.1475,-111.4088 77.6476,-101.4089 70.6476,-101.4088"/>
</g>
<!-- Node2 -->
<g id="node3" class="node">
<title>Node2</title>
<g id="a_node3"><a xlink:href="interface_swift___events___event_listener.html" target="_top" xlink:title="{Swift_Events_EventListener\n||}">
<polygon fill="#ffffff" stroke="#000000" points="3.8916,-212.5 3.8916,-266.5 144.4033,-266.5 144.4033,-212.5 3.8916,-212.5"/>
<text text-anchor="middle" x="74.1475" y="-254.5" font-family="Helvetica,sans-Serif" font-size="10.00" fill="#000000">Swift_Events_EventListener</text>
<polyline fill="none" stroke="#000000" points="3.8916,-248.5 144.4033,-248.5 "/>
<text text-anchor="middle" x="74.1475" y="-236.5" font-family="Helvetica,sans-Serif" font-size="10.00" fill="#000000"> </text>
<polyline fill="none" stroke="#000000" points="3.8916,-230.5 144.4033,-230.5 "/>
<text text-anchor="middle" x="74.1475" y="-218.5" font-family="Helvetica,sans-Serif" font-size="10.00" fill="#000000"> </text>
</a>
</g>
</g>
<!-- Node2&#45;&gt;Node1 -->
<g id="edge2" class="edge">
<title>Node2&#45;&gt;Node1</title>
<path fill="none" stroke="#191970" d="M74.1475,-202.2276C74.1475,-193.4295 74.1475,-184.1248 74.1475,-175.5792"/>
<polygon fill="none" stroke="#191970" points="70.6476,-202.247 74.1475,-212.247 77.6476,-202.2471 70.6476,-202.247"/>
</g>
</g>
</svg>
