<?xml version="1.0" encoding="UTF-8" standalone="no"?>
<!DOCTYPE svg PUBLIC "-//W3C//DTD SVG 1.1//EN"
 "http://www.w3.org/Graphics/SVG/1.1/DTD/svg11.dtd">
<!-- Generated by graphviz version 2.40.1 (20161225.0304)
 -->
<!-- Title: Swift_SwiftException Pages: 1 -->
<svg width="437pt" height="336pt"
 viewBox="0.00 0.00 437.12 336.00" xmlns="http://www.w3.org/2000/svg" xmlns:xlink="http://www.w3.org/1999/xlink">
<g id="graph0" class="graph" transform="scale(1 1) rotate(0) translate(4 332)">
<title>Swift_SwiftException</title>
<polygon fill="#ffffff" stroke="transparent" points="-4,4 -4,-332 433.125,-332 433.125,4 -4,4"/>
<!-- Node0 -->
<g id="node1" class="node">
<title>Node0</title>
<polygon fill="#bfbfbf" stroke="#000000" points="154.2412,-182.5 154.2412,-236.5 263.0586,-236.5 263.0586,-182.5 154.2412,-182.5"/>
<text text-anchor="middle" x="208.6499" y="-224.5" font-family="Helvetica,sans-Serif" font-size="10.00" fill="#000000">Swift_SwiftException</text>
<polyline fill="none" stroke="#000000" points="154.2412,-218.5 263.0586,-218.5 "/>
<text text-anchor="middle" x="208.6499" y="-206.5" font-family="Helvetica,sans-Serif" font-size="10.00" fill="#000000"> </text>
<polyline fill="none" stroke="#000000" points="154.2412,-200.5 263.0586,-200.5 "/>
<text text-anchor="start" x="162.2412" y="-188.5" font-family="Helvetica,sans-Serif" font-size="10.00" fill="#000000">+ __construct()</text>
</g>
<!-- Node2 -->
<g id="node3" class="node">
<title>Node2</title>
<g id="a_node3"><a xlink:href="class_swift___dependency_exception.html" target="_top" xlink:title="{Swift_DependencyException\n||+ __construct()\l}">
<polygon fill="#ffffff" stroke="#000000" points="0,-91.5 0,-145.5 143.2998,-145.5 143.2998,-91.5 0,-91.5"/>
<text text-anchor="middle" x="71.6499" y="-133.5" font-family="Helvetica,sans-Serif" font-size="10.00" fill="#000000">Swift_DependencyException</text>
<polyline fill="none" stroke="#000000" points="0,-127.5 143.2998,-127.5 "/>
<text text-anchor="middle" x="71.6499" y="-115.5" font-family="Helvetica,sans-Serif" font-size="10.00" fill="#000000"> </text>
<polyline fill="none" stroke="#000000" points="0,-109.5 143.2998,-109.5 "/>
<text text-anchor="start" x="8" y="-97.5" font-family="Helvetica,sans-Serif" font-size="10.00" fill="#000000">+ __construct()</text>
</a>
</g>
</g>
<!-- Node0&#45;&gt;Node2 -->
<g id="edge2" class="edge">
<title>Node0&#45;&gt;Node2</title>
<path fill="none" stroke="#191970" d="M159.5172,-176.8644C144.0945,-166.6202 127.2448,-155.428 112.4631,-145.6095"/>
<polygon fill="none" stroke="#191970" points="157.6499,-179.8258 167.9163,-182.4434 161.523,-173.9949 157.6499,-179.8258"/>
</g>
<!-- Node3 -->
<g id="node4" class="node">
<title>Node3</title>
<g id="a_node4"><a xlink:href="class_swift___io_exception.html" target="_top" xlink:title="{Swift_IoException\n||+ __construct()\l}">
<polygon fill="#ffffff" stroke="#000000" points="160.9063,-91.5 160.9063,-145.5 256.3936,-145.5 256.3936,-91.5 160.9063,-91.5"/>
<text text-anchor="middle" x="208.6499" y="-133.5" font-family="Helvetica,sans-Serif" font-size="10.00" fill="#000000">Swift_IoException</text>
<polyline fill="none" stroke="#000000" points="160.9063,-127.5 256.3936,-127.5 "/>
<text text-anchor="middle" x="208.6499" y="-115.5" font-family="Helvetica,sans-Serif" font-size="10.00" fill="#000000"> </text>
<polyline fill="none" stroke="#000000" points="160.9063,-109.5 256.3936,-109.5 "/>
<text text-anchor="start" x="168.9063" y="-97.5" font-family="Helvetica,sans-Serif" font-size="10.00" fill="#000000">+ __construct()</text>
</a>
</g>
</g>
<!-- Node0&#45;&gt;Node3 -->
<g id="edge3" class="edge">
<title>Node0&#45;&gt;Node3</title>
<path fill="none" stroke="#191970" d="M208.6499,-172.12C208.6499,-163.3006 208.6499,-154.0605 208.6499,-145.7837"/>
<polygon fill="none" stroke="#191970" points="205.15,-172.197 208.6499,-182.197 212.15,-172.197 205.15,-172.197"/>
</g>
<!-- Node6 -->
<g id="node7" class="node">
<title>Node6</title>
<g id="a_node7"><a xlink:href="class_swift___rfc_compliance_exception.html" target="_top" xlink:title="{Swift_RfcComplianceException\n||+ __construct()\l}">
<polygon fill="#ffffff" stroke="#000000" points="274.1748,-91.5 274.1748,-145.5 429.125,-145.5 429.125,-91.5 274.1748,-91.5"/>
<text text-anchor="middle" x="351.6499" y="-133.5" font-family="Helvetica,sans-Serif" font-size="10.00" fill="#000000">Swift_RfcComplianceException</text>
<polyline fill="none" stroke="#000000" points="274.1748,-127.5 429.125,-127.5 "/>
<text text-anchor="middle" x="351.6499" y="-115.5" font-family="Helvetica,sans-Serif" font-size="10.00" fill="#000000"> </text>
<polyline fill="none" stroke="#000000" points="274.1748,-109.5 429.125,-109.5 "/>
<text text-anchor="start" x="282.1748" y="-97.5" font-family="Helvetica,sans-Serif" font-size="10.00" fill="#000000">+ __construct()</text>
</a>
</g>
</g>
<!-- Node0&#45;&gt;Node6 -->
<g id="edge6" class="edge">
<title>Node0&#45;&gt;Node6</title>
<path fill="none" stroke="#191970" d="M259.9344,-176.8644C276.0325,-166.6202 293.6202,-155.428 309.0493,-145.6095"/>
<polygon fill="none" stroke="#191970" points="257.725,-174.1218 251.1674,-182.4434 261.4832,-180.0274 257.725,-174.1218"/>
</g>
<!-- Node1 -->
<g id="node2" class="node">
<title>Node1</title>
<polygon fill="#ffffff" stroke="#bfbfbf" points="178.6919,-273.5 178.6919,-327.5 238.6079,-327.5 238.6079,-273.5 178.6919,-273.5"/>
<text text-anchor="middle" x="208.6499" y="-315.5" font-family="Helvetica,sans-Serif" font-size="10.00" fill="#000000">Exception</text>
<polyline fill="none" stroke="#bfbfbf" points="178.6919,-309.5 238.6079,-309.5 "/>
<text text-anchor="middle" x="208.6499" y="-297.5" font-family="Helvetica,sans-Serif" font-size="10.00" fill="#000000"> </text>
<polyline fill="none" stroke="#bfbfbf" points="178.6919,-291.5 238.6079,-291.5 "/>
<text text-anchor="middle" x="208.6499" y="-279.5" font-family="Helvetica,sans-Serif" font-size="10.00" fill="#000000"> </text>
</g>
<!-- Node1&#45;&gt;Node0 -->
<g id="edge1" class="edge">
<title>Node1&#45;&gt;Node0</title>
<path fill="none" stroke="#191970" d="M208.6499,-263.12C208.6499,-254.3006 208.6499,-245.0605 208.6499,-236.7837"/>
<polygon fill="none" stroke="#191970" points="205.15,-263.197 208.6499,-273.197 212.15,-263.197 205.15,-263.197"/>
</g>
<!-- Node4 -->
<g id="node5" class="node">
<title>Node4</title>
<g id="a_node5"><a xlink:href="class_swift___plugins___pop___pop3_exception.html" target="_top" xlink:title="{Swift_Plugins_Pop_Pop3Exception\n||+ __construct()\l}">
<polygon fill="#ffffff" stroke="#000000" points="38.542,-.5 38.542,-54.5 210.7578,-54.5 210.7578,-.5 38.542,-.5"/>
<text text-anchor="middle" x="124.6499" y="-42.5" font-family="Helvetica,sans-Serif" font-size="10.00" fill="#000000">Swift_Plugins_Pop_Pop3Exception</text>
<polyline fill="none" stroke="#000000" points="38.542,-36.5 210.7578,-36.5 "/>
<text text-anchor="middle" x="124.6499" y="-24.5" font-family="Helvetica,sans-Serif" font-size="10.00" fill="#000000"> </text>
<polyline fill="none" stroke="#000000" points="38.542,-18.5 210.7578,-18.5 "/>
<text text-anchor="start" x="46.542" y="-6.5" font-family="Helvetica,sans-Serif" font-size="10.00" fill="#000000">+ __construct()</text>
</a>
</g>
</g>
<!-- Node3&#45;&gt;Node4 -->
<g id="edge4" class="edge">
<title>Node3&#45;&gt;Node4</title>
<path fill="none" stroke="#191970" d="M176.5221,-83.6949C167.6815,-74.1176 158.2224,-63.8702 149.8349,-54.7837"/>
<polygon fill="none" stroke="#191970" points="174.0925,-86.2229 183.4471,-91.197 179.2361,-81.4749 174.0925,-86.2229"/>
</g>
<!-- Node5 -->
<g id="node6" class="node">
<title>Node5</title>
<g id="a_node6"><a xlink:href="class_swift___transport_exception.html" target="_top" xlink:title="{Swift_TransportException\n||+ __construct()\l}">
<polygon fill="#ffffff" stroke="#000000" points="228.8628,-.5 228.8628,-54.5 358.437,-54.5 358.437,-.5 228.8628,-.5"/>
<text text-anchor="middle" x="293.6499" y="-42.5" font-family="Helvetica,sans-Serif" font-size="10.00" fill="#000000">Swift_TransportException</text>
<polyline fill="none" stroke="#000000" points="228.8628,-36.5 358.437,-36.5 "/>
<text text-anchor="middle" x="293.6499" y="-24.5" font-family="Helvetica,sans-Serif" font-size="10.00" fill="#000000"> </text>
<polyline fill="none" stroke="#000000" points="228.8628,-18.5 358.437,-18.5 "/>
<text text-anchor="start" x="236.8628" y="-6.5" font-family="Helvetica,sans-Serif" font-size="10.00" fill="#000000">+ __construct()</text>
</a>
</g>
</g>
<!-- Node3&#45;&gt;Node5 -->
<g id="edge5" class="edge">
<title>Node3&#45;&gt;Node5</title>
<path fill="none" stroke="#191970" d="M241.1602,-83.6949C250.106,-74.1176 259.6777,-63.8702 268.1651,-54.7837"/>
<polygon fill="none" stroke="#191970" points="238.421,-81.5 234.1527,-91.197 243.5365,-86.2782 238.421,-81.5"/>
</g>
</g>
</svg>
