<?xml version="1.0" encoding="UTF-8" standalone="no"?>
<!DOCTYPE svg PUBLIC "-//W3C//DTD SVG 1.1//EN"
 "http://www.w3.org/Graphics/SVG/1.1/DTD/svg11.dtd">
<!-- Generated by graphviz version 2.40.1 (20161225.0304)
 -->
<!-- Title: Google_ActivityActorImage Pages: 1 -->
<svg width="145pt" height="224pt"
 viewBox="0.00 0.00 144.61 224.00" xmlns="http://www.w3.org/2000/svg" xmlns:xlink="http://www.w3.org/1999/xlink">
<g id="graph0" class="graph" transform="scale(1 1) rotate(0) translate(4 220)">
<title>Google_ActivityActorImage</title>
<polygon fill="#ffffff" stroke="transparent" points="-4,4 -4,-220 140.6104,-220 140.6104,4 -4,4"/>
<!-- Node2 -->
<g id="node1" class="node">
<title>Node2</title>
<polygon fill="#bfbfbf" stroke="#000000" points="0,-.5 0,-84.5 136.6104,-84.5 136.6104,-.5 0,-.5"/>
<text text-anchor="middle" x="68.3052" y="-72.5" font-family="Helvetica,sans-Serif" font-size="10.00" fill="#000000">Google_ActivityActorImage</text>
<polyline fill="none" stroke="#000000" points="0,-66.5 136.6104,-66.5 "/>
<text text-anchor="start" x="8" y="-54.5" font-family="Helvetica,sans-Serif" font-size="10.00" fill="#000000">+ $url</text>
<polyline fill="none" stroke="#000000" points="0,-48.5 136.6104,-48.5 "/>
<text text-anchor="start" x="8" y="-36.5" font-family="Helvetica,sans-Serif" font-size="10.00" fill="#000000">+ setUrl()</text>
<text text-anchor="start" x="8" y="-26.5" font-family="Helvetica,sans-Serif" font-size="10.00" fill="#000000">+ getUrl()</text>
<text text-anchor="start" x="8" y="-16.5" font-family="Helvetica,sans-Serif" font-size="10.00" fill="#000000">+ setUrl()</text>
<text text-anchor="start" x="8" y="-6.5" font-family="Helvetica,sans-Serif" font-size="10.00" fill="#000000">+ getUrl()</text>
</g>
<!-- Node3 -->
<g id="node2" class="node">
<title>Node3</title>
<g id="a_node2"><a xlink:href="class_google___model.html" target="_top" xlink:title="{Google_Model\n||+ __construct()\l+ assertIsArray()\l# mapTypes()\l# isAssociativeArray()\l# useObjects()\l}">
<polygon fill="#ffffff" stroke="#000000" points="11.9604,-121.5 11.9604,-215.5 124.6499,-215.5 124.6499,-121.5 11.9604,-121.5"/>
<text text-anchor="middle" x="68.3052" y="-203.5" font-family="Helvetica,sans-Serif" font-size="10.00" fill="#000000">Google_Model</text>
<polyline fill="none" stroke="#000000" points="11.9604,-197.5 124.6499,-197.5 "/>
<text text-anchor="middle" x="68.3052" y="-185.5" font-family="Helvetica,sans-Serif" font-size="10.00" fill="#000000"> </text>
<polyline fill="none" stroke="#000000" points="11.9604,-179.5 124.6499,-179.5 "/>
<text text-anchor="start" x="19.9604" y="-167.5" font-family="Helvetica,sans-Serif" font-size="10.00" fill="#000000">+ __construct()</text>
<text text-anchor="start" x="19.9604" y="-157.5" font-family="Helvetica,sans-Serif" font-size="10.00" fill="#000000">+ assertIsArray()</text>
<text text-anchor="start" x="19.9604" y="-147.5" font-family="Helvetica,sans-Serif" font-size="10.00" fill="#000000"># mapTypes()</text>
<text text-anchor="start" x="19.9604" y="-137.5" font-family="Helvetica,sans-Serif" font-size="10.00" fill="#000000"># isAssociativeArray()</text>
<text text-anchor="start" x="19.9604" y="-127.5" font-family="Helvetica,sans-Serif" font-size="10.00" fill="#000000"># useObjects()</text>
</a>
</g>
</g>
<!-- Node3&#45;&gt;Node2 -->
<g id="edge1" class="edge">
<title>Node3&#45;&gt;Node2</title>
<path fill="none" stroke="#191970" d="M61.5776,-110.9387C61.5045,-102.0848 61.6103,-93.0866 61.8951,-84.6505"/>
<polygon fill="none" stroke="#191970" points="58.0826,-111.2823 61.7456,-121.2238 65.0817,-111.1679 58.0826,-111.2823"/>
</g>
<!-- Node3&#45;&gt;Node2 -->
<g id="edge2" class="edge">
<title>Node3&#45;&gt;Node2</title>
<path fill="none" stroke="#191970" d="M75.0328,-110.9387C75.1059,-102.0848 75.0001,-93.0866 74.7153,-84.6505"/>
<polygon fill="none" stroke="#191970" points="71.5287,-111.1679 74.8647,-121.2238 78.5277,-111.2823 71.5287,-111.1679"/>
</g>
</g>
</svg>
