<?xml version="1.0" encoding="UTF-8" standalone="no"?>
<!DOCTYPE svg PUBLIC "-//W3C//DTD SVG 1.1//EN"
 "http://www.w3.org/Graphics/SVG/1.1/DTD/svg11.dtd">
<!-- Generated by graphviz version 2.40.1 (20161225.0304)
 -->
<!-- Title: UserAreaShapePoints Pages: 1 -->
<svg width="123pt" height="204pt"
 viewBox="0.00 0.00 122.95 204.00" xmlns="http://www.w3.org/2000/svg" xmlns:xlink="http://www.w3.org/1999/xlink">
<g id="graph0" class="graph" transform="scale(1 1) rotate(0) translate(4 200)">
<title>UserAreaShapePoints</title>
<polygon fill="#ffffff" stroke="transparent" points="-4,4 -4,-200 118.9453,-200 118.9453,4 -4,4"/>
<!-- Node2 -->
<g id="node1" class="node">
<title>Node2</title>
<polygon fill="#bfbfbf" stroke="#000000" points="0,-.5 0,-104.5 114.9453,-104.5 114.9453,-.5 0,-.5"/>
<text text-anchor="middle" x="57.4727" y="-92.5" font-family="Helvetica,sans-Serif" font-size="10.00" fill="#000000">UserAreaShapePoints</text>
<polyline fill="none" stroke="#000000" points="0,-86.5 114.9453,-86.5 "/>
<text text-anchor="middle" x="57.4727" y="-74.5" font-family="Helvetica,sans-Serif" font-size="10.00" fill="#000000"> </text>
<polyline fill="none" stroke="#000000" points="0,-68.5 114.9453,-68.5 "/>
<text text-anchor="start" x="8" y="-56.5" font-family="Helvetica,sans-Serif" font-size="10.00" fill="#000000">+ tableName()</text>
<text text-anchor="start" x="8" y="-46.5" font-family="Helvetica,sans-Serif" font-size="10.00" fill="#000000">+ rules()</text>
<text text-anchor="start" x="8" y="-36.5" font-family="Helvetica,sans-Serif" font-size="10.00" fill="#000000">+ relations()</text>
<text text-anchor="start" x="8" y="-26.5" font-family="Helvetica,sans-Serif" font-size="10.00" fill="#000000">+ attributeLabels()</text>
<text text-anchor="start" x="8" y="-16.5" font-family="Helvetica,sans-Serif" font-size="10.00" fill="#000000">+ search()</text>
<text text-anchor="start" x="8" y="-6.5" font-family="Helvetica,sans-Serif" font-size="10.00" fill="#000000">+ model()</text>
</g>
<!-- Node3 -->
<g id="node2" class="node">
<title>Node3</title>
<polygon fill="#ffffff" stroke="#bfbfbf" points="16.1279,-141.5 16.1279,-195.5 98.8174,-195.5 98.8174,-141.5 16.1279,-141.5"/>
<text text-anchor="middle" x="57.4727" y="-183.5" font-family="Helvetica,sans-Serif" font-size="10.00" fill="#000000">CActiveRecord</text>
<polyline fill="none" stroke="#bfbfbf" points="16.1279,-177.5 98.8174,-177.5 "/>
<text text-anchor="middle" x="57.4727" y="-165.5" font-family="Helvetica,sans-Serif" font-size="10.00" fill="#000000"> </text>
<polyline fill="none" stroke="#bfbfbf" points="16.1279,-159.5 98.8174,-159.5 "/>
<text text-anchor="middle" x="57.4727" y="-147.5" font-family="Helvetica,sans-Serif" font-size="10.00" fill="#000000"> </text>
</g>
<!-- Node3&#45;&gt;Node2 -->
<g id="edge1" class="edge">
<title>Node3&#45;&gt;Node2</title>
<path fill="none" stroke="#191970" d="M57.4727,-131.0375C57.4727,-122.6013 57.4727,-113.4994 57.4727,-104.5858"/>
<polygon fill="none" stroke="#191970" points="53.9728,-131.3031 57.4727,-141.3032 60.9728,-131.3032 53.9728,-131.3031"/>
</g>
</g>
</svg>
