<?xml version="1.0" encoding="UTF-8" standalone="no"?>
<!DOCTYPE svg PUBLIC "-//W3C//DTD SVG 1.1//EN"
 "http://www.w3.org/Graphics/SVG/1.1/DTD/svg11.dtd">
<!-- Generated by graphviz version 2.40.1 (20161225.0304)
 -->
<!-- Title: Google_BeginTransactionRequest Pages: 1 -->
<svg width="177pt" height="204pt"
 viewBox="0.00 0.00 176.51 204.00" xmlns="http://www.w3.org/2000/svg" xmlns:xlink="http://www.w3.org/1999/xlink">
<g id="graph0" class="graph" transform="scale(1 1) rotate(0) translate(4 200)">
<title>Google_BeginTransactionRequest</title>
<polygon fill="#ffffff" stroke="transparent" points="-4,4 -4,-200 172.5098,-200 172.5098,4 -4,4"/>
<!-- Node2 -->
<g id="node1" class="node">
<title>Node2</title>
<polygon fill="#bfbfbf" stroke="#000000" points="0,-.5 0,-64.5 168.5098,-64.5 168.5098,-.5 0,-.5"/>
<text text-anchor="middle" x="84.2549" y="-52.5" font-family="Helvetica,sans-Serif" font-size="10.00" fill="#000000">Google_BeginTransactionRequest</text>
<polyline fill="none" stroke="#000000" points="0,-46.5 168.5098,-46.5 "/>
<text text-anchor="start" x="8" y="-34.5" font-family="Helvetica,sans-Serif" font-size="10.00" fill="#000000">+ $isolationLevel</text>
<polyline fill="none" stroke="#000000" points="0,-28.5 168.5098,-28.5 "/>
<text text-anchor="start" x="8" y="-16.5" font-family="Helvetica,sans-Serif" font-size="10.00" fill="#000000">+ setIsolationLevel()</text>
<text text-anchor="start" x="8" y="-6.5" font-family="Helvetica,sans-Serif" font-size="10.00" fill="#000000">+ getIsolationLevel()</text>
</g>
<!-- Node3 -->
<g id="node2" class="node">
<title>Node3</title>
<g id="a_node2"><a xlink:href="class_google___model.html" target="_top" xlink:title="{Google_Model\n||+ __construct()\l+ assertIsArray()\l# mapTypes()\l# isAssociativeArray()\l# useObjects()\l}">
<polygon fill="#ffffff" stroke="#000000" points="27.9102,-101.5 27.9102,-195.5 140.5996,-195.5 140.5996,-101.5 27.9102,-101.5"/>
<text text-anchor="middle" x="84.2549" y="-183.5" font-family="Helvetica,sans-Serif" font-size="10.00" fill="#000000">Google_Model</text>
<polyline fill="none" stroke="#000000" points="27.9102,-177.5 140.5996,-177.5 "/>
<text text-anchor="middle" x="84.2549" y="-165.5" font-family="Helvetica,sans-Serif" font-size="10.00" fill="#000000"> </text>
<polyline fill="none" stroke="#000000" points="27.9102,-159.5 140.5996,-159.5 "/>
<text text-anchor="start" x="35.9102" y="-147.5" font-family="Helvetica,sans-Serif" font-size="10.00" fill="#000000">+ __construct()</text>
<text text-anchor="start" x="35.9102" y="-137.5" font-family="Helvetica,sans-Serif" font-size="10.00" fill="#000000">+ assertIsArray()</text>
<text text-anchor="start" x="35.9102" y="-127.5" font-family="Helvetica,sans-Serif" font-size="10.00" fill="#000000"># mapTypes()</text>
<text text-anchor="start" x="35.9102" y="-117.5" font-family="Helvetica,sans-Serif" font-size="10.00" fill="#000000"># isAssociativeArray()</text>
<text text-anchor="start" x="35.9102" y="-107.5" font-family="Helvetica,sans-Serif" font-size="10.00" fill="#000000"># useObjects()</text>
</a>
</g>
</g>
<!-- Node3&#45;&gt;Node2 -->
<g id="edge1" class="edge">
<title>Node3&#45;&gt;Node2</title>
<path fill="none" stroke="#191970" d="M84.2549,-91.1299C84.2549,-82.0561 84.2549,-72.9618 84.2549,-64.7354"/>
<polygon fill="none" stroke="#191970" points="80.755,-91.3183 84.2549,-101.3184 87.755,-91.3184 80.755,-91.3183"/>
</g>
</g>
</svg>
