<?xml version="1.0" encoding="UTF-8" standalone="no"?>
<!DOCTYPE svg PUBLIC "-//W3C//DTD SVG 1.1//EN"
 "http://www.w3.org/Graphics/SVG/1.1/DTD/svg11.dtd">
<!-- Generated by graphviz version 2.40.1 (20161225.0304)
 -->
<!-- Title: Google_DatasetsServiceResource Pages: 1 -->
<svg width="177pt" height="304pt"
 viewBox="0.00 0.00 177.41 304.00" xmlns="http://www.w3.org/2000/svg" xmlns:xlink="http://www.w3.org/1999/xlink">
<g id="graph0" class="graph" transform="scale(1 1) rotate(0) translate(4 300)">
<title>Google_DatasetsServiceResource</title>
<polygon fill="#ffffff" stroke="transparent" points="-4,4 -4,-300 173.4131,-300 173.4131,4 -4,4"/>
<!-- Node0 -->
<g id="node1" class="node">
<title>Node0</title>
<polygon fill="#bfbfbf" stroke="#000000" points="0,-.5 0,-174.5 169.4131,-174.5 169.4131,-.5 0,-.5"/>
<text text-anchor="middle" x="84.7065" y="-162.5" font-family="Helvetica,sans-Serif" font-size="10.00" fill="#000000">Google_DatasetsServiceResource</text>
<polyline fill="none" stroke="#000000" points="0,-156.5 169.4131,-156.5 "/>
<text text-anchor="middle" x="84.7065" y="-144.5" font-family="Helvetica,sans-Serif" font-size="10.00" fill="#000000"> </text>
<polyline fill="none" stroke="#000000" points="0,-138.5 169.4131,-138.5 "/>
<text text-anchor="start" x="8" y="-126.5" font-family="Helvetica,sans-Serif" font-size="10.00" fill="#000000">+ delete()</text>
<text text-anchor="start" x="8" y="-116.5" font-family="Helvetica,sans-Serif" font-size="10.00" fill="#000000">+ get()</text>
<text text-anchor="start" x="8" y="-106.5" font-family="Helvetica,sans-Serif" font-size="10.00" fill="#000000">+ insert()</text>
<text text-anchor="start" x="8" y="-96.5" font-family="Helvetica,sans-Serif" font-size="10.00" fill="#000000">+ listDatasets()</text>
<text text-anchor="start" x="8" y="-86.5" font-family="Helvetica,sans-Serif" font-size="10.00" fill="#000000">+ patch()</text>
<text text-anchor="start" x="8" y="-76.5" font-family="Helvetica,sans-Serif" font-size="10.00" fill="#000000">+ update()</text>
<text text-anchor="start" x="8" y="-66.5" font-family="Helvetica,sans-Serif" font-size="10.00" fill="#000000">+ allocateIds()</text>
<text text-anchor="start" x="8" y="-56.5" font-family="Helvetica,sans-Serif" font-size="10.00" fill="#000000">+ beginTransaction()</text>
<text text-anchor="start" x="8" y="-46.5" font-family="Helvetica,sans-Serif" font-size="10.00" fill="#000000">+ blindWrite()</text>
<text text-anchor="start" x="8" y="-36.5" font-family="Helvetica,sans-Serif" font-size="10.00" fill="#000000">+ commit()</text>
<text text-anchor="start" x="8" y="-26.5" font-family="Helvetica,sans-Serif" font-size="10.00" fill="#000000">+ lookup()</text>
<text text-anchor="start" x="8" y="-16.5" font-family="Helvetica,sans-Serif" font-size="10.00" fill="#000000">+ rollback()</text>
<text text-anchor="start" x="8" y="-6.5" font-family="Helvetica,sans-Serif" font-size="10.00" fill="#000000">+ runQuery()</text>
</g>
<!-- Node1 -->
<g id="node2" class="node">
<title>Node1</title>
<g id="a_node2"><a xlink:href="class_google___service_resource.html" target="_top" xlink:title="{Google_ServiceResource\n||+ __construct()\l+ __call()\l+ useObjects()\l# stripNull()\l}">
<polygon fill="#ffffff" stroke="#000000" points="19.7314,-211.5 19.7314,-295.5 149.6816,-295.5 149.6816,-211.5 19.7314,-211.5"/>
<text text-anchor="middle" x="84.7065" y="-283.5" font-family="Helvetica,sans-Serif" font-size="10.00" fill="#000000">Google_ServiceResource</text>
<polyline fill="none" stroke="#000000" points="19.7314,-277.5 149.6816,-277.5 "/>
<text text-anchor="middle" x="84.7065" y="-265.5" font-family="Helvetica,sans-Serif" font-size="10.00" fill="#000000"> </text>
<polyline fill="none" stroke="#000000" points="19.7314,-259.5 149.6816,-259.5 "/>
<text text-anchor="start" x="27.7314" y="-247.5" font-family="Helvetica,sans-Serif" font-size="10.00" fill="#000000">+ __construct()</text>
<text text-anchor="start" x="27.7314" y="-237.5" font-family="Helvetica,sans-Serif" font-size="10.00" fill="#000000">+ __call()</text>
<text text-anchor="start" x="27.7314" y="-227.5" font-family="Helvetica,sans-Serif" font-size="10.00" fill="#000000">+ useObjects()</text>
<text text-anchor="start" x="27.7314" y="-217.5" font-family="Helvetica,sans-Serif" font-size="10.00" fill="#000000"># stripNull()</text>
</a>
</g>
</g>
<!-- Node1&#45;&gt;Node0 -->
<g id="edge1" class="edge">
<title>Node1&#45;&gt;Node0</title>
<path fill="none" stroke="#191970" d="M78.383,-201.1329C78.1368,-192.6702 77.9972,-183.7133 77.9642,-174.6901"/>
<polygon fill="none" stroke="#191970" points="74.8869,-201.3108 78.7361,-211.1817 81.8826,-201.0649 74.8869,-201.3108"/>
</g>
<!-- Node1&#45;&gt;Node0 -->
<g id="edge2" class="edge">
<title>Node1&#45;&gt;Node0</title>
<path fill="none" stroke="#191970" d="M91.0301,-201.1329C91.2763,-192.6702 91.4159,-183.7133 91.4489,-174.6901"/>
<polygon fill="none" stroke="#191970" points="87.5305,-201.0649 90.677,-211.1817 94.5261,-201.3108 87.5305,-201.0649"/>
</g>
</g>
</svg>
