<?xml version="1.0" encoding="UTF-8" standalone="no"?>
<!DOCTYPE svg PUBLIC "-//W3C//DTD SVG 1.1//EN"
 "http://www.w3.org/Graphics/SVG/1.1/DTD/svg11.dtd">
<!-- Generated by graphviz version 2.40.1 (20161225.0304)
 -->
<!-- Title: Google_UrlchannelsServiceResource Pages: 1 -->
<svg width="148pt" height="234pt"
 viewBox="0.00 0.00 147.96 234.00" xmlns="http://www.w3.org/2000/svg" xmlns:xlink="http://www.w3.org/1999/xlink">
<g id="graph0" class="graph" transform="scale(1 1) rotate(0) translate(4 230)">
<title>Google_UrlchannelsServiceResource</title>
<polygon fill="#ffffff" stroke="transparent" points="-4,4 -4,-230 143.9551,-230 143.9551,4 -4,4"/>
<!-- Node0 -->
<g id="node1" class="node">
<title>Node0</title>
<polygon fill="#bfbfbf" stroke="#000000" points="0,-.5 0,-104.5 139.9551,-104.5 139.9551,-.5 0,-.5"/>
<text text-anchor="start" x="8" y="-92.5" font-family="Helvetica,sans-Serif" font-size="10.00" fill="#000000">Google_UrlchannelsService</text>
<text text-anchor="middle" x="69.9775" y="-82.5" font-family="Helvetica,sans-Serif" font-size="10.00" fill="#000000">Resource</text>
<polyline fill="none" stroke="#000000" points="0,-76.5 139.9551,-76.5 "/>
<text text-anchor="middle" x="69.9775" y="-64.5" font-family="Helvetica,sans-Serif" font-size="10.00" fill="#000000"> </text>
<polyline fill="none" stroke="#000000" points="0,-58.5 139.9551,-58.5 "/>
<text text-anchor="start" x="8" y="-46.5" font-family="Helvetica,sans-Serif" font-size="10.00" fill="#000000">+ listUrlchannels()</text>
<text text-anchor="start" x="8" y="-36.5" font-family="Helvetica,sans-Serif" font-size="10.00" fill="#000000">+ delete()</text>
<text text-anchor="start" x="8" y="-26.5" font-family="Helvetica,sans-Serif" font-size="10.00" fill="#000000">+ insert()</text>
<text text-anchor="start" x="8" y="-16.5" font-family="Helvetica,sans-Serif" font-size="10.00" fill="#000000">+ listUrlchannels()</text>
<text text-anchor="start" x="8" y="-6.5" font-family="Helvetica,sans-Serif" font-size="10.00" fill="#000000">+ listUrlchannels()</text>
</g>
<!-- Node1 -->
<g id="node2" class="node">
<title>Node1</title>
<g id="a_node2"><a xlink:href="class_google___service_resource.html" target="_top" xlink:title="{Google_ServiceResource\n||+ __construct()\l+ __call()\l+ useObjects()\l# stripNull()\l}">
<polygon fill="#ffffff" stroke="#000000" points="5.0024,-141.5 5.0024,-225.5 134.9526,-225.5 134.9526,-141.5 5.0024,-141.5"/>
<text text-anchor="middle" x="69.9775" y="-213.5" font-family="Helvetica,sans-Serif" font-size="10.00" fill="#000000">Google_ServiceResource</text>
<polyline fill="none" stroke="#000000" points="5.0024,-207.5 134.9526,-207.5 "/>
<text text-anchor="middle" x="69.9775" y="-195.5" font-family="Helvetica,sans-Serif" font-size="10.00" fill="#000000"> </text>
<polyline fill="none" stroke="#000000" points="5.0024,-189.5 134.9526,-189.5 "/>
<text text-anchor="start" x="13.0024" y="-177.5" font-family="Helvetica,sans-Serif" font-size="10.00" fill="#000000">+ __construct()</text>
<text text-anchor="start" x="13.0024" y="-167.5" font-family="Helvetica,sans-Serif" font-size="10.00" fill="#000000">+ __call()</text>
<text text-anchor="start" x="13.0024" y="-157.5" font-family="Helvetica,sans-Serif" font-size="10.00" fill="#000000">+ useObjects()</text>
<text text-anchor="start" x="13.0024" y="-147.5" font-family="Helvetica,sans-Serif" font-size="10.00" fill="#000000"># stripNull()</text>
</a>
</g>
</g>
<!-- Node1&#45;&gt;Node0 -->
<g id="edge1" class="edge">
<title>Node1&#45;&gt;Node0</title>
<path fill="none" stroke="#191970" d="M56.7263,-131.2546C56.394,-122.5097 56.3946,-113.4358 56.7283,-104.6923"/>
<polygon fill="none" stroke="#191970" points="53.2361,-131.5326 57.2694,-141.3297 60.2259,-131.1558 53.2361,-131.5326"/>
</g>
<!-- Node1&#45;&gt;Node0 -->
<g id="edge2" class="edge">
<title>Node1&#45;&gt;Node0</title>
<path fill="none" stroke="#191970" d="M69.9775,-131.2546C69.9775,-122.5097 69.9775,-113.4358 69.9775,-104.6923"/>
<polygon fill="none" stroke="#191970" points="66.4776,-131.3297 69.9775,-141.3297 73.4776,-131.3297 66.4776,-131.3297"/>
</g>
<!-- Node1&#45;&gt;Node0 -->
<g id="edge3" class="edge">
<title>Node1&#45;&gt;Node0</title>
<path fill="none" stroke="#191970" d="M83.2288,-131.2546C83.5611,-122.5097 83.5605,-113.4358 83.2268,-104.6923"/>
<polygon fill="none" stroke="#191970" points="79.7291,-131.1558 82.6857,-141.3297 86.719,-131.5326 79.7291,-131.1558"/>
</g>
</g>
</svg>
