<?xml version="1.0" encoding="UTF-8" standalone="no"?>
<!DOCTYPE svg PUBLIC "-//W3C//DTD SVG 1.1//EN"
 "http://www.w3.org/Graphics/SVG/1.1/DTD/svg11.dtd">
<!-- Generated by graphviz version 2.40.1 (20161225.0304)
 -->
<!-- Title: Google_AudiencesServiceResource Pages: 1 -->
<svg width="185pt" height="184pt"
 viewBox="0.00 0.00 184.65 184.00" xmlns="http://www.w3.org/2000/svg" xmlns:xlink="http://www.w3.org/1999/xlink">
<g id="graph0" class="graph" transform="scale(1 1) rotate(0) translate(4 180)">
<title>Google_AudiencesServiceResource</title>
<polygon fill="#ffffff" stroke="transparent" points="-4,4 -4,-180 180.6494,-180 180.6494,4 -4,4"/>
<!-- Node0 -->
<g id="node1" class="node">
<title>Node0</title>
<polygon fill="#bfbfbf" stroke="#000000" points="0,-.5 0,-54.5 176.6494,-54.5 176.6494,-.5 0,-.5"/>
<text text-anchor="middle" x="88.3247" y="-42.5" font-family="Helvetica,sans-Serif" font-size="10.00" fill="#000000">Google_AudiencesServiceResource</text>
<polyline fill="none" stroke="#000000" points="0,-36.5 176.6494,-36.5 "/>
<text text-anchor="middle" x="88.3247" y="-24.5" font-family="Helvetica,sans-Serif" font-size="10.00" fill="#000000"> </text>
<polyline fill="none" stroke="#000000" points="0,-18.5 176.6494,-18.5 "/>
<text text-anchor="start" x="8" y="-6.5" font-family="Helvetica,sans-Serif" font-size="10.00" fill="#000000">+ listAudiences()</text>
</g>
<!-- Node1 -->
<g id="node2" class="node">
<title>Node1</title>
<g id="a_node2"><a xlink:href="class_google___service_resource.html" target="_top" xlink:title="{Google_ServiceResource\n||+ __construct()\l+ __call()\l+ useObjects()\l# stripNull()\l}">
<polygon fill="#ffffff" stroke="#000000" points="23.3496,-91.5 23.3496,-175.5 153.2998,-175.5 153.2998,-91.5 23.3496,-91.5"/>
<text text-anchor="middle" x="88.3247" y="-163.5" font-family="Helvetica,sans-Serif" font-size="10.00" fill="#000000">Google_ServiceResource</text>
<polyline fill="none" stroke="#000000" points="23.3496,-157.5 153.2998,-157.5 "/>
<text text-anchor="middle" x="88.3247" y="-145.5" font-family="Helvetica,sans-Serif" font-size="10.00" fill="#000000"> </text>
<polyline fill="none" stroke="#000000" points="23.3496,-139.5 153.2998,-139.5 "/>
<text text-anchor="start" x="31.3496" y="-127.5" font-family="Helvetica,sans-Serif" font-size="10.00" fill="#000000">+ __construct()</text>
<text text-anchor="start" x="31.3496" y="-117.5" font-family="Helvetica,sans-Serif" font-size="10.00" fill="#000000">+ __call()</text>
<text text-anchor="start" x="31.3496" y="-107.5" font-family="Helvetica,sans-Serif" font-size="10.00" fill="#000000">+ useObjects()</text>
<text text-anchor="start" x="31.3496" y="-97.5" font-family="Helvetica,sans-Serif" font-size="10.00" fill="#000000"># stripNull()</text>
</a>
</g>
</g>
<!-- Node1&#45;&gt;Node0 -->
<g id="edge1" class="edge">
<title>Node1&#45;&gt;Node0</title>
<path fill="none" stroke="#191970" d="M88.3247,-81.041C88.3247,-71.8936 88.3247,-62.7248 88.3247,-54.6245"/>
<polygon fill="none" stroke="#191970" points="84.8248,-81.3014 88.3247,-91.3014 91.8248,-81.3015 84.8248,-81.3014"/>
</g>
</g>
</svg>
