<?xml version="1.0" encoding="UTF-8" standalone="no"?>
<!DOCTYPE svg PUBLIC "-//W3C//DTD SVG 1.1//EN"
 "http://www.w3.org/Graphics/SVG/1.1/DTD/svg11.dtd">
<!-- Generated by graphviz version 2.40.1 (20161225.0304)
 -->
<!-- Title: Google_BloggerService Pages: 1 -->
<svg width="130pt" height="224pt"
 viewBox="0.00 0.00 129.62 224.00" xmlns="http://www.w3.org/2000/svg" xmlns:xlink="http://www.w3.org/1999/xlink">
<g id="graph0" class="graph" transform="scale(1 1) rotate(0) translate(4 220)">
<title>Google_BloggerService</title>
<polygon fill="#ffffff" stroke="transparent" points="-4,4 -4,-220 125.6201,-220 125.6201,4 -4,4"/>
<!-- Node0 -->
<g id="node1" class="node">
<title>Node0</title>
<polygon fill="#bfbfbf" stroke="#000000" points="0,-.5 0,-104.5 121.6201,-104.5 121.6201,-.5 0,-.5"/>
<text text-anchor="middle" x="60.8101" y="-92.5" font-family="Helvetica,sans-Serif" font-size="10.00" fill="#000000">Google_BloggerService</text>
<polyline fill="none" stroke="#000000" points="0,-86.5 121.6201,-86.5 "/>
<text text-anchor="start" x="8" y="-74.5" font-family="Helvetica,sans-Serif" font-size="10.00" fill="#000000">+ $blogUserInfos</text>
<text text-anchor="start" x="8" y="-64.5" font-family="Helvetica,sans-Serif" font-size="10.00" fill="#000000">+ $blogs</text>
<text text-anchor="start" x="8" y="-54.5" font-family="Helvetica,sans-Serif" font-size="10.00" fill="#000000">+ $comments</text>
<text text-anchor="start" x="8" y="-44.5" font-family="Helvetica,sans-Serif" font-size="10.00" fill="#000000">+ $pages</text>
<text text-anchor="start" x="8" y="-34.5" font-family="Helvetica,sans-Serif" font-size="10.00" fill="#000000">+ $posts</text>
<text text-anchor="start" x="8" y="-24.5" font-family="Helvetica,sans-Serif" font-size="10.00" fill="#000000">+ $users</text>
<polyline fill="none" stroke="#000000" points="0,-18.5 121.6201,-18.5 "/>
<text text-anchor="start" x="8" y="-6.5" font-family="Helvetica,sans-Serif" font-size="10.00" fill="#000000">+ __construct()</text>
</g>
<!-- Node1 -->
<g id="node2" class="node">
<title>Node1</title>
<g id="a_node2"><a xlink:href="class_google___service.html" target="_top" xlink:title="{Google_Service\n|+ $version\l+ $servicePath\l+ $resource\l|}">
<polygon fill="#ffffff" stroke="#000000" points="17.2339,-141.5 17.2339,-215.5 104.3862,-215.5 104.3862,-141.5 17.2339,-141.5"/>
<text text-anchor="middle" x="60.8101" y="-203.5" font-family="Helvetica,sans-Serif" font-size="10.00" fill="#000000">Google_Service</text>
<polyline fill="none" stroke="#000000" points="17.2339,-197.5 104.3862,-197.5 "/>
<text text-anchor="start" x="25.2339" y="-185.5" font-family="Helvetica,sans-Serif" font-size="10.00" fill="#000000">+ $version</text>
<text text-anchor="start" x="25.2339" y="-175.5" font-family="Helvetica,sans-Serif" font-size="10.00" fill="#000000">+ $servicePath</text>
<text text-anchor="start" x="25.2339" y="-165.5" font-family="Helvetica,sans-Serif" font-size="10.00" fill="#000000">+ $resource</text>
<polyline fill="none" stroke="#000000" points="17.2339,-159.5 104.3862,-159.5 "/>
<text text-anchor="middle" x="60.8101" y="-147.5" font-family="Helvetica,sans-Serif" font-size="10.00" fill="#000000"> </text>
</a>
</g>
</g>
<!-- Node1&#45;&gt;Node0 -->
<g id="edge1" class="edge">
<title>Node1&#45;&gt;Node0</title>
<path fill="none" stroke="#191970" d="M60.8101,-131.131C60.8101,-122.5233 60.8101,-113.5001 60.8101,-104.761"/>
<polygon fill="none" stroke="#191970" points="57.3102,-131.3773 60.8101,-141.3773 64.3102,-131.3774 57.3102,-131.3773"/>
</g>
</g>
</svg>
