<?xml version="1.0" encoding="UTF-8" standalone="no"?>
<!DOCTYPE svg PUBLIC "-//W3C//DTD SVG 1.1//EN"
 "http://www.w3.org/Graphics/SVG/1.1/DTD/svg11.dtd">
<!-- Generated by graphviz version 2.40.1 (20161225.0304)
 -->
<!-- Title: Google_ChannelsServiceResource Pages: 1 -->
<svg width="180pt" height="214pt"
 viewBox="0.00 0.00 180.20 214.00" xmlns="http://www.w3.org/2000/svg" xmlns:xlink="http://www.w3.org/1999/xlink">
<g id="graph0" class="graph" transform="scale(1 1) rotate(0) translate(4 210)">
<title>Google_ChannelsServiceResource</title>
<polygon fill="#ffffff" stroke="transparent" points="-4,4 -4,-210 176.2012,-210 176.2012,4 -4,4"/>
<!-- Node2 -->
<g id="node1" class="node">
<title>Node2</title>
<polygon fill="#bfbfbf" stroke="#000000" points="0,-.5 0,-84.5 172.2012,-84.5 172.2012,-.5 0,-.5"/>
<text text-anchor="middle" x="86.1006" y="-72.5" font-family="Helvetica,sans-Serif" font-size="10.00" fill="#000000">Google_ChannelsServiceResource</text>
<polyline fill="none" stroke="#000000" points="0,-66.5 172.2012,-66.5 "/>
<text text-anchor="middle" x="86.1006" y="-54.5" font-family="Helvetica,sans-Serif" font-size="10.00" fill="#000000"> </text>
<polyline fill="none" stroke="#000000" points="0,-48.5 172.2012,-48.5 "/>
<text text-anchor="start" x="8" y="-36.5" font-family="Helvetica,sans-Serif" font-size="10.00" fill="#000000">+ stop()</text>
<text text-anchor="start" x="8" y="-26.5" font-family="Helvetica,sans-Serif" font-size="10.00" fill="#000000">+ stop()</text>
<text text-anchor="start" x="8" y="-16.5" font-family="Helvetica,sans-Serif" font-size="10.00" fill="#000000">+ listChannels()</text>
<text text-anchor="start" x="8" y="-6.5" font-family="Helvetica,sans-Serif" font-size="10.00" fill="#000000">+ update()</text>
</g>
<!-- Node3 -->
<g id="node2" class="node">
<title>Node3</title>
<g id="a_node2"><a xlink:href="class_google___service_resource.html" target="_top" xlink:title="{Google_ServiceResource\n||+ __construct()\l+ __call()\l+ useObjects()\l# stripNull()\l}">
<polygon fill="#ffffff" stroke="#000000" points="21.1255,-121.5 21.1255,-205.5 151.0757,-205.5 151.0757,-121.5 21.1255,-121.5"/>
<text text-anchor="middle" x="86.1006" y="-193.5" font-family="Helvetica,sans-Serif" font-size="10.00" fill="#000000">Google_ServiceResource</text>
<polyline fill="none" stroke="#000000" points="21.1255,-187.5 151.0757,-187.5 "/>
<text text-anchor="middle" x="86.1006" y="-175.5" font-family="Helvetica,sans-Serif" font-size="10.00" fill="#000000"> </text>
<polyline fill="none" stroke="#000000" points="21.1255,-169.5 151.0757,-169.5 "/>
<text text-anchor="start" x="29.1255" y="-157.5" font-family="Helvetica,sans-Serif" font-size="10.00" fill="#000000">+ __construct()</text>
<text text-anchor="start" x="29.1255" y="-147.5" font-family="Helvetica,sans-Serif" font-size="10.00" fill="#000000">+ __call()</text>
<text text-anchor="start" x="29.1255" y="-137.5" font-family="Helvetica,sans-Serif" font-size="10.00" fill="#000000">+ useObjects()</text>
<text text-anchor="start" x="29.1255" y="-127.5" font-family="Helvetica,sans-Serif" font-size="10.00" fill="#000000"># stripNull()</text>
</a>
</g>
</g>
<!-- Node3&#45;&gt;Node2 -->
<g id="edge1" class="edge">
<title>Node3&#45;&gt;Node2</title>
<path fill="none" stroke="#191970" d="M72.7054,-110.977C72.4723,-102.1562 72.6279,-93.1052 73.1721,-84.5917"/>
<polygon fill="none" stroke="#191970" points="69.2182,-111.3449 73.1576,-121.1801 76.2113,-111.0349 69.2182,-111.3449"/>
</g>
<!-- Node3&#45;&gt;Node2 -->
<g id="edge2" class="edge">
<title>Node3&#45;&gt;Node2</title>
<path fill="none" stroke="#191970" d="M86.1006,-110.977C86.1006,-102.1562 86.1006,-93.1052 86.1006,-84.5917"/>
<polygon fill="none" stroke="#191970" points="82.6007,-111.18 86.1006,-121.1801 89.6007,-111.1801 82.6007,-111.18"/>
</g>
<!-- Node3&#45;&gt;Node2 -->
<g id="edge3" class="edge">
<title>Node3&#45;&gt;Node2</title>
<path fill="none" stroke="#191970" d="M99.4957,-110.977C99.7288,-102.1562 99.5733,-93.1052 99.0291,-84.5917"/>
<polygon fill="none" stroke="#191970" points="95.9898,-111.0349 99.0436,-121.1801 102.983,-111.3449 95.9898,-111.0349"/>
</g>
</g>
</svg>
