<?xml version="1.0" encoding="UTF-8" standalone="no"?>
<!DOCTYPE svg PUBLIC "-//W3C//DTD SVG 1.1//EN"
 "http://www.w3.org/Graphics/SVG/1.1/DTD/svg11.dtd">
<!-- Generated by graphviz version 2.40.1 (20161225.0304)
 -->
<!-- Title: Swift_ByteStream_ArrayByteStream Pages: 1 -->
<svg width="270pt" height="274pt"
 viewBox="0.00 0.00 269.60 274.00" xmlns="http://www.w3.org/2000/svg" xmlns:xlink="http://www.w3.org/1999/xlink">
<g id="graph0" class="graph" transform="scale(1 1) rotate(0) translate(4 270)">
<title>Swift_ByteStream_ArrayByteStream</title>
<polygon fill="#ffffff" stroke="transparent" points="-4,4 -4,-270 265.603,-270 265.603,4 -4,4"/>
<!-- Node3 -->
<g id="node1" class="node">
<title>Node3</title>
<polygon fill="#bfbfbf" stroke="#000000" points="56.3892,-.5 56.3892,-134.5 201.3247,-134.5 201.3247,-.5 56.3892,-.5"/>
<text text-anchor="start" x="64.3892" y="-122.5" font-family="Helvetica,sans-Serif" font-size="10.00" fill="#000000">Swift_ByteStream_ArrayByte</text>
<text text-anchor="middle" x="128.8569" y="-112.5" font-family="Helvetica,sans-Serif" font-size="10.00" fill="#000000">Stream</text>
<polyline fill="none" stroke="#000000" points="56.3892,-106.5 201.3247,-106.5 "/>
<text text-anchor="middle" x="128.8569" y="-94.5" font-family="Helvetica,sans-Serif" font-size="10.00" fill="#000000"> </text>
<polyline fill="none" stroke="#000000" points="56.3892,-88.5 201.3247,-88.5 "/>
<text text-anchor="start" x="64.3892" y="-76.5" font-family="Helvetica,sans-Serif" font-size="10.00" fill="#000000">+ __construct()</text>
<text text-anchor="start" x="64.3892" y="-66.5" font-family="Helvetica,sans-Serif" font-size="10.00" fill="#000000">+ read()</text>
<text text-anchor="start" x="64.3892" y="-56.5" font-family="Helvetica,sans-Serif" font-size="10.00" fill="#000000">+ write()</text>
<text text-anchor="start" x="64.3892" y="-46.5" font-family="Helvetica,sans-Serif" font-size="10.00" fill="#000000">+ commit()</text>
<text text-anchor="start" x="64.3892" y="-36.5" font-family="Helvetica,sans-Serif" font-size="10.00" fill="#000000">+ bind()</text>
<text text-anchor="start" x="64.3892" y="-26.5" font-family="Helvetica,sans-Serif" font-size="10.00" fill="#000000">+ unbind()</text>
<text text-anchor="start" x="64.3892" y="-16.5" font-family="Helvetica,sans-Serif" font-size="10.00" fill="#000000">+ setReadPointer()</text>
<text text-anchor="start" x="64.3892" y="-6.5" font-family="Helvetica,sans-Serif" font-size="10.00" fill="#000000">+ flushBuffers()</text>
</g>
<!-- Node4 -->
<g id="node2" class="node">
<title>Node4</title>
<g id="a_node2"><a xlink:href="interface_swift___input_byte_stream.html" target="_top" xlink:title="{Swift_InputByteStream\n||+ write()\l+ commit()\l+ bind()\l+ unbind()\l+ flushBuffers()\l}">
<polygon fill="#ffffff" stroke="#000000" points="0,-171.5 0,-265.5 117.7139,-265.5 117.7139,-171.5 0,-171.5"/>
<text text-anchor="middle" x="58.8569" y="-253.5" font-family="Helvetica,sans-Serif" font-size="10.00" fill="#000000">Swift_InputByteStream</text>
<polyline fill="none" stroke="#000000" points="0,-247.5 117.7139,-247.5 "/>
<text text-anchor="middle" x="58.8569" y="-235.5" font-family="Helvetica,sans-Serif" font-size="10.00" fill="#000000"> </text>
<polyline fill="none" stroke="#000000" points="0,-229.5 117.7139,-229.5 "/>
<text text-anchor="start" x="8" y="-217.5" font-family="Helvetica,sans-Serif" font-size="10.00" fill="#000000">+ write()</text>
<text text-anchor="start" x="8" y="-207.5" font-family="Helvetica,sans-Serif" font-size="10.00" fill="#000000">+ commit()</text>
<text text-anchor="start" x="8" y="-197.5" font-family="Helvetica,sans-Serif" font-size="10.00" fill="#000000">+ bind()</text>
<text text-anchor="start" x="8" y="-187.5" font-family="Helvetica,sans-Serif" font-size="10.00" fill="#000000">+ unbind()</text>
<text text-anchor="start" x="8" y="-177.5" font-family="Helvetica,sans-Serif" font-size="10.00" fill="#000000">+ flushBuffers()</text>
</a>
</g>
</g>
<!-- Node4&#45;&gt;Node3 -->
<g id="edge1" class="edge">
<title>Node4&#45;&gt;Node3</title>
<path fill="none" stroke="#191970" d="M85.0536,-161.99C89.1938,-153.059 93.5098,-143.7488 97.7487,-134.605"/>
<polygon fill="none" stroke="#191970" points="81.8438,-160.5923 80.8133,-171.137 88.1946,-163.5365 81.8438,-160.5923"/>
</g>
<!-- Node5 -->
<g id="node3" class="node">
<title>Node5</title>
<g id="a_node3"><a xlink:href="interface_swift___output_byte_stream.html" target="_top" xlink:title="{Swift_OutputByteStream\n||+ read()\l+ setReadPointer()\l}">
<polygon fill="#ffffff" stroke="#000000" points="136.1108,-186.5 136.1108,-250.5 261.603,-250.5 261.603,-186.5 136.1108,-186.5"/>
<text text-anchor="middle" x="198.8569" y="-238.5" font-family="Helvetica,sans-Serif" font-size="10.00" fill="#000000">Swift_OutputByteStream</text>
<polyline fill="none" stroke="#000000" points="136.1108,-232.5 261.603,-232.5 "/>
<text text-anchor="middle" x="198.8569" y="-220.5" font-family="Helvetica,sans-Serif" font-size="10.00" fill="#000000"> </text>
<polyline fill="none" stroke="#000000" points="136.1108,-214.5 261.603,-214.5 "/>
<text text-anchor="start" x="144.1108" y="-202.5" font-family="Helvetica,sans-Serif" font-size="10.00" fill="#000000">+ read()</text>
<text text-anchor="start" x="144.1108" y="-192.5" font-family="Helvetica,sans-Serif" font-size="10.00" fill="#000000">+ setReadPointer()</text>
</a>
</g>
</g>
<!-- Node5&#45;&gt;Node3 -->
<g id="edge2" class="edge">
<title>Node5&#45;&gt;Node3</title>
<path fill="none" stroke="#191970" d="M179.7231,-177.2256C173.615,-164.0495 166.6891,-149.1095 159.958,-134.5895"/>
<polygon fill="none" stroke="#191970" points="176.6305,-178.8763 184.0117,-186.4768 182.9813,-175.9322 176.6305,-178.8763"/>
</g>
</g>
</svg>
