<?xml version="1.0" encoding="UTF-8" standalone="no"?>
<!DOCTYPE svg PUBLIC "-//W3C//DTD SVG 1.1//EN"
 "http://www.w3.org/Graphics/SVG/1.1/DTD/svg11.dtd">
<!-- Generated by graphviz version 2.40.1 (20161225.0304)
 -->
<!-- Title: Google_MySeriesServiceResource Pages: 1 -->
<svg width="180pt" height="184pt"
 viewBox="0.00 0.00 179.62 184.00" xmlns="http://www.w3.org/2000/svg" xmlns:xlink="http://www.w3.org/1999/xlink">
<g id="graph0" class="graph" transform="scale(1 1) rotate(0) translate(4 180)">
<title>Google_MySeriesServiceResource</title>
<polygon fill="#ffffff" stroke="transparent" points="-4,4 -4,-180 175.625,-180 175.625,4 -4,4"/>
<!-- Node2 -->
<g id="node1" class="node">
<title>Node2</title>
<polygon fill="#bfbfbf" stroke="#000000" points="0,-.5 0,-54.5 171.625,-54.5 171.625,-.5 0,-.5"/>
<text text-anchor="middle" x="85.8125" y="-42.5" font-family="Helvetica,sans-Serif" font-size="10.00" fill="#000000">Google_MySeriesServiceResource</text>
<polyline fill="none" stroke="#000000" points="0,-36.5 171.625,-36.5 "/>
<text text-anchor="middle" x="85.8125" y="-24.5" font-family="Helvetica,sans-Serif" font-size="10.00" fill="#000000"> </text>
<polyline fill="none" stroke="#000000" points="0,-18.5 171.625,-18.5 "/>
<text text-anchor="start" x="8" y="-6.5" font-family="Helvetica,sans-Serif" font-size="10.00" fill="#000000">+ listMySeries()</text>
</g>
<!-- Node3 -->
<g id="node2" class="node">
<title>Node3</title>
<g id="a_node2"><a xlink:href="class_google___service_resource.html" target="_top" xlink:title="{Google_ServiceResource\n||+ __construct()\l+ __call()\l+ useObjects()\l# stripNull()\l}">
<polygon fill="#ffffff" stroke="#000000" points="20.8374,-91.5 20.8374,-175.5 150.7876,-175.5 150.7876,-91.5 20.8374,-91.5"/>
<text text-anchor="middle" x="85.8125" y="-163.5" font-family="Helvetica,sans-Serif" font-size="10.00" fill="#000000">Google_ServiceResource</text>
<polyline fill="none" stroke="#000000" points="20.8374,-157.5 150.7876,-157.5 "/>
<text text-anchor="middle" x="85.8125" y="-145.5" font-family="Helvetica,sans-Serif" font-size="10.00" fill="#000000"> </text>
<polyline fill="none" stroke="#000000" points="20.8374,-139.5 150.7876,-139.5 "/>
<text text-anchor="start" x="28.8374" y="-127.5" font-family="Helvetica,sans-Serif" font-size="10.00" fill="#000000">+ __construct()</text>
<text text-anchor="start" x="28.8374" y="-117.5" font-family="Helvetica,sans-Serif" font-size="10.00" fill="#000000">+ __call()</text>
<text text-anchor="start" x="28.8374" y="-107.5" font-family="Helvetica,sans-Serif" font-size="10.00" fill="#000000">+ useObjects()</text>
<text text-anchor="start" x="28.8374" y="-97.5" font-family="Helvetica,sans-Serif" font-size="10.00" fill="#000000"># stripNull()</text>
</a>
</g>
</g>
<!-- Node3&#45;&gt;Node2 -->
<g id="edge1" class="edge">
<title>Node3&#45;&gt;Node2</title>
<path fill="none" stroke="#191970" d="M85.8125,-81.041C85.8125,-71.8936 85.8125,-62.7248 85.8125,-54.6245"/>
<polygon fill="none" stroke="#191970" points="82.3126,-81.3014 85.8125,-91.3014 89.3126,-81.3015 82.3126,-81.3014"/>
</g>
</g>
</svg>
