<?xml version="1.0" encoding="UTF-8" standalone="no"?>
<!DOCTYPE svg PUBLIC "-//W3C//DTD SVG 1.1//EN"
 "http://www.w3.org/Graphics/SVG/1.1/DTD/svg11.dtd">
<!-- Generated by graphviz version 2.40.1 (20161225.0304)
 -->
<!-- Title: Google_InstancesImportRequest Pages: 1 -->
<svg width="170pt" height="224pt"
 viewBox="0.00 0.00 170.20 224.00" xmlns="http://www.w3.org/2000/svg" xmlns:xlink="http://www.w3.org/1999/xlink">
<g id="graph0" class="graph" transform="scale(1 1) rotate(0) translate(4 220)">
<title>Google_InstancesImportRequest</title>
<polygon fill="#ffffff" stroke="transparent" points="-4,4 -4,-220 166.1963,-220 166.1963,4 -4,4"/>
<!-- Node2 -->
<g id="node1" class="node">
<title>Node2</title>
<polygon fill="#bfbfbf" stroke="#000000" points="0,-.5 0,-84.5 162.1963,-84.5 162.1963,-.5 0,-.5"/>
<text text-anchor="middle" x="81.0981" y="-72.5" font-family="Helvetica,sans-Serif" font-size="10.00" fill="#000000">Google_InstancesImportRequest</text>
<polyline fill="none" stroke="#000000" points="0,-66.5 162.1963,-66.5 "/>
<text text-anchor="start" x="8" y="-54.5" font-family="Helvetica,sans-Serif" font-size="10.00" fill="#000000">+ $importContext</text>
<text text-anchor="start" x="8" y="-44.5" font-family="Helvetica,sans-Serif" font-size="10.00" fill="#000000"># $__importContextType</text>
<text text-anchor="start" x="8" y="-34.5" font-family="Helvetica,sans-Serif" font-size="10.00" fill="#000000"># $__importContextDataType</text>
<polyline fill="none" stroke="#000000" points="0,-28.5 162.1963,-28.5 "/>
<text text-anchor="start" x="8" y="-16.5" font-family="Helvetica,sans-Serif" font-size="10.00" fill="#000000">+ setImportContext()</text>
<text text-anchor="start" x="8" y="-6.5" font-family="Helvetica,sans-Serif" font-size="10.00" fill="#000000">+ getImportContext()</text>
</g>
<!-- Node3 -->
<g id="node2" class="node">
<title>Node3</title>
<g id="a_node2"><a xlink:href="class_google___model.html" target="_top" xlink:title="{Google_Model\n||+ __construct()\l+ assertIsArray()\l# mapTypes()\l# isAssociativeArray()\l# useObjects()\l}">
<polygon fill="#ffffff" stroke="#000000" points="24.7534,-121.5 24.7534,-215.5 137.4429,-215.5 137.4429,-121.5 24.7534,-121.5"/>
<text text-anchor="middle" x="81.0981" y="-203.5" font-family="Helvetica,sans-Serif" font-size="10.00" fill="#000000">Google_Model</text>
<polyline fill="none" stroke="#000000" points="24.7534,-197.5 137.4429,-197.5 "/>
<text text-anchor="middle" x="81.0981" y="-185.5" font-family="Helvetica,sans-Serif" font-size="10.00" fill="#000000"> </text>
<polyline fill="none" stroke="#000000" points="24.7534,-179.5 137.4429,-179.5 "/>
<text text-anchor="start" x="32.7534" y="-167.5" font-family="Helvetica,sans-Serif" font-size="10.00" fill="#000000">+ __construct()</text>
<text text-anchor="start" x="32.7534" y="-157.5" font-family="Helvetica,sans-Serif" font-size="10.00" fill="#000000">+ assertIsArray()</text>
<text text-anchor="start" x="32.7534" y="-147.5" font-family="Helvetica,sans-Serif" font-size="10.00" fill="#000000"># mapTypes()</text>
<text text-anchor="start" x="32.7534" y="-137.5" font-family="Helvetica,sans-Serif" font-size="10.00" fill="#000000"># isAssociativeArray()</text>
<text text-anchor="start" x="32.7534" y="-127.5" font-family="Helvetica,sans-Serif" font-size="10.00" fill="#000000"># useObjects()</text>
</a>
</g>
</g>
<!-- Node3&#45;&gt;Node2 -->
<g id="edge1" class="edge">
<title>Node3&#45;&gt;Node2</title>
<path fill="none" stroke="#191970" d="M81.0981,-110.9387C81.0981,-102.0848 81.0981,-93.0866 81.0981,-84.6505"/>
<polygon fill="none" stroke="#191970" points="77.5982,-111.2237 81.0981,-121.2238 84.5982,-111.2238 77.5982,-111.2237"/>
</g>
</g>
</svg>
