<?xml version="1.0" encoding="UTF-8" standalone="no"?>
<!DOCTYPE svg PUBLIC "-//W3C//DTD SVG 1.1//EN"
 "http://www.w3.org/Graphics/SVG/1.1/DTD/svg11.dtd">
<!-- Generated by graphviz version 2.40.1 (20161225.0304)
 -->
<!-- Title: EYiiPdf Pages: 1 -->
<svg width="157pt" height="254pt"
 viewBox="0.00 0.00 157.45 254.00" xmlns="http://www.w3.org/2000/svg" xmlns:xlink="http://www.w3.org/1999/xlink">
<g id="graph0" class="graph" transform="scale(1 1) rotate(0) translate(4 250)">
<title>EYiiPdf</title>
<polygon fill="#ffffff" stroke="transparent" points="-4,4 -4,-250 153.4521,-250 153.4521,4 -4,4"/>
<!-- Node2 -->
<g id="node1" class="node">
<title>Node2</title>
<polygon fill="#bfbfbf" stroke="#000000" points="0,-.5 0,-154.5 149.4521,-154.5 149.4521,-.5 0,-.5"/>
<text text-anchor="middle" x="74.7261" y="-142.5" font-family="Helvetica,sans-Serif" font-size="10.00" fill="#000000">EYiiPdf</text>
<polyline fill="none" stroke="#000000" points="0,-136.5 149.4521,-136.5 "/>
<text text-anchor="start" x="8" y="-124.5" font-family="Helvetica,sans-Serif" font-size="10.00" fill="#000000">+ OUTPUT_TO_BROWSER</text>
<text text-anchor="start" x="8" y="-114.5" font-family="Helvetica,sans-Serif" font-size="10.00" fill="#000000">+ OUTPUT_TO_DOWNLOAD</text>
<text text-anchor="start" x="8" y="-104.5" font-family="Helvetica,sans-Serif" font-size="10.00" fill="#000000">+ OUTPUT_TO_FILE</text>
<text text-anchor="start" x="8" y="-94.5" font-family="Helvetica,sans-Serif" font-size="10.00" fill="#000000">+ OUTPUT_TO_STRING</text>
<text text-anchor="start" x="8" y="-84.5" font-family="Helvetica,sans-Serif" font-size="10.00" fill="#000000">+ $params</text>
<text text-anchor="start" x="8" y="-74.5" font-family="Helvetica,sans-Serif" font-size="10.00" fill="#000000"># $_mpdf</text>
<text text-anchor="start" x="8" y="-64.5" font-family="Helvetica,sans-Serif" font-size="10.00" fill="#000000"># $_HTML2PDF</text>
<text text-anchor="start" x="8" y="-54.5" font-family="Helvetica,sans-Serif" font-size="10.00" fill="#000000"># $_importedPaths</text>
<polyline fill="none" stroke="#000000" points="0,-48.5 149.4521,-48.5 "/>
<text text-anchor="start" x="8" y="-36.5" font-family="Helvetica,sans-Serif" font-size="10.00" fill="#000000">+ mpdf()</text>
<text text-anchor="start" x="8" y="-26.5" font-family="Helvetica,sans-Serif" font-size="10.00" fill="#000000">+ HTML2PDF()</text>
<text text-anchor="start" x="8" y="-16.5" font-family="Helvetica,sans-Serif" font-size="10.00" fill="#000000"># initLibrary()</text>
<text text-anchor="start" x="8" y="-6.5" font-family="Helvetica,sans-Serif" font-size="10.00" fill="#000000"># initConstants()</text>
</g>
<!-- Node3 -->
<g id="node2" class="node">
<title>Node3</title>
<polygon fill="#ffffff" stroke="#bfbfbf" points="12.8052,-191.5 12.8052,-245.5 136.647,-245.5 136.647,-191.5 12.8052,-191.5"/>
<text text-anchor="middle" x="74.7261" y="-233.5" font-family="Helvetica,sans-Serif" font-size="10.00" fill="#000000">CApplicationComponent</text>
<polyline fill="none" stroke="#bfbfbf" points="12.8052,-227.5 136.647,-227.5 "/>
<text text-anchor="middle" x="74.7261" y="-215.5" font-family="Helvetica,sans-Serif" font-size="10.00" fill="#000000"> </text>
<polyline fill="none" stroke="#bfbfbf" points="12.8052,-209.5 136.647,-209.5 "/>
<text text-anchor="middle" x="74.7261" y="-197.5" font-family="Helvetica,sans-Serif" font-size="10.00" fill="#000000"> </text>
</g>
<!-- Node3&#45;&gt;Node2 -->
<g id="edge1" class="edge">
<title>Node3&#45;&gt;Node2</title>
<path fill="none" stroke="#191970" d="M74.7261,-181.0381C74.7261,-172.845 74.7261,-163.8826 74.7261,-154.7679"/>
<polygon fill="none" stroke="#191970" points="71.2262,-181.3137 74.7261,-191.3138 78.2262,-181.3138 71.2262,-181.3137"/>
</g>
</g>
</svg>
