<?xml version="1.0" encoding="UTF-8" standalone="no"?>
<!DOCTYPE svg PUBLIC "-//W3C//DTD SVG 1.1//EN"
 "http://www.w3.org/Graphics/SVG/1.1/DTD/svg11.dtd">
<!-- Generated by graphviz version 2.40.1 (20161225.0304)
 -->
<!-- Title: Swift_Plugins_Reporters_HitReporter Pages: 1 -->
<svg width="133pt" height="194pt"
 viewBox="0.00 0.00 133.50 194.00" xmlns="http://www.w3.org/2000/svg" xmlns:xlink="http://www.w3.org/1999/xlink">
<g id="graph0" class="graph" transform="scale(1 1) rotate(0) translate(4 190)">
<title>Swift_Plugins_Reporters_HitReporter</title>
<polygon fill="#ffffff" stroke="transparent" points="-4,4 -4,-190 129.4971,-190 129.4971,4 -4,4"/>
<!-- Node2 -->
<g id="node1" class="node">
<title>Node2</title>
<polygon fill="#bfbfbf" stroke="#000000" points="0,-.5 0,-84.5 125.4971,-84.5 125.4971,-.5 0,-.5"/>
<text text-anchor="start" x="8" y="-72.5" font-family="Helvetica,sans-Serif" font-size="10.00" fill="#000000">Swift_Plugins_Reporters</text>
<text text-anchor="middle" x="62.7485" y="-62.5" font-family="Helvetica,sans-Serif" font-size="10.00" fill="#000000">_HitReporter</text>
<polyline fill="none" stroke="#000000" points="0,-56.5 125.4971,-56.5 "/>
<text text-anchor="middle" x="62.7485" y="-44.5" font-family="Helvetica,sans-Serif" font-size="10.00" fill="#000000"> </text>
<polyline fill="none" stroke="#000000" points="0,-38.5 125.4971,-38.5 "/>
<text text-anchor="start" x="8" y="-26.5" font-family="Helvetica,sans-Serif" font-size="10.00" fill="#000000">+ notify()</text>
<text text-anchor="start" x="8" y="-16.5" font-family="Helvetica,sans-Serif" font-size="10.00" fill="#000000">+ getFailedRecipients()</text>
<text text-anchor="start" x="8" y="-6.5" font-family="Helvetica,sans-Serif" font-size="10.00" fill="#000000">+ clear()</text>
</g>
<!-- Node3 -->
<g id="node2" class="node">
<title>Node3</title>
<g id="a_node2"><a xlink:href="interface_swift___plugins___reporter.html" target="_top" xlink:title="{Swift_Plugins_Reporter\n|+ RESULT_PASS\l+ RESULT_FAIL\l|+ notify()\l}">
<polygon fill="#ffffff" stroke="#000000" points="2.5,-121.5 2.5,-185.5 122.9971,-185.5 122.9971,-121.5 2.5,-121.5"/>
<text text-anchor="middle" x="62.7485" y="-173.5" font-family="Helvetica,sans-Serif" font-size="10.00" fill="#000000">Swift_Plugins_Reporter</text>
<polyline fill="none" stroke="#000000" points="2.5,-167.5 122.9971,-167.5 "/>
<text text-anchor="start" x="10.5" y="-155.5" font-family="Helvetica,sans-Serif" font-size="10.00" fill="#000000">+ RESULT_PASS</text>
<text text-anchor="start" x="10.5" y="-145.5" font-family="Helvetica,sans-Serif" font-size="10.00" fill="#000000">+ RESULT_FAIL</text>
<polyline fill="none" stroke="#000000" points="2.5,-139.5 122.9971,-139.5 "/>
<text text-anchor="start" x="10.5" y="-127.5" font-family="Helvetica,sans-Serif" font-size="10.00" fill="#000000">+ notify()</text>
</a>
</g>
</g>
<!-- Node3&#45;&gt;Node2 -->
<g id="edge1" class="edge">
<title>Node3&#45;&gt;Node2</title>
<path fill="none" stroke="#191970" d="M62.7485,-111.1673C62.7485,-102.5509 62.7485,-93.4852 62.7485,-84.8676"/>
<polygon fill="none" stroke="#191970" points="59.2486,-111.3942 62.7485,-121.3942 66.2486,-111.3942 59.2486,-111.3942"/>
</g>
</g>
</svg>
