<?xml version="1.0" encoding="UTF-8" standalone="no"?>
<!DOCTYPE svg PUBLIC "-//W3C//DTD SVG 1.1//EN"
 "http://www.w3.org/Graphics/SVG/1.1/DTD/svg11.dtd">
<!-- Generated by graphviz version 2.40.1 (20161225.0304)
 -->
<!-- Title: CustomYandexOAuthService Pages: 1 -->
<svg width="153pt" height="174pt"
 viewBox="0.00 0.00 153.33 174.00" xmlns="http://www.w3.org/2000/svg" xmlns:xlink="http://www.w3.org/1999/xlink">
<g id="graph0" class="graph" transform="scale(1 1) rotate(0) translate(4 170)">
<title>CustomYandexOAuthService</title>
<polygon fill="#ffffff" stroke="transparent" points="-4,4 -4,-170 149.3262,-170 149.3262,4 -4,4"/>
<!-- Node2 -->
<g id="node1" class="node">
<title>Node2</title>
<polygon fill="#bfbfbf" stroke="#000000" points="0,-.5 0,-74.5 145.3262,-74.5 145.3262,-.5 0,-.5"/>
<text text-anchor="middle" x="72.6631" y="-62.5" font-family="Helvetica,sans-Serif" font-size="10.00" fill="#000000">CustomYandexOAuthService</text>
<polyline fill="none" stroke="#000000" points="0,-56.5 145.3262,-56.5 "/>
<text text-anchor="middle" x="72.6631" y="-44.5" font-family="Helvetica,sans-Serif" font-size="10.00" fill="#000000"> </text>
<polyline fill="none" stroke="#000000" points="0,-38.5 145.3262,-38.5 "/>
<text text-anchor="start" x="8" y="-26.5" font-family="Helvetica,sans-Serif" font-size="10.00" fill="#000000">+ authenticate()</text>
<text text-anchor="start" x="8" y="-16.5" font-family="Helvetica,sans-Serif" font-size="10.00" fill="#000000"># getCodeUrl()</text>
<text text-anchor="start" x="8" y="-6.5" font-family="Helvetica,sans-Serif" font-size="10.00" fill="#000000"># fetchAttributes()</text>
</g>
<!-- Node3 -->
<g id="node2" class="node">
<title>Node3</title>
<polygon fill="#ffffff" stroke="#bfbfbf" points="17.2266,-111.5 17.2266,-165.5 128.0996,-165.5 128.0996,-111.5 17.2266,-111.5"/>
<text text-anchor="middle" x="72.6631" y="-153.5" font-family="Helvetica,sans-Serif" font-size="10.00" fill="#000000">YandexOAuthService</text>
<polyline fill="none" stroke="#bfbfbf" points="17.2266,-147.5 128.0996,-147.5 "/>
<text text-anchor="middle" x="72.6631" y="-135.5" font-family="Helvetica,sans-Serif" font-size="10.00" fill="#000000"> </text>
<polyline fill="none" stroke="#bfbfbf" points="17.2266,-129.5 128.0996,-129.5 "/>
<text text-anchor="middle" x="72.6631" y="-117.5" font-family="Helvetica,sans-Serif" font-size="10.00" fill="#000000"> </text>
</g>
<!-- Node3&#45;&gt;Node2 -->
<g id="edge1" class="edge">
<title>Node3&#45;&gt;Node2</title>
<path fill="none" stroke="#191970" d="M72.6631,-101.1725C72.6631,-92.4692 72.6631,-83.2047 72.6631,-74.515"/>
<polygon fill="none" stroke="#191970" points="69.1632,-101.4338 72.6631,-111.4339 76.1632,-101.4339 69.1632,-101.4338"/>
</g>
</g>
</svg>
