<?xml version="1.0" encoding="UTF-8" standalone="no"?>
<!DOCTYPE svg PUBLIC "-//W3C//DTD SVG 1.1//EN"
 "http://www.w3.org/Graphics/SVG/1.1/DTD/svg11.dtd">
<!-- Generated by graphviz version 2.40.1 (20161225.0304)
 -->
<!-- Title: HoleRequestForm Pages: 1 -->
<svg width="105pt" height="264pt"
 viewBox="0.00 0.00 105.14 264.00" xmlns="http://www.w3.org/2000/svg" xmlns:xlink="http://www.w3.org/1999/xlink">
<g id="graph0" class="graph" transform="scale(1 1) rotate(0) translate(4 260)">
<title>HoleRequestForm</title>
<polygon fill="#ffffff" stroke="transparent" points="-4,4 -4,-260 101.1426,-260 101.1426,4 -4,4"/>
<!-- Node0 -->
<g id="node1" class="node">
<title>Node0</title>
<polygon fill="#bfbfbf" stroke="#000000" points="0,-.5 0,-164.5 97.1426,-164.5 97.1426,-.5 0,-.5"/>
<text text-anchor="middle" x="48.5713" y="-152.5" font-family="Helvetica,sans-Serif" font-size="10.00" fill="#000000">HoleRequestForm</text>
<polyline fill="none" stroke="#000000" points="0,-146.5 97.1426,-146.5 "/>
<text text-anchor="start" x="8" y="-134.5" font-family="Helvetica,sans-Serif" font-size="10.00" fill="#000000">+ $lang</text>
<text text-anchor="start" x="8" y="-124.5" font-family="Helvetica,sans-Serif" font-size="10.00" fill="#000000">+ $form_type</text>
<text text-anchor="start" x="8" y="-114.5" font-family="Helvetica,sans-Serif" font-size="10.00" fill="#000000">+ $to_name</text>
<text text-anchor="start" x="8" y="-104.5" font-family="Helvetica,sans-Serif" font-size="10.00" fill="#000000">+ $to_address</text>
<text text-anchor="start" x="8" y="-94.5" font-family="Helvetica,sans-Serif" font-size="10.00" fill="#000000">+ $from</text>
<text text-anchor="start" x="8" y="-84.5" font-family="Helvetica,sans-Serif" font-size="10.00" fill="#000000">+ $postaddress</text>
<text text-anchor="start" x="8" y="-74.5" font-family="Helvetica,sans-Serif" font-size="10.00" fill="#000000">+ $address</text>
<text text-anchor="start" x="8" y="-64.5" font-family="Helvetica,sans-Serif" font-size="10.00" fill="#000000">+ $comment</text>
<text text-anchor="start" x="8" y="-54.5" font-family="Helvetica,sans-Serif" font-size="10.00" fill="#000000">+ $signature</text>
<text text-anchor="start" x="8" y="-44.5" font-family="Helvetica,sans-Serif" font-size="10.00" fill="#000000">+ $html</text>
<text text-anchor="start" x="8" y="-34.5" font-family="Helvetica,sans-Serif" font-size="10.00" fill="#000000">і ще 6...</text>
<polyline fill="none" stroke="#000000" points="0,-28.5 97.1426,-28.5 "/>
<text text-anchor="start" x="8" y="-16.5" font-family="Helvetica,sans-Serif" font-size="10.00" fill="#000000">+ rules()</text>
<text text-anchor="start" x="8" y="-6.5" font-family="Helvetica,sans-Serif" font-size="10.00" fill="#000000">+ attributeLabels()</text>
</g>
<!-- Node1 -->
<g id="node2" class="node">
<title>Node1</title>
<polygon fill="#ffffff" stroke="#bfbfbf" points="11.6772,-201.5 11.6772,-255.5 85.4653,-255.5 85.4653,-201.5 11.6772,-201.5"/>
<text text-anchor="middle" x="48.5713" y="-243.5" font-family="Helvetica,sans-Serif" font-size="10.00" fill="#000000">CFormModel</text>
<polyline fill="none" stroke="#bfbfbf" points="11.6772,-237.5 85.4653,-237.5 "/>
<text text-anchor="middle" x="48.5713" y="-225.5" font-family="Helvetica,sans-Serif" font-size="10.00" fill="#000000"> </text>
<polyline fill="none" stroke="#bfbfbf" points="11.6772,-219.5 85.4653,-219.5 "/>
<text text-anchor="middle" x="48.5713" y="-207.5" font-family="Helvetica,sans-Serif" font-size="10.00" fill="#000000"> </text>
</g>
<!-- Node1&#45;&gt;Node0 -->
<g id="edge1" class="edge">
<title>Node1&#45;&gt;Node0</title>
<path fill="none" stroke="#191970" d="M48.5713,-191.3747C48.5713,-183.0924 48.5713,-173.9901 48.5713,-164.6855"/>
<polygon fill="none" stroke="#191970" points="45.0714,-191.3806 48.5713,-201.3807 52.0714,-191.3807 45.0714,-191.3806"/>
</g>
</g>
</svg>
