<?xml version="1.0" encoding="UTF-8" standalone="no"?>
<!DOCTYPE svg PUBLIC "-//W3C//DTD SVG 1.1//EN"
 "http://www.w3.org/Graphics/SVG/1.1/DTD/svg11.dtd">
<!-- Generated by graphviz version 2.40.1 (20161225.0304)
 -->
<!-- Title: Google_SubscriptionTransferInfo Pages: 1 -->
<svg width="182pt" height="204pt"
 viewBox="0.00 0.00 181.93 204.00" xmlns="http://www.w3.org/2000/svg" xmlns:xlink="http://www.w3.org/1999/xlink">
<g id="graph0" class="graph" transform="scale(1 1) rotate(0) translate(4 200)">
<title>Google_SubscriptionTransferInfo</title>
<polygon fill="#ffffff" stroke="transparent" points="-4,4 -4,-200 177.9346,-200 177.9346,4 -4,4"/>
<!-- Node2 -->
<g id="node1" class="node">
<title>Node2</title>
<polygon fill="#bfbfbf" stroke="#000000" points="0,-.5 0,-64.5 173.9346,-64.5 173.9346,-.5 0,-.5"/>
<text text-anchor="middle" x="86.9673" y="-52.5" font-family="Helvetica,sans-Serif" font-size="10.00" fill="#000000">Google_SubscriptionTransferInfo</text>
<polyline fill="none" stroke="#000000" points="0,-46.5 173.9346,-46.5 "/>
<text text-anchor="start" x="8" y="-34.5" font-family="Helvetica,sans-Serif" font-size="10.00" fill="#000000">+ $transferabilityExpirationTime</text>
<polyline fill="none" stroke="#000000" points="0,-28.5 173.9346,-28.5 "/>
<text text-anchor="start" x="8" y="-16.5" font-family="Helvetica,sans-Serif" font-size="10.00" fill="#000000">+ setTransferabilityExpirationTime()</text>
<text text-anchor="start" x="8" y="-6.5" font-family="Helvetica,sans-Serif" font-size="10.00" fill="#000000">+ getTransferabilityExpirationTime()</text>
</g>
<!-- Node3 -->
<g id="node2" class="node">
<title>Node3</title>
<g id="a_node2"><a xlink:href="class_google___model.html" target="_top" xlink:title="{Google_Model\n||+ __construct()\l+ assertIsArray()\l# mapTypes()\l# isAssociativeArray()\l# useObjects()\l}">
<polygon fill="#ffffff" stroke="#000000" points="30.6226,-101.5 30.6226,-195.5 143.312,-195.5 143.312,-101.5 30.6226,-101.5"/>
<text text-anchor="middle" x="86.9673" y="-183.5" font-family="Helvetica,sans-Serif" font-size="10.00" fill="#000000">Google_Model</text>
<polyline fill="none" stroke="#000000" points="30.6226,-177.5 143.312,-177.5 "/>
<text text-anchor="middle" x="86.9673" y="-165.5" font-family="Helvetica,sans-Serif" font-size="10.00" fill="#000000"> </text>
<polyline fill="none" stroke="#000000" points="30.6226,-159.5 143.312,-159.5 "/>
<text text-anchor="start" x="38.6226" y="-147.5" font-family="Helvetica,sans-Serif" font-size="10.00" fill="#000000">+ __construct()</text>
<text text-anchor="start" x="38.6226" y="-137.5" font-family="Helvetica,sans-Serif" font-size="10.00" fill="#000000">+ assertIsArray()</text>
<text text-anchor="start" x="38.6226" y="-127.5" font-family="Helvetica,sans-Serif" font-size="10.00" fill="#000000"># mapTypes()</text>
<text text-anchor="start" x="38.6226" y="-117.5" font-family="Helvetica,sans-Serif" font-size="10.00" fill="#000000"># isAssociativeArray()</text>
<text text-anchor="start" x="38.6226" y="-107.5" font-family="Helvetica,sans-Serif" font-size="10.00" fill="#000000"># useObjects()</text>
</a>
</g>
</g>
<!-- Node3&#45;&gt;Node2 -->
<g id="edge1" class="edge">
<title>Node3&#45;&gt;Node2</title>
<path fill="none" stroke="#191970" d="M86.9673,-91.1299C86.9673,-82.0561 86.9673,-72.9618 86.9673,-64.7354"/>
<polygon fill="none" stroke="#191970" points="83.4674,-91.3183 86.9673,-101.3184 90.4674,-91.3184 83.4674,-91.3183"/>
</g>
</g>
</svg>
