<?xml version="1.0" encoding="UTF-8" standalone="no"?>
<!DOCTYPE svg PUBLIC "-//W3C//DTD SVG 1.1//EN"
 "http://www.w3.org/Graphics/SVG/1.1/DTD/svg11.dtd">
<!-- Generated by graphviz version 2.40.1 (20161225.0304)
 -->
<!-- Title: Google_PredictionService Pages: 1 -->
<svg width="140pt" height="184pt"
 viewBox="0.00 0.00 139.62 184.00" xmlns="http://www.w3.org/2000/svg" xmlns:xlink="http://www.w3.org/1999/xlink">
<g id="graph0" class="graph" transform="scale(1 1) rotate(0) translate(4 180)">
<title>Google_PredictionService</title>
<polygon fill="#ffffff" stroke="transparent" points="-4,4 -4,-180 135.6201,-180 135.6201,4 -4,4"/>
<!-- Node2 -->
<g id="node1" class="node">
<title>Node2</title>
<polygon fill="#bfbfbf" stroke="#000000" points="0,-.5 0,-64.5 131.6201,-64.5 131.6201,-.5 0,-.5"/>
<text text-anchor="middle" x="65.8101" y="-52.5" font-family="Helvetica,sans-Serif" font-size="10.00" fill="#000000">Google_PredictionService</text>
<polyline fill="none" stroke="#000000" points="0,-46.5 131.6201,-46.5 "/>
<text text-anchor="start" x="8" y="-34.5" font-family="Helvetica,sans-Serif" font-size="10.00" fill="#000000">+ $hostedmodels</text>
<text text-anchor="start" x="8" y="-24.5" font-family="Helvetica,sans-Serif" font-size="10.00" fill="#000000">+ $trainedmodels</text>
<polyline fill="none" stroke="#000000" points="0,-18.5 131.6201,-18.5 "/>
<text text-anchor="start" x="8" y="-6.5" font-family="Helvetica,sans-Serif" font-size="10.00" fill="#000000">+ __construct()</text>
</g>
<!-- Node3 -->
<g id="node2" class="node">
<title>Node3</title>
<g id="a_node2"><a xlink:href="class_google___service.html" target="_top" xlink:title="{Google_Service\n|+ $version\l+ $servicePath\l+ $resource\l|}">
<polygon fill="#ffffff" stroke="#000000" points="22.2339,-101.5 22.2339,-175.5 109.3862,-175.5 109.3862,-101.5 22.2339,-101.5"/>
<text text-anchor="middle" x="65.8101" y="-163.5" font-family="Helvetica,sans-Serif" font-size="10.00" fill="#000000">Google_Service</text>
<polyline fill="none" stroke="#000000" points="22.2339,-157.5 109.3862,-157.5 "/>
<text text-anchor="start" x="30.2339" y="-145.5" font-family="Helvetica,sans-Serif" font-size="10.00" fill="#000000">+ $version</text>
<text text-anchor="start" x="30.2339" y="-135.5" font-family="Helvetica,sans-Serif" font-size="10.00" fill="#000000">+ $servicePath</text>
<text text-anchor="start" x="30.2339" y="-125.5" font-family="Helvetica,sans-Serif" font-size="10.00" fill="#000000">+ $resource</text>
<polyline fill="none" stroke="#000000" points="22.2339,-119.5 109.3862,-119.5 "/>
<text text-anchor="middle" x="65.8101" y="-107.5" font-family="Helvetica,sans-Serif" font-size="10.00" fill="#000000"> </text>
</a>
</g>
</g>
<!-- Node3&#45;&gt;Node2 -->
<g id="edge1" class="edge">
<title>Node3&#45;&gt;Node2</title>
<path fill="none" stroke="#191970" d="M65.8101,-91.4211C65.8101,-82.4227 65.8101,-73.1937 65.8101,-64.7893"/>
<polygon fill="none" stroke="#191970" points="62.3102,-91.4263 65.8101,-101.4263 69.3102,-91.4264 62.3102,-91.4263"/>
</g>
</g>
</svg>
