<?xml version="1.0" encoding="UTF-8" standalone="no"?>
<!DOCTYPE svg PUBLIC "-//W3C//DTD SVG 1.1//EN"
 "http://www.w3.org/Graphics/SVG/1.1/DTD/svg11.dtd">
<!-- Generated by graphviz version 2.40.1 (20161225.0304)
 -->
<!-- Title: Google_AccountsAlertsServiceResource Pages: 1 -->
<svg width="162pt" height="194pt"
 viewBox="0.00 0.00 161.85 194.00" xmlns="http://www.w3.org/2000/svg" xmlns:xlink="http://www.w3.org/1999/xlink">
<g id="graph0" class="graph" transform="scale(1 1) rotate(0) translate(4 190)">
<title>Google_AccountsAlertsServiceResource</title>
<polygon fill="#ffffff" stroke="transparent" points="-4,4 -4,-190 157.8467,-190 157.8467,4 -4,4"/>
<!-- Node2 -->
<g id="node1" class="node">
<title>Node2</title>
<polygon fill="#bfbfbf" stroke="#000000" points="0,-.5 0,-64.5 153.8467,-64.5 153.8467,-.5 0,-.5"/>
<text text-anchor="start" x="8" y="-52.5" font-family="Helvetica,sans-Serif" font-size="10.00" fill="#000000">Google_AccountsAlertsService</text>
<text text-anchor="middle" x="76.9233" y="-42.5" font-family="Helvetica,sans-Serif" font-size="10.00" fill="#000000">Resource</text>
<polyline fill="none" stroke="#000000" points="0,-36.5 153.8467,-36.5 "/>
<text text-anchor="middle" x="76.9233" y="-24.5" font-family="Helvetica,sans-Serif" font-size="10.00" fill="#000000"> </text>
<polyline fill="none" stroke="#000000" points="0,-18.5 153.8467,-18.5 "/>
<text text-anchor="start" x="8" y="-6.5" font-family="Helvetica,sans-Serif" font-size="10.00" fill="#000000">+ listAccountsAlerts()</text>
</g>
<!-- Node3 -->
<g id="node2" class="node">
<title>Node3</title>
<g id="a_node2"><a xlink:href="class_google___service_resource.html" target="_top" xlink:title="{Google_ServiceResource\n||+ __construct()\l+ __call()\l+ useObjects()\l# stripNull()\l}">
<polygon fill="#ffffff" stroke="#000000" points="11.9482,-101.5 11.9482,-185.5 141.8984,-185.5 141.8984,-101.5 11.9482,-101.5"/>
<text text-anchor="middle" x="76.9233" y="-173.5" font-family="Helvetica,sans-Serif" font-size="10.00" fill="#000000">Google_ServiceResource</text>
<polyline fill="none" stroke="#000000" points="11.9482,-167.5 141.8984,-167.5 "/>
<text text-anchor="middle" x="76.9233" y="-155.5" font-family="Helvetica,sans-Serif" font-size="10.00" fill="#000000"> </text>
<polyline fill="none" stroke="#000000" points="11.9482,-149.5 141.8984,-149.5 "/>
<text text-anchor="start" x="19.9482" y="-137.5" font-family="Helvetica,sans-Serif" font-size="10.00" fill="#000000">+ __construct()</text>
<text text-anchor="start" x="19.9482" y="-127.5" font-family="Helvetica,sans-Serif" font-size="10.00" fill="#000000">+ __call()</text>
<text text-anchor="start" x="19.9482" y="-117.5" font-family="Helvetica,sans-Serif" font-size="10.00" fill="#000000">+ useObjects()</text>
<text text-anchor="start" x="19.9482" y="-107.5" font-family="Helvetica,sans-Serif" font-size="10.00" fill="#000000"># stripNull()</text>
</a>
</g>
</g>
<!-- Node3&#45;&gt;Node2 -->
<g id="edge1" class="edge">
<title>Node3&#45;&gt;Node2</title>
<path fill="none" stroke="#191970" d="M76.9233,-91.1185C76.9233,-82.0854 76.9233,-72.9418 76.9233,-64.6489"/>
<polygon fill="none" stroke="#191970" points="73.4234,-91.219 76.9233,-101.219 80.4234,-91.219 73.4234,-91.219"/>
</g>
</g>
</svg>
