<?xml version="1.0" encoding="UTF-8" standalone="no"?>
<!DOCTYPE svg PUBLIC "-//W3C//DTD SVG 1.1//EN"
 "http://www.w3.org/Graphics/SVG/1.1/DTD/svg11.dtd">
<!-- Generated by graphviz version 2.40.1 (20161225.0304)
 -->
<!-- Title: Google_VolumeLayerInfo Pages: 1 -->
<svg width="137pt" height="224pt"
 viewBox="0.00 0.00 136.86 224.00" xmlns="http://www.w3.org/2000/svg" xmlns:xlink="http://www.w3.org/1999/xlink">
<g id="graph0" class="graph" transform="scale(1 1) rotate(0) translate(4 220)">
<title>Google_VolumeLayerInfo</title>
<polygon fill="#ffffff" stroke="transparent" points="-4,4 -4,-220 132.8613,-220 132.8613,4 -4,4"/>
<!-- Node0 -->
<g id="node1" class="node">
<title>Node0</title>
<polygon fill="#bfbfbf" stroke="#000000" points="0,-.5 0,-84.5 128.8613,-84.5 128.8613,-.5 0,-.5"/>
<text text-anchor="middle" x="64.4307" y="-72.5" font-family="Helvetica,sans-Serif" font-size="10.00" fill="#000000">Google_VolumeLayerInfo</text>
<polyline fill="none" stroke="#000000" points="0,-66.5 128.8613,-66.5 "/>
<text text-anchor="start" x="8" y="-54.5" font-family="Helvetica,sans-Serif" font-size="10.00" fill="#000000">+ $layers</text>
<text text-anchor="start" x="8" y="-44.5" font-family="Helvetica,sans-Serif" font-size="10.00" fill="#000000"># $__layersType</text>
<text text-anchor="start" x="8" y="-34.5" font-family="Helvetica,sans-Serif" font-size="10.00" fill="#000000"># $__layersDataType</text>
<polyline fill="none" stroke="#000000" points="0,-28.5 128.8613,-28.5 "/>
<text text-anchor="start" x="8" y="-16.5" font-family="Helvetica,sans-Serif" font-size="10.00" fill="#000000">+ setLayers()</text>
<text text-anchor="start" x="8" y="-6.5" font-family="Helvetica,sans-Serif" font-size="10.00" fill="#000000">+ getLayers()</text>
</g>
<!-- Node1 -->
<g id="node2" class="node">
<title>Node1</title>
<g id="a_node2"><a xlink:href="class_google___model.html" target="_top" xlink:title="{Google_Model\n||+ __construct()\l+ assertIsArray()\l# mapTypes()\l# isAssociativeArray()\l# useObjects()\l}">
<polygon fill="#ffffff" stroke="#000000" points="8.0859,-121.5 8.0859,-215.5 120.7754,-215.5 120.7754,-121.5 8.0859,-121.5"/>
<text text-anchor="middle" x="64.4307" y="-203.5" font-family="Helvetica,sans-Serif" font-size="10.00" fill="#000000">Google_Model</text>
<polyline fill="none" stroke="#000000" points="8.0859,-197.5 120.7754,-197.5 "/>
<text text-anchor="middle" x="64.4307" y="-185.5" font-family="Helvetica,sans-Serif" font-size="10.00" fill="#000000"> </text>
<polyline fill="none" stroke="#000000" points="8.0859,-179.5 120.7754,-179.5 "/>
<text text-anchor="start" x="16.0859" y="-167.5" font-family="Helvetica,sans-Serif" font-size="10.00" fill="#000000">+ __construct()</text>
<text text-anchor="start" x="16.0859" y="-157.5" font-family="Helvetica,sans-Serif" font-size="10.00" fill="#000000">+ assertIsArray()</text>
<text text-anchor="start" x="16.0859" y="-147.5" font-family="Helvetica,sans-Serif" font-size="10.00" fill="#000000"># mapTypes()</text>
<text text-anchor="start" x="16.0859" y="-137.5" font-family="Helvetica,sans-Serif" font-size="10.00" fill="#000000"># isAssociativeArray()</text>
<text text-anchor="start" x="16.0859" y="-127.5" font-family="Helvetica,sans-Serif" font-size="10.00" fill="#000000"># useObjects()</text>
</a>
</g>
</g>
<!-- Node1&#45;&gt;Node0 -->
<g id="edge1" class="edge">
<title>Node1&#45;&gt;Node0</title>
<path fill="none" stroke="#191970" d="M64.4307,-110.9387C64.4307,-102.0848 64.4307,-93.0866 64.4307,-84.6505"/>
<polygon fill="none" stroke="#191970" points="60.9308,-111.2237 64.4307,-121.2238 67.9308,-111.2238 60.9308,-111.2237"/>
</g>
</g>
</svg>
