<?xml version="1.0" encoding="UTF-8" standalone="no"?>
<!DOCTYPE svg PUBLIC "-//W3C//DTD SVG 1.1//EN"
 "http://www.w3.org/Graphics/SVG/1.1/DTD/svg11.dtd">
<!-- Generated by graphviz version 2.40.1 (20161225.0304)
 -->
<!-- Title: Google_ScoresServiceResource Pages: 1 -->
<svg width="169pt" height="234pt"
 viewBox="0.00 0.00 169.07 234.00" xmlns="http://www.w3.org/2000/svg" xmlns:xlink="http://www.w3.org/1999/xlink">
<g id="graph0" class="graph" transform="scale(1 1) rotate(0) translate(4 230)">
<title>Google_ScoresServiceResource</title>
<polygon fill="#ffffff" stroke="transparent" points="-4,4 -4,-230 165.0732,-230 165.0732,4 -4,4"/>
<!-- Node2 -->
<g id="node1" class="node">
<title>Node2</title>
<polygon fill="#bfbfbf" stroke="#000000" points="0,-.5 0,-104.5 161.0732,-104.5 161.0732,-.5 0,-.5"/>
<text text-anchor="middle" x="80.5366" y="-92.5" font-family="Helvetica,sans-Serif" font-size="10.00" fill="#000000">Google_ScoresServiceResource</text>
<polyline fill="none" stroke="#000000" points="0,-86.5 161.0732,-86.5 "/>
<text text-anchor="middle" x="80.5366" y="-74.5" font-family="Helvetica,sans-Serif" font-size="10.00" fill="#000000"> </text>
<polyline fill="none" stroke="#000000" points="0,-68.5 161.0732,-68.5 "/>
<text text-anchor="start" x="8" y="-56.5" font-family="Helvetica,sans-Serif" font-size="10.00" fill="#000000">+ reset()</text>
<text text-anchor="start" x="8" y="-46.5" font-family="Helvetica,sans-Serif" font-size="10.00" fill="#000000">+ get()</text>
<text text-anchor="start" x="8" y="-36.5" font-family="Helvetica,sans-Serif" font-size="10.00" fill="#000000">+ listScores()</text>
<text text-anchor="start" x="8" y="-26.5" font-family="Helvetica,sans-Serif" font-size="10.00" fill="#000000">+ listWindow()</text>
<text text-anchor="start" x="8" y="-16.5" font-family="Helvetica,sans-Serif" font-size="10.00" fill="#000000">+ submit()</text>
<text text-anchor="start" x="8" y="-6.5" font-family="Helvetica,sans-Serif" font-size="10.00" fill="#000000">+ submitMultiple()</text>
</g>
<!-- Node3 -->
<g id="node2" class="node">
<title>Node3</title>
<g id="a_node2"><a xlink:href="class_google___service_resource.html" target="_top" xlink:title="{Google_ServiceResource\n||+ __construct()\l+ __call()\l+ useObjects()\l# stripNull()\l}">
<polygon fill="#ffffff" stroke="#000000" points="15.5615,-141.5 15.5615,-225.5 145.5117,-225.5 145.5117,-141.5 15.5615,-141.5"/>
<text text-anchor="middle" x="80.5366" y="-213.5" font-family="Helvetica,sans-Serif" font-size="10.00" fill="#000000">Google_ServiceResource</text>
<polyline fill="none" stroke="#000000" points="15.5615,-207.5 145.5117,-207.5 "/>
<text text-anchor="middle" x="80.5366" y="-195.5" font-family="Helvetica,sans-Serif" font-size="10.00" fill="#000000"> </text>
<polyline fill="none" stroke="#000000" points="15.5615,-189.5 145.5117,-189.5 "/>
<text text-anchor="start" x="23.5615" y="-177.5" font-family="Helvetica,sans-Serif" font-size="10.00" fill="#000000">+ __construct()</text>
<text text-anchor="start" x="23.5615" y="-167.5" font-family="Helvetica,sans-Serif" font-size="10.00" fill="#000000">+ __call()</text>
<text text-anchor="start" x="23.5615" y="-157.5" font-family="Helvetica,sans-Serif" font-size="10.00" fill="#000000">+ useObjects()</text>
<text text-anchor="start" x="23.5615" y="-147.5" font-family="Helvetica,sans-Serif" font-size="10.00" fill="#000000"># stripNull()</text>
</a>
</g>
</g>
<!-- Node3&#45;&gt;Node2 -->
<g id="edge1" class="edge">
<title>Node3&#45;&gt;Node2</title>
<path fill="none" stroke="#191970" d="M73.911,-131.2546C73.7448,-122.5097 73.7452,-113.4358 73.912,-104.6923"/>
<polygon fill="none" stroke="#191970" points="70.4143,-131.4277 74.1825,-141.3297 77.4117,-131.239 70.4143,-131.4277"/>
</g>
<!-- Node3&#45;&gt;Node2 -->
<g id="edge2" class="edge">
<title>Node3&#45;&gt;Node2</title>
<path fill="none" stroke="#191970" d="M87.1622,-131.2546C87.3284,-122.5097 87.3281,-113.4358 87.1612,-104.6923"/>
<polygon fill="none" stroke="#191970" points="83.6615,-131.239 86.8907,-141.3297 90.659,-131.4277 83.6615,-131.239"/>
</g>
</g>
</svg>
