<?xml version="1.0" encoding="UTF-8" standalone="no"?>
<!DOCTYPE svg PUBLIC "-//W3C//DTD SVG 1.1//EN"
 "http://www.w3.org/Graphics/SVG/1.1/DTD/svg11.dtd">
<!-- Generated by graphviz version 2.40.1 (20161225.0304)
 -->
<!-- Title: Google_ManagementProfilesServiceResource Pages: 1 -->
<svg width="154pt" height="194pt"
 viewBox="0.00 0.00 153.52 194.00" xmlns="http://www.w3.org/2000/svg" xmlns:xlink="http://www.w3.org/1999/xlink">
<g id="graph0" class="graph" transform="scale(1 1) rotate(0) translate(4 190)">
<title>Google_ManagementProfilesServiceResource</title>
<polygon fill="#ffffff" stroke="transparent" points="-4,4 -4,-190 149.5215,-190 149.5215,4 -4,4"/>
<!-- Node2 -->
<g id="node1" class="node">
<title>Node2</title>
<polygon fill="#bfbfbf" stroke="#000000" points="0,-.5 0,-64.5 145.5215,-64.5 145.5215,-.5 0,-.5"/>
<text text-anchor="start" x="8" y="-52.5" font-family="Helvetica,sans-Serif" font-size="10.00" fill="#000000">Google_ManagementProfiles</text>
<text text-anchor="middle" x="72.7607" y="-42.5" font-family="Helvetica,sans-Serif" font-size="10.00" fill="#000000">ServiceResource</text>
<polyline fill="none" stroke="#000000" points="0,-36.5 145.5215,-36.5 "/>
<text text-anchor="middle" x="72.7607" y="-24.5" font-family="Helvetica,sans-Serif" font-size="10.00" fill="#000000"> </text>
<polyline fill="none" stroke="#000000" points="0,-18.5 145.5215,-18.5 "/>
<text text-anchor="start" x="8" y="-6.5" font-family="Helvetica,sans-Serif" font-size="10.00" fill="#000000">+ listManagementProfiles()</text>
</g>
<!-- Node3 -->
<g id="node2" class="node">
<title>Node3</title>
<g id="a_node2"><a xlink:href="class_google___service_resource.html" target="_top" xlink:title="{Google_ServiceResource\n||+ __construct()\l+ __call()\l+ useObjects()\l# stripNull()\l}">
<polygon fill="#ffffff" stroke="#000000" points="7.7856,-101.5 7.7856,-185.5 137.7358,-185.5 137.7358,-101.5 7.7856,-101.5"/>
<text text-anchor="middle" x="72.7607" y="-173.5" font-family="Helvetica,sans-Serif" font-size="10.00" fill="#000000">Google_ServiceResource</text>
<polyline fill="none" stroke="#000000" points="7.7856,-167.5 137.7358,-167.5 "/>
<text text-anchor="middle" x="72.7607" y="-155.5" font-family="Helvetica,sans-Serif" font-size="10.00" fill="#000000"> </text>
<polyline fill="none" stroke="#000000" points="7.7856,-149.5 137.7358,-149.5 "/>
<text text-anchor="start" x="15.7856" y="-137.5" font-family="Helvetica,sans-Serif" font-size="10.00" fill="#000000">+ __construct()</text>
<text text-anchor="start" x="15.7856" y="-127.5" font-family="Helvetica,sans-Serif" font-size="10.00" fill="#000000">+ __call()</text>
<text text-anchor="start" x="15.7856" y="-117.5" font-family="Helvetica,sans-Serif" font-size="10.00" fill="#000000">+ useObjects()</text>
<text text-anchor="start" x="15.7856" y="-107.5" font-family="Helvetica,sans-Serif" font-size="10.00" fill="#000000"># stripNull()</text>
</a>
</g>
</g>
<!-- Node3&#45;&gt;Node2 -->
<g id="edge1" class="edge">
<title>Node3&#45;&gt;Node2</title>
<path fill="none" stroke="#191970" d="M72.7607,-91.1185C72.7607,-82.0854 72.7607,-72.9418 72.7607,-64.6489"/>
<polygon fill="none" stroke="#191970" points="69.2608,-91.219 72.7607,-101.219 76.2608,-91.219 69.2608,-91.219"/>
</g>
</g>
</svg>
