<?xml version="1.0" encoding="UTF-8" standalone="no"?>
<!DOCTYPE svg PUBLIC "-//W3C//DTD SVG 1.1//EN"
 "http://www.w3.org/Graphics/SVG/1.1/DTD/svg11.dtd">
<!-- Generated by graphviz version 2.40.1 (20161225.0304)
 -->
<!-- Title: Google_CseServiceResource Pages: 1 -->
<svg width="156pt" height="184pt"
 viewBox="0.00 0.00 155.73 184.00" xmlns="http://www.w3.org/2000/svg" xmlns:xlink="http://www.w3.org/1999/xlink">
<g id="graph0" class="graph" transform="scale(1 1) rotate(0) translate(4 180)">
<title>Google_CseServiceResource</title>
<polygon fill="#ffffff" stroke="transparent" points="-4,4 -4,-180 151.7334,-180 151.7334,4 -4,4"/>
<!-- Node0 -->
<g id="node1" class="node">
<title>Node0</title>
<polygon fill="#bfbfbf" stroke="#000000" points="0,-.5 0,-54.5 147.7334,-54.5 147.7334,-.5 0,-.5"/>
<text text-anchor="middle" x="73.8667" y="-42.5" font-family="Helvetica,sans-Serif" font-size="10.00" fill="#000000">Google_CseServiceResource</text>
<polyline fill="none" stroke="#000000" points="0,-36.5 147.7334,-36.5 "/>
<text text-anchor="middle" x="73.8667" y="-24.5" font-family="Helvetica,sans-Serif" font-size="10.00" fill="#000000"> </text>
<polyline fill="none" stroke="#000000" points="0,-18.5 147.7334,-18.5 "/>
<text text-anchor="start" x="8" y="-6.5" font-family="Helvetica,sans-Serif" font-size="10.00" fill="#000000">+ listCse()</text>
</g>
<!-- Node1 -->
<g id="node2" class="node">
<title>Node1</title>
<g id="a_node2"><a xlink:href="class_google___service_resource.html" target="_top" xlink:title="{Google_ServiceResource\n||+ __construct()\l+ __call()\l+ useObjects()\l# stripNull()\l}">
<polygon fill="#ffffff" stroke="#000000" points="8.8916,-91.5 8.8916,-175.5 138.8418,-175.5 138.8418,-91.5 8.8916,-91.5"/>
<text text-anchor="middle" x="73.8667" y="-163.5" font-family="Helvetica,sans-Serif" font-size="10.00" fill="#000000">Google_ServiceResource</text>
<polyline fill="none" stroke="#000000" points="8.8916,-157.5 138.8418,-157.5 "/>
<text text-anchor="middle" x="73.8667" y="-145.5" font-family="Helvetica,sans-Serif" font-size="10.00" fill="#000000"> </text>
<polyline fill="none" stroke="#000000" points="8.8916,-139.5 138.8418,-139.5 "/>
<text text-anchor="start" x="16.8916" y="-127.5" font-family="Helvetica,sans-Serif" font-size="10.00" fill="#000000">+ __construct()</text>
<text text-anchor="start" x="16.8916" y="-117.5" font-family="Helvetica,sans-Serif" font-size="10.00" fill="#000000">+ __call()</text>
<text text-anchor="start" x="16.8916" y="-107.5" font-family="Helvetica,sans-Serif" font-size="10.00" fill="#000000">+ useObjects()</text>
<text text-anchor="start" x="16.8916" y="-97.5" font-family="Helvetica,sans-Serif" font-size="10.00" fill="#000000"># stripNull()</text>
</a>
</g>
</g>
<!-- Node1&#45;&gt;Node0 -->
<g id="edge1" class="edge">
<title>Node1&#45;&gt;Node0</title>
<path fill="none" stroke="#191970" d="M73.8667,-81.041C73.8667,-71.8936 73.8667,-62.7248 73.8667,-54.6245"/>
<polygon fill="none" stroke="#191970" points="70.3668,-81.3014 73.8667,-91.3014 77.3668,-81.3015 70.3668,-81.3014"/>
</g>
</g>
</svg>
