<?xml version="1.0" encoding="UTF-8" standalone="no"?>
<!DOCTYPE svg PUBLIC "-//W3C//DTD SVG 1.1//EN"
 "http://www.w3.org/Graphics/SVG/1.1/DTD/svg11.dtd">
<!-- Generated by graphviz version 2.40.1 (20161225.0304)
 -->
<!-- Title: Swift_Encoder_QpEncoder Pages: 1 -->
<svg width="314pt" height="456pt"
 viewBox="0.00 0.00 314.39 456.00" xmlns="http://www.w3.org/2000/svg" xmlns:xlink="http://www.w3.org/1999/xlink">
<g id="graph0" class="graph" transform="scale(1 1) rotate(0) translate(4 452)">
<title>Swift_Encoder_QpEncoder</title>
<polygon fill="#ffffff" stroke="transparent" points="-4,4 -4,-452 310.3936,-452 310.3936,4 -4,4"/>
<!-- Node0 -->
<g id="node1" class="node">
<title>Node0</title>
<polygon fill="#bfbfbf" stroke="#000000" points="85.4409,-131.5 85.4409,-265.5 222.0659,-265.5 222.0659,-131.5 85.4409,-131.5"/>
<text text-anchor="middle" x="153.7534" y="-253.5" font-family="Helvetica,sans-Serif" font-size="10.00" fill="#000000">Swift_Encoder_QpEncoder</text>
<polyline fill="none" stroke="#000000" points="85.4409,-247.5 222.0659,-247.5 "/>
<text text-anchor="start" x="93.4409" y="-235.5" font-family="Helvetica,sans-Serif" font-size="10.00" fill="#000000"># $_charStream</text>
<text text-anchor="start" x="93.4409" y="-225.5" font-family="Helvetica,sans-Serif" font-size="10.00" fill="#000000"># $_filter</text>
<text text-anchor="start" x="93.4409" y="-215.5" font-family="Helvetica,sans-Serif" font-size="10.00" fill="#000000"># $_qpMap</text>
<text text-anchor="start" x="93.4409" y="-205.5" font-family="Helvetica,sans-Serif" font-size="10.00" fill="#000000"># $_safeMap</text>
<polyline fill="none" stroke="#000000" points="85.4409,-199.5 222.0659,-199.5 "/>
<text text-anchor="start" x="93.4409" y="-187.5" font-family="Helvetica,sans-Serif" font-size="10.00" fill="#000000">+ __construct()</text>
<text text-anchor="start" x="93.4409" y="-177.5" font-family="Helvetica,sans-Serif" font-size="10.00" fill="#000000">+ encodeString()</text>
<text text-anchor="start" x="93.4409" y="-167.5" font-family="Helvetica,sans-Serif" font-size="10.00" fill="#000000">+ charsetChanged()</text>
<text text-anchor="start" x="93.4409" y="-157.5" font-family="Helvetica,sans-Serif" font-size="10.00" fill="#000000"># _encodeByteSequence()</text>
<text text-anchor="start" x="93.4409" y="-147.5" font-family="Helvetica,sans-Serif" font-size="10.00" fill="#000000"># _nextSequence()</text>
<text text-anchor="start" x="93.4409" y="-137.5" font-family="Helvetica,sans-Serif" font-size="10.00" fill="#000000"># _standardize()</text>
</g>
<!-- Node3 -->
<g id="node4" class="node">
<title>Node3</title>
<g id="a_node4"><a xlink:href="class_swift___mime___content_encoder___qp_content_encoder.html" target="_top" xlink:title="{Swift_Mime_ContentEncoder\l_QpContentEncoder\n||+ __construct()\l+ encodeByteStream()\l+ getName()\l}">
<polygon fill="#ffffff" stroke="#000000" points="0,-5.5 0,-89.5 145.5068,-89.5 145.5068,-5.5 0,-5.5"/>
<text text-anchor="start" x="8" y="-77.5" font-family="Helvetica,sans-Serif" font-size="10.00" fill="#000000">Swift_Mime_ContentEncoder</text>
<text text-anchor="middle" x="72.7534" y="-67.5" font-family="Helvetica,sans-Serif" font-size="10.00" fill="#000000">_QpContentEncoder</text>
<polyline fill="none" stroke="#000000" points="0,-61.5 145.5068,-61.5 "/>
<text text-anchor="middle" x="72.7534" y="-49.5" font-family="Helvetica,sans-Serif" font-size="10.00" fill="#000000"> </text>
<polyline fill="none" stroke="#000000" points="0,-43.5 145.5068,-43.5 "/>
<text text-anchor="start" x="8" y="-31.5" font-family="Helvetica,sans-Serif" font-size="10.00" fill="#000000">+ __construct()</text>
<text text-anchor="start" x="8" y="-21.5" font-family="Helvetica,sans-Serif" font-size="10.00" fill="#000000">+ encodeByteStream()</text>
<text text-anchor="start" x="8" y="-11.5" font-family="Helvetica,sans-Serif" font-size="10.00" fill="#000000">+ getName()</text>
</a>
</g>
</g>
<!-- Node0&#45;&gt;Node3 -->
<g id="edge3" class="edge">
<title>Node0&#45;&gt;Node3</title>
<path fill="none" stroke="#191970" d="M112.9228,-122.3836C106.8886,-111.1347 100.8642,-99.904 95.3854,-89.6905"/>
<polygon fill="none" stroke="#191970" points="109.9425,-124.2321 117.7539,-131.3898 116.1111,-120.9231 109.9425,-124.2321"/>
</g>
<!-- Node4 -->
<g id="node5" class="node">
<title>Node4</title>
<g id="a_node5"><a xlink:href="class_swift___mime___header_encoder___qp_header_encoder.html" target="_top" xlink:title="{Swift_Mime_HeaderEncoder\l_QpHeaderEncoder\n||+ __construct()\l+ getName()\l+ encodeString()\l# _encodeByteSequence()\l}">
<polygon fill="#ffffff" stroke="#000000" points="163.1133,-.5 163.1133,-94.5 306.3936,-94.5 306.3936,-.5 163.1133,-.5"/>
<text text-anchor="start" x="171.1133" y="-82.5" font-family="Helvetica,sans-Serif" font-size="10.00" fill="#000000">Swift_Mime_HeaderEncoder</text>
<text text-anchor="middle" x="234.7534" y="-72.5" font-family="Helvetica,sans-Serif" font-size="10.00" fill="#000000">_QpHeaderEncoder</text>
<polyline fill="none" stroke="#000000" points="163.1133,-66.5 306.3936,-66.5 "/>
<text text-anchor="middle" x="234.7534" y="-54.5" font-family="Helvetica,sans-Serif" font-size="10.00" fill="#000000"> </text>
<polyline fill="none" stroke="#000000" points="163.1133,-48.5 306.3936,-48.5 "/>
<text text-anchor="start" x="171.1133" y="-36.5" font-family="Helvetica,sans-Serif" font-size="10.00" fill="#000000">+ __construct()</text>
<text text-anchor="start" x="171.1133" y="-26.5" font-family="Helvetica,sans-Serif" font-size="10.00" fill="#000000">+ getName()</text>
<text text-anchor="start" x="171.1133" y="-16.5" font-family="Helvetica,sans-Serif" font-size="10.00" fill="#000000">+ encodeString()</text>
<text text-anchor="start" x="171.1133" y="-6.5" font-family="Helvetica,sans-Serif" font-size="10.00" fill="#000000"># _encodeByteSequence()</text>
</a>
</g>
</g>
<!-- Node0&#45;&gt;Node4 -->
<g id="edge4" class="edge">
<title>Node0&#45;&gt;Node4</title>
<path fill="none" stroke="#191970" d="M194.6219,-122.3131C199.7088,-112.8301 204.7879,-103.3617 209.5382,-94.5061"/>
<polygon fill="none" stroke="#191970" points="191.3958,-120.9231 189.7529,-131.3898 197.5643,-124.2321 191.3958,-120.9231"/>
</g>
<!-- Node1 -->
<g id="node2" class="node">
<title>Node1</title>
<g id="a_node2"><a xlink:href="interface_swift___encoder.html" target="_top" xlink:title="{Swift_Encoder\n||+ encodeString()\l}">
<polygon fill="#ffffff" stroke="#000000" points="108.6489,-302.5 108.6489,-356.5 198.8579,-356.5 198.8579,-302.5 108.6489,-302.5"/>
<text text-anchor="middle" x="153.7534" y="-344.5" font-family="Helvetica,sans-Serif" font-size="10.00" fill="#000000">Swift_Encoder</text>
<polyline fill="none" stroke="#000000" points="108.6489,-338.5 198.8579,-338.5 "/>
<text text-anchor="middle" x="153.7534" y="-326.5" font-family="Helvetica,sans-Serif" font-size="10.00" fill="#000000"> </text>
<polyline fill="none" stroke="#000000" points="108.6489,-320.5 198.8579,-320.5 "/>
<text text-anchor="start" x="116.6489" y="-308.5" font-family="Helvetica,sans-Serif" font-size="10.00" fill="#000000">+ encodeString()</text>
</a>
</g>
</g>
<!-- Node1&#45;&gt;Node0 -->
<g id="edge1" class="edge">
<title>Node1&#45;&gt;Node0</title>
<path fill="none" stroke="#191970" d="M153.7534,-292.2321C153.7534,-283.8764 153.7534,-274.7626 153.7534,-265.607"/>
<polygon fill="none" stroke="#191970" points="150.2535,-292.3567 153.7534,-302.3567 157.2535,-292.3567 150.2535,-292.3567"/>
</g>
<!-- Node2 -->
<g id="node3" class="node">
<title>Node2</title>
<g id="a_node3"><a xlink:href="interface_swift___mime___charset_observer.html" target="_top" xlink:title="{Swift_Mime_CharsetObserver\n||+ charsetChanged()\l}">
<polygon fill="#ffffff" stroke="#000000" points="79.0664,-393.5 79.0664,-447.5 228.4404,-447.5 228.4404,-393.5 79.0664,-393.5"/>
<text text-anchor="middle" x="153.7534" y="-435.5" font-family="Helvetica,sans-Serif" font-size="10.00" fill="#000000">Swift_Mime_CharsetObserver</text>
<polyline fill="none" stroke="#000000" points="79.0664,-429.5 228.4404,-429.5 "/>
<text text-anchor="middle" x="153.7534" y="-417.5" font-family="Helvetica,sans-Serif" font-size="10.00" fill="#000000"> </text>
<polyline fill="none" stroke="#000000" points="79.0664,-411.5 228.4404,-411.5 "/>
<text text-anchor="start" x="87.0664" y="-399.5" font-family="Helvetica,sans-Serif" font-size="10.00" fill="#000000">+ charsetChanged()</text>
</a>
</g>
</g>
<!-- Node2&#45;&gt;Node1 -->
<g id="edge2" class="edge">
<title>Node2&#45;&gt;Node1</title>
<path fill="none" stroke="#191970" d="M153.7534,-383.12C153.7534,-374.3006 153.7534,-365.0605 153.7534,-356.7837"/>
<polygon fill="none" stroke="#191970" points="150.2535,-383.197 153.7534,-393.197 157.2535,-383.197 150.2535,-383.197"/>
</g>
</g>
</svg>
