<?xml version="1.0" encoding="UTF-8" standalone="no"?>
<!DOCTYPE svg PUBLIC "-//W3C//DTD SVG 1.1//EN"
 "http://www.w3.org/Graphics/SVG/1.1/DTD/svg11.dtd">
<!-- Generated by graphviz version 2.40.1 (20161225.0304)
 -->
<!-- Title: Google_CalendarService Pages: 1 -->
<svg width="136pt" height="234pt"
 viewBox="0.00 0.00 135.73 234.00" xmlns="http://www.w3.org/2000/svg" xmlns:xlink="http://www.w3.org/1999/xlink">
<g id="graph0" class="graph" transform="scale(1 1) rotate(0) translate(4 230)">
<title>Google_CalendarService</title>
<polygon fill="#ffffff" stroke="transparent" points="-4,4 -4,-230 131.7334,-230 131.7334,4 -4,4"/>
<!-- Node0 -->
<g id="node1" class="node">
<title>Node0</title>
<polygon fill="#bfbfbf" stroke="#000000" points="0,-.5 0,-114.5 127.7334,-114.5 127.7334,-.5 0,-.5"/>
<text text-anchor="middle" x="63.8667" y="-102.5" font-family="Helvetica,sans-Serif" font-size="10.00" fill="#000000">Google_CalendarService</text>
<polyline fill="none" stroke="#000000" points="0,-96.5 127.7334,-96.5 "/>
<text text-anchor="start" x="8" y="-84.5" font-family="Helvetica,sans-Serif" font-size="10.00" fill="#000000">+ $acl</text>
<text text-anchor="start" x="8" y="-74.5" font-family="Helvetica,sans-Serif" font-size="10.00" fill="#000000">+ $calendarList</text>
<text text-anchor="start" x="8" y="-64.5" font-family="Helvetica,sans-Serif" font-size="10.00" fill="#000000">+ $calendars</text>
<text text-anchor="start" x="8" y="-54.5" font-family="Helvetica,sans-Serif" font-size="10.00" fill="#000000">+ $colors</text>
<text text-anchor="start" x="8" y="-44.5" font-family="Helvetica,sans-Serif" font-size="10.00" fill="#000000">+ $events</text>
<text text-anchor="start" x="8" y="-34.5" font-family="Helvetica,sans-Serif" font-size="10.00" fill="#000000">+ $freebusy</text>
<text text-anchor="start" x="8" y="-24.5" font-family="Helvetica,sans-Serif" font-size="10.00" fill="#000000">+ $settings</text>
<polyline fill="none" stroke="#000000" points="0,-18.5 127.7334,-18.5 "/>
<text text-anchor="start" x="8" y="-6.5" font-family="Helvetica,sans-Serif" font-size="10.00" fill="#000000">+ __construct()</text>
</g>
<!-- Node1 -->
<g id="node2" class="node">
<title>Node1</title>
<g id="a_node2"><a xlink:href="class_google___service.html" target="_top" xlink:title="{Google_Service\n|+ $version\l+ $servicePath\l+ $resource\l|}">
<polygon fill="#ffffff" stroke="#000000" points="20.2905,-151.5 20.2905,-225.5 107.4429,-225.5 107.4429,-151.5 20.2905,-151.5"/>
<text text-anchor="middle" x="63.8667" y="-213.5" font-family="Helvetica,sans-Serif" font-size="10.00" fill="#000000">Google_Service</text>
<polyline fill="none" stroke="#000000" points="20.2905,-207.5 107.4429,-207.5 "/>
<text text-anchor="start" x="28.2905" y="-195.5" font-family="Helvetica,sans-Serif" font-size="10.00" fill="#000000">+ $version</text>
<text text-anchor="start" x="28.2905" y="-185.5" font-family="Helvetica,sans-Serif" font-size="10.00" fill="#000000">+ $servicePath</text>
<text text-anchor="start" x="28.2905" y="-175.5" font-family="Helvetica,sans-Serif" font-size="10.00" fill="#000000">+ $resource</text>
<polyline fill="none" stroke="#000000" points="20.2905,-169.5 107.4429,-169.5 "/>
<text text-anchor="middle" x="63.8667" y="-157.5" font-family="Helvetica,sans-Serif" font-size="10.00" fill="#000000"> </text>
</a>
</g>
</g>
<!-- Node1&#45;&gt;Node0 -->
<g id="edge1" class="edge">
<title>Node1&#45;&gt;Node0</title>
<path fill="none" stroke="#191970" d="M63.8667,-141.1631C63.8667,-132.6263 63.8667,-123.6425 63.8667,-114.8573"/>
<polygon fill="none" stroke="#191970" points="60.3668,-141.311 63.8667,-151.3111 67.3668,-141.3111 60.3668,-141.311"/>
</g>
</g>
</svg>
