<?xml version="1.0" encoding="UTF-8" standalone="no"?>
<!DOCTYPE svg PUBLIC "-//W3C//DTD SVG 1.1//EN"
 "http://www.w3.org/Graphics/SVG/1.1/DTD/svg11.dtd">
<!-- Generated by graphviz version 2.40.1 (20161225.0304)
 -->
<!-- Title: Swift_Mime_HeaderEncoder_Base64HeaderEncoder Pages: 1 -->
<svg width="326pt" height="356pt"
 viewBox="0.00 0.00 326.24 356.00" xmlns="http://www.w3.org/2000/svg" xmlns:xlink="http://www.w3.org/1999/xlink">
<g id="graph0" class="graph" transform="scale(1 1) rotate(0) translate(4 352)">
<title>Swift_Mime_HeaderEncoder_Base64HeaderEncoder</title>
<polygon fill="#ffffff" stroke="transparent" points="-4,4 -4,-352 322.2407,-352 322.2407,4 -4,4"/>
<!-- Node0 -->
<g id="node1" class="node">
<title>Node0</title>
<polygon fill="#bfbfbf" stroke="#000000" points="90.9604,-.5 90.9604,-64.5 234.2407,-64.5 234.2407,-.5 90.9604,-.5"/>
<text text-anchor="start" x="98.9604" y="-52.5" font-family="Helvetica,sans-Serif" font-size="10.00" fill="#000000">Swift_Mime_HeaderEncoder</text>
<text text-anchor="middle" x="162.6006" y="-42.5" font-family="Helvetica,sans-Serif" font-size="10.00" fill="#000000">_Base64HeaderEncoder</text>
<polyline fill="none" stroke="#000000" points="90.9604,-36.5 234.2407,-36.5 "/>
<text text-anchor="middle" x="162.6006" y="-24.5" font-family="Helvetica,sans-Serif" font-size="10.00" fill="#000000"> </text>
<polyline fill="none" stroke="#000000" points="90.9604,-18.5 234.2407,-18.5 "/>
<text text-anchor="start" x="98.9604" y="-6.5" font-family="Helvetica,sans-Serif" font-size="10.00" fill="#000000">+ getName()</text>
</g>
<!-- Node1 -->
<g id="node2" class="node">
<title>Node1</title>
<g id="a_node2"><a xlink:href="class_swift___encoder___base64_encoder.html" target="_top" xlink:title="{Swift_Encoder_Base64Encoder\n||+ encodeString()\l+ charsetChanged()\l}">
<polygon fill="#ffffff" stroke="#000000" points="0,-101.5 0,-165.5 157.2012,-165.5 157.2012,-101.5 0,-101.5"/>
<text text-anchor="middle" x="78.6006" y="-153.5" font-family="Helvetica,sans-Serif" font-size="10.00" fill="#000000">Swift_Encoder_Base64Encoder</text>
<polyline fill="none" stroke="#000000" points="0,-147.5 157.2012,-147.5 "/>
<text text-anchor="middle" x="78.6006" y="-135.5" font-family="Helvetica,sans-Serif" font-size="10.00" fill="#000000"> </text>
<polyline fill="none" stroke="#000000" points="0,-129.5 157.2012,-129.5 "/>
<text text-anchor="start" x="8" y="-117.5" font-family="Helvetica,sans-Serif" font-size="10.00" fill="#000000">+ encodeString()</text>
<text text-anchor="start" x="8" y="-107.5" font-family="Helvetica,sans-Serif" font-size="10.00" fill="#000000">+ charsetChanged()</text>
</a>
</g>
</g>
<!-- Node1&#45;&gt;Node0 -->
<g id="edge1" class="edge">
<title>Node1&#45;&gt;Node0</title>
<path fill="none" stroke="#191970" d="M111.9277,-93.4281C119.8386,-83.9162 128.1786,-73.8883 135.7581,-64.7749"/>
<polygon fill="none" stroke="#191970" points="109.1131,-91.3388 105.4097,-101.2653 114.495,-95.8148 109.1131,-91.3388"/>
</g>
<!-- Node2 -->
<g id="node3" class="node">
<title>Node2</title>
<g id="a_node3"><a xlink:href="interface_swift___encoder.html" target="_top" xlink:title="{Swift_Encoder\n||+ encodeString()\l}">
<polygon fill="#ffffff" stroke="#000000" points="117.4961,-202.5 117.4961,-256.5 207.7051,-256.5 207.7051,-202.5 117.4961,-202.5"/>
<text text-anchor="middle" x="162.6006" y="-244.5" font-family="Helvetica,sans-Serif" font-size="10.00" fill="#000000">Swift_Encoder</text>
<polyline fill="none" stroke="#000000" points="117.4961,-238.5 207.7051,-238.5 "/>
<text text-anchor="middle" x="162.6006" y="-226.5" font-family="Helvetica,sans-Serif" font-size="10.00" fill="#000000"> </text>
<polyline fill="none" stroke="#000000" points="117.4961,-220.5 207.7051,-220.5 "/>
<text text-anchor="start" x="125.4961" y="-208.5" font-family="Helvetica,sans-Serif" font-size="10.00" fill="#000000">+ encodeString()</text>
</a>
</g>
</g>
<!-- Node2&#45;&gt;Node1 -->
<g id="edge2" class="edge">
<title>Node2&#45;&gt;Node1</title>
<path fill="none" stroke="#191970" d="M131.9847,-194.5104C123.7099,-185.0535 114.7975,-174.8679 106.6699,-165.5792"/>
<polygon fill="none" stroke="#191970" points="129.5351,-197.026 138.7542,-202.247 134.8032,-192.4165 129.5351,-197.026"/>
</g>
<!-- Node4 -->
<g id="node5" class="node">
<title>Node4</title>
<g id="a_node5"><a xlink:href="interface_swift___mime___header_encoder.html" target="_top" xlink:title="{Swift_Mime_HeaderEncoder\n||+ getName()\l}">
<polygon fill="#ffffff" stroke="#000000" points="174.9604,-106.5 174.9604,-160.5 318.2407,-160.5 318.2407,-106.5 174.9604,-106.5"/>
<text text-anchor="middle" x="246.6006" y="-148.5" font-family="Helvetica,sans-Serif" font-size="10.00" fill="#000000">Swift_Mime_HeaderEncoder</text>
<polyline fill="none" stroke="#000000" points="174.9604,-142.5 318.2407,-142.5 "/>
<text text-anchor="middle" x="246.6006" y="-130.5" font-family="Helvetica,sans-Serif" font-size="10.00" fill="#000000"> </text>
<polyline fill="none" stroke="#000000" points="174.9604,-124.5 318.2407,-124.5 "/>
<text text-anchor="start" x="182.9604" y="-112.5" font-family="Helvetica,sans-Serif" font-size="10.00" fill="#000000">+ getName()</text>
</a>
</g>
</g>
<!-- Node2&#45;&gt;Node4 -->
<g id="edge5" class="edge">
<title>Node2&#45;&gt;Node4</title>
<path fill="none" stroke="#191970" d="M193.0334,-194.7196C202.7977,-183.5604 213.4666,-171.3675 222.6946,-160.8211"/>
<polygon fill="none" stroke="#191970" points="190.398,-192.4165 186.4469,-202.247 195.666,-197.026 190.398,-192.4165"/>
</g>
<!-- Node3 -->
<g id="node4" class="node">
<title>Node3</title>
<g id="a_node4"><a xlink:href="interface_swift___mime___charset_observer.html" target="_top" xlink:title="{Swift_Mime_CharsetObserver\n||+ charsetChanged()\l}">
<polygon fill="#ffffff" stroke="#000000" points="87.9136,-293.5 87.9136,-347.5 237.2876,-347.5 237.2876,-293.5 87.9136,-293.5"/>
<text text-anchor="middle" x="162.6006" y="-335.5" font-family="Helvetica,sans-Serif" font-size="10.00" fill="#000000">Swift_Mime_CharsetObserver</text>
<polyline fill="none" stroke="#000000" points="87.9136,-329.5 237.2876,-329.5 "/>
<text text-anchor="middle" x="162.6006" y="-317.5" font-family="Helvetica,sans-Serif" font-size="10.00" fill="#000000"> </text>
<polyline fill="none" stroke="#000000" points="87.9136,-311.5 237.2876,-311.5 "/>
<text text-anchor="start" x="95.9136" y="-299.5" font-family="Helvetica,sans-Serif" font-size="10.00" fill="#000000">+ charsetChanged()</text>
</a>
</g>
</g>
<!-- Node3&#45;&gt;Node2 -->
<g id="edge3" class="edge">
<title>Node3&#45;&gt;Node2</title>
<path fill="none" stroke="#191970" d="M162.6006,-283.12C162.6006,-274.3006 162.6006,-265.0605 162.6006,-256.7837"/>
<polygon fill="none" stroke="#191970" points="159.1007,-283.197 162.6006,-293.197 166.1007,-283.197 159.1007,-283.197"/>
</g>
<!-- Node4&#45;&gt;Node0 -->
<g id="edge4" class="edge">
<title>Node4&#45;&gt;Node0</title>
<path fill="none" stroke="#191970" d="M217.6064,-98.638C208.4404,-87.6169 198.3574,-75.4933 189.3555,-64.6696"/>
<polygon fill="none" stroke="#191970" points="215.0048,-100.9834 224.0901,-106.4339 220.3867,-96.5073 215.0048,-100.9834"/>
</g>
</g>
</svg>
