<?xml version="1.0" encoding="UTF-8" standalone="no"?>
<!DOCTYPE svg PUBLIC "-//W3C//DTD SVG 1.1//EN"
 "http://www.w3.org/Graphics/SVG/1.1/DTD/svg11.dtd">
<!-- Generated by graphviz version 2.40.1 (20161225.0304)
 -->
<!-- Title: Swift_Events_TransportExceptionEvent Pages: 1 -->
<svg width="174pt" height="315pt"
 viewBox="0.00 0.00 173.71 315.00" xmlns="http://www.w3.org/2000/svg" xmlns:xlink="http://www.w3.org/1999/xlink">
<g id="graph0" class="graph" transform="scale(1 1) rotate(0) translate(4 311)">
<title>Swift_Events_TransportExceptionEvent</title>
<polygon fill="#ffffff" stroke="transparent" points="-4,4 -4,-311 169.707,-311 169.707,4 -4,4"/>
<!-- Node0 -->
<g id="node1" class="node">
<title>Node0</title>
<polygon fill="#bfbfbf" stroke="#000000" points="0,-.5 0,-74.5 165.707,-74.5 165.707,-.5 0,-.5"/>
<text text-anchor="start" x="8" y="-62.5" font-family="Helvetica,sans-Serif" font-size="10.00" fill="#000000">Swift_Events_TransportException</text>
<text text-anchor="middle" x="82.8535" y="-52.5" font-family="Helvetica,sans-Serif" font-size="10.00" fill="#000000">Event</text>
<polyline fill="none" stroke="#000000" points="0,-46.5 165.707,-46.5 "/>
<text text-anchor="middle" x="82.8535" y="-34.5" font-family="Helvetica,sans-Serif" font-size="10.00" fill="#000000"> </text>
<polyline fill="none" stroke="#000000" points="0,-28.5 165.707,-28.5 "/>
<text text-anchor="start" x="8" y="-16.5" font-family="Helvetica,sans-Serif" font-size="10.00" fill="#000000">+ __construct()</text>
<text text-anchor="start" x="8" y="-6.5" font-family="Helvetica,sans-Serif" font-size="10.00" fill="#000000">+ getException()</text>
</g>
<!-- Node1 -->
<g id="node2" class="node">
<title>Node1</title>
<g id="a_node2"><a xlink:href="class_swift___events___event_object.html" target="_top" xlink:title="{Swift_Events_EventObject\n||+ __construct()\l+ getSource()\l+ cancelBubble()\l+ bubbleCancelled()\l}">
<polygon fill="#ffffff" stroke="#000000" points="15.9351,-111.5 15.9351,-195.5 149.772,-195.5 149.772,-111.5 15.9351,-111.5"/>
<text text-anchor="middle" x="82.8535" y="-183.5" font-family="Helvetica,sans-Serif" font-size="10.00" fill="#000000">Swift_Events_EventObject</text>
<polyline fill="none" stroke="#000000" points="15.9351,-177.5 149.772,-177.5 "/>
<text text-anchor="middle" x="82.8535" y="-165.5" font-family="Helvetica,sans-Serif" font-size="10.00" fill="#000000"> </text>
<polyline fill="none" stroke="#000000" points="15.9351,-159.5 149.772,-159.5 "/>
<text text-anchor="start" x="23.9351" y="-147.5" font-family="Helvetica,sans-Serif" font-size="10.00" fill="#000000">+ __construct()</text>
<text text-anchor="start" x="23.9351" y="-137.5" font-family="Helvetica,sans-Serif" font-size="10.00" fill="#000000">+ getSource()</text>
<text text-anchor="start" x="23.9351" y="-127.5" font-family="Helvetica,sans-Serif" font-size="10.00" fill="#000000">+ cancelBubble()</text>
<text text-anchor="start" x="23.9351" y="-117.5" font-family="Helvetica,sans-Serif" font-size="10.00" fill="#000000">+ bubbleCancelled()</text>
</a>
</g>
</g>
<!-- Node1&#45;&gt;Node0 -->
<g id="edge1" class="edge">
<title>Node1&#45;&gt;Node0</title>
<path fill="none" stroke="#191970" d="M82.8535,-101.0572C82.8535,-92.2275 82.8535,-83.2244 82.8535,-74.8766"/>
<polygon fill="none" stroke="#191970" points="79.3536,-101.2932 82.8535,-111.2932 86.3536,-101.2932 79.3536,-101.2932"/>
</g>
<!-- Node2 -->
<g id="node3" class="node">
<title>Node2</title>
<g id="a_node3"><a xlink:href="interface_swift___events___event.html" target="_top" xlink:title="{Swift_Events_Event\n||+ getSource()\l+ cancelBubble()\l+ bubbleCancelled()\l}">
<polygon fill="#ffffff" stroke="#000000" points="29.9634,-232.5 29.9634,-306.5 135.7437,-306.5 135.7437,-232.5 29.9634,-232.5"/>
<text text-anchor="middle" x="82.8535" y="-294.5" font-family="Helvetica,sans-Serif" font-size="10.00" fill="#000000">Swift_Events_Event</text>
<polyline fill="none" stroke="#000000" points="29.9634,-288.5 135.7437,-288.5 "/>
<text text-anchor="middle" x="82.8535" y="-276.5" font-family="Helvetica,sans-Serif" font-size="10.00" fill="#000000"> </text>
<polyline fill="none" stroke="#000000" points="29.9634,-270.5 135.7437,-270.5 "/>
<text text-anchor="start" x="37.9634" y="-258.5" font-family="Helvetica,sans-Serif" font-size="10.00" fill="#000000">+ getSource()</text>
<text text-anchor="start" x="37.9634" y="-248.5" font-family="Helvetica,sans-Serif" font-size="10.00" fill="#000000">+ cancelBubble()</text>
<text text-anchor="start" x="37.9634" y="-238.5" font-family="Helvetica,sans-Serif" font-size="10.00" fill="#000000">+ bubbleCancelled()</text>
</a>
</g>
</g>
<!-- Node2&#45;&gt;Node1 -->
<g id="edge2" class="edge">
<title>Node2&#45;&gt;Node1</title>
<path fill="none" stroke="#191970" d="M82.8535,-222.3716C82.8535,-213.5842 82.8535,-204.4515 82.8535,-195.8197"/>
<polygon fill="none" stroke="#191970" points="79.3536,-222.4779 82.8535,-232.4779 86.3536,-222.478 79.3536,-222.4779"/>
</g>
</g>
</svg>
