<?xml version="1.0" encoding="UTF-8" standalone="no"?>
<!DOCTYPE svg PUBLIC "-//W3C//DTD SVG 1.1//EN"
 "http://www.w3.org/Graphics/SVG/1.1/DTD/svg11.dtd">
<!-- Generated by graphviz version 2.40.1 (20161225.0304)
 -->
<!-- Title: Google_AuthException Pages: 1 -->
<svg width="126pt" height="245pt"
 viewBox="0.00 0.00 126.29 245.00" xmlns="http://www.w3.org/2000/svg" xmlns:xlink="http://www.w3.org/1999/xlink">
<g id="graph0" class="graph" transform="scale(1 1) rotate(0) translate(4 241)">
<title>Google_AuthException</title>
<polygon fill="#ffffff" stroke="transparent" points="-4,4 -4,-241 122.2949,-241 122.2949,4 -4,4"/>
<!-- Node3 -->
<g id="node1" class="node">
<title>Node3</title>
<polygon fill="#bfbfbf" stroke="#000000" points="0,-.5 0,-54.5 118.2949,-54.5 118.2949,-.5 0,-.5"/>
<text text-anchor="middle" x="59.1475" y="-42.5" font-family="Helvetica,sans-Serif" font-size="10.00" fill="#000000">Google_AuthException</text>
<polyline fill="none" stroke="#000000" points="0,-36.5 118.2949,-36.5 "/>
<text text-anchor="middle" x="59.1475" y="-24.5" font-family="Helvetica,sans-Serif" font-size="10.00" fill="#000000"> </text>
<polyline fill="none" stroke="#000000" points="0,-18.5 118.2949,-18.5 "/>
<text text-anchor="middle" x="59.1475" y="-6.5" font-family="Helvetica,sans-Serif" font-size="10.00" fill="#000000"> </text>
</g>
<!-- Node4 -->
<g id="node2" class="node">
<title>Node4</title>
<g id="a_node2"><a xlink:href="class_google___exception.html" target="_top" xlink:title="{Google_Exception\n||}">
<polygon fill="#ffffff" stroke="#000000" points="10.2856,-91.5 10.2856,-145.5 108.0093,-145.5 108.0093,-91.5 10.2856,-91.5"/>
<text text-anchor="middle" x="59.1475" y="-133.5" font-family="Helvetica,sans-Serif" font-size="10.00" fill="#000000">Google_Exception</text>
<polyline fill="none" stroke="#000000" points="10.2856,-127.5 108.0093,-127.5 "/>
<text text-anchor="middle" x="59.1475" y="-115.5" font-family="Helvetica,sans-Serif" font-size="10.00" fill="#000000"> </text>
<polyline fill="none" stroke="#000000" points="10.2856,-109.5 108.0093,-109.5 "/>
<text text-anchor="middle" x="59.1475" y="-97.5" font-family="Helvetica,sans-Serif" font-size="10.00" fill="#000000"> </text>
</a>
</g>
</g>
<!-- Node4&#45;&gt;Node3 -->
<g id="edge1" class="edge">
<title>Node4&#45;&gt;Node3</title>
<path fill="none" stroke="#191970" d="M59.1475,-81.12C59.1475,-72.3006 59.1475,-63.0605 59.1475,-54.7837"/>
<polygon fill="none" stroke="#191970" points="55.6476,-81.197 59.1475,-91.197 62.6476,-81.197 55.6476,-81.197"/>
</g>
<!-- Node5 -->
<g id="node3" class="node">
<title>Node5</title>
<polygon fill="#ffffff" stroke="#bfbfbf" points="29.1895,-182.5 29.1895,-236.5 89.1055,-236.5 89.1055,-182.5 29.1895,-182.5"/>
<text text-anchor="middle" x="59.1475" y="-224.5" font-family="Helvetica,sans-Serif" font-size="10.00" fill="#000000">Exception</text>
<polyline fill="none" stroke="#bfbfbf" points="29.1895,-218.5 89.1055,-218.5 "/>
<text text-anchor="middle" x="59.1475" y="-206.5" font-family="Helvetica,sans-Serif" font-size="10.00" fill="#000000"> </text>
<polyline fill="none" stroke="#bfbfbf" points="29.1895,-200.5 89.1055,-200.5 "/>
<text text-anchor="middle" x="59.1475" y="-188.5" font-family="Helvetica,sans-Serif" font-size="10.00" fill="#000000"> </text>
</g>
<!-- Node5&#45;&gt;Node4 -->
<g id="edge2" class="edge">
<title>Node5&#45;&gt;Node4</title>
<path fill="none" stroke="#191970" d="M59.1475,-172.12C59.1475,-163.3006 59.1475,-154.0605 59.1475,-145.7837"/>
<polygon fill="none" stroke="#191970" points="55.6476,-172.197 59.1475,-182.197 62.6476,-172.197 55.6476,-172.197"/>
</g>
</g>
</svg>
