<?xml version="1.0" encoding="UTF-8" standalone="no"?>
<!DOCTYPE svg PUBLIC "-//W3C//DTD SVG 1.1//EN"
 "http://www.w3.org/Graphics/SVG/1.1/DTD/svg11.dtd">
<!-- Generated by graphviz version 2.40.1 (20161225.0304)
 -->
<!-- Title: Google_ResponsesServiceResource Pages: 1 -->
<svg width="188pt" height="194pt"
 viewBox="0.00 0.00 187.98 194.00" xmlns="http://www.w3.org/2000/svg" xmlns:xlink="http://www.w3.org/1999/xlink">
<g id="graph0" class="graph" transform="scale(1 1) rotate(0) translate(4 190)">
<title>Google_ResponsesServiceResource</title>
<polygon fill="#ffffff" stroke="transparent" points="-4,4 -4,-190 183.9795,-190 183.9795,4 -4,4"/>
<!-- Node2 -->
<g id="node1" class="node">
<title>Node2</title>
<polygon fill="#bfbfbf" stroke="#000000" points="0,-.5 0,-64.5 179.9795,-64.5 179.9795,-.5 0,-.5"/>
<text text-anchor="middle" x="89.9897" y="-52.5" font-family="Helvetica,sans-Serif" font-size="10.00" fill="#000000">Google_ResponsesServiceResource</text>
<polyline fill="none" stroke="#000000" points="0,-46.5 179.9795,-46.5 "/>
<text text-anchor="middle" x="89.9897" y="-34.5" font-family="Helvetica,sans-Serif" font-size="10.00" fill="#000000"> </text>
<polyline fill="none" stroke="#000000" points="0,-28.5 179.9795,-28.5 "/>
<text text-anchor="start" x="8" y="-16.5" font-family="Helvetica,sans-Serif" font-size="10.00" fill="#000000">+ insert()</text>
<text text-anchor="start" x="8" y="-6.5" font-family="Helvetica,sans-Serif" font-size="10.00" fill="#000000">+ listResponses()</text>
</g>
<!-- Node3 -->
<g id="node2" class="node">
<title>Node3</title>
<g id="a_node2"><a xlink:href="class_google___service_resource.html" target="_top" xlink:title="{Google_ServiceResource\n||+ __construct()\l+ __call()\l+ useObjects()\l# stripNull()\l}">
<polygon fill="#ffffff" stroke="#000000" points="25.0146,-101.5 25.0146,-185.5 154.9648,-185.5 154.9648,-101.5 25.0146,-101.5"/>
<text text-anchor="middle" x="89.9897" y="-173.5" font-family="Helvetica,sans-Serif" font-size="10.00" fill="#000000">Google_ServiceResource</text>
<polyline fill="none" stroke="#000000" points="25.0146,-167.5 154.9648,-167.5 "/>
<text text-anchor="middle" x="89.9897" y="-155.5" font-family="Helvetica,sans-Serif" font-size="10.00" fill="#000000"> </text>
<polyline fill="none" stroke="#000000" points="25.0146,-149.5 154.9648,-149.5 "/>
<text text-anchor="start" x="33.0146" y="-137.5" font-family="Helvetica,sans-Serif" font-size="10.00" fill="#000000">+ __construct()</text>
<text text-anchor="start" x="33.0146" y="-127.5" font-family="Helvetica,sans-Serif" font-size="10.00" fill="#000000">+ __call()</text>
<text text-anchor="start" x="33.0146" y="-117.5" font-family="Helvetica,sans-Serif" font-size="10.00" fill="#000000">+ useObjects()</text>
<text text-anchor="start" x="33.0146" y="-107.5" font-family="Helvetica,sans-Serif" font-size="10.00" fill="#000000"># stripNull()</text>
</a>
</g>
</g>
<!-- Node3&#45;&gt;Node2 -->
<g id="edge1" class="edge">
<title>Node3&#45;&gt;Node2</title>
<path fill="none" stroke="#191970" d="M89.9897,-91.1185C89.9897,-82.0854 89.9897,-72.9418 89.9897,-64.6489"/>
<polygon fill="none" stroke="#191970" points="86.4898,-91.219 89.9897,-101.219 93.4898,-91.219 86.4898,-91.219"/>
</g>
</g>
</svg>
