<?xml version="1.0" encoding="UTF-8" standalone="no"?>
<!DOCTYPE svg PUBLIC "-//W3C//DTD SVG 1.1//EN"
 "http://www.w3.org/Graphics/SVG/1.1/DTD/svg11.dtd">
<!-- Generated by graphviz version 2.40.1 (20161225.0304)
 -->
<!-- Title: Swift_Events_EventObject Pages: 1 -->
<svg width="832pt" height="385pt"
 viewBox="0.00 0.00 832.39 385.00" xmlns="http://www.w3.org/2000/svg" xmlns:xlink="http://www.w3.org/1999/xlink">
<g id="graph0" class="graph" transform="scale(1 1) rotate(0) translate(4 381)">
<title>Swift_Events_EventObject</title>
<polygon fill="#ffffff" stroke="transparent" points="-4,4 -4,-381 828.3853,-381 828.3853,4 -4,4"/>
<!-- Node0 -->
<g id="node1" class="node">
<title>Node0</title>
<polygon fill="#bfbfbf" stroke="#000000" points="334.6133,-181.5 334.6133,-265.5 468.4502,-265.5 468.4502,-181.5 334.6133,-181.5"/>
<text text-anchor="middle" x="401.5317" y="-253.5" font-family="Helvetica,sans-Serif" font-size="10.00" fill="#000000">Swift_Events_EventObject</text>
<polyline fill="none" stroke="#000000" points="334.6133,-247.5 468.4502,-247.5 "/>
<text text-anchor="middle" x="401.5317" y="-235.5" font-family="Helvetica,sans-Serif" font-size="10.00" fill="#000000"> </text>
<polyline fill="none" stroke="#000000" points="334.6133,-229.5 468.4502,-229.5 "/>
<text text-anchor="start" x="342.6133" y="-217.5" font-family="Helvetica,sans-Serif" font-size="10.00" fill="#000000">+ __construct()</text>
<text text-anchor="start" x="342.6133" y="-207.5" font-family="Helvetica,sans-Serif" font-size="10.00" fill="#000000">+ getSource()</text>
<text text-anchor="start" x="342.6133" y="-197.5" font-family="Helvetica,sans-Serif" font-size="10.00" fill="#000000">+ cancelBubble()</text>
<text text-anchor="start" x="342.6133" y="-187.5" font-family="Helvetica,sans-Serif" font-size="10.00" fill="#000000">+ bubbleCancelled()</text>
</g>
<!-- Node2 -->
<g id="node3" class="node">
<title>Node2</title>
<g id="a_node3"><a xlink:href="class_swift___events___command_event.html" target="_top" xlink:title="{Swift_Events_CommandEvent\n||+ __construct()\l+ getCommand()\l+ getSuccessCodes()\l}">
<polygon fill="#ffffff" stroke="#000000" points="0,-35.5 0,-109.5 151.0635,-109.5 151.0635,-35.5 0,-35.5"/>
<text text-anchor="middle" x="75.5317" y="-97.5" font-family="Helvetica,sans-Serif" font-size="10.00" fill="#000000">Swift_Events_CommandEvent</text>
<polyline fill="none" stroke="#000000" points="0,-91.5 151.0635,-91.5 "/>
<text text-anchor="middle" x="75.5317" y="-79.5" font-family="Helvetica,sans-Serif" font-size="10.00" fill="#000000"> </text>
<polyline fill="none" stroke="#000000" points="0,-73.5 151.0635,-73.5 "/>
<text text-anchor="start" x="8" y="-61.5" font-family="Helvetica,sans-Serif" font-size="10.00" fill="#000000">+ __construct()</text>
<text text-anchor="start" x="8" y="-51.5" font-family="Helvetica,sans-Serif" font-size="10.00" fill="#000000">+ getCommand()</text>
<text text-anchor="start" x="8" y="-41.5" font-family="Helvetica,sans-Serif" font-size="10.00" fill="#000000">+ getSuccessCodes()</text>
</a>
</g>
</g>
<!-- Node0&#45;&gt;Node2 -->
<g id="edge2" class="edge">
<title>Node0&#45;&gt;Node2</title>
<path fill="none" stroke="#191970" d="M324.5689,-206.6442C275.6132,-193.9759 211.9842,-173.8171 160.5317,-145 143.4401,-135.4275 126.6042,-122.1233 112.4826,-109.5219"/>
<polygon fill="none" stroke="#191970" points="323.9157,-210.0893 334.4693,-209.1562 325.6373,-203.3043 323.9157,-210.0893"/>
</g>
<!-- Node3 -->
<g id="node4" class="node">
<title>Node3</title>
<g id="a_node4"><a xlink:href="class_swift___events___response_event.html" target="_top" xlink:title="{Swift_Events_ResponseEvent\n||+ __construct()\l+ getResponse()\l+ isValid()\l}">
<polygon fill="#ffffff" stroke="#000000" points="169.5493,-35.5 169.5493,-109.5 319.5142,-109.5 319.5142,-35.5 169.5493,-35.5"/>
<text text-anchor="middle" x="244.5317" y="-97.5" font-family="Helvetica,sans-Serif" font-size="10.00" fill="#000000">Swift_Events_ResponseEvent</text>
<polyline fill="none" stroke="#000000" points="169.5493,-91.5 319.5142,-91.5 "/>
<text text-anchor="middle" x="244.5317" y="-79.5" font-family="Helvetica,sans-Serif" font-size="10.00" fill="#000000"> </text>
<polyline fill="none" stroke="#000000" points="169.5493,-73.5 319.5142,-73.5 "/>
<text text-anchor="start" x="177.5493" y="-61.5" font-family="Helvetica,sans-Serif" font-size="10.00" fill="#000000">+ __construct()</text>
<text text-anchor="start" x="177.5493" y="-51.5" font-family="Helvetica,sans-Serif" font-size="10.00" fill="#000000">+ getResponse()</text>
<text text-anchor="start" x="177.5493" y="-41.5" font-family="Helvetica,sans-Serif" font-size="10.00" fill="#000000">+ isValid()</text>
</a>
</g>
</g>
<!-- Node0&#45;&gt;Node3 -->
<g id="edge3" class="edge">
<title>Node0&#45;&gt;Node3</title>
<path fill="none" stroke="#191970" d="M350.5178,-174.4356C328.6463,-153.4 303.5169,-129.2309 283.218,-109.7078"/>
<polygon fill="none" stroke="#191970" points="348.1648,-177.0287 357.7985,-181.4381 353.0172,-171.9834 348.1648,-177.0287"/>
</g>
<!-- Node4 -->
<g id="node5" class="node">
<title>Node4</title>
<g id="a_node5"><a xlink:href="class_swift___events___send_event.html" target="_top" xlink:title="{Swift_Events_SendEvent\n|+ RESULT_PENDING\l+ RESULT_SUCCESS\l+ RESULT_TENTATIVE\l+ RESULT_FAILED\l|+ __construct()\l+ getTransport()\l+ getMessage()\l+ setFailedRecipients()\l+ getFailedRecipients()\l+ setResult()\l+ getResult()\l}">
<polygon fill="#ffffff" stroke="#000000" points="337.3867,-.5 337.3867,-144.5 465.6768,-144.5 465.6768,-.5 337.3867,-.5"/>
<text text-anchor="middle" x="401.5317" y="-132.5" font-family="Helvetica,sans-Serif" font-size="10.00" fill="#000000">Swift_Events_SendEvent</text>
<polyline fill="none" stroke="#000000" points="337.3867,-126.5 465.6768,-126.5 "/>
<text text-anchor="start" x="345.3867" y="-114.5" font-family="Helvetica,sans-Serif" font-size="10.00" fill="#000000">+ RESULT_PENDING</text>
<text text-anchor="start" x="345.3867" y="-104.5" font-family="Helvetica,sans-Serif" font-size="10.00" fill="#000000">+ RESULT_SUCCESS</text>
<text text-anchor="start" x="345.3867" y="-94.5" font-family="Helvetica,sans-Serif" font-size="10.00" fill="#000000">+ RESULT_TENTATIVE</text>
<text text-anchor="start" x="345.3867" y="-84.5" font-family="Helvetica,sans-Serif" font-size="10.00" fill="#000000">+ RESULT_FAILED</text>
<polyline fill="none" stroke="#000000" points="337.3867,-78.5 465.6768,-78.5 "/>
<text text-anchor="start" x="345.3867" y="-66.5" font-family="Helvetica,sans-Serif" font-size="10.00" fill="#000000">+ __construct()</text>
<text text-anchor="start" x="345.3867" y="-56.5" font-family="Helvetica,sans-Serif" font-size="10.00" fill="#000000">+ getTransport()</text>
<text text-anchor="start" x="345.3867" y="-46.5" font-family="Helvetica,sans-Serif" font-size="10.00" fill="#000000">+ getMessage()</text>
<text text-anchor="start" x="345.3867" y="-36.5" font-family="Helvetica,sans-Serif" font-size="10.00" fill="#000000">+ setFailedRecipients()</text>
<text text-anchor="start" x="345.3867" y="-26.5" font-family="Helvetica,sans-Serif" font-size="10.00" fill="#000000">+ getFailedRecipients()</text>
<text text-anchor="start" x="345.3867" y="-16.5" font-family="Helvetica,sans-Serif" font-size="10.00" fill="#000000">+ setResult()</text>
<text text-anchor="start" x="345.3867" y="-6.5" font-family="Helvetica,sans-Serif" font-size="10.00" fill="#000000">+ getResult()</text>
</a>
</g>
</g>
<!-- Node0&#45;&gt;Node4 -->
<g id="edge4" class="edge">
<title>Node0&#45;&gt;Node4</title>
<path fill="none" stroke="#191970" d="M401.5317,-171.2373C401.5317,-162.6667 401.5317,-153.6534 401.5317,-144.7021"/>
<polygon fill="none" stroke="#191970" points="398.0318,-171.438 401.5317,-181.4381 405.0318,-171.4381 398.0318,-171.438"/>
</g>
<!-- Node5 -->
<g id="node6" class="node">
<title>Node5</title>
<g id="a_node6"><a xlink:href="class_swift___events___transport_change_event.html" target="_top" xlink:title="{Swift_Events_TransportChange\lEvent\n||+ getTransport()\l}">
<polygon fill="#ffffff" stroke="#000000" points="484.1216,-40.5 484.1216,-104.5 640.9419,-104.5 640.9419,-40.5 484.1216,-40.5"/>
<text text-anchor="start" x="492.1216" y="-92.5" font-family="Helvetica,sans-Serif" font-size="10.00" fill="#000000">Swift_Events_TransportChange</text>
<text text-anchor="middle" x="562.5317" y="-82.5" font-family="Helvetica,sans-Serif" font-size="10.00" fill="#000000">Event</text>
<polyline fill="none" stroke="#000000" points="484.1216,-76.5 640.9419,-76.5 "/>
<text text-anchor="middle" x="562.5317" y="-64.5" font-family="Helvetica,sans-Serif" font-size="10.00" fill="#000000"> </text>
<polyline fill="none" stroke="#000000" points="484.1216,-58.5 640.9419,-58.5 "/>
<text text-anchor="start" x="492.1216" y="-46.5" font-family="Helvetica,sans-Serif" font-size="10.00" fill="#000000">+ getTransport()</text>
</a>
</g>
</g>
<!-- Node0&#45;&gt;Node5 -->
<g id="edge5" class="edge">
<title>Node0&#45;&gt;Node5</title>
<path fill="none" stroke="#191970" d="M453.8318,-174.4484C478.2955,-151.5042 506.7365,-124.8297 528.3893,-104.5218"/>
<polygon fill="none" stroke="#191970" points="451.2789,-172.0442 446.3792,-181.4381 456.0675,-177.15 451.2789,-172.0442"/>
</g>
<!-- Node6 -->
<g id="node7" class="node">
<title>Node6</title>
<g id="a_node7"><a xlink:href="class_swift___events___transport_exception_event.html" target="_top" xlink:title="{Swift_Events_TransportException\lEvent\n||+ __construct()\l+ getException()\l}">
<polygon fill="#ffffff" stroke="#000000" points="658.6782,-35.5 658.6782,-109.5 824.3853,-109.5 824.3853,-35.5 658.6782,-35.5"/>
<text text-anchor="start" x="666.6782" y="-97.5" font-family="Helvetica,sans-Serif" font-size="10.00" fill="#000000">Swift_Events_TransportException</text>
<text text-anchor="middle" x="741.5317" y="-87.5" font-family="Helvetica,sans-Serif" font-size="10.00" fill="#000000">Event</text>
<polyline fill="none" stroke="#000000" points="658.6782,-81.5 824.3853,-81.5 "/>
<text text-anchor="middle" x="741.5317" y="-69.5" font-family="Helvetica,sans-Serif" font-size="10.00" fill="#000000"> </text>
<polyline fill="none" stroke="#000000" points="658.6782,-63.5 824.3853,-63.5 "/>
<text text-anchor="start" x="666.6782" y="-51.5" font-family="Helvetica,sans-Serif" font-size="10.00" fill="#000000">+ __construct()</text>
<text text-anchor="start" x="666.6782" y="-41.5" font-family="Helvetica,sans-Serif" font-size="10.00" fill="#000000">+ getException()</text>
</a>
</g>
</g>
<!-- Node0&#45;&gt;Node6 -->
<g id="edge6" class="edge">
<title>Node0&#45;&gt;Node6</title>
<path fill="none" stroke="#191970" d="M478.4733,-206.787C528.9437,-194.0111 595.3712,-173.6789 649.5317,-145 667.5034,-135.4837 685.4728,-122.3394 700.6994,-109.8535"/>
<polygon fill="none" stroke="#191970" points="477.4604,-203.4322 468.6003,-209.2417 479.1494,-210.2254 477.4604,-203.4322"/>
</g>
<!-- Node1 -->
<g id="node2" class="node">
<title>Node1</title>
<g id="a_node2"><a xlink:href="interface_swift___events___event.html" target="_top" xlink:title="{Swift_Events_Event\n||+ getSource()\l+ cancelBubble()\l+ bubbleCancelled()\l}">
<polygon fill="#ffffff" stroke="#000000" points="348.6416,-302.5 348.6416,-376.5 454.4219,-376.5 454.4219,-302.5 348.6416,-302.5"/>
<text text-anchor="middle" x="401.5317" y="-364.5" font-family="Helvetica,sans-Serif" font-size="10.00" fill="#000000">Swift_Events_Event</text>
<polyline fill="none" stroke="#000000" points="348.6416,-358.5 454.4219,-358.5 "/>
<text text-anchor="middle" x="401.5317" y="-346.5" font-family="Helvetica,sans-Serif" font-size="10.00" fill="#000000"> </text>
<polyline fill="none" stroke="#000000" points="348.6416,-340.5 454.4219,-340.5 "/>
<text text-anchor="start" x="356.6416" y="-328.5" font-family="Helvetica,sans-Serif" font-size="10.00" fill="#000000">+ getSource()</text>
<text text-anchor="start" x="356.6416" y="-318.5" font-family="Helvetica,sans-Serif" font-size="10.00" fill="#000000">+ cancelBubble()</text>
<text text-anchor="start" x="356.6416" y="-308.5" font-family="Helvetica,sans-Serif" font-size="10.00" fill="#000000">+ bubbleCancelled()</text>
</a>
</g>
</g>
<!-- Node1&#45;&gt;Node0 -->
<g id="edge1" class="edge">
<title>Node1&#45;&gt;Node0</title>
<path fill="none" stroke="#191970" d="M401.5317,-292.3716C401.5317,-283.5842 401.5317,-274.4515 401.5317,-265.8197"/>
<polygon fill="none" stroke="#191970" points="398.0318,-292.4779 401.5317,-302.4779 405.0318,-292.478 398.0318,-292.4779"/>
</g>
</g>
</svg>
