<?xml version="1.0" encoding="UTF-8" standalone="no"?>
<!DOCTYPE svg PUBLIC "-//W3C//DTD SVG 1.1//EN"
 "http://www.w3.org/Graphics/SVG/1.1/DTD/svg11.dtd">
<!-- Generated by graphviz version 2.40.1 (20161225.0304)
 -->
<!-- Title: Google_TasksService Pages: 1 -->
<svg width="121pt" height="184pt"
 viewBox="0.00 0.00 120.71 184.00" xmlns="http://www.w3.org/2000/svg" xmlns:xlink="http://www.w3.org/1999/xlink">
<g id="graph0" class="graph" transform="scale(1 1) rotate(0) translate(4 180)">
<title>Google_TasksService</title>
<polygon fill="#ffffff" stroke="transparent" points="-4,4 -4,-180 116.7139,-180 116.7139,4 -4,4"/>
<!-- Node2 -->
<g id="node1" class="node">
<title>Node2</title>
<polygon fill="#bfbfbf" stroke="#000000" points="0,-.5 0,-64.5 112.7139,-64.5 112.7139,-.5 0,-.5"/>
<text text-anchor="middle" x="56.3569" y="-52.5" font-family="Helvetica,sans-Serif" font-size="10.00" fill="#000000">Google_TasksService</text>
<polyline fill="none" stroke="#000000" points="0,-46.5 112.7139,-46.5 "/>
<text text-anchor="start" x="8" y="-34.5" font-family="Helvetica,sans-Serif" font-size="10.00" fill="#000000">+ $tasklists</text>
<text text-anchor="start" x="8" y="-24.5" font-family="Helvetica,sans-Serif" font-size="10.00" fill="#000000">+ $tasks</text>
<polyline fill="none" stroke="#000000" points="0,-18.5 112.7139,-18.5 "/>
<text text-anchor="start" x="8" y="-6.5" font-family="Helvetica,sans-Serif" font-size="10.00" fill="#000000">+ __construct()</text>
</g>
<!-- Node3 -->
<g id="node2" class="node">
<title>Node3</title>
<g id="a_node2"><a xlink:href="class_google___service.html" target="_top" xlink:title="{Google_Service\n|+ $version\l+ $servicePath\l+ $resource\l|}">
<polygon fill="#ffffff" stroke="#000000" points="12.7808,-101.5 12.7808,-175.5 99.9331,-175.5 99.9331,-101.5 12.7808,-101.5"/>
<text text-anchor="middle" x="56.3569" y="-163.5" font-family="Helvetica,sans-Serif" font-size="10.00" fill="#000000">Google_Service</text>
<polyline fill="none" stroke="#000000" points="12.7808,-157.5 99.9331,-157.5 "/>
<text text-anchor="start" x="20.7808" y="-145.5" font-family="Helvetica,sans-Serif" font-size="10.00" fill="#000000">+ $version</text>
<text text-anchor="start" x="20.7808" y="-135.5" font-family="Helvetica,sans-Serif" font-size="10.00" fill="#000000">+ $servicePath</text>
<text text-anchor="start" x="20.7808" y="-125.5" font-family="Helvetica,sans-Serif" font-size="10.00" fill="#000000">+ $resource</text>
<polyline fill="none" stroke="#000000" points="12.7808,-119.5 99.9331,-119.5 "/>
<text text-anchor="middle" x="56.3569" y="-107.5" font-family="Helvetica,sans-Serif" font-size="10.00" fill="#000000"> </text>
</a>
</g>
</g>
<!-- Node3&#45;&gt;Node2 -->
<g id="edge1" class="edge">
<title>Node3&#45;&gt;Node2</title>
<path fill="none" stroke="#191970" d="M56.3569,-91.4211C56.3569,-82.4227 56.3569,-73.1937 56.3569,-64.7893"/>
<polygon fill="none" stroke="#191970" points="52.857,-91.4263 56.3569,-101.4263 59.857,-91.4264 52.857,-91.4263"/>
</g>
</g>
</svg>
