<?xml version="1.0" encoding="UTF-8" standalone="no"?>
<!DOCTYPE svg PUBLIC "-//W3C//DTD SVG 1.1//EN"
 "http://www.w3.org/Graphics/SVG/1.1/DTD/svg11.dtd">
<!-- Generated by graphviz version 2.40.1 (20161225.0304)
 -->
<!-- Title: Google_SQLAdminService Pages: 1 -->
<svg width="144pt" height="204pt"
 viewBox="0.00 0.00 143.51 204.00" xmlns="http://www.w3.org/2000/svg" xmlns:xlink="http://www.w3.org/1999/xlink">
<g id="graph0" class="graph" transform="scale(1 1) rotate(0) translate(4 200)">
<title>Google_SQLAdminService</title>
<polygon fill="#ffffff" stroke="transparent" points="-4,4 -4,-200 139.5068,-200 139.5068,4 -4,4"/>
<!-- Node2 -->
<g id="node1" class="node">
<title>Node2</title>
<polygon fill="#bfbfbf" stroke="#000000" points="0,-.5 0,-84.5 135.5068,-84.5 135.5068,-.5 0,-.5"/>
<text text-anchor="middle" x="67.7534" y="-72.5" font-family="Helvetica,sans-Serif" font-size="10.00" fill="#000000">Google_SQLAdminService</text>
<polyline fill="none" stroke="#000000" points="0,-66.5 135.5068,-66.5 "/>
<text text-anchor="start" x="8" y="-54.5" font-family="Helvetica,sans-Serif" font-size="10.00" fill="#000000">+ $backupRuns</text>
<text text-anchor="start" x="8" y="-44.5" font-family="Helvetica,sans-Serif" font-size="10.00" fill="#000000">+ $instances</text>
<text text-anchor="start" x="8" y="-34.5" font-family="Helvetica,sans-Serif" font-size="10.00" fill="#000000">+ $operations</text>
<text text-anchor="start" x="8" y="-24.5" font-family="Helvetica,sans-Serif" font-size="10.00" fill="#000000">+ $tiers</text>
<polyline fill="none" stroke="#000000" points="0,-18.5 135.5068,-18.5 "/>
<text text-anchor="start" x="8" y="-6.5" font-family="Helvetica,sans-Serif" font-size="10.00" fill="#000000">+ __construct()</text>
</g>
<!-- Node3 -->
<g id="node2" class="node">
<title>Node3</title>
<g id="a_node2"><a xlink:href="class_google___service.html" target="_top" xlink:title="{Google_Service\n|+ $version\l+ $servicePath\l+ $resource\l|}">
<polygon fill="#ffffff" stroke="#000000" points="24.1772,-121.5 24.1772,-195.5 111.3296,-195.5 111.3296,-121.5 24.1772,-121.5"/>
<text text-anchor="middle" x="67.7534" y="-183.5" font-family="Helvetica,sans-Serif" font-size="10.00" fill="#000000">Google_Service</text>
<polyline fill="none" stroke="#000000" points="24.1772,-177.5 111.3296,-177.5 "/>
<text text-anchor="start" x="32.1772" y="-165.5" font-family="Helvetica,sans-Serif" font-size="10.00" fill="#000000">+ $version</text>
<text text-anchor="start" x="32.1772" y="-155.5" font-family="Helvetica,sans-Serif" font-size="10.00" fill="#000000">+ $servicePath</text>
<text text-anchor="start" x="32.1772" y="-145.5" font-family="Helvetica,sans-Serif" font-size="10.00" fill="#000000">+ $resource</text>
<polyline fill="none" stroke="#000000" points="24.1772,-139.5 111.3296,-139.5 "/>
<text text-anchor="middle" x="67.7534" y="-127.5" font-family="Helvetica,sans-Serif" font-size="10.00" fill="#000000"> </text>
</a>
</g>
</g>
<!-- Node3&#45;&gt;Node2 -->
<g id="edge1" class="edge">
<title>Node3&#45;&gt;Node2</title>
<path fill="none" stroke="#191970" d="M67.7534,-111.3716C67.7534,-102.5842 67.7534,-93.4515 67.7534,-84.8197"/>
<polygon fill="none" stroke="#191970" points="64.2535,-111.4779 67.7534,-121.4779 71.2535,-111.478 64.2535,-111.4779"/>
</g>
</g>
</svg>
