<?xml version="1.0" encoding="UTF-8" standalone="no"?>
<!DOCTYPE svg PUBLIC "-//W3C//DTD SVG 1.1//EN"
 "http://www.w3.org/Graphics/SVG/1.1/DTD/svg11.dtd">
<!-- Generated by graphviz version 2.40.1 (20161225.0304)
 -->
<!-- Title: Google_ActivityVisibilityServiceResource Pages: 1 -->
<svg width="138pt" height="214pt"
 viewBox="0.00 0.00 137.95 214.00" xmlns="http://www.w3.org/2000/svg" xmlns:xlink="http://www.w3.org/1999/xlink">
<g id="graph0" class="graph" transform="scale(1 1) rotate(0) translate(4 210)">
<title>Google_ActivityVisibilityServiceResource</title>
<polygon fill="#ffffff" stroke="transparent" points="-4,4 -4,-210 133.9502,-210 133.9502,4 -4,4"/>
<!-- Node2 -->
<g id="node1" class="node">
<title>Node2</title>
<polygon fill="#bfbfbf" stroke="#000000" points="4.2651,-.5 4.2651,-84.5 125.6851,-84.5 125.6851,-.5 4.2651,-.5"/>
<text text-anchor="start" x="12.2651" y="-72.5" font-family="Helvetica,sans-Serif" font-size="10.00" fill="#000000">Google_ActivityVisibility</text>
<text text-anchor="middle" x="64.9751" y="-62.5" font-family="Helvetica,sans-Serif" font-size="10.00" fill="#000000">ServiceResource</text>
<polyline fill="none" stroke="#000000" points="4.2651,-56.5 125.6851,-56.5 "/>
<text text-anchor="middle" x="64.9751" y="-44.5" font-family="Helvetica,sans-Serif" font-size="10.00" fill="#000000"> </text>
<polyline fill="none" stroke="#000000" points="4.2651,-38.5 125.6851,-38.5 "/>
<text text-anchor="start" x="12.2651" y="-26.5" font-family="Helvetica,sans-Serif" font-size="10.00" fill="#000000">+ get()</text>
<text text-anchor="start" x="12.2651" y="-16.5" font-family="Helvetica,sans-Serif" font-size="10.00" fill="#000000">+ patch()</text>
<text text-anchor="start" x="12.2651" y="-6.5" font-family="Helvetica,sans-Serif" font-size="10.00" fill="#000000">+ update()</text>
</g>
<!-- Node3 -->
<g id="node2" class="node">
<title>Node3</title>
<g id="a_node2"><a xlink:href="class_google___service_resource.html" target="_top" xlink:title="{Google_ServiceResource\n||+ __construct()\l+ __call()\l+ useObjects()\l# stripNull()\l}">
<polygon fill="#ffffff" stroke="#000000" points="0,-121.5 0,-205.5 129.9502,-205.5 129.9502,-121.5 0,-121.5"/>
<text text-anchor="middle" x="64.9751" y="-193.5" font-family="Helvetica,sans-Serif" font-size="10.00" fill="#000000">Google_ServiceResource</text>
<polyline fill="none" stroke="#000000" points="0,-187.5 129.9502,-187.5 "/>
<text text-anchor="middle" x="64.9751" y="-175.5" font-family="Helvetica,sans-Serif" font-size="10.00" fill="#000000"> </text>
<polyline fill="none" stroke="#000000" points="0,-169.5 129.9502,-169.5 "/>
<text text-anchor="start" x="8" y="-157.5" font-family="Helvetica,sans-Serif" font-size="10.00" fill="#000000">+ __construct()</text>
<text text-anchor="start" x="8" y="-147.5" font-family="Helvetica,sans-Serif" font-size="10.00" fill="#000000">+ __call()</text>
<text text-anchor="start" x="8" y="-137.5" font-family="Helvetica,sans-Serif" font-size="10.00" fill="#000000">+ useObjects()</text>
<text text-anchor="start" x="8" y="-127.5" font-family="Helvetica,sans-Serif" font-size="10.00" fill="#000000"># stripNull()</text>
</a>
</g>
</g>
<!-- Node3&#45;&gt;Node2 -->
<g id="edge1" class="edge">
<title>Node3&#45;&gt;Node2</title>
<path fill="none" stroke="#191970" d="M64.9751,-110.977C64.9751,-102.1562 64.9751,-93.1052 64.9751,-84.5917"/>
<polygon fill="none" stroke="#191970" points="61.4752,-111.18 64.9751,-121.1801 68.4752,-111.1801 61.4752,-111.18"/>
</g>
</g>
</svg>
