<?xml version="1.0" encoding="UTF-8" standalone="no"?>
<!DOCTYPE svg PUBLIC "-//W3C//DTD SVG 1.1//EN"
 "http://www.w3.org/Graphics/SVG/1.1/DTD/svg11.dtd">
<!-- Generated by graphviz version 2.40.1 (20161225.0304)
 -->
<!-- Title: Swift_ByteStream_FileByteStream Pages: 1 -->
<svg width="378pt" height="435pt"
 viewBox="0.00 0.00 377.60 435.00" xmlns="http://www.w3.org/2000/svg" xmlns:xlink="http://www.w3.org/1999/xlink">
<g id="graph0" class="graph" transform="scale(1 1) rotate(0) translate(4 431)">
<title>Swift_ByteStream_FileByteStream</title>
<polygon fill="#ffffff" stroke="transparent" points="-4,4 -4,-431 373.603,-431 373.603,4 -4,4"/>
<!-- Node0 -->
<g id="node1" class="node">
<title>Node0</title>
<polygon fill="#bfbfbf" stroke="#000000" points="171.2783,-.5 171.2783,-114.5 308.4355,-114.5 308.4355,-.5 171.2783,-.5"/>
<text text-anchor="start" x="179.2783" y="-102.5" font-family="Helvetica,sans-Serif" font-size="10.00" fill="#000000">Swift_ByteStream_FileByte</text>
<text text-anchor="middle" x="239.8569" y="-92.5" font-family="Helvetica,sans-Serif" font-size="10.00" fill="#000000">Stream</text>
<polyline fill="none" stroke="#000000" points="171.2783,-86.5 308.4355,-86.5 "/>
<text text-anchor="middle" x="239.8569" y="-74.5" font-family="Helvetica,sans-Serif" font-size="10.00" fill="#000000"> </text>
<polyline fill="none" stroke="#000000" points="171.2783,-68.5 308.4355,-68.5 "/>
<text text-anchor="start" x="179.2783" y="-56.5" font-family="Helvetica,sans-Serif" font-size="10.00" fill="#000000">+ __construct()</text>
<text text-anchor="start" x="179.2783" y="-46.5" font-family="Helvetica,sans-Serif" font-size="10.00" fill="#000000">+ getPath()</text>
<text text-anchor="start" x="179.2783" y="-36.5" font-family="Helvetica,sans-Serif" font-size="10.00" fill="#000000">+ read()</text>
<text text-anchor="start" x="179.2783" y="-26.5" font-family="Helvetica,sans-Serif" font-size="10.00" fill="#000000">+ setReadPointer()</text>
<text text-anchor="start" x="179.2783" y="-16.5" font-family="Helvetica,sans-Serif" font-size="10.00" fill="#000000"># _commit()</text>
<text text-anchor="start" x="179.2783" y="-6.5" font-family="Helvetica,sans-Serif" font-size="10.00" fill="#000000"># _flush()</text>
</g>
<!-- Node1 -->
<g id="node2" class="node">
<title>Node1</title>
<g id="a_node2"><a xlink:href="class_swift___byte_stream___abstract_filterable_input_stream.html" target="_top" xlink:title="{Swift_ByteStream_Abstract\lFilterableInputStream\n||+ addFilter()\l+ removeFilter()\l+ write()\l+ commit()\l+ bind()\l+ unbind()\l+ flushBuffers()\l# _commit()\l# _flush()\l}">
<polygon fill="#ffffff" stroke="#000000" points="105,-151.5 105,-295.5 242.7139,-295.5 242.7139,-151.5 105,-151.5"/>
<text text-anchor="start" x="113" y="-283.5" font-family="Helvetica,sans-Serif" font-size="10.00" fill="#000000">Swift_ByteStream_Abstract</text>
<text text-anchor="middle" x="173.8569" y="-273.5" font-family="Helvetica,sans-Serif" font-size="10.00" fill="#000000">FilterableInputStream</text>
<polyline fill="none" stroke="#000000" points="105,-267.5 242.7139,-267.5 "/>
<text text-anchor="middle" x="173.8569" y="-255.5" font-family="Helvetica,sans-Serif" font-size="10.00" fill="#000000"> </text>
<polyline fill="none" stroke="#000000" points="105,-249.5 242.7139,-249.5 "/>
<text text-anchor="start" x="113" y="-237.5" font-family="Helvetica,sans-Serif" font-size="10.00" fill="#000000">+ addFilter()</text>
<text text-anchor="start" x="113" y="-227.5" font-family="Helvetica,sans-Serif" font-size="10.00" fill="#000000">+ removeFilter()</text>
<text text-anchor="start" x="113" y="-217.5" font-family="Helvetica,sans-Serif" font-size="10.00" fill="#000000">+ write()</text>
<text text-anchor="start" x="113" y="-207.5" font-family="Helvetica,sans-Serif" font-size="10.00" fill="#000000">+ commit()</text>
<text text-anchor="start" x="113" y="-197.5" font-family="Helvetica,sans-Serif" font-size="10.00" fill="#000000">+ bind()</text>
<text text-anchor="start" x="113" y="-187.5" font-family="Helvetica,sans-Serif" font-size="10.00" fill="#000000">+ unbind()</text>
<text text-anchor="start" x="113" y="-177.5" font-family="Helvetica,sans-Serif" font-size="10.00" fill="#000000">+ flushBuffers()</text>
<text text-anchor="start" x="113" y="-167.5" font-family="Helvetica,sans-Serif" font-size="10.00" fill="#000000"># _commit()</text>
<text text-anchor="start" x="113" y="-157.5" font-family="Helvetica,sans-Serif" font-size="10.00" fill="#000000"># _flush()</text>
</a>
</g>
</g>
<!-- Node1&#45;&gt;Node0 -->
<g id="edge1" class="edge">
<title>Node1&#45;&gt;Node0</title>
<path fill="none" stroke="#191970" d="M206.3925,-141.6682C210.0284,-132.5232 213.6719,-123.3592 217.1464,-114.6205"/>
<polygon fill="none" stroke="#191970" points="203.0558,-140.5873 202.6135,-151.1729 209.5605,-143.1735 203.0558,-140.5873"/>
</g>
<!-- Node2 -->
<g id="node3" class="node">
<title>Node2</title>
<g id="a_node3"><a xlink:href="interface_swift___input_byte_stream.html" target="_top" xlink:title="{Swift_InputByteStream\n||+ write()\l+ commit()\l+ bind()\l+ unbind()\l+ flushBuffers()\l}">
<polygon fill="#ffffff" stroke="#000000" points="0,-332.5 0,-426.5 117.7139,-426.5 117.7139,-332.5 0,-332.5"/>
<text text-anchor="middle" x="58.8569" y="-414.5" font-family="Helvetica,sans-Serif" font-size="10.00" fill="#000000">Swift_InputByteStream</text>
<polyline fill="none" stroke="#000000" points="0,-408.5 117.7139,-408.5 "/>
<text text-anchor="middle" x="58.8569" y="-396.5" font-family="Helvetica,sans-Serif" font-size="10.00" fill="#000000"> </text>
<polyline fill="none" stroke="#000000" points="0,-390.5 117.7139,-390.5 "/>
<text text-anchor="start" x="8" y="-378.5" font-family="Helvetica,sans-Serif" font-size="10.00" fill="#000000">+ write()</text>
<text text-anchor="start" x="8" y="-368.5" font-family="Helvetica,sans-Serif" font-size="10.00" fill="#000000">+ commit()</text>
<text text-anchor="start" x="8" y="-358.5" font-family="Helvetica,sans-Serif" font-size="10.00" fill="#000000">+ bind()</text>
<text text-anchor="start" x="8" y="-348.5" font-family="Helvetica,sans-Serif" font-size="10.00" fill="#000000">+ unbind()</text>
<text text-anchor="start" x="8" y="-338.5" font-family="Helvetica,sans-Serif" font-size="10.00" fill="#000000">+ flushBuffers()</text>
</a>
</g>
</g>
<!-- Node2&#45;&gt;Node1 -->
<g id="edge2" class="edge">
<title>Node2&#45;&gt;Node1</title>
<path fill="none" stroke="#191970" d="M99.7876,-323.9767C106.5618,-314.7873 113.6714,-305.1429 120.6943,-295.6162"/>
<polygon fill="none" stroke="#191970" points="96.7893,-322.1454 93.6728,-332.2715 102.4238,-326.2991 96.7893,-322.1454"/>
</g>
<!-- Node3 -->
<g id="node4" class="node">
<title>Node3</title>
<g id="a_node4"><a xlink:href="interface_swift___filterable.html" target="_top" xlink:title="{Swift_Filterable\n||+ addFilter()\l+ removeFilter()\l}">
<polygon fill="#ffffff" stroke="#000000" points="135.4346,-347.5 135.4346,-411.5 222.2793,-411.5 222.2793,-347.5 135.4346,-347.5"/>
<text text-anchor="middle" x="178.8569" y="-399.5" font-family="Helvetica,sans-Serif" font-size="10.00" fill="#000000">Swift_Filterable</text>
<polyline fill="none" stroke="#000000" points="135.4346,-393.5 222.2793,-393.5 "/>
<text text-anchor="middle" x="178.8569" y="-381.5" font-family="Helvetica,sans-Serif" font-size="10.00" fill="#000000"> </text>
<polyline fill="none" stroke="#000000" points="135.4346,-375.5 222.2793,-375.5 "/>
<text text-anchor="start" x="143.4346" y="-363.5" font-family="Helvetica,sans-Serif" font-size="10.00" fill="#000000">+ addFilter()</text>
<text text-anchor="start" x="143.4346" y="-353.5" font-family="Helvetica,sans-Serif" font-size="10.00" fill="#000000">+ removeFilter()</text>
</a>
</g>
</g>
<!-- Node3&#45;&gt;Node1 -->
<g id="edge3" class="edge">
<title>Node3&#45;&gt;Node1</title>
<path fill="none" stroke="#191970" d="M177.4909,-336.8792C177.082,-324.1231 176.6218,-309.7654 176.1699,-295.6634"/>
<polygon fill="none" stroke="#191970" points="174.0023,-337.294 177.8209,-347.1767 180.9987,-337.0697 174.0023,-337.294"/>
</g>
<!-- Node4 -->
<g id="node5" class="node">
<title>Node4</title>
<g id="a_node5"><a xlink:href="interface_swift___file_stream.html" target="_top" xlink:title="{Swift_FileStream\n||+ getPath()\l}">
<polygon fill="#ffffff" stroke="#000000" points="261.0688,-196.5 261.0688,-250.5 352.645,-250.5 352.645,-196.5 261.0688,-196.5"/>
<text text-anchor="middle" x="306.8569" y="-238.5" font-family="Helvetica,sans-Serif" font-size="10.00" fill="#000000">Swift_FileStream</text>
<polyline fill="none" stroke="#000000" points="261.0688,-232.5 352.645,-232.5 "/>
<text text-anchor="middle" x="306.8569" y="-220.5" font-family="Helvetica,sans-Serif" font-size="10.00" fill="#000000"> </text>
<polyline fill="none" stroke="#000000" points="261.0688,-214.5 352.645,-214.5 "/>
<text text-anchor="start" x="269.0688" y="-202.5" font-family="Helvetica,sans-Serif" font-size="10.00" fill="#000000">+ getPath()</text>
</a>
</g>
</g>
<!-- Node4&#45;&gt;Node0 -->
<g id="edge4" class="edge">
<title>Node4&#45;&gt;Node0</title>
<path fill="none" stroke="#191970" d="M292.2,-187.1857C283.6527,-166.0089 272.68,-138.8228 262.9908,-114.8166"/>
<polygon fill="none" stroke="#191970" points="288.9547,-188.4966 295.9431,-196.4598 295.4459,-185.8766 288.9547,-188.4966"/>
</g>
<!-- Node5 -->
<g id="node6" class="node">
<title>Node5</title>
<g id="a_node6"><a xlink:href="interface_swift___output_byte_stream.html" target="_top" xlink:title="{Swift_OutputByteStream\n||+ read()\l+ setReadPointer()\l}">
<polygon fill="#ffffff" stroke="#000000" points="244.1108,-347.5 244.1108,-411.5 369.603,-411.5 369.603,-347.5 244.1108,-347.5"/>
<text text-anchor="middle" x="306.8569" y="-399.5" font-family="Helvetica,sans-Serif" font-size="10.00" fill="#000000">Swift_OutputByteStream</text>
<polyline fill="none" stroke="#000000" points="244.1108,-393.5 369.603,-393.5 "/>
<text text-anchor="middle" x="306.8569" y="-381.5" font-family="Helvetica,sans-Serif" font-size="10.00" fill="#000000"> </text>
<polyline fill="none" stroke="#000000" points="244.1108,-375.5 369.603,-375.5 "/>
<text text-anchor="start" x="252.1108" y="-363.5" font-family="Helvetica,sans-Serif" font-size="10.00" fill="#000000">+ read()</text>
<text text-anchor="start" x="252.1108" y="-353.5" font-family="Helvetica,sans-Serif" font-size="10.00" fill="#000000">+ setReadPointer()</text>
</a>
</g>
</g>
<!-- Node5&#45;&gt;Node4 -->
<g id="edge5" class="edge">
<title>Node5&#45;&gt;Node4</title>
<path fill="none" stroke="#191970" d="M306.8569,-337.0249C306.8569,-309.474 306.8569,-274.4037 306.8569,-250.584"/>
<polygon fill="none" stroke="#191970" points="303.357,-337.1767 306.8569,-347.1767 310.357,-337.1767 303.357,-337.1767"/>
</g>
</g>
</svg>
