<?xml version="1.0" encoding="UTF-8" standalone="no"?>
<!DOCTYPE svg PUBLIC "-//W3C//DTD SVG 1.1//EN"
 "http://www.w3.org/Graphics/SVG/1.1/DTD/svg11.dtd">
<!-- Generated by graphviz version 2.40.1 (20161225.0304)
 -->
<!-- Title: Swift_IoException Pages: 1 -->
<svg width="117pt" height="245pt"
 viewBox="0.00 0.00 116.82 245.00" xmlns="http://www.w3.org/2000/svg" xmlns:xlink="http://www.w3.org/1999/xlink">
<g id="graph0" class="graph" transform="scale(1 1) rotate(0) translate(4 241)">
<title>Swift_IoException</title>
<polygon fill="#ffffff" stroke="transparent" points="-4,4 -4,-241 112.8174,-241 112.8174,4 -4,4"/>
<!-- Node5 -->
<g id="node1" class="node">
<title>Node5</title>
<polygon fill="#bfbfbf" stroke="#000000" points="6.665,-.5 6.665,-54.5 102.1523,-54.5 102.1523,-.5 6.665,-.5"/>
<text text-anchor="middle" x="54.4087" y="-42.5" font-family="Helvetica,sans-Serif" font-size="10.00" fill="#000000">Swift_IoException</text>
<polyline fill="none" stroke="#000000" points="6.665,-36.5 102.1523,-36.5 "/>
<text text-anchor="middle" x="54.4087" y="-24.5" font-family="Helvetica,sans-Serif" font-size="10.00" fill="#000000"> </text>
<polyline fill="none" stroke="#000000" points="6.665,-18.5 102.1523,-18.5 "/>
<text text-anchor="start" x="14.665" y="-6.5" font-family="Helvetica,sans-Serif" font-size="10.00" fill="#000000">+ __construct()</text>
</g>
<!-- Node6 -->
<g id="node2" class="node">
<title>Node6</title>
<g id="a_node2"><a xlink:href="class_swift___swift_exception.html" target="_top" xlink:title="{Swift_SwiftException\n||+ __construct()\l}">
<polygon fill="#ffffff" stroke="#000000" points="0,-91.5 0,-145.5 108.8174,-145.5 108.8174,-91.5 0,-91.5"/>
<text text-anchor="middle" x="54.4087" y="-133.5" font-family="Helvetica,sans-Serif" font-size="10.00" fill="#000000">Swift_SwiftException</text>
<polyline fill="none" stroke="#000000" points="0,-127.5 108.8174,-127.5 "/>
<text text-anchor="middle" x="54.4087" y="-115.5" font-family="Helvetica,sans-Serif" font-size="10.00" fill="#000000"> </text>
<polyline fill="none" stroke="#000000" points="0,-109.5 108.8174,-109.5 "/>
<text text-anchor="start" x="8" y="-97.5" font-family="Helvetica,sans-Serif" font-size="10.00" fill="#000000">+ __construct()</text>
</a>
</g>
</g>
<!-- Node6&#45;&gt;Node5 -->
<g id="edge1" class="edge">
<title>Node6&#45;&gt;Node5</title>
<path fill="none" stroke="#191970" d="M54.4087,-81.12C54.4087,-72.3006 54.4087,-63.0605 54.4087,-54.7837"/>
<polygon fill="none" stroke="#191970" points="50.9088,-81.197 54.4087,-91.197 57.9088,-81.197 50.9088,-81.197"/>
</g>
<!-- Node7 -->
<g id="node3" class="node">
<title>Node7</title>
<polygon fill="#ffffff" stroke="#bfbfbf" points="24.4507,-182.5 24.4507,-236.5 84.3667,-236.5 84.3667,-182.5 24.4507,-182.5"/>
<text text-anchor="middle" x="54.4087" y="-224.5" font-family="Helvetica,sans-Serif" font-size="10.00" fill="#000000">Exception</text>
<polyline fill="none" stroke="#bfbfbf" points="24.4507,-218.5 84.3667,-218.5 "/>
<text text-anchor="middle" x="54.4087" y="-206.5" font-family="Helvetica,sans-Serif" font-size="10.00" fill="#000000"> </text>
<polyline fill="none" stroke="#bfbfbf" points="24.4507,-200.5 84.3667,-200.5 "/>
<text text-anchor="middle" x="54.4087" y="-188.5" font-family="Helvetica,sans-Serif" font-size="10.00" fill="#000000"> </text>
</g>
<!-- Node7&#45;&gt;Node6 -->
<g id="edge2" class="edge">
<title>Node7&#45;&gt;Node6</title>
<path fill="none" stroke="#191970" d="M54.4087,-172.12C54.4087,-163.3006 54.4087,-154.0605 54.4087,-145.7837"/>
<polygon fill="none" stroke="#191970" points="50.9088,-172.197 54.4087,-182.197 57.9088,-172.197 50.9088,-172.197"/>
</g>
</g>
</svg>
