<?xml version="1.0" encoding="UTF-8" standalone="no"?>
<!DOCTYPE svg PUBLIC "-//W3C//DTD SVG 1.1//EN"
 "http://www.w3.org/Graphics/SVG/1.1/DTD/svg11.dtd">
<!-- Generated by graphviz version 2.40.1 (20161225.0304)
 -->
<!-- Title: Swift_StreamFilters_StringReplacementFilterFactory Pages: 1 -->
<svg width="170pt" height="164pt"
 viewBox="0.00 0.00 170.17 164.00" xmlns="http://www.w3.org/2000/svg" xmlns:xlink="http://www.w3.org/1999/xlink">
<g id="graph0" class="graph" transform="scale(1 1) rotate(0) translate(4 160)">
<title>Swift_StreamFilters_StringReplacementFilterFactory</title>
<polygon fill="#ffffff" stroke="transparent" points="-4,4 -4,-160 166.167,-160 166.167,4 -4,4"/>
<!-- Node2 -->
<g id="node1" class="node">
<title>Node2</title>
<polygon fill="#bfbfbf" stroke="#000000" points="0,-.5 0,-64.5 162.167,-64.5 162.167,-.5 0,-.5"/>
<text text-anchor="start" x="8" y="-52.5" font-family="Helvetica,sans-Serif" font-size="10.00" fill="#000000">Swift_StreamFilters</text>
<text text-anchor="middle" x="81.0835" y="-42.5" font-family="Helvetica,sans-Serif" font-size="10.00" fill="#000000">_StringReplacementFilterFactory</text>
<polyline fill="none" stroke="#000000" points="0,-36.5 162.167,-36.5 "/>
<text text-anchor="middle" x="81.0835" y="-24.5" font-family="Helvetica,sans-Serif" font-size="10.00" fill="#000000"> </text>
<polyline fill="none" stroke="#000000" points="0,-18.5 162.167,-18.5 "/>
<text text-anchor="start" x="8" y="-6.5" font-family="Helvetica,sans-Serif" font-size="10.00" fill="#000000">+ createFilter()</text>
</g>
<!-- Node3 -->
<g id="node2" class="node">
<title>Node3</title>
<g id="a_node2"><a xlink:href="interface_swift___replacement_filter_factory.html" target="_top" xlink:title="{Swift_ReplacementFilterFactory\n||+ createFilter()\l}">
<polygon fill="#ffffff" stroke="#000000" points="2.2266,-101.5 2.2266,-155.5 159.9404,-155.5 159.9404,-101.5 2.2266,-101.5"/>
<text text-anchor="middle" x="81.0835" y="-143.5" font-family="Helvetica,sans-Serif" font-size="10.00" fill="#000000">Swift_ReplacementFilterFactory</text>
<polyline fill="none" stroke="#000000" points="2.2266,-137.5 159.9404,-137.5 "/>
<text text-anchor="middle" x="81.0835" y="-125.5" font-family="Helvetica,sans-Serif" font-size="10.00" fill="#000000"> </text>
<polyline fill="none" stroke="#000000" points="2.2266,-119.5 159.9404,-119.5 "/>
<text text-anchor="start" x="10.2266" y="-107.5" font-family="Helvetica,sans-Serif" font-size="10.00" fill="#000000">+ createFilter()</text>
</a>
</g>
</g>
<!-- Node3&#45;&gt;Node2 -->
<g id="edge1" class="edge">
<title>Node3&#45;&gt;Node2</title>
<path fill="none" stroke="#191970" d="M81.0835,-91.2276C81.0835,-82.4295 81.0835,-73.1248 81.0835,-64.5792"/>
<polygon fill="none" stroke="#191970" points="77.5836,-91.247 81.0835,-101.247 84.5836,-91.2471 77.5836,-91.247"/>
</g>
</g>
</svg>
