<?xml version="1.0" encoding="UTF-8" standalone="no"?>
<!DOCTYPE svg PUBLIC "-//W3C//DTD SVG 1.1//EN"
 "http://www.w3.org/Graphics/SVG/1.1/DTD/svg11.dtd">
<!-- Generated by graphviz version 2.40.1 (20161225.0304)
 -->
<!-- Title: EAuthRedirectWidget Pages: 1 -->
<svg width="120pt" height="174pt"
 viewBox="0.00 0.00 119.60 174.00" xmlns="http://www.w3.org/2000/svg" xmlns:xlink="http://www.w3.org/1999/xlink">
<g id="graph0" class="graph" transform="scale(1 1) rotate(0) translate(4 170)">
<title>EAuthRedirectWidget</title>
<polygon fill="#ffffff" stroke="transparent" points="-4,4 -4,-170 115.6006,-170 115.6006,4 -4,4"/>
<!-- Node2 -->
<g id="node1" class="node">
<title>Node2</title>
<polygon fill="#bfbfbf" stroke="#000000" points="0,-.5 0,-74.5 111.6006,-74.5 111.6006,-.5 0,-.5"/>
<text text-anchor="middle" x="55.8003" y="-62.5" font-family="Helvetica,sans-Serif" font-size="10.00" fill="#000000">EAuthRedirectWidget</text>
<polyline fill="none" stroke="#000000" points="0,-56.5 111.6006,-56.5 "/>
<text text-anchor="start" x="8" y="-44.5" font-family="Helvetica,sans-Serif" font-size="10.00" fill="#000000">+ $url</text>
<text text-anchor="start" x="8" y="-34.5" font-family="Helvetica,sans-Serif" font-size="10.00" fill="#000000">+ $redirect</text>
<text text-anchor="start" x="8" y="-24.5" font-family="Helvetica,sans-Serif" font-size="10.00" fill="#000000">+ $view</text>
<polyline fill="none" stroke="#000000" points="0,-18.5 111.6006,-18.5 "/>
<text text-anchor="start" x="8" y="-6.5" font-family="Helvetica,sans-Serif" font-size="10.00" fill="#000000">+ run()</text>
</g>
<!-- Node3 -->
<g id="node2" class="node">
<title>Node3</title>
<polygon fill="#ffffff" stroke="#bfbfbf" points="28.6279,-111.5 28.6279,-165.5 82.9727,-165.5 82.9727,-111.5 28.6279,-111.5"/>
<text text-anchor="middle" x="55.8003" y="-153.5" font-family="Helvetica,sans-Serif" font-size="10.00" fill="#000000">CWidget</text>
<polyline fill="none" stroke="#bfbfbf" points="28.6279,-147.5 82.9727,-147.5 "/>
<text text-anchor="middle" x="55.8003" y="-135.5" font-family="Helvetica,sans-Serif" font-size="10.00" fill="#000000"> </text>
<polyline fill="none" stroke="#bfbfbf" points="28.6279,-129.5 82.9727,-129.5 "/>
<text text-anchor="middle" x="55.8003" y="-117.5" font-family="Helvetica,sans-Serif" font-size="10.00" fill="#000000"> </text>
</g>
<!-- Node3&#45;&gt;Node2 -->
<g id="edge1" class="edge">
<title>Node3&#45;&gt;Node2</title>
<path fill="none" stroke="#191970" d="M55.8003,-101.1725C55.8003,-92.4692 55.8003,-83.2047 55.8003,-74.515"/>
<polygon fill="none" stroke="#191970" points="52.3004,-101.4338 55.8003,-111.4339 59.3004,-101.4339 52.3004,-101.4338"/>
</g>
</g>
</svg>
