<?xml version="1.0" encoding="UTF-8" standalone="no"?>
<!DOCTYPE svg PUBLIC "-//W3C//DTD SVG 1.1//EN"
 "http://www.w3.org/Graphics/SVG/1.1/DTD/svg11.dtd">
<!-- Generated by graphviz version 2.40.1 (20161225.0304)
 -->
<!-- Title: Google_BooksLayerDictDataDictWordsSensesConjugations Pages: 1 -->
<svg width="162pt" height="244pt"
 viewBox="0.00 0.00 161.67 244.00" xmlns="http://www.w3.org/2000/svg" xmlns:xlink="http://www.w3.org/1999/xlink">
<g id="graph0" class="graph" transform="scale(1 1) rotate(0) translate(4 240)">
<title>Google_BooksLayerDictDataDictWordsSensesConjugations</title>
<polygon fill="#ffffff" stroke="transparent" points="-4,4 -4,-240 157.666,-240 157.666,4 -4,4"/>
<!-- Node2 -->
<g id="node1" class="node">
<title>Node2</title>
<polygon fill="#bfbfbf" stroke="#000000" points="0,-.5 0,-104.5 153.666,-104.5 153.666,-.5 0,-.5"/>
<text text-anchor="start" x="8" y="-92.5" font-family="Helvetica,sans-Serif" font-size="10.00" fill="#000000">Google_BooksLayerDictData</text>
<text text-anchor="middle" x="76.833" y="-82.5" font-family="Helvetica,sans-Serif" font-size="10.00" fill="#000000">DictWordsSensesConjugations</text>
<polyline fill="none" stroke="#000000" points="0,-76.5 153.666,-76.5 "/>
<text text-anchor="start" x="8" y="-64.5" font-family="Helvetica,sans-Serif" font-size="10.00" fill="#000000">+ $type</text>
<text text-anchor="start" x="8" y="-54.5" font-family="Helvetica,sans-Serif" font-size="10.00" fill="#000000">+ $value</text>
<polyline fill="none" stroke="#000000" points="0,-48.5 153.666,-48.5 "/>
<text text-anchor="start" x="8" y="-36.5" font-family="Helvetica,sans-Serif" font-size="10.00" fill="#000000">+ setType()</text>
<text text-anchor="start" x="8" y="-26.5" font-family="Helvetica,sans-Serif" font-size="10.00" fill="#000000">+ getType()</text>
<text text-anchor="start" x="8" y="-16.5" font-family="Helvetica,sans-Serif" font-size="10.00" fill="#000000">+ setValue()</text>
<text text-anchor="start" x="8" y="-6.5" font-family="Helvetica,sans-Serif" font-size="10.00" fill="#000000">+ getValue()</text>
</g>
<!-- Node3 -->
<g id="node2" class="node">
<title>Node3</title>
<g id="a_node2"><a xlink:href="class_google___model.html" target="_top" xlink:title="{Google_Model\n||+ __construct()\l+ assertIsArray()\l# mapTypes()\l# isAssociativeArray()\l# useObjects()\l}">
<polygon fill="#ffffff" stroke="#000000" points="20.4883,-141.5 20.4883,-235.5 133.1777,-235.5 133.1777,-141.5 20.4883,-141.5"/>
<text text-anchor="middle" x="76.833" y="-223.5" font-family="Helvetica,sans-Serif" font-size="10.00" fill="#000000">Google_Model</text>
<polyline fill="none" stroke="#000000" points="20.4883,-217.5 133.1777,-217.5 "/>
<text text-anchor="middle" x="76.833" y="-205.5" font-family="Helvetica,sans-Serif" font-size="10.00" fill="#000000"> </text>
<polyline fill="none" stroke="#000000" points="20.4883,-199.5 133.1777,-199.5 "/>
<text text-anchor="start" x="28.4883" y="-187.5" font-family="Helvetica,sans-Serif" font-size="10.00" fill="#000000">+ __construct()</text>
<text text-anchor="start" x="28.4883" y="-177.5" font-family="Helvetica,sans-Serif" font-size="10.00" fill="#000000">+ assertIsArray()</text>
<text text-anchor="start" x="28.4883" y="-167.5" font-family="Helvetica,sans-Serif" font-size="10.00" fill="#000000"># mapTypes()</text>
<text text-anchor="start" x="28.4883" y="-157.5" font-family="Helvetica,sans-Serif" font-size="10.00" fill="#000000"># isAssociativeArray()</text>
<text text-anchor="start" x="28.4883" y="-147.5" font-family="Helvetica,sans-Serif" font-size="10.00" fill="#000000"># useObjects()</text>
</a>
</g>
</g>
<!-- Node3&#45;&gt;Node2 -->
<g id="edge1" class="edge">
<title>Node3&#45;&gt;Node2</title>
<path fill="none" stroke="#191970" d="M76.833,-131.1629C76.833,-122.3884 76.833,-113.3711 76.833,-104.715"/>
<polygon fill="none" stroke="#191970" points="73.3331,-131.3154 76.833,-141.3155 80.3331,-131.3155 73.3331,-131.3154"/>
</g>
</g>
</svg>
