<?xml version="1.0" encoding="UTF-8" standalone="no"?>
<!DOCTYPE svg PUBLIC "-//W3C//DTD SVG 1.1//EN"
 "http://www.w3.org/Graphics/SVG/1.1/DTD/svg11.dtd">
<!-- Generated by graphviz version 2.40.1 (20161225.0304)
 -->
<!-- Title: Google_Oauth2Service Pages: 1 -->
<svg width="128pt" height="184pt"
 viewBox="0.00 0.00 127.96 184.00" xmlns="http://www.w3.org/2000/svg" xmlns:xlink="http://www.w3.org/1999/xlink">
<g id="graph0" class="graph" transform="scale(1 1) rotate(0) translate(4 180)">
<title>Google_Oauth2Service</title>
<polygon fill="#ffffff" stroke="transparent" points="-4,4 -4,-180 123.9551,-180 123.9551,4 -4,4"/>
<!-- Node2 -->
<g id="node1" class="node">
<title>Node2</title>
<polygon fill="#bfbfbf" stroke="#000000" points="0,-.5 0,-64.5 119.9551,-64.5 119.9551,-.5 0,-.5"/>
<text text-anchor="middle" x="59.9775" y="-52.5" font-family="Helvetica,sans-Serif" font-size="10.00" fill="#000000">Google_Oauth2Service</text>
<polyline fill="none" stroke="#000000" points="0,-46.5 119.9551,-46.5 "/>
<text text-anchor="start" x="8" y="-34.5" font-family="Helvetica,sans-Serif" font-size="10.00" fill="#000000">+ $userinfo</text>
<text text-anchor="start" x="8" y="-24.5" font-family="Helvetica,sans-Serif" font-size="10.00" fill="#000000">+ $userinfo_v2_me</text>
<polyline fill="none" stroke="#000000" points="0,-18.5 119.9551,-18.5 "/>
<text text-anchor="start" x="8" y="-6.5" font-family="Helvetica,sans-Serif" font-size="10.00" fill="#000000">+ __construct()</text>
</g>
<!-- Node3 -->
<g id="node2" class="node">
<title>Node3</title>
<g id="a_node2"><a xlink:href="class_google___service.html" target="_top" xlink:title="{Google_Service\n|+ $version\l+ $servicePath\l+ $resource\l|}">
<polygon fill="#ffffff" stroke="#000000" points="16.4014,-101.5 16.4014,-175.5 103.5537,-175.5 103.5537,-101.5 16.4014,-101.5"/>
<text text-anchor="middle" x="59.9775" y="-163.5" font-family="Helvetica,sans-Serif" font-size="10.00" fill="#000000">Google_Service</text>
<polyline fill="none" stroke="#000000" points="16.4014,-157.5 103.5537,-157.5 "/>
<text text-anchor="start" x="24.4014" y="-145.5" font-family="Helvetica,sans-Serif" font-size="10.00" fill="#000000">+ $version</text>
<text text-anchor="start" x="24.4014" y="-135.5" font-family="Helvetica,sans-Serif" font-size="10.00" fill="#000000">+ $servicePath</text>
<text text-anchor="start" x="24.4014" y="-125.5" font-family="Helvetica,sans-Serif" font-size="10.00" fill="#000000">+ $resource</text>
<polyline fill="none" stroke="#000000" points="16.4014,-119.5 103.5537,-119.5 "/>
<text text-anchor="middle" x="59.9775" y="-107.5" font-family="Helvetica,sans-Serif" font-size="10.00" fill="#000000"> </text>
</a>
</g>
</g>
<!-- Node3&#45;&gt;Node2 -->
<g id="edge1" class="edge">
<title>Node3&#45;&gt;Node2</title>
<path fill="none" stroke="#191970" d="M59.9775,-91.4211C59.9775,-82.4227 59.9775,-73.1937 59.9775,-64.7893"/>
<polygon fill="none" stroke="#191970" points="56.4776,-91.4263 59.9775,-101.4263 63.4776,-91.4264 56.4776,-91.4263"/>
</g>
</g>
</svg>
