<?xml version="1.0" encoding="UTF-8" standalone="no"?>
<!DOCTYPE svg PUBLIC "-//W3C//DTD SVG 1.1//EN"
 "http://www.w3.org/Graphics/SVG/1.1/DTD/svg11.dtd">
<!-- Generated by graphviz version 2.40.1 (20161225.0304)
 -->
<!-- Title: HoleRequests Pages: 1 -->
<svg width="105pt" height="224pt"
 viewBox="0.00 0.00 104.88 224.00" xmlns="http://www.w3.org/2000/svg" xmlns:xlink="http://www.w3.org/1999/xlink">
<g id="graph0" class="graph" transform="scale(1 1) rotate(0) translate(4 220)">
<title>HoleRequests</title>
<polygon fill="#ffffff" stroke="transparent" points="-4,4 -4,-220 100.8789,-220 100.8789,4 -4,4"/>
<!-- Node2 -->
<g id="node1" class="node">
<title>Node2</title>
<polygon fill="#bfbfbf" stroke="#000000" points="0,-.5 0,-124.5 96.8789,-124.5 96.8789,-.5 0,-.5"/>
<text text-anchor="middle" x="48.4395" y="-112.5" font-family="Helvetica,sans-Serif" font-size="10.00" fill="#000000">HoleRequests</text>
<polyline fill="none" stroke="#000000" points="0,-106.5 96.8789,-106.5 "/>
<text text-anchor="middle" x="48.4395" y="-94.5" font-family="Helvetica,sans-Serif" font-size="10.00" fill="#000000"> </text>
<polyline fill="none" stroke="#000000" points="0,-88.5 96.8789,-88.5 "/>
<text text-anchor="start" x="8" y="-76.5" font-family="Helvetica,sans-Serif" font-size="10.00" fill="#000000">+ tableName()</text>
<text text-anchor="start" x="8" y="-66.5" font-family="Helvetica,sans-Serif" font-size="10.00" fill="#000000">+ rules()</text>
<text text-anchor="start" x="8" y="-56.5" font-family="Helvetica,sans-Serif" font-size="10.00" fill="#000000">+ relations()</text>
<text text-anchor="start" x="8" y="-46.5" font-family="Helvetica,sans-Serif" font-size="10.00" fill="#000000">+ attributeLabels()</text>
<text text-anchor="start" x="8" y="-36.5" font-family="Helvetica,sans-Serif" font-size="10.00" fill="#000000">+ beforeDelete()</text>
<text text-anchor="start" x="8" y="-26.5" font-family="Helvetica,sans-Serif" font-size="10.00" fill="#000000">+ afterDelete()</text>
<text text-anchor="start" x="8" y="-16.5" font-family="Helvetica,sans-Serif" font-size="10.00" fill="#000000">+ search()</text>
<text text-anchor="start" x="8" y="-6.5" font-family="Helvetica,sans-Serif" font-size="10.00" fill="#000000">+ model()</text>
</g>
<!-- Node3 -->
<g id="node2" class="node">
<title>Node3</title>
<polygon fill="#ffffff" stroke="#bfbfbf" points="7.0947,-161.5 7.0947,-215.5 89.7842,-215.5 89.7842,-161.5 7.0947,-161.5"/>
<text text-anchor="middle" x="48.4395" y="-203.5" font-family="Helvetica,sans-Serif" font-size="10.00" fill="#000000">CActiveRecord</text>
<polyline fill="none" stroke="#bfbfbf" points="7.0947,-197.5 89.7842,-197.5 "/>
<text text-anchor="middle" x="48.4395" y="-185.5" font-family="Helvetica,sans-Serif" font-size="10.00" fill="#000000"> </text>
<polyline fill="none" stroke="#bfbfbf" points="7.0947,-179.5 89.7842,-179.5 "/>
<text text-anchor="middle" x="48.4395" y="-167.5" font-family="Helvetica,sans-Serif" font-size="10.00" fill="#000000"> </text>
</g>
<!-- Node3&#45;&gt;Node2 -->
<g id="edge1" class="edge">
<title>Node3&#45;&gt;Node2</title>
<path fill="none" stroke="#191970" d="M48.4395,-151.3011C48.4395,-142.9169 48.4395,-133.7957 48.4395,-124.6969"/>
<polygon fill="none" stroke="#191970" points="44.9396,-151.4698 48.4395,-161.4698 51.9396,-151.4699 44.9396,-151.4698"/>
</g>
</g>
</svg>
