<?xml version="1.0" encoding="UTF-8" standalone="no"?>
<!DOCTYPE svg PUBLIC "-//W3C//DTD SVG 1.1//EN"
 "http://www.w3.org/Graphics/SVG/1.1/DTD/svg11.dtd">
<!-- Generated by graphviz version 2.40.1 (20161225.0304)
 -->
<!-- Title: Google_ActivityContentDetailsLike Pages: 1 -->
<svg width="177pt" height="224pt"
 viewBox="0.00 0.00 177.41 224.00" xmlns="http://www.w3.org/2000/svg" xmlns:xlink="http://www.w3.org/1999/xlink">
<g id="graph0" class="graph" transform="scale(1 1) rotate(0) translate(4 220)">
<title>Google_ActivityContentDetailsLike</title>
<polygon fill="#ffffff" stroke="transparent" points="-4,4 -4,-220 173.4131,-220 173.4131,4 -4,4"/>
<!-- Node0 -->
<g id="node1" class="node">
<title>Node0</title>
<polygon fill="#bfbfbf" stroke="#000000" points="0,-.5 0,-84.5 169.4131,-84.5 169.4131,-.5 0,-.5"/>
<text text-anchor="middle" x="84.7065" y="-72.5" font-family="Helvetica,sans-Serif" font-size="10.00" fill="#000000">Google_ActivityContentDetailsLike</text>
<polyline fill="none" stroke="#000000" points="0,-66.5 169.4131,-66.5 "/>
<text text-anchor="start" x="8" y="-54.5" font-family="Helvetica,sans-Serif" font-size="10.00" fill="#000000">+ $resourceId</text>
<text text-anchor="start" x="8" y="-44.5" font-family="Helvetica,sans-Serif" font-size="10.00" fill="#000000"># $__resourceIdType</text>
<text text-anchor="start" x="8" y="-34.5" font-family="Helvetica,sans-Serif" font-size="10.00" fill="#000000"># $__resourceIdDataType</text>
<polyline fill="none" stroke="#000000" points="0,-28.5 169.4131,-28.5 "/>
<text text-anchor="start" x="8" y="-16.5" font-family="Helvetica,sans-Serif" font-size="10.00" fill="#000000">+ setResourceId()</text>
<text text-anchor="start" x="8" y="-6.5" font-family="Helvetica,sans-Serif" font-size="10.00" fill="#000000">+ getResourceId()</text>
</g>
<!-- Node1 -->
<g id="node2" class="node">
<title>Node1</title>
<g id="a_node2"><a xlink:href="class_google___model.html" target="_top" xlink:title="{Google_Model\n||+ __construct()\l+ assertIsArray()\l# mapTypes()\l# isAssociativeArray()\l# useObjects()\l}">
<polygon fill="#ffffff" stroke="#000000" points="28.3618,-121.5 28.3618,-215.5 141.0513,-215.5 141.0513,-121.5 28.3618,-121.5"/>
<text text-anchor="middle" x="84.7065" y="-203.5" font-family="Helvetica,sans-Serif" font-size="10.00" fill="#000000">Google_Model</text>
<polyline fill="none" stroke="#000000" points="28.3618,-197.5 141.0513,-197.5 "/>
<text text-anchor="middle" x="84.7065" y="-185.5" font-family="Helvetica,sans-Serif" font-size="10.00" fill="#000000"> </text>
<polyline fill="none" stroke="#000000" points="28.3618,-179.5 141.0513,-179.5 "/>
<text text-anchor="start" x="36.3618" y="-167.5" font-family="Helvetica,sans-Serif" font-size="10.00" fill="#000000">+ __construct()</text>
<text text-anchor="start" x="36.3618" y="-157.5" font-family="Helvetica,sans-Serif" font-size="10.00" fill="#000000">+ assertIsArray()</text>
<text text-anchor="start" x="36.3618" y="-147.5" font-family="Helvetica,sans-Serif" font-size="10.00" fill="#000000"># mapTypes()</text>
<text text-anchor="start" x="36.3618" y="-137.5" font-family="Helvetica,sans-Serif" font-size="10.00" fill="#000000"># isAssociativeArray()</text>
<text text-anchor="start" x="36.3618" y="-127.5" font-family="Helvetica,sans-Serif" font-size="10.00" fill="#000000"># useObjects()</text>
</a>
</g>
</g>
<!-- Node1&#45;&gt;Node0 -->
<g id="edge1" class="edge">
<title>Node1&#45;&gt;Node0</title>
<path fill="none" stroke="#191970" d="M84.7065,-110.9387C84.7065,-102.0848 84.7065,-93.0866 84.7065,-84.6505"/>
<polygon fill="none" stroke="#191970" points="81.2066,-111.2237 84.7065,-121.2238 88.2066,-111.2238 81.2066,-111.2237"/>
</g>
</g>
</svg>
