<?xml version="1.0" encoding="UTF-8" standalone="no"?>
<!DOCTYPE svg PUBLIC "-//W3C//DTD SVG 1.1//EN"
 "http://www.w3.org/Graphics/SVG/1.1/DTD/svg11.dtd">
<!-- Generated by graphviz version 2.40.1 (20161225.0304)
 -->
<!-- Title: CKFinder_Connector_CommandHandler_XmlCommandHandlerBase Pages: 1 -->
<svg width="2317pt" height="505pt"
 viewBox="0.00 0.00 2316.57 505.00" xmlns="http://www.w3.org/2000/svg" xmlns:xlink="http://www.w3.org/1999/xlink">
<g id="graph0" class="graph" transform="scale(1 1) rotate(0) translate(4 501)">
<title>CKFinder_Connector_CommandHandler_XmlCommandHandlerBase</title>
<polygon fill="#ffffff" stroke="transparent" points="-4,4 -4,-501 2312.5708,-501 2312.5708,4 -4,4"/>
<!-- Node0 -->
<g id="node1" class="node">
<title>Node0</title>
<polygon fill="#bfbfbf" stroke="#000000" points="1039.5542,-151.5 1039.5542,-295.5 1211.1743,-295.5 1211.1743,-151.5 1039.5542,-151.5"/>
<text text-anchor="start" x="1047.5542" y="-283.5" font-family="Helvetica,sans-Serif" font-size="10.00" fill="#000000">CKFinder_Connector</text>
<text text-anchor="start" x="1047.5542" y="-273.5" font-family="Helvetica,sans-Serif" font-size="10.00" fill="#000000">_CommandHandler_XmlCommand</text>
<text text-anchor="middle" x="1125.3643" y="-263.5" font-family="Helvetica,sans-Serif" font-size="10.00" fill="#000000">HandlerBase</text>
<polyline fill="none" stroke="#000000" points="1039.5542,-257.5 1211.1743,-257.5 "/>
<text text-anchor="start" x="1047.5542" y="-245.5" font-family="Helvetica,sans-Serif" font-size="10.00" fill="#000000">+ $_connectorNode</text>
<polyline fill="none" stroke="#000000" points="1039.5542,-239.5 1211.1743,-239.5 "/>
<text text-anchor="start" x="1047.5542" y="-227.5" font-family="Helvetica,sans-Serif" font-size="10.00" fill="#000000">+ sendResponse()</text>
<text text-anchor="start" x="1047.5542" y="-217.5" font-family="Helvetica,sans-Serif" font-size="10.00" fill="#000000">+ mustCheckRequest()</text>
<text text-anchor="start" x="1047.5542" y="-207.5" font-family="Helvetica,sans-Serif" font-size="10.00" fill="#000000">+ mustAddCurrentFolderNode()</text>
<text text-anchor="start" x="1047.5542" y="-197.5" font-family="Helvetica,sans-Serif" font-size="10.00" fill="#000000">+ buildXml()</text>
<text text-anchor="start" x="1047.5542" y="-187.5" font-family="Helvetica,sans-Serif" font-size="10.00" fill="#000000">+ sendResponse()</text>
<text text-anchor="start" x="1047.5542" y="-177.5" font-family="Helvetica,sans-Serif" font-size="10.00" fill="#000000"># mustCheckRequest()</text>
<text text-anchor="start" x="1047.5542" y="-167.5" font-family="Helvetica,sans-Serif" font-size="10.00" fill="#000000"># mustAddCurrentFolderNode()</text>
<text text-anchor="start" x="1047.5542" y="-157.5" font-family="Helvetica,sans-Serif" font-size="10.00" fill="#000000"># buildXml()</text>
</g>
<!-- Node2 -->
<g id="node3" class="node">
<title>Node2</title>
<g id="a_node3"><a xlink:href="class_c_k_finder___connector___command_handler___copy_files.html" target="_top" xlink:title="{CKFinder_Connector\l_CommandHandler_CopyFiles\n|+ $command\l|+ buildXml()\l+ appendErrorNode()\l# buildXml()\l}">
<polygon fill="#ffffff" stroke="#000000" points="0,-15.5 0,-99.5 152.7285,-99.5 152.7285,-15.5 0,-15.5"/>
<text text-anchor="start" x="8" y="-87.5" font-family="Helvetica,sans-Serif" font-size="10.00" fill="#000000">CKFinder_Connector</text>
<text text-anchor="middle" x="76.3643" y="-77.5" font-family="Helvetica,sans-Serif" font-size="10.00" fill="#000000">_CommandHandler_CopyFiles</text>
<polyline fill="none" stroke="#000000" points="0,-71.5 152.7285,-71.5 "/>
<text text-anchor="start" x="8" y="-59.5" font-family="Helvetica,sans-Serif" font-size="10.00" fill="#000000">+ $command</text>
<polyline fill="none" stroke="#000000" points="0,-53.5 152.7285,-53.5 "/>
<text text-anchor="start" x="8" y="-41.5" font-family="Helvetica,sans-Serif" font-size="10.00" fill="#000000">+ buildXml()</text>
<text text-anchor="start" x="8" y="-31.5" font-family="Helvetica,sans-Serif" font-size="10.00" fill="#000000">+ appendErrorNode()</text>
<text text-anchor="start" x="8" y="-21.5" font-family="Helvetica,sans-Serif" font-size="10.00" fill="#000000"># buildXml()</text>
</a>
</g>
</g>
<!-- Node0&#45;&gt;Node2 -->
<g id="edge3" class="edge">
<title>Node0&#45;&gt;Node2</title>
<path fill="none" stroke="#191970" d="M1029.1093,-218.7092C816.2813,-206.9213 312.3167,-173.1608 153.3643,-115 142.7382,-111.1119 132.1338,-105.6552 122.3181,-99.6373"/>
<polygon fill="none" stroke="#191970" points="1029.1518,-222.2167 1039.3288,-219.2706 1029.5359,-215.2272 1029.1518,-222.2167"/>
</g>
<!-- Node0&#45;&gt;Node2 -->
<g id="edge4" class="edge">
<title>Node0&#45;&gt;Node2</title>
<path fill="none" stroke="#191970" d="M1029.1967,-218.1762C819.5693,-205.9255 327.9849,-172.3076 171.3643,-115 160.7382,-111.1119 150.1338,-105.6552 140.0499,-99.6373"/>
<polygon fill="none" stroke="#191970" points="1029.0803,-221.6752 1039.2664,-218.7609 1029.4862,-214.687 1029.0803,-221.6752"/>
</g>
<!-- Node3 -->
<g id="node4" class="node">
<title>Node3</title>
<g id="a_node4"><a xlink:href="class_c_k_finder___connector___command_handler___create_folder.html" target="_top" xlink:title="{CKFinder_Connector\l_CommandHandler_CreateFolder\n|+ $command\l|+ buildXml()\l# buildXml()\l}">
<polygon fill="#ffffff" stroke="#000000" points="171.0493,-20.5 171.0493,-94.5 337.6792,-94.5 337.6792,-20.5 171.0493,-20.5"/>
<text text-anchor="start" x="179.0493" y="-82.5" font-family="Helvetica,sans-Serif" font-size="10.00" fill="#000000">CKFinder_Connector</text>
<text text-anchor="middle" x="254.3643" y="-72.5" font-family="Helvetica,sans-Serif" font-size="10.00" fill="#000000">_CommandHandler_CreateFolder</text>
<polyline fill="none" stroke="#000000" points="171.0493,-66.5 337.6792,-66.5 "/>
<text text-anchor="start" x="179.0493" y="-54.5" font-family="Helvetica,sans-Serif" font-size="10.00" fill="#000000">+ $command</text>
<polyline fill="none" stroke="#000000" points="171.0493,-48.5 337.6792,-48.5 "/>
<text text-anchor="start" x="179.0493" y="-36.5" font-family="Helvetica,sans-Serif" font-size="10.00" fill="#000000">+ buildXml()</text>
<text text-anchor="start" x="179.0493" y="-26.5" font-family="Helvetica,sans-Serif" font-size="10.00" fill="#000000"># buildXml()</text>
</a>
</g>
</g>
<!-- Node0&#45;&gt;Node3 -->
<g id="edge5" class="edge">
<title>Node0&#45;&gt;Node3</title>
<path fill="none" stroke="#191970" d="M1029.1911,-215.6227C847.7737,-199.4967 462.2998,-160.3921 337.3643,-115 323.3789,-109.9188 309.264,-102.4979 296.6957,-94.6653"/>
<polygon fill="none" stroke="#191970" points="1028.9891,-219.1184 1039.2585,-216.5126 1029.6055,-212.1456 1028.9891,-219.1184"/>
</g>
<!-- Node0&#45;&gt;Node3 -->
<g id="edge6" class="edge">
<title>Node0&#45;&gt;Node3</title>
<path fill="none" stroke="#191970" d="M1029.2869,-214.6909C851.401,-198.0271 477.9558,-159.5404 355.3643,-115 341.3789,-109.9188 327.264,-102.4979 314.1668,-94.6653"/>
<polygon fill="none" stroke="#191970" points="1029.1403,-218.1924 1039.4223,-215.6366 1029.7907,-211.2226 1029.1403,-218.1924"/>
</g>
<!-- Node4 -->
<g id="node5" class="node">
<title>Node4</title>
<g id="a_node5"><a xlink:href="class_c_k_finder___connector___command_handler___delete_file.html" target="_top" xlink:title="{CKFinder_Connector\l_CommandHandler_DeleteFile\n|+ $command\l|+ buildXml()\l# buildXml()\l}">
<polygon fill="#ffffff" stroke="#000000" points="355.7192,-20.5 355.7192,-94.5 509.0093,-94.5 509.0093,-20.5 355.7192,-20.5"/>
<text text-anchor="start" x="363.7192" y="-82.5" font-family="Helvetica,sans-Serif" font-size="10.00" fill="#000000">CKFinder_Connector</text>
<text text-anchor="middle" x="432.3643" y="-72.5" font-family="Helvetica,sans-Serif" font-size="10.00" fill="#000000">_CommandHandler_DeleteFile</text>
<polyline fill="none" stroke="#000000" points="355.7192,-66.5 509.0093,-66.5 "/>
<text text-anchor="start" x="363.7192" y="-54.5" font-family="Helvetica,sans-Serif" font-size="10.00" fill="#000000">+ $command</text>
<polyline fill="none" stroke="#000000" points="355.7192,-48.5 509.0093,-48.5 "/>
<text text-anchor="start" x="363.7192" y="-36.5" font-family="Helvetica,sans-Serif" font-size="10.00" fill="#000000">+ buildXml()</text>
<text text-anchor="start" x="363.7192" y="-26.5" font-family="Helvetica,sans-Serif" font-size="10.00" fill="#000000"># buildXml()</text>
</a>
</g>
</g>
<!-- Node0&#45;&gt;Node4 -->
<g id="edge7" class="edge">
<title>Node0&#45;&gt;Node4</title>
<path fill="none" stroke="#191970" d="M1029.0904,-219.1055C904.536,-210.5987 683.0238,-185.9136 508.3643,-115 495.4883,-109.7722 482.5678,-102.3922 471.0796,-94.6567"/>
<polygon fill="none" stroke="#191970" points="1029.1526,-222.6172 1039.3619,-219.7853 1029.6149,-215.6325 1029.1526,-222.6172"/>
</g>
<!-- Node0&#45;&gt;Node4 -->
<g id="edge8" class="edge">
<title>Node0&#45;&gt;Node4</title>
<path fill="none" stroke="#191970" d="M1029.363,-218.2237C908.1857,-208.9452 695.3467,-183.6087 526.3643,-115 513.4883,-109.7722 500.5678,-102.3922 488.5705,-94.6567"/>
<polygon fill="none" stroke="#191970" points="1029.1299,-221.716 1039.3624,-218.9688 1029.6501,-214.7353 1029.1299,-221.716"/>
</g>
<!-- Node5 -->
<g id="node6" class="node">
<title>Node5</title>
<g id="a_node6"><a xlink:href="class_c_k_finder___connector___command_handler___delete_folder.html" target="_top" xlink:title="{CKFinder_Connector\l_CommandHandler_DeleteFolder\n|+ $command\l|+ buildXml()\l# buildXml()\l}">
<polygon fill="#ffffff" stroke="#000000" points="526.6035,-20.5 526.6035,-94.5 692.125,-94.5 692.125,-20.5 526.6035,-20.5"/>
<text text-anchor="start" x="534.6035" y="-82.5" font-family="Helvetica,sans-Serif" font-size="10.00" fill="#000000">CKFinder_Connector</text>
<text text-anchor="middle" x="609.3643" y="-72.5" font-family="Helvetica,sans-Serif" font-size="10.00" fill="#000000">_CommandHandler_DeleteFolder</text>
<polyline fill="none" stroke="#000000" points="526.6035,-66.5 692.125,-66.5 "/>
<text text-anchor="start" x="534.6035" y="-54.5" font-family="Helvetica,sans-Serif" font-size="10.00" fill="#000000">+ $command</text>
<polyline fill="none" stroke="#000000" points="526.6035,-48.5 692.125,-48.5 "/>
<text text-anchor="start" x="534.6035" y="-36.5" font-family="Helvetica,sans-Serif" font-size="10.00" fill="#000000">+ buildXml()</text>
<text text-anchor="start" x="534.6035" y="-26.5" font-family="Helvetica,sans-Serif" font-size="10.00" fill="#000000"># buildXml()</text>
</a>
</g>
</g>
<!-- Node0&#45;&gt;Node5 -->
<g id="edge9" class="edge">
<title>Node0&#45;&gt;Node5</title>
<path fill="none" stroke="#191970" d="M1029.5214,-208.9926C939.7397,-192.814 803.283,-162.493 692.3643,-115 679.3782,-109.4396 666.1047,-102.202 654.0532,-94.7472"/>
<polygon fill="none" stroke="#191970" points="1028.9594,-212.4475 1039.4178,-210.7526 1030.1852,-205.5556 1028.9594,-212.4475"/>
</g>
<!-- Node0&#45;&gt;Node5 -->
<g id="edge10" class="edge">
<title>Node0&#45;&gt;Node5</title>
<path fill="none" stroke="#191970" d="M1029.4866,-206.3536C943.6171,-189.6142 815.5152,-160.0234 710.3643,-115 697.2916,-109.4026 683.9277,-102.1055 671.3506,-94.5981"/>
<polygon fill="none" stroke="#191970" points="1029.0017,-209.8245 1039.4836,-208.2816 1030.3274,-202.9511 1029.0017,-209.8245"/>
</g>
<!-- Node6 -->
<g id="node7" class="node">
<title>Node6</title>
<g id="a_node7"><a xlink:href="class_c_k_finder___connector___command_handler___file_editor.html" target="_top" xlink:title="{CKFinder_Connector\l_CommandHandler_FileEditor\n||+ buildXml()\l+ onBeforeExecuteCommand()\l}">
<polygon fill="#ffffff" stroke="#000000" points="710.3018,-20.5 710.3018,-94.5 864.4268,-94.5 864.4268,-20.5 710.3018,-20.5"/>
<text text-anchor="start" x="718.3018" y="-82.5" font-family="Helvetica,sans-Serif" font-size="10.00" fill="#000000">CKFinder_Connector</text>
<text text-anchor="middle" x="787.3643" y="-72.5" font-family="Helvetica,sans-Serif" font-size="10.00" fill="#000000">_CommandHandler_FileEditor</text>
<polyline fill="none" stroke="#000000" points="710.3018,-66.5 864.4268,-66.5 "/>
<text text-anchor="middle" x="787.3643" y="-54.5" font-family="Helvetica,sans-Serif" font-size="10.00" fill="#000000"> </text>
<polyline fill="none" stroke="#000000" points="710.3018,-48.5 864.4268,-48.5 "/>
<text text-anchor="start" x="718.3018" y="-36.5" font-family="Helvetica,sans-Serif" font-size="10.00" fill="#000000">+ buildXml()</text>
<text text-anchor="start" x="718.3018" y="-26.5" font-family="Helvetica,sans-Serif" font-size="10.00" fill="#000000">+ onBeforeExecuteCommand()</text>
</a>
</g>
</g>
<!-- Node0&#45;&gt;Node6 -->
<g id="edge11" class="edge">
<title>Node0&#45;&gt;Node6</title>
<path fill="none" stroke="#191970" d="M1030.0857,-187.2859C982.092,-167.8477 923.5823,-142.301 873.3643,-115 862.161,-108.9093 850.5569,-101.7742 839.6362,-94.6425"/>
<polygon fill="none" stroke="#191970" points="1028.9551,-190.6037 1039.5387,-191.0908 1031.5689,-184.1099 1028.9551,-190.6037"/>
</g>
<!-- Node7 -->
<g id="node8" class="node">
<title>Node7</title>
<g id="a_node8"><a xlink:href="class_c_k_finder___connector___command_handler___get_files.html" target="_top" xlink:title="{CKFinder_Connector\l_CommandHandler_GetFiles\n|+ $command\l|+ buildXml()\l# buildXml()\l}">
<polygon fill="#ffffff" stroke="#000000" points="882.6133,-20.5 882.6133,-94.5 1028.1152,-94.5 1028.1152,-20.5 882.6133,-20.5"/>
<text text-anchor="start" x="890.6133" y="-82.5" font-family="Helvetica,sans-Serif" font-size="10.00" fill="#000000">CKFinder_Connector</text>
<text text-anchor="middle" x="955.3643" y="-72.5" font-family="Helvetica,sans-Serif" font-size="10.00" fill="#000000">_CommandHandler_GetFiles</text>
<polyline fill="none" stroke="#000000" points="882.6133,-66.5 1028.1152,-66.5 "/>
<text text-anchor="start" x="890.6133" y="-54.5" font-family="Helvetica,sans-Serif" font-size="10.00" fill="#000000">+ $command</text>
<polyline fill="none" stroke="#000000" points="882.6133,-48.5 1028.1152,-48.5 "/>
<text text-anchor="start" x="890.6133" y="-36.5" font-family="Helvetica,sans-Serif" font-size="10.00" fill="#000000">+ buildXml()</text>
<text text-anchor="start" x="890.6133" y="-26.5" font-family="Helvetica,sans-Serif" font-size="10.00" fill="#000000"># buildXml()</text>
</a>
</g>
</g>
<!-- Node0&#45;&gt;Node7 -->
<g id="edge12" class="edge">
<title>Node0&#45;&gt;Node7</title>
<path fill="none" stroke="#191970" d="M1037.0711,-143.8707C1019.5238,-126.7853 1002.1631,-109.5091 987.9611,-94.9444"/>
<polygon fill="none" stroke="#191970" points="1034.9808,-146.7194 1044.5942,-151.1729 1039.8563,-141.6964 1034.9808,-146.7194"/>
</g>
<!-- Node0&#45;&gt;Node7 -->
<g id="edge13" class="edge">
<title>Node0&#45;&gt;Node7</title>
<path fill="none" stroke="#191970" d="M1050.5612,-143.8707C1033.1143,-126.7853 1015.0902,-109.5091 999.4609,-94.9444"/>
<polygon fill="none" stroke="#191970" points="1048.408,-146.6617 1057.9945,-151.1729 1053.3135,-141.6682 1048.408,-146.6617"/>
</g>
<!-- Node8 -->
<g id="node9" class="node">
<title>Node8</title>
<g id="a_node9"><a xlink:href="class_c_k_finder___connector___command_handler___get_folders.html" target="_top" xlink:title="{CKFinder_Connector\l_CommandHandler_GetFolders\n|+ $command\l|+ buildXml()\l# buildXml()\l}">
<polygon fill="#ffffff" stroke="#000000" points="1046.4976,-20.5 1046.4976,-94.5 1204.231,-94.5 1204.231,-20.5 1046.4976,-20.5"/>
<text text-anchor="start" x="1054.4976" y="-82.5" font-family="Helvetica,sans-Serif" font-size="10.00" fill="#000000">CKFinder_Connector</text>
<text text-anchor="middle" x="1125.3643" y="-72.5" font-family="Helvetica,sans-Serif" font-size="10.00" fill="#000000">_CommandHandler_GetFolders</text>
<polyline fill="none" stroke="#000000" points="1046.4976,-66.5 1204.231,-66.5 "/>
<text text-anchor="start" x="1054.4976" y="-54.5" font-family="Helvetica,sans-Serif" font-size="10.00" fill="#000000">+ $command</text>
<polyline fill="none" stroke="#000000" points="1046.4976,-48.5 1204.231,-48.5 "/>
<text text-anchor="start" x="1054.4976" y="-36.5" font-family="Helvetica,sans-Serif" font-size="10.00" fill="#000000">+ buildXml()</text>
<text text-anchor="start" x="1054.4976" y="-26.5" font-family="Helvetica,sans-Serif" font-size="10.00" fill="#000000"># buildXml()</text>
</a>
</g>
</g>
<!-- Node0&#45;&gt;Node8 -->
<g id="edge14" class="edge">
<title>Node0&#45;&gt;Node8</title>
<path fill="none" stroke="#191970" d="M1118.6144,-141.1236C1118.6056,-124.9421 1118.9389,-108.7289 1119.6144,-94.9444"/>
<polygon fill="none" stroke="#191970" points="1115.1146,-141.1903 1118.6641,-151.1729 1122.1145,-141.1557 1115.1146,-141.1903"/>
</g>
<!-- Node0&#45;&gt;Node8 -->
<g id="edge15" class="edge">
<title>Node0&#45;&gt;Node8</title>
<path fill="none" stroke="#191970" d="M1132.1141,-141.1236C1132.1229,-124.9421 1131.7896,-108.7289 1131.1142,-94.9444"/>
<polygon fill="none" stroke="#191970" points="1128.614,-141.1557 1132.0644,-151.1729 1135.6139,-141.1903 1128.614,-141.1557"/>
</g>
<!-- Node9 -->
<g id="node10" class="node">
<title>Node9</title>
<g id="a_node10"><a xlink:href="class_c_k_finder___connector___command_handler___image_resize.html" target="_top" xlink:title="{CKFinder_Connector\l_CommandHandler_ImageResize\n||+ getConfig()\l+ buildXml()\l+ onInitCommand()\l+ onBeforeExecuteCommand()\l}">
<polygon fill="#ffffff" stroke="#000000" points="1222.0493,-10.5 1222.0493,-104.5 1388.6792,-104.5 1388.6792,-10.5 1222.0493,-10.5"/>
<text text-anchor="start" x="1230.0493" y="-92.5" font-family="Helvetica,sans-Serif" font-size="10.00" fill="#000000">CKFinder_Connector</text>
<text text-anchor="middle" x="1305.3643" y="-82.5" font-family="Helvetica,sans-Serif" font-size="10.00" fill="#000000">_CommandHandler_ImageResize</text>
<polyline fill="none" stroke="#000000" points="1222.0493,-76.5 1388.6792,-76.5 "/>
<text text-anchor="middle" x="1305.3643" y="-64.5" font-family="Helvetica,sans-Serif" font-size="10.00" fill="#000000"> </text>
<polyline fill="none" stroke="#000000" points="1222.0493,-58.5 1388.6792,-58.5 "/>
<text text-anchor="start" x="1230.0493" y="-46.5" font-family="Helvetica,sans-Serif" font-size="10.00" fill="#000000">+ getConfig()</text>
<text text-anchor="start" x="1230.0493" y="-36.5" font-family="Helvetica,sans-Serif" font-size="10.00" fill="#000000">+ buildXml()</text>
<text text-anchor="start" x="1230.0493" y="-26.5" font-family="Helvetica,sans-Serif" font-size="10.00" fill="#000000">+ onInitCommand()</text>
<text text-anchor="start" x="1230.0493" y="-16.5" font-family="Helvetica,sans-Serif" font-size="10.00" fill="#000000">+ onBeforeExecuteCommand()</text>
</a>
</g>
</g>
<!-- Node0&#45;&gt;Node9 -->
<g id="edge16" class="edge">
<title>Node0&#45;&gt;Node9</title>
<path fill="none" stroke="#191970" d="M1211.2071,-144.3338C1225.9306,-130.7555 1240.8027,-117.0401 1254.2429,-104.6453"/>
<polygon fill="none" stroke="#191970" points="1208.508,-142.0619 1203.5296,-151.4142 1213.2536,-147.2077 1208.508,-142.0619"/>
</g>
<!-- Node10 -->
<g id="node11" class="node">
<title>Node10</title>
<g id="a_node11"><a xlink:href="class_c_k_finder___connector___command_handler___image_resize_info.html" target="_top" xlink:title="{CKFinder_Connector\l_CommandHandler_ImageResizeInfo\n||+ buildXml()\l+ onBeforeExecuteCommand()\l}">
<polygon fill="#ffffff" stroke="#000000" points="1406.7095,-20.5 1406.7095,-94.5 1590.019,-94.5 1590.019,-20.5 1406.7095,-20.5"/>
<text text-anchor="start" x="1414.7095" y="-82.5" font-family="Helvetica,sans-Serif" font-size="10.00" fill="#000000">CKFinder_Connector</text>
<text text-anchor="middle" x="1498.3643" y="-72.5" font-family="Helvetica,sans-Serif" font-size="10.00" fill="#000000">_CommandHandler_ImageResizeInfo</text>
<polyline fill="none" stroke="#000000" points="1406.7095,-66.5 1590.019,-66.5 "/>
<text text-anchor="middle" x="1498.3643" y="-54.5" font-family="Helvetica,sans-Serif" font-size="10.00" fill="#000000"> </text>
<polyline fill="none" stroke="#000000" points="1406.7095,-48.5 1590.019,-48.5 "/>
<text text-anchor="start" x="1414.7095" y="-36.5" font-family="Helvetica,sans-Serif" font-size="10.00" fill="#000000">+ buildXml()</text>
<text text-anchor="start" x="1414.7095" y="-26.5" font-family="Helvetica,sans-Serif" font-size="10.00" fill="#000000">+ onBeforeExecuteCommand()</text>
</a>
</g>
</g>
<!-- Node0&#45;&gt;Node10 -->
<g id="edge17" class="edge">
<title>Node0&#45;&gt;Node10</title>
<path fill="none" stroke="#191970" d="M1220.5694,-189.2158C1273.4137,-169.2717 1339.8863,-142.6623 1397.3643,-115 1410.182,-108.8312 1423.5998,-101.6993 1436.3151,-94.6025"/>
<polygon fill="none" stroke="#191970" points="1219.3332,-185.9413 1211.2032,-192.7349 1221.7953,-192.494 1219.3332,-185.9413"/>
</g>
<!-- Node11 -->
<g id="node12" class="node">
<title>Node11</title>
<g id="a_node12"><a xlink:href="class_c_k_finder___connector___command_handler___init.html" target="_top" xlink:title="{CKFinder_Connector\l_CommandHandler_Init\n|+ $command\l|+ mustCheckRequest()\l+ mustAddCurrentFolderNode()\l+ buildXml()\l# mustCheckRequest()\l# mustAddCurrentFolderNode()\l# buildXml()\l}">
<polygon fill="#ffffff" stroke="#000000" points="1608.1958,-.5 1608.1958,-114.5 1764.5327,-114.5 1764.5327,-.5 1608.1958,-.5"/>
<text text-anchor="start" x="1616.1958" y="-102.5" font-family="Helvetica,sans-Serif" font-size="10.00" fill="#000000">CKFinder_Connector</text>
<text text-anchor="middle" x="1686.3643" y="-92.5" font-family="Helvetica,sans-Serif" font-size="10.00" fill="#000000">_CommandHandler_Init</text>
<polyline fill="none" stroke="#000000" points="1608.1958,-86.5 1764.5327,-86.5 "/>
<text text-anchor="start" x="1616.1958" y="-74.5" font-family="Helvetica,sans-Serif" font-size="10.00" fill="#000000">+ $command</text>
<polyline fill="none" stroke="#000000" points="1608.1958,-68.5 1764.5327,-68.5 "/>
<text text-anchor="start" x="1616.1958" y="-56.5" font-family="Helvetica,sans-Serif" font-size="10.00" fill="#000000">+ mustCheckRequest()</text>
<text text-anchor="start" x="1616.1958" y="-46.5" font-family="Helvetica,sans-Serif" font-size="10.00" fill="#000000">+ mustAddCurrentFolderNode()</text>
<text text-anchor="start" x="1616.1958" y="-36.5" font-family="Helvetica,sans-Serif" font-size="10.00" fill="#000000">+ buildXml()</text>
<text text-anchor="start" x="1616.1958" y="-26.5" font-family="Helvetica,sans-Serif" font-size="10.00" fill="#000000"># mustCheckRequest()</text>
<text text-anchor="start" x="1616.1958" y="-16.5" font-family="Helvetica,sans-Serif" font-size="10.00" fill="#000000"># mustAddCurrentFolderNode()</text>
<text text-anchor="start" x="1616.1958" y="-6.5" font-family="Helvetica,sans-Serif" font-size="10.00" fill="#000000"># buildXml()</text>
</a>
</g>
</g>
<!-- Node0&#45;&gt;Node11 -->
<g id="edge18" class="edge">
<title>Node0&#45;&gt;Node11</title>
<path fill="none" stroke="#191970" d="M1221.2661,-210.8272C1317.4893,-196.2235 1468.3765,-167.2267 1590.3643,-115 1596.1896,-112.506 1602.0482,-109.6192 1607.8452,-106.4935"/>
<polygon fill="none" stroke="#191970" points="1220.6316,-207.383 1211.2594,-212.3239 1221.6672,-214.306 1220.6316,-207.383"/>
</g>
<!-- Node0&#45;&gt;Node11 -->
<g id="edge19" class="edge">
<title>Node0&#45;&gt;Node11</title>
<path fill="none" stroke="#191970" d="M1221.6876,-212.7361C1321.6674,-198.8198 1480.8135,-169.6084 1608.3643,-115 1608.6971,-114.8575 1609.0301,-114.7137 1609.3632,-114.5686"/>
<polygon fill="none" stroke="#191970" points="1221.033,-209.293 1211.5997,-214.1162 1221.9819,-216.2284 1221.033,-209.293"/>
</g>
<!-- Node12 -->
<g id="node13" class="node">
<title>Node12</title>
<g id="a_node13"><a xlink:href="class_c_k_finder___connector___command_handler___move_files.html" target="_top" xlink:title="{CKFinder_Connector\l_CommandHandler_MoveFiles\n|+ $command\l|+ buildXml()\l+ appendErrorNode()\l# buildXml()\l}">
<polygon fill="#ffffff" stroke="#000000" points="1782.4458,-15.5 1782.4458,-99.5 1936.2827,-99.5 1936.2827,-15.5 1782.4458,-15.5"/>
<text text-anchor="start" x="1790.4458" y="-87.5" font-family="Helvetica,sans-Serif" font-size="10.00" fill="#000000">CKFinder_Connector</text>
<text text-anchor="middle" x="1859.3643" y="-77.5" font-family="Helvetica,sans-Serif" font-size="10.00" fill="#000000">_CommandHandler_MoveFiles</text>
<polyline fill="none" stroke="#000000" points="1782.4458,-71.5 1936.2827,-71.5 "/>
<text text-anchor="start" x="1790.4458" y="-59.5" font-family="Helvetica,sans-Serif" font-size="10.00" fill="#000000">+ $command</text>
<polyline fill="none" stroke="#000000" points="1782.4458,-53.5 1936.2827,-53.5 "/>
<text text-anchor="start" x="1790.4458" y="-41.5" font-family="Helvetica,sans-Serif" font-size="10.00" fill="#000000">+ buildXml()</text>
<text text-anchor="start" x="1790.4458" y="-31.5" font-family="Helvetica,sans-Serif" font-size="10.00" fill="#000000">+ appendErrorNode()</text>
<text text-anchor="start" x="1790.4458" y="-21.5" font-family="Helvetica,sans-Serif" font-size="10.00" fill="#000000"># buildXml()</text>
</a>
</g>
</g>
<!-- Node0&#45;&gt;Node12 -->
<g id="edge20" class="edge">
<title>Node0&#45;&gt;Node12</title>
<path fill="none" stroke="#191970" d="M1221.6059,-219.6166C1349.6483,-211.7134 1580.9952,-187.7346 1764.3643,-115 1774.5482,-110.9605 1784.7617,-105.5813 1794.5343,-99.7303"/>
<polygon fill="none" stroke="#191970" points="1221.2071,-216.1341 1211.4335,-220.224 1221.6244,-223.1217 1221.2071,-216.1341"/>
</g>
<!-- Node0&#45;&gt;Node12 -->
<g id="edge21" class="edge">
<title>Node0&#45;&gt;Node12</title>
<path fill="none" stroke="#191970" d="M1221.2687,-220.3416C1352.4657,-213.2296 1592.9986,-190.1132 1782.3643,-115 1792.5482,-110.9605 1802.7617,-105.5813 1812.2908,-99.7303"/>
<polygon fill="none" stroke="#191970" points="1221.0441,-216.8484 1211.2403,-220.8655 1221.4093,-223.8389 1221.0441,-216.8484"/>
</g>
<!-- Node13 -->
<g id="node14" class="node">
<title>Node13</title>
<g id="a_node14"><a xlink:href="class_c_k_finder___connector___command_handler___rename_file.html" target="_top" xlink:title="{CKFinder_Connector\l_CommandHandler_RenameFile\n|+ $command\l|+ buildXml()\l# buildXml()\l}">
<polygon fill="#ffffff" stroke="#000000" points="1954.2734,-20.5 1954.2734,-94.5 2116.4551,-94.5 2116.4551,-20.5 1954.2734,-20.5"/>
<text text-anchor="start" x="1962.2734" y="-82.5" font-family="Helvetica,sans-Serif" font-size="10.00" fill="#000000">CKFinder_Connector</text>
<text text-anchor="middle" x="2035.3643" y="-72.5" font-family="Helvetica,sans-Serif" font-size="10.00" fill="#000000">_CommandHandler_RenameFile</text>
<polyline fill="none" stroke="#000000" points="1954.2734,-66.5 2116.4551,-66.5 "/>
<text text-anchor="start" x="1962.2734" y="-54.5" font-family="Helvetica,sans-Serif" font-size="10.00" fill="#000000">+ $command</text>
<polyline fill="none" stroke="#000000" points="1954.2734,-48.5 2116.4551,-48.5 "/>
<text text-anchor="start" x="1962.2734" y="-36.5" font-family="Helvetica,sans-Serif" font-size="10.00" fill="#000000">+ buildXml()</text>
<text text-anchor="start" x="1962.2734" y="-26.5" font-family="Helvetica,sans-Serif" font-size="10.00" fill="#000000"># buildXml()</text>
</a>
</g>
</g>
<!-- Node0&#45;&gt;Node13 -->
<g id="edge22" class="edge">
<title>Node0&#45;&gt;Node13</title>
<path fill="none" stroke="#191970" d="M1221.2546,-215.6432C1406.4352,-200.0391 1806.2255,-162.5101 1936.3643,-115 1950.1239,-109.9767 1963.962,-102.578 1976.7843,-94.7483"/>
<polygon fill="none" stroke="#191970" points="1220.9266,-212.1583 1211.2543,-216.4822 1221.5119,-219.1338 1220.9266,-212.1583"/>
</g>
<!-- Node0&#45;&gt;Node13 -->
<g id="edge23" class="edge">
<title>Node0&#45;&gt;Node13</title>
<path fill="none" stroke="#191970" d="M1221.4402,-216.4561C1410.1077,-201.3729 1821.9075,-163.3563 1954.3643,-115 1968.1239,-109.9767 1981.962,-102.578 1994.2553,-94.7483"/>
<polygon fill="none" stroke="#191970" points="1220.9475,-212.9841 1211.2562,-217.2653 1221.502,-219.9621 1220.9475,-212.9841"/>
</g>
<!-- Node14 -->
<g id="node15" class="node">
<title>Node14</title>
<g id="a_node15"><a xlink:href="class_c_k_finder___connector___command_handler___rename_folder.html" target="_top" xlink:title="{CKFinder_Connector\l_CommandHandler_RenameFolder\n|+ $command\l|+ buildXml()\l# buildXml()\l}">
<polygon fill="#ffffff" stroke="#000000" points="2134.1577,-20.5 2134.1577,-94.5 2308.5708,-94.5 2308.5708,-20.5 2134.1577,-20.5"/>
<text text-anchor="start" x="2142.1577" y="-82.5" font-family="Helvetica,sans-Serif" font-size="10.00" fill="#000000">CKFinder_Connector</text>
<text text-anchor="middle" x="2221.3643" y="-72.5" font-family="Helvetica,sans-Serif" font-size="10.00" fill="#000000">_CommandHandler_RenameFolder</text>
<polyline fill="none" stroke="#000000" points="2134.1577,-66.5 2308.5708,-66.5 "/>
<text text-anchor="start" x="2142.1577" y="-54.5" font-family="Helvetica,sans-Serif" font-size="10.00" fill="#000000">+ $command</text>
<polyline fill="none" stroke="#000000" points="2134.1577,-48.5 2308.5708,-48.5 "/>
<text text-anchor="start" x="2142.1577" y="-36.5" font-family="Helvetica,sans-Serif" font-size="10.00" fill="#000000">+ buildXml()</text>
<text text-anchor="start" x="2142.1577" y="-26.5" font-family="Helvetica,sans-Serif" font-size="10.00" fill="#000000"># buildXml()</text>
</a>
</g>
</g>
<!-- Node0&#45;&gt;Node14 -->
<g id="edge24" class="edge">
<title>Node0&#45;&gt;Node14</title>
<path fill="none" stroke="#191970" d="M1221.2536,-218.0705C1436.3797,-205.3471 1951.2607,-170.4227 2116.3643,-115 2131.1904,-110.0231 2146.1849,-102.4905 2160.0556,-94.5017"/>
<polygon fill="none" stroke="#191970" points="1221.0159,-214.5783 1211.2387,-218.6596 1221.427,-221.5663 1221.0159,-214.5783"/>
</g>
<!-- Node0&#45;&gt;Node14 -->
<g id="edge25" class="edge">
<title>Node0&#45;&gt;Node14</title>
<path fill="none" stroke="#191970" d="M1221.3983,-218.5987C1439.6982,-206.334 1966.918,-171.2091 2134.3643,-115 2149.0983,-110.054 2163.9986,-102.584 2177.2477,-94.6505"/>
<polygon fill="none" stroke="#191970" points="1221.0287,-215.1138 1211.2392,-219.1654 1221.4187,-222.1029 1221.0287,-215.1138"/>
</g>
<!-- Node1 -->
<g id="node2" class="node">
<title>Node1</title>
<g id="a_node2"><a xlink:href="class_c_k_finder___connector___command_handler___command_handler_base.html" target="_top" xlink:title="{CKFinder_Connector\l_CommandHandler_CommandHandlerBase\n|+ $_connector\l+ $_currentFolder\l+ $_errorHandler\l|+ CKFinder_Connector\l_CommandHandler_CommandHandlerBase()\l+ getFolderHandler()\l+ checkConnector()\l+ checkRequest()\l+ __construct()\l+ getFolderHandler()\l# checkConnector()\l# checkRequest()\l}">
<polygon fill="#ffffff" stroke="#000000" points="1015.9287,-332.5 1015.9287,-496.5 1234.7998,-496.5 1234.7998,-332.5 1015.9287,-332.5"/>
<text text-anchor="start" x="1023.9287" y="-484.5" font-family="Helvetica,sans-Serif" font-size="10.00" fill="#000000">CKFinder_Connector</text>
<text text-anchor="middle" x="1125.3643" y="-474.5" font-family="Helvetica,sans-Serif" font-size="10.00" fill="#000000">_CommandHandler_CommandHandlerBase</text>
<polyline fill="none" stroke="#000000" points="1015.9287,-468.5 1234.7998,-468.5 "/>
<text text-anchor="start" x="1023.9287" y="-456.5" font-family="Helvetica,sans-Serif" font-size="10.00" fill="#000000">+ $_connector</text>
<text text-anchor="start" x="1023.9287" y="-446.5" font-family="Helvetica,sans-Serif" font-size="10.00" fill="#000000">+ $_currentFolder</text>
<text text-anchor="start" x="1023.9287" y="-436.5" font-family="Helvetica,sans-Serif" font-size="10.00" fill="#000000">+ $_errorHandler</text>
<polyline fill="none" stroke="#000000" points="1015.9287,-430.5 1234.7998,-430.5 "/>
<text text-anchor="start" x="1023.9287" y="-418.5" font-family="Helvetica,sans-Serif" font-size="10.00" fill="#000000">+ CKFinder_Connector</text>
<text text-anchor="start" x="1023.9287" y="-408.5" font-family="Helvetica,sans-Serif" font-size="10.00" fill="#000000">_CommandHandler_CommandHandlerBase()</text>
<text text-anchor="start" x="1023.9287" y="-398.5" font-family="Helvetica,sans-Serif" font-size="10.00" fill="#000000">+ getFolderHandler()</text>
<text text-anchor="start" x="1023.9287" y="-388.5" font-family="Helvetica,sans-Serif" font-size="10.00" fill="#000000">+ checkConnector()</text>
<text text-anchor="start" x="1023.9287" y="-378.5" font-family="Helvetica,sans-Serif" font-size="10.00" fill="#000000">+ checkRequest()</text>
<text text-anchor="start" x="1023.9287" y="-368.5" font-family="Helvetica,sans-Serif" font-size="10.00" fill="#000000">+ __construct()</text>
<text text-anchor="start" x="1023.9287" y="-358.5" font-family="Helvetica,sans-Serif" font-size="10.00" fill="#000000">+ getFolderHandler()</text>
<text text-anchor="start" x="1023.9287" y="-348.5" font-family="Helvetica,sans-Serif" font-size="10.00" fill="#000000"># checkConnector()</text>
<text text-anchor="start" x="1023.9287" y="-338.5" font-family="Helvetica,sans-Serif" font-size="10.00" fill="#000000"># checkRequest()</text>
</a>
</g>
</g>
<!-- Node1&#45;&gt;Node0 -->
<g id="edge1" class="edge">
<title>Node1&#45;&gt;Node0</title>
<path fill="none" stroke="#191970" d="M1118.6179,-322.3043C1118.5984,-313.3414 1118.6582,-304.3396 1118.7974,-295.6153"/>
<polygon fill="none" stroke="#191970" points="1115.1183,-322.4099 1118.6736,-332.3903 1122.1182,-322.3711 1115.1183,-322.4099"/>
</g>
<!-- Node1&#45;&gt;Node0 -->
<g id="edge2" class="edge">
<title>Node1&#45;&gt;Node0</title>
<path fill="none" stroke="#191970" d="M1132.1107,-322.3043C1132.1302,-313.3414 1132.0703,-304.3396 1131.9311,-295.6153"/>
<polygon fill="none" stroke="#191970" points="1128.6103,-322.3711 1132.0549,-332.3903 1135.6102,-322.4099 1128.6103,-322.3711"/>
</g>
</g>
</svg>
