<?xml version="1.0" encoding="UTF-8" standalone="no"?>
<!DOCTYPE svg PUBLIC "-//W3C//DTD SVG 1.1//EN"
 "http://www.w3.org/Graphics/SVG/1.1/DTD/svg11.dtd">
<!-- Generated by graphviz version 2.40.1 (20161225.0304)
 -->
<!-- Title: Google_AdexchangebuyerService Pages: 1 -->
<svg width="176pt" height="204pt"
 viewBox="0.00 0.00 175.77 204.00" xmlns="http://www.w3.org/2000/svg" xmlns:xlink="http://www.w3.org/1999/xlink">
<g id="graph0" class="graph" transform="scale(1 1) rotate(0) translate(4 200)">
<title>Google_AdexchangebuyerService</title>
<polygon fill="#ffffff" stroke="transparent" points="-4,4 -4,-200 171.7676,-200 171.7676,4 -4,4"/>
<!-- Node0 -->
<g id="node1" class="node">
<title>Node0</title>
<polygon fill="#bfbfbf" stroke="#000000" points="0,-.5 0,-84.5 167.7676,-84.5 167.7676,-.5 0,-.5"/>
<text text-anchor="middle" x="83.8838" y="-72.5" font-family="Helvetica,sans-Serif" font-size="10.00" fill="#000000">Google_AdexchangebuyerService</text>
<polyline fill="none" stroke="#000000" points="0,-66.5 167.7676,-66.5 "/>
<text text-anchor="start" x="8" y="-54.5" font-family="Helvetica,sans-Serif" font-size="10.00" fill="#000000">+ $accounts</text>
<text text-anchor="start" x="8" y="-44.5" font-family="Helvetica,sans-Serif" font-size="10.00" fill="#000000">+ $creatives</text>
<text text-anchor="start" x="8" y="-34.5" font-family="Helvetica,sans-Serif" font-size="10.00" fill="#000000">+ $directDeals</text>
<text text-anchor="start" x="8" y="-24.5" font-family="Helvetica,sans-Serif" font-size="10.00" fill="#000000">+ $performanceReport</text>
<polyline fill="none" stroke="#000000" points="0,-18.5 167.7676,-18.5 "/>
<text text-anchor="start" x="8" y="-6.5" font-family="Helvetica,sans-Serif" font-size="10.00" fill="#000000">+ __construct()</text>
</g>
<!-- Node1 -->
<g id="node2" class="node">
<title>Node1</title>
<g id="a_node2"><a xlink:href="class_google___service.html" target="_top" xlink:title="{Google_Service\n|+ $version\l+ $servicePath\l+ $resource\l|}">
<polygon fill="#ffffff" stroke="#000000" points="40.3076,-121.5 40.3076,-195.5 127.46,-195.5 127.46,-121.5 40.3076,-121.5"/>
<text text-anchor="middle" x="83.8838" y="-183.5" font-family="Helvetica,sans-Serif" font-size="10.00" fill="#000000">Google_Service</text>
<polyline fill="none" stroke="#000000" points="40.3076,-177.5 127.46,-177.5 "/>
<text text-anchor="start" x="48.3076" y="-165.5" font-family="Helvetica,sans-Serif" font-size="10.00" fill="#000000">+ $version</text>
<text text-anchor="start" x="48.3076" y="-155.5" font-family="Helvetica,sans-Serif" font-size="10.00" fill="#000000">+ $servicePath</text>
<text text-anchor="start" x="48.3076" y="-145.5" font-family="Helvetica,sans-Serif" font-size="10.00" fill="#000000">+ $resource</text>
<polyline fill="none" stroke="#000000" points="40.3076,-139.5 127.46,-139.5 "/>
<text text-anchor="middle" x="83.8838" y="-127.5" font-family="Helvetica,sans-Serif" font-size="10.00" fill="#000000"> </text>
</a>
</g>
</g>
<!-- Node1&#45;&gt;Node0 -->
<g id="edge1" class="edge">
<title>Node1&#45;&gt;Node0</title>
<path fill="none" stroke="#191970" d="M83.8838,-111.3716C83.8838,-102.5842 83.8838,-93.4515 83.8838,-84.8197"/>
<polygon fill="none" stroke="#191970" points="80.3839,-111.4779 83.8838,-121.4779 87.3839,-111.478 80.3839,-111.4779"/>
</g>
</g>
</svg>
