<?xml version="1.0" encoding="UTF-8" standalone="no"?>
<!DOCTYPE svg PUBLIC "-//W3C//DTD SVG 1.1//EN"
 "http://www.w3.org/Graphics/SVG/1.1/DTD/svg11.dtd">
<!-- Generated by graphviz version 2.40.1 (20161225.0304)
 -->
<!-- Title: HoleSent Pages: 1 -->
<svg width="65pt" height="164pt"
 viewBox="0.00 0.00 65.14 164.00" xmlns="http://www.w3.org/2000/svg" xmlns:xlink="http://www.w3.org/1999/xlink">
<g id="graph0" class="graph" transform="scale(1 1) rotate(0) translate(4 160)">
<title>HoleSent</title>
<polygon fill="#ffffff" stroke="transparent" points="-4,4 -4,-160 61.1377,-160 61.1377,4 -4,4"/>
<!-- Node0 -->
<g id="node1" class="node">
<title>Node0</title>
<polygon fill="#bfbfbf" stroke="#000000" points="0,-.5 0,-64.5 57.1377,-64.5 57.1377,-.5 0,-.5"/>
<text text-anchor="middle" x="28.5688" y="-52.5" font-family="Helvetica,sans-Serif" font-size="10.00" fill="#000000">HoleSent</text>
<polyline fill="none" stroke="#000000" points="0,-46.5 57.1377,-46.5 "/>
<text text-anchor="start" x="8" y="-34.5" font-family="Helvetica,sans-Serif" font-size="10.00" fill="#000000">+ $hole</text>
<text text-anchor="start" x="8" y="-24.5" font-family="Helvetica,sans-Serif" font-size="10.00" fill="#000000">+ $req</text>
<polyline fill="none" stroke="#000000" points="0,-18.5 57.1377,-18.5 "/>
<text text-anchor="start" x="8" y="-6.5" font-family="Helvetica,sans-Serif" font-size="10.00" fill="#000000">+ init()</text>
</g>
<!-- Node1 -->
<g id="node2" class="node">
<title>Node1</title>
<polygon fill="#ffffff" stroke="#bfbfbf" points="1.3965,-101.5 1.3965,-155.5 55.7412,-155.5 55.7412,-101.5 1.3965,-101.5"/>
<text text-anchor="middle" x="28.5688" y="-143.5" font-family="Helvetica,sans-Serif" font-size="10.00" fill="#000000">CWidget</text>
<polyline fill="none" stroke="#bfbfbf" points="1.3965,-137.5 55.7412,-137.5 "/>
<text text-anchor="middle" x="28.5688" y="-125.5" font-family="Helvetica,sans-Serif" font-size="10.00" fill="#000000"> </text>
<polyline fill="none" stroke="#bfbfbf" points="1.3965,-119.5 55.7412,-119.5 "/>
<text text-anchor="middle" x="28.5688" y="-107.5" font-family="Helvetica,sans-Serif" font-size="10.00" fill="#000000"> </text>
</g>
<!-- Node1&#45;&gt;Node0 -->
<g id="edge1" class="edge">
<title>Node1&#45;&gt;Node0</title>
<path fill="none" stroke="#191970" d="M28.5688,-91.2276C28.5688,-82.4295 28.5688,-73.1248 28.5688,-64.5792"/>
<polygon fill="none" stroke="#191970" points="25.0689,-91.247 28.5688,-101.247 32.0689,-91.2471 25.0689,-91.247"/>
</g>
</g>
</svg>
