<?xml version="1.0" encoding="UTF-8" standalone="no"?>
<!DOCTYPE svg PUBLIC "-//W3C//DTD SVG 1.1//EN"
 "http://www.w3.org/Graphics/SVG/1.1/DTD/svg11.dtd">
<!-- Generated by graphviz version 2.40.1 (20161225.0304)
 -->
<!-- Title: Google_TasklistsServiceResource Pages: 1 -->
<svg width="176pt" height="234pt"
 viewBox="0.00 0.00 175.73 234.00" xmlns="http://www.w3.org/2000/svg" xmlns:xlink="http://www.w3.org/1999/xlink">
<g id="graph0" class="graph" transform="scale(1 1) rotate(0) translate(4 230)">
<title>Google_TasklistsServiceResource</title>
<polygon fill="#ffffff" stroke="transparent" points="-4,4 -4,-230 171.7334,-230 171.7334,4 -4,4"/>
<!-- Node0 -->
<g id="node1" class="node">
<title>Node0</title>
<polygon fill="#bfbfbf" stroke="#000000" points="0,-.5 0,-104.5 167.7334,-104.5 167.7334,-.5 0,-.5"/>
<text text-anchor="middle" x="83.8667" y="-92.5" font-family="Helvetica,sans-Serif" font-size="10.00" fill="#000000">Google_TasklistsServiceResource</text>
<polyline fill="none" stroke="#000000" points="0,-86.5 167.7334,-86.5 "/>
<text text-anchor="middle" x="83.8667" y="-74.5" font-family="Helvetica,sans-Serif" font-size="10.00" fill="#000000"> </text>
<polyline fill="none" stroke="#000000" points="0,-68.5 167.7334,-68.5 "/>
<text text-anchor="start" x="8" y="-56.5" font-family="Helvetica,sans-Serif" font-size="10.00" fill="#000000">+ delete()</text>
<text text-anchor="start" x="8" y="-46.5" font-family="Helvetica,sans-Serif" font-size="10.00" fill="#000000">+ get()</text>
<text text-anchor="start" x="8" y="-36.5" font-family="Helvetica,sans-Serif" font-size="10.00" fill="#000000">+ insert()</text>
<text text-anchor="start" x="8" y="-26.5" font-family="Helvetica,sans-Serif" font-size="10.00" fill="#000000">+ listTasklists()</text>
<text text-anchor="start" x="8" y="-16.5" font-family="Helvetica,sans-Serif" font-size="10.00" fill="#000000">+ patch()</text>
<text text-anchor="start" x="8" y="-6.5" font-family="Helvetica,sans-Serif" font-size="10.00" fill="#000000">+ update()</text>
</g>
<!-- Node1 -->
<g id="node2" class="node">
<title>Node1</title>
<g id="a_node2"><a xlink:href="class_google___service_resource.html" target="_top" xlink:title="{Google_ServiceResource\n||+ __construct()\l+ __call()\l+ useObjects()\l# stripNull()\l}">
<polygon fill="#ffffff" stroke="#000000" points="18.8916,-141.5 18.8916,-225.5 148.8418,-225.5 148.8418,-141.5 18.8916,-141.5"/>
<text text-anchor="middle" x="83.8667" y="-213.5" font-family="Helvetica,sans-Serif" font-size="10.00" fill="#000000">Google_ServiceResource</text>
<polyline fill="none" stroke="#000000" points="18.8916,-207.5 148.8418,-207.5 "/>
<text text-anchor="middle" x="83.8667" y="-195.5" font-family="Helvetica,sans-Serif" font-size="10.00" fill="#000000"> </text>
<polyline fill="none" stroke="#000000" points="18.8916,-189.5 148.8418,-189.5 "/>
<text text-anchor="start" x="26.8916" y="-177.5" font-family="Helvetica,sans-Serif" font-size="10.00" fill="#000000">+ __construct()</text>
<text text-anchor="start" x="26.8916" y="-167.5" font-family="Helvetica,sans-Serif" font-size="10.00" fill="#000000">+ __call()</text>
<text text-anchor="start" x="26.8916" y="-157.5" font-family="Helvetica,sans-Serif" font-size="10.00" fill="#000000">+ useObjects()</text>
<text text-anchor="start" x="26.8916" y="-147.5" font-family="Helvetica,sans-Serif" font-size="10.00" fill="#000000"># stripNull()</text>
</a>
</g>
</g>
<!-- Node1&#45;&gt;Node0 -->
<g id="edge1" class="edge">
<title>Node1&#45;&gt;Node0</title>
<path fill="none" stroke="#191970" d="M83.8667,-131.2546C83.8667,-122.5097 83.8667,-113.4358 83.8667,-104.6923"/>
<polygon fill="none" stroke="#191970" points="80.3668,-131.3297 83.8667,-141.3297 87.3668,-131.3297 80.3668,-131.3297"/>
</g>
</g>
</svg>
