<?xml version="1.0" encoding="UTF-8" standalone="no"?>
<!DOCTYPE svg PUBLIC "-//W3C//DTD SVG 1.1//EN"
 "http://www.w3.org/Graphics/SVG/1.1/DTD/svg11.dtd">
<!-- Generated by graphviz version 2.40.1 (20161225.0304)
 -->
<!-- Title: HoleFixeds Pages: 1 -->
<svg width="105pt" height="214pt"
 viewBox="0.00 0.00 104.88 214.00" xmlns="http://www.w3.org/2000/svg" xmlns:xlink="http://www.w3.org/1999/xlink">
<g id="graph0" class="graph" transform="scale(1 1) rotate(0) translate(4 210)">
<title>HoleFixeds</title>
<polygon fill="#ffffff" stroke="transparent" points="-4,4 -4,-210 100.8789,-210 100.8789,4 -4,4"/>
<!-- Node2 -->
<g id="node1" class="node">
<title>Node2</title>
<polygon fill="#bfbfbf" stroke="#000000" points="0,-.5 0,-114.5 96.8789,-114.5 96.8789,-.5 0,-.5"/>
<text text-anchor="middle" x="48.4395" y="-102.5" font-family="Helvetica,sans-Serif" font-size="10.00" fill="#000000">HoleFixeds</text>
<polyline fill="none" stroke="#000000" points="0,-96.5 96.8789,-96.5 "/>
<text text-anchor="middle" x="48.4395" y="-84.5" font-family="Helvetica,sans-Serif" font-size="10.00" fill="#000000"> </text>
<polyline fill="none" stroke="#000000" points="0,-78.5 96.8789,-78.5 "/>
<text text-anchor="start" x="8" y="-66.5" font-family="Helvetica,sans-Serif" font-size="10.00" fill="#000000">+ tableName()</text>
<text text-anchor="start" x="8" y="-56.5" font-family="Helvetica,sans-Serif" font-size="10.00" fill="#000000">+ rules()</text>
<text text-anchor="start" x="8" y="-46.5" font-family="Helvetica,sans-Serif" font-size="10.00" fill="#000000">+ relations()</text>
<text text-anchor="start" x="8" y="-36.5" font-family="Helvetica,sans-Serif" font-size="10.00" fill="#000000">+ attributeLabels()</text>
<text text-anchor="start" x="8" y="-26.5" font-family="Helvetica,sans-Serif" font-size="10.00" fill="#000000">+ beforeSave()</text>
<text text-anchor="start" x="8" y="-16.5" font-family="Helvetica,sans-Serif" font-size="10.00" fill="#000000">+ search()</text>
<text text-anchor="start" x="8" y="-6.5" font-family="Helvetica,sans-Serif" font-size="10.00" fill="#000000">+ model()</text>
</g>
<!-- Node3 -->
<g id="node2" class="node">
<title>Node3</title>
<polygon fill="#ffffff" stroke="#bfbfbf" points="7.0947,-151.5 7.0947,-205.5 89.7842,-205.5 89.7842,-151.5 7.0947,-151.5"/>
<text text-anchor="middle" x="48.4395" y="-193.5" font-family="Helvetica,sans-Serif" font-size="10.00" fill="#000000">CActiveRecord</text>
<polyline fill="none" stroke="#bfbfbf" points="7.0947,-187.5 89.7842,-187.5 "/>
<text text-anchor="middle" x="48.4395" y="-175.5" font-family="Helvetica,sans-Serif" font-size="10.00" fill="#000000"> </text>
<polyline fill="none" stroke="#bfbfbf" points="7.0947,-169.5 89.7842,-169.5 "/>
<text text-anchor="middle" x="48.4395" y="-157.5" font-family="Helvetica,sans-Serif" font-size="10.00" fill="#000000"> </text>
</g>
<!-- Node3&#45;&gt;Node2 -->
<g id="edge1" class="edge">
<title>Node3&#45;&gt;Node2</title>
<path fill="none" stroke="#191970" d="M48.4395,-141.172C48.4395,-132.7988 48.4395,-123.728 48.4395,-114.7528"/>
<polygon fill="none" stroke="#191970" points="44.9396,-141.3452 48.4395,-151.3452 51.9396,-141.3453 44.9396,-141.3452"/>
</g>
</g>
</svg>
