<?xml version="1.0" encoding="UTF-8" standalone="no"?>
<!DOCTYPE svg PUBLIC "-//W3C//DTD SVG 1.1//EN"
 "http://www.w3.org/Graphics/SVG/1.1/DTD/svg11.dtd">
<!-- Generated by graphviz version 2.40.1 (20161225.0304)
 -->
<!-- Title: UGDefaultController Pages: 1 -->
<svg width="177pt" height="325pt"
 viewBox="0.00 0.00 176.54 325.00" xmlns="http://www.w3.org/2000/svg" xmlns:xlink="http://www.w3.org/1999/xlink">
<g id="graph0" class="graph" transform="scale(1 1) rotate(0) translate(4 321)">
<title>UGDefaultController</title>
<polygon fill="#ffffff" stroke="transparent" points="-4,4 -4,-321 172.5439,-321 172.5439,4 -4,4"/>
<!-- Node0 -->
<g id="node1" class="node">
<title>Node0</title>
<polygon fill="#bfbfbf" stroke="#000000" points="26.1084,-.5 26.1084,-54.5 142.4355,-54.5 142.4355,-.5 26.1084,-.5"/>
<text text-anchor="middle" x="84.272" y="-42.5" font-family="Helvetica,sans-Serif" font-size="10.00" fill="#000000">UGDefaultController</text>
<polyline fill="none" stroke="#000000" points="26.1084,-36.5 142.4355,-36.5 "/>
<text text-anchor="start" x="34.1084" y="-24.5" font-family="Helvetica,sans-Serif" font-size="10.00" fill="#000000">+ $_permissionControl</text>
<polyline fill="none" stroke="#000000" points="26.1084,-18.5 142.4355,-18.5 "/>
<text text-anchor="start" x="34.1084" y="-6.5" font-family="Helvetica,sans-Serif" font-size="10.00" fill="#000000">+ actionIndex()</text>
</g>
<!-- Node1 -->
<g id="node2" class="node">
<title>Node1</title>
<g id="a_node2"><a xlink:href="class_controller.html" target="_top" xlink:title="{Controller\n|+ $layout\l+ $title\l+ $menu\l+ $breadcrumbs\l+ $_permissionControl\l|+ getUser()\l+ filterUserGroupsAccessControl()\l+ getMapkey()\l+ filterUserGroupsAccessControl()\l# beforeAction()\l}">
<polygon fill="#ffffff" stroke="#000000" points="0,-91.5 0,-225.5 168.5439,-225.5 168.5439,-91.5 0,-91.5"/>
<text text-anchor="middle" x="84.272" y="-213.5" font-family="Helvetica,sans-Serif" font-size="10.00" fill="#000000">Controller</text>
<polyline fill="none" stroke="#000000" points="0,-207.5 168.5439,-207.5 "/>
<text text-anchor="start" x="8" y="-195.5" font-family="Helvetica,sans-Serif" font-size="10.00" fill="#000000">+ $layout</text>
<text text-anchor="start" x="8" y="-185.5" font-family="Helvetica,sans-Serif" font-size="10.00" fill="#000000">+ $title</text>
<text text-anchor="start" x="8" y="-175.5" font-family="Helvetica,sans-Serif" font-size="10.00" fill="#000000">+ $menu</text>
<text text-anchor="start" x="8" y="-165.5" font-family="Helvetica,sans-Serif" font-size="10.00" fill="#000000">+ $breadcrumbs</text>
<text text-anchor="start" x="8" y="-155.5" font-family="Helvetica,sans-Serif" font-size="10.00" fill="#000000">+ $_permissionControl</text>
<polyline fill="none" stroke="#000000" points="0,-149.5 168.5439,-149.5 "/>
<text text-anchor="start" x="8" y="-137.5" font-family="Helvetica,sans-Serif" font-size="10.00" fill="#000000">+ getUser()</text>
<text text-anchor="start" x="8" y="-127.5" font-family="Helvetica,sans-Serif" font-size="10.00" fill="#000000">+ filterUserGroupsAccessControl()</text>
<text text-anchor="start" x="8" y="-117.5" font-family="Helvetica,sans-Serif" font-size="10.00" fill="#000000">+ getMapkey()</text>
<text text-anchor="start" x="8" y="-107.5" font-family="Helvetica,sans-Serif" font-size="10.00" fill="#000000">+ filterUserGroupsAccessControl()</text>
<text text-anchor="start" x="8" y="-97.5" font-family="Helvetica,sans-Serif" font-size="10.00" fill="#000000"># beforeAction()</text>
</a>
</g>
</g>
<!-- Node1&#45;&gt;Node0 -->
<g id="edge1" class="edge">
<title>Node1&#45;&gt;Node0</title>
<path fill="none" stroke="#191970" d="M84.272,-81.3901C84.272,-71.8068 84.272,-62.5661 84.272,-54.5241"/>
<polygon fill="none" stroke="#191970" points="80.7721,-81.4649 84.272,-91.465 87.7721,-81.465 80.7721,-81.4649"/>
</g>
<!-- Node2 -->
<g id="node3" class="node">
<title>Node2</title>
<polygon fill="#ffffff" stroke="#bfbfbf" points="50.9863,-262.5 50.9863,-316.5 117.5576,-316.5 117.5576,-262.5 50.9863,-262.5"/>
<text text-anchor="middle" x="84.272" y="-304.5" font-family="Helvetica,sans-Serif" font-size="10.00" fill="#000000">CController</text>
<polyline fill="none" stroke="#bfbfbf" points="50.9863,-298.5 117.5576,-298.5 "/>
<text text-anchor="middle" x="84.272" y="-286.5" font-family="Helvetica,sans-Serif" font-size="10.00" fill="#000000"> </text>
<polyline fill="none" stroke="#bfbfbf" points="50.9863,-280.5 117.5576,-280.5 "/>
<text text-anchor="middle" x="84.272" y="-268.5" font-family="Helvetica,sans-Serif" font-size="10.00" fill="#000000"> </text>
</g>
<!-- Node2&#45;&gt;Node1 -->
<g id="edge2" class="edge">
<title>Node2&#45;&gt;Node1</title>
<path fill="none" stroke="#191970" d="M78.1134,-252.2321C77.7409,-243.8764 77.5444,-234.7626 77.5238,-225.607"/>
<polygon fill="none" stroke="#191970" points="74.6266,-252.5676 78.6792,-262.3567 81.6156,-252.1769 74.6266,-252.5676"/>
</g>
<!-- Node2&#45;&gt;Node1 -->
<g id="edge3" class="edge">
<title>Node2&#45;&gt;Node1</title>
<path fill="none" stroke="#191970" d="M90.4306,-252.2321C90.8031,-243.8764 90.9996,-234.7626 91.0202,-225.607"/>
<polygon fill="none" stroke="#191970" points="86.9283,-252.1769 89.8647,-262.3567 93.9174,-252.5676 86.9283,-252.1769"/>
</g>
</g>
</svg>
