<?xml version="1.0" encoding="UTF-8" standalone="no"?>
<!DOCTYPE svg PUBLIC "-//W3C//DTD SVG 1.1//EN"
 "http://www.w3.org/Graphics/SVG/1.1/DTD/svg11.dtd">
<!-- Generated by graphviz version 2.40.1 (20161225.0304)
 -->
<!-- Title: Swift_Mime_ContentEncoder_QpContentEncoder Pages: 1 -->
<svg width="308pt" height="446pt"
 viewBox="0.00 0.00 308.07 446.00" xmlns="http://www.w3.org/2000/svg" xmlns:xlink="http://www.w3.org/1999/xlink">
<g id="graph0" class="graph" transform="scale(1 1) rotate(0) translate(4 442)">
<title>Swift_Mime_ContentEncoder_QpContentEncoder</title>
<polygon fill="#ffffff" stroke="transparent" points="-4,4 -4,-442 304.0659,-442 304.0659,4 -4,4"/>
<!-- Node5 -->
<g id="node1" class="node">
<title>Node5</title>
<polygon fill="#bfbfbf" stroke="#000000" points="74.5591,-.5 74.5591,-84.5 220.0659,-84.5 220.0659,-.5 74.5591,-.5"/>
<text text-anchor="start" x="82.5591" y="-72.5" font-family="Helvetica,sans-Serif" font-size="10.00" fill="#000000">Swift_Mime_ContentEncoder</text>
<text text-anchor="middle" x="147.3125" y="-62.5" font-family="Helvetica,sans-Serif" font-size="10.00" fill="#000000">_QpContentEncoder</text>
<polyline fill="none" stroke="#000000" points="74.5591,-56.5 220.0659,-56.5 "/>
<text text-anchor="middle" x="147.3125" y="-44.5" font-family="Helvetica,sans-Serif" font-size="10.00" fill="#000000"> </text>
<polyline fill="none" stroke="#000000" points="74.5591,-38.5 220.0659,-38.5 "/>
<text text-anchor="start" x="82.5591" y="-26.5" font-family="Helvetica,sans-Serif" font-size="10.00" fill="#000000">+ __construct()</text>
<text text-anchor="start" x="82.5591" y="-16.5" font-family="Helvetica,sans-Serif" font-size="10.00" fill="#000000">+ encodeByteStream()</text>
<text text-anchor="start" x="82.5591" y="-6.5" font-family="Helvetica,sans-Serif" font-size="10.00" fill="#000000">+ getName()</text>
</g>
<!-- Node6 -->
<g id="node2" class="node">
<title>Node6</title>
<g id="a_node2"><a xlink:href="class_swift___encoder___qp_encoder.html" target="_top" xlink:title="{Swift_Encoder_QpEncoder\n|# $_charStream\l# $_filter\l# $_qpMap\l# $_safeMap\l|+ __construct()\l+ encodeString()\l+ charsetChanged()\l# _encodeByteSequence()\l# _nextSequence()\l# _standardize()\l}">
<polygon fill="#ffffff" stroke="#000000" points="0,-121.5 0,-255.5 136.625,-255.5 136.625,-121.5 0,-121.5"/>
<text text-anchor="middle" x="68.3125" y="-243.5" font-family="Helvetica,sans-Serif" font-size="10.00" fill="#000000">Swift_Encoder_QpEncoder</text>
<polyline fill="none" stroke="#000000" points="0,-237.5 136.625,-237.5 "/>
<text text-anchor="start" x="8" y="-225.5" font-family="Helvetica,sans-Serif" font-size="10.00" fill="#000000"># $_charStream</text>
<text text-anchor="start" x="8" y="-215.5" font-family="Helvetica,sans-Serif" font-size="10.00" fill="#000000"># $_filter</text>
<text text-anchor="start" x="8" y="-205.5" font-family="Helvetica,sans-Serif" font-size="10.00" fill="#000000"># $_qpMap</text>
<text text-anchor="start" x="8" y="-195.5" font-family="Helvetica,sans-Serif" font-size="10.00" fill="#000000"># $_safeMap</text>
<polyline fill="none" stroke="#000000" points="0,-189.5 136.625,-189.5 "/>
<text text-anchor="start" x="8" y="-177.5" font-family="Helvetica,sans-Serif" font-size="10.00" fill="#000000">+ __construct()</text>
<text text-anchor="start" x="8" y="-167.5" font-family="Helvetica,sans-Serif" font-size="10.00" fill="#000000">+ encodeString()</text>
<text text-anchor="start" x="8" y="-157.5" font-family="Helvetica,sans-Serif" font-size="10.00" fill="#000000">+ charsetChanged()</text>
<text text-anchor="start" x="8" y="-147.5" font-family="Helvetica,sans-Serif" font-size="10.00" fill="#000000"># _encodeByteSequence()</text>
<text text-anchor="start" x="8" y="-137.5" font-family="Helvetica,sans-Serif" font-size="10.00" fill="#000000"># _nextSequence()</text>
<text text-anchor="start" x="8" y="-127.5" font-family="Helvetica,sans-Serif" font-size="10.00" fill="#000000"># _standardize()</text>
</a>
</g>
</g>
<!-- Node6&#45;&gt;Node5 -->
<g id="edge1" class="edge">
<title>Node6&#45;&gt;Node5</title>
<path fill="none" stroke="#191970" d="M109.4787,-112.4208C114.5925,-102.9699 119.669,-93.5879 124.3646,-84.91"/>
<polygon fill="none" stroke="#191970" points="106.2562,-111.0216 104.5755,-121.4823 112.4128,-114.3529 106.2562,-111.0216"/>
</g>
<!-- Node7 -->
<g id="node3" class="node">
<title>Node7</title>
<g id="a_node3"><a xlink:href="interface_swift___encoder.html" target="_top" xlink:title="{Swift_Encoder\n||+ encodeString()\l}">
<polygon fill="#ffffff" stroke="#000000" points="102.208,-292.5 102.208,-346.5 192.417,-346.5 192.417,-292.5 102.208,-292.5"/>
<text text-anchor="middle" x="147.3125" y="-334.5" font-family="Helvetica,sans-Serif" font-size="10.00" fill="#000000">Swift_Encoder</text>
<polyline fill="none" stroke="#000000" points="102.208,-328.5 192.417,-328.5 "/>
<text text-anchor="middle" x="147.3125" y="-316.5" font-family="Helvetica,sans-Serif" font-size="10.00" fill="#000000"> </text>
<polyline fill="none" stroke="#000000" points="102.208,-310.5 192.417,-310.5 "/>
<text text-anchor="start" x="110.208" y="-298.5" font-family="Helvetica,sans-Serif" font-size="10.00" fill="#000000">+ encodeString()</text>
</a>
</g>
</g>
<!-- Node7&#45;&gt;Node6 -->
<g id="edge2" class="edge">
<title>Node7&#45;&gt;Node6</title>
<path fill="none" stroke="#191970" d="M125.6735,-283.6176C120.4096,-274.8889 114.6097,-265.2713 108.7816,-255.607"/>
<polygon fill="none" stroke="#191970" points="122.7822,-285.6008 130.9436,-292.3567 128.7766,-281.9859 122.7822,-285.6008"/>
</g>
<!-- Node9 -->
<g id="node5" class="node">
<title>Node9</title>
<g id="a_node5"><a xlink:href="interface_swift___mime___content_encoder.html" target="_top" xlink:title="{Swift_Mime_ContentEncoder\n||+ encodeByteStream()\l+ getName()\l}">
<polygon fill="#ffffff" stroke="#000000" points="154.5591,-156.5 154.5591,-220.5 300.0659,-220.5 300.0659,-156.5 154.5591,-156.5"/>
<text text-anchor="middle" x="227.3125" y="-208.5" font-family="Helvetica,sans-Serif" font-size="10.00" fill="#000000">Swift_Mime_ContentEncoder</text>
<polyline fill="none" stroke="#000000" points="154.5591,-202.5 300.0659,-202.5 "/>
<text text-anchor="middle" x="227.3125" y="-190.5" font-family="Helvetica,sans-Serif" font-size="10.00" fill="#000000"> </text>
<polyline fill="none" stroke="#000000" points="154.5591,-184.5 300.0659,-184.5 "/>
<text text-anchor="start" x="162.5591" y="-172.5" font-family="Helvetica,sans-Serif" font-size="10.00" fill="#000000">+ encodeByteStream()</text>
<text text-anchor="start" x="162.5591" y="-162.5" font-family="Helvetica,sans-Serif" font-size="10.00" fill="#000000">+ getName()</text>
</a>
</g>
</g>
<!-- Node7&#45;&gt;Node9 -->
<g id="edge5" class="edge">
<title>Node7&#45;&gt;Node9</title>
<path fill="none" stroke="#191970" d="M169.195,-283.6673C181.2144,-263.9856 196.0009,-239.7728 207.6511,-220.6956"/>
<polygon fill="none" stroke="#191970" points="166.1134,-281.9981 163.8886,-292.3567 172.0875,-285.6464 166.1134,-281.9981"/>
</g>
<!-- Node8 -->
<g id="node4" class="node">
<title>Node8</title>
<g id="a_node4"><a xlink:href="interface_swift___mime___charset_observer.html" target="_top" xlink:title="{Swift_Mime_CharsetObserver\n||+ charsetChanged()\l}">
<polygon fill="#ffffff" stroke="#000000" points="72.6255,-383.5 72.6255,-437.5 221.9995,-437.5 221.9995,-383.5 72.6255,-383.5"/>
<text text-anchor="middle" x="147.3125" y="-425.5" font-family="Helvetica,sans-Serif" font-size="10.00" fill="#000000">Swift_Mime_CharsetObserver</text>
<polyline fill="none" stroke="#000000" points="72.6255,-419.5 221.9995,-419.5 "/>
<text text-anchor="middle" x="147.3125" y="-407.5" font-family="Helvetica,sans-Serif" font-size="10.00" fill="#000000"> </text>
<polyline fill="none" stroke="#000000" points="72.6255,-401.5 221.9995,-401.5 "/>
<text text-anchor="start" x="80.6255" y="-389.5" font-family="Helvetica,sans-Serif" font-size="10.00" fill="#000000">+ charsetChanged()</text>
</a>
</g>
</g>
<!-- Node8&#45;&gt;Node7 -->
<g id="edge3" class="edge">
<title>Node8&#45;&gt;Node7</title>
<path fill="none" stroke="#191970" d="M147.3125,-373.12C147.3125,-364.3006 147.3125,-355.0605 147.3125,-346.7837"/>
<polygon fill="none" stroke="#191970" points="143.8126,-373.197 147.3125,-383.197 150.8126,-373.197 143.8126,-373.197"/>
</g>
<!-- Node9&#45;&gt;Node5 -->
<g id="edge4" class="edge">
<title>Node9&#45;&gt;Node5</title>
<path fill="none" stroke="#191970" d="M204.8306,-147.4705C194.0968,-127.8814 181.2658,-104.4648 170.4489,-84.7239"/>
<polygon fill="none" stroke="#191970" points="201.8813,-149.3718 209.7562,-156.4597 208.0202,-146.008 201.8813,-149.3718"/>
</g>
</g>
</svg>
