<?xml version="1.0" encoding="UTF-8" standalone="no"?>
<!DOCTYPE svg PUBLIC "-//W3C//DTD SVG 1.1//EN"
 "http://www.w3.org/Graphics/SVG/1.1/DTD/svg11.dtd">
<!-- Generated by graphviz version 2.40.1 (20161225.0304)
 -->
<!-- Title: CKFinder_Connector_CommandHandler_CommandHandlerBase Pages: 1 -->
<svg width="2500pt" height="505pt"
 viewBox="0.00 0.00 2499.97 505.00" xmlns="http://www.w3.org/2000/svg" xmlns:xlink="http://www.w3.org/1999/xlink">
<g id="graph0" class="graph" transform="scale(1 1) rotate(0) translate(4 501)">
<title>CKFinder_Connector_CommandHandler_CommandHandlerBase</title>
<polygon fill="#ffffff" stroke="transparent" points="-4,4 -4,-501 2495.9673,-501 2495.9673,4 -4,4"/>
<!-- Node0 -->
<g id="node1" class="node">
<title>Node0</title>
<polygon fill="#bfbfbf" stroke="#000000" points="410.3252,-332.5 410.3252,-496.5 629.1963,-496.5 629.1963,-332.5 410.3252,-332.5"/>
<text text-anchor="start" x="418.3252" y="-484.5" font-family="Helvetica,sans-Serif" font-size="10.00" fill="#000000">CKFinder_Connector</text>
<text text-anchor="middle" x="519.7607" y="-474.5" font-family="Helvetica,sans-Serif" font-size="10.00" fill="#000000">_CommandHandler_CommandHandlerBase</text>
<polyline fill="none" stroke="#000000" points="410.3252,-468.5 629.1963,-468.5 "/>
<text text-anchor="start" x="418.3252" y="-456.5" font-family="Helvetica,sans-Serif" font-size="10.00" fill="#000000">+ $_connector</text>
<text text-anchor="start" x="418.3252" y="-446.5" font-family="Helvetica,sans-Serif" font-size="10.00" fill="#000000">+ $_currentFolder</text>
<text text-anchor="start" x="418.3252" y="-436.5" font-family="Helvetica,sans-Serif" font-size="10.00" fill="#000000">+ $_errorHandler</text>
<polyline fill="none" stroke="#000000" points="410.3252,-430.5 629.1963,-430.5 "/>
<text text-anchor="start" x="418.3252" y="-418.5" font-family="Helvetica,sans-Serif" font-size="10.00" fill="#000000">+ CKFinder_Connector</text>
<text text-anchor="start" x="418.3252" y="-408.5" font-family="Helvetica,sans-Serif" font-size="10.00" fill="#000000">_CommandHandler_CommandHandlerBase()</text>
<text text-anchor="start" x="418.3252" y="-398.5" font-family="Helvetica,sans-Serif" font-size="10.00" fill="#000000">+ getFolderHandler()</text>
<text text-anchor="start" x="418.3252" y="-388.5" font-family="Helvetica,sans-Serif" font-size="10.00" fill="#000000">+ checkConnector()</text>
<text text-anchor="start" x="418.3252" y="-378.5" font-family="Helvetica,sans-Serif" font-size="10.00" fill="#000000">+ checkRequest()</text>
<text text-anchor="start" x="418.3252" y="-368.5" font-family="Helvetica,sans-Serif" font-size="10.00" fill="#000000">+ __construct()</text>
<text text-anchor="start" x="418.3252" y="-358.5" font-family="Helvetica,sans-Serif" font-size="10.00" fill="#000000">+ getFolderHandler()</text>
<text text-anchor="start" x="418.3252" y="-348.5" font-family="Helvetica,sans-Serif" font-size="10.00" fill="#000000"># checkConnector()</text>
<text text-anchor="start" x="418.3252" y="-338.5" font-family="Helvetica,sans-Serif" font-size="10.00" fill="#000000"># checkRequest()</text>
</g>
<!-- Node1 -->
<g id="node2" class="node">
<title>Node1</title>
<g id="a_node2"><a xlink:href="class_c_k_finder___connector___command_handler___download_file.html" target="_top" xlink:title="{CKFinder_Connector\l_CommandHandler_DownloadFile\n|+ $command\l|+ sendResponse()\l+ sendResponse()\l}">
<polygon fill="#ffffff" stroke="#000000" points="168.3325,-186.5 168.3325,-260.5 337.189,-260.5 337.189,-186.5 168.3325,-186.5"/>
<text text-anchor="start" x="176.3325" y="-248.5" font-family="Helvetica,sans-Serif" font-size="10.00" fill="#000000">CKFinder_Connector</text>
<text text-anchor="middle" x="252.7607" y="-238.5" font-family="Helvetica,sans-Serif" font-size="10.00" fill="#000000">_CommandHandler_DownloadFile</text>
<polyline fill="none" stroke="#000000" points="168.3325,-232.5 337.189,-232.5 "/>
<text text-anchor="start" x="176.3325" y="-220.5" font-family="Helvetica,sans-Serif" font-size="10.00" fill="#000000">+ $command</text>
<polyline fill="none" stroke="#000000" points="168.3325,-214.5 337.189,-214.5 "/>
<text text-anchor="start" x="176.3325" y="-202.5" font-family="Helvetica,sans-Serif" font-size="10.00" fill="#000000">+ sendResponse()</text>
<text text-anchor="start" x="176.3325" y="-192.5" font-family="Helvetica,sans-Serif" font-size="10.00" fill="#000000">+ sendResponse()</text>
</a>
</g>
</g>
<!-- Node0&#45;&gt;Node1 -->
<g id="edge1" class="edge">
<title>Node0&#45;&gt;Node1</title>
<path fill="none" stroke="#191970" d="M401.6445,-341.6379C379.8421,-326.7858 357.4479,-311.084 336.7607,-296 321.3767,-284.7828 304.8967,-272.1475 290.5786,-260.6049"/>
<polygon fill="none" stroke="#191970" points="399.7268,-344.5663 409.9668,-347.2855 403.6575,-338.7741 399.7268,-344.5663"/>
</g>
<!-- Node0&#45;&gt;Node1 -->
<g id="edge2" class="edge">
<title>Node0&#45;&gt;Node1</title>
<path fill="none" stroke="#191970" d="M401.7166,-329.4226C385.8466,-318.3327 369.8496,-307.002 354.7607,-296 339.3767,-284.7828 322.8967,-272.1475 307.7157,-260.6049"/>
<polygon fill="none" stroke="#191970" points="399.7937,-332.3486 409.9985,-335.1969 403.7972,-326.6065 399.7937,-332.3486"/>
</g>
<!-- Node2 -->
<g id="node3" class="node">
<title>Node2</title>
<g id="a_node3"><a xlink:href="class_c_k_finder___connector___command_handler___file_upload.html" target="_top" xlink:title="{CKFinder_Connector\l_CommandHandler_FileUpload\n|+ $command\l|+ sendResponse()\l+ sendResponse()\l}">
<polygon fill="#ffffff" stroke="#000000" points="354.7241,-186.5 354.7241,-260.5 510.7974,-260.5 510.7974,-186.5 354.7241,-186.5"/>
<text text-anchor="start" x="362.7241" y="-248.5" font-family="Helvetica,sans-Serif" font-size="10.00" fill="#000000">CKFinder_Connector</text>
<text text-anchor="middle" x="432.7607" y="-238.5" font-family="Helvetica,sans-Serif" font-size="10.00" fill="#000000">_CommandHandler_FileUpload</text>
<polyline fill="none" stroke="#000000" points="354.7241,-232.5 510.7974,-232.5 "/>
<text text-anchor="start" x="362.7241" y="-220.5" font-family="Helvetica,sans-Serif" font-size="10.00" fill="#000000">+ $command</text>
<polyline fill="none" stroke="#000000" points="354.7241,-214.5 510.7974,-214.5 "/>
<text text-anchor="start" x="362.7241" y="-202.5" font-family="Helvetica,sans-Serif" font-size="10.00" fill="#000000">+ sendResponse()</text>
<text text-anchor="start" x="362.7241" y="-192.5" font-family="Helvetica,sans-Serif" font-size="10.00" fill="#000000">+ sendResponse()</text>
</a>
</g>
</g>
<!-- Node0&#45;&gt;Node2 -->
<g id="edge3" class="edge">
<title>Node0&#45;&gt;Node2</title>
<path fill="none" stroke="#191970" d="M471.3466,-323.0187C461.2952,-301.0794 451.5905,-278.8568 444.3472,-260.9933"/>
<polygon fill="none" stroke="#191970" points="468.3026,-324.7758 475.6693,-332.3903 474.659,-321.8438 468.3026,-324.7758"/>
</g>
<!-- Node0&#45;&gt;Node2 -->
<g id="edge6" class="edge">
<title>Node0&#45;&gt;Node2</title>
<path fill="none" stroke="#191970" d="M484.8359,-323.0187C474.9007,-301.0794 464.3607,-278.8568 455.3305,-260.9933"/>
<polygon fill="none" stroke="#191970" points="481.7569,-324.7058 489.0507,-332.3903 488.141,-321.8346 481.7569,-324.7058"/>
</g>
<!-- Node4 -->
<g id="node5" class="node">
<title>Node4</title>
<g id="a_node5"><a xlink:href="class_c_k_finder___connector___command_handler___thumbnail.html" target="_top" xlink:title="{CKFinder_Connector\l_CommandHandler_Thumbnail\n|+ $command\l|+ sendResponse()\l+ sendResponse()\l+ createThumb()\l+ getAspectRatioSize()\l+ createThumb()\l+ getAspectRatioSize()\l}">
<polygon fill="#ffffff" stroke="#000000" points="529.2808,-166.5 529.2808,-280.5 684.2407,-280.5 684.2407,-166.5 529.2808,-166.5"/>
<text text-anchor="start" x="537.2808" y="-268.5" font-family="Helvetica,sans-Serif" font-size="10.00" fill="#000000">CKFinder_Connector</text>
<text text-anchor="middle" x="606.7607" y="-258.5" font-family="Helvetica,sans-Serif" font-size="10.00" fill="#000000">_CommandHandler_Thumbnail</text>
<polyline fill="none" stroke="#000000" points="529.2808,-252.5 684.2407,-252.5 "/>
<text text-anchor="start" x="537.2808" y="-240.5" font-family="Helvetica,sans-Serif" font-size="10.00" fill="#000000">+ $command</text>
<polyline fill="none" stroke="#000000" points="529.2808,-234.5 684.2407,-234.5 "/>
<text text-anchor="start" x="537.2808" y="-222.5" font-family="Helvetica,sans-Serif" font-size="10.00" fill="#000000">+ sendResponse()</text>
<text text-anchor="start" x="537.2808" y="-212.5" font-family="Helvetica,sans-Serif" font-size="10.00" fill="#000000">+ sendResponse()</text>
<text text-anchor="start" x="537.2808" y="-202.5" font-family="Helvetica,sans-Serif" font-size="10.00" fill="#000000">+ createThumb()</text>
<text text-anchor="start" x="537.2808" y="-192.5" font-family="Helvetica,sans-Serif" font-size="10.00" fill="#000000">+ getAspectRatioSize()</text>
<text text-anchor="start" x="537.2808" y="-182.5" font-family="Helvetica,sans-Serif" font-size="10.00" fill="#000000">+ createThumb()</text>
<text text-anchor="start" x="537.2808" y="-172.5" font-family="Helvetica,sans-Serif" font-size="10.00" fill="#000000">+ getAspectRatioSize()</text>
</a>
</g>
</g>
<!-- Node0&#45;&gt;Node4 -->
<g id="edge7" class="edge">
<title>Node0&#45;&gt;Node4</title>
<path fill="none" stroke="#191970" d="M554.7072,-322.9709C561.2202,-308.5897 567.9924,-294.0882 574.4282,-280.7739"/>
<polygon fill="none" stroke="#191970" points="551.3806,-321.8346 550.4708,-332.3903 557.7646,-324.7059 551.3806,-321.8346"/>
</g>
<!-- Node0&#45;&gt;Node4 -->
<g id="edge8" class="edge">
<title>Node0&#45;&gt;Node4</title>
<path fill="none" stroke="#191970" d="M568.1968,-322.9709C574.785,-308.5897 581.2236,-294.0882 586.917,-280.7739"/>
<polygon fill="none" stroke="#191970" points="564.8624,-321.8438 563.8521,-332.3903 571.2188,-324.7757 564.8624,-321.8438"/>
</g>
<!-- Node5 -->
<g id="node6" class="node">
<title>Node5</title>
<g id="a_node6"><a xlink:href="class_c_k_finder___connector___command_handler___xml_command_handler_base.html" target="_top" xlink:title="{CKFinder_Connector\l_CommandHandler_XmlCommand\lHandlerBase\n|+ $_connectorNode\l|+ sendResponse()\l+ mustCheckRequest()\l+ mustAddCurrentFolderNode()\l+ buildXml()\l+ sendResponse()\l# mustCheckRequest()\l# mustAddCurrentFolderNode()\l# buildXml()\l}">
<polygon fill="#ffffff" stroke="#000000" points="1052.9507,-151.5 1052.9507,-295.5 1224.5708,-295.5 1224.5708,-151.5 1052.9507,-151.5"/>
<text text-anchor="start" x="1060.9507" y="-283.5" font-family="Helvetica,sans-Serif" font-size="10.00" fill="#000000">CKFinder_Connector</text>
<text text-anchor="start" x="1060.9507" y="-273.5" font-family="Helvetica,sans-Serif" font-size="10.00" fill="#000000">_CommandHandler_XmlCommand</text>
<text text-anchor="middle" x="1138.7607" y="-263.5" font-family="Helvetica,sans-Serif" font-size="10.00" fill="#000000">HandlerBase</text>
<polyline fill="none" stroke="#000000" points="1052.9507,-257.5 1224.5708,-257.5 "/>
<text text-anchor="start" x="1060.9507" y="-245.5" font-family="Helvetica,sans-Serif" font-size="10.00" fill="#000000">+ $_connectorNode</text>
<polyline fill="none" stroke="#000000" points="1052.9507,-239.5 1224.5708,-239.5 "/>
<text text-anchor="start" x="1060.9507" y="-227.5" font-family="Helvetica,sans-Serif" font-size="10.00" fill="#000000">+ sendResponse()</text>
<text text-anchor="start" x="1060.9507" y="-217.5" font-family="Helvetica,sans-Serif" font-size="10.00" fill="#000000">+ mustCheckRequest()</text>
<text text-anchor="start" x="1060.9507" y="-207.5" font-family="Helvetica,sans-Serif" font-size="10.00" fill="#000000">+ mustAddCurrentFolderNode()</text>
<text text-anchor="start" x="1060.9507" y="-197.5" font-family="Helvetica,sans-Serif" font-size="10.00" fill="#000000">+ buildXml()</text>
<text text-anchor="start" x="1060.9507" y="-187.5" font-family="Helvetica,sans-Serif" font-size="10.00" fill="#000000">+ sendResponse()</text>
<text text-anchor="start" x="1060.9507" y="-177.5" font-family="Helvetica,sans-Serif" font-size="10.00" fill="#000000"># mustCheckRequest()</text>
<text text-anchor="start" x="1060.9507" y="-167.5" font-family="Helvetica,sans-Serif" font-size="10.00" fill="#000000"># mustAddCurrentFolderNode()</text>
<text text-anchor="start" x="1060.9507" y="-157.5" font-family="Helvetica,sans-Serif" font-size="10.00" fill="#000000"># buildXml()</text>
</a>
</g>
</g>
<!-- Node0&#45;&gt;Node5 -->
<g id="edge9" class="edge">
<title>Node0&#45;&gt;Node5</title>
<path fill="none" stroke="#191970" d="M639.0588,-375.979C760.2992,-337.9998 945.073,-281.0681 1052.716,-248.5876"/>
<polygon fill="none" stroke="#191970" points="637.8466,-372.691 629.3513,-379.022 639.9404,-379.3705 637.8466,-372.691"/>
</g>
<!-- Node0&#45;&gt;Node5 -->
<g id="edge33" class="edge">
<title>Node0&#45;&gt;Node5</title>
<path fill="none" stroke="#191970" d="M638.9741,-379.372C760.1733,-342.5828 944.925,-285.5323 1052.6078,-251.6111"/>
<polygon fill="none" stroke="#191970" points="637.8236,-376.0634 629.2701,-382.3154 639.8555,-382.7621 637.8236,-376.0634"/>
</g>
<!-- Node3 -->
<g id="node4" class="node">
<title>Node3</title>
<g id="a_node4"><a xlink:href="class_c_k_finder___connector___command_handler___quick_upload.html" target="_top" xlink:title="{CKFinder_Connector\l_CommandHandler_QuickUpload\n|+ $command\l|+ sendResponse()\l+ sendResponse()\l}">
<polygon fill="#ffffff" stroke="#000000" points="0,-20.5 0,-94.5 165.5215,-94.5 165.5215,-20.5 0,-20.5"/>
<text text-anchor="start" x="8" y="-82.5" font-family="Helvetica,sans-Serif" font-size="10.00" fill="#000000">CKFinder_Connector</text>
<text text-anchor="middle" x="82.7607" y="-72.5" font-family="Helvetica,sans-Serif" font-size="10.00" fill="#000000">_CommandHandler_QuickUpload</text>
<polyline fill="none" stroke="#000000" points="0,-66.5 165.5215,-66.5 "/>
<text text-anchor="start" x="8" y="-54.5" font-family="Helvetica,sans-Serif" font-size="10.00" fill="#000000">+ $command</text>
<polyline fill="none" stroke="#000000" points="0,-48.5 165.5215,-48.5 "/>
<text text-anchor="start" x="8" y="-36.5" font-family="Helvetica,sans-Serif" font-size="10.00" fill="#000000">+ sendResponse()</text>
<text text-anchor="start" x="8" y="-26.5" font-family="Helvetica,sans-Serif" font-size="10.00" fill="#000000">+ sendResponse()</text>
</a>
</g>
</g>
<!-- Node2&#45;&gt;Node3 -->
<g id="edge4" class="edge">
<title>Node2&#45;&gt;Node3</title>
<path fill="none" stroke="#191970" d="M379.7649,-179.5352C366.5471,-168.7993 351.8534,-158.3114 336.7607,-151 266.8644,-117.1399 237.7982,-144.0276 165.7607,-115 152.3087,-109.5795 138.6257,-102.2177 126.3126,-94.573"/>
<polygon fill="none" stroke="#191970" points="377.8714,-182.5133 387.7945,-186.2258 382.3524,-177.1354 377.8714,-182.5133"/>
</g>
<!-- Node2&#45;&gt;Node3 -->
<g id="edge5" class="edge">
<title>Node2&#45;&gt;Node3</title>
<path fill="none" stroke="#191970" d="M397.0991,-179.5352C384.5471,-168.7993 369.8534,-158.3114 354.7607,-151 284.8644,-117.1399 255.7982,-144.0276 183.7607,-115 170.3087,-109.5795 156.6257,-102.2177 143.8228,-94.573"/>
<polygon fill="none" stroke="#191970" points="394.8237,-182.1956 404.6222,-186.2258 399.4756,-176.9649 394.8237,-182.1956"/>
</g>
<!-- Node6 -->
<g id="node7" class="node">
<title>Node6</title>
<g id="a_node7"><a xlink:href="class_c_k_finder___connector___command_handler___copy_files.html" target="_top" xlink:title="{CKFinder_Connector\l_CommandHandler_CopyFiles\n|+ $command\l|+ buildXml()\l+ appendErrorNode()\l# buildXml()\l}">
<polygon fill="#ffffff" stroke="#000000" points="183.3965,-15.5 183.3965,-99.5 336.125,-99.5 336.125,-15.5 183.3965,-15.5"/>
<text text-anchor="start" x="191.3965" y="-87.5" font-family="Helvetica,sans-Serif" font-size="10.00" fill="#000000">CKFinder_Connector</text>
<text text-anchor="middle" x="259.7607" y="-77.5" font-family="Helvetica,sans-Serif" font-size="10.00" fill="#000000">_CommandHandler_CopyFiles</text>
<polyline fill="none" stroke="#000000" points="183.3965,-71.5 336.125,-71.5 "/>
<text text-anchor="start" x="191.3965" y="-59.5" font-family="Helvetica,sans-Serif" font-size="10.00" fill="#000000">+ $command</text>
<polyline fill="none" stroke="#000000" points="183.3965,-53.5 336.125,-53.5 "/>
<text text-anchor="start" x="191.3965" y="-41.5" font-family="Helvetica,sans-Serif" font-size="10.00" fill="#000000">+ buildXml()</text>
<text text-anchor="start" x="191.3965" y="-31.5" font-family="Helvetica,sans-Serif" font-size="10.00" fill="#000000">+ appendErrorNode()</text>
<text text-anchor="start" x="191.3965" y="-21.5" font-family="Helvetica,sans-Serif" font-size="10.00" fill="#000000"># buildXml()</text>
</a>
</g>
</g>
<!-- Node5&#45;&gt;Node6 -->
<g id="edge10" class="edge">
<title>Node5&#45;&gt;Node6</title>
<path fill="none" stroke="#191970" d="M1042.78,-207.4491C950.7242,-191.6385 807.932,-167.5195 683.7607,-151 530.0649,-130.5526 482.603,-167.6358 336.7607,-115 326.1177,-111.1588 315.5046,-105.7259 305.6856,-99.7173"/>
<polygon fill="none" stroke="#191970" points="1042.1889,-210.8988 1052.6374,-209.1436 1043.3749,-204 1042.1889,-210.8988"/>
</g>
<!-- Node5&#45;&gt;Node6 -->
<g id="edge11" class="edge">
<title>Node5&#45;&gt;Node6</title>
<path fill="none" stroke="#191970" d="M1042.7806,-205.004C954.4164,-189.233 819.6906,-166.6892 701.7607,-151 548.0649,-130.5526 500.603,-167.6358 354.7607,-115 344.1177,-111.1588 333.5046,-105.7259 323.4173,-99.7173"/>
<polygon fill="none" stroke="#191970" points="1042.3264,-208.4783 1052.7869,-206.7965 1043.5608,-201.588 1042.3264,-208.4783"/>
</g>
<!-- Node7 -->
<g id="node8" class="node">
<title>Node7</title>
<g id="a_node8"><a xlink:href="class_c_k_finder___connector___command_handler___create_folder.html" target="_top" xlink:title="{CKFinder_Connector\l_CommandHandler_CreateFolder\n|+ $command\l|+ buildXml()\l# buildXml()\l}">
<polygon fill="#ffffff" stroke="#000000" points="354.4458,-20.5 354.4458,-94.5 521.0757,-94.5 521.0757,-20.5 354.4458,-20.5"/>
<text text-anchor="start" x="362.4458" y="-82.5" font-family="Helvetica,sans-Serif" font-size="10.00" fill="#000000">CKFinder_Connector</text>
<text text-anchor="middle" x="437.7607" y="-72.5" font-family="Helvetica,sans-Serif" font-size="10.00" fill="#000000">_CommandHandler_CreateFolder</text>
<polyline fill="none" stroke="#000000" points="354.4458,-66.5 521.0757,-66.5 "/>
<text text-anchor="start" x="362.4458" y="-54.5" font-family="Helvetica,sans-Serif" font-size="10.00" fill="#000000">+ $command</text>
<polyline fill="none" stroke="#000000" points="354.4458,-48.5 521.0757,-48.5 "/>
<text text-anchor="start" x="362.4458" y="-36.5" font-family="Helvetica,sans-Serif" font-size="10.00" fill="#000000">+ buildXml()</text>
<text text-anchor="start" x="362.4458" y="-26.5" font-family="Helvetica,sans-Serif" font-size="10.00" fill="#000000"># buildXml()</text>
</a>
</g>
</g>
<!-- Node5&#45;&gt;Node7 -->
<g id="edge12" class="edge">
<title>Node5&#45;&gt;Node7</title>
<path fill="none" stroke="#191970" d="M1042.7361,-209.2944C881.2444,-184.2927 568.4036,-133.3396 520.7607,-115 507.05,-109.7222 493.1535,-102.3226 480.7118,-94.5841"/>
<polygon fill="none" stroke="#191970" points="1042.2596,-212.7623 1052.6768,-210.8302 1043.3284,-205.8443 1042.2596,-212.7623"/>
</g>
<!-- Node5&#45;&gt;Node7 -->
<g id="edge13" class="edge">
<title>Node5&#45;&gt;Node7</title>
<path fill="none" stroke="#191970" d="M1042.5434,-207.5392C885.0748,-181.9793 585.3141,-132.9202 538.7607,-115 525.05,-109.7222 511.1535,-102.3226 498.2027,-94.5841"/>
<polygon fill="none" stroke="#191970" points="1042.2741,-211.0412 1052.7056,-209.1882 1043.3953,-204.1316 1042.2741,-211.0412"/>
</g>
<!-- Node8 -->
<g id="node9" class="node">
<title>Node8</title>
<g id="a_node9"><a xlink:href="class_c_k_finder___connector___command_handler___delete_file.html" target="_top" xlink:title="{CKFinder_Connector\l_CommandHandler_DeleteFile\n|+ $command\l|+ buildXml()\l# buildXml()\l}">
<polygon fill="#ffffff" stroke="#000000" points="539.1157,-20.5 539.1157,-94.5 692.4058,-94.5 692.4058,-20.5 539.1157,-20.5"/>
<text text-anchor="start" x="547.1157" y="-82.5" font-family="Helvetica,sans-Serif" font-size="10.00" fill="#000000">CKFinder_Connector</text>
<text text-anchor="middle" x="615.7607" y="-72.5" font-family="Helvetica,sans-Serif" font-size="10.00" fill="#000000">_CommandHandler_DeleteFile</text>
<polyline fill="none" stroke="#000000" points="539.1157,-66.5 692.4058,-66.5 "/>
<text text-anchor="start" x="547.1157" y="-54.5" font-family="Helvetica,sans-Serif" font-size="10.00" fill="#000000">+ $command</text>
<polyline fill="none" stroke="#000000" points="539.1157,-48.5 692.4058,-48.5 "/>
<text text-anchor="start" x="547.1157" y="-36.5" font-family="Helvetica,sans-Serif" font-size="10.00" fill="#000000">+ buildXml()</text>
<text text-anchor="start" x="547.1157" y="-26.5" font-family="Helvetica,sans-Serif" font-size="10.00" fill="#000000"># buildXml()</text>
</a>
</g>
</g>
<!-- Node5&#45;&gt;Node8 -->
<g id="edge14" class="edge">
<title>Node5&#45;&gt;Node8</title>
<path fill="none" stroke="#191970" d="M1042.8059,-210.8557C949.8901,-195.8512 806.7353,-166.1782 691.7607,-115 679.3905,-109.4937 666.8737,-102.189 655.623,-94.639"/>
<polygon fill="none" stroke="#191970" points="1042.3333,-214.3245 1052.7588,-212.4378 1043.4323,-207.4112 1042.3333,-214.3245"/>
</g>
<!-- Node5&#45;&gt;Node8 -->
<g id="edge15" class="edge">
<title>Node5&#45;&gt;Node8</title>
<path fill="none" stroke="#191970" d="M1042.695,-208.4954C953.6521,-192.8317 818.9894,-163.6206 709.7607,-115 697.3905,-109.4937 684.8737,-102.189 673.152,-94.639"/>
<polygon fill="none" stroke="#191970" points="1042.3314,-211.9845 1052.7826,-210.2464 1043.5285,-205.0877 1042.3314,-211.9845"/>
</g>
<!-- Node9 -->
<g id="node10" class="node">
<title>Node9</title>
<g id="a_node10"><a xlink:href="class_c_k_finder___connector___command_handler___delete_folder.html" target="_top" xlink:title="{CKFinder_Connector\l_CommandHandler_DeleteFolder\n|+ $command\l|+ buildXml()\l# buildXml()\l}">
<polygon fill="#ffffff" stroke="#000000" points="710,-20.5 710,-94.5 875.5215,-94.5 875.5215,-20.5 710,-20.5"/>
<text text-anchor="start" x="718" y="-82.5" font-family="Helvetica,sans-Serif" font-size="10.00" fill="#000000">CKFinder_Connector</text>
<text text-anchor="middle" x="792.7607" y="-72.5" font-family="Helvetica,sans-Serif" font-size="10.00" fill="#000000">_CommandHandler_DeleteFolder</text>
<polyline fill="none" stroke="#000000" points="710,-66.5 875.5215,-66.5 "/>
<text text-anchor="start" x="718" y="-54.5" font-family="Helvetica,sans-Serif" font-size="10.00" fill="#000000">+ $command</text>
<polyline fill="none" stroke="#000000" points="710,-48.5 875.5215,-48.5 "/>
<text text-anchor="start" x="718" y="-36.5" font-family="Helvetica,sans-Serif" font-size="10.00" fill="#000000">+ buildXml()</text>
<text text-anchor="start" x="718" y="-26.5" font-family="Helvetica,sans-Serif" font-size="10.00" fill="#000000"># buildXml()</text>
</a>
</g>
</g>
<!-- Node5&#45;&gt;Node9 -->
<g id="edge16" class="edge">
<title>Node5&#45;&gt;Node9</title>
<path fill="none" stroke="#191970" d="M1043.6028,-190.1263C992.7679,-170.1452 929.7836,-143.204 875.7607,-115 864.073,-108.8981 851.8984,-101.8341 840.561,-94.7902"/>
<polygon fill="none" stroke="#191970" points="1042.3603,-193.3984 1052.9485,-193.7749 1044.9061,-186.8778 1042.3603,-193.3984"/>
</g>
<!-- Node5&#45;&gt;Node9 -->
<g id="edge17" class="edge">
<title>Node5&#45;&gt;Node9</title>
<path fill="none" stroke="#191970" d="M1043.5407,-183.57C997.5654,-164.441 942.0787,-140.2256 893.7607,-115 881.9896,-108.8546 869.7245,-101.7331 857.9422,-94.6393"/>
<polygon fill="none" stroke="#191970" points="1042.324,-186.8544 1052.902,-187.4499 1045.0041,-180.3878 1042.324,-186.8544"/>
</g>
<!-- Node10 -->
<g id="node11" class="node">
<title>Node10</title>
<g id="a_node11"><a xlink:href="class_c_k_finder___connector___command_handler___file_editor.html" target="_top" xlink:title="{CKFinder_Connector\l_CommandHandler_FileEditor\n||+ buildXml()\l+ onBeforeExecuteCommand()\l}">
<polygon fill="#ffffff" stroke="#000000" points="893.6982,-20.5 893.6982,-94.5 1047.8232,-94.5 1047.8232,-20.5 893.6982,-20.5"/>
<text text-anchor="start" x="901.6982" y="-82.5" font-family="Helvetica,sans-Serif" font-size="10.00" fill="#000000">CKFinder_Connector</text>
<text text-anchor="middle" x="970.7607" y="-72.5" font-family="Helvetica,sans-Serif" font-size="10.00" fill="#000000">_CommandHandler_FileEditor</text>
<polyline fill="none" stroke="#000000" points="893.6982,-66.5 1047.8232,-66.5 "/>
<text text-anchor="middle" x="970.7607" y="-54.5" font-family="Helvetica,sans-Serif" font-size="10.00" fill="#000000"> </text>
<polyline fill="none" stroke="#000000" points="893.6982,-48.5 1047.8232,-48.5 "/>
<text text-anchor="start" x="901.6982" y="-36.5" font-family="Helvetica,sans-Serif" font-size="10.00" fill="#000000">+ buildXml()</text>
<text text-anchor="start" x="901.6982" y="-26.5" font-family="Helvetica,sans-Serif" font-size="10.00" fill="#000000">+ onBeforeExecuteCommand()</text>
</a>
</g>
</g>
<!-- Node5&#45;&gt;Node10 -->
<g id="edge18" class="edge">
<title>Node5&#45;&gt;Node10</title>
<path fill="none" stroke="#191970" d="M1058.1721,-143.8707C1040.8808,-126.7853 1023.3965,-109.5091 1008.6563,-94.9444"/>
<polygon fill="none" stroke="#191970" points="1055.9889,-146.6339 1065.5622,-151.1729 1060.9089,-141.6546 1055.9889,-146.6339"/>
</g>
<!-- Node11 -->
<g id="node12" class="node">
<title>Node11</title>
<g id="a_node12"><a xlink:href="class_c_k_finder___connector___command_handler___get_files.html" target="_top" xlink:title="{CKFinder_Connector\l_CommandHandler_GetFiles\n|+ $command\l|+ buildXml()\l# buildXml()\l}">
<polygon fill="#ffffff" stroke="#000000" points="1066.0098,-20.5 1066.0098,-94.5 1211.5117,-94.5 1211.5117,-20.5 1066.0098,-20.5"/>
<text text-anchor="start" x="1074.0098" y="-82.5" font-family="Helvetica,sans-Serif" font-size="10.00" fill="#000000">CKFinder_Connector</text>
<text text-anchor="middle" x="1138.7607" y="-72.5" font-family="Helvetica,sans-Serif" font-size="10.00" fill="#000000">_CommandHandler_GetFiles</text>
<polyline fill="none" stroke="#000000" points="1066.0098,-66.5 1211.5117,-66.5 "/>
<text text-anchor="start" x="1074.0098" y="-54.5" font-family="Helvetica,sans-Serif" font-size="10.00" fill="#000000">+ $command</text>
<polyline fill="none" stroke="#000000" points="1066.0098,-48.5 1211.5117,-48.5 "/>
<text text-anchor="start" x="1074.0098" y="-36.5" font-family="Helvetica,sans-Serif" font-size="10.00" fill="#000000">+ buildXml()</text>
<text text-anchor="start" x="1074.0098" y="-26.5" font-family="Helvetica,sans-Serif" font-size="10.00" fill="#000000"># buildXml()</text>
</a>
</g>
</g>
<!-- Node5&#45;&gt;Node11 -->
<g id="edge19" class="edge">
<title>Node5&#45;&gt;Node11</title>
<path fill="none" stroke="#191970" d="M1132.0109,-141.1236C1132.0021,-124.9421 1132.3354,-108.7289 1133.0108,-94.9444"/>
<polygon fill="none" stroke="#191970" points="1128.5111,-141.1903 1132.0606,-151.1729 1135.511,-141.1557 1128.5111,-141.1903"/>
</g>
<!-- Node5&#45;&gt;Node11 -->
<g id="edge20" class="edge">
<title>Node5&#45;&gt;Node11</title>
<path fill="none" stroke="#191970" d="M1145.5106,-141.1236C1145.5194,-124.9421 1145.1861,-108.7289 1144.5106,-94.9444"/>
<polygon fill="none" stroke="#191970" points="1142.0105,-141.1557 1145.4609,-151.1729 1149.0104,-141.1903 1142.0105,-141.1557"/>
</g>
<!-- Node12 -->
<g id="node13" class="node">
<title>Node12</title>
<g id="a_node13"><a xlink:href="class_c_k_finder___connector___command_handler___get_folders.html" target="_top" xlink:title="{CKFinder_Connector\l_CommandHandler_GetFolders\n|+ $command\l|+ buildXml()\l# buildXml()\l}">
<polygon fill="#ffffff" stroke="#000000" points="1229.894,-20.5 1229.894,-94.5 1387.6274,-94.5 1387.6274,-20.5 1229.894,-20.5"/>
<text text-anchor="start" x="1237.894" y="-82.5" font-family="Helvetica,sans-Serif" font-size="10.00" fill="#000000">CKFinder_Connector</text>
<text text-anchor="middle" x="1308.7607" y="-72.5" font-family="Helvetica,sans-Serif" font-size="10.00" fill="#000000">_CommandHandler_GetFolders</text>
<polyline fill="none" stroke="#000000" points="1229.894,-66.5 1387.6274,-66.5 "/>
<text text-anchor="start" x="1237.894" y="-54.5" font-family="Helvetica,sans-Serif" font-size="10.00" fill="#000000">+ $command</text>
<polyline fill="none" stroke="#000000" points="1229.894,-48.5 1387.6274,-48.5 "/>
<text text-anchor="start" x="1237.894" y="-36.5" font-family="Helvetica,sans-Serif" font-size="10.00" fill="#000000">+ buildXml()</text>
<text text-anchor="start" x="1237.894" y="-26.5" font-family="Helvetica,sans-Serif" font-size="10.00" fill="#000000"># buildXml()</text>
</a>
</g>
</g>
<!-- Node5&#45;&gt;Node12 -->
<g id="edge21" class="edge">
<title>Node5&#45;&gt;Node12</title>
<path fill="none" stroke="#191970" d="M1213.5638,-143.8707C1231.0107,-126.7853 1249.0348,-109.5091 1264.6641,-94.9444"/>
<polygon fill="none" stroke="#191970" points="1210.8115,-141.6682 1206.1305,-151.1729 1215.717,-146.6617 1210.8115,-141.6682"/>
</g>
<!-- Node5&#45;&gt;Node12 -->
<g id="edge22" class="edge">
<title>Node5&#45;&gt;Node12</title>
<path fill="none" stroke="#191970" d="M1227.0539,-143.8707C1244.6012,-126.7853 1261.9619,-109.5091 1276.1639,-94.9444"/>
<polygon fill="none" stroke="#191970" points="1224.2687,-141.6964 1219.5308,-151.1729 1229.1442,-146.7194 1224.2687,-141.6964"/>
</g>
<!-- Node13 -->
<g id="node14" class="node">
<title>Node13</title>
<g id="a_node14"><a xlink:href="class_c_k_finder___connector___command_handler___image_resize.html" target="_top" xlink:title="{CKFinder_Connector\l_CommandHandler_ImageResize\n||+ getConfig()\l+ buildXml()\l+ onInitCommand()\l+ onBeforeExecuteCommand()\l}">
<polygon fill="#ffffff" stroke="#000000" points="1405.4458,-10.5 1405.4458,-104.5 1572.0757,-104.5 1572.0757,-10.5 1405.4458,-10.5"/>
<text text-anchor="start" x="1413.4458" y="-92.5" font-family="Helvetica,sans-Serif" font-size="10.00" fill="#000000">CKFinder_Connector</text>
<text text-anchor="middle" x="1488.7607" y="-82.5" font-family="Helvetica,sans-Serif" font-size="10.00" fill="#000000">_CommandHandler_ImageResize</text>
<polyline fill="none" stroke="#000000" points="1405.4458,-76.5 1572.0757,-76.5 "/>
<text text-anchor="middle" x="1488.7607" y="-64.5" font-family="Helvetica,sans-Serif" font-size="10.00" fill="#000000"> </text>
<polyline fill="none" stroke="#000000" points="1405.4458,-58.5 1572.0757,-58.5 "/>
<text text-anchor="start" x="1413.4458" y="-46.5" font-family="Helvetica,sans-Serif" font-size="10.00" fill="#000000">+ getConfig()</text>
<text text-anchor="start" x="1413.4458" y="-36.5" font-family="Helvetica,sans-Serif" font-size="10.00" fill="#000000">+ buildXml()</text>
<text text-anchor="start" x="1413.4458" y="-26.5" font-family="Helvetica,sans-Serif" font-size="10.00" fill="#000000">+ onInitCommand()</text>
<text text-anchor="start" x="1413.4458" y="-16.5" font-family="Helvetica,sans-Serif" font-size="10.00" fill="#000000">+ onBeforeExecuteCommand()</text>
</a>
</g>
</g>
<!-- Node5&#45;&gt;Node13 -->
<g id="edge23" class="edge">
<title>Node5&#45;&gt;Node13</title>
<path fill="none" stroke="#191970" d="M1233.9818,-187.703C1283.4125,-168.0637 1344.2802,-142.2116 1396.7607,-115 1403.0312,-111.7487 1409.4386,-108.2162 1415.8085,-104.5545"/>
<polygon fill="none" stroke="#191970" points="1232.5861,-184.491 1224.5723,-191.4214 1235.1588,-191.0011 1232.5861,-184.491"/>
</g>
<!-- Node14 -->
<g id="node15" class="node">
<title>Node14</title>
<g id="a_node15"><a xlink:href="class_c_k_finder___connector___command_handler___image_resize_info.html" target="_top" xlink:title="{CKFinder_Connector\l_CommandHandler_ImageResizeInfo\n||+ buildXml()\l+ onBeforeExecuteCommand()\l}">
<polygon fill="#ffffff" stroke="#000000" points="1590.106,-20.5 1590.106,-94.5 1773.4155,-94.5 1773.4155,-20.5 1590.106,-20.5"/>
<text text-anchor="start" x="1598.106" y="-82.5" font-family="Helvetica,sans-Serif" font-size="10.00" fill="#000000">CKFinder_Connector</text>
<text text-anchor="middle" x="1681.7607" y="-72.5" font-family="Helvetica,sans-Serif" font-size="10.00" fill="#000000">_CommandHandler_ImageResizeInfo</text>
<polyline fill="none" stroke="#000000" points="1590.106,-66.5 1773.4155,-66.5 "/>
<text text-anchor="middle" x="1681.7607" y="-54.5" font-family="Helvetica,sans-Serif" font-size="10.00" fill="#000000"> </text>
<polyline fill="none" stroke="#000000" points="1590.106,-48.5 1773.4155,-48.5 "/>
<text text-anchor="start" x="1598.106" y="-36.5" font-family="Helvetica,sans-Serif" font-size="10.00" fill="#000000">+ buildXml()</text>
<text text-anchor="start" x="1598.106" y="-26.5" font-family="Helvetica,sans-Serif" font-size="10.00" fill="#000000">+ onBeforeExecuteCommand()</text>
</a>
</g>
</g>
<!-- Node5&#45;&gt;Node14 -->
<g id="edge24" class="edge">
<title>Node5&#45;&gt;Node14</title>
<path fill="none" stroke="#191970" d="M1234.8841,-207.8518C1326.0483,-191.1755 1465.7904,-160.8047 1580.7607,-115 1594.9127,-109.3618 1609.5021,-102.0479 1623.04,-94.5372"/>
<polygon fill="none" stroke="#191970" points="1234.057,-204.4446 1224.8402,-209.6697 1235.3037,-211.3327 1234.057,-204.4446"/>
</g>
<!-- Node15 -->
<g id="node16" class="node">
<title>Node15</title>
<g id="a_node16"><a xlink:href="class_c_k_finder___connector___command_handler___init.html" target="_top" xlink:title="{CKFinder_Connector\l_CommandHandler_Init\n|+ $command\l|+ mustCheckRequest()\l+ mustAddCurrentFolderNode()\l+ buildXml()\l# mustCheckRequest()\l# mustAddCurrentFolderNode()\l# buildXml()\l}">
<polygon fill="#ffffff" stroke="#000000" points="1791.5923,-.5 1791.5923,-114.5 1947.9292,-114.5 1947.9292,-.5 1791.5923,-.5"/>
<text text-anchor="start" x="1799.5923" y="-102.5" font-family="Helvetica,sans-Serif" font-size="10.00" fill="#000000">CKFinder_Connector</text>
<text text-anchor="middle" x="1869.7607" y="-92.5" font-family="Helvetica,sans-Serif" font-size="10.00" fill="#000000">_CommandHandler_Init</text>
<polyline fill="none" stroke="#000000" points="1791.5923,-86.5 1947.9292,-86.5 "/>
<text text-anchor="start" x="1799.5923" y="-74.5" font-family="Helvetica,sans-Serif" font-size="10.00" fill="#000000">+ $command</text>
<polyline fill="none" stroke="#000000" points="1791.5923,-68.5 1947.9292,-68.5 "/>
<text text-anchor="start" x="1799.5923" y="-56.5" font-family="Helvetica,sans-Serif" font-size="10.00" fill="#000000">+ mustCheckRequest()</text>
<text text-anchor="start" x="1799.5923" y="-46.5" font-family="Helvetica,sans-Serif" font-size="10.00" fill="#000000">+ mustAddCurrentFolderNode()</text>
<text text-anchor="start" x="1799.5923" y="-36.5" font-family="Helvetica,sans-Serif" font-size="10.00" fill="#000000">+ buildXml()</text>
<text text-anchor="start" x="1799.5923" y="-26.5" font-family="Helvetica,sans-Serif" font-size="10.00" fill="#000000"># mustCheckRequest()</text>
<text text-anchor="start" x="1799.5923" y="-16.5" font-family="Helvetica,sans-Serif" font-size="10.00" fill="#000000"># mustAddCurrentFolderNode()</text>
<text text-anchor="start" x="1799.5923" y="-6.5" font-family="Helvetica,sans-Serif" font-size="10.00" fill="#000000"># buildXml()</text>
</a>
</g>
</g>
<!-- Node5&#45;&gt;Node15 -->
<g id="edge25" class="edge">
<title>Node5&#45;&gt;Node15</title>
<path fill="none" stroke="#191970" d="M1234.8485,-219.3197C1362.1306,-211.1061 1591.5937,-186.803 1773.7607,-115 1779.656,-112.6763 1785.5656,-109.9132 1791.3982,-106.8743"/>
<polygon fill="none" stroke="#191970" points="1234.4974,-215.8348 1224.7354,-219.9523 1234.9344,-222.8211 1234.4974,-215.8348"/>
</g>
<!-- Node5&#45;&gt;Node15 -->
<g id="edge26" class="edge">
<title>Node5&#45;&gt;Node15</title>
<path fill="none" stroke="#191970" d="M1234.9836,-220.0536C1365.5293,-212.5998 1603.8168,-189.0801 1791.7607,-115 1792.0976,-114.8672 1792.4345,-114.733 1792.7715,-114.5974"/>
<polygon fill="none" stroke="#191970" points="1234.4101,-216.5798 1224.6178,-220.6245 1234.7951,-223.5692 1234.4101,-216.5798"/>
</g>
<!-- Node16 -->
<g id="node17" class="node">
<title>Node16</title>
<g id="a_node17"><a xlink:href="class_c_k_finder___connector___command_handler___move_files.html" target="_top" xlink:title="{CKFinder_Connector\l_CommandHandler_MoveFiles\n|+ $command\l|+ buildXml()\l+ appendErrorNode()\l# buildXml()\l}">
<polygon fill="#ffffff" stroke="#000000" points="1965.8423,-15.5 1965.8423,-99.5 2119.6792,-99.5 2119.6792,-15.5 1965.8423,-15.5"/>
<text text-anchor="start" x="1973.8423" y="-87.5" font-family="Helvetica,sans-Serif" font-size="10.00" fill="#000000">CKFinder_Connector</text>
<text text-anchor="middle" x="2042.7607" y="-77.5" font-family="Helvetica,sans-Serif" font-size="10.00" fill="#000000">_CommandHandler_MoveFiles</text>
<polyline fill="none" stroke="#000000" points="1965.8423,-71.5 2119.6792,-71.5 "/>
<text text-anchor="start" x="1973.8423" y="-59.5" font-family="Helvetica,sans-Serif" font-size="10.00" fill="#000000">+ $command</text>
<polyline fill="none" stroke="#000000" points="1965.8423,-53.5 2119.6792,-53.5 "/>
<text text-anchor="start" x="1973.8423" y="-41.5" font-family="Helvetica,sans-Serif" font-size="10.00" fill="#000000">+ buildXml()</text>
<text text-anchor="start" x="1973.8423" y="-31.5" font-family="Helvetica,sans-Serif" font-size="10.00" fill="#000000">+ appendErrorNode()</text>
<text text-anchor="start" x="1973.8423" y="-21.5" font-family="Helvetica,sans-Serif" font-size="10.00" fill="#000000"># buildXml()</text>
</a>
</g>
</g>
<!-- Node5&#45;&gt;Node16 -->
<g id="edge27" class="edge">
<title>Node5&#45;&gt;Node16</title>
<path fill="none" stroke="#191970" d="M1234.8492,-215.8426C1419.8794,-200.6106 1818.5243,-163.7345 1947.7607,-115 1958.18,-111.071 1968.5967,-105.6724 1978.5288,-99.7466"/>
<polygon fill="none" stroke="#191970" points="1234.5369,-212.3564 1224.8561,-216.6613 1235.1086,-219.333 1234.5369,-212.3564"/>
</g>
<!-- Node5&#45;&gt;Node16 -->
<g id="edge28" class="edge">
<title>Node5&#45;&gt;Node16</title>
<path fill="none" stroke="#191970" d="M1235.0511,-216.6364C1423.5837,-201.9213 1834.2209,-164.6031 1965.7607,-115 1976.18,-111.071 1986.5967,-105.6724 1996.2731,-99.7466"/>
<polygon fill="none" stroke="#191970" points="1234.5729,-213.1629 1224.8735,-217.4256 1235.1141,-220.1419 1234.5729,-213.1629"/>
</g>
<!-- Node17 -->
<g id="node18" class="node">
<title>Node17</title>
<g id="a_node18"><a xlink:href="class_c_k_finder___connector___command_handler___rename_file.html" target="_top" xlink:title="{CKFinder_Connector\l_CommandHandler_RenameFile\n|+ $command\l|+ buildXml()\l# buildXml()\l}">
<polygon fill="#ffffff" stroke="#000000" points="2137.6699,-20.5 2137.6699,-94.5 2299.8516,-94.5 2299.8516,-20.5 2137.6699,-20.5"/>
<text text-anchor="start" x="2145.6699" y="-82.5" font-family="Helvetica,sans-Serif" font-size="10.00" fill="#000000">CKFinder_Connector</text>
<text text-anchor="middle" x="2218.7607" y="-72.5" font-family="Helvetica,sans-Serif" font-size="10.00" fill="#000000">_CommandHandler_RenameFile</text>
<polyline fill="none" stroke="#000000" points="2137.6699,-66.5 2299.8516,-66.5 "/>
<text text-anchor="start" x="2145.6699" y="-54.5" font-family="Helvetica,sans-Serif" font-size="10.00" fill="#000000">+ $command</text>
<polyline fill="none" stroke="#000000" points="2137.6699,-48.5 2299.8516,-48.5 "/>
<text text-anchor="start" x="2145.6699" y="-36.5" font-family="Helvetica,sans-Serif" font-size="10.00" fill="#000000">+ buildXml()</text>
<text text-anchor="start" x="2145.6699" y="-26.5" font-family="Helvetica,sans-Serif" font-size="10.00" fill="#000000"># buildXml()</text>
</a>
</g>
</g>
<!-- Node5&#45;&gt;Node17 -->
<g id="edge29" class="edge">
<title>Node5&#45;&gt;Node17</title>
<path fill="none" stroke="#191970" d="M1234.8725,-218.2844C1448.702,-206.0666 1957.4103,-172.218 2119.7607,-115 2133.7507,-110.0695 2147.7859,-102.6053 2160.7467,-94.6725"/>
<polygon fill="none" stroke="#191970" points="1234.3923,-214.806 1224.6068,-218.8673 1234.7891,-221.7947 1234.3923,-214.806"/>
</g>
<!-- Node5&#45;&gt;Node17 -->
<g id="edge30" class="edge">
<title>Node5&#45;&gt;Node17</title>
<path fill="none" stroke="#191970" d="M1234.7811,-218.8095C1451.6613,-207.0574 1973.0222,-173.0596 2137.7607,-115 2151.7507,-110.0695 2165.7859,-102.6053 2178.1974,-94.6725"/>
<polygon fill="none" stroke="#191970" points="1234.4838,-215.3204 1224.6862,-219.3524 1234.8598,-222.3103 1234.4838,-215.3204"/>
</g>
<!-- Node18 -->
<g id="node19" class="node">
<title>Node18</title>
<g id="a_node19"><a xlink:href="class_c_k_finder___connector___command_handler___rename_folder.html" target="_top" xlink:title="{CKFinder_Connector\l_CommandHandler_RenameFolder\n|+ $command\l|+ buildXml()\l# buildXml()\l}">
<polygon fill="#ffffff" stroke="#000000" points="2317.5542,-20.5 2317.5542,-94.5 2491.9673,-94.5 2491.9673,-20.5 2317.5542,-20.5"/>
<text text-anchor="start" x="2325.5542" y="-82.5" font-family="Helvetica,sans-Serif" font-size="10.00" fill="#000000">CKFinder_Connector</text>
<text text-anchor="middle" x="2404.7607" y="-72.5" font-family="Helvetica,sans-Serif" font-size="10.00" fill="#000000">_CommandHandler_RenameFolder</text>
<polyline fill="none" stroke="#000000" points="2317.5542,-66.5 2491.9673,-66.5 "/>
<text text-anchor="start" x="2325.5542" y="-54.5" font-family="Helvetica,sans-Serif" font-size="10.00" fill="#000000">+ $command</text>
<polyline fill="none" stroke="#000000" points="2317.5542,-48.5 2491.9673,-48.5 "/>
<text text-anchor="start" x="2325.5542" y="-36.5" font-family="Helvetica,sans-Serif" font-size="10.00" fill="#000000">+ buildXml()</text>
<text text-anchor="start" x="2325.5542" y="-26.5" font-family="Helvetica,sans-Serif" font-size="10.00" fill="#000000"># buildXml()</text>
</a>
</g>
</g>
<!-- Node5&#45;&gt;Node18 -->
<g id="edge31" class="edge">
<title>Node5&#45;&gt;Node18</title>
<path fill="none" stroke="#191970" d="M1234.8014,-219.9039C1476.0331,-210.1936 2101.9242,-179.6974 2299.7607,-115 2314.7176,-110.1087 2329.8204,-102.5562 2343.7645,-94.5162"/>
<polygon fill="none" stroke="#191970" points="1234.4993,-216.4131 1224.647,-220.3095 1234.7788,-223.4075 1234.4993,-216.4131"/>
</g>
<!-- Node5&#45;&gt;Node18 -->
<g id="edge32" class="edge">
<title>Node5&#45;&gt;Node18</title>
<path fill="none" stroke="#191970" d="M1235.2161,-220.23C1479.6145,-210.8889 2117.6543,-180.4397 2317.7607,-115 2332.7176,-110.1087 2347.8204,-102.5562 2361.1944,-94.5162"/>
<polygon fill="none" stroke="#191970" points="1234.7913,-216.7435 1224.931,-220.6195 1235.0563,-223.7384 1234.7913,-216.7435"/>
</g>
</g>
</svg>
