<?xml version="1.0" encoding="UTF-8" standalone="no"?>
<!DOCTYPE svg PUBLIC "-//W3C//DTD SVG 1.1//EN"
 "http://www.w3.org/Graphics/SVG/1.1/DTD/svg11.dtd">
<!-- Generated by graphviz version 2.40.1 (20161225.0304)
 -->
<!-- Title: Google_AppsServiceResource Pages: 1 -->
<svg width="161pt" height="194pt"
 viewBox="0.00 0.00 160.74 194.00" xmlns="http://www.w3.org/2000/svg" xmlns:xlink="http://www.w3.org/1999/xlink">
<g id="graph0" class="graph" transform="scale(1 1) rotate(0) translate(4 190)">
<title>Google_AppsServiceResource</title>
<polygon fill="#ffffff" stroke="transparent" points="-4,4 -4,-190 156.7432,-190 156.7432,4 -4,4"/>
<!-- Node0 -->
<g id="node1" class="node">
<title>Node0</title>
<polygon fill="#bfbfbf" stroke="#000000" points="0,-.5 0,-64.5 152.7432,-64.5 152.7432,-.5 0,-.5"/>
<text text-anchor="middle" x="76.3716" y="-52.5" font-family="Helvetica,sans-Serif" font-size="10.00" fill="#000000">Google_AppsServiceResource</text>
<polyline fill="none" stroke="#000000" points="0,-46.5 152.7432,-46.5 "/>
<text text-anchor="middle" x="76.3716" y="-34.5" font-family="Helvetica,sans-Serif" font-size="10.00" fill="#000000"> </text>
<polyline fill="none" stroke="#000000" points="0,-28.5 152.7432,-28.5 "/>
<text text-anchor="start" x="8" y="-16.5" font-family="Helvetica,sans-Serif" font-size="10.00" fill="#000000">+ get()</text>
<text text-anchor="start" x="8" y="-6.5" font-family="Helvetica,sans-Serif" font-size="10.00" fill="#000000">+ listApps()</text>
</g>
<!-- Node1 -->
<g id="node2" class="node">
<title>Node1</title>
<g id="a_node2"><a xlink:href="class_google___service_resource.html" target="_top" xlink:title="{Google_ServiceResource\n||+ __construct()\l+ __call()\l+ useObjects()\l# stripNull()\l}">
<polygon fill="#ffffff" stroke="#000000" points="11.3965,-101.5 11.3965,-185.5 141.3467,-185.5 141.3467,-101.5 11.3965,-101.5"/>
<text text-anchor="middle" x="76.3716" y="-173.5" font-family="Helvetica,sans-Serif" font-size="10.00" fill="#000000">Google_ServiceResource</text>
<polyline fill="none" stroke="#000000" points="11.3965,-167.5 141.3467,-167.5 "/>
<text text-anchor="middle" x="76.3716" y="-155.5" font-family="Helvetica,sans-Serif" font-size="10.00" fill="#000000"> </text>
<polyline fill="none" stroke="#000000" points="11.3965,-149.5 141.3467,-149.5 "/>
<text text-anchor="start" x="19.3965" y="-137.5" font-family="Helvetica,sans-Serif" font-size="10.00" fill="#000000">+ __construct()</text>
<text text-anchor="start" x="19.3965" y="-127.5" font-family="Helvetica,sans-Serif" font-size="10.00" fill="#000000">+ __call()</text>
<text text-anchor="start" x="19.3965" y="-117.5" font-family="Helvetica,sans-Serif" font-size="10.00" fill="#000000">+ useObjects()</text>
<text text-anchor="start" x="19.3965" y="-107.5" font-family="Helvetica,sans-Serif" font-size="10.00" fill="#000000"># stripNull()</text>
</a>
</g>
</g>
<!-- Node1&#45;&gt;Node0 -->
<g id="edge1" class="edge">
<title>Node1&#45;&gt;Node0</title>
<path fill="none" stroke="#191970" d="M76.3716,-91.1185C76.3716,-82.0854 76.3716,-72.9418 76.3716,-64.6489"/>
<polygon fill="none" stroke="#191970" points="72.8717,-91.219 76.3716,-101.219 79.8717,-91.219 72.8717,-91.219"/>
</g>
</g>
</svg>
