<?xml version="1.0" encoding="UTF-8" standalone="no"?>
<!DOCTYPE svg PUBLIC "-//W3C//DTD SVG 1.1//EN"
 "http://www.w3.org/Graphics/SVG/1.1/DTD/svg11.dtd">
<!-- Generated by graphviz version 2.40.1 (20161225.0304)
 -->
<!-- Title: Google_CreativesServiceResource Pages: 1 -->
<svg width="180pt" height="204pt"
 viewBox="0.00 0.00 180.19 204.00" xmlns="http://www.w3.org/2000/svg" xmlns:xlink="http://www.w3.org/1999/xlink">
<g id="graph0" class="graph" transform="scale(1 1) rotate(0) translate(4 200)">
<title>Google_CreativesServiceResource</title>
<polygon fill="#ffffff" stroke="transparent" points="-4,4 -4,-200 176.1865,-200 176.1865,4 -4,4"/>
<!-- Node0 -->
<g id="node1" class="node">
<title>Node0</title>
<polygon fill="#bfbfbf" stroke="#000000" points="0,-.5 0,-74.5 172.1865,-74.5 172.1865,-.5 0,-.5"/>
<text text-anchor="middle" x="86.0933" y="-62.5" font-family="Helvetica,sans-Serif" font-size="10.00" fill="#000000">Google_CreativesServiceResource</text>
<polyline fill="none" stroke="#000000" points="0,-56.5 172.1865,-56.5 "/>
<text text-anchor="middle" x="86.0933" y="-44.5" font-family="Helvetica,sans-Serif" font-size="10.00" fill="#000000"> </text>
<polyline fill="none" stroke="#000000" points="0,-38.5 172.1865,-38.5 "/>
<text text-anchor="start" x="8" y="-26.5" font-family="Helvetica,sans-Serif" font-size="10.00" fill="#000000">+ get()</text>
<text text-anchor="start" x="8" y="-16.5" font-family="Helvetica,sans-Serif" font-size="10.00" fill="#000000">+ insert()</text>
<text text-anchor="start" x="8" y="-6.5" font-family="Helvetica,sans-Serif" font-size="10.00" fill="#000000">+ listCreatives()</text>
</g>
<!-- Node1 -->
<g id="node2" class="node">
<title>Node1</title>
<g id="a_node2"><a xlink:href="class_google___service_resource.html" target="_top" xlink:title="{Google_ServiceResource\n||+ __construct()\l+ __call()\l+ useObjects()\l# stripNull()\l}">
<polygon fill="#ffffff" stroke="#000000" points="21.1182,-111.5 21.1182,-195.5 151.0684,-195.5 151.0684,-111.5 21.1182,-111.5"/>
<text text-anchor="middle" x="86.0933" y="-183.5" font-family="Helvetica,sans-Serif" font-size="10.00" fill="#000000">Google_ServiceResource</text>
<polyline fill="none" stroke="#000000" points="21.1182,-177.5 151.0684,-177.5 "/>
<text text-anchor="middle" x="86.0933" y="-165.5" font-family="Helvetica,sans-Serif" font-size="10.00" fill="#000000"> </text>
<polyline fill="none" stroke="#000000" points="21.1182,-159.5 151.0684,-159.5 "/>
<text text-anchor="start" x="29.1182" y="-147.5" font-family="Helvetica,sans-Serif" font-size="10.00" fill="#000000">+ __construct()</text>
<text text-anchor="start" x="29.1182" y="-137.5" font-family="Helvetica,sans-Serif" font-size="10.00" fill="#000000">+ __call()</text>
<text text-anchor="start" x="29.1182" y="-127.5" font-family="Helvetica,sans-Serif" font-size="10.00" fill="#000000">+ useObjects()</text>
<text text-anchor="start" x="29.1182" y="-117.5" font-family="Helvetica,sans-Serif" font-size="10.00" fill="#000000"># stripNull()</text>
</a>
</g>
</g>
<!-- Node1&#45;&gt;Node0 -->
<g id="edge1" class="edge">
<title>Node1&#45;&gt;Node0</title>
<path fill="none" stroke="#191970" d="M86.0933,-101.0572C86.0933,-92.2275 86.0933,-83.2244 86.0933,-74.8766"/>
<polygon fill="none" stroke="#191970" points="82.5934,-101.2932 86.0933,-111.2932 89.5934,-101.2932 82.5934,-101.2932"/>
</g>
</g>
</svg>
