<?xml version="1.0" encoding="UTF-8" standalone="no"?>
<!DOCTYPE svg PUBLIC "-//W3C//DTD SVG 1.1//EN"
 "http://www.w3.org/Graphics/SVG/1.1/DTD/svg11.dtd">
<!-- Generated by graphviz version 2.40.1 (20161225.0304)
 -->
<!-- Title: Google_CommentPlusoners Pages: 1 -->
<svg width="150pt" height="224pt"
 viewBox="0.00 0.00 149.62 224.00" xmlns="http://www.w3.org/2000/svg" xmlns:xlink="http://www.w3.org/1999/xlink">
<g id="graph0" class="graph" transform="scale(1 1) rotate(0) translate(4 220)">
<title>Google_CommentPlusoners</title>
<polygon fill="#ffffff" stroke="transparent" points="-4,4 -4,-220 145.6201,-220 145.6201,4 -4,4"/>
<!-- Node2 -->
<g id="node1" class="node">
<title>Node2</title>
<polygon fill="#bfbfbf" stroke="#000000" points="0,-.5 0,-84.5 141.6201,-84.5 141.6201,-.5 0,-.5"/>
<text text-anchor="middle" x="70.8101" y="-72.5" font-family="Helvetica,sans-Serif" font-size="10.00" fill="#000000">Google_CommentPlusoners</text>
<polyline fill="none" stroke="#000000" points="0,-66.5 141.6201,-66.5 "/>
<text text-anchor="start" x="8" y="-54.5" font-family="Helvetica,sans-Serif" font-size="10.00" fill="#000000">+ $totalItems</text>
<polyline fill="none" stroke="#000000" points="0,-48.5 141.6201,-48.5 "/>
<text text-anchor="start" x="8" y="-36.5" font-family="Helvetica,sans-Serif" font-size="10.00" fill="#000000">+ setTotalItems()</text>
<text text-anchor="start" x="8" y="-26.5" font-family="Helvetica,sans-Serif" font-size="10.00" fill="#000000">+ getTotalItems()</text>
<text text-anchor="start" x="8" y="-16.5" font-family="Helvetica,sans-Serif" font-size="10.00" fill="#000000">+ setTotalItems()</text>
<text text-anchor="start" x="8" y="-6.5" font-family="Helvetica,sans-Serif" font-size="10.00" fill="#000000">+ getTotalItems()</text>
</g>
<!-- Node3 -->
<g id="node2" class="node">
<title>Node3</title>
<g id="a_node2"><a xlink:href="class_google___model.html" target="_top" xlink:title="{Google_Model\n||+ __construct()\l+ assertIsArray()\l# mapTypes()\l# isAssociativeArray()\l# useObjects()\l}">
<polygon fill="#ffffff" stroke="#000000" points="14.4653,-121.5 14.4653,-215.5 127.1548,-215.5 127.1548,-121.5 14.4653,-121.5"/>
<text text-anchor="middle" x="70.8101" y="-203.5" font-family="Helvetica,sans-Serif" font-size="10.00" fill="#000000">Google_Model</text>
<polyline fill="none" stroke="#000000" points="14.4653,-197.5 127.1548,-197.5 "/>
<text text-anchor="middle" x="70.8101" y="-185.5" font-family="Helvetica,sans-Serif" font-size="10.00" fill="#000000"> </text>
<polyline fill="none" stroke="#000000" points="14.4653,-179.5 127.1548,-179.5 "/>
<text text-anchor="start" x="22.4653" y="-167.5" font-family="Helvetica,sans-Serif" font-size="10.00" fill="#000000">+ __construct()</text>
<text text-anchor="start" x="22.4653" y="-157.5" font-family="Helvetica,sans-Serif" font-size="10.00" fill="#000000">+ assertIsArray()</text>
<text text-anchor="start" x="22.4653" y="-147.5" font-family="Helvetica,sans-Serif" font-size="10.00" fill="#000000"># mapTypes()</text>
<text text-anchor="start" x="22.4653" y="-137.5" font-family="Helvetica,sans-Serif" font-size="10.00" fill="#000000"># isAssociativeArray()</text>
<text text-anchor="start" x="22.4653" y="-127.5" font-family="Helvetica,sans-Serif" font-size="10.00" fill="#000000"># useObjects()</text>
</a>
</g>
</g>
<!-- Node3&#45;&gt;Node2 -->
<g id="edge1" class="edge">
<title>Node3&#45;&gt;Node2</title>
<path fill="none" stroke="#191970" d="M64.0825,-110.9387C64.0093,-102.0848 64.1152,-93.0866 64.3999,-84.6505"/>
<polygon fill="none" stroke="#191970" points="60.5875,-111.2823 64.2505,-121.2238 67.5866,-111.1679 60.5875,-111.2823"/>
</g>
<!-- Node3&#45;&gt;Node2 -->
<g id="edge2" class="edge">
<title>Node3&#45;&gt;Node2</title>
<path fill="none" stroke="#191970" d="M77.5377,-110.9387C77.6108,-102.0848 77.5049,-93.0866 77.2202,-84.6505"/>
<polygon fill="none" stroke="#191970" points="74.0335,-111.1679 77.3696,-121.2238 81.0326,-111.2823 74.0335,-111.1679"/>
</g>
</g>
</svg>
