<?xml version="1.0" encoding="UTF-8" standalone="no"?>
<!DOCTYPE svg PUBLIC "-//W3C//DTD SVG 1.1//EN"
 "http://www.w3.org/Graphics/SVG/1.1/DTD/svg11.dtd">
<!-- Generated by graphviz version 2.40.1 (20161225.0304)
 -->
<!-- Title: Google_BucketLogging Pages: 1 -->
<svg width="128pt" height="234pt"
 viewBox="0.00 0.00 127.97 234.00" xmlns="http://www.w3.org/2000/svg" xmlns:xlink="http://www.w3.org/1999/xlink">
<g id="graph0" class="graph" transform="scale(1 1) rotate(0) translate(4 230)">
<title>Google_BucketLogging</title>
<polygon fill="#ffffff" stroke="transparent" points="-4,4 -4,-230 123.9697,-230 123.9697,4 -4,4"/>
<!-- Node2 -->
<g id="node1" class="node">
<title>Node2</title>
<polygon fill="#bfbfbf" stroke="#000000" points="0,-.5 0,-94.5 119.9697,-94.5 119.9697,-.5 0,-.5"/>
<text text-anchor="middle" x="59.9849" y="-82.5" font-family="Helvetica,sans-Serif" font-size="10.00" fill="#000000">Google_BucketLogging</text>
<polyline fill="none" stroke="#000000" points="0,-76.5 119.9697,-76.5 "/>
<text text-anchor="start" x="8" y="-64.5" font-family="Helvetica,sans-Serif" font-size="10.00" fill="#000000">+ $logBucket</text>
<text text-anchor="start" x="8" y="-54.5" font-family="Helvetica,sans-Serif" font-size="10.00" fill="#000000">+ $logObjectPrefix</text>
<polyline fill="none" stroke="#000000" points="0,-48.5 119.9697,-48.5 "/>
<text text-anchor="start" x="8" y="-36.5" font-family="Helvetica,sans-Serif" font-size="10.00" fill="#000000">+ setLogBucket()</text>
<text text-anchor="start" x="8" y="-26.5" font-family="Helvetica,sans-Serif" font-size="10.00" fill="#000000">+ getLogBucket()</text>
<text text-anchor="start" x="8" y="-16.5" font-family="Helvetica,sans-Serif" font-size="10.00" fill="#000000">+ setLogObjectPrefix()</text>
<text text-anchor="start" x="8" y="-6.5" font-family="Helvetica,sans-Serif" font-size="10.00" fill="#000000">+ getLogObjectPrefix()</text>
</g>
<!-- Node3 -->
<g id="node2" class="node">
<title>Node3</title>
<g id="a_node2"><a xlink:href="class_google___model.html" target="_top" xlink:title="{Google_Model\n||+ __construct()\l+ assertIsArray()\l# mapTypes()\l# isAssociativeArray()\l# useObjects()\l}">
<polygon fill="#ffffff" stroke="#000000" points="3.6401,-131.5 3.6401,-225.5 116.3296,-225.5 116.3296,-131.5 3.6401,-131.5"/>
<text text-anchor="middle" x="59.9849" y="-213.5" font-family="Helvetica,sans-Serif" font-size="10.00" fill="#000000">Google_Model</text>
<polyline fill="none" stroke="#000000" points="3.6401,-207.5 116.3296,-207.5 "/>
<text text-anchor="middle" x="59.9849" y="-195.5" font-family="Helvetica,sans-Serif" font-size="10.00" fill="#000000"> </text>
<polyline fill="none" stroke="#000000" points="3.6401,-189.5 116.3296,-189.5 "/>
<text text-anchor="start" x="11.6401" y="-177.5" font-family="Helvetica,sans-Serif" font-size="10.00" fill="#000000">+ __construct()</text>
<text text-anchor="start" x="11.6401" y="-167.5" font-family="Helvetica,sans-Serif" font-size="10.00" fill="#000000">+ assertIsArray()</text>
<text text-anchor="start" x="11.6401" y="-157.5" font-family="Helvetica,sans-Serif" font-size="10.00" fill="#000000"># mapTypes()</text>
<text text-anchor="start" x="11.6401" y="-147.5" font-family="Helvetica,sans-Serif" font-size="10.00" fill="#000000"># isAssociativeArray()</text>
<text text-anchor="start" x="11.6401" y="-137.5" font-family="Helvetica,sans-Serif" font-size="10.00" fill="#000000"># useObjects()</text>
</a>
</g>
</g>
<!-- Node3&#45;&gt;Node2 -->
<g id="edge1" class="edge">
<title>Node3&#45;&gt;Node2</title>
<path fill="none" stroke="#191970" d="M59.9849,-121.0214C59.9849,-112.2362 59.9849,-103.2556 59.9849,-94.7246"/>
<polygon fill="none" stroke="#191970" points="56.485,-121.206 59.9849,-131.206 63.485,-121.206 56.485,-121.206"/>
</g>
</g>
</svg>
