<?xml version="1.0" encoding="UTF-8" standalone="no"?>
<!DOCTYPE svg PUBLIC "-//W3C//DTD SVG 1.1//EN"
 "http://www.w3.org/Graphics/SVG/1.1/DTD/svg11.dtd">
<!-- Generated by graphviz version 2.40.1 (20161225.0304)
 -->
<!-- Title: Google_ColorsServiceResource Pages: 1 -->
<svg width="167pt" height="184pt"
 viewBox="0.00 0.00 166.85 184.00" xmlns="http://www.w3.org/2000/svg" xmlns:xlink="http://www.w3.org/1999/xlink">
<g id="graph0" class="graph" transform="scale(1 1) rotate(0) translate(4 180)">
<title>Google_ColorsServiceResource</title>
<polygon fill="#ffffff" stroke="transparent" points="-4,4 -4,-180 162.8467,-180 162.8467,4 -4,4"/>
<!-- Node2 -->
<g id="node1" class="node">
<title>Node2</title>
<polygon fill="#bfbfbf" stroke="#000000" points="0,-.5 0,-54.5 158.8467,-54.5 158.8467,-.5 0,-.5"/>
<text text-anchor="middle" x="79.4233" y="-42.5" font-family="Helvetica,sans-Serif" font-size="10.00" fill="#000000">Google_ColorsServiceResource</text>
<polyline fill="none" stroke="#000000" points="0,-36.5 158.8467,-36.5 "/>
<text text-anchor="middle" x="79.4233" y="-24.5" font-family="Helvetica,sans-Serif" font-size="10.00" fill="#000000"> </text>
<polyline fill="none" stroke="#000000" points="0,-18.5 158.8467,-18.5 "/>
<text text-anchor="start" x="8" y="-6.5" font-family="Helvetica,sans-Serif" font-size="10.00" fill="#000000">+ get()</text>
</g>
<!-- Node3 -->
<g id="node2" class="node">
<title>Node3</title>
<g id="a_node2"><a xlink:href="class_google___service_resource.html" target="_top" xlink:title="{Google_ServiceResource\n||+ __construct()\l+ __call()\l+ useObjects()\l# stripNull()\l}">
<polygon fill="#ffffff" stroke="#000000" points="14.4482,-91.5 14.4482,-175.5 144.3984,-175.5 144.3984,-91.5 14.4482,-91.5"/>
<text text-anchor="middle" x="79.4233" y="-163.5" font-family="Helvetica,sans-Serif" font-size="10.00" fill="#000000">Google_ServiceResource</text>
<polyline fill="none" stroke="#000000" points="14.4482,-157.5 144.3984,-157.5 "/>
<text text-anchor="middle" x="79.4233" y="-145.5" font-family="Helvetica,sans-Serif" font-size="10.00" fill="#000000"> </text>
<polyline fill="none" stroke="#000000" points="14.4482,-139.5 144.3984,-139.5 "/>
<text text-anchor="start" x="22.4482" y="-127.5" font-family="Helvetica,sans-Serif" font-size="10.00" fill="#000000">+ __construct()</text>
<text text-anchor="start" x="22.4482" y="-117.5" font-family="Helvetica,sans-Serif" font-size="10.00" fill="#000000">+ __call()</text>
<text text-anchor="start" x="22.4482" y="-107.5" font-family="Helvetica,sans-Serif" font-size="10.00" fill="#000000">+ useObjects()</text>
<text text-anchor="start" x="22.4482" y="-97.5" font-family="Helvetica,sans-Serif" font-size="10.00" fill="#000000"># stripNull()</text>
</a>
</g>
</g>
<!-- Node3&#45;&gt;Node2 -->
<g id="edge1" class="edge">
<title>Node3&#45;&gt;Node2</title>
<path fill="none" stroke="#191970" d="M79.4233,-81.041C79.4233,-71.8936 79.4233,-62.7248 79.4233,-54.6245"/>
<polygon fill="none" stroke="#191970" points="75.9234,-81.3014 79.4233,-91.3014 82.9234,-81.3015 75.9234,-81.3014"/>
</g>
</g>
</svg>
