<?xml version="1.0" encoding="UTF-8" standalone="no"?>
<!DOCTYPE svg PUBLIC "-//W3C//DTD SVG 1.1//EN"
 "http://www.w3.org/Graphics/SVG/1.1/DTD/svg11.dtd">
<!-- Generated by graphviz version 2.40.1 (20161225.0304)
 -->
<!-- Title: Google_AccountsServiceResource Pages: 1 -->
<svg width="179pt" height="254pt"
 viewBox="0.00 0.00 179.08 254.00" xmlns="http://www.w3.org/2000/svg" xmlns:xlink="http://www.w3.org/1999/xlink">
<g id="graph0" class="graph" transform="scale(1 1) rotate(0) translate(4 250)">
<title>Google_AccountsServiceResource</title>
<polygon fill="#ffffff" stroke="transparent" points="-4,4 -4,-250 175.083,-250 175.083,4 -4,4"/>
<!-- Node0 -->
<g id="node1" class="node">
<title>Node0</title>
<polygon fill="#bfbfbf" stroke="#000000" points="0,-.5 0,-124.5 171.083,-124.5 171.083,-.5 0,-.5"/>
<text text-anchor="middle" x="85.5415" y="-112.5" font-family="Helvetica,sans-Serif" font-size="10.00" fill="#000000">Google_AccountsServiceResource</text>
<polyline fill="none" stroke="#000000" points="0,-106.5 171.083,-106.5 "/>
<text text-anchor="middle" x="85.5415" y="-94.5" font-family="Helvetica,sans-Serif" font-size="10.00" fill="#000000"> </text>
<polyline fill="none" stroke="#000000" points="0,-88.5 171.083,-88.5 "/>
<text text-anchor="start" x="8" y="-76.5" font-family="Helvetica,sans-Serif" font-size="10.00" fill="#000000">+ get()</text>
<text text-anchor="start" x="8" y="-66.5" font-family="Helvetica,sans-Serif" font-size="10.00" fill="#000000">+ listAccounts()</text>
<text text-anchor="start" x="8" y="-56.5" font-family="Helvetica,sans-Serif" font-size="10.00" fill="#000000">+ patch()</text>
<text text-anchor="start" x="8" y="-46.5" font-family="Helvetica,sans-Serif" font-size="10.00" fill="#000000">+ update()</text>
<text text-anchor="start" x="8" y="-36.5" font-family="Helvetica,sans-Serif" font-size="10.00" fill="#000000">+ get()</text>
<text text-anchor="start" x="8" y="-26.5" font-family="Helvetica,sans-Serif" font-size="10.00" fill="#000000">+ listAccounts()</text>
<text text-anchor="start" x="8" y="-16.5" font-family="Helvetica,sans-Serif" font-size="10.00" fill="#000000">+ get()</text>
<text text-anchor="start" x="8" y="-6.5" font-family="Helvetica,sans-Serif" font-size="10.00" fill="#000000">+ listAccounts()</text>
</g>
<!-- Node1 -->
<g id="node2" class="node">
<title>Node1</title>
<g id="a_node2"><a xlink:href="class_google___service_resource.html" target="_top" xlink:title="{Google_ServiceResource\n||+ __construct()\l+ __call()\l+ useObjects()\l# stripNull()\l}">
<polygon fill="#ffffff" stroke="#000000" points="20.5664,-161.5 20.5664,-245.5 150.5166,-245.5 150.5166,-161.5 20.5664,-161.5"/>
<text text-anchor="middle" x="85.5415" y="-233.5" font-family="Helvetica,sans-Serif" font-size="10.00" fill="#000000">Google_ServiceResource</text>
<polyline fill="none" stroke="#000000" points="20.5664,-227.5 150.5166,-227.5 "/>
<text text-anchor="middle" x="85.5415" y="-215.5" font-family="Helvetica,sans-Serif" font-size="10.00" fill="#000000"> </text>
<polyline fill="none" stroke="#000000" points="20.5664,-209.5 150.5166,-209.5 "/>
<text text-anchor="start" x="28.5664" y="-197.5" font-family="Helvetica,sans-Serif" font-size="10.00" fill="#000000">+ __construct()</text>
<text text-anchor="start" x="28.5664" y="-187.5" font-family="Helvetica,sans-Serif" font-size="10.00" fill="#000000">+ __call()</text>
<text text-anchor="start" x="28.5664" y="-177.5" font-family="Helvetica,sans-Serif" font-size="10.00" fill="#000000">+ useObjects()</text>
<text text-anchor="start" x="28.5664" y="-167.5" font-family="Helvetica,sans-Serif" font-size="10.00" fill="#000000"># stripNull()</text>
</a>
</g>
</g>
<!-- Node1&#45;&gt;Node0 -->
<g id="edge1" class="edge">
<title>Node1&#45;&gt;Node0</title>
<path fill="none" stroke="#191970" d="M72.4379,-150.9426C72.0506,-142.3515 71.9471,-133.3797 72.1273,-124.5851"/>
<polygon fill="none" stroke="#191970" points="68.9602,-151.4221 73.0509,-161.1954 75.9477,-151.0043 68.9602,-151.4221"/>
</g>
<!-- Node1&#45;&gt;Node0 -->
<g id="edge2" class="edge">
<title>Node1&#45;&gt;Node0</title>
<path fill="none" stroke="#191970" d="M85.5415,-150.9426C85.5415,-142.3515 85.5415,-133.3797 85.5415,-124.5851"/>
<polygon fill="none" stroke="#191970" points="82.0416,-151.1953 85.5415,-161.1954 89.0416,-151.1954 82.0416,-151.1953"/>
</g>
<!-- Node1&#45;&gt;Node0 -->
<g id="edge3" class="edge">
<title>Node1&#45;&gt;Node0</title>
<path fill="none" stroke="#191970" d="M98.6451,-150.9426C99.0324,-142.3515 99.1359,-133.3797 98.9557,-124.5851"/>
<polygon fill="none" stroke="#191970" points="95.1353,-151.0043 98.0321,-161.1954 102.1228,-151.4221 95.1353,-151.0043"/>
</g>
</g>
</svg>
