<?xml version="1.0" encoding="UTF-8" standalone="no"?>
<!DOCTYPE svg PUBLIC "-//W3C//DTD SVG 1.1//EN"
 "http://www.w3.org/Graphics/SVG/1.1/DTD/svg11.dtd">
<!-- Generated by graphviz version 2.40.1 (20161225.0304)
 -->
<!-- Title: Swift_DependencyException Pages: 1 -->
<svg width="151pt" height="245pt"
 viewBox="0.00 0.00 151.30 245.00" xmlns="http://www.w3.org/2000/svg" xmlns:xlink="http://www.w3.org/1999/xlink">
<g id="graph0" class="graph" transform="scale(1 1) rotate(0) translate(4 241)">
<title>Swift_DependencyException</title>
<polygon fill="#ffffff" stroke="transparent" points="-4,4 -4,-241 147.2998,-241 147.2998,4 -4,4"/>
<!-- Node3 -->
<g id="node1" class="node">
<title>Node3</title>
<polygon fill="#bfbfbf" stroke="#000000" points="0,-.5 0,-54.5 143.2998,-54.5 143.2998,-.5 0,-.5"/>
<text text-anchor="middle" x="71.6499" y="-42.5" font-family="Helvetica,sans-Serif" font-size="10.00" fill="#000000">Swift_DependencyException</text>
<polyline fill="none" stroke="#000000" points="0,-36.5 143.2998,-36.5 "/>
<text text-anchor="middle" x="71.6499" y="-24.5" font-family="Helvetica,sans-Serif" font-size="10.00" fill="#000000"> </text>
<polyline fill="none" stroke="#000000" points="0,-18.5 143.2998,-18.5 "/>
<text text-anchor="start" x="8" y="-6.5" font-family="Helvetica,sans-Serif" font-size="10.00" fill="#000000">+ __construct()</text>
</g>
<!-- Node4 -->
<g id="node2" class="node">
<title>Node4</title>
<g id="a_node2"><a xlink:href="class_swift___swift_exception.html" target="_top" xlink:title="{Swift_SwiftException\n||+ __construct()\l}">
<polygon fill="#ffffff" stroke="#000000" points="17.2412,-91.5 17.2412,-145.5 126.0586,-145.5 126.0586,-91.5 17.2412,-91.5"/>
<text text-anchor="middle" x="71.6499" y="-133.5" font-family="Helvetica,sans-Serif" font-size="10.00" fill="#000000">Swift_SwiftException</text>
<polyline fill="none" stroke="#000000" points="17.2412,-127.5 126.0586,-127.5 "/>
<text text-anchor="middle" x="71.6499" y="-115.5" font-family="Helvetica,sans-Serif" font-size="10.00" fill="#000000"> </text>
<polyline fill="none" stroke="#000000" points="17.2412,-109.5 126.0586,-109.5 "/>
<text text-anchor="start" x="25.2412" y="-97.5" font-family="Helvetica,sans-Serif" font-size="10.00" fill="#000000">+ __construct()</text>
</a>
</g>
</g>
<!-- Node4&#45;&gt;Node3 -->
<g id="edge1" class="edge">
<title>Node4&#45;&gt;Node3</title>
<path fill="none" stroke="#191970" d="M71.6499,-81.12C71.6499,-72.3006 71.6499,-63.0605 71.6499,-54.7837"/>
<polygon fill="none" stroke="#191970" points="68.15,-81.197 71.6499,-91.197 75.15,-81.197 68.15,-81.197"/>
</g>
<!-- Node5 -->
<g id="node3" class="node">
<title>Node5</title>
<polygon fill="#ffffff" stroke="#bfbfbf" points="41.6919,-182.5 41.6919,-236.5 101.6079,-236.5 101.6079,-182.5 41.6919,-182.5"/>
<text text-anchor="middle" x="71.6499" y="-224.5" font-family="Helvetica,sans-Serif" font-size="10.00" fill="#000000">Exception</text>
<polyline fill="none" stroke="#bfbfbf" points="41.6919,-218.5 101.6079,-218.5 "/>
<text text-anchor="middle" x="71.6499" y="-206.5" font-family="Helvetica,sans-Serif" font-size="10.00" fill="#000000"> </text>
<polyline fill="none" stroke="#bfbfbf" points="41.6919,-200.5 101.6079,-200.5 "/>
<text text-anchor="middle" x="71.6499" y="-188.5" font-family="Helvetica,sans-Serif" font-size="10.00" fill="#000000"> </text>
</g>
<!-- Node5&#45;&gt;Node4 -->
<g id="edge2" class="edge">
<title>Node5&#45;&gt;Node4</title>
<path fill="none" stroke="#191970" d="M71.6499,-172.12C71.6499,-163.3006 71.6499,-154.0605 71.6499,-145.7837"/>
<polygon fill="none" stroke="#191970" points="68.15,-172.197 71.6499,-182.197 75.15,-172.197 68.15,-172.197"/>
</g>
</g>
</svg>
