<?xml version="1.0" encoding="UTF-8" standalone="no"?>
<!DOCTYPE svg PUBLIC "-//W3C//DTD SVG 1.1//EN"
 "http://www.w3.org/Graphics/SVG/1.1/DTD/svg11.dtd">
<!-- Generated by graphviz version 2.40.1 (20161225.0304)
 -->
<!-- Title: Google_Dimension Pages: 1 -->
<svg width="121pt" height="234pt"
 viewBox="0.00 0.00 120.69 234.00" xmlns="http://www.w3.org/2000/svg" xmlns:xlink="http://www.w3.org/1999/xlink">
<g id="graph0" class="graph" transform="scale(1 1) rotate(0) translate(4 230)">
<title>Google_Dimension</title>
<polygon fill="#ffffff" stroke="transparent" points="-4,4 -4,-230 116.6895,-230 116.6895,4 -4,4"/>
<!-- Node0 -->
<g id="node1" class="node">
<title>Node0</title>
<polygon fill="#bfbfbf" stroke="#000000" points="5.8203,-.5 5.8203,-94.5 106.8691,-94.5 106.8691,-.5 5.8203,-.5"/>
<text text-anchor="middle" x="56.3447" y="-82.5" font-family="Helvetica,sans-Serif" font-size="10.00" fill="#000000">Google_Dimension</text>
<polyline fill="none" stroke="#000000" points="5.8203,-76.5 106.8691,-76.5 "/>
<text text-anchor="start" x="13.8203" y="-64.5" font-family="Helvetica,sans-Serif" font-size="10.00" fill="#000000">+ $kind</text>
<text text-anchor="start" x="13.8203" y="-54.5" font-family="Helvetica,sans-Serif" font-size="10.00" fill="#000000">+ $name</text>
<polyline fill="none" stroke="#000000" points="5.8203,-48.5 106.8691,-48.5 "/>
<text text-anchor="start" x="13.8203" y="-36.5" font-family="Helvetica,sans-Serif" font-size="10.00" fill="#000000">+ setKind()</text>
<text text-anchor="start" x="13.8203" y="-26.5" font-family="Helvetica,sans-Serif" font-size="10.00" fill="#000000">+ getKind()</text>
<text text-anchor="start" x="13.8203" y="-16.5" font-family="Helvetica,sans-Serif" font-size="10.00" fill="#000000">+ setName()</text>
<text text-anchor="start" x="13.8203" y="-6.5" font-family="Helvetica,sans-Serif" font-size="10.00" fill="#000000">+ getName()</text>
</g>
<!-- Node1 -->
<g id="node2" class="node">
<title>Node1</title>
<g id="a_node2"><a xlink:href="class_google___model.html" target="_top" xlink:title="{Google_Model\n||+ __construct()\l+ assertIsArray()\l# mapTypes()\l# isAssociativeArray()\l# useObjects()\l}">
<polygon fill="#ffffff" stroke="#000000" points="0,-131.5 0,-225.5 112.6895,-225.5 112.6895,-131.5 0,-131.5"/>
<text text-anchor="middle" x="56.3447" y="-213.5" font-family="Helvetica,sans-Serif" font-size="10.00" fill="#000000">Google_Model</text>
<polyline fill="none" stroke="#000000" points="0,-207.5 112.6895,-207.5 "/>
<text text-anchor="middle" x="56.3447" y="-195.5" font-family="Helvetica,sans-Serif" font-size="10.00" fill="#000000"> </text>
<polyline fill="none" stroke="#000000" points="0,-189.5 112.6895,-189.5 "/>
<text text-anchor="start" x="8" y="-177.5" font-family="Helvetica,sans-Serif" font-size="10.00" fill="#000000">+ __construct()</text>
<text text-anchor="start" x="8" y="-167.5" font-family="Helvetica,sans-Serif" font-size="10.00" fill="#000000">+ assertIsArray()</text>
<text text-anchor="start" x="8" y="-157.5" font-family="Helvetica,sans-Serif" font-size="10.00" fill="#000000"># mapTypes()</text>
<text text-anchor="start" x="8" y="-147.5" font-family="Helvetica,sans-Serif" font-size="10.00" fill="#000000"># isAssociativeArray()</text>
<text text-anchor="start" x="8" y="-137.5" font-family="Helvetica,sans-Serif" font-size="10.00" fill="#000000"># useObjects()</text>
</a>
</g>
</g>
<!-- Node1&#45;&gt;Node0 -->
<g id="edge1" class="edge">
<title>Node1&#45;&gt;Node0</title>
<path fill="none" stroke="#191970" d="M56.3447,-121.0214C56.3447,-112.2362 56.3447,-103.2556 56.3447,-94.7246"/>
<polygon fill="none" stroke="#191970" points="52.8448,-121.206 56.3447,-131.206 59.8448,-121.206 52.8448,-121.206"/>
</g>
</g>
</svg>
