<?xml version="1.0" encoding="UTF-8" standalone="no"?>
<!DOCTYPE svg PUBLIC "-//W3C//DTD SVG 1.1//EN"
 "http://www.w3.org/Graphics/SVG/1.1/DTD/svg11.dtd">
<!-- Generated by graphviz version 2.40.1 (20161225.0304)
 -->
<!-- Title: Swift_Mime_ContentEncoder_Base64ContentEncoder Pages: 1 -->
<svg width="328pt" height="366pt"
 viewBox="0.00 0.00 328.35 366.00" xmlns="http://www.w3.org/2000/svg" xmlns:xlink="http://www.w3.org/1999/xlink">
<g id="graph0" class="graph" transform="scale(1 1) rotate(0) translate(4 362)">
<title>Swift_Mime_ContentEncoder_Base64ContentEncoder</title>
<polygon fill="#ffffff" stroke="transparent" points="-4,4 -4,-362 324.354,-362 324.354,4 -4,4"/>
<!-- Node0 -->
<g id="node1" class="node">
<title>Node0</title>
<polygon fill="#bfbfbf" stroke="#000000" points="89.8472,-.5 89.8472,-74.5 235.354,-74.5 235.354,-.5 89.8472,-.5"/>
<text text-anchor="start" x="97.8472" y="-62.5" font-family="Helvetica,sans-Serif" font-size="10.00" fill="#000000">Swift_Mime_ContentEncoder</text>
<text text-anchor="middle" x="162.6006" y="-52.5" font-family="Helvetica,sans-Serif" font-size="10.00" fill="#000000">_Base64ContentEncoder</text>
<polyline fill="none" stroke="#000000" points="89.8472,-46.5 235.354,-46.5 "/>
<text text-anchor="middle" x="162.6006" y="-34.5" font-family="Helvetica,sans-Serif" font-size="10.00" fill="#000000"> </text>
<polyline fill="none" stroke="#000000" points="89.8472,-28.5 235.354,-28.5 "/>
<text text-anchor="start" x="97.8472" y="-16.5" font-family="Helvetica,sans-Serif" font-size="10.00" fill="#000000">+ encodeByteStream()</text>
<text text-anchor="start" x="97.8472" y="-6.5" font-family="Helvetica,sans-Serif" font-size="10.00" fill="#000000">+ getName()</text>
</g>
<!-- Node1 -->
<g id="node2" class="node">
<title>Node1</title>
<g id="a_node2"><a xlink:href="class_swift___encoder___base64_encoder.html" target="_top" xlink:title="{Swift_Encoder_Base64Encoder\n||+ encodeString()\l+ charsetChanged()\l}">
<polygon fill="#ffffff" stroke="#000000" points="0,-111.5 0,-175.5 157.2012,-175.5 157.2012,-111.5 0,-111.5"/>
<text text-anchor="middle" x="78.6006" y="-163.5" font-family="Helvetica,sans-Serif" font-size="10.00" fill="#000000">Swift_Encoder_Base64Encoder</text>
<polyline fill="none" stroke="#000000" points="0,-157.5 157.2012,-157.5 "/>
<text text-anchor="middle" x="78.6006" y="-145.5" font-family="Helvetica,sans-Serif" font-size="10.00" fill="#000000"> </text>
<polyline fill="none" stroke="#000000" points="0,-139.5 157.2012,-139.5 "/>
<text text-anchor="start" x="8" y="-127.5" font-family="Helvetica,sans-Serif" font-size="10.00" fill="#000000">+ encodeString()</text>
<text text-anchor="start" x="8" y="-117.5" font-family="Helvetica,sans-Serif" font-size="10.00" fill="#000000">+ charsetChanged()</text>
</a>
</g>
</g>
<!-- Node1&#45;&gt;Node0 -->
<g id="edge1" class="edge">
<title>Node1&#45;&gt;Node0</title>
<path fill="none" stroke="#191970" d="M110.4352,-103.3278C117.8843,-93.9277 125.7874,-83.9548 133.1283,-74.6912"/>
<polygon fill="none" stroke="#191970" points="107.499,-101.3976 104.0313,-111.4088 112.9853,-105.7452 107.499,-101.3976"/>
</g>
<!-- Node2 -->
<g id="node3" class="node">
<title>Node2</title>
<g id="a_node3"><a xlink:href="interface_swift___encoder.html" target="_top" xlink:title="{Swift_Encoder\n||+ encodeString()\l}">
<polygon fill="#ffffff" stroke="#000000" points="117.4961,-212.5 117.4961,-266.5 207.7051,-266.5 207.7051,-212.5 117.4961,-212.5"/>
<text text-anchor="middle" x="162.6006" y="-254.5" font-family="Helvetica,sans-Serif" font-size="10.00" fill="#000000">Swift_Encoder</text>
<polyline fill="none" stroke="#000000" points="117.4961,-248.5 207.7051,-248.5 "/>
<text text-anchor="middle" x="162.6006" y="-236.5" font-family="Helvetica,sans-Serif" font-size="10.00" fill="#000000"> </text>
<polyline fill="none" stroke="#000000" points="117.4961,-230.5 207.7051,-230.5 "/>
<text text-anchor="start" x="125.4961" y="-218.5" font-family="Helvetica,sans-Serif" font-size="10.00" fill="#000000">+ encodeString()</text>
</a>
</g>
</g>
<!-- Node2&#45;&gt;Node1 -->
<g id="edge2" class="edge">
<title>Node2&#45;&gt;Node1</title>
<path fill="none" stroke="#191970" d="M131.9847,-204.5104C123.7099,-195.0535 114.7975,-184.8679 106.6699,-175.5792"/>
<polygon fill="none" stroke="#191970" points="129.5351,-207.026 138.7542,-212.247 134.8032,-202.4165 129.5351,-207.026"/>
</g>
<!-- Node4 -->
<g id="node5" class="node">
<title>Node4</title>
<g id="a_node5"><a xlink:href="interface_swift___mime___content_encoder.html" target="_top" xlink:title="{Swift_Mime_ContentEncoder\n||+ encodeByteStream()\l+ getName()\l}">
<polygon fill="#ffffff" stroke="#000000" points="174.8472,-111.5 174.8472,-175.5 320.354,-175.5 320.354,-111.5 174.8472,-111.5"/>
<text text-anchor="middle" x="247.6006" y="-163.5" font-family="Helvetica,sans-Serif" font-size="10.00" fill="#000000">Swift_Mime_ContentEncoder</text>
<polyline fill="none" stroke="#000000" points="174.8472,-157.5 320.354,-157.5 "/>
<text text-anchor="middle" x="247.6006" y="-145.5" font-family="Helvetica,sans-Serif" font-size="10.00" fill="#000000"> </text>
<polyline fill="none" stroke="#000000" points="174.8472,-139.5 320.354,-139.5 "/>
<text text-anchor="start" x="182.8472" y="-127.5" font-family="Helvetica,sans-Serif" font-size="10.00" fill="#000000">+ encodeByteStream()</text>
<text text-anchor="start" x="182.8472" y="-117.5" font-family="Helvetica,sans-Serif" font-size="10.00" fill="#000000">+ getName()</text>
</a>
</g>
</g>
<!-- Node2&#45;&gt;Node4 -->
<g id="edge5" class="edge">
<title>Node2&#45;&gt;Node4</title>
<path fill="none" stroke="#191970" d="M193.581,-204.5104C201.9543,-195.0535 210.9728,-184.8679 219.1971,-175.5792"/>
<polygon fill="none" stroke="#191970" points="190.7395,-202.4398 186.7308,-212.247 195.9804,-207.0802 190.7395,-202.4398"/>
</g>
<!-- Node3 -->
<g id="node4" class="node">
<title>Node3</title>
<g id="a_node4"><a xlink:href="interface_swift___mime___charset_observer.html" target="_top" xlink:title="{Swift_Mime_CharsetObserver\n||+ charsetChanged()\l}">
<polygon fill="#ffffff" stroke="#000000" points="87.9136,-303.5 87.9136,-357.5 237.2876,-357.5 237.2876,-303.5 87.9136,-303.5"/>
<text text-anchor="middle" x="162.6006" y="-345.5" font-family="Helvetica,sans-Serif" font-size="10.00" fill="#000000">Swift_Mime_CharsetObserver</text>
<polyline fill="none" stroke="#000000" points="87.9136,-339.5 237.2876,-339.5 "/>
<text text-anchor="middle" x="162.6006" y="-327.5" font-family="Helvetica,sans-Serif" font-size="10.00" fill="#000000"> </text>
<polyline fill="none" stroke="#000000" points="87.9136,-321.5 237.2876,-321.5 "/>
<text text-anchor="start" x="95.9136" y="-309.5" font-family="Helvetica,sans-Serif" font-size="10.00" fill="#000000">+ charsetChanged()</text>
</a>
</g>
</g>
<!-- Node3&#45;&gt;Node2 -->
<g id="edge3" class="edge">
<title>Node3&#45;&gt;Node2</title>
<path fill="none" stroke="#191970" d="M162.6006,-293.12C162.6006,-284.3006 162.6006,-275.0605 162.6006,-266.7837"/>
<polygon fill="none" stroke="#191970" points="159.1007,-293.197 162.6006,-303.197 166.1007,-293.197 159.1007,-293.197"/>
</g>
<!-- Node4&#45;&gt;Node0 -->
<g id="edge4" class="edge">
<title>Node4&#45;&gt;Node0</title>
<path fill="none" stroke="#191970" d="M215.387,-103.3278C207.8492,-93.9277 199.8521,-83.9548 192.4237,-74.6912"/>
<polygon fill="none" stroke="#191970" points="212.8806,-105.7969 221.8671,-111.4088 218.3417,-101.4177 212.8806,-105.7969"/>
</g>
</g>
</svg>
