<?xml version="1.0" encoding="UTF-8" standalone="no"?>
<!DOCTYPE svg PUBLIC "-//W3C//DTD SVG 1.1//EN"
 "http://www.w3.org/Graphics/SVG/1.1/DTD/svg11.dtd">
<!-- Generated by graphviz version 2.40.1 (20161225.0304)
 -->
<!-- Title: UserGroupsConfiguration Pages: 1 -->
<svg width="137pt" height="234pt"
 viewBox="0.00 0.00 137.39 234.00" xmlns="http://www.w3.org/2000/svg" xmlns:xlink="http://www.w3.org/1999/xlink">
<g id="graph0" class="graph" transform="scale(1 1) rotate(0) translate(4 230)">
<title>UserGroupsConfiguration</title>
<polygon fill="#ffffff" stroke="transparent" points="-4,4 -4,-230 133.3887,-230 133.3887,4 -4,4"/>
<!-- Node0 -->
<g id="node1" class="node">
<title>Node0</title>
<polygon fill="#bfbfbf" stroke="#000000" points="0,-.5 0,-134.5 129.3887,-134.5 129.3887,-.5 0,-.5"/>
<text text-anchor="middle" x="64.6943" y="-122.5" font-family="Helvetica,sans-Serif" font-size="10.00" fill="#000000">UserGroupsConfiguration</text>
<polyline fill="none" stroke="#000000" points="0,-116.5 129.3887,-116.5 "/>
<text text-anchor="start" x="8" y="-104.5" font-family="Helvetica,sans-Serif" font-size="10.00" fill="#000000">+ $render</text>
<polyline fill="none" stroke="#000000" points="0,-98.5 129.3887,-98.5 "/>
<text text-anchor="start" x="8" y="-86.5" font-family="Helvetica,sans-Serif" font-size="10.00" fill="#000000">+ tableName()</text>
<text text-anchor="start" x="8" y="-76.5" font-family="Helvetica,sans-Serif" font-size="10.00" fill="#000000">+ rules()</text>
<text text-anchor="start" x="8" y="-66.5" font-family="Helvetica,sans-Serif" font-size="10.00" fill="#000000">+ noCheating()</text>
<text text-anchor="start" x="8" y="-56.5" font-family="Helvetica,sans-Serif" font-size="10.00" fill="#000000">+ relations()</text>
<text text-anchor="start" x="8" y="-46.5" font-family="Helvetica,sans-Serif" font-size="10.00" fill="#000000">+ attributeLabels()</text>
<text text-anchor="start" x="8" y="-36.5" font-family="Helvetica,sans-Serif" font-size="10.00" fill="#000000">+ search()</text>
<text text-anchor="start" x="8" y="-26.5" font-family="Helvetica,sans-Serif" font-size="10.00" fill="#000000">+ afterFind()</text>
<text text-anchor="start" x="8" y="-16.5" font-family="Helvetica,sans-Serif" font-size="10.00" fill="#000000">+ model()</text>
<text text-anchor="start" x="8" y="-6.5" font-family="Helvetica,sans-Serif" font-size="10.00" fill="#000000">+ findRule()</text>
</g>
<!-- Node1 -->
<g id="node2" class="node">
<title>Node1</title>
<polygon fill="#ffffff" stroke="#bfbfbf" points="23.3496,-171.5 23.3496,-225.5 106.0391,-225.5 106.0391,-171.5 23.3496,-171.5"/>
<text text-anchor="middle" x="64.6943" y="-213.5" font-family="Helvetica,sans-Serif" font-size="10.00" fill="#000000">CActiveRecord</text>
<polyline fill="none" stroke="#bfbfbf" points="23.3496,-207.5 106.0391,-207.5 "/>
<text text-anchor="middle" x="64.6943" y="-195.5" font-family="Helvetica,sans-Serif" font-size="10.00" fill="#000000"> </text>
<polyline fill="none" stroke="#bfbfbf" points="23.3496,-189.5 106.0391,-189.5 "/>
<text text-anchor="middle" x="64.6943" y="-177.5" font-family="Helvetica,sans-Serif" font-size="10.00" fill="#000000"> </text>
</g>
<!-- Node1&#45;&gt;Node0 -->
<g id="edge1" class="edge">
<title>Node1&#45;&gt;Node0</title>
<path fill="none" stroke="#191970" d="M64.6943,-161.2321C64.6943,-152.8764 64.6943,-143.7626 64.6943,-134.607"/>
<polygon fill="none" stroke="#191970" points="61.1944,-161.3567 64.6943,-171.3567 68.1944,-161.3567 61.1944,-161.3567"/>
</g>
</g>
</svg>
