<?xml version="1.0" encoding="UTF-8" standalone="no"?>
<!DOCTYPE svg PUBLIC "-//W3C//DTD SVG 1.1//EN"
 "http://www.w3.org/Graphics/SVG/1.1/DTD/svg11.dtd">
<!-- Generated by graphviz version 2.40.1 (20161225.0304)
 -->
<!-- Title: UserGroupsModule Pages: 1 -->
<svg width="139pt" height="204pt"
 viewBox="0.00 0.00 138.78 204.00" xmlns="http://www.w3.org/2000/svg" xmlns:xlink="http://www.w3.org/1999/xlink">
<g id="graph0" class="graph" transform="scale(1 1) rotate(0) translate(4 200)">
<title>UserGroupsModule</title>
<polygon fill="#ffffff" stroke="transparent" points="-4,4 -4,-200 134.7754,-200 134.7754,4 -4,4"/>
<!-- Node2 -->
<g id="node1" class="node">
<title>Node2</title>
<polygon fill="#bfbfbf" stroke="#000000" points="0,-.5 0,-104.5 130.7754,-104.5 130.7754,-.5 0,-.5"/>
<text text-anchor="middle" x="65.3877" y="-92.5" font-family="Helvetica,sans-Serif" font-size="10.00" fill="#000000">UserGroupsModule</text>
<polyline fill="none" stroke="#000000" points="0,-86.5 130.7754,-86.5 "/>
<text text-anchor="start" x="8" y="-74.5" font-family="Helvetica,sans-Serif" font-size="10.00" fill="#000000">+ $accessCode</text>
<text text-anchor="start" x="8" y="-64.5" font-family="Helvetica,sans-Serif" font-size="10.00" fill="#000000">+ $salt</text>
<text text-anchor="start" x="8" y="-54.5" font-family="Helvetica,sans-Serif" font-size="10.00" fill="#000000">+ $crons</text>
<text text-anchor="start" x="8" y="-44.5" font-family="Helvetica,sans-Serif" font-size="10.00" fill="#000000">+ $profile</text>
<text text-anchor="start" x="8" y="-34.5" font-family="Helvetica,sans-Serif" font-size="10.00" fill="#000000">+ $mailMessages</text>
<polyline fill="none" stroke="#000000" points="0,-28.5 130.7754,-28.5 "/>
<text text-anchor="start" x="8" y="-16.5" font-family="Helvetica,sans-Serif" font-size="10.00" fill="#000000">+ init()</text>
<text text-anchor="start" x="8" y="-6.5" font-family="Helvetica,sans-Serif" font-size="10.00" fill="#000000">+ beforeControllerAction()</text>
</g>
<!-- Node3 -->
<g id="node2" class="node">
<title>Node3</title>
<polygon fill="#ffffff" stroke="#bfbfbf" points="27.1851,-141.5 27.1851,-195.5 103.5903,-195.5 103.5903,-141.5 27.1851,-141.5"/>
<text text-anchor="middle" x="65.3877" y="-183.5" font-family="Helvetica,sans-Serif" font-size="10.00" fill="#000000">CWebModule</text>
<polyline fill="none" stroke="#bfbfbf" points="27.1851,-177.5 103.5903,-177.5 "/>
<text text-anchor="middle" x="65.3877" y="-165.5" font-family="Helvetica,sans-Serif" font-size="10.00" fill="#000000"> </text>
<polyline fill="none" stroke="#bfbfbf" points="27.1851,-159.5 103.5903,-159.5 "/>
<text text-anchor="middle" x="65.3877" y="-147.5" font-family="Helvetica,sans-Serif" font-size="10.00" fill="#000000"> </text>
</g>
<!-- Node3&#45;&gt;Node2 -->
<g id="edge1" class="edge">
<title>Node3&#45;&gt;Node2</title>
<path fill="none" stroke="#191970" d="M65.3877,-131.0375C65.3877,-122.6013 65.3877,-113.4994 65.3877,-104.5858"/>
<polygon fill="none" stroke="#191970" points="61.8878,-131.3031 65.3877,-141.3032 68.8878,-131.3032 61.8878,-131.3031"/>
</g>
</g>
</svg>
