<?xml version="1.0" encoding="UTF-8" standalone="no"?>
<!DOCTYPE svg PUBLIC "-//W3C//DTD SVG 1.1//EN"
 "http://www.w3.org/Graphics/SVG/1.1/DTD/svg11.dtd">
<!-- Generated by graphviz version 2.40.1 (20161225.0304)
 -->
<!-- Title: ECommentsLastListWidget Pages: 1 -->
<svg width="145pt" height="335pt"
 viewBox="0.00 0.00 144.60 335.00" xmlns="http://www.w3.org/2000/svg" xmlns:xlink="http://www.w3.org/1999/xlink">
<g id="graph0" class="graph" transform="scale(1 1) rotate(0) translate(4 331)">
<title>ECommentsLastListWidget</title>
<polygon fill="#ffffff" stroke="transparent" points="-4,4 -4,-331 140.6006,-331 140.6006,4 -4,4"/>
<!-- Node0 -->
<g id="node1" class="node">
<title>Node0</title>
<polygon fill="#bfbfbf" stroke="#000000" points="0,-.5 0,-74.5 136.6006,-74.5 136.6006,-.5 0,-.5"/>
<text text-anchor="middle" x="68.3003" y="-62.5" font-family="Helvetica,sans-Serif" font-size="10.00" fill="#000000">ECommentsLastListWidget</text>
<polyline fill="none" stroke="#000000" points="0,-56.5 136.6006,-56.5 "/>
<text text-anchor="start" x="8" y="-44.5" font-family="Helvetica,sans-Serif" font-size="10.00" fill="#000000">+ $showCountRecords</text>
<text text-anchor="start" x="8" y="-34.5" font-family="Helvetica,sans-Serif" font-size="10.00" fill="#000000">+ $textLength</text>
<polyline fill="none" stroke="#000000" points="0,-28.5 136.6006,-28.5 "/>
<text text-anchor="start" x="8" y="-16.5" font-family="Helvetica,sans-Serif" font-size="10.00" fill="#000000">+ init()</text>
<text text-anchor="start" x="8" y="-6.5" font-family="Helvetica,sans-Serif" font-size="10.00" fill="#000000">+ run()</text>
</g>
<!-- Node1 -->
<g id="node2" class="node">
<title>Node1</title>
<g id="a_node2"><a xlink:href="class_e_comments_base_widget.html" target="_top" xlink:title="{ECommentsBaseWidget\n|+ $model\l+ $registeredOnly\l+ $useCaptcha\l+ $postCommentAction\l# $_config\l|+ init()\l# registerScripts()\l# createNewComment()\l# getOwnerPK()\l}">
<polygon fill="#ffffff" stroke="#000000" points="5.835,-111.5 5.835,-235.5 130.7656,-235.5 130.7656,-111.5 5.835,-111.5"/>
<text text-anchor="middle" x="68.3003" y="-223.5" font-family="Helvetica,sans-Serif" font-size="10.00" fill="#000000">ECommentsBaseWidget</text>
<polyline fill="none" stroke="#000000" points="5.835,-217.5 130.7656,-217.5 "/>
<text text-anchor="start" x="13.835" y="-205.5" font-family="Helvetica,sans-Serif" font-size="10.00" fill="#000000">+ $model</text>
<text text-anchor="start" x="13.835" y="-195.5" font-family="Helvetica,sans-Serif" font-size="10.00" fill="#000000">+ $registeredOnly</text>
<text text-anchor="start" x="13.835" y="-185.5" font-family="Helvetica,sans-Serif" font-size="10.00" fill="#000000">+ $useCaptcha</text>
<text text-anchor="start" x="13.835" y="-175.5" font-family="Helvetica,sans-Serif" font-size="10.00" fill="#000000">+ $postCommentAction</text>
<text text-anchor="start" x="13.835" y="-165.5" font-family="Helvetica,sans-Serif" font-size="10.00" fill="#000000"># $_config</text>
<polyline fill="none" stroke="#000000" points="5.835,-159.5 130.7656,-159.5 "/>
<text text-anchor="start" x="13.835" y="-147.5" font-family="Helvetica,sans-Serif" font-size="10.00" fill="#000000">+ init()</text>
<text text-anchor="start" x="13.835" y="-137.5" font-family="Helvetica,sans-Serif" font-size="10.00" fill="#000000"># registerScripts()</text>
<text text-anchor="start" x="13.835" y="-127.5" font-family="Helvetica,sans-Serif" font-size="10.00" fill="#000000"># createNewComment()</text>
<text text-anchor="start" x="13.835" y="-117.5" font-family="Helvetica,sans-Serif" font-size="10.00" fill="#000000"># getOwnerPK()</text>
</a>
</g>
</g>
<!-- Node1&#45;&gt;Node0 -->
<g id="edge1" class="edge">
<title>Node1&#45;&gt;Node0</title>
<path fill="none" stroke="#191970" d="M68.3003,-101.3955C68.3003,-92.1182 68.3003,-82.9431 68.3003,-74.5643"/>
<polygon fill="none" stroke="#191970" points="64.8004,-101.4697 68.3003,-111.4697 71.8004,-101.4698 64.8004,-101.4697"/>
</g>
<!-- Node2 -->
<g id="node3" class="node">
<title>Node2</title>
<polygon fill="#ffffff" stroke="#bfbfbf" points="34.7363,-272.5 34.7363,-326.5 101.8643,-326.5 101.8643,-272.5 34.7363,-272.5"/>
<text text-anchor="middle" x="68.3003" y="-314.5" font-family="Helvetica,sans-Serif" font-size="10.00" fill="#000000">CJuiWidget</text>
<polyline fill="none" stroke="#bfbfbf" points="34.7363,-308.5 101.8643,-308.5 "/>
<text text-anchor="middle" x="68.3003" y="-296.5" font-family="Helvetica,sans-Serif" font-size="10.00" fill="#000000"> </text>
<polyline fill="none" stroke="#bfbfbf" points="34.7363,-290.5 101.8643,-290.5 "/>
<text text-anchor="middle" x="68.3003" y="-278.5" font-family="Helvetica,sans-Serif" font-size="10.00" fill="#000000"> </text>
</g>
<!-- Node2&#45;&gt;Node1 -->
<g id="edge2" class="edge">
<title>Node2&#45;&gt;Node1</title>
<path fill="none" stroke="#191970" d="M68.3003,-262.3011C68.3003,-253.9169 68.3003,-244.7957 68.3003,-235.6969"/>
<polygon fill="none" stroke="#191970" points="64.8004,-262.4698 68.3003,-272.4698 71.8004,-262.4699 64.8004,-262.4698"/>
</g>
</g>
</svg>
