<?xml version="1.0" encoding="UTF-8" standalone="no"?>
<!DOCTYPE svg PUBLIC "-//W3C//DTD SVG 1.1//EN"
 "http://www.w3.org/Graphics/SVG/1.1/DTD/svg11.dtd">
<!-- Generated by graphviz version 2.40.1 (20161225.0304)
 -->
<!-- Title: ECommentsFormWidget Pages: 1 -->
<svg width="133pt" height="315pt"
 viewBox="0.00 0.00 133.47 315.00" xmlns="http://www.w3.org/2000/svg" xmlns:xlink="http://www.w3.org/1999/xlink">
<g id="graph0" class="graph" transform="scale(1 1) rotate(0) translate(4 311)">
<title>ECommentsFormWidget</title>
<polygon fill="#ffffff" stroke="transparent" points="-4,4 -4,-311 129.4678,-311 129.4678,4 -4,4"/>
<!-- Node0 -->
<g id="node1" class="node">
<title>Node0</title>
<polygon fill="#bfbfbf" stroke="#000000" points="0,-.5 0,-54.5 125.4678,-54.5 125.4678,-.5 0,-.5"/>
<text text-anchor="middle" x="62.7339" y="-42.5" font-family="Helvetica,sans-Serif" font-size="10.00" fill="#000000">ECommentsFormWidget</text>
<polyline fill="none" stroke="#000000" points="0,-36.5 125.4678,-36.5 "/>
<text text-anchor="start" x="8" y="-24.5" font-family="Helvetica,sans-Serif" font-size="10.00" fill="#000000">+ $validatedComment</text>
<polyline fill="none" stroke="#000000" points="0,-18.5 125.4678,-18.5 "/>
<text text-anchor="start" x="8" y="-6.5" font-family="Helvetica,sans-Serif" font-size="10.00" fill="#000000">+ run()</text>
</g>
<!-- Node1 -->
<g id="node2" class="node">
<title>Node1</title>
<g id="a_node2"><a xlink:href="class_e_comments_base_widget.html" target="_top" xlink:title="{ECommentsBaseWidget\n|+ $model\l+ $registeredOnly\l+ $useCaptcha\l+ $postCommentAction\l# $_config\l|+ init()\l# registerScripts()\l# createNewComment()\l# getOwnerPK()\l}">
<polygon fill="#ffffff" stroke="#000000" points=".2686,-91.5 .2686,-215.5 125.1992,-215.5 125.1992,-91.5 .2686,-91.5"/>
<text text-anchor="middle" x="62.7339" y="-203.5" font-family="Helvetica,sans-Serif" font-size="10.00" fill="#000000">ECommentsBaseWidget</text>
<polyline fill="none" stroke="#000000" points=".2686,-197.5 125.1992,-197.5 "/>
<text text-anchor="start" x="8.2686" y="-185.5" font-family="Helvetica,sans-Serif" font-size="10.00" fill="#000000">+ $model</text>
<text text-anchor="start" x="8.2686" y="-175.5" font-family="Helvetica,sans-Serif" font-size="10.00" fill="#000000">+ $registeredOnly</text>
<text text-anchor="start" x="8.2686" y="-165.5" font-family="Helvetica,sans-Serif" font-size="10.00" fill="#000000">+ $useCaptcha</text>
<text text-anchor="start" x="8.2686" y="-155.5" font-family="Helvetica,sans-Serif" font-size="10.00" fill="#000000">+ $postCommentAction</text>
<text text-anchor="start" x="8.2686" y="-145.5" font-family="Helvetica,sans-Serif" font-size="10.00" fill="#000000"># $_config</text>
<polyline fill="none" stroke="#000000" points=".2686,-139.5 125.1992,-139.5 "/>
<text text-anchor="start" x="8.2686" y="-127.5" font-family="Helvetica,sans-Serif" font-size="10.00" fill="#000000">+ init()</text>
<text text-anchor="start" x="8.2686" y="-117.5" font-family="Helvetica,sans-Serif" font-size="10.00" fill="#000000"># registerScripts()</text>
<text text-anchor="start" x="8.2686" y="-107.5" font-family="Helvetica,sans-Serif" font-size="10.00" fill="#000000"># createNewComment()</text>
<text text-anchor="start" x="8.2686" y="-97.5" font-family="Helvetica,sans-Serif" font-size="10.00" fill="#000000"># getOwnerPK()</text>
</a>
</g>
</g>
<!-- Node1&#45;&gt;Node0 -->
<g id="edge1" class="edge">
<title>Node1&#45;&gt;Node0</title>
<path fill="none" stroke="#191970" d="M62.7339,-80.9935C62.7339,-71.6189 62.7339,-62.5317 62.7339,-54.5882"/>
<polygon fill="none" stroke="#191970" points="59.234,-81.2382 62.7339,-91.2383 66.234,-81.2383 59.234,-81.2382"/>
</g>
<!-- Node2 -->
<g id="node3" class="node">
<title>Node2</title>
<polygon fill="#ffffff" stroke="#bfbfbf" points="29.1699,-252.5 29.1699,-306.5 96.2979,-306.5 96.2979,-252.5 29.1699,-252.5"/>
<text text-anchor="middle" x="62.7339" y="-294.5" font-family="Helvetica,sans-Serif" font-size="10.00" fill="#000000">CJuiWidget</text>
<polyline fill="none" stroke="#bfbfbf" points="29.1699,-288.5 96.2979,-288.5 "/>
<text text-anchor="middle" x="62.7339" y="-276.5" font-family="Helvetica,sans-Serif" font-size="10.00" fill="#000000"> </text>
<polyline fill="none" stroke="#bfbfbf" points="29.1699,-270.5 96.2979,-270.5 "/>
<text text-anchor="middle" x="62.7339" y="-258.5" font-family="Helvetica,sans-Serif" font-size="10.00" fill="#000000"> </text>
</g>
<!-- Node2&#45;&gt;Node1 -->
<g id="edge2" class="edge">
<title>Node2&#45;&gt;Node1</title>
<path fill="none" stroke="#191970" d="M62.7339,-242.3011C62.7339,-233.9169 62.7339,-224.7957 62.7339,-215.6969"/>
<polygon fill="none" stroke="#191970" points="59.234,-242.4698 62.7339,-252.4698 66.234,-242.4699 59.234,-242.4698"/>
</g>
</g>
</svg>
