<?xml version="1.0" encoding="UTF-8" standalone="no"?>
<!DOCTYPE svg PUBLIC "-//W3C//DTD SVG 1.1//EN"
 "http://www.w3.org/Graphics/SVG/1.1/DTD/svg11.dtd">
<!-- Generated by graphviz version 2.40.1 (20161225.0304)
 -->
<!-- Title: Google_RevisionsServiceResource Pages: 1 -->
<svg width="181pt" height="234pt"
 viewBox="0.00 0.00 181.30 234.00" xmlns="http://www.w3.org/2000/svg" xmlns:xlink="http://www.w3.org/1999/xlink">
<g id="graph0" class="graph" transform="scale(1 1) rotate(0) translate(4 230)">
<title>Google_RevisionsServiceResource</title>
<polygon fill="#ffffff" stroke="transparent" points="-4,4 -4,-230 177.2998,-230 177.2998,4 -4,4"/>
<!-- Node2 -->
<g id="node1" class="node">
<title>Node2</title>
<polygon fill="#bfbfbf" stroke="#000000" points="0,-.5 0,-104.5 173.2998,-104.5 173.2998,-.5 0,-.5"/>
<text text-anchor="middle" x="86.6499" y="-92.5" font-family="Helvetica,sans-Serif" font-size="10.00" fill="#000000">Google_RevisionsServiceResource</text>
<polyline fill="none" stroke="#000000" points="0,-86.5 173.2998,-86.5 "/>
<text text-anchor="middle" x="86.6499" y="-74.5" font-family="Helvetica,sans-Serif" font-size="10.00" fill="#000000"> </text>
<polyline fill="none" stroke="#000000" points="0,-68.5 173.2998,-68.5 "/>
<text text-anchor="start" x="8" y="-56.5" font-family="Helvetica,sans-Serif" font-size="10.00" fill="#000000">+ delete()</text>
<text text-anchor="start" x="8" y="-46.5" font-family="Helvetica,sans-Serif" font-size="10.00" fill="#000000">+ get()</text>
<text text-anchor="start" x="8" y="-36.5" font-family="Helvetica,sans-Serif" font-size="10.00" fill="#000000">+ listRevisions()</text>
<text text-anchor="start" x="8" y="-26.5" font-family="Helvetica,sans-Serif" font-size="10.00" fill="#000000">+ patch()</text>
<text text-anchor="start" x="8" y="-16.5" font-family="Helvetica,sans-Serif" font-size="10.00" fill="#000000">+ update()</text>
<text text-anchor="start" x="8" y="-6.5" font-family="Helvetica,sans-Serif" font-size="10.00" fill="#000000">+ check()</text>
</g>
<!-- Node3 -->
<g id="node2" class="node">
<title>Node3</title>
<g id="a_node2"><a xlink:href="class_google___service_resource.html" target="_top" xlink:title="{Google_ServiceResource\n||+ __construct()\l+ __call()\l+ useObjects()\l# stripNull()\l}">
<polygon fill="#ffffff" stroke="#000000" points="21.6748,-141.5 21.6748,-225.5 151.625,-225.5 151.625,-141.5 21.6748,-141.5"/>
<text text-anchor="middle" x="86.6499" y="-213.5" font-family="Helvetica,sans-Serif" font-size="10.00" fill="#000000">Google_ServiceResource</text>
<polyline fill="none" stroke="#000000" points="21.6748,-207.5 151.625,-207.5 "/>
<text text-anchor="middle" x="86.6499" y="-195.5" font-family="Helvetica,sans-Serif" font-size="10.00" fill="#000000"> </text>
<polyline fill="none" stroke="#000000" points="21.6748,-189.5 151.625,-189.5 "/>
<text text-anchor="start" x="29.6748" y="-177.5" font-family="Helvetica,sans-Serif" font-size="10.00" fill="#000000">+ __construct()</text>
<text text-anchor="start" x="29.6748" y="-167.5" font-family="Helvetica,sans-Serif" font-size="10.00" fill="#000000">+ __call()</text>
<text text-anchor="start" x="29.6748" y="-157.5" font-family="Helvetica,sans-Serif" font-size="10.00" fill="#000000">+ useObjects()</text>
<text text-anchor="start" x="29.6748" y="-147.5" font-family="Helvetica,sans-Serif" font-size="10.00" fill="#000000"># stripNull()</text>
</a>
</g>
</g>
<!-- Node3&#45;&gt;Node2 -->
<g id="edge1" class="edge">
<title>Node3&#45;&gt;Node2</title>
<path fill="none" stroke="#191970" d="M80.0243,-131.2546C79.8581,-122.5097 79.8584,-113.4358 80.0253,-104.6923"/>
<polygon fill="none" stroke="#191970" points="76.5276,-131.4277 80.2958,-141.3297 83.525,-131.239 76.5276,-131.4277"/>
</g>
<!-- Node3&#45;&gt;Node2 -->
<g id="edge2" class="edge">
<title>Node3&#45;&gt;Node2</title>
<path fill="none" stroke="#191970" d="M93.2755,-131.2546C93.4417,-122.5097 93.4414,-113.4358 93.2745,-104.6923"/>
<polygon fill="none" stroke="#191970" points="89.7748,-131.239 93.004,-141.3297 96.7722,-131.4277 89.7748,-131.239"/>
</g>
</g>
</svg>
