<?xml version="1.0" encoding="UTF-8" standalone="no"?>
<!DOCTYPE svg PUBLIC "-//W3C//DTD SVG 1.1//EN"
 "http://www.w3.org/Graphics/SVG/1.1/DTD/svg11.dtd">
<!-- Generated by graphviz version 2.40.1 (20161225.0304)
 -->
<!-- Title: Google_ActivityObjectPlusoners Pages: 1 -->
<svg width="167pt" height="274pt"
 viewBox="0.00 0.00 166.85 274.00" xmlns="http://www.w3.org/2000/svg" xmlns:xlink="http://www.w3.org/1999/xlink">
<g id="graph0" class="graph" transform="scale(1 1) rotate(0) translate(4 270)">
<title>Google_ActivityObjectPlusoners</title>
<polygon fill="#ffffff" stroke="transparent" points="-4,4 -4,-270 162.8467,-270 162.8467,4 -4,4"/>
<!-- Node0 -->
<g id="node1" class="node">
<title>Node0</title>
<polygon fill="#bfbfbf" stroke="#000000" points="0,-.5 0,-134.5 158.8467,-134.5 158.8467,-.5 0,-.5"/>
<text text-anchor="middle" x="79.4233" y="-122.5" font-family="Helvetica,sans-Serif" font-size="10.00" fill="#000000">Google_ActivityObjectPlusoners</text>
<polyline fill="none" stroke="#000000" points="0,-116.5 158.8467,-116.5 "/>
<text text-anchor="start" x="8" y="-104.5" font-family="Helvetica,sans-Serif" font-size="10.00" fill="#000000">+ $selfLink</text>
<text text-anchor="start" x="8" y="-94.5" font-family="Helvetica,sans-Serif" font-size="10.00" fill="#000000">+ $totalItems</text>
<polyline fill="none" stroke="#000000" points="0,-88.5 158.8467,-88.5 "/>
<text text-anchor="start" x="8" y="-76.5" font-family="Helvetica,sans-Serif" font-size="10.00" fill="#000000">+ setSelfLink()</text>
<text text-anchor="start" x="8" y="-66.5" font-family="Helvetica,sans-Serif" font-size="10.00" fill="#000000">+ getSelfLink()</text>
<text text-anchor="start" x="8" y="-56.5" font-family="Helvetica,sans-Serif" font-size="10.00" fill="#000000">+ setTotalItems()</text>
<text text-anchor="start" x="8" y="-46.5" font-family="Helvetica,sans-Serif" font-size="10.00" fill="#000000">+ getTotalItems()</text>
<text text-anchor="start" x="8" y="-36.5" font-family="Helvetica,sans-Serif" font-size="10.00" fill="#000000">+ setSelfLink()</text>
<text text-anchor="start" x="8" y="-26.5" font-family="Helvetica,sans-Serif" font-size="10.00" fill="#000000">+ getSelfLink()</text>
<text text-anchor="start" x="8" y="-16.5" font-family="Helvetica,sans-Serif" font-size="10.00" fill="#000000">+ setTotalItems()</text>
<text text-anchor="start" x="8" y="-6.5" font-family="Helvetica,sans-Serif" font-size="10.00" fill="#000000">+ getTotalItems()</text>
</g>
<!-- Node1 -->
<g id="node2" class="node">
<title>Node1</title>
<g id="a_node2"><a xlink:href="class_google___model.html" target="_top" xlink:title="{Google_Model\n||+ __construct()\l+ assertIsArray()\l# mapTypes()\l# isAssociativeArray()\l# useObjects()\l}">
<polygon fill="#ffffff" stroke="#000000" points="23.0786,-171.5 23.0786,-265.5 135.7681,-265.5 135.7681,-171.5 23.0786,-171.5"/>
<text text-anchor="middle" x="79.4233" y="-253.5" font-family="Helvetica,sans-Serif" font-size="10.00" fill="#000000">Google_Model</text>
<polyline fill="none" stroke="#000000" points="23.0786,-247.5 135.7681,-247.5 "/>
<text text-anchor="middle" x="79.4233" y="-235.5" font-family="Helvetica,sans-Serif" font-size="10.00" fill="#000000"> </text>
<polyline fill="none" stroke="#000000" points="23.0786,-229.5 135.7681,-229.5 "/>
<text text-anchor="start" x="31.0786" y="-217.5" font-family="Helvetica,sans-Serif" font-size="10.00" fill="#000000">+ __construct()</text>
<text text-anchor="start" x="31.0786" y="-207.5" font-family="Helvetica,sans-Serif" font-size="10.00" fill="#000000">+ assertIsArray()</text>
<text text-anchor="start" x="31.0786" y="-197.5" font-family="Helvetica,sans-Serif" font-size="10.00" fill="#000000"># mapTypes()</text>
<text text-anchor="start" x="31.0786" y="-187.5" font-family="Helvetica,sans-Serif" font-size="10.00" fill="#000000"># isAssociativeArray()</text>
<text text-anchor="start" x="31.0786" y="-177.5" font-family="Helvetica,sans-Serif" font-size="10.00" fill="#000000"># useObjects()</text>
</a>
</g>
</g>
<!-- Node1&#45;&gt;Node0 -->
<g id="edge1" class="edge">
<title>Node1&#45;&gt;Node0</title>
<path fill="none" stroke="#191970" d="M72.8441,-160.8599C72.6771,-152.2753 72.6326,-143.3638 72.7106,-134.605"/>
<polygon fill="none" stroke="#191970" points="69.3524,-161.2303 73.1085,-171.137 76.35,-161.0502 69.3524,-161.2303"/>
</g>
<!-- Node1&#45;&gt;Node0 -->
<g id="edge2" class="edge">
<title>Node1&#45;&gt;Node0</title>
<path fill="none" stroke="#191970" d="M86.0026,-160.8599C86.1696,-152.2753 86.2141,-143.3638 86.1361,-134.605"/>
<polygon fill="none" stroke="#191970" points="82.4966,-161.0502 85.7382,-171.137 89.4943,-161.2303 82.4966,-161.0502"/>
</g>
</g>
</svg>
