<?xml version="1.0" encoding="UTF-8" standalone="no"?>
<!DOCTYPE svg PUBLIC "-//W3C//DTD SVG 1.1//EN"
 "http://www.w3.org/Graphics/SVG/1.1/DTD/svg11.dtd">
<!-- Generated by graphviz version 2.40.1 (20161225.0304)
 -->
<!-- Title: Google_ResellerService Pages: 1 -->
<svg width="132pt" height="184pt"
 viewBox="0.00 0.00 131.83 184.00" xmlns="http://www.w3.org/2000/svg" xmlns:xlink="http://www.w3.org/1999/xlink">
<g id="graph0" class="graph" transform="scale(1 1) rotate(0) translate(4 180)">
<title>Google_ResellerService</title>
<polygon fill="#ffffff" stroke="transparent" points="-4,4 -4,-180 127.832,-180 127.832,4 -4,4"/>
<!-- Node0 -->
<g id="node1" class="node">
<title>Node0</title>
<polygon fill="#bfbfbf" stroke="#000000" points="0,-.5 0,-64.5 123.832,-64.5 123.832,-.5 0,-.5"/>
<text text-anchor="middle" x="61.916" y="-52.5" font-family="Helvetica,sans-Serif" font-size="10.00" fill="#000000">Google_ResellerService</text>
<polyline fill="none" stroke="#000000" points="0,-46.5 123.832,-46.5 "/>
<text text-anchor="start" x="8" y="-34.5" font-family="Helvetica,sans-Serif" font-size="10.00" fill="#000000">+ $customers</text>
<text text-anchor="start" x="8" y="-24.5" font-family="Helvetica,sans-Serif" font-size="10.00" fill="#000000">+ $subscriptions</text>
<polyline fill="none" stroke="#000000" points="0,-18.5 123.832,-18.5 "/>
<text text-anchor="start" x="8" y="-6.5" font-family="Helvetica,sans-Serif" font-size="10.00" fill="#000000">+ __construct()</text>
</g>
<!-- Node1 -->
<g id="node2" class="node">
<title>Node1</title>
<g id="a_node2"><a xlink:href="class_google___service.html" target="_top" xlink:title="{Google_Service\n|+ $version\l+ $servicePath\l+ $resource\l|}">
<polygon fill="#ffffff" stroke="#000000" points="18.3398,-101.5 18.3398,-175.5 105.4922,-175.5 105.4922,-101.5 18.3398,-101.5"/>
<text text-anchor="middle" x="61.916" y="-163.5" font-family="Helvetica,sans-Serif" font-size="10.00" fill="#000000">Google_Service</text>
<polyline fill="none" stroke="#000000" points="18.3398,-157.5 105.4922,-157.5 "/>
<text text-anchor="start" x="26.3398" y="-145.5" font-family="Helvetica,sans-Serif" font-size="10.00" fill="#000000">+ $version</text>
<text text-anchor="start" x="26.3398" y="-135.5" font-family="Helvetica,sans-Serif" font-size="10.00" fill="#000000">+ $servicePath</text>
<text text-anchor="start" x="26.3398" y="-125.5" font-family="Helvetica,sans-Serif" font-size="10.00" fill="#000000">+ $resource</text>
<polyline fill="none" stroke="#000000" points="18.3398,-119.5 105.4922,-119.5 "/>
<text text-anchor="middle" x="61.916" y="-107.5" font-family="Helvetica,sans-Serif" font-size="10.00" fill="#000000"> </text>
</a>
</g>
</g>
<!-- Node1&#45;&gt;Node0 -->
<g id="edge1" class="edge">
<title>Node1&#45;&gt;Node0</title>
<path fill="none" stroke="#191970" d="M61.916,-91.4211C61.916,-82.4227 61.916,-73.1937 61.916,-64.7893"/>
<polygon fill="none" stroke="#191970" points="58.4161,-91.4263 61.916,-101.4263 65.4161,-91.4264 58.4161,-91.4263"/>
</g>
</g>
</svg>
