<?xml version="1.0" encoding="UTF-8" standalone="no"?>
<!DOCTYPE svg PUBLIC "-//W3C//DTD SVG 1.1//EN"
 "http://www.w3.org/Graphics/SVG/1.1/DTD/svg11.dtd">
<!-- Generated by graphviz version 2.40.1 (20161225.0304)
 -->
<!-- Title: CKFinder_Connector_CommandHandler_FileUpload Pages: 1 -->
<svg width="227pt" height="395pt"
 viewBox="0.00 0.00 226.87 395.00" xmlns="http://www.w3.org/2000/svg" xmlns:xlink="http://www.w3.org/1999/xlink">
<g id="graph0" class="graph" transform="scale(1 1) rotate(0) translate(4 391)">
<title>CKFinder_Connector_CommandHandler_FileUpload</title>
<polygon fill="#ffffff" stroke="transparent" points="-4,4 -4,-391 222.8711,-391 222.8711,4 -4,4"/>
<!-- Node0 -->
<g id="node1" class="node">
<title>Node0</title>
<polygon fill="#bfbfbf" stroke="#000000" points="31.3989,-111.5 31.3989,-185.5 187.4722,-185.5 187.4722,-111.5 31.3989,-111.5"/>
<text text-anchor="start" x="39.3989" y="-173.5" font-family="Helvetica,sans-Serif" font-size="10.00" fill="#000000">CKFinder_Connector</text>
<text text-anchor="middle" x="109.4355" y="-163.5" font-family="Helvetica,sans-Serif" font-size="10.00" fill="#000000">_CommandHandler_FileUpload</text>
<polyline fill="none" stroke="#000000" points="31.3989,-157.5 187.4722,-157.5 "/>
<text text-anchor="start" x="39.3989" y="-145.5" font-family="Helvetica,sans-Serif" font-size="10.00" fill="#000000">+ $command</text>
<polyline fill="none" stroke="#000000" points="31.3989,-139.5 187.4722,-139.5 "/>
<text text-anchor="start" x="39.3989" y="-127.5" font-family="Helvetica,sans-Serif" font-size="10.00" fill="#000000">+ sendResponse()</text>
<text text-anchor="start" x="39.3989" y="-117.5" font-family="Helvetica,sans-Serif" font-size="10.00" fill="#000000">+ sendResponse()</text>
</g>
<!-- Node2 -->
<g id="node3" class="node">
<title>Node2</title>
<g id="a_node3"><a xlink:href="class_c_k_finder___connector___command_handler___quick_upload.html" target="_top" xlink:title="{CKFinder_Connector\l_CommandHandler_QuickUpload\n|+ $command\l|+ sendResponse()\l+ sendResponse()\l}">
<polygon fill="#ffffff" stroke="#000000" points="26.6748,-.5 26.6748,-74.5 192.1963,-74.5 192.1963,-.5 26.6748,-.5"/>
<text text-anchor="start" x="34.6748" y="-62.5" font-family="Helvetica,sans-Serif" font-size="10.00" fill="#000000">CKFinder_Connector</text>
<text text-anchor="middle" x="109.4355" y="-52.5" font-family="Helvetica,sans-Serif" font-size="10.00" fill="#000000">_CommandHandler_QuickUpload</text>
<polyline fill="none" stroke="#000000" points="26.6748,-46.5 192.1963,-46.5 "/>
<text text-anchor="start" x="34.6748" y="-34.5" font-family="Helvetica,sans-Serif" font-size="10.00" fill="#000000">+ $command</text>
<polyline fill="none" stroke="#000000" points="26.6748,-28.5 192.1963,-28.5 "/>
<text text-anchor="start" x="34.6748" y="-16.5" font-family="Helvetica,sans-Serif" font-size="10.00" fill="#000000">+ sendResponse()</text>
<text text-anchor="start" x="34.6748" y="-6.5" font-family="Helvetica,sans-Serif" font-size="10.00" fill="#000000">+ sendResponse()</text>
</a>
</g>
</g>
<!-- Node0&#45;&gt;Node2 -->
<g id="edge3" class="edge">
<title>Node0&#45;&gt;Node2</title>
<path fill="none" stroke="#191970" d="M102.75,-101.1104C102.6096,-92.336 102.6985,-83.2851 103.0168,-74.8608"/>
<polygon fill="none" stroke="#191970" points="99.2545,-101.3268 103.0202,-111.2298 106.252,-101.1399 99.2545,-101.3268"/>
</g>
<!-- Node0&#45;&gt;Node2 -->
<g id="edge4" class="edge">
<title>Node0&#45;&gt;Node2</title>
<path fill="none" stroke="#191970" d="M116.1211,-101.1104C116.2615,-92.336 116.1726,-83.2851 115.8543,-74.8608"/>
<polygon fill="none" stroke="#191970" points="112.6191,-101.1399 115.8509,-111.2298 119.6166,-101.3268 112.6191,-101.1399"/>
</g>
<!-- Node1 -->
<g id="node2" class="node">
<title>Node1</title>
<g id="a_node2"><a xlink:href="class_c_k_finder___connector___command_handler___command_handler_base.html" target="_top" xlink:title="{CKFinder_Connector\l_CommandHandler_CommandHandlerBase\n|+ $_connector\l+ $_currentFolder\l+ $_errorHandler\l|+ CKFinder_Connector\l_CommandHandler_CommandHandlerBase()\l+ getFolderHandler()\l+ checkConnector()\l+ checkRequest()\l+ __construct()\l+ getFolderHandler()\l# checkConnector()\l# checkRequest()\l}">
<polygon fill="#ffffff" stroke="#000000" points="0,-222.5 0,-386.5 218.8711,-386.5 218.8711,-222.5 0,-222.5"/>
<text text-anchor="start" x="8" y="-374.5" font-family="Helvetica,sans-Serif" font-size="10.00" fill="#000000">CKFinder_Connector</text>
<text text-anchor="middle" x="109.4355" y="-364.5" font-family="Helvetica,sans-Serif" font-size="10.00" fill="#000000">_CommandHandler_CommandHandlerBase</text>
<polyline fill="none" stroke="#000000" points="0,-358.5 218.8711,-358.5 "/>
<text text-anchor="start" x="8" y="-346.5" font-family="Helvetica,sans-Serif" font-size="10.00" fill="#000000">+ $_connector</text>
<text text-anchor="start" x="8" y="-336.5" font-family="Helvetica,sans-Serif" font-size="10.00" fill="#000000">+ $_currentFolder</text>
<text text-anchor="start" x="8" y="-326.5" font-family="Helvetica,sans-Serif" font-size="10.00" fill="#000000">+ $_errorHandler</text>
<polyline fill="none" stroke="#000000" points="0,-320.5 218.8711,-320.5 "/>
<text text-anchor="start" x="8" y="-308.5" font-family="Helvetica,sans-Serif" font-size="10.00" fill="#000000">+ CKFinder_Connector</text>
<text text-anchor="start" x="8" y="-298.5" font-family="Helvetica,sans-Serif" font-size="10.00" fill="#000000">_CommandHandler_CommandHandlerBase()</text>
<text text-anchor="start" x="8" y="-288.5" font-family="Helvetica,sans-Serif" font-size="10.00" fill="#000000">+ getFolderHandler()</text>
<text text-anchor="start" x="8" y="-278.5" font-family="Helvetica,sans-Serif" font-size="10.00" fill="#000000">+ checkConnector()</text>
<text text-anchor="start" x="8" y="-268.5" font-family="Helvetica,sans-Serif" font-size="10.00" fill="#000000">+ checkRequest()</text>
<text text-anchor="start" x="8" y="-258.5" font-family="Helvetica,sans-Serif" font-size="10.00" fill="#000000">+ __construct()</text>
<text text-anchor="start" x="8" y="-248.5" font-family="Helvetica,sans-Serif" font-size="10.00" fill="#000000">+ getFolderHandler()</text>
<text text-anchor="start" x="8" y="-238.5" font-family="Helvetica,sans-Serif" font-size="10.00" fill="#000000"># checkConnector()</text>
<text text-anchor="start" x="8" y="-228.5" font-family="Helvetica,sans-Serif" font-size="10.00" fill="#000000"># checkRequest()</text>
</a>
</g>
</g>
<!-- Node1&#45;&gt;Node0 -->
<g id="edge1" class="edge">
<title>Node1&#45;&gt;Node0</title>
<path fill="none" stroke="#191970" d="M102.7881,-212.1522C102.9232,-202.7974 103.1918,-193.7278 103.5938,-185.5069"/>
<polygon fill="none" stroke="#191970" points="99.2862,-212.3566 102.6939,-222.3884 106.2859,-212.4211 99.2862,-212.3566"/>
</g>
<!-- Node1&#45;&gt;Node0 -->
<g id="edge2" class="edge">
<title>Node1&#45;&gt;Node0</title>
<path fill="none" stroke="#191970" d="M116.083,-212.1522C115.9479,-202.7974 115.6793,-193.7278 115.2773,-185.5069"/>
<polygon fill="none" stroke="#191970" points="112.5852,-212.4211 116.1772,-222.3884 119.5849,-212.3566 112.5852,-212.4211"/>
</g>
</g>
</svg>
