<?xml version="1.0" encoding="UTF-8" standalone="no"?>
<!DOCTYPE svg PUBLIC "-//W3C//DTD SVG 1.1//EN"
 "http://www.w3.org/Graphics/SVG/1.1/DTD/svg11.dtd">
<!-- Generated by graphviz version 2.40.1 (20161225.0304)
 -->
<!-- Title: Swift_Events_CommandEvent Pages: 1 -->
<svg width="159pt" height="315pt"
 viewBox="0.00 0.00 159.06 315.00" xmlns="http://www.w3.org/2000/svg" xmlns:xlink="http://www.w3.org/1999/xlink">
<g id="graph0" class="graph" transform="scale(1 1) rotate(0) translate(4 311)">
<title>Swift_Events_CommandEvent</title>
<polygon fill="#ffffff" stroke="transparent" points="-4,4 -4,-311 155.0635,-311 155.0635,4 -4,4"/>
<!-- Node0 -->
<g id="node1" class="node">
<title>Node0</title>
<polygon fill="#bfbfbf" stroke="#000000" points="0,-.5 0,-74.5 151.0635,-74.5 151.0635,-.5 0,-.5"/>
<text text-anchor="middle" x="75.5317" y="-62.5" font-family="Helvetica,sans-Serif" font-size="10.00" fill="#000000">Swift_Events_CommandEvent</text>
<polyline fill="none" stroke="#000000" points="0,-56.5 151.0635,-56.5 "/>
<text text-anchor="middle" x="75.5317" y="-44.5" font-family="Helvetica,sans-Serif" font-size="10.00" fill="#000000"> </text>
<polyline fill="none" stroke="#000000" points="0,-38.5 151.0635,-38.5 "/>
<text text-anchor="start" x="8" y="-26.5" font-family="Helvetica,sans-Serif" font-size="10.00" fill="#000000">+ __construct()</text>
<text text-anchor="start" x="8" y="-16.5" font-family="Helvetica,sans-Serif" font-size="10.00" fill="#000000">+ getCommand()</text>
<text text-anchor="start" x="8" y="-6.5" font-family="Helvetica,sans-Serif" font-size="10.00" fill="#000000">+ getSuccessCodes()</text>
</g>
<!-- Node1 -->
<g id="node2" class="node">
<title>Node1</title>
<g id="a_node2"><a xlink:href="class_swift___events___event_object.html" target="_top" xlink:title="{Swift_Events_EventObject\n||+ __construct()\l+ getSource()\l+ cancelBubble()\l+ bubbleCancelled()\l}">
<polygon fill="#ffffff" stroke="#000000" points="8.6133,-111.5 8.6133,-195.5 142.4502,-195.5 142.4502,-111.5 8.6133,-111.5"/>
<text text-anchor="middle" x="75.5317" y="-183.5" font-family="Helvetica,sans-Serif" font-size="10.00" fill="#000000">Swift_Events_EventObject</text>
<polyline fill="none" stroke="#000000" points="8.6133,-177.5 142.4502,-177.5 "/>
<text text-anchor="middle" x="75.5317" y="-165.5" font-family="Helvetica,sans-Serif" font-size="10.00" fill="#000000"> </text>
<polyline fill="none" stroke="#000000" points="8.6133,-159.5 142.4502,-159.5 "/>
<text text-anchor="start" x="16.6133" y="-147.5" font-family="Helvetica,sans-Serif" font-size="10.00" fill="#000000">+ __construct()</text>
<text text-anchor="start" x="16.6133" y="-137.5" font-family="Helvetica,sans-Serif" font-size="10.00" fill="#000000">+ getSource()</text>
<text text-anchor="start" x="16.6133" y="-127.5" font-family="Helvetica,sans-Serif" font-size="10.00" fill="#000000">+ cancelBubble()</text>
<text text-anchor="start" x="16.6133" y="-117.5" font-family="Helvetica,sans-Serif" font-size="10.00" fill="#000000">+ bubbleCancelled()</text>
</a>
</g>
</g>
<!-- Node1&#45;&gt;Node0 -->
<g id="edge1" class="edge">
<title>Node1&#45;&gt;Node0</title>
<path fill="none" stroke="#191970" d="M75.5317,-101.0572C75.5317,-92.2275 75.5317,-83.2244 75.5317,-74.8766"/>
<polygon fill="none" stroke="#191970" points="72.0318,-101.2932 75.5317,-111.2932 79.0318,-101.2932 72.0318,-101.2932"/>
</g>
<!-- Node2 -->
<g id="node3" class="node">
<title>Node2</title>
<g id="a_node3"><a xlink:href="interface_swift___events___event.html" target="_top" xlink:title="{Swift_Events_Event\n||+ getSource()\l+ cancelBubble()\l+ bubbleCancelled()\l}">
<polygon fill="#ffffff" stroke="#000000" points="22.6416,-232.5 22.6416,-306.5 128.4219,-306.5 128.4219,-232.5 22.6416,-232.5"/>
<text text-anchor="middle" x="75.5317" y="-294.5" font-family="Helvetica,sans-Serif" font-size="10.00" fill="#000000">Swift_Events_Event</text>
<polyline fill="none" stroke="#000000" points="22.6416,-288.5 128.4219,-288.5 "/>
<text text-anchor="middle" x="75.5317" y="-276.5" font-family="Helvetica,sans-Serif" font-size="10.00" fill="#000000"> </text>
<polyline fill="none" stroke="#000000" points="22.6416,-270.5 128.4219,-270.5 "/>
<text text-anchor="start" x="30.6416" y="-258.5" font-family="Helvetica,sans-Serif" font-size="10.00" fill="#000000">+ getSource()</text>
<text text-anchor="start" x="30.6416" y="-248.5" font-family="Helvetica,sans-Serif" font-size="10.00" fill="#000000">+ cancelBubble()</text>
<text text-anchor="start" x="30.6416" y="-238.5" font-family="Helvetica,sans-Serif" font-size="10.00" fill="#000000">+ bubbleCancelled()</text>
</a>
</g>
</g>
<!-- Node2&#45;&gt;Node1 -->
<g id="edge2" class="edge">
<title>Node2&#45;&gt;Node1</title>
<path fill="none" stroke="#191970" d="M75.5317,-222.3716C75.5317,-213.5842 75.5317,-204.4515 75.5317,-195.8197"/>
<polygon fill="none" stroke="#191970" points="72.0318,-222.4779 75.5317,-232.4779 79.0318,-222.478 72.0318,-222.4779"/>
</g>
</g>
</svg>
