<?xml version="1.0" encoding="UTF-8" standalone="no"?>
<!DOCTYPE svg PUBLIC "-//W3C//DTD SVG 1.1//EN"
 "http://www.w3.org/Graphics/SVG/1.1/DTD/svg11.dtd">
<!-- Generated by graphviz version 2.40.1 (20161225.0304)
 -->
<!-- Title: Google_ContentserviceGet Pages: 1 -->
<svg width="145pt" height="204pt"
 viewBox="0.00 0.00 144.62 204.00" xmlns="http://www.w3.org/2000/svg" xmlns:xlink="http://www.w3.org/1999/xlink">
<g id="graph0" class="graph" transform="scale(1 1) rotate(0) translate(4 200)">
<title>Google_ContentserviceGet</title>
<polygon fill="#ffffff" stroke="transparent" points="-4,4 -4,-200 140.625,-200 140.625,4 -4,4"/>
<!-- Node2 -->
<g id="node1" class="node">
<title>Node2</title>
<polygon fill="#bfbfbf" stroke="#000000" points="0,-.5 0,-64.5 136.625,-64.5 136.625,-.5 0,-.5"/>
<text text-anchor="middle" x="68.3125" y="-52.5" font-family="Helvetica,sans-Serif" font-size="10.00" fill="#000000">Google_ContentserviceGet</text>
<polyline fill="none" stroke="#000000" points="0,-46.5 136.625,-46.5 "/>
<text text-anchor="start" x="8" y="-34.5" font-family="Helvetica,sans-Serif" font-size="10.00" fill="#000000">+ $result</text>
<polyline fill="none" stroke="#000000" points="0,-28.5 136.625,-28.5 "/>
<text text-anchor="start" x="8" y="-16.5" font-family="Helvetica,sans-Serif" font-size="10.00" fill="#000000">+ setResult()</text>
<text text-anchor="start" x="8" y="-6.5" font-family="Helvetica,sans-Serif" font-size="10.00" fill="#000000">+ getResult()</text>
</g>
<!-- Node3 -->
<g id="node2" class="node">
<title>Node3</title>
<g id="a_node2"><a xlink:href="class_google___model.html" target="_top" xlink:title="{Google_Model\n||+ __construct()\l+ assertIsArray()\l# mapTypes()\l# isAssociativeArray()\l# useObjects()\l}">
<polygon fill="#ffffff" stroke="#000000" points="11.9678,-101.5 11.9678,-195.5 124.6572,-195.5 124.6572,-101.5 11.9678,-101.5"/>
<text text-anchor="middle" x="68.3125" y="-183.5" font-family="Helvetica,sans-Serif" font-size="10.00" fill="#000000">Google_Model</text>
<polyline fill="none" stroke="#000000" points="11.9678,-177.5 124.6572,-177.5 "/>
<text text-anchor="middle" x="68.3125" y="-165.5" font-family="Helvetica,sans-Serif" font-size="10.00" fill="#000000"> </text>
<polyline fill="none" stroke="#000000" points="11.9678,-159.5 124.6572,-159.5 "/>
<text text-anchor="start" x="19.9678" y="-147.5" font-family="Helvetica,sans-Serif" font-size="10.00" fill="#000000">+ __construct()</text>
<text text-anchor="start" x="19.9678" y="-137.5" font-family="Helvetica,sans-Serif" font-size="10.00" fill="#000000">+ assertIsArray()</text>
<text text-anchor="start" x="19.9678" y="-127.5" font-family="Helvetica,sans-Serif" font-size="10.00" fill="#000000"># mapTypes()</text>
<text text-anchor="start" x="19.9678" y="-117.5" font-family="Helvetica,sans-Serif" font-size="10.00" fill="#000000"># isAssociativeArray()</text>
<text text-anchor="start" x="19.9678" y="-107.5" font-family="Helvetica,sans-Serif" font-size="10.00" fill="#000000"># useObjects()</text>
</a>
</g>
</g>
<!-- Node3&#45;&gt;Node2 -->
<g id="edge1" class="edge">
<title>Node3&#45;&gt;Node2</title>
<path fill="none" stroke="#191970" d="M68.3125,-91.1299C68.3125,-82.0561 68.3125,-72.9618 68.3125,-64.7354"/>
<polygon fill="none" stroke="#191970" points="64.8126,-91.3183 68.3125,-101.3184 71.8126,-91.3184 64.8126,-91.3183"/>
</g>
</g>
</svg>
