<?xml version="1.0" encoding="UTF-8" standalone="no"?>
<!DOCTYPE svg PUBLIC "-//W3C//DTD SVG 1.1//EN"
 "http://www.w3.org/Graphics/SVG/1.1/DTD/svg11.dtd">
<!-- Generated by graphviz version 2.40.1 (20161225.0304)
 -->
<!-- Title: ContactForm Pages: 1 -->
<svg width="105pt" height="204pt"
 viewBox="0.00 0.00 104.88 204.00" xmlns="http://www.w3.org/2000/svg" xmlns:xlink="http://www.w3.org/1999/xlink">
<g id="graph0" class="graph" transform="scale(1 1) rotate(0) translate(4 200)">
<title>ContactForm</title>
<polygon fill="#ffffff" stroke="transparent" points="-4,4 -4,-200 100.8789,-200 100.8789,4 -4,4"/>
<!-- Node2 -->
<g id="node1" class="node">
<title>Node2</title>
<polygon fill="#bfbfbf" stroke="#000000" points="0,-.5 0,-104.5 96.8789,-104.5 96.8789,-.5 0,-.5"/>
<text text-anchor="middle" x="48.4395" y="-92.5" font-family="Helvetica,sans-Serif" font-size="10.00" fill="#000000">ContactForm</text>
<polyline fill="none" stroke="#000000" points="0,-86.5 96.8789,-86.5 "/>
<text text-anchor="start" x="8" y="-74.5" font-family="Helvetica,sans-Serif" font-size="10.00" fill="#000000">+ $name</text>
<text text-anchor="start" x="8" y="-64.5" font-family="Helvetica,sans-Serif" font-size="10.00" fill="#000000">+ $email</text>
<text text-anchor="start" x="8" y="-54.5" font-family="Helvetica,sans-Serif" font-size="10.00" fill="#000000">+ $subject</text>
<text text-anchor="start" x="8" y="-44.5" font-family="Helvetica,sans-Serif" font-size="10.00" fill="#000000">+ $body</text>
<text text-anchor="start" x="8" y="-34.5" font-family="Helvetica,sans-Serif" font-size="10.00" fill="#000000">+ $verifyCode</text>
<polyline fill="none" stroke="#000000" points="0,-28.5 96.8789,-28.5 "/>
<text text-anchor="start" x="8" y="-16.5" font-family="Helvetica,sans-Serif" font-size="10.00" fill="#000000">+ rules()</text>
<text text-anchor="start" x="8" y="-6.5" font-family="Helvetica,sans-Serif" font-size="10.00" fill="#000000">+ attributeLabels()</text>
</g>
<!-- Node3 -->
<g id="node2" class="node">
<title>Node3</title>
<polygon fill="#ffffff" stroke="#bfbfbf" points="11.5454,-141.5 11.5454,-195.5 85.3335,-195.5 85.3335,-141.5 11.5454,-141.5"/>
<text text-anchor="middle" x="48.4395" y="-183.5" font-family="Helvetica,sans-Serif" font-size="10.00" fill="#000000">CFormModel</text>
<polyline fill="none" stroke="#bfbfbf" points="11.5454,-177.5 85.3335,-177.5 "/>
<text text-anchor="middle" x="48.4395" y="-165.5" font-family="Helvetica,sans-Serif" font-size="10.00" fill="#000000"> </text>
<polyline fill="none" stroke="#bfbfbf" points="11.5454,-159.5 85.3335,-159.5 "/>
<text text-anchor="middle" x="48.4395" y="-147.5" font-family="Helvetica,sans-Serif" font-size="10.00" fill="#000000"> </text>
</g>
<!-- Node3&#45;&gt;Node2 -->
<g id="edge1" class="edge">
<title>Node3&#45;&gt;Node2</title>
<path fill="none" stroke="#191970" d="M48.4395,-131.0375C48.4395,-122.6013 48.4395,-113.4994 48.4395,-104.5858"/>
<polygon fill="none" stroke="#191970" points="44.9396,-131.3031 48.4395,-141.3032 51.9396,-131.3032 44.9396,-131.3031"/>
</g>
</g>
</svg>
