<?xml version="1.0" encoding="UTF-8" standalone="no"?>
<!DOCTYPE svg PUBLIC "-//W3C//DTD SVG 1.1//EN"
 "http://www.w3.org/Graphics/SVG/1.1/DTD/svg11.dtd">
<!-- Generated by graphviz version 2.40.1 (20161225.0304)
 -->
<!-- Title: Swift_Transport_Esmtp_Auth_LoginAuthenticator Pages: 1 -->
<svg width="139pt" height="194pt"
 viewBox="0.00 0.00 139.09 194.00" xmlns="http://www.w3.org/2000/svg" xmlns:xlink="http://www.w3.org/1999/xlink">
<g id="graph0" class="graph" transform="scale(1 1) rotate(0) translate(4 190)">
<title>Swift_Transport_Esmtp_Auth_LoginAuthenticator</title>
<polygon fill="#ffffff" stroke="transparent" points="-4,4 -4,-190 135.0879,-190 135.0879,4 -4,4"/>
<!-- Node2 -->
<g id="node1" class="node">
<title>Node2</title>
<polygon fill="#bfbfbf" stroke="#000000" points="0,-.5 0,-74.5 131.0879,-74.5 131.0879,-.5 0,-.5"/>
<text text-anchor="start" x="8" y="-62.5" font-family="Helvetica,sans-Serif" font-size="10.00" fill="#000000">Swift_Transport_Esmtp</text>
<text text-anchor="middle" x="65.5439" y="-52.5" font-family="Helvetica,sans-Serif" font-size="10.00" fill="#000000">_Auth_LoginAuthenticator</text>
<polyline fill="none" stroke="#000000" points="0,-46.5 131.0879,-46.5 "/>
<text text-anchor="middle" x="65.5439" y="-34.5" font-family="Helvetica,sans-Serif" font-size="10.00" fill="#000000"> </text>
<polyline fill="none" stroke="#000000" points="0,-28.5 131.0879,-28.5 "/>
<text text-anchor="start" x="8" y="-16.5" font-family="Helvetica,sans-Serif" font-size="10.00" fill="#000000">+ getAuthKeyword()</text>
<text text-anchor="start" x="8" y="-6.5" font-family="Helvetica,sans-Serif" font-size="10.00" fill="#000000">+ authenticate()</text>
</g>
<!-- Node3 -->
<g id="node2" class="node">
<title>Node3</title>
<g id="a_node2"><a xlink:href="interface_swift___transport___esmtp___authenticator.html" target="_top" xlink:title="{Swift_Transport_Esmtp\l_Authenticator\n||+ getAuthKeyword()\l+ authenticate()\l}">
<polygon fill="#ffffff" stroke="#000000" points="5.7642,-111.5 5.7642,-185.5 125.3237,-185.5 125.3237,-111.5 5.7642,-111.5"/>
<text text-anchor="start" x="13.7642" y="-173.5" font-family="Helvetica,sans-Serif" font-size="10.00" fill="#000000">Swift_Transport_Esmtp</text>
<text text-anchor="middle" x="65.5439" y="-163.5" font-family="Helvetica,sans-Serif" font-size="10.00" fill="#000000">_Authenticator</text>
<polyline fill="none" stroke="#000000" points="5.7642,-157.5 125.3237,-157.5 "/>
<text text-anchor="middle" x="65.5439" y="-145.5" font-family="Helvetica,sans-Serif" font-size="10.00" fill="#000000"> </text>
<polyline fill="none" stroke="#000000" points="5.7642,-139.5 125.3237,-139.5 "/>
<text text-anchor="start" x="13.7642" y="-127.5" font-family="Helvetica,sans-Serif" font-size="10.00" fill="#000000">+ getAuthKeyword()</text>
<text text-anchor="start" x="13.7642" y="-117.5" font-family="Helvetica,sans-Serif" font-size="10.00" fill="#000000">+ authenticate()</text>
</a>
</g>
</g>
<!-- Node3&#45;&gt;Node2 -->
<g id="edge1" class="edge">
<title>Node3&#45;&gt;Node2</title>
<path fill="none" stroke="#191970" d="M65.5439,-101.1104C65.5439,-92.336 65.5439,-83.2851 65.5439,-74.8608"/>
<polygon fill="none" stroke="#191970" points="62.044,-101.2298 65.5439,-111.2298 69.044,-101.2299 62.044,-101.2298"/>
</g>
</g>
</svg>
