<?xml version="1.0" encoding="UTF-8" standalone="no"?>
<!DOCTYPE svg PUBLIC "-//W3C//DTD SVG 1.1//EN"
 "http://www.w3.org/Graphics/SVG/1.1/DTD/svg11.dtd">
<!-- Generated by graphviz version 2.40.1 (20161225.0304)
 -->
<!-- Title: Google_CoordinateService Pages: 1 -->
<svg width="144pt" height="214pt"
 viewBox="0.00 0.00 144.07 214.00" xmlns="http://www.w3.org/2000/svg" xmlns:xlink="http://www.w3.org/1999/xlink">
<g id="graph0" class="graph" transform="scale(1 1) rotate(0) translate(4 210)">
<title>Google_CoordinateService</title>
<polygon fill="#ffffff" stroke="transparent" points="-4,4 -4,-210 140.0732,-210 140.0732,4 -4,4"/>
<!-- Node2 -->
<g id="node1" class="node">
<title>Node2</title>
<polygon fill="#bfbfbf" stroke="#000000" points="0,-.5 0,-94.5 136.0732,-94.5 136.0732,-.5 0,-.5"/>
<text text-anchor="middle" x="68.0366" y="-82.5" font-family="Helvetica,sans-Serif" font-size="10.00" fill="#000000">Google_CoordinateService</text>
<polyline fill="none" stroke="#000000" points="0,-76.5 136.0732,-76.5 "/>
<text text-anchor="start" x="8" y="-64.5" font-family="Helvetica,sans-Serif" font-size="10.00" fill="#000000">+ $customFieldDef</text>
<text text-anchor="start" x="8" y="-54.5" font-family="Helvetica,sans-Serif" font-size="10.00" fill="#000000">+ $jobs</text>
<text text-anchor="start" x="8" y="-44.5" font-family="Helvetica,sans-Serif" font-size="10.00" fill="#000000">+ $location</text>
<text text-anchor="start" x="8" y="-34.5" font-family="Helvetica,sans-Serif" font-size="10.00" fill="#000000">+ $schedule</text>
<text text-anchor="start" x="8" y="-24.5" font-family="Helvetica,sans-Serif" font-size="10.00" fill="#000000">+ $worker</text>
<polyline fill="none" stroke="#000000" points="0,-18.5 136.0732,-18.5 "/>
<text text-anchor="start" x="8" y="-6.5" font-family="Helvetica,sans-Serif" font-size="10.00" fill="#000000">+ __construct()</text>
</g>
<!-- Node3 -->
<g id="node2" class="node">
<title>Node3</title>
<g id="a_node2"><a xlink:href="class_google___service.html" target="_top" xlink:title="{Google_Service\n|+ $version\l+ $servicePath\l+ $resource\l|}">
<polygon fill="#ffffff" stroke="#000000" points="24.4604,-131.5 24.4604,-205.5 111.6128,-205.5 111.6128,-131.5 24.4604,-131.5"/>
<text text-anchor="middle" x="68.0366" y="-193.5" font-family="Helvetica,sans-Serif" font-size="10.00" fill="#000000">Google_Service</text>
<polyline fill="none" stroke="#000000" points="24.4604,-187.5 111.6128,-187.5 "/>
<text text-anchor="start" x="32.4604" y="-175.5" font-family="Helvetica,sans-Serif" font-size="10.00" fill="#000000">+ $version</text>
<text text-anchor="start" x="32.4604" y="-165.5" font-family="Helvetica,sans-Serif" font-size="10.00" fill="#000000">+ $servicePath</text>
<text text-anchor="start" x="32.4604" y="-155.5" font-family="Helvetica,sans-Serif" font-size="10.00" fill="#000000">+ $resource</text>
<polyline fill="none" stroke="#000000" points="24.4604,-149.5 111.6128,-149.5 "/>
<text text-anchor="middle" x="68.0366" y="-137.5" font-family="Helvetica,sans-Serif" font-size="10.00" fill="#000000"> </text>
</a>
</g>
</g>
<!-- Node3&#45;&gt;Node2 -->
<g id="edge1" class="edge">
<title>Node3&#45;&gt;Node2</title>
<path fill="none" stroke="#191970" d="M68.0366,-120.9307C68.0366,-112.3143 68.0366,-103.3308 68.0366,-94.7244"/>
<polygon fill="none" stroke="#191970" points="64.5367,-121.2087 68.0366,-131.2087 71.5367,-121.2087 64.5367,-121.2087"/>
</g>
</g>
</svg>
