<?xml version="1.0" encoding="UTF-8" standalone="no"?>
<!DOCTYPE svg PUBLIC "-//W3C//DTD SVG 1.1//EN"
 "http://www.w3.org/Graphics/SVG/1.1/DTD/svg11.dtd">
<!-- Generated by graphviz version 2.40.1 (20161225.0304)
 -->
<!-- Title: Swift_Encoder_Rfc2231Encoder Pages: 1 -->
<svg width="169pt" height="265pt"
 viewBox="0.00 0.00 168.53 265.00" xmlns="http://www.w3.org/2000/svg" xmlns:xlink="http://www.w3.org/1999/xlink">
<g id="graph0" class="graph" transform="scale(1 1) rotate(0) translate(4 261)">
<title>Swift_Encoder_Rfc2231Encoder</title>
<polygon fill="#ffffff" stroke="transparent" points="-4,4 -4,-261 164.5313,-261 164.5313,4 -4,4"/>
<!-- Node0 -->
<g id="node1" class="node">
<title>Node0</title>
<polygon fill="#bfbfbf" stroke="#000000" points="0,-.5 0,-74.5 160.5313,-74.5 160.5313,-.5 0,-.5"/>
<text text-anchor="middle" x="80.2656" y="-62.5" font-family="Helvetica,sans-Serif" font-size="10.00" fill="#000000">Swift_Encoder_Rfc2231Encoder</text>
<polyline fill="none" stroke="#000000" points="0,-56.5 160.5313,-56.5 "/>
<text text-anchor="middle" x="80.2656" y="-44.5" font-family="Helvetica,sans-Serif" font-size="10.00" fill="#000000"> </text>
<polyline fill="none" stroke="#000000" points="0,-38.5 160.5313,-38.5 "/>
<text text-anchor="start" x="8" y="-26.5" font-family="Helvetica,sans-Serif" font-size="10.00" fill="#000000">+ __construct()</text>
<text text-anchor="start" x="8" y="-16.5" font-family="Helvetica,sans-Serif" font-size="10.00" fill="#000000">+ encodeString()</text>
<text text-anchor="start" x="8" y="-6.5" font-family="Helvetica,sans-Serif" font-size="10.00" fill="#000000">+ charsetChanged()</text>
</g>
<!-- Node1 -->
<g id="node2" class="node">
<title>Node1</title>
<g id="a_node2"><a xlink:href="interface_swift___encoder.html" target="_top" xlink:title="{Swift_Encoder\n||+ encodeString()\l}">
<polygon fill="#ffffff" stroke="#000000" points="35.1611,-111.5 35.1611,-165.5 125.3701,-165.5 125.3701,-111.5 35.1611,-111.5"/>
<text text-anchor="middle" x="80.2656" y="-153.5" font-family="Helvetica,sans-Serif" font-size="10.00" fill="#000000">Swift_Encoder</text>
<polyline fill="none" stroke="#000000" points="35.1611,-147.5 125.3701,-147.5 "/>
<text text-anchor="middle" x="80.2656" y="-135.5" font-family="Helvetica,sans-Serif" font-size="10.00" fill="#000000"> </text>
<polyline fill="none" stroke="#000000" points="35.1611,-129.5 125.3701,-129.5 "/>
<text text-anchor="start" x="43.1611" y="-117.5" font-family="Helvetica,sans-Serif" font-size="10.00" fill="#000000">+ encodeString()</text>
</a>
</g>
</g>
<!-- Node1&#45;&gt;Node0 -->
<g id="edge1" class="edge">
<title>Node1&#45;&gt;Node0</title>
<path fill="none" stroke="#191970" d="M80.2656,-101.1725C80.2656,-92.4692 80.2656,-83.2047 80.2656,-74.515"/>
<polygon fill="none" stroke="#191970" points="76.7657,-101.4338 80.2656,-111.4339 83.7657,-101.4339 76.7657,-101.4338"/>
</g>
<!-- Node2 -->
<g id="node3" class="node">
<title>Node2</title>
<g id="a_node3"><a xlink:href="interface_swift___mime___charset_observer.html" target="_top" xlink:title="{Swift_Mime_CharsetObserver\n||+ charsetChanged()\l}">
<polygon fill="#ffffff" stroke="#000000" points="5.5786,-202.5 5.5786,-256.5 154.9526,-256.5 154.9526,-202.5 5.5786,-202.5"/>
<text text-anchor="middle" x="80.2656" y="-244.5" font-family="Helvetica,sans-Serif" font-size="10.00" fill="#000000">Swift_Mime_CharsetObserver</text>
<polyline fill="none" stroke="#000000" points="5.5786,-238.5 154.9526,-238.5 "/>
<text text-anchor="middle" x="80.2656" y="-226.5" font-family="Helvetica,sans-Serif" font-size="10.00" fill="#000000"> </text>
<polyline fill="none" stroke="#000000" points="5.5786,-220.5 154.9526,-220.5 "/>
<text text-anchor="start" x="13.5786" y="-208.5" font-family="Helvetica,sans-Serif" font-size="10.00" fill="#000000">+ charsetChanged()</text>
</a>
</g>
</g>
<!-- Node2&#45;&gt;Node1 -->
<g id="edge2" class="edge">
<title>Node2&#45;&gt;Node1</title>
<path fill="none" stroke="#191970" d="M80.2656,-192.12C80.2656,-183.3006 80.2656,-174.0605 80.2656,-165.7837"/>
<polygon fill="none" stroke="#191970" points="76.7657,-192.197 80.2656,-202.197 83.7657,-192.197 76.7657,-192.197"/>
</g>
</g>
</svg>
