<?xml version="1.0" encoding="UTF-8" standalone="no"?>
<!DOCTYPE svg PUBLIC "-//W3C//DTD SVG 1.1//EN"
 "http://www.w3.org/Graphics/SVG/1.1/DTD/svg11.dtd">
<!-- Generated by graphviz version 2.40.1 (20161225.0304)
 -->
<!-- Title: Google_GroupsServiceResource Pages: 1 -->
<svg width="171pt" height="264pt"
 viewBox="0.00 0.00 170.74 264.00" xmlns="http://www.w3.org/2000/svg" xmlns:xlink="http://www.w3.org/1999/xlink">
<g id="graph0" class="graph" transform="scale(1 1) rotate(0) translate(4 260)">
<title>Google_GroupsServiceResource</title>
<polygon fill="#ffffff" stroke="transparent" points="-4,4 -4,-260 166.7432,-260 166.7432,4 -4,4"/>
<!-- Node2 -->
<g id="node1" class="node">
<title>Node2</title>
<polygon fill="#bfbfbf" stroke="#000000" points="0,-.5 0,-134.5 162.7432,-134.5 162.7432,-.5 0,-.5"/>
<text text-anchor="middle" x="81.3716" y="-122.5" font-family="Helvetica,sans-Serif" font-size="10.00" fill="#000000">Google_GroupsServiceResource</text>
<polyline fill="none" stroke="#000000" points="0,-116.5 162.7432,-116.5 "/>
<text text-anchor="middle" x="81.3716" y="-104.5" font-family="Helvetica,sans-Serif" font-size="10.00" fill="#000000"> </text>
<polyline fill="none" stroke="#000000" points="0,-98.5 162.7432,-98.5 "/>
<text text-anchor="start" x="8" y="-86.5" font-family="Helvetica,sans-Serif" font-size="10.00" fill="#000000">+ delete()</text>
<text text-anchor="start" x="8" y="-76.5" font-family="Helvetica,sans-Serif" font-size="10.00" fill="#000000">+ get()</text>
<text text-anchor="start" x="8" y="-66.5" font-family="Helvetica,sans-Serif" font-size="10.00" fill="#000000">+ insert()</text>
<text text-anchor="start" x="8" y="-56.5" font-family="Helvetica,sans-Serif" font-size="10.00" fill="#000000">+ listGroups()</text>
<text text-anchor="start" x="8" y="-46.5" font-family="Helvetica,sans-Serif" font-size="10.00" fill="#000000">+ patch()</text>
<text text-anchor="start" x="8" y="-36.5" font-family="Helvetica,sans-Serif" font-size="10.00" fill="#000000">+ update()</text>
<text text-anchor="start" x="8" y="-26.5" font-family="Helvetica,sans-Serif" font-size="10.00" fill="#000000">+ get()</text>
<text text-anchor="start" x="8" y="-16.5" font-family="Helvetica,sans-Serif" font-size="10.00" fill="#000000">+ patch()</text>
<text text-anchor="start" x="8" y="-6.5" font-family="Helvetica,sans-Serif" font-size="10.00" fill="#000000">+ update()</text>
</g>
<!-- Node3 -->
<g id="node2" class="node">
<title>Node3</title>
<g id="a_node2"><a xlink:href="class_google___service_resource.html" target="_top" xlink:title="{Google_ServiceResource\n||+ __construct()\l+ __call()\l+ useObjects()\l# stripNull()\l}">
<polygon fill="#ffffff" stroke="#000000" points="16.3965,-171.5 16.3965,-255.5 146.3467,-255.5 146.3467,-171.5 16.3965,-171.5"/>
<text text-anchor="middle" x="81.3716" y="-243.5" font-family="Helvetica,sans-Serif" font-size="10.00" fill="#000000">Google_ServiceResource</text>
<polyline fill="none" stroke="#000000" points="16.3965,-237.5 146.3467,-237.5 "/>
<text text-anchor="middle" x="81.3716" y="-225.5" font-family="Helvetica,sans-Serif" font-size="10.00" fill="#000000"> </text>
<polyline fill="none" stroke="#000000" points="16.3965,-219.5 146.3467,-219.5 "/>
<text text-anchor="start" x="24.3965" y="-207.5" font-family="Helvetica,sans-Serif" font-size="10.00" fill="#000000">+ __construct()</text>
<text text-anchor="start" x="24.3965" y="-197.5" font-family="Helvetica,sans-Serif" font-size="10.00" fill="#000000">+ __call()</text>
<text text-anchor="start" x="24.3965" y="-187.5" font-family="Helvetica,sans-Serif" font-size="10.00" fill="#000000">+ useObjects()</text>
<text text-anchor="start" x="24.3965" y="-177.5" font-family="Helvetica,sans-Serif" font-size="10.00" fill="#000000"># stripNull()</text>
</a>
</g>
</g>
<!-- Node3&#45;&gt;Node2 -->
<g id="edge1" class="edge">
<title>Node3&#45;&gt;Node2</title>
<path fill="none" stroke="#191970" d="M74.8655,-161.0637C74.6572,-152.4995 74.5824,-143.5242 74.6408,-134.6643"/>
<polygon fill="none" stroke="#191970" points="71.3738,-161.3854 75.1856,-171.2708 78.3703,-161.1659 71.3738,-161.3854"/>
</g>
<!-- Node3&#45;&gt;Node2 -->
<g id="edge2" class="edge">
<title>Node3&#45;&gt;Node2</title>
<path fill="none" stroke="#191970" d="M87.8777,-161.0637C88.0859,-152.4995 88.1608,-143.5242 88.1024,-134.6643"/>
<polygon fill="none" stroke="#191970" points="84.3729,-161.1659 87.5576,-171.2708 91.3694,-161.3854 84.3729,-161.1659"/>
</g>
</g>
</svg>
