<?xml version="1.0" encoding="UTF-8" standalone="no"?>
<!DOCTYPE svg PUBLIC "-//W3C//DTD SVG 1.1//EN"
 "http://www.w3.org/Graphics/SVG/1.1/DTD/svg11.dtd">
<!-- Generated by graphviz version 2.40.1 (20161225.0304)
 -->
<!-- Title: Google_AccountsAdclientsServiceResource Pages: 1 -->
<svg width="144pt" height="214pt"
 viewBox="0.00 0.00 143.52 214.00" xmlns="http://www.w3.org/2000/svg" xmlns:xlink="http://www.w3.org/1999/xlink">
<g id="graph0" class="graph" transform="scale(1 1) rotate(0) translate(4 210)">
<title>Google_AccountsAdclientsServiceResource</title>
<polygon fill="#ffffff" stroke="transparent" points="-4,4 -4,-210 139.5166,-210 139.5166,4 -4,4"/>
<!-- Node0 -->
<g id="node1" class="node">
<title>Node0</title>
<polygon fill="#bfbfbf" stroke="#000000" points="0,-.5 0,-84.5 135.5166,-84.5 135.5166,-.5 0,-.5"/>
<text text-anchor="start" x="8" y="-72.5" font-family="Helvetica,sans-Serif" font-size="10.00" fill="#000000">Google_AccountsAdclients</text>
<text text-anchor="middle" x="67.7583" y="-62.5" font-family="Helvetica,sans-Serif" font-size="10.00" fill="#000000">ServiceResource</text>
<polyline fill="none" stroke="#000000" points="0,-56.5 135.5166,-56.5 "/>
<text text-anchor="middle" x="67.7583" y="-44.5" font-family="Helvetica,sans-Serif" font-size="10.00" fill="#000000"> </text>
<polyline fill="none" stroke="#000000" points="0,-38.5 135.5166,-38.5 "/>
<text text-anchor="start" x="8" y="-26.5" font-family="Helvetica,sans-Serif" font-size="10.00" fill="#000000">+ get()</text>
<text text-anchor="start" x="8" y="-16.5" font-family="Helvetica,sans-Serif" font-size="10.00" fill="#000000">+ listAccountsAdclients()</text>
<text text-anchor="start" x="8" y="-6.5" font-family="Helvetica,sans-Serif" font-size="10.00" fill="#000000">+ listAccountsAdclients()</text>
</g>
<!-- Node1 -->
<g id="node2" class="node">
<title>Node1</title>
<g id="a_node2"><a xlink:href="class_google___service_resource.html" target="_top" xlink:title="{Google_ServiceResource\n||+ __construct()\l+ __call()\l+ useObjects()\l# stripNull()\l}">
<polygon fill="#ffffff" stroke="#000000" points="2.7832,-121.5 2.7832,-205.5 132.7334,-205.5 132.7334,-121.5 2.7832,-121.5"/>
<text text-anchor="middle" x="67.7583" y="-193.5" font-family="Helvetica,sans-Serif" font-size="10.00" fill="#000000">Google_ServiceResource</text>
<polyline fill="none" stroke="#000000" points="2.7832,-187.5 132.7334,-187.5 "/>
<text text-anchor="middle" x="67.7583" y="-175.5" font-family="Helvetica,sans-Serif" font-size="10.00" fill="#000000"> </text>
<polyline fill="none" stroke="#000000" points="2.7832,-169.5 132.7334,-169.5 "/>
<text text-anchor="start" x="10.7832" y="-157.5" font-family="Helvetica,sans-Serif" font-size="10.00" fill="#000000">+ __construct()</text>
<text text-anchor="start" x="10.7832" y="-147.5" font-family="Helvetica,sans-Serif" font-size="10.00" fill="#000000">+ __call()</text>
<text text-anchor="start" x="10.7832" y="-137.5" font-family="Helvetica,sans-Serif" font-size="10.00" fill="#000000">+ useObjects()</text>
<text text-anchor="start" x="10.7832" y="-127.5" font-family="Helvetica,sans-Serif" font-size="10.00" fill="#000000"># stripNull()</text>
</a>
</g>
</g>
<!-- Node1&#45;&gt;Node0 -->
<g id="edge1" class="edge">
<title>Node1&#45;&gt;Node0</title>
<path fill="none" stroke="#191970" d="M61.0607,-110.977C60.9442,-102.1562 61.022,-93.1052 61.294,-84.5917"/>
<polygon fill="none" stroke="#191970" points="57.566,-111.2601 61.2868,-121.1801 64.5643,-111.105 57.566,-111.2601"/>
</g>
<!-- Node1&#45;&gt;Node0 -->
<g id="edge2" class="edge">
<title>Node1&#45;&gt;Node0</title>
<path fill="none" stroke="#191970" d="M74.4559,-110.977C74.5724,-102.1562 74.4946,-93.1052 74.2226,-84.5917"/>
<polygon fill="none" stroke="#191970" points="70.9523,-111.105 74.2298,-121.1801 77.9506,-111.2601 70.9523,-111.105"/>
</g>
</g>
</svg>
