<?xml version="1.0" encoding="UTF-8" standalone="no"?>
<!DOCTYPE svg PUBLIC "-//W3C//DTD SVG 1.1//EN"
 "http://www.w3.org/Graphics/SVG/1.1/DTD/svg11.dtd">
<!-- Generated by graphviz version 2.40.1 (20161225.0304)
 -->
<!-- Title: Google_Exception Pages: 1 -->
<svg width="106pt" height="154pt"
 viewBox="0.00 0.00 105.72 154.00" xmlns="http://www.w3.org/2000/svg" xmlns:xlink="http://www.w3.org/1999/xlink">
<g id="graph0" class="graph" transform="scale(1 1) rotate(0) translate(4 150)">
<title>Google_Exception</title>
<polygon fill="#ffffff" stroke="transparent" points="-4,4 -4,-150 101.7236,-150 101.7236,4 -4,4"/>
<!-- Node6 -->
<g id="node1" class="node">
<title>Node6</title>
<polygon fill="#bfbfbf" stroke="#000000" points="0,-.5 0,-54.5 97.7236,-54.5 97.7236,-.5 0,-.5"/>
<text text-anchor="middle" x="48.8618" y="-42.5" font-family="Helvetica,sans-Serif" font-size="10.00" fill="#000000">Google_Exception</text>
<polyline fill="none" stroke="#000000" points="0,-36.5 97.7236,-36.5 "/>
<text text-anchor="middle" x="48.8618" y="-24.5" font-family="Helvetica,sans-Serif" font-size="10.00" fill="#000000"> </text>
<polyline fill="none" stroke="#000000" points="0,-18.5 97.7236,-18.5 "/>
<text text-anchor="middle" x="48.8618" y="-6.5" font-family="Helvetica,sans-Serif" font-size="10.00" fill="#000000"> </text>
</g>
<!-- Node7 -->
<g id="node2" class="node">
<title>Node7</title>
<polygon fill="#ffffff" stroke="#bfbfbf" points="18.9038,-91.5 18.9038,-145.5 78.8198,-145.5 78.8198,-91.5 18.9038,-91.5"/>
<text text-anchor="middle" x="48.8618" y="-133.5" font-family="Helvetica,sans-Serif" font-size="10.00" fill="#000000">Exception</text>
<polyline fill="none" stroke="#bfbfbf" points="18.9038,-127.5 78.8198,-127.5 "/>
<text text-anchor="middle" x="48.8618" y="-115.5" font-family="Helvetica,sans-Serif" font-size="10.00" fill="#000000"> </text>
<polyline fill="none" stroke="#bfbfbf" points="18.9038,-109.5 78.8198,-109.5 "/>
<text text-anchor="middle" x="48.8618" y="-97.5" font-family="Helvetica,sans-Serif" font-size="10.00" fill="#000000"> </text>
</g>
<!-- Node7&#45;&gt;Node6 -->
<g id="edge1" class="edge">
<title>Node7&#45;&gt;Node6</title>
<path fill="none" stroke="#191970" d="M48.8618,-81.12C48.8618,-72.3006 48.8618,-63.0605 48.8618,-54.7837"/>
<polygon fill="none" stroke="#191970" points="45.3619,-81.197 48.8618,-91.197 52.3619,-81.197 45.3619,-81.197"/>
</g>
</g>
</svg>
