<?xml version="1.0" encoding="UTF-8" standalone="no"?>
<!DOCTYPE svg PUBLIC "-//W3C//DTD SVG 1.1//EN"
 "http://www.w3.org/Graphics/SVG/1.1/DTD/svg11.dtd">
<!-- Generated by graphviz version 2.40.1 (20161225.0304)
 -->
<!-- Title: Google_OrkutActivitypersonResourceImage Pages: 1 -->
<svg width="149pt" height="214pt"
 viewBox="0.00 0.00 148.50 214.00" xmlns="http://www.w3.org/2000/svg" xmlns:xlink="http://www.w3.org/1999/xlink">
<g id="graph0" class="graph" transform="scale(1 1) rotate(0) translate(4 210)">
<title>Google_OrkutActivitypersonResourceImage</title>
<polygon fill="#ffffff" stroke="transparent" points="-4,4 -4,-210 144.502,-210 144.502,4 -4,4"/>
<!-- Node2 -->
<g id="node1" class="node">
<title>Node2</title>
<polygon fill="#bfbfbf" stroke="#000000" points="0,-.5 0,-74.5 140.502,-74.5 140.502,-.5 0,-.5"/>
<text text-anchor="start" x="8" y="-62.5" font-family="Helvetica,sans-Serif" font-size="10.00" fill="#000000">Google_OrkutActivityperson</text>
<text text-anchor="middle" x="70.251" y="-52.5" font-family="Helvetica,sans-Serif" font-size="10.00" fill="#000000">ResourceImage</text>
<polyline fill="none" stroke="#000000" points="0,-46.5 140.502,-46.5 "/>
<text text-anchor="start" x="8" y="-34.5" font-family="Helvetica,sans-Serif" font-size="10.00" fill="#000000">+ $url</text>
<polyline fill="none" stroke="#000000" points="0,-28.5 140.502,-28.5 "/>
<text text-anchor="start" x="8" y="-16.5" font-family="Helvetica,sans-Serif" font-size="10.00" fill="#000000">+ setUrl()</text>
<text text-anchor="start" x="8" y="-6.5" font-family="Helvetica,sans-Serif" font-size="10.00" fill="#000000">+ getUrl()</text>
</g>
<!-- Node3 -->
<g id="node2" class="node">
<title>Node3</title>
<g id="a_node2"><a xlink:href="class_google___model.html" target="_top" xlink:title="{Google_Model\n||+ __construct()\l+ assertIsArray()\l# mapTypes()\l# isAssociativeArray()\l# useObjects()\l}">
<polygon fill="#ffffff" stroke="#000000" points="13.9063,-111.5 13.9063,-205.5 126.5957,-205.5 126.5957,-111.5 13.9063,-111.5"/>
<text text-anchor="middle" x="70.251" y="-193.5" font-family="Helvetica,sans-Serif" font-size="10.00" fill="#000000">Google_Model</text>
<polyline fill="none" stroke="#000000" points="13.9063,-187.5 126.5957,-187.5 "/>
<text text-anchor="middle" x="70.251" y="-175.5" font-family="Helvetica,sans-Serif" font-size="10.00" fill="#000000"> </text>
<polyline fill="none" stroke="#000000" points="13.9063,-169.5 126.5957,-169.5 "/>
<text text-anchor="start" x="21.9063" y="-157.5" font-family="Helvetica,sans-Serif" font-size="10.00" fill="#000000">+ __construct()</text>
<text text-anchor="start" x="21.9063" y="-147.5" font-family="Helvetica,sans-Serif" font-size="10.00" fill="#000000">+ assertIsArray()</text>
<text text-anchor="start" x="21.9063" y="-137.5" font-family="Helvetica,sans-Serif" font-size="10.00" fill="#000000"># mapTypes()</text>
<text text-anchor="start" x="21.9063" y="-127.5" font-family="Helvetica,sans-Serif" font-size="10.00" fill="#000000"># isAssociativeArray()</text>
<text text-anchor="start" x="21.9063" y="-117.5" font-family="Helvetica,sans-Serif" font-size="10.00" fill="#000000"># useObjects()</text>
</a>
</g>
</g>
<!-- Node3&#45;&gt;Node2 -->
<g id="edge1" class="edge">
<title>Node3&#45;&gt;Node2</title>
<path fill="none" stroke="#191970" d="M70.251,-101.2279C70.251,-92.1684 70.251,-83.0122 70.251,-74.5748"/>
<polygon fill="none" stroke="#191970" points="66.7511,-101.3717 70.251,-111.3718 73.7511,-101.3718 66.7511,-101.3717"/>
</g>
</g>
</svg>
