<?xml version="1.0" encoding="UTF-8" standalone="no"?>
<!DOCTYPE svg PUBLIC "-//W3C//DTD SVG 1.1//EN"
 "http://www.w3.org/Graphics/SVG/1.1/DTD/svg11.dtd">
<!-- Generated by graphviz version 2.40.1 (20161225.0304)
 -->
<!-- Title: UserController Pages: 1 -->
<svg width="177pt" height="435pt"
 viewBox="0.00 0.00 176.54 435.00" xmlns="http://www.w3.org/2000/svg" xmlns:xlink="http://www.w3.org/1999/xlink">
<g id="graph0" class="graph" transform="scale(1 1) rotate(0) translate(4 431)">
<title>UserController</title>
<polygon fill="#ffffff" stroke="transparent" points="-4,4 -4,-431 172.5439,-431 172.5439,4 -4,4"/>
<!-- Node3 -->
<g id="node1" class="node">
<title>Node3</title>
<polygon fill="#bfbfbf" stroke="#000000" points="20.2271,-.5 20.2271,-164.5 148.3169,-164.5 148.3169,-.5 20.2271,-.5"/>
<text text-anchor="middle" x="84.272" y="-152.5" font-family="Helvetica,sans-Serif" font-size="10.00" fill="#000000">UserController</text>
<polyline fill="none" stroke="#000000" points="20.2271,-146.5 148.3169,-146.5 "/>
<text text-anchor="start" x="28.2271" y="-134.5" font-family="Helvetica,sans-Serif" font-size="10.00" fill="#000000">+ $_permissionControl</text>
<polyline fill="none" stroke="#000000" points="20.2271,-128.5 148.3169,-128.5 "/>
<text text-anchor="start" x="28.2271" y="-116.5" font-family="Helvetica,sans-Serif" font-size="10.00" fill="#000000">+ filters()</text>
<text text-anchor="start" x="28.2271" y="-106.5" font-family="Helvetica,sans-Serif" font-size="10.00" fill="#000000">+ accessRules()</text>
<text text-anchor="start" x="28.2271" y="-96.5" font-family="Helvetica,sans-Serif" font-size="10.00" fill="#000000">+ actions()</text>
<text text-anchor="start" x="28.2271" y="-86.5" font-family="Helvetica,sans-Serif" font-size="10.00" fill="#000000">+ actionIndex()</text>
<text text-anchor="start" x="28.2271" y="-76.5" font-family="Helvetica,sans-Serif" font-size="10.00" fill="#000000">+ actionCheckcode()</text>
<text text-anchor="start" x="28.2271" y="-66.5" font-family="Helvetica,sans-Serif" font-size="10.00" fill="#000000">+ actionDelete()</text>
<text text-anchor="start" x="28.2271" y="-56.5" font-family="Helvetica,sans-Serif" font-size="10.00" fill="#000000">+ actionAdminActivate()</text>
<text text-anchor="start" x="28.2271" y="-46.5" font-family="Helvetica,sans-Serif" font-size="10.00" fill="#000000">+ actionView()</text>
<text text-anchor="start" x="28.2271" y="-36.5" font-family="Helvetica,sans-Serif" font-size="10.00" fill="#000000">+ actionRegister()</text>
<text text-anchor="start" x="28.2271" y="-26.5" font-family="Helvetica,sans-Serif" font-size="10.00" fill="#000000">+ actionAutoRegister()</text>
<text text-anchor="start" x="28.2271" y="-16.5" font-family="Helvetica,sans-Serif" font-size="10.00" fill="#000000">і ще 11...</text>
<text text-anchor="start" x="28.2271" y="-6.5" font-family="Helvetica,sans-Serif" font-size="10.00" fill="#000000"># performAjaxValidation()</text>
</g>
<!-- Node4 -->
<g id="node2" class="node">
<title>Node4</title>
<g id="a_node2"><a xlink:href="class_controller.html" target="_top" xlink:title="{Controller\n|+ $layout\l+ $title\l+ $menu\l+ $breadcrumbs\l+ $_permissionControl\l|+ getUser()\l+ filterUserGroupsAccessControl()\l+ getMapkey()\l+ filterUserGroupsAccessControl()\l# beforeAction()\l}">
<polygon fill="#ffffff" stroke="#000000" points="0,-201.5 0,-335.5 168.5439,-335.5 168.5439,-201.5 0,-201.5"/>
<text text-anchor="middle" x="84.272" y="-323.5" font-family="Helvetica,sans-Serif" font-size="10.00" fill="#000000">Controller</text>
<polyline fill="none" stroke="#000000" points="0,-317.5 168.5439,-317.5 "/>
<text text-anchor="start" x="8" y="-305.5" font-family="Helvetica,sans-Serif" font-size="10.00" fill="#000000">+ $layout</text>
<text text-anchor="start" x="8" y="-295.5" font-family="Helvetica,sans-Serif" font-size="10.00" fill="#000000">+ $title</text>
<text text-anchor="start" x="8" y="-285.5" font-family="Helvetica,sans-Serif" font-size="10.00" fill="#000000">+ $menu</text>
<text text-anchor="start" x="8" y="-275.5" font-family="Helvetica,sans-Serif" font-size="10.00" fill="#000000">+ $breadcrumbs</text>
<text text-anchor="start" x="8" y="-265.5" font-family="Helvetica,sans-Serif" font-size="10.00" fill="#000000">+ $_permissionControl</text>
<polyline fill="none" stroke="#000000" points="0,-259.5 168.5439,-259.5 "/>
<text text-anchor="start" x="8" y="-247.5" font-family="Helvetica,sans-Serif" font-size="10.00" fill="#000000">+ getUser()</text>
<text text-anchor="start" x="8" y="-237.5" font-family="Helvetica,sans-Serif" font-size="10.00" fill="#000000">+ filterUserGroupsAccessControl()</text>
<text text-anchor="start" x="8" y="-227.5" font-family="Helvetica,sans-Serif" font-size="10.00" fill="#000000">+ getMapkey()</text>
<text text-anchor="start" x="8" y="-217.5" font-family="Helvetica,sans-Serif" font-size="10.00" fill="#000000">+ filterUserGroupsAccessControl()</text>
<text text-anchor="start" x="8" y="-207.5" font-family="Helvetica,sans-Serif" font-size="10.00" fill="#000000"># beforeAction()</text>
</a>
</g>
</g>
<!-- Node4&#45;&gt;Node3 -->
<g id="edge1" class="edge">
<title>Node4&#45;&gt;Node3</title>
<path fill="none" stroke="#191970" d="M84.272,-191.2152C84.272,-182.4914 84.272,-173.5776 84.272,-164.793"/>
<polygon fill="none" stroke="#191970" points="80.7721,-191.3497 84.272,-201.3497 87.7721,-191.3498 80.7721,-191.3497"/>
</g>
<!-- Node5 -->
<g id="node3" class="node">
<title>Node5</title>
<polygon fill="#ffffff" stroke="#bfbfbf" points="50.9863,-372.5 50.9863,-426.5 117.5576,-426.5 117.5576,-372.5 50.9863,-372.5"/>
<text text-anchor="middle" x="84.272" y="-414.5" font-family="Helvetica,sans-Serif" font-size="10.00" fill="#000000">CController</text>
<polyline fill="none" stroke="#bfbfbf" points="50.9863,-408.5 117.5576,-408.5 "/>
<text text-anchor="middle" x="84.272" y="-396.5" font-family="Helvetica,sans-Serif" font-size="10.00" fill="#000000"> </text>
<polyline fill="none" stroke="#bfbfbf" points="50.9863,-390.5 117.5576,-390.5 "/>
<text text-anchor="middle" x="84.272" y="-378.5" font-family="Helvetica,sans-Serif" font-size="10.00" fill="#000000"> </text>
</g>
<!-- Node5&#45;&gt;Node4 -->
<g id="edge2" class="edge">
<title>Node5&#45;&gt;Node4</title>
<path fill="none" stroke="#191970" d="M78.1134,-362.2321C77.7409,-353.8764 77.5444,-344.7626 77.5238,-335.607"/>
<polygon fill="none" stroke="#191970" points="74.6266,-362.5676 78.6792,-372.3567 81.6156,-362.1769 74.6266,-362.5676"/>
</g>
<!-- Node5&#45;&gt;Node4 -->
<g id="edge3" class="edge">
<title>Node5&#45;&gt;Node4</title>
<path fill="none" stroke="#191970" d="M90.4306,-362.2321C90.8031,-353.8764 90.9996,-344.7626 91.0202,-335.607"/>
<polygon fill="none" stroke="#191970" points="86.9283,-362.1769 89.8647,-372.3567 93.9174,-362.5676 86.9283,-362.1769"/>
</g>
</g>
</svg>
