<?xml version="1.0" encoding="UTF-8" standalone="no"?>
<!DOCTYPE svg PUBLIC "-//W3C//DTD SVG 1.1//EN"
 "http://www.w3.org/Graphics/SVG/1.1/DTD/svg11.dtd">
<!-- Generated by graphviz version 2.40.1 (20161225.0304)
 -->
<!-- Title: ECommentsBaseWidget Pages: 1 -->
<svg width="574pt" height="355pt"
 viewBox="0.00 0.00 574.23 355.00" xmlns="http://www.w3.org/2000/svg" xmlns:xlink="http://www.w3.org/1999/xlink">
<g id="graph0" class="graph" transform="scale(1 1) rotate(0) translate(4 351)">
<title>ECommentsBaseWidget</title>
<polygon fill="#ffffff" stroke="transparent" points="-4,4 -4,-351 570.2285,-351 570.2285,4 -4,4"/>
<!-- Node0 -->
<g id="node1" class="node">
<title>Node0</title>
<polygon fill="#bfbfbf" stroke="#000000" points="217.1489,-131.5 217.1489,-255.5 342.0796,-255.5 342.0796,-131.5 217.1489,-131.5"/>
<text text-anchor="middle" x="279.6143" y="-243.5" font-family="Helvetica,sans-Serif" font-size="10.00" fill="#000000">ECommentsBaseWidget</text>
<polyline fill="none" stroke="#000000" points="217.1489,-237.5 342.0796,-237.5 "/>
<text text-anchor="start" x="225.1489" y="-225.5" font-family="Helvetica,sans-Serif" font-size="10.00" fill="#000000">+ $model</text>
<text text-anchor="start" x="225.1489" y="-215.5" font-family="Helvetica,sans-Serif" font-size="10.00" fill="#000000">+ $registeredOnly</text>
<text text-anchor="start" x="225.1489" y="-205.5" font-family="Helvetica,sans-Serif" font-size="10.00" fill="#000000">+ $useCaptcha</text>
<text text-anchor="start" x="225.1489" y="-195.5" font-family="Helvetica,sans-Serif" font-size="10.00" fill="#000000">+ $postCommentAction</text>
<text text-anchor="start" x="225.1489" y="-185.5" font-family="Helvetica,sans-Serif" font-size="10.00" fill="#000000"># $_config</text>
<polyline fill="none" stroke="#000000" points="217.1489,-179.5 342.0796,-179.5 "/>
<text text-anchor="start" x="225.1489" y="-167.5" font-family="Helvetica,sans-Serif" font-size="10.00" fill="#000000">+ init()</text>
<text text-anchor="start" x="225.1489" y="-157.5" font-family="Helvetica,sans-Serif" font-size="10.00" fill="#000000"># registerScripts()</text>
<text text-anchor="start" x="225.1489" y="-147.5" font-family="Helvetica,sans-Serif" font-size="10.00" fill="#000000"># createNewComment()</text>
<text text-anchor="start" x="225.1489" y="-137.5" font-family="Helvetica,sans-Serif" font-size="10.00" fill="#000000"># getOwnerPK()</text>
</g>
<!-- Node2 -->
<g id="node3" class="node">
<title>Node2</title>
<g id="a_node3"><a xlink:href="class_comments.html" target="_top" xlink:title="{Comments\n|+ $showPopupForm\l+ $allowSubcommenting\l+ $useGravatar\l+ $adminMode\l|+ init()\l+ run()\l}">
<polygon fill="#ffffff" stroke="#000000" points="0,-.5 0,-94.5 125.2285,-94.5 125.2285,-.5 0,-.5"/>
<text text-anchor="middle" x="62.6143" y="-82.5" font-family="Helvetica,sans-Serif" font-size="10.00" fill="#000000">Comments</text>
<polyline fill="none" stroke="#000000" points="0,-76.5 125.2285,-76.5 "/>
<text text-anchor="start" x="8" y="-64.5" font-family="Helvetica,sans-Serif" font-size="10.00" fill="#000000">+ $showPopupForm</text>
<text text-anchor="start" x="8" y="-54.5" font-family="Helvetica,sans-Serif" font-size="10.00" fill="#000000">+ $allowSubcommenting</text>
<text text-anchor="start" x="8" y="-44.5" font-family="Helvetica,sans-Serif" font-size="10.00" fill="#000000">+ $useGravatar</text>
<text text-anchor="start" x="8" y="-34.5" font-family="Helvetica,sans-Serif" font-size="10.00" fill="#000000">+ $adminMode</text>
<polyline fill="none" stroke="#000000" points="0,-28.5 125.2285,-28.5 "/>
<text text-anchor="start" x="8" y="-16.5" font-family="Helvetica,sans-Serif" font-size="10.00" fill="#000000">+ init()</text>
<text text-anchor="start" x="8" y="-6.5" font-family="Helvetica,sans-Serif" font-size="10.00" fill="#000000">+ run()</text>
</a>
</g>
</g>
<!-- Node0&#45;&gt;Node2 -->
<g id="edge2" class="edge">
<title>Node0&#45;&gt;Node2</title>
<path fill="none" stroke="#191970" d="M208.5611,-145.6947C181.731,-127.643 151.4187,-107.2486 125.399,-89.7423"/>
<polygon fill="none" stroke="#191970" points="206.8893,-148.7883 217.14,-151.4666 210.7969,-142.9804 206.8893,-148.7883"/>
</g>
<!-- Node3 -->
<g id="node4" class="node">
<title>Node3</title>
<g id="a_node4"><a xlink:href="class_e_comments_form_widget.html" target="_top" xlink:title="{ECommentsFormWidget\n|+ $validatedComment\l|+ run()\l}">
<polygon fill="#ffffff" stroke="#000000" points="142.8804,-20.5 142.8804,-74.5 268.3481,-74.5 268.3481,-20.5 142.8804,-20.5"/>
<text text-anchor="middle" x="205.6143" y="-62.5" font-family="Helvetica,sans-Serif" font-size="10.00" fill="#000000">ECommentsFormWidget</text>
<polyline fill="none" stroke="#000000" points="142.8804,-56.5 268.3481,-56.5 "/>
<text text-anchor="start" x="150.8804" y="-44.5" font-family="Helvetica,sans-Serif" font-size="10.00" fill="#000000">+ $validatedComment</text>
<polyline fill="none" stroke="#000000" points="142.8804,-38.5 268.3481,-38.5 "/>
<text text-anchor="start" x="150.8804" y="-26.5" font-family="Helvetica,sans-Serif" font-size="10.00" fill="#000000">+ run()</text>
</a>
</g>
</g>
<!-- Node0&#45;&gt;Node3 -->
<g id="edge3" class="edge">
<title>Node0&#45;&gt;Node3</title>
<path fill="none" stroke="#191970" d="M243.312,-121.8765C234.8134,-105.109 226.2657,-88.2447 219.4632,-74.8236"/>
<polygon fill="none" stroke="#191970" points="240.3741,-123.822 248.017,-131.1594 246.6179,-120.6573 240.3741,-123.822"/>
</g>
<!-- Node4 -->
<g id="node5" class="node">
<title>Node4</title>
<g id="a_node5"><a xlink:href="class_e_comments_last_list_widget.html" target="_top" xlink:title="{ECommentsLastListWidget\n|+ $showCountRecords\l+ $textLength\l|+ init()\l+ run()\l}">
<polygon fill="#ffffff" stroke="#000000" points="286.314,-10.5 286.314,-84.5 422.9146,-84.5 422.9146,-10.5 286.314,-10.5"/>
<text text-anchor="middle" x="354.6143" y="-72.5" font-family="Helvetica,sans-Serif" font-size="10.00" fill="#000000">ECommentsLastListWidget</text>
<polyline fill="none" stroke="#000000" points="286.314,-66.5 422.9146,-66.5 "/>
<text text-anchor="start" x="294.314" y="-54.5" font-family="Helvetica,sans-Serif" font-size="10.00" fill="#000000">+ $showCountRecords</text>
<text text-anchor="start" x="294.314" y="-44.5" font-family="Helvetica,sans-Serif" font-size="10.00" fill="#000000">+ $textLength</text>
<polyline fill="none" stroke="#000000" points="286.314,-38.5 422.9146,-38.5 "/>
<text text-anchor="start" x="294.314" y="-26.5" font-family="Helvetica,sans-Serif" font-size="10.00" fill="#000000">+ init()</text>
<text text-anchor="start" x="294.314" y="-16.5" font-family="Helvetica,sans-Serif" font-size="10.00" fill="#000000">+ run()</text>
</a>
</g>
</g>
<!-- Node0&#45;&gt;Node4 -->
<g id="edge4" class="edge">
<title>Node0&#45;&gt;Node4</title>
<path fill="none" stroke="#191970" d="M316.2338,-122.2139C322.8949,-109.247 329.593,-96.208 335.4869,-84.7345"/>
<polygon fill="none" stroke="#191970" points="313.0947,-120.6651 311.6386,-131.1594 319.3212,-123.8636 313.0947,-120.6651"/>
</g>
<!-- Node5 -->
<g id="node6" class="node">
<title>Node5</title>
<g id="a_node6"><a xlink:href="class_e_comments_list_widget.html" target="_top" xlink:title="{ECommentsListWidget\n|+ $showPopupForm\l+ $allowSubcommenting\l+ $adminMode\l|+ init()\l+ run()\l}">
<polygon fill="#ffffff" stroke="#000000" points="441,-5.5 441,-89.5 566.2285,-89.5 566.2285,-5.5 441,-5.5"/>
<text text-anchor="middle" x="503.6143" y="-77.5" font-family="Helvetica,sans-Serif" font-size="10.00" fill="#000000">ECommentsListWidget</text>
<polyline fill="none" stroke="#000000" points="441,-71.5 566.2285,-71.5 "/>
<text text-anchor="start" x="449" y="-59.5" font-family="Helvetica,sans-Serif" font-size="10.00" fill="#000000">+ $showPopupForm</text>
<text text-anchor="start" x="449" y="-49.5" font-family="Helvetica,sans-Serif" font-size="10.00" fill="#000000">+ $allowSubcommenting</text>
<text text-anchor="start" x="449" y="-39.5" font-family="Helvetica,sans-Serif" font-size="10.00" fill="#000000">+ $adminMode</text>
<polyline fill="none" stroke="#000000" points="441,-33.5 566.2285,-33.5 "/>
<text text-anchor="start" x="449" y="-21.5" font-family="Helvetica,sans-Serif" font-size="10.00" fill="#000000">+ init()</text>
<text text-anchor="start" x="449" y="-11.5" font-family="Helvetica,sans-Serif" font-size="10.00" fill="#000000">+ run()</text>
</a>
</g>
</g>
<!-- Node0&#45;&gt;Node5 -->
<g id="edge5" class="edge">
<title>Node0&#45;&gt;Node5</title>
<path fill="none" stroke="#191970" d="M350.7002,-147.6054C376.2433,-131.069 405.2494,-112.2389 431.6143,-95 434.6223,-93.0331 437.6992,-91.0176 440.8056,-88.9798"/>
<polygon fill="none" stroke="#191970" points="348.673,-144.7482 342.1793,-153.1198 352.4763,-150.6249 348.673,-144.7482"/>
</g>
<!-- Node1 -->
<g id="node2" class="node">
<title>Node1</title>
<polygon fill="#ffffff" stroke="#bfbfbf" points="246.0503,-292.5 246.0503,-346.5 313.1782,-346.5 313.1782,-292.5 246.0503,-292.5"/>
<text text-anchor="middle" x="279.6143" y="-334.5" font-family="Helvetica,sans-Serif" font-size="10.00" fill="#000000">CJuiWidget</text>
<polyline fill="none" stroke="#bfbfbf" points="246.0503,-328.5 313.1782,-328.5 "/>
<text text-anchor="middle" x="279.6143" y="-316.5" font-family="Helvetica,sans-Serif" font-size="10.00" fill="#000000"> </text>
<polyline fill="none" stroke="#bfbfbf" points="246.0503,-310.5 313.1782,-310.5 "/>
<text text-anchor="middle" x="279.6143" y="-298.5" font-family="Helvetica,sans-Serif" font-size="10.00" fill="#000000"> </text>
</g>
<!-- Node1&#45;&gt;Node0 -->
<g id="edge1" class="edge">
<title>Node1&#45;&gt;Node0</title>
<path fill="none" stroke="#191970" d="M279.6143,-282.3011C279.6143,-273.9169 279.6143,-264.7957 279.6143,-255.6969"/>
<polygon fill="none" stroke="#191970" points="276.1144,-282.4698 279.6143,-292.4698 283.1144,-282.4699 276.1144,-282.4698"/>
</g>
</g>
</svg>
