<?xml version="1.0" encoding="UTF-8" standalone="no"?>
<!DOCTYPE svg PUBLIC "-//W3C//DTD SVG 1.1//EN"
 "http://www.w3.org/Graphics/SVG/1.1/DTD/svg11.dtd">
<!-- Generated by graphviz version 2.40.1 (20161225.0304)
 -->
<!-- Title: Google_FreeBusyGroup Pages: 1 -->
<svg width="132pt" height="254pt"
 viewBox="0.00 0.00 132.39 254.00" xmlns="http://www.w3.org/2000/svg" xmlns:xlink="http://www.w3.org/1999/xlink">
<g id="graph0" class="graph" transform="scale(1 1) rotate(0) translate(4 250)">
<title>Google_FreeBusyGroup</title>
<polygon fill="#ffffff" stroke="transparent" points="-4,4 -4,-250 128.3936,-250 128.3936,4 -4,4"/>
<!-- Node2 -->
<g id="node1" class="node">
<title>Node2</title>
<polygon fill="#bfbfbf" stroke="#000000" points="0,-.5 0,-114.5 124.3936,-114.5 124.3936,-.5 0,-.5"/>
<text text-anchor="middle" x="62.1968" y="-102.5" font-family="Helvetica,sans-Serif" font-size="10.00" fill="#000000">Google_FreeBusyGroup</text>
<polyline fill="none" stroke="#000000" points="0,-96.5 124.3936,-96.5 "/>
<text text-anchor="start" x="8" y="-84.5" font-family="Helvetica,sans-Serif" font-size="10.00" fill="#000000">+ $calendars</text>
<text text-anchor="start" x="8" y="-74.5" font-family="Helvetica,sans-Serif" font-size="10.00" fill="#000000">+ $errors</text>
<text text-anchor="start" x="8" y="-64.5" font-family="Helvetica,sans-Serif" font-size="10.00" fill="#000000"># $__errorsType</text>
<text text-anchor="start" x="8" y="-54.5" font-family="Helvetica,sans-Serif" font-size="10.00" fill="#000000"># $__errorsDataType</text>
<polyline fill="none" stroke="#000000" points="0,-48.5 124.3936,-48.5 "/>
<text text-anchor="start" x="8" y="-36.5" font-family="Helvetica,sans-Serif" font-size="10.00" fill="#000000">+ setCalendars()</text>
<text text-anchor="start" x="8" y="-26.5" font-family="Helvetica,sans-Serif" font-size="10.00" fill="#000000">+ getCalendars()</text>
<text text-anchor="start" x="8" y="-16.5" font-family="Helvetica,sans-Serif" font-size="10.00" fill="#000000">+ setErrors()</text>
<text text-anchor="start" x="8" y="-6.5" font-family="Helvetica,sans-Serif" font-size="10.00" fill="#000000">+ getErrors()</text>
</g>
<!-- Node3 -->
<g id="node2" class="node">
<title>Node3</title>
<g id="a_node2"><a xlink:href="class_google___model.html" target="_top" xlink:title="{Google_Model\n||+ __construct()\l+ assertIsArray()\l# mapTypes()\l# isAssociativeArray()\l# useObjects()\l}">
<polygon fill="#ffffff" stroke="#000000" points="5.8521,-151.5 5.8521,-245.5 118.5415,-245.5 118.5415,-151.5 5.8521,-151.5"/>
<text text-anchor="middle" x="62.1968" y="-233.5" font-family="Helvetica,sans-Serif" font-size="10.00" fill="#000000">Google_Model</text>
<polyline fill="none" stroke="#000000" points="5.8521,-227.5 118.5415,-227.5 "/>
<text text-anchor="middle" x="62.1968" y="-215.5" font-family="Helvetica,sans-Serif" font-size="10.00" fill="#000000"> </text>
<polyline fill="none" stroke="#000000" points="5.8521,-209.5 118.5415,-209.5 "/>
<text text-anchor="start" x="13.8521" y="-197.5" font-family="Helvetica,sans-Serif" font-size="10.00" fill="#000000">+ __construct()</text>
<text text-anchor="start" x="13.8521" y="-187.5" font-family="Helvetica,sans-Serif" font-size="10.00" fill="#000000">+ assertIsArray()</text>
<text text-anchor="start" x="13.8521" y="-177.5" font-family="Helvetica,sans-Serif" font-size="10.00" fill="#000000"># mapTypes()</text>
<text text-anchor="start" x="13.8521" y="-167.5" font-family="Helvetica,sans-Serif" font-size="10.00" fill="#000000"># isAssociativeArray()</text>
<text text-anchor="start" x="13.8521" y="-157.5" font-family="Helvetica,sans-Serif" font-size="10.00" fill="#000000"># useObjects()</text>
</a>
</g>
</g>
<!-- Node3&#45;&gt;Node2 -->
<g id="edge1" class="edge">
<title>Node3&#45;&gt;Node2</title>
<path fill="none" stroke="#191970" d="M62.1968,-141.1082C62.1968,-132.412 62.1968,-123.44 62.1968,-114.7469"/>
<polygon fill="none" stroke="#191970" points="58.6969,-141.1568 62.1968,-151.1568 65.6969,-141.1568 58.6969,-141.1568"/>
</g>
</g>
</svg>
