<?xml version="1.0" encoding="UTF-8" standalone="no"?>
<!DOCTYPE svg PUBLIC "-//W3C//DTD SVG 1.1//EN"
 "http://www.w3.org/Graphics/SVG/1.1/DTD/svg11.dtd">
<!-- Generated by graphviz version 2.40.1 (20161225.0304)
 -->
<!-- Title: EOAuthUtils Pages: 1 -->
<svg width="127pt" height="265pt"
 viewBox="0.00 0.00 126.54 265.00" xmlns="http://www.w3.org/2000/svg" xmlns:xlink="http://www.w3.org/1999/xlink">
<g id="graph0" class="graph" transform="scale(1 1) rotate(0) translate(4 261)">
<title>EOAuthUtils</title>
<polygon fill="#ffffff" stroke="transparent" points="-4,4 -4,-261 122.5391,-261 122.5391,4 -4,4"/>
<!-- Node3 -->
<g id="node1" class="node">
<title>Node3</title>
<polygon fill="#bfbfbf" stroke="#000000" points="0,-.5 0,-74.5 118.5391,-74.5 118.5391,-.5 0,-.5"/>
<text text-anchor="middle" x="59.2695" y="-62.5" font-family="Helvetica,sans-Serif" font-size="10.00" fill="#000000">EOAuthUtils</text>
<polyline fill="none" stroke="#000000" points="0,-56.5 118.5391,-56.5 "/>
<text text-anchor="middle" x="59.2695" y="-44.5" font-family="Helvetica,sans-Serif" font-size="10.00" fill="#000000"> </text>
<polyline fill="none" stroke="#000000" points="0,-38.5 118.5391,-38.5 "/>
<text text-anchor="start" x="8" y="-26.5" font-family="Helvetica,sans-Serif" font-size="10.00" fill="#000000">+ GetRequestToken()</text>
<text text-anchor="start" x="8" y="-16.5" font-family="Helvetica,sans-Serif" font-size="10.00" fill="#000000">+ GetAuthorizationUrl()</text>
<text text-anchor="start" x="8" y="-6.5" font-family="Helvetica,sans-Serif" font-size="10.00" fill="#000000">+ GetAccessToken()</text>
</g>
<!-- Node4 -->
<g id="node2" class="node">
<title>Node4</title>
<g id="a_node2"><a xlink:href="class_e_o_auth_component.html" target="_top" xlink:title="{EOAuthComponent\n||}">
<polygon fill="#ffffff" stroke="#000000" points="7.9102,-111.5 7.9102,-165.5 110.6289,-165.5 110.6289,-111.5 7.9102,-111.5"/>
<text text-anchor="middle" x="59.2695" y="-153.5" font-family="Helvetica,sans-Serif" font-size="10.00" fill="#000000">EOAuthComponent</text>
<polyline fill="none" stroke="#000000" points="7.9102,-147.5 110.6289,-147.5 "/>
<text text-anchor="middle" x="59.2695" y="-135.5" font-family="Helvetica,sans-Serif" font-size="10.00" fill="#000000"> </text>
<polyline fill="none" stroke="#000000" points="7.9102,-129.5 110.6289,-129.5 "/>
<text text-anchor="middle" x="59.2695" y="-117.5" font-family="Helvetica,sans-Serif" font-size="10.00" fill="#000000"> </text>
</a>
</g>
</g>
<!-- Node4&#45;&gt;Node3 -->
<g id="edge1" class="edge">
<title>Node4&#45;&gt;Node3</title>
<path fill="none" stroke="#191970" d="M59.2695,-101.1725C59.2695,-92.4692 59.2695,-83.2047 59.2695,-74.515"/>
<polygon fill="none" stroke="#191970" points="55.7696,-101.4338 59.2695,-111.4339 62.7696,-101.4339 55.7696,-101.4338"/>
</g>
<!-- Node5 -->
<g id="node3" class="node">
<title>Node5</title>
<polygon fill="#ffffff" stroke="#bfbfbf" points="21.8091,-202.5 21.8091,-256.5 96.73,-256.5 96.73,-202.5 21.8091,-202.5"/>
<text text-anchor="middle" x="59.2695" y="-244.5" font-family="Helvetica,sans-Serif" font-size="10.00" fill="#000000">CComponent</text>
<polyline fill="none" stroke="#bfbfbf" points="21.8091,-238.5 96.73,-238.5 "/>
<text text-anchor="middle" x="59.2695" y="-226.5" font-family="Helvetica,sans-Serif" font-size="10.00" fill="#000000"> </text>
<polyline fill="none" stroke="#bfbfbf" points="21.8091,-220.5 96.73,-220.5 "/>
<text text-anchor="middle" x="59.2695" y="-208.5" font-family="Helvetica,sans-Serif" font-size="10.00" fill="#000000"> </text>
</g>
<!-- Node5&#45;&gt;Node4 -->
<g id="edge2" class="edge">
<title>Node5&#45;&gt;Node4</title>
<path fill="none" stroke="#191970" d="M59.2695,-192.12C59.2695,-183.3006 59.2695,-174.0605 59.2695,-165.7837"/>
<polygon fill="none" stroke="#191970" points="55.7696,-192.197 59.2695,-202.197 62.7696,-192.197 55.7696,-192.197"/>
</g>
</g>
</svg>
