<?xml version="1.0" encoding="UTF-8" standalone="no"?>
<!DOCTYPE svg PUBLIC "-//W3C//DTD SVG 1.1//EN"
 "http://www.w3.org/Graphics/SVG/1.1/DTD/svg11.dtd">
<!-- Generated by graphviz version 2.40.1 (20161225.0304)
 -->
<!-- Title: Swift_Events_SendEvent Pages: 1 -->
<svg width="142pt" height="385pt"
 viewBox="0.00 0.00 141.84 385.00" xmlns="http://www.w3.org/2000/svg" xmlns:xlink="http://www.w3.org/1999/xlink">
<g id="graph0" class="graph" transform="scale(1 1) rotate(0) translate(4 381)">
<title>Swift_Events_SendEvent</title>
<polygon fill="#ffffff" stroke="transparent" points="-4,4 -4,-381 137.8369,-381 137.8369,4 -4,4"/>
<!-- Node0 -->
<g id="node1" class="node">
<title>Node0</title>
<polygon fill="#bfbfbf" stroke="#000000" points="2.7734,-.5 2.7734,-144.5 131.0635,-144.5 131.0635,-.5 2.7734,-.5"/>
<text text-anchor="middle" x="66.9185" y="-132.5" font-family="Helvetica,sans-Serif" font-size="10.00" fill="#000000">Swift_Events_SendEvent</text>
<polyline fill="none" stroke="#000000" points="2.7734,-126.5 131.0635,-126.5 "/>
<text text-anchor="start" x="10.7734" y="-114.5" font-family="Helvetica,sans-Serif" font-size="10.00" fill="#000000">+ RESULT_PENDING</text>
<text text-anchor="start" x="10.7734" y="-104.5" font-family="Helvetica,sans-Serif" font-size="10.00" fill="#000000">+ RESULT_SUCCESS</text>
<text text-anchor="start" x="10.7734" y="-94.5" font-family="Helvetica,sans-Serif" font-size="10.00" fill="#000000">+ RESULT_TENTATIVE</text>
<text text-anchor="start" x="10.7734" y="-84.5" font-family="Helvetica,sans-Serif" font-size="10.00" fill="#000000">+ RESULT_FAILED</text>
<polyline fill="none" stroke="#000000" points="2.7734,-78.5 131.0635,-78.5 "/>
<text text-anchor="start" x="10.7734" y="-66.5" font-family="Helvetica,sans-Serif" font-size="10.00" fill="#000000">+ __construct()</text>
<text text-anchor="start" x="10.7734" y="-56.5" font-family="Helvetica,sans-Serif" font-size="10.00" fill="#000000">+ getTransport()</text>
<text text-anchor="start" x="10.7734" y="-46.5" font-family="Helvetica,sans-Serif" font-size="10.00" fill="#000000">+ getMessage()</text>
<text text-anchor="start" x="10.7734" y="-36.5" font-family="Helvetica,sans-Serif" font-size="10.00" fill="#000000">+ setFailedRecipients()</text>
<text text-anchor="start" x="10.7734" y="-26.5" font-family="Helvetica,sans-Serif" font-size="10.00" fill="#000000">+ getFailedRecipients()</text>
<text text-anchor="start" x="10.7734" y="-16.5" font-family="Helvetica,sans-Serif" font-size="10.00" fill="#000000">+ setResult()</text>
<text text-anchor="start" x="10.7734" y="-6.5" font-family="Helvetica,sans-Serif" font-size="10.00" fill="#000000">+ getResult()</text>
</g>
<!-- Node1 -->
<g id="node2" class="node">
<title>Node1</title>
<g id="a_node2"><a xlink:href="class_swift___events___event_object.html" target="_top" xlink:title="{Swift_Events_EventObject\n||+ __construct()\l+ getSource()\l+ cancelBubble()\l+ bubbleCancelled()\l}">
<polygon fill="#ffffff" stroke="#000000" points="0,-181.5 0,-265.5 133.8369,-265.5 133.8369,-181.5 0,-181.5"/>
<text text-anchor="middle" x="66.9185" y="-253.5" font-family="Helvetica,sans-Serif" font-size="10.00" fill="#000000">Swift_Events_EventObject</text>
<polyline fill="none" stroke="#000000" points="0,-247.5 133.8369,-247.5 "/>
<text text-anchor="middle" x="66.9185" y="-235.5" font-family="Helvetica,sans-Serif" font-size="10.00" fill="#000000"> </text>
<polyline fill="none" stroke="#000000" points="0,-229.5 133.8369,-229.5 "/>
<text text-anchor="start" x="8" y="-217.5" font-family="Helvetica,sans-Serif" font-size="10.00" fill="#000000">+ __construct()</text>
<text text-anchor="start" x="8" y="-207.5" font-family="Helvetica,sans-Serif" font-size="10.00" fill="#000000">+ getSource()</text>
<text text-anchor="start" x="8" y="-197.5" font-family="Helvetica,sans-Serif" font-size="10.00" fill="#000000">+ cancelBubble()</text>
<text text-anchor="start" x="8" y="-187.5" font-family="Helvetica,sans-Serif" font-size="10.00" fill="#000000">+ bubbleCancelled()</text>
</a>
</g>
</g>
<!-- Node1&#45;&gt;Node0 -->
<g id="edge1" class="edge">
<title>Node1&#45;&gt;Node0</title>
<path fill="none" stroke="#191970" d="M66.9185,-171.2373C66.9185,-162.6667 66.9185,-153.6534 66.9185,-144.7021"/>
<polygon fill="none" stroke="#191970" points="63.4186,-171.438 66.9185,-181.4381 70.4186,-171.4381 63.4186,-171.438"/>
</g>
<!-- Node2 -->
<g id="node3" class="node">
<title>Node2</title>
<g id="a_node3"><a xlink:href="interface_swift___events___event.html" target="_top" xlink:title="{Swift_Events_Event\n||+ getSource()\l+ cancelBubble()\l+ bubbleCancelled()\l}">
<polygon fill="#ffffff" stroke="#000000" points="14.0283,-302.5 14.0283,-376.5 119.8086,-376.5 119.8086,-302.5 14.0283,-302.5"/>
<text text-anchor="middle" x="66.9185" y="-364.5" font-family="Helvetica,sans-Serif" font-size="10.00" fill="#000000">Swift_Events_Event</text>
<polyline fill="none" stroke="#000000" points="14.0283,-358.5 119.8086,-358.5 "/>
<text text-anchor="middle" x="66.9185" y="-346.5" font-family="Helvetica,sans-Serif" font-size="10.00" fill="#000000"> </text>
<polyline fill="none" stroke="#000000" points="14.0283,-340.5 119.8086,-340.5 "/>
<text text-anchor="start" x="22.0283" y="-328.5" font-family="Helvetica,sans-Serif" font-size="10.00" fill="#000000">+ getSource()</text>
<text text-anchor="start" x="22.0283" y="-318.5" font-family="Helvetica,sans-Serif" font-size="10.00" fill="#000000">+ cancelBubble()</text>
<text text-anchor="start" x="22.0283" y="-308.5" font-family="Helvetica,sans-Serif" font-size="10.00" fill="#000000">+ bubbleCancelled()</text>
</a>
</g>
</g>
<!-- Node2&#45;&gt;Node1 -->
<g id="edge2" class="edge">
<title>Node2&#45;&gt;Node1</title>
<path fill="none" stroke="#191970" d="M66.9185,-292.3716C66.9185,-283.5842 66.9185,-274.4515 66.9185,-265.8197"/>
<polygon fill="none" stroke="#191970" points="63.4186,-292.4779 66.9185,-302.4779 70.4186,-292.478 63.4186,-292.4779"/>
</g>
</g>
</svg>
