<?xml version="1.0" encoding="UTF-8" standalone="no"?>
<!DOCTYPE svg PUBLIC "-//W3C//DTD SVG 1.1//EN"
 "http://www.w3.org/Graphics/SVG/1.1/DTD/svg11.dtd">
<!-- Generated by graphviz version 2.40.1 (20161225.0304)
 -->
<!-- Title: Swift_TransportException Pages: 1 -->
<svg width="138pt" height="336pt"
 viewBox="0.00 0.00 137.57 336.00" xmlns="http://www.w3.org/2000/svg" xmlns:xlink="http://www.w3.org/1999/xlink">
<g id="graph0" class="graph" transform="scale(1 1) rotate(0) translate(4 332)">
<title>Swift_TransportException</title>
<polygon fill="#ffffff" stroke="transparent" points="-4,4 -4,-332 133.5742,-332 133.5742,4 -4,4"/>
<!-- Node0 -->
<g id="node1" class="node">
<title>Node0</title>
<polygon fill="#bfbfbf" stroke="#000000" points="0,-.5 0,-54.5 129.5742,-54.5 129.5742,-.5 0,-.5"/>
<text text-anchor="middle" x="64.7871" y="-42.5" font-family="Helvetica,sans-Serif" font-size="10.00" fill="#000000">Swift_TransportException</text>
<polyline fill="none" stroke="#000000" points="0,-36.5 129.5742,-36.5 "/>
<text text-anchor="middle" x="64.7871" y="-24.5" font-family="Helvetica,sans-Serif" font-size="10.00" fill="#000000"> </text>
<polyline fill="none" stroke="#000000" points="0,-18.5 129.5742,-18.5 "/>
<text text-anchor="start" x="8" y="-6.5" font-family="Helvetica,sans-Serif" font-size="10.00" fill="#000000">+ __construct()</text>
</g>
<!-- Node1 -->
<g id="node2" class="node">
<title>Node1</title>
<g id="a_node2"><a xlink:href="class_swift___io_exception.html" target="_top" xlink:title="{Swift_IoException\n||+ __construct()\l}">
<polygon fill="#ffffff" stroke="#000000" points="17.0435,-91.5 17.0435,-145.5 112.5308,-145.5 112.5308,-91.5 17.0435,-91.5"/>
<text text-anchor="middle" x="64.7871" y="-133.5" font-family="Helvetica,sans-Serif" font-size="10.00" fill="#000000">Swift_IoException</text>
<polyline fill="none" stroke="#000000" points="17.0435,-127.5 112.5308,-127.5 "/>
<text text-anchor="middle" x="64.7871" y="-115.5" font-family="Helvetica,sans-Serif" font-size="10.00" fill="#000000"> </text>
<polyline fill="none" stroke="#000000" points="17.0435,-109.5 112.5308,-109.5 "/>
<text text-anchor="start" x="25.0435" y="-97.5" font-family="Helvetica,sans-Serif" font-size="10.00" fill="#000000">+ __construct()</text>
</a>
</g>
</g>
<!-- Node1&#45;&gt;Node0 -->
<g id="edge1" class="edge">
<title>Node1&#45;&gt;Node0</title>
<path fill="none" stroke="#191970" d="M64.7871,-81.12C64.7871,-72.3006 64.7871,-63.0605 64.7871,-54.7837"/>
<polygon fill="none" stroke="#191970" points="61.2872,-81.197 64.7871,-91.197 68.2872,-81.197 61.2872,-81.197"/>
</g>
<!-- Node2 -->
<g id="node3" class="node">
<title>Node2</title>
<g id="a_node3"><a xlink:href="class_swift___swift_exception.html" target="_top" xlink:title="{Swift_SwiftException\n||+ __construct()\l}">
<polygon fill="#ffffff" stroke="#000000" points="10.3784,-182.5 10.3784,-236.5 119.1958,-236.5 119.1958,-182.5 10.3784,-182.5"/>
<text text-anchor="middle" x="64.7871" y="-224.5" font-family="Helvetica,sans-Serif" font-size="10.00" fill="#000000">Swift_SwiftException</text>
<polyline fill="none" stroke="#000000" points="10.3784,-218.5 119.1958,-218.5 "/>
<text text-anchor="middle" x="64.7871" y="-206.5" font-family="Helvetica,sans-Serif" font-size="10.00" fill="#000000"> </text>
<polyline fill="none" stroke="#000000" points="10.3784,-200.5 119.1958,-200.5 "/>
<text text-anchor="start" x="18.3784" y="-188.5" font-family="Helvetica,sans-Serif" font-size="10.00" fill="#000000">+ __construct()</text>
</a>
</g>
</g>
<!-- Node2&#45;&gt;Node1 -->
<g id="edge2" class="edge">
<title>Node2&#45;&gt;Node1</title>
<path fill="none" stroke="#191970" d="M64.7871,-172.12C64.7871,-163.3006 64.7871,-154.0605 64.7871,-145.7837"/>
<polygon fill="none" stroke="#191970" points="61.2872,-172.197 64.7871,-182.197 68.2872,-172.197 61.2872,-172.197"/>
</g>
<!-- Node3 -->
<g id="node4" class="node">
<title>Node3</title>
<polygon fill="#ffffff" stroke="#bfbfbf" points="34.8291,-273.5 34.8291,-327.5 94.7451,-327.5 94.7451,-273.5 34.8291,-273.5"/>
<text text-anchor="middle" x="64.7871" y="-315.5" font-family="Helvetica,sans-Serif" font-size="10.00" fill="#000000">Exception</text>
<polyline fill="none" stroke="#bfbfbf" points="34.8291,-309.5 94.7451,-309.5 "/>
<text text-anchor="middle" x="64.7871" y="-297.5" font-family="Helvetica,sans-Serif" font-size="10.00" fill="#000000"> </text>
<polyline fill="none" stroke="#bfbfbf" points="34.8291,-291.5 94.7451,-291.5 "/>
<text text-anchor="middle" x="64.7871" y="-279.5" font-family="Helvetica,sans-Serif" font-size="10.00" fill="#000000"> </text>
</g>
<!-- Node3&#45;&gt;Node2 -->
<g id="edge3" class="edge">
<title>Node3&#45;&gt;Node2</title>
<path fill="none" stroke="#191970" d="M64.7871,-263.12C64.7871,-254.3006 64.7871,-245.0605 64.7871,-236.7837"/>
<polygon fill="none" stroke="#191970" points="61.2872,-263.197 64.7871,-273.197 68.2872,-263.197 61.2872,-263.197"/>
</g>
</g>
</svg>
