<?xml version="1.0" encoding="UTF-8" standalone="no"?>
<!DOCTYPE svg PUBLIC "-//W3C//DTD SVG 1.1//EN"
 "http://www.w3.org/Graphics/SVG/1.1/DTD/svg11.dtd">
<!-- Generated by graphviz version 2.40.1 (20161225.0304)
 -->
<!-- Title: Google_TableSchema Pages: 1 -->
<svg width="122pt" height="224pt"
 viewBox="0.00 0.00 122.40 224.00" xmlns="http://www.w3.org/2000/svg" xmlns:xlink="http://www.w3.org/1999/xlink">
<g id="graph0" class="graph" transform="scale(1 1) rotate(0) translate(4 220)">
<title>Google_TableSchema</title>
<polygon fill="#ffffff" stroke="transparent" points="-4,4 -4,-220 118.3984,-220 118.3984,4 -4,4"/>
<!-- Node2 -->
<g id="node1" class="node">
<title>Node2</title>
<polygon fill="#bfbfbf" stroke="#000000" points="0,-.5 0,-84.5 114.3984,-84.5 114.3984,-.5 0,-.5"/>
<text text-anchor="middle" x="57.1992" y="-72.5" font-family="Helvetica,sans-Serif" font-size="10.00" fill="#000000">Google_TableSchema</text>
<polyline fill="none" stroke="#000000" points="0,-66.5 114.3984,-66.5 "/>
<text text-anchor="start" x="8" y="-54.5" font-family="Helvetica,sans-Serif" font-size="10.00" fill="#000000">+ $fields</text>
<text text-anchor="start" x="8" y="-44.5" font-family="Helvetica,sans-Serif" font-size="10.00" fill="#000000"># $__fieldsType</text>
<text text-anchor="start" x="8" y="-34.5" font-family="Helvetica,sans-Serif" font-size="10.00" fill="#000000"># $__fieldsDataType</text>
<polyline fill="none" stroke="#000000" points="0,-28.5 114.3984,-28.5 "/>
<text text-anchor="start" x="8" y="-16.5" font-family="Helvetica,sans-Serif" font-size="10.00" fill="#000000">+ setFields()</text>
<text text-anchor="start" x="8" y="-6.5" font-family="Helvetica,sans-Serif" font-size="10.00" fill="#000000">+ getFields()</text>
</g>
<!-- Node3 -->
<g id="node2" class="node">
<title>Node3</title>
<g id="a_node2"><a xlink:href="class_google___model.html" target="_top" xlink:title="{Google_Model\n||+ __construct()\l+ assertIsArray()\l# mapTypes()\l# isAssociativeArray()\l# useObjects()\l}">
<polygon fill="#ffffff" stroke="#000000" points=".8545,-121.5 .8545,-215.5 113.5439,-215.5 113.5439,-121.5 .8545,-121.5"/>
<text text-anchor="middle" x="57.1992" y="-203.5" font-family="Helvetica,sans-Serif" font-size="10.00" fill="#000000">Google_Model</text>
<polyline fill="none" stroke="#000000" points=".8545,-197.5 113.5439,-197.5 "/>
<text text-anchor="middle" x="57.1992" y="-185.5" font-family="Helvetica,sans-Serif" font-size="10.00" fill="#000000"> </text>
<polyline fill="none" stroke="#000000" points=".8545,-179.5 113.5439,-179.5 "/>
<text text-anchor="start" x="8.8545" y="-167.5" font-family="Helvetica,sans-Serif" font-size="10.00" fill="#000000">+ __construct()</text>
<text text-anchor="start" x="8.8545" y="-157.5" font-family="Helvetica,sans-Serif" font-size="10.00" fill="#000000">+ assertIsArray()</text>
<text text-anchor="start" x="8.8545" y="-147.5" font-family="Helvetica,sans-Serif" font-size="10.00" fill="#000000"># mapTypes()</text>
<text text-anchor="start" x="8.8545" y="-137.5" font-family="Helvetica,sans-Serif" font-size="10.00" fill="#000000"># isAssociativeArray()</text>
<text text-anchor="start" x="8.8545" y="-127.5" font-family="Helvetica,sans-Serif" font-size="10.00" fill="#000000"># useObjects()</text>
</a>
</g>
</g>
<!-- Node3&#45;&gt;Node2 -->
<g id="edge1" class="edge">
<title>Node3&#45;&gt;Node2</title>
<path fill="none" stroke="#191970" d="M57.1992,-110.9387C57.1992,-102.0848 57.1992,-93.0866 57.1992,-84.6505"/>
<polygon fill="none" stroke="#191970" points="53.6993,-111.2237 57.1992,-121.2238 60.6993,-111.2238 53.6993,-111.2237"/>
</g>
</g>
</svg>
