<?xml version="1.0" encoding="UTF-8" standalone="no"?>
<!DOCTYPE svg PUBLIC "-//W3C//DTD SVG 1.1//EN"
 "http://www.w3.org/Graphics/SVG/1.1/DTD/svg11.dtd">
<!-- Generated by graphviz version 2.40.1 (20161225.0304)
 -->
<!-- Title: Google_DfareportingService Pages: 1 -->
<svg width="150pt" height="224pt"
 viewBox="0.00 0.00 150.18 224.00" xmlns="http://www.w3.org/2000/svg" xmlns:xlink="http://www.w3.org/1999/xlink">
<g id="graph0" class="graph" transform="scale(1 1) rotate(0) translate(4 220)">
<title>Google_DfareportingService</title>
<polygon fill="#ffffff" stroke="transparent" points="-4,4 -4,-220 146.1816,-220 146.1816,4 -4,4"/>
<!-- Node0 -->
<g id="node1" class="node">
<title>Node0</title>
<polygon fill="#bfbfbf" stroke="#000000" points="0,-.5 0,-104.5 142.1816,-104.5 142.1816,-.5 0,-.5"/>
<text text-anchor="middle" x="71.0908" y="-92.5" font-family="Helvetica,sans-Serif" font-size="10.00" fill="#000000">Google_DfareportingService</text>
<polyline fill="none" stroke="#000000" points="0,-86.5 142.1816,-86.5 "/>
<text text-anchor="start" x="8" y="-74.5" font-family="Helvetica,sans-Serif" font-size="10.00" fill="#000000">+ $dimensionValues</text>
<text text-anchor="start" x="8" y="-64.5" font-family="Helvetica,sans-Serif" font-size="10.00" fill="#000000">+ $files</text>
<text text-anchor="start" x="8" y="-54.5" font-family="Helvetica,sans-Serif" font-size="10.00" fill="#000000">+ $reports</text>
<text text-anchor="start" x="8" y="-44.5" font-family="Helvetica,sans-Serif" font-size="10.00" fill="#000000">+ $reports_compatibleFields</text>
<text text-anchor="start" x="8" y="-34.5" font-family="Helvetica,sans-Serif" font-size="10.00" fill="#000000">+ $reports_files</text>
<text text-anchor="start" x="8" y="-24.5" font-family="Helvetica,sans-Serif" font-size="10.00" fill="#000000">+ $userProfiles</text>
<polyline fill="none" stroke="#000000" points="0,-18.5 142.1816,-18.5 "/>
<text text-anchor="start" x="8" y="-6.5" font-family="Helvetica,sans-Serif" font-size="10.00" fill="#000000">+ __construct()</text>
</g>
<!-- Node1 -->
<g id="node2" class="node">
<title>Node1</title>
<g id="a_node2"><a xlink:href="class_google___service.html" target="_top" xlink:title="{Google_Service\n|+ $version\l+ $servicePath\l+ $resource\l|}">
<polygon fill="#ffffff" stroke="#000000" points="27.5146,-141.5 27.5146,-215.5 114.667,-215.5 114.667,-141.5 27.5146,-141.5"/>
<text text-anchor="middle" x="71.0908" y="-203.5" font-family="Helvetica,sans-Serif" font-size="10.00" fill="#000000">Google_Service</text>
<polyline fill="none" stroke="#000000" points="27.5146,-197.5 114.667,-197.5 "/>
<text text-anchor="start" x="35.5146" y="-185.5" font-family="Helvetica,sans-Serif" font-size="10.00" fill="#000000">+ $version</text>
<text text-anchor="start" x="35.5146" y="-175.5" font-family="Helvetica,sans-Serif" font-size="10.00" fill="#000000">+ $servicePath</text>
<text text-anchor="start" x="35.5146" y="-165.5" font-family="Helvetica,sans-Serif" font-size="10.00" fill="#000000">+ $resource</text>
<polyline fill="none" stroke="#000000" points="27.5146,-159.5 114.667,-159.5 "/>
<text text-anchor="middle" x="71.0908" y="-147.5" font-family="Helvetica,sans-Serif" font-size="10.00" fill="#000000"> </text>
</a>
</g>
</g>
<!-- Node1&#45;&gt;Node0 -->
<g id="edge1" class="edge">
<title>Node1&#45;&gt;Node0</title>
<path fill="none" stroke="#191970" d="M71.0908,-131.131C71.0908,-122.5233 71.0908,-113.5001 71.0908,-104.761"/>
<polygon fill="none" stroke="#191970" points="67.5909,-131.3773 71.0908,-141.3773 74.5909,-131.3774 67.5909,-131.3773"/>
</g>
</g>
</svg>
