<?xml version="1.0" encoding="UTF-8" standalone="no"?>
<!DOCTYPE svg PUBLIC "-//W3C//DTD SVG 1.1//EN"
 "http://www.w3.org/Graphics/SVG/1.1/DTD/svg11.dtd">
<!-- Generated by graphviz version 2.40.1 (20161225.0304)
 -->
<!-- Title: HoleAnswerResults Pages: 1 -->
<svg width="111pt" height="234pt"
 viewBox="0.00 0.00 111.26 234.00" xmlns="http://www.w3.org/2000/svg" xmlns:xlink="http://www.w3.org/1999/xlink">
<g id="graph0" class="graph" transform="scale(1 1) rotate(0) translate(4 230)">
<title>HoleAnswerResults</title>
<polygon fill="#ffffff" stroke="transparent" points="-4,4 -4,-230 107.2559,-230 107.2559,4 -4,4"/>
<!-- Node0 -->
<g id="node1" class="node">
<title>Node0</title>
<polygon fill="#bfbfbf" stroke="#000000" points="0,-.5 0,-134.5 103.2559,-134.5 103.2559,-.5 0,-.5"/>
<text text-anchor="middle" x="51.6279" y="-122.5" font-family="Helvetica,sans-Serif" font-size="10.00" fill="#000000">HoleAnswerResults</text>
<polyline fill="none" stroke="#000000" points="0,-116.5 103.2559,-116.5 "/>
<text text-anchor="middle" x="51.6279" y="-104.5" font-family="Helvetica,sans-Serif" font-size="10.00" fill="#000000"> </text>
<polyline fill="none" stroke="#000000" points="0,-98.5 103.2559,-98.5 "/>
<text text-anchor="start" x="8" y="-86.5" font-family="Helvetica,sans-Serif" font-size="10.00" fill="#000000">+ tableName()</text>
<text text-anchor="start" x="8" y="-76.5" font-family="Helvetica,sans-Serif" font-size="10.00" fill="#000000">+ rules()</text>
<text text-anchor="start" x="8" y="-66.5" font-family="Helvetica,sans-Serif" font-size="10.00" fill="#000000">+ relations()</text>
<text text-anchor="start" x="8" y="-56.5" font-family="Helvetica,sans-Serif" font-size="10.00" fill="#000000">+ getLastOrder()</text>
<text text-anchor="start" x="8" y="-46.5" font-family="Helvetica,sans-Serif" font-size="10.00" fill="#000000">+ getSortOrder()</text>
<text text-anchor="start" x="8" y="-36.5" font-family="Helvetica,sans-Serif" font-size="10.00" fill="#000000">+ attributeLabels()</text>
<text text-anchor="start" x="8" y="-26.5" font-family="Helvetica,sans-Serif" font-size="10.00" fill="#000000">+ getpublish()</text>
<text text-anchor="start" x="8" y="-16.5" font-family="Helvetica,sans-Serif" font-size="10.00" fill="#000000">+ search()</text>
<text text-anchor="start" x="8" y="-6.5" font-family="Helvetica,sans-Serif" font-size="10.00" fill="#000000">+ model()</text>
</g>
<!-- Node1 -->
<g id="node2" class="node">
<title>Node1</title>
<polygon fill="#ffffff" stroke="#bfbfbf" points="10.2832,-171.5 10.2832,-225.5 92.9727,-225.5 92.9727,-171.5 10.2832,-171.5"/>
<text text-anchor="middle" x="51.6279" y="-213.5" font-family="Helvetica,sans-Serif" font-size="10.00" fill="#000000">CActiveRecord</text>
<polyline fill="none" stroke="#bfbfbf" points="10.2832,-207.5 92.9727,-207.5 "/>
<text text-anchor="middle" x="51.6279" y="-195.5" font-family="Helvetica,sans-Serif" font-size="10.00" fill="#000000"> </text>
<polyline fill="none" stroke="#bfbfbf" points="10.2832,-189.5 92.9727,-189.5 "/>
<text text-anchor="middle" x="51.6279" y="-177.5" font-family="Helvetica,sans-Serif" font-size="10.00" fill="#000000"> </text>
</g>
<!-- Node1&#45;&gt;Node0 -->
<g id="edge1" class="edge">
<title>Node1&#45;&gt;Node0</title>
<path fill="none" stroke="#191970" d="M51.6279,-161.2321C51.6279,-152.8764 51.6279,-143.7626 51.6279,-134.607"/>
<polygon fill="none" stroke="#191970" points="48.128,-161.3567 51.6279,-171.3567 55.128,-161.3567 48.128,-161.3567"/>
</g>
</g>
</svg>
