<?xml version="1.0" encoding="UTF-8" standalone="no"?>
<!DOCTYPE svg PUBLIC "-//W3C//DTD SVG 1.1//EN"
 "http://www.w3.org/Graphics/SVG/1.1/DTD/svg11.dtd">
<!-- Generated by graphviz version 2.40.1 (20161225.0304)
 -->
<!-- Title: Google_Cache Pages: 1 -->
<svg width="366pt" height="204pt"
 viewBox="0.00 0.00 366.50 204.00" xmlns="http://www.w3.org/2000/svg" xmlns:xlink="http://www.w3.org/1999/xlink">
<g id="graph0" class="graph" transform="scale(1 1) rotate(0) translate(4 200)">
<title>Google_Cache</title>
<polygon fill="#ffffff" stroke="transparent" points="-4,4 -4,-200 362.4971,-200 362.4971,4 -4,4"/>
<!-- Node0 -->
<g id="node1" class="node">
<title>Node0</title>
<polygon fill="#bfbfbf" stroke="#000000" points="141.0566,-121.5 141.0566,-195.5 223.7705,-195.5 223.7705,-121.5 141.0566,-121.5"/>
<text text-anchor="middle" x="182.4136" y="-183.5" font-family="Helvetica,sans-Serif" font-size="10.00" fill="#000000">Google_Cache</text>
<polyline fill="none" stroke="#000000" points="141.0566,-177.5 223.7705,-177.5 "/>
<text text-anchor="middle" x="182.4136" y="-165.5" font-family="Helvetica,sans-Serif" font-size="10.00" fill="#000000"> </text>
<polyline fill="none" stroke="#000000" points="141.0566,-159.5 223.7705,-159.5 "/>
<text text-anchor="start" x="149.0566" y="-147.5" font-family="Helvetica,sans-Serif" font-size="10.00" fill="#000000">+ get()</text>
<text text-anchor="start" x="149.0566" y="-137.5" font-family="Helvetica,sans-Serif" font-size="10.00" fill="#000000">+ set()</text>
<text text-anchor="start" x="149.0566" y="-127.5" font-family="Helvetica,sans-Serif" font-size="10.00" fill="#000000">+ delete()</text>
</g>
<!-- Node1 -->
<g id="node2" class="node">
<title>Node1</title>
<g id="a_node2"><a xlink:href="class_google___file_cache.html" target="_top" xlink:title="{Google_FileCache\n||+ __construct()\l+ get()\l+ set()\l+ delete()\l}">
<polygon fill="#ffffff" stroke="#000000" points="0,-.5 0,-84.5 98.8271,-84.5 98.8271,-.5 0,-.5"/>
<text text-anchor="middle" x="49.4136" y="-72.5" font-family="Helvetica,sans-Serif" font-size="10.00" fill="#000000">Google_FileCache</text>
<polyline fill="none" stroke="#000000" points="0,-66.5 98.8271,-66.5 "/>
<text text-anchor="middle" x="49.4136" y="-54.5" font-family="Helvetica,sans-Serif" font-size="10.00" fill="#000000"> </text>
<polyline fill="none" stroke="#000000" points="0,-48.5 98.8271,-48.5 "/>
<text text-anchor="start" x="8" y="-36.5" font-family="Helvetica,sans-Serif" font-size="10.00" fill="#000000">+ __construct()</text>
<text text-anchor="start" x="8" y="-26.5" font-family="Helvetica,sans-Serif" font-size="10.00" fill="#000000">+ get()</text>
<text text-anchor="start" x="8" y="-16.5" font-family="Helvetica,sans-Serif" font-size="10.00" fill="#000000">+ set()</text>
<text text-anchor="start" x="8" y="-6.5" font-family="Helvetica,sans-Serif" font-size="10.00" fill="#000000">+ delete()</text>
</a>
</g>
</g>
<!-- Node0&#45;&gt;Node1 -->
<g id="edge1" class="edge">
<title>Node0&#45;&gt;Node1</title>
<path fill="none" stroke="#191970" d="M132.9178,-115.3308C121.49,-105.3637 109.3441,-94.7702 97.9574,-84.839"/>
<polygon fill="none" stroke="#191970" points="130.8596,-118.1798 140.6965,-122.1151 135.4607,-112.9044 130.8596,-118.1798"/>
</g>
<!-- Node2 -->
<g id="node3" class="node">
<title>Node2</title>
<g id="a_node3"><a xlink:href="class_google___memcache_cache.html" target="_top" xlink:title="{Google_MemcacheCache\n||+ __construct()\l+ get()\l+ set()\l+ delete()\l}">
<polygon fill="#ffffff" stroke="#000000" points="116.6035,-.5 116.6035,-84.5 248.2236,-84.5 248.2236,-.5 116.6035,-.5"/>
<text text-anchor="middle" x="182.4136" y="-72.5" font-family="Helvetica,sans-Serif" font-size="10.00" fill="#000000">Google_MemcacheCache</text>
<polyline fill="none" stroke="#000000" points="116.6035,-66.5 248.2236,-66.5 "/>
<text text-anchor="middle" x="182.4136" y="-54.5" font-family="Helvetica,sans-Serif" font-size="10.00" fill="#000000"> </text>
<polyline fill="none" stroke="#000000" points="116.6035,-48.5 248.2236,-48.5 "/>
<text text-anchor="start" x="124.6035" y="-36.5" font-family="Helvetica,sans-Serif" font-size="10.00" fill="#000000">+ __construct()</text>
<text text-anchor="start" x="124.6035" y="-26.5" font-family="Helvetica,sans-Serif" font-size="10.00" fill="#000000">+ get()</text>
<text text-anchor="start" x="124.6035" y="-16.5" font-family="Helvetica,sans-Serif" font-size="10.00" fill="#000000">+ set()</text>
<text text-anchor="start" x="124.6035" y="-6.5" font-family="Helvetica,sans-Serif" font-size="10.00" fill="#000000">+ delete()</text>
</a>
</g>
</g>
<!-- Node0&#45;&gt;Node2 -->
<g id="edge2" class="edge">
<title>Node0&#45;&gt;Node2</title>
<path fill="none" stroke="#191970" d="M182.4136,-111.3716C182.4136,-102.5842 182.4136,-93.4515 182.4136,-84.8197"/>
<polygon fill="none" stroke="#191970" points="178.9137,-111.4779 182.4136,-121.4779 185.9137,-111.478 178.9137,-111.4779"/>
</g>
<!-- Node3 -->
<g id="node4" class="node">
<title>Node3</title>
<g id="a_node4"><a xlink:href="classgoogle_apc_cache.html" target="_top" xlink:title="{googleApcCache\n||+ __construct()\l+ get()\l+ set()\l+ delete()\l}">
<polygon fill="#ffffff" stroke="#000000" points="266.3301,-.5 266.3301,-84.5 358.4971,-84.5 358.4971,-.5 266.3301,-.5"/>
<text text-anchor="middle" x="312.4136" y="-72.5" font-family="Helvetica,sans-Serif" font-size="10.00" fill="#000000">googleApcCache</text>
<polyline fill="none" stroke="#000000" points="266.3301,-66.5 358.4971,-66.5 "/>
<text text-anchor="middle" x="312.4136" y="-54.5" font-family="Helvetica,sans-Serif" font-size="10.00" fill="#000000"> </text>
<polyline fill="none" stroke="#000000" points="266.3301,-48.5 358.4971,-48.5 "/>
<text text-anchor="start" x="274.3301" y="-36.5" font-family="Helvetica,sans-Serif" font-size="10.00" fill="#000000">+ __construct()</text>
<text text-anchor="start" x="274.3301" y="-26.5" font-family="Helvetica,sans-Serif" font-size="10.00" fill="#000000">+ get()</text>
<text text-anchor="start" x="274.3301" y="-16.5" font-family="Helvetica,sans-Serif" font-size="10.00" fill="#000000">+ set()</text>
<text text-anchor="start" x="274.3301" y="-6.5" font-family="Helvetica,sans-Serif" font-size="10.00" fill="#000000">+ delete()</text>
</a>
</g>
</g>
<!-- Node0&#45;&gt;Node3 -->
<g id="edge3" class="edge">
<title>Node0&#45;&gt;Node3</title>
<path fill="none" stroke="#191970" d="M231.5713,-114.6362C242.8284,-104.5914 254.7606,-93.9442 265.9022,-84.0024"/>
<polygon fill="none" stroke="#191970" points="229.035,-112.2085 223.9038,-121.4779 233.6955,-117.4315 229.035,-112.2085"/>
</g>
</g>
</svg>
