<?xml version="1.0" encoding="UTF-8" standalone="no"?>
<!DOCTYPE svg PUBLIC "-//W3C//DTD SVG 1.1//EN"
 "http://www.w3.org/Graphics/SVG/1.1/DTD/svg11.dtd">
<!-- Generated by graphviz version 2.40.1 (20161225.0304)
 -->
<!-- Title: Google_ActivityProvider Pages: 1 -->
<svg width="131pt" height="224pt"
 viewBox="0.00 0.00 130.71 224.00" xmlns="http://www.w3.org/2000/svg" xmlns:xlink="http://www.w3.org/1999/xlink">
<g id="graph0" class="graph" transform="scale(1 1) rotate(0) translate(4 220)">
<title>Google_ActivityProvider</title>
<polygon fill="#ffffff" stroke="transparent" points="-4,4 -4,-220 126.7139,-220 126.7139,4 -4,4"/>
<!-- Node0 -->
<g id="node1" class="node">
<title>Node0</title>
<polygon fill="#bfbfbf" stroke="#000000" points="0,-.5 0,-84.5 122.7139,-84.5 122.7139,-.5 0,-.5"/>
<text text-anchor="middle" x="61.3569" y="-72.5" font-family="Helvetica,sans-Serif" font-size="10.00" fill="#000000">Google_ActivityProvider</text>
<polyline fill="none" stroke="#000000" points="0,-66.5 122.7139,-66.5 "/>
<text text-anchor="start" x="8" y="-54.5" font-family="Helvetica,sans-Serif" font-size="10.00" fill="#000000">+ $title</text>
<polyline fill="none" stroke="#000000" points="0,-48.5 122.7139,-48.5 "/>
<text text-anchor="start" x="8" y="-36.5" font-family="Helvetica,sans-Serif" font-size="10.00" fill="#000000">+ setTitle()</text>
<text text-anchor="start" x="8" y="-26.5" font-family="Helvetica,sans-Serif" font-size="10.00" fill="#000000">+ getTitle()</text>
<text text-anchor="start" x="8" y="-16.5" font-family="Helvetica,sans-Serif" font-size="10.00" fill="#000000">+ setTitle()</text>
<text text-anchor="start" x="8" y="-6.5" font-family="Helvetica,sans-Serif" font-size="10.00" fill="#000000">+ getTitle()</text>
</g>
<!-- Node1 -->
<g id="node2" class="node">
<title>Node1</title>
<g id="a_node2"><a xlink:href="class_google___model.html" target="_top" xlink:title="{Google_Model\n||+ __construct()\l+ assertIsArray()\l# mapTypes()\l# isAssociativeArray()\l# useObjects()\l}">
<polygon fill="#ffffff" stroke="#000000" points="5.0122,-121.5 5.0122,-215.5 117.7017,-215.5 117.7017,-121.5 5.0122,-121.5"/>
<text text-anchor="middle" x="61.3569" y="-203.5" font-family="Helvetica,sans-Serif" font-size="10.00" fill="#000000">Google_Model</text>
<polyline fill="none" stroke="#000000" points="5.0122,-197.5 117.7017,-197.5 "/>
<text text-anchor="middle" x="61.3569" y="-185.5" font-family="Helvetica,sans-Serif" font-size="10.00" fill="#000000"> </text>
<polyline fill="none" stroke="#000000" points="5.0122,-179.5 117.7017,-179.5 "/>
<text text-anchor="start" x="13.0122" y="-167.5" font-family="Helvetica,sans-Serif" font-size="10.00" fill="#000000">+ __construct()</text>
<text text-anchor="start" x="13.0122" y="-157.5" font-family="Helvetica,sans-Serif" font-size="10.00" fill="#000000">+ assertIsArray()</text>
<text text-anchor="start" x="13.0122" y="-147.5" font-family="Helvetica,sans-Serif" font-size="10.00" fill="#000000"># mapTypes()</text>
<text text-anchor="start" x="13.0122" y="-137.5" font-family="Helvetica,sans-Serif" font-size="10.00" fill="#000000"># isAssociativeArray()</text>
<text text-anchor="start" x="13.0122" y="-127.5" font-family="Helvetica,sans-Serif" font-size="10.00" fill="#000000"># useObjects()</text>
</a>
</g>
</g>
<!-- Node1&#45;&gt;Node0 -->
<g id="edge1" class="edge">
<title>Node1&#45;&gt;Node0</title>
<path fill="none" stroke="#191970" d="M54.6293,-110.9387C54.5562,-102.0848 54.662,-93.0866 54.9468,-84.6505"/>
<polygon fill="none" stroke="#191970" points="51.1344,-111.2823 54.7974,-121.2238 58.1335,-111.1679 51.1344,-111.2823"/>
</g>
<!-- Node1&#45;&gt;Node0 -->
<g id="edge2" class="edge">
<title>Node1&#45;&gt;Node0</title>
<path fill="none" stroke="#191970" d="M68.0845,-110.9387C68.1576,-102.0848 68.0518,-93.0866 67.767,-84.6505"/>
<polygon fill="none" stroke="#191970" points="64.5804,-111.1679 67.9165,-121.2238 71.5795,-111.2823 64.5804,-111.1679"/>
</g>
</g>
</svg>
