<?xml version="1.0" encoding="UTF-8" standalone="no"?>
<!DOCTYPE svg PUBLIC "-//W3C//DTD SVG 1.1//EN"
 "http://www.w3.org/Graphics/SVG/1.1/DTD/svg11.dtd">
<!-- Generated by graphviz version 2.40.1 (20161225.0304)
 -->
<!-- Title: Google_MachineTypeScratchDisks Pages: 1 -->
<svg width="155pt" height="214pt"
 viewBox="0.00 0.00 155.19 214.00" xmlns="http://www.w3.org/2000/svg" xmlns:xlink="http://www.w3.org/1999/xlink">
<g id="graph0" class="graph" transform="scale(1 1) rotate(0) translate(4 210)">
<title>Google_MachineTypeScratchDisks</title>
<polygon fill="#ffffff" stroke="transparent" points="-4,4 -4,-210 151.1914,-210 151.1914,4 -4,4"/>
<!-- Node2 -->
<g id="node1" class="node">
<title>Node2</title>
<polygon fill="#bfbfbf" stroke="#000000" points="0,-.5 0,-74.5 147.1914,-74.5 147.1914,-.5 0,-.5"/>
<text text-anchor="start" x="8" y="-62.5" font-family="Helvetica,sans-Serif" font-size="10.00" fill="#000000">Google_MachineTypeScratch</text>
<text text-anchor="middle" x="73.5957" y="-52.5" font-family="Helvetica,sans-Serif" font-size="10.00" fill="#000000">Disks</text>
<polyline fill="none" stroke="#000000" points="0,-46.5 147.1914,-46.5 "/>
<text text-anchor="start" x="8" y="-34.5" font-family="Helvetica,sans-Serif" font-size="10.00" fill="#000000">+ $diskGb</text>
<polyline fill="none" stroke="#000000" points="0,-28.5 147.1914,-28.5 "/>
<text text-anchor="start" x="8" y="-16.5" font-family="Helvetica,sans-Serif" font-size="10.00" fill="#000000">+ setDiskGb()</text>
<text text-anchor="start" x="8" y="-6.5" font-family="Helvetica,sans-Serif" font-size="10.00" fill="#000000">+ getDiskGb()</text>
</g>
<!-- Node3 -->
<g id="node2" class="node">
<title>Node3</title>
<g id="a_node2"><a xlink:href="class_google___model.html" target="_top" xlink:title="{Google_Model\n||+ __construct()\l+ assertIsArray()\l# mapTypes()\l# isAssociativeArray()\l# useObjects()\l}">
<polygon fill="#ffffff" stroke="#000000" points="17.251,-111.5 17.251,-205.5 129.9404,-205.5 129.9404,-111.5 17.251,-111.5"/>
<text text-anchor="middle" x="73.5957" y="-193.5" font-family="Helvetica,sans-Serif" font-size="10.00" fill="#000000">Google_Model</text>
<polyline fill="none" stroke="#000000" points="17.251,-187.5 129.9404,-187.5 "/>
<text text-anchor="middle" x="73.5957" y="-175.5" font-family="Helvetica,sans-Serif" font-size="10.00" fill="#000000"> </text>
<polyline fill="none" stroke="#000000" points="17.251,-169.5 129.9404,-169.5 "/>
<text text-anchor="start" x="25.251" y="-157.5" font-family="Helvetica,sans-Serif" font-size="10.00" fill="#000000">+ __construct()</text>
<text text-anchor="start" x="25.251" y="-147.5" font-family="Helvetica,sans-Serif" font-size="10.00" fill="#000000">+ assertIsArray()</text>
<text text-anchor="start" x="25.251" y="-137.5" font-family="Helvetica,sans-Serif" font-size="10.00" fill="#000000"># mapTypes()</text>
<text text-anchor="start" x="25.251" y="-127.5" font-family="Helvetica,sans-Serif" font-size="10.00" fill="#000000"># isAssociativeArray()</text>
<text text-anchor="start" x="25.251" y="-117.5" font-family="Helvetica,sans-Serif" font-size="10.00" fill="#000000"># useObjects()</text>
</a>
</g>
</g>
<!-- Node3&#45;&gt;Node2 -->
<g id="edge1" class="edge">
<title>Node3&#45;&gt;Node2</title>
<path fill="none" stroke="#191970" d="M73.5957,-101.2279C73.5957,-92.1684 73.5957,-83.0122 73.5957,-74.5748"/>
<polygon fill="none" stroke="#191970" points="70.0958,-101.3717 73.5957,-111.3718 77.0958,-101.3718 70.0958,-101.3717"/>
</g>
</g>
</svg>
