<?xml version="1.0" encoding="UTF-8" standalone="no"?>
<!DOCTYPE svg PUBLIC "-//W3C//DTD SVG 1.1//EN"
 "http://www.w3.org/Graphics/SVG/1.1/DTD/svg11.dtd">
<!-- Generated by graphviz version 2.40.1 (20161225.0304)
 -->
<!-- Title: EYiiPdfException Pages: 1 -->
<svg width="100pt" height="154pt"
 viewBox="0.00 0.00 100.34 154.00" xmlns="http://www.w3.org/2000/svg" xmlns:xlink="http://www.w3.org/1999/xlink">
<g id="graph0" class="graph" transform="scale(1 1) rotate(0) translate(4 150)">
<title>EYiiPdfException</title>
<polygon fill="#ffffff" stroke="transparent" points="-4,4 -4,-150 96.3428,-150 96.3428,4 -4,4"/>
<!-- Node2 -->
<g id="node1" class="node">
<title>Node2</title>
<polygon fill="#bfbfbf" stroke="#000000" points="0,-.5 0,-54.5 92.3428,-54.5 92.3428,-.5 0,-.5"/>
<text text-anchor="middle" x="46.1714" y="-42.5" font-family="Helvetica,sans-Serif" font-size="10.00" fill="#000000">EYiiPdfException</text>
<polyline fill="none" stroke="#000000" points="0,-36.5 92.3428,-36.5 "/>
<text text-anchor="middle" x="46.1714" y="-24.5" font-family="Helvetica,sans-Serif" font-size="10.00" fill="#000000"> </text>
<polyline fill="none" stroke="#000000" points="0,-18.5 92.3428,-18.5 "/>
<text text-anchor="middle" x="46.1714" y="-6.5" font-family="Helvetica,sans-Serif" font-size="10.00" fill="#000000"> </text>
</g>
<!-- Node3 -->
<g id="node2" class="node">
<title>Node3</title>
<polygon fill="#ffffff" stroke="#bfbfbf" points="12.6025,-91.5 12.6025,-145.5 79.7402,-145.5 79.7402,-91.5 12.6025,-91.5"/>
<text text-anchor="middle" x="46.1714" y="-133.5" font-family="Helvetica,sans-Serif" font-size="10.00" fill="#000000">CException</text>
<polyline fill="none" stroke="#bfbfbf" points="12.6025,-127.5 79.7402,-127.5 "/>
<text text-anchor="middle" x="46.1714" y="-115.5" font-family="Helvetica,sans-Serif" font-size="10.00" fill="#000000"> </text>
<polyline fill="none" stroke="#bfbfbf" points="12.6025,-109.5 79.7402,-109.5 "/>
<text text-anchor="middle" x="46.1714" y="-97.5" font-family="Helvetica,sans-Serif" font-size="10.00" fill="#000000"> </text>
</g>
<!-- Node3&#45;&gt;Node2 -->
<g id="edge1" class="edge">
<title>Node3&#45;&gt;Node2</title>
<path fill="none" stroke="#191970" d="M46.1714,-81.12C46.1714,-72.3006 46.1714,-63.0605 46.1714,-54.7837"/>
<polygon fill="none" stroke="#191970" points="42.6715,-81.197 46.1714,-91.197 49.6715,-81.197 42.6715,-81.197"/>
</g>
</g>
</svg>
