<?xml version="1.0" encoding="UTF-8" standalone="no"?>
<!DOCTYPE svg PUBLIC "-//W3C//DTD SVG 1.1//EN"
 "http://www.w3.org/Graphics/SVG/1.1/DTD/svg11.dtd">
<!-- Generated by graphviz version 2.40.1 (20161225.0304)
 -->
<!-- Title: Swift_Transport_Esmtp_Auth_CramMd5Authenticator Pages: 1 -->
<svg width="159pt" height="194pt"
 viewBox="0.00 0.00 158.52 194.00" xmlns="http://www.w3.org/2000/svg" xmlns:xlink="http://www.w3.org/1999/xlink">
<g id="graph0" class="graph" transform="scale(1 1) rotate(0) translate(4 190)">
<title>Swift_Transport_Esmtp_Auth_CramMd5Authenticator</title>
<polygon fill="#ffffff" stroke="transparent" points="-4,4 -4,-190 154.5166,-190 154.5166,4 -4,4"/>
<!-- Node0 -->
<g id="node1" class="node">
<title>Node0</title>
<polygon fill="#bfbfbf" stroke="#000000" points="0,-.5 0,-74.5 150.5166,-74.5 150.5166,-.5 0,-.5"/>
<text text-anchor="start" x="8" y="-62.5" font-family="Helvetica,sans-Serif" font-size="10.00" fill="#000000">Swift_Transport_Esmtp</text>
<text text-anchor="middle" x="75.2583" y="-52.5" font-family="Helvetica,sans-Serif" font-size="10.00" fill="#000000">_Auth_CramMd5Authenticator</text>
<polyline fill="none" stroke="#000000" points="0,-46.5 150.5166,-46.5 "/>
<text text-anchor="middle" x="75.2583" y="-34.5" font-family="Helvetica,sans-Serif" font-size="10.00" fill="#000000"> </text>
<polyline fill="none" stroke="#000000" points="0,-28.5 150.5166,-28.5 "/>
<text text-anchor="start" x="8" y="-16.5" font-family="Helvetica,sans-Serif" font-size="10.00" fill="#000000">+ getAuthKeyword()</text>
<text text-anchor="start" x="8" y="-6.5" font-family="Helvetica,sans-Serif" font-size="10.00" fill="#000000">+ authenticate()</text>
</g>
<!-- Node1 -->
<g id="node2" class="node">
<title>Node1</title>
<g id="a_node2"><a xlink:href="interface_swift___transport___esmtp___authenticator.html" target="_top" xlink:title="{Swift_Transport_Esmtp\l_Authenticator\n||+ getAuthKeyword()\l+ authenticate()\l}">
<polygon fill="#ffffff" stroke="#000000" points="15.4785,-111.5 15.4785,-185.5 135.0381,-185.5 135.0381,-111.5 15.4785,-111.5"/>
<text text-anchor="start" x="23.4785" y="-173.5" font-family="Helvetica,sans-Serif" font-size="10.00" fill="#000000">Swift_Transport_Esmtp</text>
<text text-anchor="middle" x="75.2583" y="-163.5" font-family="Helvetica,sans-Serif" font-size="10.00" fill="#000000">_Authenticator</text>
<polyline fill="none" stroke="#000000" points="15.4785,-157.5 135.0381,-157.5 "/>
<text text-anchor="middle" x="75.2583" y="-145.5" font-family="Helvetica,sans-Serif" font-size="10.00" fill="#000000"> </text>
<polyline fill="none" stroke="#000000" points="15.4785,-139.5 135.0381,-139.5 "/>
<text text-anchor="start" x="23.4785" y="-127.5" font-family="Helvetica,sans-Serif" font-size="10.00" fill="#000000">+ getAuthKeyword()</text>
<text text-anchor="start" x="23.4785" y="-117.5" font-family="Helvetica,sans-Serif" font-size="10.00" fill="#000000">+ authenticate()</text>
</a>
</g>
</g>
<!-- Node1&#45;&gt;Node0 -->
<g id="edge1" class="edge">
<title>Node1&#45;&gt;Node0</title>
<path fill="none" stroke="#191970" d="M75.2583,-101.1104C75.2583,-92.336 75.2583,-83.2851 75.2583,-74.8608"/>
<polygon fill="none" stroke="#191970" points="71.7584,-101.2298 75.2583,-111.2298 78.7584,-101.2299 71.7584,-101.2298"/>
</g>
</g>
</svg>
