<?xml version="1.0" encoding="UTF-8" standalone="no"?>
<!DOCTYPE svg PUBLIC "-//W3C//DTD SVG 1.1//EN"
 "http://www.w3.org/Graphics/SVG/1.1/DTD/svg11.dtd">
<!-- Generated by graphviz version 2.40.1 (20161225.0304)
 -->
<!-- Title: WebUserGroups Pages: 1 -->
<svg width="125pt" height="294pt"
 viewBox="0.00 0.00 124.58 294.00" xmlns="http://www.w3.org/2000/svg" xmlns:xlink="http://www.w3.org/1999/xlink">
<g id="graph0" class="graph" transform="scale(1 1) rotate(0) translate(4 290)">
<title>WebUserGroups</title>
<polygon fill="#ffffff" stroke="transparent" points="-4,4 -4,-290 120.5811,-290 120.5811,4 -4,4"/>
<!-- Node0 -->
<g id="node1" class="node">
<title>Node0</title>
<polygon fill="#bfbfbf" stroke="#000000" points="0,-.5 0,-194.5 116.5811,-194.5 116.5811,-.5 0,-.5"/>
<text text-anchor="middle" x="58.2905" y="-182.5" font-family="Helvetica,sans-Serif" font-size="10.00" fill="#000000">WebUserGroups</text>
<polyline fill="none" stroke="#000000" points="0,-176.5 116.5811,-176.5 "/>
<text text-anchor="start" x="8" y="-164.5" font-family="Helvetica,sans-Serif" font-size="10.00" fill="#000000">+ $loginUrl</text>
<polyline fill="none" stroke="#000000" points="0,-158.5 116.5811,-158.5 "/>
<text text-anchor="start" x="8" y="-146.5" font-family="Helvetica,sans-Serif" font-size="10.00" fill="#000000">+ init()</text>
<text text-anchor="start" x="8" y="-136.5" font-family="Helvetica,sans-Serif" font-size="10.00" fill="#000000">+ login()</text>
<text text-anchor="start" x="8" y="-126.5" font-family="Helvetica,sans-Serif" font-size="10.00" fill="#000000">+ setAccessRules()</text>
<text text-anchor="start" x="8" y="-116.5" font-family="Helvetica,sans-Serif" font-size="10.00" fill="#000000">+ getAccessRules()</text>
<text text-anchor="start" x="8" y="-106.5" font-family="Helvetica,sans-Serif" font-size="10.00" fill="#000000">+ setGroup()</text>
<text text-anchor="start" x="8" y="-96.5" font-family="Helvetica,sans-Serif" font-size="10.00" fill="#000000">+ getGroup()</text>
<text text-anchor="start" x="8" y="-86.5" font-family="Helvetica,sans-Serif" font-size="10.00" fill="#000000">+ setGroupName()</text>
<text text-anchor="start" x="8" y="-76.5" font-family="Helvetica,sans-Serif" font-size="10.00" fill="#000000">+ getGroupName()</text>
<text text-anchor="start" x="8" y="-66.5" font-family="Helvetica,sans-Serif" font-size="10.00" fill="#000000">+ setLevel()</text>
<text text-anchor="start" x="8" y="-56.5" font-family="Helvetica,sans-Serif" font-size="10.00" fill="#000000">+ getLevel()</text>
<text text-anchor="start" x="8" y="-46.5" font-family="Helvetica,sans-Serif" font-size="10.00" fill="#000000">і ще 14...</text>
<text text-anchor="start" x="8" y="-36.5" font-family="Helvetica,sans-Serif" font-size="10.00" fill="#000000"># UGChangeIdentity()</text>
<text text-anchor="start" x="8" y="-26.5" font-family="Helvetica,sans-Serif" font-size="10.00" fill="#000000"># profileLoad()</text>
<text text-anchor="start" x="8" y="-16.5" font-family="Helvetica,sans-Serif" font-size="10.00" fill="#000000"># saveToCookie()</text>
<text text-anchor="start" x="8" y="-6.5" font-family="Helvetica,sans-Serif" font-size="10.00" fill="#000000"># restoreFromCookie()</text>
</g>
<!-- Node1 -->
<g id="node2" class="node">
<title>Node1</title>
<polygon fill="#ffffff" stroke="#bfbfbf" points="25.9302,-231.5 25.9302,-285.5 90.6509,-285.5 90.6509,-231.5 25.9302,-231.5"/>
<text text-anchor="middle" x="58.2905" y="-273.5" font-family="Helvetica,sans-Serif" font-size="10.00" fill="#000000">CWebUser</text>
<polyline fill="none" stroke="#bfbfbf" points="25.9302,-267.5 90.6509,-267.5 "/>
<text text-anchor="middle" x="58.2905" y="-255.5" font-family="Helvetica,sans-Serif" font-size="10.00" fill="#000000"> </text>
<polyline fill="none" stroke="#bfbfbf" points="25.9302,-249.5 90.6509,-249.5 "/>
<text text-anchor="middle" x="58.2905" y="-237.5" font-family="Helvetica,sans-Serif" font-size="10.00" fill="#000000"> </text>
</g>
<!-- Node1&#45;&gt;Node0 -->
<g id="edge1" class="edge">
<title>Node1&#45;&gt;Node0</title>
<path fill="none" stroke="#191970" d="M58.2905,-221.0295C58.2905,-212.9055 58.2905,-203.9536 58.2905,-194.6933"/>
<polygon fill="none" stroke="#191970" points="54.7906,-221.1885 58.2905,-231.1885 61.7906,-221.1886 54.7906,-221.1885"/>
</g>
</g>
</svg>
