<?xml version="1.0" encoding="UTF-8" standalone="no"?>
<!DOCTYPE svg PUBLIC "-//W3C//DTD SVG 1.1//EN"
 "http://www.w3.org/Graphics/SVG/1.1/DTD/svg11.dtd">
<!-- Generated by graphviz version 2.40.1 (20161225.0304)
 -->
<!-- Title: CustomGitHubOAuthService Pages: 1 -->
<svg width="151pt" height="154pt"
 viewBox="0.00 0.00 151.27 154.00" xmlns="http://www.w3.org/2000/svg" xmlns:xlink="http://www.w3.org/1999/xlink">
<g id="graph0" class="graph" transform="scale(1 1) rotate(0) translate(4 150)">
<title>CustomGitHubOAuthService</title>
<polygon fill="#ffffff" stroke="transparent" points="-4,4 -4,-150 147.2705,-150 147.2705,4 -4,4"/>
<!-- Node2 -->
<g id="node1" class="node">
<title>Node2</title>
<polygon fill="#bfbfbf" stroke="#000000" points="0,-.5 0,-54.5 143.2705,-54.5 143.2705,-.5 0,-.5"/>
<text text-anchor="middle" x="71.6353" y="-42.5" font-family="Helvetica,sans-Serif" font-size="10.00" fill="#000000">CustomGitHubOAuthService</text>
<polyline fill="none" stroke="#000000" points="0,-36.5 143.2705,-36.5 "/>
<text text-anchor="middle" x="71.6353" y="-24.5" font-family="Helvetica,sans-Serif" font-size="10.00" fill="#000000"> </text>
<polyline fill="none" stroke="#000000" points="0,-18.5 143.2705,-18.5 "/>
<text text-anchor="start" x="8" y="-6.5" font-family="Helvetica,sans-Serif" font-size="10.00" fill="#000000"># fetchAttributes()</text>
</g>
<!-- Node3 -->
<g id="node2" class="node">
<title>Node3</title>
<polygon fill="#ffffff" stroke="#bfbfbf" points="17.2266,-91.5 17.2266,-145.5 126.0439,-145.5 126.0439,-91.5 17.2266,-91.5"/>
<text text-anchor="middle" x="71.6353" y="-133.5" font-family="Helvetica,sans-Serif" font-size="10.00" fill="#000000">GitHubOAuthService</text>
<polyline fill="none" stroke="#bfbfbf" points="17.2266,-127.5 126.0439,-127.5 "/>
<text text-anchor="middle" x="71.6353" y="-115.5" font-family="Helvetica,sans-Serif" font-size="10.00" fill="#000000"> </text>
<polyline fill="none" stroke="#bfbfbf" points="17.2266,-109.5 126.0439,-109.5 "/>
<text text-anchor="middle" x="71.6353" y="-97.5" font-family="Helvetica,sans-Serif" font-size="10.00" fill="#000000"> </text>
</g>
<!-- Node3&#45;&gt;Node2 -->
<g id="edge1" class="edge">
<title>Node3&#45;&gt;Node2</title>
<path fill="none" stroke="#191970" d="M71.6353,-81.12C71.6353,-72.3006 71.6353,-63.0605 71.6353,-54.7837"/>
<polygon fill="none" stroke="#191970" points="68.1354,-81.197 71.6353,-91.197 75.1354,-81.197 68.1354,-81.197"/>
</g>
</g>
</svg>
