<?xml version="1.0" encoding="UTF-8" standalone="no"?>
<!DOCTYPE svg PUBLIC "-//W3C//DTD SVG 1.1//EN"
 "http://www.w3.org/Graphics/SVG/1.1/DTD/svg11.dtd">
<!-- Generated by graphviz version 2.40.1 (20161225.0304)
 -->
<!-- Title: Google_ReportsServiceResource Pages: 1 -->
<svg width="173pt" height="294pt"
 viewBox="0.00 0.00 172.96 294.00" xmlns="http://www.w3.org/2000/svg" xmlns:xlink="http://www.w3.org/1999/xlink">
<g id="graph0" class="graph" transform="scale(1 1) rotate(0) translate(4 290)">
<title>Google_ReportsServiceResource</title>
<polygon fill="#ffffff" stroke="transparent" points="-4,4 -4,-290 168.9648,-290 168.9648,4 -4,4"/>
<!-- Node0 -->
<g id="node1" class="node">
<title>Node0</title>
<polygon fill="#bfbfbf" stroke="#000000" points="0,-.5 0,-164.5 164.9648,-164.5 164.9648,-.5 0,-.5"/>
<text text-anchor="middle" x="82.4824" y="-152.5" font-family="Helvetica,sans-Serif" font-size="10.00" fill="#000000">Google_ReportsServiceResource</text>
<polyline fill="none" stroke="#000000" points="0,-146.5 164.9648,-146.5 "/>
<text text-anchor="middle" x="82.4824" y="-134.5" font-family="Helvetica,sans-Serif" font-size="10.00" fill="#000000"> </text>
<polyline fill="none" stroke="#000000" points="0,-128.5 164.9648,-128.5 "/>
<text text-anchor="start" x="8" y="-116.5" font-family="Helvetica,sans-Serif" font-size="10.00" fill="#000000">+ generate()</text>
<text text-anchor="start" x="8" y="-106.5" font-family="Helvetica,sans-Serif" font-size="10.00" fill="#000000">+ generate()</text>
<text text-anchor="start" x="8" y="-96.5" font-family="Helvetica,sans-Serif" font-size="10.00" fill="#000000">+ generate()</text>
<text text-anchor="start" x="8" y="-86.5" font-family="Helvetica,sans-Serif" font-size="10.00" fill="#000000">+ delete()</text>
<text text-anchor="start" x="8" y="-76.5" font-family="Helvetica,sans-Serif" font-size="10.00" fill="#000000">+ get()</text>
<text text-anchor="start" x="8" y="-66.5" font-family="Helvetica,sans-Serif" font-size="10.00" fill="#000000">+ insert()</text>
<text text-anchor="start" x="8" y="-56.5" font-family="Helvetica,sans-Serif" font-size="10.00" fill="#000000">+ listReports()</text>
<text text-anchor="start" x="8" y="-46.5" font-family="Helvetica,sans-Serif" font-size="10.00" fill="#000000">+ patch()</text>
<text text-anchor="start" x="8" y="-36.5" font-family="Helvetica,sans-Serif" font-size="10.00" fill="#000000">+ run()</text>
<text text-anchor="start" x="8" y="-26.5" font-family="Helvetica,sans-Serif" font-size="10.00" fill="#000000">+ update()</text>
<text text-anchor="start" x="8" y="-16.5" font-family="Helvetica,sans-Serif" font-size="10.00" fill="#000000">+ get()</text>
<text text-anchor="start" x="8" y="-6.5" font-family="Helvetica,sans-Serif" font-size="10.00" fill="#000000">+ query()</text>
</g>
<!-- Node1 -->
<g id="node2" class="node">
<title>Node1</title>
<g id="a_node2"><a xlink:href="class_google___service_resource.html" target="_top" xlink:title="{Google_ServiceResource\n||+ __construct()\l+ __call()\l+ useObjects()\l# stripNull()\l}">
<polygon fill="#ffffff" stroke="#000000" points="17.5073,-201.5 17.5073,-285.5 147.4575,-285.5 147.4575,-201.5 17.5073,-201.5"/>
<text text-anchor="middle" x="82.4824" y="-273.5" font-family="Helvetica,sans-Serif" font-size="10.00" fill="#000000">Google_ServiceResource</text>
<polyline fill="none" stroke="#000000" points="17.5073,-267.5 147.4575,-267.5 "/>
<text text-anchor="middle" x="82.4824" y="-255.5" font-family="Helvetica,sans-Serif" font-size="10.00" fill="#000000"> </text>
<polyline fill="none" stroke="#000000" points="17.5073,-249.5 147.4575,-249.5 "/>
<text text-anchor="start" x="25.5073" y="-237.5" font-family="Helvetica,sans-Serif" font-size="10.00" fill="#000000">+ __construct()</text>
<text text-anchor="start" x="25.5073" y="-227.5" font-family="Helvetica,sans-Serif" font-size="10.00" fill="#000000">+ __call()</text>
<text text-anchor="start" x="25.5073" y="-217.5" font-family="Helvetica,sans-Serif" font-size="10.00" fill="#000000">+ useObjects()</text>
<text text-anchor="start" x="25.5073" y="-207.5" font-family="Helvetica,sans-Serif" font-size="10.00" fill="#000000"># stripNull()</text>
</a>
</g>
</g>
<!-- Node1&#45;&gt;Node0 -->
<g id="edge1" class="edge">
<title>Node1&#45;&gt;Node0</title>
<path fill="none" stroke="#191970" d="M50.6345,-191.1271C49.4426,-182.6517 48.8108,-173.7005 48.7393,-164.7208"/>
<polygon fill="none" stroke="#191970" points="47.2222,-191.9368 52.3661,-201.1991 54.121,-190.7507 47.2222,-191.9368"/>
</g>
<!-- Node1&#45;&gt;Node0 -->
<g id="edge2" class="edge">
<title>Node1&#45;&gt;Node0</title>
<path fill="none" stroke="#191970" d="M63.3736,-191.1271C62.6585,-182.6517 62.2795,-173.7005 62.2365,-164.7208"/>
<polygon fill="none" stroke="#191970" points="59.9049,-191.6111 64.4127,-201.1991 66.868,-190.8928 59.9049,-191.6111"/>
</g>
<!-- Node1&#45;&gt;Node0 -->
<g id="edge3" class="edge">
<title>Node1&#45;&gt;Node0</title>
<path fill="none" stroke="#191970" d="M76.1128,-191.1271C75.8744,-182.6517 75.7481,-173.7005 75.7338,-164.7208"/>
<polygon fill="none" stroke="#191970" points="72.6175,-191.3254 76.4592,-201.1991 79.6133,-191.0847 72.6175,-191.3254"/>
</g>
<!-- Node1&#45;&gt;Node0 -->
<g id="edge4" class="edge">
<title>Node1&#45;&gt;Node0</title>
<path fill="none" stroke="#191970" d="M88.852,-191.1271C89.0904,-182.6517 89.2167,-173.7005 89.2311,-164.7208"/>
<polygon fill="none" stroke="#191970" points="85.3515,-191.0847 88.5057,-201.1991 92.3474,-191.3254 85.3515,-191.0847"/>
</g>
<!-- Node1&#45;&gt;Node0 -->
<g id="edge5" class="edge">
<title>Node1&#45;&gt;Node0</title>
<path fill="none" stroke="#191970" d="M101.5912,-191.1271C102.3063,-182.6517 102.6854,-173.7005 102.7283,-164.7208"/>
<polygon fill="none" stroke="#191970" points="98.0969,-190.8928 100.5522,-201.1991 105.0599,-191.6111 98.0969,-190.8928"/>
</g>
<!-- Node1&#45;&gt;Node0 -->
<g id="edge6" class="edge">
<title>Node1&#45;&gt;Node0</title>
<path fill="none" stroke="#191970" d="M114.3304,-191.1271C115.5223,-182.6517 116.154,-173.7005 116.2256,-164.7208"/>
<polygon fill="none" stroke="#191970" points="110.8438,-190.7507 112.5987,-201.1991 117.7426,-191.9368 110.8438,-190.7507"/>
</g>
</g>
</svg>
