<?xml version="1.0" encoding="UTF-8" standalone="no"?>
<!DOCTYPE svg PUBLIC "-//W3C//DTD SVG 1.1//EN"
 "http://www.w3.org/Graphics/SVG/1.1/DTD/svg11.dtd">
<!-- Generated by graphviz version 2.40.1 (20161225.0304)
 -->
<!-- Title: Google_VolumesServiceResource Pages: 1 -->
<svg width="176pt" height="194pt"
 viewBox="0.00 0.00 176.31 194.00" xmlns="http://www.w3.org/2000/svg" xmlns:xlink="http://www.w3.org/1999/xlink">
<g id="graph0" class="graph" transform="scale(1 1) rotate(0) translate(4 190)">
<title>Google_VolumesServiceResource</title>
<polygon fill="#ffffff" stroke="transparent" points="-4,4 -4,-190 172.3096,-190 172.3096,4 -4,4"/>
<!-- Node2 -->
<g id="node1" class="node">
<title>Node2</title>
<polygon fill="#bfbfbf" stroke="#000000" points="0,-.5 0,-64.5 168.3096,-64.5 168.3096,-.5 0,-.5"/>
<text text-anchor="middle" x="84.1548" y="-52.5" font-family="Helvetica,sans-Serif" font-size="10.00" fill="#000000">Google_VolumesServiceResource</text>
<polyline fill="none" stroke="#000000" points="0,-46.5 168.3096,-46.5 "/>
<text text-anchor="middle" x="84.1548" y="-34.5" font-family="Helvetica,sans-Serif" font-size="10.00" fill="#000000"> </text>
<polyline fill="none" stroke="#000000" points="0,-28.5 168.3096,-28.5 "/>
<text text-anchor="start" x="8" y="-16.5" font-family="Helvetica,sans-Serif" font-size="10.00" fill="#000000">+ get()</text>
<text text-anchor="start" x="8" y="-6.5" font-family="Helvetica,sans-Serif" font-size="10.00" fill="#000000">+ listVolumes()</text>
</g>
<!-- Node3 -->
<g id="node2" class="node">
<title>Node3</title>
<g id="a_node2"><a xlink:href="class_google___service_resource.html" target="_top" xlink:title="{Google_ServiceResource\n||+ __construct()\l+ __call()\l+ useObjects()\l# stripNull()\l}">
<polygon fill="#ffffff" stroke="#000000" points="19.1797,-101.5 19.1797,-185.5 149.1299,-185.5 149.1299,-101.5 19.1797,-101.5"/>
<text text-anchor="middle" x="84.1548" y="-173.5" font-family="Helvetica,sans-Serif" font-size="10.00" fill="#000000">Google_ServiceResource</text>
<polyline fill="none" stroke="#000000" points="19.1797,-167.5 149.1299,-167.5 "/>
<text text-anchor="middle" x="84.1548" y="-155.5" font-family="Helvetica,sans-Serif" font-size="10.00" fill="#000000"> </text>
<polyline fill="none" stroke="#000000" points="19.1797,-149.5 149.1299,-149.5 "/>
<text text-anchor="start" x="27.1797" y="-137.5" font-family="Helvetica,sans-Serif" font-size="10.00" fill="#000000">+ __construct()</text>
<text text-anchor="start" x="27.1797" y="-127.5" font-family="Helvetica,sans-Serif" font-size="10.00" fill="#000000">+ __call()</text>
<text text-anchor="start" x="27.1797" y="-117.5" font-family="Helvetica,sans-Serif" font-size="10.00" fill="#000000">+ useObjects()</text>
<text text-anchor="start" x="27.1797" y="-107.5" font-family="Helvetica,sans-Serif" font-size="10.00" fill="#000000"># stripNull()</text>
</a>
</g>
</g>
<!-- Node3&#45;&gt;Node2 -->
<g id="edge1" class="edge">
<title>Node3&#45;&gt;Node2</title>
<path fill="none" stroke="#191970" d="M84.1548,-91.1185C84.1548,-82.0854 84.1548,-72.9418 84.1548,-64.6489"/>
<polygon fill="none" stroke="#191970" points="80.6549,-91.219 84.1548,-101.219 87.6549,-91.219 80.6549,-91.219"/>
</g>
</g>
</svg>
