<?xml version="1.0" encoding="UTF-8" standalone="no"?>
<!DOCTYPE svg PUBLIC "-//W3C//DTD SVG 1.1//EN"
 "http://www.w3.org/Graphics/SVG/1.1/DTD/svg11.dtd">
<!-- Generated by graphviz version 2.40.1 (20161225.0304)
 -->
<!-- Title: newsWidget Pages: 1 -->
<svg width="125pt" height="214pt"
 viewBox="0.00 0.00 124.58 214.00" xmlns="http://www.w3.org/2000/svg" xmlns:xlink="http://www.w3.org/1999/xlink">
<g id="graph0" class="graph" transform="scale(1 1) rotate(0) translate(4 210)">
<title>newsWidget</title>
<polygon fill="#ffffff" stroke="transparent" points="-4,4 -4,-210 120.5811,-210 120.5811,4 -4,4"/>
<!-- Node0 -->
<g id="node1" class="node">
<title>Node0</title>
<polygon fill="#bfbfbf" stroke="#000000" points="0,-.5 0,-114.5 116.5811,-114.5 116.5811,-.5 0,-.5"/>
<text text-anchor="middle" x="58.2905" y="-102.5" font-family="Helvetica,sans-Serif" font-size="10.00" fill="#000000">newsWidget</text>
<polyline fill="none" stroke="#000000" points="0,-96.5 116.5811,-96.5 "/>
<text text-anchor="start" x="8" y="-84.5" font-family="Helvetica,sans-Serif" font-size="10.00" fill="#000000">+ $itemview</text>
<text text-anchor="start" x="8" y="-74.5" font-family="Helvetica,sans-Serif" font-size="10.00" fill="#000000">+ $data</text>
<text text-anchor="start" x="8" y="-64.5" font-family="Helvetica,sans-Serif" font-size="10.00" fill="#000000">+ $options</text>
<text text-anchor="start" x="8" y="-54.5" font-family="Helvetica,sans-Serif" font-size="10.00" fill="#000000">+ $htmlOptions</text>
<text text-anchor="start" x="8" y="-44.5" font-family="Helvetica,sans-Serif" font-size="10.00" fill="#000000">+ $all</text>
<polyline fill="none" stroke="#000000" points="0,-38.5 116.5811,-38.5 "/>
<text text-anchor="start" x="8" y="-26.5" font-family="Helvetica,sans-Serif" font-size="10.00" fill="#000000">+ init()</text>
<text text-anchor="start" x="8" y="-16.5" font-family="Helvetica,sans-Serif" font-size="10.00" fill="#000000">+ run()</text>
<text text-anchor="start" x="8" y="-6.5" font-family="Helvetica,sans-Serif" font-size="10.00" fill="#000000"># registerCoreScripts()</text>
</g>
<!-- Node1 -->
<g id="node2" class="node">
<title>Node1</title>
<polygon fill="#ffffff" stroke="#bfbfbf" points="31.1182,-151.5 31.1182,-205.5 85.4629,-205.5 85.4629,-151.5 31.1182,-151.5"/>
<text text-anchor="middle" x="58.2905" y="-193.5" font-family="Helvetica,sans-Serif" font-size="10.00" fill="#000000">CWidget</text>
<polyline fill="none" stroke="#bfbfbf" points="31.1182,-187.5 85.4629,-187.5 "/>
<text text-anchor="middle" x="58.2905" y="-175.5" font-family="Helvetica,sans-Serif" font-size="10.00" fill="#000000"> </text>
<polyline fill="none" stroke="#bfbfbf" points="31.1182,-169.5 85.4629,-169.5 "/>
<text text-anchor="middle" x="58.2905" y="-157.5" font-family="Helvetica,sans-Serif" font-size="10.00" fill="#000000"> </text>
</g>
<!-- Node1&#45;&gt;Node0 -->
<g id="edge1" class="edge">
<title>Node1&#45;&gt;Node0</title>
<path fill="none" stroke="#191970" d="M58.2905,-141.172C58.2905,-132.7988 58.2905,-123.728 58.2905,-114.7528"/>
<polygon fill="none" stroke="#191970" points="54.7906,-141.3452 58.2905,-151.3452 61.7906,-141.3453 54.7906,-141.3452"/>
</g>
</g>
</svg>
