<?xml version="1.0" encoding="UTF-8" standalone="no"?>
<!DOCTYPE svg PUBLIC "-//W3C//DTD SVG 1.1//EN"
 "http://www.w3.org/Graphics/SVG/1.1/DTD/svg11.dtd">
<!-- Generated by graphviz version 2.40.1 (20161225.0304)
 -->
<!-- Title: Google_PeopleServiceResource Pages: 1 -->
<svg width="169pt" height="254pt"
 viewBox="0.00 0.00 169.09 254.00" xmlns="http://www.w3.org/2000/svg" xmlns:xlink="http://www.w3.org/1999/xlink">
<g id="graph0" class="graph" transform="scale(1 1) rotate(0) translate(4 250)">
<title>Google_PeopleServiceResource</title>
<polygon fill="#ffffff" stroke="transparent" points="-4,4 -4,-250 165.0879,-250 165.0879,4 -4,4"/>
<!-- Node2 -->
<g id="node1" class="node">
<title>Node2</title>
<polygon fill="#bfbfbf" stroke="#000000" points="0,-.5 0,-124.5 161.0879,-124.5 161.0879,-.5 0,-.5"/>
<text text-anchor="middle" x="80.5439" y="-112.5" font-family="Helvetica,sans-Serif" font-size="10.00" fill="#000000">Google_PeopleServiceResource</text>
<polyline fill="none" stroke="#000000" points="0,-106.5 161.0879,-106.5 "/>
<text text-anchor="middle" x="80.5439" y="-94.5" font-family="Helvetica,sans-Serif" font-size="10.00" fill="#000000"> </text>
<polyline fill="none" stroke="#000000" points="0,-88.5 161.0879,-88.5 "/>
<text text-anchor="start" x="8" y="-76.5" font-family="Helvetica,sans-Serif" font-size="10.00" fill="#000000">+ get()</text>
<text text-anchor="start" x="8" y="-66.5" font-family="Helvetica,sans-Serif" font-size="10.00" fill="#000000">+ listPeople()</text>
<text text-anchor="start" x="8" y="-56.5" font-family="Helvetica,sans-Serif" font-size="10.00" fill="#000000">+ listByActivity()</text>
<text text-anchor="start" x="8" y="-46.5" font-family="Helvetica,sans-Serif" font-size="10.00" fill="#000000">+ listByCircle()</text>
<text text-anchor="start" x="8" y="-36.5" font-family="Helvetica,sans-Serif" font-size="10.00" fill="#000000">+ get()</text>
<text text-anchor="start" x="8" y="-26.5" font-family="Helvetica,sans-Serif" font-size="10.00" fill="#000000">+ listPeople()</text>
<text text-anchor="start" x="8" y="-16.5" font-family="Helvetica,sans-Serif" font-size="10.00" fill="#000000">+ listByActivity()</text>
<text text-anchor="start" x="8" y="-6.5" font-family="Helvetica,sans-Serif" font-size="10.00" fill="#000000">+ search()</text>
</g>
<!-- Node3 -->
<g id="node2" class="node">
<title>Node3</title>
<g id="a_node2"><a xlink:href="class_google___service_resource.html" target="_top" xlink:title="{Google_ServiceResource\n||+ __construct()\l+ __call()\l+ useObjects()\l# stripNull()\l}">
<polygon fill="#ffffff" stroke="#000000" points="15.5688,-161.5 15.5688,-245.5 145.519,-245.5 145.519,-161.5 15.5688,-161.5"/>
<text text-anchor="middle" x="80.5439" y="-233.5" font-family="Helvetica,sans-Serif" font-size="10.00" fill="#000000">Google_ServiceResource</text>
<polyline fill="none" stroke="#000000" points="15.5688,-227.5 145.519,-227.5 "/>
<text text-anchor="middle" x="80.5439" y="-215.5" font-family="Helvetica,sans-Serif" font-size="10.00" fill="#000000"> </text>
<polyline fill="none" stroke="#000000" points="15.5688,-209.5 145.519,-209.5 "/>
<text text-anchor="start" x="23.5688" y="-197.5" font-family="Helvetica,sans-Serif" font-size="10.00" fill="#000000">+ __construct()</text>
<text text-anchor="start" x="23.5688" y="-187.5" font-family="Helvetica,sans-Serif" font-size="10.00" fill="#000000">+ __call()</text>
<text text-anchor="start" x="23.5688" y="-177.5" font-family="Helvetica,sans-Serif" font-size="10.00" fill="#000000">+ useObjects()</text>
<text text-anchor="start" x="23.5688" y="-167.5" font-family="Helvetica,sans-Serif" font-size="10.00" fill="#000000"># stripNull()</text>
</a>
</g>
</g>
<!-- Node3&#45;&gt;Node2 -->
<g id="edge1" class="edge">
<title>Node3&#45;&gt;Node2</title>
<path fill="none" stroke="#191970" d="M73.9921,-150.9426C73.7985,-142.3515 73.7468,-133.3797 73.8369,-124.5851"/>
<polygon fill="none" stroke="#191970" points="70.5013,-151.3044 74.2986,-161.1954 77.4982,-151.0952 70.5013,-151.3044"/>
</g>
<!-- Node3&#45;&gt;Node2 -->
<g id="edge2" class="edge">
<title>Node3&#45;&gt;Node2</title>
<path fill="none" stroke="#191970" d="M87.0958,-150.9426C87.2894,-142.3515 87.3411,-133.3797 87.251,-124.5851"/>
<polygon fill="none" stroke="#191970" points="83.5897,-151.0952 86.7893,-161.1954 90.5866,-151.3044 83.5897,-151.0952"/>
</g>
</g>
</svg>
