<?xml version="1.0" encoding="UTF-8" standalone="no"?>
<!DOCTYPE svg PUBLIC "-//W3C//DTD SVG 1.1//EN"
 "http://www.w3.org/Graphics/SVG/1.1/DTD/svg11.dtd">
<!-- Generated by graphviz version 2.40.1 (20161225.0304)
 -->
<!-- Title: phpmailerException Pages: 1 -->
<svg width="112pt" height="154pt"
 viewBox="0.00 0.00 111.83 154.00" xmlns="http://www.w3.org/2000/svg" xmlns:xlink="http://www.w3.org/1999/xlink">
<g id="graph0" class="graph" transform="scale(1 1) rotate(0) translate(4 150)">
<title>phpmailerException</title>
<polygon fill="#ffffff" stroke="transparent" points="-4,4 -4,-150 107.8271,-150 107.8271,4 -4,4"/>
<!-- Node2 -->
<g id="node1" class="node">
<title>Node2</title>
<polygon fill="#bfbfbf" stroke="#000000" points="0,-.5 0,-54.5 103.8271,-54.5 103.8271,-.5 0,-.5"/>
<text text-anchor="middle" x="51.9136" y="-42.5" font-family="Helvetica,sans-Serif" font-size="10.00" fill="#000000">phpmailerException</text>
<polyline fill="none" stroke="#000000" points="0,-36.5 103.8271,-36.5 "/>
<text text-anchor="middle" x="51.9136" y="-24.5" font-family="Helvetica,sans-Serif" font-size="10.00" fill="#000000"> </text>
<polyline fill="none" stroke="#000000" points="0,-18.5 103.8271,-18.5 "/>
<text text-anchor="start" x="8" y="-6.5" font-family="Helvetica,sans-Serif" font-size="10.00" fill="#000000">+ errorMessage()</text>
</g>
<!-- Node3 -->
<g id="node2" class="node">
<title>Node3</title>
<polygon fill="#ffffff" stroke="#bfbfbf" points="21.9556,-91.5 21.9556,-145.5 81.8716,-145.5 81.8716,-91.5 21.9556,-91.5"/>
<text text-anchor="middle" x="51.9136" y="-133.5" font-family="Helvetica,sans-Serif" font-size="10.00" fill="#000000">Exception</text>
<polyline fill="none" stroke="#bfbfbf" points="21.9556,-127.5 81.8716,-127.5 "/>
<text text-anchor="middle" x="51.9136" y="-115.5" font-family="Helvetica,sans-Serif" font-size="10.00" fill="#000000"> </text>
<polyline fill="none" stroke="#bfbfbf" points="21.9556,-109.5 81.8716,-109.5 "/>
<text text-anchor="middle" x="51.9136" y="-97.5" font-family="Helvetica,sans-Serif" font-size="10.00" fill="#000000"> </text>
</g>
<!-- Node3&#45;&gt;Node2 -->
<g id="edge1" class="edge">
<title>Node3&#45;&gt;Node2</title>
<path fill="none" stroke="#191970" d="M51.9136,-81.12C51.9136,-72.3006 51.9136,-63.0605 51.9136,-54.7837"/>
<polygon fill="none" stroke="#191970" points="48.4137,-81.197 51.9136,-91.197 55.4137,-81.197 48.4137,-81.197"/>
</g>
</g>
</svg>
