<?xml version="1.0" encoding="UTF-8" standalone="no"?>
<!DOCTYPE svg PUBLIC "-//W3C//DTD SVG 1.1//EN"
 "http://www.w3.org/Graphics/SVG/1.1/DTD/svg11.dtd">
<!-- Generated by graphviz version 2.40.1 (20161225.0304)
 -->
<!-- Title: Google_PersonCoverCoverInfo Pages: 1 -->
<svg width="164pt" height="274pt"
 viewBox="0.00 0.00 163.52 274.00" xmlns="http://www.w3.org/2000/svg" xmlns:xlink="http://www.w3.org/1999/xlink">
<g id="graph0" class="graph" transform="scale(1 1) rotate(0) translate(4 270)">
<title>Google_PersonCoverCoverInfo</title>
<polygon fill="#ffffff" stroke="transparent" points="-4,4 -4,-270 159.5215,-270 159.5215,4 -4,4"/>
<!-- Node2 -->
<g id="node1" class="node">
<title>Node2</title>
<polygon fill="#bfbfbf" stroke="#000000" points="0,-.5 0,-134.5 155.5215,-134.5 155.5215,-.5 0,-.5"/>
<text text-anchor="middle" x="77.7607" y="-122.5" font-family="Helvetica,sans-Serif" font-size="10.00" fill="#000000">Google_PersonCoverCoverInfo</text>
<polyline fill="none" stroke="#000000" points="0,-116.5 155.5215,-116.5 "/>
<text text-anchor="start" x="8" y="-104.5" font-family="Helvetica,sans-Serif" font-size="10.00" fill="#000000">+ $leftImageOffset</text>
<text text-anchor="start" x="8" y="-94.5" font-family="Helvetica,sans-Serif" font-size="10.00" fill="#000000">+ $topImageOffset</text>
<polyline fill="none" stroke="#000000" points="0,-88.5 155.5215,-88.5 "/>
<text text-anchor="start" x="8" y="-76.5" font-family="Helvetica,sans-Serif" font-size="10.00" fill="#000000">+ setLeftImageOffset()</text>
<text text-anchor="start" x="8" y="-66.5" font-family="Helvetica,sans-Serif" font-size="10.00" fill="#000000">+ getLeftImageOffset()</text>
<text text-anchor="start" x="8" y="-56.5" font-family="Helvetica,sans-Serif" font-size="10.00" fill="#000000">+ setTopImageOffset()</text>
<text text-anchor="start" x="8" y="-46.5" font-family="Helvetica,sans-Serif" font-size="10.00" fill="#000000">+ getTopImageOffset()</text>
<text text-anchor="start" x="8" y="-36.5" font-family="Helvetica,sans-Serif" font-size="10.00" fill="#000000">+ setLeftImageOffset()</text>
<text text-anchor="start" x="8" y="-26.5" font-family="Helvetica,sans-Serif" font-size="10.00" fill="#000000">+ getLeftImageOffset()</text>
<text text-anchor="start" x="8" y="-16.5" font-family="Helvetica,sans-Serif" font-size="10.00" fill="#000000">+ setTopImageOffset()</text>
<text text-anchor="start" x="8" y="-6.5" font-family="Helvetica,sans-Serif" font-size="10.00" fill="#000000">+ getTopImageOffset()</text>
</g>
<!-- Node3 -->
<g id="node2" class="node">
<title>Node3</title>
<g id="a_node2"><a xlink:href="class_google___model.html" target="_top" xlink:title="{Google_Model\n||+ __construct()\l+ assertIsArray()\l# mapTypes()\l# isAssociativeArray()\l# useObjects()\l}">
<polygon fill="#ffffff" stroke="#000000" points="21.416,-171.5 21.416,-265.5 134.1055,-265.5 134.1055,-171.5 21.416,-171.5"/>
<text text-anchor="middle" x="77.7607" y="-253.5" font-family="Helvetica,sans-Serif" font-size="10.00" fill="#000000">Google_Model</text>
<polyline fill="none" stroke="#000000" points="21.416,-247.5 134.1055,-247.5 "/>
<text text-anchor="middle" x="77.7607" y="-235.5" font-family="Helvetica,sans-Serif" font-size="10.00" fill="#000000"> </text>
<polyline fill="none" stroke="#000000" points="21.416,-229.5 134.1055,-229.5 "/>
<text text-anchor="start" x="29.416" y="-217.5" font-family="Helvetica,sans-Serif" font-size="10.00" fill="#000000">+ __construct()</text>
<text text-anchor="start" x="29.416" y="-207.5" font-family="Helvetica,sans-Serif" font-size="10.00" fill="#000000">+ assertIsArray()</text>
<text text-anchor="start" x="29.416" y="-197.5" font-family="Helvetica,sans-Serif" font-size="10.00" fill="#000000"># mapTypes()</text>
<text text-anchor="start" x="29.416" y="-187.5" font-family="Helvetica,sans-Serif" font-size="10.00" fill="#000000"># isAssociativeArray()</text>
<text text-anchor="start" x="29.416" y="-177.5" font-family="Helvetica,sans-Serif" font-size="10.00" fill="#000000"># useObjects()</text>
</a>
</g>
</g>
<!-- Node3&#45;&gt;Node2 -->
<g id="edge1" class="edge">
<title>Node3&#45;&gt;Node2</title>
<path fill="none" stroke="#191970" d="M71.1815,-160.8599C71.0145,-152.2753 70.97,-143.3638 71.048,-134.605"/>
<polygon fill="none" stroke="#191970" points="67.6898,-161.2303 71.4459,-171.137 74.6874,-161.0502 67.6898,-161.2303"/>
</g>
<!-- Node3&#45;&gt;Node2 -->
<g id="edge2" class="edge">
<title>Node3&#45;&gt;Node2</title>
<path fill="none" stroke="#191970" d="M84.34,-160.8599C84.507,-152.2753 84.5515,-143.3638 84.4735,-134.605"/>
<polygon fill="none" stroke="#191970" points="80.834,-161.0502 84.0756,-171.137 87.8317,-161.2303 80.834,-161.0502"/>
</g>
</g>
</svg>
