<?xml version="1.0" encoding="UTF-8" standalone="no"?>
<!DOCTYPE svg PUBLIC "-//W3C//DTD SVG 1.1//EN"
 "http://www.w3.org/Graphics/SVG/1.1/DTD/svg11.dtd">
<!-- Generated by graphviz version 2.40.1 (20161225.0304)
 -->
<!-- Title: Google_P12Signer Pages: 1 -->
<svg width="109pt" height="174pt"
 viewBox="0.00 0.00 108.51 174.00" xmlns="http://www.w3.org/2000/svg" xmlns:xlink="http://www.w3.org/1999/xlink">
<g id="graph0" class="graph" transform="scale(1 1) rotate(0) translate(4 170)">
<title>Google_P12Signer</title>
<polygon fill="#ffffff" stroke="transparent" points="-4,4 -4,-170 104.5068,-170 104.5068,4 -4,4"/>
<!-- Node0 -->
<g id="node1" class="node">
<title>Node0</title>
<polygon fill="#bfbfbf" stroke="#000000" points="0,-.5 0,-74.5 100.5068,-74.5 100.5068,-.5 0,-.5"/>
<text text-anchor="middle" x="50.2534" y="-62.5" font-family="Helvetica,sans-Serif" font-size="10.00" fill="#000000">Google_P12Signer</text>
<polyline fill="none" stroke="#000000" points="0,-56.5 100.5068,-56.5 "/>
<text text-anchor="middle" x="50.2534" y="-44.5" font-family="Helvetica,sans-Serif" font-size="10.00" fill="#000000"> </text>
<polyline fill="none" stroke="#000000" points="0,-38.5 100.5068,-38.5 "/>
<text text-anchor="start" x="8" y="-26.5" font-family="Helvetica,sans-Serif" font-size="10.00" fill="#000000">+ __construct()</text>
<text text-anchor="start" x="8" y="-16.5" font-family="Helvetica,sans-Serif" font-size="10.00" fill="#000000">+ __destruct()</text>
<text text-anchor="start" x="8" y="-6.5" font-family="Helvetica,sans-Serif" font-size="10.00" fill="#000000">+ sign()</text>
</g>
<!-- Node1 -->
<g id="node2" class="node">
<title>Node1</title>
<g id="a_node2"><a xlink:href="class_google___signer.html" target="_top" xlink:title="{Google_Signer\n||+ sign()\l}">
<polygon fill="#ffffff" stroke="#000000" points="8.8965,-111.5 8.8965,-165.5 91.6104,-165.5 91.6104,-111.5 8.8965,-111.5"/>
<text text-anchor="middle" x="50.2534" y="-153.5" font-family="Helvetica,sans-Serif" font-size="10.00" fill="#000000">Google_Signer</text>
<polyline fill="none" stroke="#000000" points="8.8965,-147.5 91.6104,-147.5 "/>
<text text-anchor="middle" x="50.2534" y="-135.5" font-family="Helvetica,sans-Serif" font-size="10.00" fill="#000000"> </text>
<polyline fill="none" stroke="#000000" points="8.8965,-129.5 91.6104,-129.5 "/>
<text text-anchor="start" x="16.8965" y="-117.5" font-family="Helvetica,sans-Serif" font-size="10.00" fill="#000000">+ sign()</text>
</a>
</g>
</g>
<!-- Node1&#45;&gt;Node0 -->
<g id="edge1" class="edge">
<title>Node1&#45;&gt;Node0</title>
<path fill="none" stroke="#191970" d="M50.2534,-101.1725C50.2534,-92.4692 50.2534,-83.2047 50.2534,-74.515"/>
<polygon fill="none" stroke="#191970" points="46.7535,-101.4338 50.2534,-111.4339 53.7535,-101.4339 46.7535,-101.4338"/>
</g>
</g>
</svg>
