<?xml version="1.0" encoding="UTF-8" standalone="no"?>
<!DOCTYPE svg PUBLIC "-//W3C//DTD SVG 1.1//EN"
 "http://www.w3.org/Graphics/SVG/1.1/DTD/svg11.dtd">
<!-- Generated by graphviz version 2.40.1 (20161225.0304)
 -->
<!-- Title: Google_MemcacheCache Pages: 1 -->
<svg width="140pt" height="204pt"
 viewBox="0.00 0.00 139.62 204.00" xmlns="http://www.w3.org/2000/svg" xmlns:xlink="http://www.w3.org/1999/xlink">
<g id="graph0" class="graph" transform="scale(1 1) rotate(0) translate(4 200)">
<title>Google_MemcacheCache</title>
<polygon fill="#ffffff" stroke="transparent" points="-4,4 -4,-200 135.6201,-200 135.6201,4 -4,4"/>
<!-- Node2 -->
<g id="node1" class="node">
<title>Node2</title>
<polygon fill="#bfbfbf" stroke="#000000" points="0,-.5 0,-84.5 131.6201,-84.5 131.6201,-.5 0,-.5"/>
<text text-anchor="middle" x="65.8101" y="-72.5" font-family="Helvetica,sans-Serif" font-size="10.00" fill="#000000">Google_MemcacheCache</text>
<polyline fill="none" stroke="#000000" points="0,-66.5 131.6201,-66.5 "/>
<text text-anchor="middle" x="65.8101" y="-54.5" font-family="Helvetica,sans-Serif" font-size="10.00" fill="#000000"> </text>
<polyline fill="none" stroke="#000000" points="0,-48.5 131.6201,-48.5 "/>
<text text-anchor="start" x="8" y="-36.5" font-family="Helvetica,sans-Serif" font-size="10.00" fill="#000000">+ __construct()</text>
<text text-anchor="start" x="8" y="-26.5" font-family="Helvetica,sans-Serif" font-size="10.00" fill="#000000">+ get()</text>
<text text-anchor="start" x="8" y="-16.5" font-family="Helvetica,sans-Serif" font-size="10.00" fill="#000000">+ set()</text>
<text text-anchor="start" x="8" y="-6.5" font-family="Helvetica,sans-Serif" font-size="10.00" fill="#000000">+ delete()</text>
</g>
<!-- Node3 -->
<g id="node2" class="node">
<title>Node3</title>
<g id="a_node2"><a xlink:href="class_google___cache.html" target="_top" xlink:title="{Google_Cache\n||+ get()\l+ set()\l+ delete()\l}">
<polygon fill="#ffffff" stroke="#000000" points="24.4531,-121.5 24.4531,-195.5 107.167,-195.5 107.167,-121.5 24.4531,-121.5"/>
<text text-anchor="middle" x="65.8101" y="-183.5" font-family="Helvetica,sans-Serif" font-size="10.00" fill="#000000">Google_Cache</text>
<polyline fill="none" stroke="#000000" points="24.4531,-177.5 107.167,-177.5 "/>
<text text-anchor="middle" x="65.8101" y="-165.5" font-family="Helvetica,sans-Serif" font-size="10.00" fill="#000000"> </text>
<polyline fill="none" stroke="#000000" points="24.4531,-159.5 107.167,-159.5 "/>
<text text-anchor="start" x="32.4531" y="-147.5" font-family="Helvetica,sans-Serif" font-size="10.00" fill="#000000">+ get()</text>
<text text-anchor="start" x="32.4531" y="-137.5" font-family="Helvetica,sans-Serif" font-size="10.00" fill="#000000">+ set()</text>
<text text-anchor="start" x="32.4531" y="-127.5" font-family="Helvetica,sans-Serif" font-size="10.00" fill="#000000">+ delete()</text>
</a>
</g>
</g>
<!-- Node3&#45;&gt;Node2 -->
<g id="edge1" class="edge">
<title>Node3&#45;&gt;Node2</title>
<path fill="none" stroke="#191970" d="M65.8101,-111.3716C65.8101,-102.5842 65.8101,-93.4515 65.8101,-84.8197"/>
<polygon fill="none" stroke="#191970" points="62.3102,-111.4779 65.8101,-121.4779 69.3102,-111.478 62.3102,-111.4779"/>
</g>
</g>
</svg>
