<?xml version="1.0" encoding="UTF-8" standalone="no"?>
<!DOCTYPE svg PUBLIC "-//W3C//DTD SVG 1.1//EN"
 "http://www.w3.org/Graphics/SVG/1.1/DTD/svg11.dtd">
<!-- Generated by graphviz version 2.40.1 (20161225.0304)
 -->
<!-- Title: Google_Exception Pages: 1 -->
<svg width="546pt" height="255pt"
 viewBox="0.00 0.00 545.68 255.00" xmlns="http://www.w3.org/2000/svg" xmlns:xlink="http://www.w3.org/1999/xlink">
<g id="graph0" class="graph" transform="scale(1 1) rotate(0) translate(4 251)">
<title>Google_Exception</title>
<polygon fill="#ffffff" stroke="transparent" points="-4,4 -4,-251 541.6816,-251 541.6816,4 -4,4"/>
<!-- Node0 -->
<g id="node1" class="node">
<title>Node0</title>
<polygon fill="#bfbfbf" stroke="#000000" points="217.2856,-101.5 217.2856,-155.5 315.0093,-155.5 315.0093,-101.5 217.2856,-101.5"/>
<text text-anchor="middle" x="266.1475" y="-143.5" font-family="Helvetica,sans-Serif" font-size="10.00" fill="#000000">Google_Exception</text>
<polyline fill="none" stroke="#000000" points="217.2856,-137.5 315.0093,-137.5 "/>
<text text-anchor="middle" x="266.1475" y="-125.5" font-family="Helvetica,sans-Serif" font-size="10.00" fill="#000000"> </text>
<polyline fill="none" stroke="#000000" points="217.2856,-119.5 315.0093,-119.5 "/>
<text text-anchor="middle" x="266.1475" y="-107.5" font-family="Helvetica,sans-Serif" font-size="10.00" fill="#000000"> </text>
</g>
<!-- Node2 -->
<g id="node3" class="node">
<title>Node2</title>
<g id="a_node3"><a xlink:href="class_google___auth_exception.html" target="_top" xlink:title="{Google_AuthException\n||}">
<polygon fill="#ffffff" stroke="#000000" points="0,-5.5 0,-59.5 118.2949,-59.5 118.2949,-5.5 0,-5.5"/>
<text text-anchor="middle" x="59.1475" y="-47.5" font-family="Helvetica,sans-Serif" font-size="10.00" fill="#000000">Google_AuthException</text>
<polyline fill="none" stroke="#000000" points="0,-41.5 118.2949,-41.5 "/>
<text text-anchor="middle" x="59.1475" y="-29.5" font-family="Helvetica,sans-Serif" font-size="10.00" fill="#000000"> </text>
<polyline fill="none" stroke="#000000" points="0,-23.5 118.2949,-23.5 "/>
<text text-anchor="middle" x="59.1475" y="-11.5" font-family="Helvetica,sans-Serif" font-size="10.00" fill="#000000"> </text>
</a>
</g>
</g>
<!-- Node0&#45;&gt;Node2 -->
<g id="edge2" class="edge">
<title>Node0&#45;&gt;Node2</title>
<path fill="none" stroke="#191970" d="M207.8506,-102.1392C182.9433,-90.8064 153.5753,-77.3509 127.1475,-65 123.3542,-63.2272 119.4467,-61.3898 115.5129,-59.5317"/>
<polygon fill="none" stroke="#191970" points="206.6107,-105.4202 217.1627,-106.3719 209.5073,-99.0476 206.6107,-105.4202"/>
</g>
<!-- Node3 -->
<g id="node4" class="node">
<title>Node3</title>
<g id="a_node4"><a xlink:href="class_google___cache_exception.html" target="_top" xlink:title="{Google_CacheException\n||}">
<polygon fill="#ffffff" stroke="#000000" points="135.8325,-5.5 135.8325,-59.5 262.4624,-59.5 262.4624,-5.5 135.8325,-5.5"/>
<text text-anchor="middle" x="199.1475" y="-47.5" font-family="Helvetica,sans-Serif" font-size="10.00" fill="#000000">Google_CacheException</text>
<polyline fill="none" stroke="#000000" points="135.8325,-41.5 262.4624,-41.5 "/>
<text text-anchor="middle" x="199.1475" y="-29.5" font-family="Helvetica,sans-Serif" font-size="10.00" fill="#000000"> </text>
<polyline fill="none" stroke="#000000" points="135.8325,-23.5 262.4624,-23.5 "/>
<text text-anchor="middle" x="199.1475" y="-11.5" font-family="Helvetica,sans-Serif" font-size="10.00" fill="#000000"> </text>
</a>
</g>
</g>
<!-- Node0&#45;&gt;Node3 -->
<g id="edge3" class="edge">
<title>Node0&#45;&gt;Node3</title>
<path fill="none" stroke="#191970" d="M241.1979,-92.7514C233.5955,-81.8584 225.3635,-70.0632 218.2153,-59.8211"/>
<polygon fill="none" stroke="#191970" points="238.5338,-95.0498 247.1272,-101.247 244.2741,-91.0436 238.5338,-95.0498"/>
</g>
<!-- Node4 -->
<g id="node5" class="node">
<title>Node4</title>
<g id="a_node5"><a xlink:href="class_google___i_o_exception.html" target="_top" xlink:title="{Google_IOException\n||}">
<polygon fill="#ffffff" stroke="#000000" points="280.0073,-5.5 280.0073,-59.5 388.2876,-59.5 388.2876,-5.5 280.0073,-5.5"/>
<text text-anchor="middle" x="334.1475" y="-47.5" font-family="Helvetica,sans-Serif" font-size="10.00" fill="#000000">Google_IOException</text>
<polyline fill="none" stroke="#000000" points="280.0073,-41.5 388.2876,-41.5 "/>
<text text-anchor="middle" x="334.1475" y="-29.5" font-family="Helvetica,sans-Serif" font-size="10.00" fill="#000000"> </text>
<polyline fill="none" stroke="#000000" points="280.0073,-23.5 388.2876,-23.5 "/>
<text text-anchor="middle" x="334.1475" y="-11.5" font-family="Helvetica,sans-Serif" font-size="10.00" fill="#000000"> </text>
</a>
</g>
</g>
<!-- Node0&#45;&gt;Node4 -->
<g id="edge4" class="edge">
<title>Node0&#45;&gt;Node4</title>
<path fill="none" stroke="#191970" d="M291.2404,-93.0747C299.0197,-82.0921 307.4683,-70.1646 314.795,-59.8211"/>
<polygon fill="none" stroke="#191970" points="288.3758,-91.0637 285.4516,-101.247 294.0879,-95.1099 288.3758,-91.0637"/>
</g>
<!-- Node5 -->
<g id="node6" class="node">
<title>Node5</title>
<g id="a_node6"><a xlink:href="class_google___service_exception.html" target="_top" xlink:title="{Google_ServiceException\n|# $errors\l|+ __construct()\l+ getErrors()\l}">
<polygon fill="#ffffff" stroke="#000000" points="406.6133,-.5 406.6133,-64.5 537.6816,-64.5 537.6816,-.5 406.6133,-.5"/>
<text text-anchor="middle" x="472.1475" y="-52.5" font-family="Helvetica,sans-Serif" font-size="10.00" fill="#000000">Google_ServiceException</text>
<polyline fill="none" stroke="#000000" points="406.6133,-46.5 537.6816,-46.5 "/>
<text text-anchor="start" x="414.6133" y="-34.5" font-family="Helvetica,sans-Serif" font-size="10.00" fill="#000000"># $errors</text>
<polyline fill="none" stroke="#000000" points="406.6133,-28.5 537.6816,-28.5 "/>
<text text-anchor="start" x="414.6133" y="-16.5" font-family="Helvetica,sans-Serif" font-size="10.00" fill="#000000">+ __construct()</text>
<text text-anchor="start" x="414.6133" y="-6.5" font-family="Helvetica,sans-Serif" font-size="10.00" fill="#000000">+ getErrors()</text>
</a>
</g>
</g>
<!-- Node0&#45;&gt;Node5 -->
<g id="edge5" class="edge">
<title>Node0&#45;&gt;Node5</title>
<path fill="none" stroke="#191970" d="M324.4063,-101.3502C349.9192,-89.4607 379.9779,-75.4528 406.2989,-63.1867"/>
<polygon fill="none" stroke="#191970" points="322.8135,-98.2311 315.2279,-105.6276 325.7704,-104.5759 322.8135,-98.2311"/>
</g>
<!-- Node1 -->
<g id="node2" class="node">
<title>Node1</title>
<polygon fill="#ffffff" stroke="#bfbfbf" points="236.1895,-192.5 236.1895,-246.5 296.1055,-246.5 296.1055,-192.5 236.1895,-192.5"/>
<text text-anchor="middle" x="266.1475" y="-234.5" font-family="Helvetica,sans-Serif" font-size="10.00" fill="#000000">Exception</text>
<polyline fill="none" stroke="#bfbfbf" points="236.1895,-228.5 296.1055,-228.5 "/>
<text text-anchor="middle" x="266.1475" y="-216.5" font-family="Helvetica,sans-Serif" font-size="10.00" fill="#000000"> </text>
<polyline fill="none" stroke="#bfbfbf" points="236.1895,-210.5 296.1055,-210.5 "/>
<text text-anchor="middle" x="266.1475" y="-198.5" font-family="Helvetica,sans-Serif" font-size="10.00" fill="#000000"> </text>
</g>
<!-- Node1&#45;&gt;Node0 -->
<g id="edge1" class="edge">
<title>Node1&#45;&gt;Node0</title>
<path fill="none" stroke="#191970" d="M266.1475,-182.12C266.1475,-173.3006 266.1475,-164.0605 266.1475,-155.7837"/>
<polygon fill="none" stroke="#191970" points="262.6476,-182.197 266.1475,-192.197 269.6476,-182.197 262.6476,-182.197"/>
</g>
</g>
</svg>
