<?xml version="1.0" encoding="UTF-8" standalone="no"?>
<!DOCTYPE svg PUBLIC "-//W3C//DTD SVG 1.1//EN"
 "http://www.w3.org/Graphics/SVG/1.1/DTD/svg11.dtd">
<!-- Generated by graphviz version 2.40.1 (20161225.0304)
 -->
<!-- Title: Swift_Encoder_Base64Encoder Pages: 1 -->
<svg width="165pt" height="255pt"
 viewBox="0.00 0.00 165.20 255.00" xmlns="http://www.w3.org/2000/svg" xmlns:xlink="http://www.w3.org/1999/xlink">
<g id="graph0" class="graph" transform="scale(1 1) rotate(0) translate(4 251)">
<title>Swift_Encoder_Base64Encoder</title>
<polygon fill="#ffffff" stroke="transparent" points="-4,4 -4,-251 161.2012,-251 161.2012,4 -4,4"/>
<!-- Node5 -->
<g id="node1" class="node">
<title>Node5</title>
<polygon fill="#bfbfbf" stroke="#000000" points="0,-.5 0,-64.5 157.2012,-64.5 157.2012,-.5 0,-.5"/>
<text text-anchor="middle" x="78.6006" y="-52.5" font-family="Helvetica,sans-Serif" font-size="10.00" fill="#000000">Swift_Encoder_Base64Encoder</text>
<polyline fill="none" stroke="#000000" points="0,-46.5 157.2012,-46.5 "/>
<text text-anchor="middle" x="78.6006" y="-34.5" font-family="Helvetica,sans-Serif" font-size="10.00" fill="#000000"> </text>
<polyline fill="none" stroke="#000000" points="0,-28.5 157.2012,-28.5 "/>
<text text-anchor="start" x="8" y="-16.5" font-family="Helvetica,sans-Serif" font-size="10.00" fill="#000000">+ encodeString()</text>
<text text-anchor="start" x="8" y="-6.5" font-family="Helvetica,sans-Serif" font-size="10.00" fill="#000000">+ charsetChanged()</text>
</g>
<!-- Node6 -->
<g id="node2" class="node">
<title>Node6</title>
<g id="a_node2"><a xlink:href="interface_swift___encoder.html" target="_top" xlink:title="{Swift_Encoder\n||+ encodeString()\l}">
<polygon fill="#ffffff" stroke="#000000" points="33.4961,-101.5 33.4961,-155.5 123.7051,-155.5 123.7051,-101.5 33.4961,-101.5"/>
<text text-anchor="middle" x="78.6006" y="-143.5" font-family="Helvetica,sans-Serif" font-size="10.00" fill="#000000">Swift_Encoder</text>
<polyline fill="none" stroke="#000000" points="33.4961,-137.5 123.7051,-137.5 "/>
<text text-anchor="middle" x="78.6006" y="-125.5" font-family="Helvetica,sans-Serif" font-size="10.00" fill="#000000"> </text>
<polyline fill="none" stroke="#000000" points="33.4961,-119.5 123.7051,-119.5 "/>
<text text-anchor="start" x="41.4961" y="-107.5" font-family="Helvetica,sans-Serif" font-size="10.00" fill="#000000">+ encodeString()</text>
</a>
</g>
</g>
<!-- Node6&#45;&gt;Node5 -->
<g id="edge1" class="edge">
<title>Node6&#45;&gt;Node5</title>
<path fill="none" stroke="#191970" d="M78.6006,-91.2276C78.6006,-82.4295 78.6006,-73.1248 78.6006,-64.5792"/>
<polygon fill="none" stroke="#191970" points="75.1007,-91.247 78.6006,-101.247 82.1007,-91.2471 75.1007,-91.247"/>
</g>
<!-- Node7 -->
<g id="node3" class="node">
<title>Node7</title>
<g id="a_node3"><a xlink:href="interface_swift___mime___charset_observer.html" target="_top" xlink:title="{Swift_Mime_CharsetObserver\n||+ charsetChanged()\l}">
<polygon fill="#ffffff" stroke="#000000" points="3.9136,-192.5 3.9136,-246.5 153.2876,-246.5 153.2876,-192.5 3.9136,-192.5"/>
<text text-anchor="middle" x="78.6006" y="-234.5" font-family="Helvetica,sans-Serif" font-size="10.00" fill="#000000">Swift_Mime_CharsetObserver</text>
<polyline fill="none" stroke="#000000" points="3.9136,-228.5 153.2876,-228.5 "/>
<text text-anchor="middle" x="78.6006" y="-216.5" font-family="Helvetica,sans-Serif" font-size="10.00" fill="#000000"> </text>
<polyline fill="none" stroke="#000000" points="3.9136,-210.5 153.2876,-210.5 "/>
<text text-anchor="start" x="11.9136" y="-198.5" font-family="Helvetica,sans-Serif" font-size="10.00" fill="#000000">+ charsetChanged()</text>
</a>
</g>
</g>
<!-- Node7&#45;&gt;Node6 -->
<g id="edge2" class="edge">
<title>Node7&#45;&gt;Node6</title>
<path fill="none" stroke="#191970" d="M78.6006,-182.12C78.6006,-173.3006 78.6006,-164.0605 78.6006,-155.7837"/>
<polygon fill="none" stroke="#191970" points="75.1007,-182.197 78.6006,-192.197 82.1007,-182.197 75.1007,-182.197"/>
</g>
</g>
</svg>
