<?xml version="1.0" encoding="UTF-8" standalone="no"?>
<!DOCTYPE svg PUBLIC "-//W3C//DTD SVG 1.1//EN"
 "http://www.w3.org/Graphics/SVG/1.1/DTD/svg11.dtd">
<!-- Generated by graphviz version 2.40.1 (20161225.0304)
 -->
<!-- Title: Google_ProjectsServiceResource Pages: 1 -->
<svg width="174pt" height="204pt"
 viewBox="0.00 0.00 174.07 204.00" xmlns="http://www.w3.org/2000/svg" xmlns:xlink="http://www.w3.org/1999/xlink">
<g id="graph0" class="graph" transform="scale(1 1) rotate(0) translate(4 200)">
<title>Google_ProjectsServiceResource</title>
<polygon fill="#ffffff" stroke="transparent" points="-4,4 -4,-200 170.0732,-200 170.0732,4 -4,4"/>
<!-- Node0 -->
<g id="node1" class="node">
<title>Node0</title>
<polygon fill="#bfbfbf" stroke="#000000" points="0,-.5 0,-74.5 166.0732,-74.5 166.0732,-.5 0,-.5"/>
<text text-anchor="middle" x="83.0366" y="-62.5" font-family="Helvetica,sans-Serif" font-size="10.00" fill="#000000">Google_ProjectsServiceResource</text>
<polyline fill="none" stroke="#000000" points="0,-56.5 166.0732,-56.5 "/>
<text text-anchor="middle" x="83.0366" y="-44.5" font-family="Helvetica,sans-Serif" font-size="10.00" fill="#000000"> </text>
<polyline fill="none" stroke="#000000" points="0,-38.5 166.0732,-38.5 "/>
<text text-anchor="start" x="8" y="-26.5" font-family="Helvetica,sans-Serif" font-size="10.00" fill="#000000">+ listProjects()</text>
<text text-anchor="start" x="8" y="-16.5" font-family="Helvetica,sans-Serif" font-size="10.00" fill="#000000">+ get()</text>
<text text-anchor="start" x="8" y="-6.5" font-family="Helvetica,sans-Serif" font-size="10.00" fill="#000000">+ setCommonInstanceMetadata()</text>
</g>
<!-- Node1 -->
<g id="node2" class="node">
<title>Node1</title>
<g id="a_node2"><a xlink:href="class_google___service_resource.html" target="_top" xlink:title="{Google_ServiceResource\n||+ __construct()\l+ __call()\l+ useObjects()\l# stripNull()\l}">
<polygon fill="#ffffff" stroke="#000000" points="18.0615,-111.5 18.0615,-195.5 148.0117,-195.5 148.0117,-111.5 18.0615,-111.5"/>
<text text-anchor="middle" x="83.0366" y="-183.5" font-family="Helvetica,sans-Serif" font-size="10.00" fill="#000000">Google_ServiceResource</text>
<polyline fill="none" stroke="#000000" points="18.0615,-177.5 148.0117,-177.5 "/>
<text text-anchor="middle" x="83.0366" y="-165.5" font-family="Helvetica,sans-Serif" font-size="10.00" fill="#000000"> </text>
<polyline fill="none" stroke="#000000" points="18.0615,-159.5 148.0117,-159.5 "/>
<text text-anchor="start" x="26.0615" y="-147.5" font-family="Helvetica,sans-Serif" font-size="10.00" fill="#000000">+ __construct()</text>
<text text-anchor="start" x="26.0615" y="-137.5" font-family="Helvetica,sans-Serif" font-size="10.00" fill="#000000">+ __call()</text>
<text text-anchor="start" x="26.0615" y="-127.5" font-family="Helvetica,sans-Serif" font-size="10.00" fill="#000000">+ useObjects()</text>
<text text-anchor="start" x="26.0615" y="-117.5" font-family="Helvetica,sans-Serif" font-size="10.00" fill="#000000"># stripNull()</text>
</a>
</g>
</g>
<!-- Node1&#45;&gt;Node0 -->
<g id="edge1" class="edge">
<title>Node1&#45;&gt;Node0</title>
<path fill="none" stroke="#191970" d="M76.3142,-101.0572C76.2262,-92.2275 76.3485,-83.2244 76.6811,-74.8766"/>
<polygon fill="none" stroke="#191970" points="72.8195,-101.3635 76.5141,-111.2932 79.8181,-101.2267 72.8195,-101.3635"/>
</g>
<!-- Node1&#45;&gt;Node0 -->
<g id="edge2" class="edge">
<title>Node1&#45;&gt;Node0</title>
<path fill="none" stroke="#191970" d="M89.759,-101.0572C89.847,-92.2275 89.7247,-83.2244 89.3921,-74.8766"/>
<polygon fill="none" stroke="#191970" points="86.2551,-101.2267 89.5591,-111.2932 93.2538,-101.3635 86.2551,-101.2267"/>
</g>
</g>
</svg>
