<?xml version="1.0" encoding="UTF-8" standalone="no"?>
<!DOCTYPE svg PUBLIC "-//W3C//DTD SVG 1.1//EN"
 "http://www.w3.org/Graphics/SVG/1.1/DTD/svg11.dtd">
<!-- Generated by graphviz version 2.40.1 (20161225.0304)
 -->
<!-- Title: Google_DataGaServiceResource Pages: 1 -->
<svg width="172pt" height="184pt"
 viewBox="0.00 0.00 172.41 184.00" xmlns="http://www.w3.org/2000/svg" xmlns:xlink="http://www.w3.org/1999/xlink">
<g id="graph0" class="graph" transform="scale(1 1) rotate(0) translate(4 180)">
<title>Google_DataGaServiceResource</title>
<polygon fill="#ffffff" stroke="transparent" points="-4,4 -4,-180 168.4131,-180 168.4131,4 -4,4"/>
<!-- Node0 -->
<g id="node1" class="node">
<title>Node0</title>
<polygon fill="#bfbfbf" stroke="#000000" points="0,-.5 0,-54.5 164.4131,-54.5 164.4131,-.5 0,-.5"/>
<text text-anchor="middle" x="82.2065" y="-42.5" font-family="Helvetica,sans-Serif" font-size="10.00" fill="#000000">Google_DataGaServiceResource</text>
<polyline fill="none" stroke="#000000" points="0,-36.5 164.4131,-36.5 "/>
<text text-anchor="middle" x="82.2065" y="-24.5" font-family="Helvetica,sans-Serif" font-size="10.00" fill="#000000"> </text>
<polyline fill="none" stroke="#000000" points="0,-18.5 164.4131,-18.5 "/>
<text text-anchor="start" x="8" y="-6.5" font-family="Helvetica,sans-Serif" font-size="10.00" fill="#000000">+ get()</text>
</g>
<!-- Node1 -->
<g id="node2" class="node">
<title>Node1</title>
<g id="a_node2"><a xlink:href="class_google___service_resource.html" target="_top" xlink:title="{Google_ServiceResource\n||+ __construct()\l+ __call()\l+ useObjects()\l# stripNull()\l}">
<polygon fill="#ffffff" stroke="#000000" points="17.2314,-91.5 17.2314,-175.5 147.1816,-175.5 147.1816,-91.5 17.2314,-91.5"/>
<text text-anchor="middle" x="82.2065" y="-163.5" font-family="Helvetica,sans-Serif" font-size="10.00" fill="#000000">Google_ServiceResource</text>
<polyline fill="none" stroke="#000000" points="17.2314,-157.5 147.1816,-157.5 "/>
<text text-anchor="middle" x="82.2065" y="-145.5" font-family="Helvetica,sans-Serif" font-size="10.00" fill="#000000"> </text>
<polyline fill="none" stroke="#000000" points="17.2314,-139.5 147.1816,-139.5 "/>
<text text-anchor="start" x="25.2314" y="-127.5" font-family="Helvetica,sans-Serif" font-size="10.00" fill="#000000">+ __construct()</text>
<text text-anchor="start" x="25.2314" y="-117.5" font-family="Helvetica,sans-Serif" font-size="10.00" fill="#000000">+ __call()</text>
<text text-anchor="start" x="25.2314" y="-107.5" font-family="Helvetica,sans-Serif" font-size="10.00" fill="#000000">+ useObjects()</text>
<text text-anchor="start" x="25.2314" y="-97.5" font-family="Helvetica,sans-Serif" font-size="10.00" fill="#000000"># stripNull()</text>
</a>
</g>
</g>
<!-- Node1&#45;&gt;Node0 -->
<g id="edge1" class="edge">
<title>Node1&#45;&gt;Node0</title>
<path fill="none" stroke="#191970" d="M82.2065,-81.041C82.2065,-71.8936 82.2065,-62.7248 82.2065,-54.6245"/>
<polygon fill="none" stroke="#191970" points="78.7066,-81.3014 82.2065,-91.3014 85.7066,-81.3015 78.7066,-81.3014"/>
</g>
</g>
</svg>
