<?xml version="1.0" encoding="UTF-8" standalone="no"?>
<!DOCTYPE svg PUBLIC "-//W3C//DTD SVG 1.1//EN"
 "http://www.w3.org/Graphics/SVG/1.1/DTD/svg11.dtd">
<!-- Generated by graphviz version 2.40.1 (20161225.0304)
 -->
<!-- Title: Google_PlaceAddress Pages: 1 -->
<svg width="124pt" height="224pt"
 viewBox="0.00 0.00 123.51 224.00" xmlns="http://www.w3.org/2000/svg" xmlns:xlink="http://www.w3.org/1999/xlink">
<g id="graph0" class="graph" transform="scale(1 1) rotate(0) translate(4 220)">
<title>Google_PlaceAddress</title>
<polygon fill="#ffffff" stroke="transparent" points="-4,4 -4,-220 119.5068,-220 119.5068,4 -4,4"/>
<!-- Node2 -->
<g id="node1" class="node">
<title>Node2</title>
<polygon fill="#bfbfbf" stroke="#000000" points="0,-.5 0,-84.5 115.5068,-84.5 115.5068,-.5 0,-.5"/>
<text text-anchor="middle" x="57.7534" y="-72.5" font-family="Helvetica,sans-Serif" font-size="10.00" fill="#000000">Google_PlaceAddress</text>
<polyline fill="none" stroke="#000000" points="0,-66.5 115.5068,-66.5 "/>
<text text-anchor="start" x="8" y="-54.5" font-family="Helvetica,sans-Serif" font-size="10.00" fill="#000000">+ $formatted</text>
<polyline fill="none" stroke="#000000" points="0,-48.5 115.5068,-48.5 "/>
<text text-anchor="start" x="8" y="-36.5" font-family="Helvetica,sans-Serif" font-size="10.00" fill="#000000">+ setFormatted()</text>
<text text-anchor="start" x="8" y="-26.5" font-family="Helvetica,sans-Serif" font-size="10.00" fill="#000000">+ getFormatted()</text>
<text text-anchor="start" x="8" y="-16.5" font-family="Helvetica,sans-Serif" font-size="10.00" fill="#000000">+ setFormatted()</text>
<text text-anchor="start" x="8" y="-6.5" font-family="Helvetica,sans-Serif" font-size="10.00" fill="#000000">+ getFormatted()</text>
</g>
<!-- Node3 -->
<g id="node2" class="node">
<title>Node3</title>
<g id="a_node2"><a xlink:href="class_google___model.html" target="_top" xlink:title="{Google_Model\n||+ __construct()\l+ assertIsArray()\l# mapTypes()\l# isAssociativeArray()\l# useObjects()\l}">
<polygon fill="#ffffff" stroke="#000000" points="1.4087,-121.5 1.4087,-215.5 114.0981,-215.5 114.0981,-121.5 1.4087,-121.5"/>
<text text-anchor="middle" x="57.7534" y="-203.5" font-family="Helvetica,sans-Serif" font-size="10.00" fill="#000000">Google_Model</text>
<polyline fill="none" stroke="#000000" points="1.4087,-197.5 114.0981,-197.5 "/>
<text text-anchor="middle" x="57.7534" y="-185.5" font-family="Helvetica,sans-Serif" font-size="10.00" fill="#000000"> </text>
<polyline fill="none" stroke="#000000" points="1.4087,-179.5 114.0981,-179.5 "/>
<text text-anchor="start" x="9.4087" y="-167.5" font-family="Helvetica,sans-Serif" font-size="10.00" fill="#000000">+ __construct()</text>
<text text-anchor="start" x="9.4087" y="-157.5" font-family="Helvetica,sans-Serif" font-size="10.00" fill="#000000">+ assertIsArray()</text>
<text text-anchor="start" x="9.4087" y="-147.5" font-family="Helvetica,sans-Serif" font-size="10.00" fill="#000000"># mapTypes()</text>
<text text-anchor="start" x="9.4087" y="-137.5" font-family="Helvetica,sans-Serif" font-size="10.00" fill="#000000"># isAssociativeArray()</text>
<text text-anchor="start" x="9.4087" y="-127.5" font-family="Helvetica,sans-Serif" font-size="10.00" fill="#000000"># useObjects()</text>
</a>
</g>
</g>
<!-- Node3&#45;&gt;Node2 -->
<g id="edge1" class="edge">
<title>Node3&#45;&gt;Node2</title>
<path fill="none" stroke="#191970" d="M51.0258,-110.9387C50.9527,-102.0848 51.0585,-93.0866 51.3433,-84.6505"/>
<polygon fill="none" stroke="#191970" points="47.5309,-111.2823 51.1939,-121.2238 54.5299,-111.1679 47.5309,-111.2823"/>
</g>
<!-- Node3&#45;&gt;Node2 -->
<g id="edge2" class="edge">
<title>Node3&#45;&gt;Node2</title>
<path fill="none" stroke="#191970" d="M64.481,-110.9387C64.5541,-102.0848 64.4483,-93.0866 64.1635,-84.6505"/>
<polygon fill="none" stroke="#191970" points="60.9769,-111.1679 64.313,-121.2238 67.976,-111.2823 60.9769,-111.1679"/>
</g>
</g>
</svg>
