<?xml version="1.0" encoding="UTF-8" standalone="no"?>
<!DOCTYPE svg PUBLIC "-//W3C//DTD SVG 1.1//EN"
 "http://www.w3.org/Graphics/SVG/1.1/DTD/svg11.dtd">
<!-- Generated by graphviz version 2.40.1 (20161225.0304)
 -->
<!-- Title: CommentController Pages: 1 -->
<svg width="177pt" height="425pt"
 viewBox="0.00 0.00 176.54 425.00" xmlns="http://www.w3.org/2000/svg" xmlns:xlink="http://www.w3.org/1999/xlink">
<g id="graph0" class="graph" transform="scale(1 1) rotate(0) translate(4 421)">
<title>CommentController</title>
<polygon fill="#ffffff" stroke="transparent" points="-4,4 -4,-421 172.5439,-421 172.5439,4 -4,4"/>
<!-- Node3 -->
<g id="node1" class="node">
<title>Node3</title>
<polygon fill="#bfbfbf" stroke="#000000" points="23.6133,-.5 23.6133,-154.5 144.9307,-154.5 144.9307,-.5 23.6133,-.5"/>
<text text-anchor="middle" x="84.272" y="-142.5" font-family="Helvetica,sans-Serif" font-size="10.00" fill="#000000">CommentController</text>
<polyline fill="none" stroke="#000000" points="23.6133,-136.5 144.9307,-136.5 "/>
<text text-anchor="start" x="31.6133" y="-124.5" font-family="Helvetica,sans-Serif" font-size="10.00" fill="#000000">+ $defaultAction</text>
<text text-anchor="start" x="31.6133" y="-114.5" font-family="Helvetica,sans-Serif" font-size="10.00" fill="#000000">+ $layout</text>
<polyline fill="none" stroke="#000000" points="23.6133,-108.5 144.9307,-108.5 "/>
<text text-anchor="start" x="31.6133" y="-96.5" font-family="Helvetica,sans-Serif" font-size="10.00" fill="#000000">+ filters()</text>
<text text-anchor="start" x="31.6133" y="-86.5" font-family="Helvetica,sans-Serif" font-size="10.00" fill="#000000">+ actions()</text>
<text text-anchor="start" x="31.6133" y="-76.5" font-family="Helvetica,sans-Serif" font-size="10.00" fill="#000000">+ accessRules()</text>
<text text-anchor="start" x="31.6133" y="-66.5" font-family="Helvetica,sans-Serif" font-size="10.00" fill="#000000">+ actionDelete()</text>
<text text-anchor="start" x="31.6133" y="-56.5" font-family="Helvetica,sans-Serif" font-size="10.00" fill="#000000">+ actionApprove()</text>
<text text-anchor="start" x="31.6133" y="-46.5" font-family="Helvetica,sans-Serif" font-size="10.00" fill="#000000">+ actionDisapprove()</text>
<text text-anchor="start" x="31.6133" y="-36.5" font-family="Helvetica,sans-Serif" font-size="10.00" fill="#000000">+ actionManage()</text>
<text text-anchor="start" x="31.6133" y="-26.5" font-family="Helvetica,sans-Serif" font-size="10.00" fill="#000000">+ actionUpdate()</text>
<text text-anchor="start" x="31.6133" y="-16.5" font-family="Helvetica,sans-Serif" font-size="10.00" fill="#000000">+ actionPostComment()</text>
<text text-anchor="start" x="31.6133" y="-6.5" font-family="Helvetica,sans-Serif" font-size="10.00" fill="#000000">+ loadModel()</text>
</g>
<!-- Node4 -->
<g id="node2" class="node">
<title>Node4</title>
<g id="a_node2"><a xlink:href="class_controller.html" target="_top" xlink:title="{Controller\n|+ $layout\l+ $title\l+ $menu\l+ $breadcrumbs\l+ $_permissionControl\l|+ getUser()\l+ filterUserGroupsAccessControl()\l+ getMapkey()\l+ filterUserGroupsAccessControl()\l# beforeAction()\l}">
<polygon fill="#ffffff" stroke="#000000" points="0,-191.5 0,-325.5 168.5439,-325.5 168.5439,-191.5 0,-191.5"/>
<text text-anchor="middle" x="84.272" y="-313.5" font-family="Helvetica,sans-Serif" font-size="10.00" fill="#000000">Controller</text>
<polyline fill="none" stroke="#000000" points="0,-307.5 168.5439,-307.5 "/>
<text text-anchor="start" x="8" y="-295.5" font-family="Helvetica,sans-Serif" font-size="10.00" fill="#000000">+ $layout</text>
<text text-anchor="start" x="8" y="-285.5" font-family="Helvetica,sans-Serif" font-size="10.00" fill="#000000">+ $title</text>
<text text-anchor="start" x="8" y="-275.5" font-family="Helvetica,sans-Serif" font-size="10.00" fill="#000000">+ $menu</text>
<text text-anchor="start" x="8" y="-265.5" font-family="Helvetica,sans-Serif" font-size="10.00" fill="#000000">+ $breadcrumbs</text>
<text text-anchor="start" x="8" y="-255.5" font-family="Helvetica,sans-Serif" font-size="10.00" fill="#000000">+ $_permissionControl</text>
<polyline fill="none" stroke="#000000" points="0,-249.5 168.5439,-249.5 "/>
<text text-anchor="start" x="8" y="-237.5" font-family="Helvetica,sans-Serif" font-size="10.00" fill="#000000">+ getUser()</text>
<text text-anchor="start" x="8" y="-227.5" font-family="Helvetica,sans-Serif" font-size="10.00" fill="#000000">+ filterUserGroupsAccessControl()</text>
<text text-anchor="start" x="8" y="-217.5" font-family="Helvetica,sans-Serif" font-size="10.00" fill="#000000">+ getMapkey()</text>
<text text-anchor="start" x="8" y="-207.5" font-family="Helvetica,sans-Serif" font-size="10.00" fill="#000000">+ filterUserGroupsAccessControl()</text>
<text text-anchor="start" x="8" y="-197.5" font-family="Helvetica,sans-Serif" font-size="10.00" fill="#000000"># beforeAction()</text>
</a>
</g>
</g>
<!-- Node4&#45;&gt;Node3 -->
<g id="edge1" class="edge">
<title>Node4&#45;&gt;Node3</title>
<path fill="none" stroke="#191970" d="M84.272,-181.1394C84.272,-172.3499 84.272,-163.3915 84.272,-154.6053"/>
<polygon fill="none" stroke="#191970" points="80.7721,-181.3595 84.272,-191.3595 87.7721,-181.3595 80.7721,-181.3595"/>
</g>
<!-- Node5 -->
<g id="node3" class="node">
<title>Node5</title>
<polygon fill="#ffffff" stroke="#bfbfbf" points="50.9863,-362.5 50.9863,-416.5 117.5576,-416.5 117.5576,-362.5 50.9863,-362.5"/>
<text text-anchor="middle" x="84.272" y="-404.5" font-family="Helvetica,sans-Serif" font-size="10.00" fill="#000000">CController</text>
<polyline fill="none" stroke="#bfbfbf" points="50.9863,-398.5 117.5576,-398.5 "/>
<text text-anchor="middle" x="84.272" y="-386.5" font-family="Helvetica,sans-Serif" font-size="10.00" fill="#000000"> </text>
<polyline fill="none" stroke="#bfbfbf" points="50.9863,-380.5 117.5576,-380.5 "/>
<text text-anchor="middle" x="84.272" y="-368.5" font-family="Helvetica,sans-Serif" font-size="10.00" fill="#000000"> </text>
</g>
<!-- Node5&#45;&gt;Node4 -->
<g id="edge2" class="edge">
<title>Node5&#45;&gt;Node4</title>
<path fill="none" stroke="#191970" d="M78.1134,-352.2321C77.7409,-343.8764 77.5444,-334.7626 77.5238,-325.607"/>
<polygon fill="none" stroke="#191970" points="74.6266,-352.5676 78.6792,-362.3567 81.6156,-352.1769 74.6266,-352.5676"/>
</g>
<!-- Node5&#45;&gt;Node4 -->
<g id="edge3" class="edge">
<title>Node5&#45;&gt;Node4</title>
<path fill="none" stroke="#191970" d="M90.4306,-352.2321C90.8031,-343.8764 90.9996,-334.7626 91.0202,-325.607"/>
<polygon fill="none" stroke="#191970" points="86.9283,-352.1769 89.8647,-362.3567 93.9174,-352.5676 86.9283,-352.1769"/>
</g>
</g>
</svg>
