<?xml version="1.0" encoding="UTF-8" standalone="no"?>
<!DOCTYPE svg PUBLIC "-//W3C//DTD SVG 1.1//EN"
 "http://www.w3.org/Graphics/SVG/1.1/DTD/svg11.dtd">
<!-- Generated by graphviz version 2.40.1 (20161225.0304)
 -->
<!-- Title: Google_QueryServiceResource Pages: 1 -->
<svg width="165pt" height="194pt"
 viewBox="0.00 0.00 165.18 194.00" xmlns="http://www.w3.org/2000/svg" xmlns:xlink="http://www.w3.org/1999/xlink">
<g id="graph0" class="graph" transform="scale(1 1) rotate(0) translate(4 190)">
<title>Google_QueryServiceResource</title>
<polygon fill="#ffffff" stroke="transparent" points="-4,4 -4,-190 161.1816,-190 161.1816,4 -4,4"/>
<!-- Node2 -->
<g id="node1" class="node">
<title>Node2</title>
<polygon fill="#bfbfbf" stroke="#000000" points="0,-.5 0,-64.5 157.1816,-64.5 157.1816,-.5 0,-.5"/>
<text text-anchor="middle" x="78.5908" y="-52.5" font-family="Helvetica,sans-Serif" font-size="10.00" fill="#000000">Google_QueryServiceResource</text>
<polyline fill="none" stroke="#000000" points="0,-46.5 157.1816,-46.5 "/>
<text text-anchor="middle" x="78.5908" y="-34.5" font-family="Helvetica,sans-Serif" font-size="10.00" fill="#000000"> </text>
<polyline fill="none" stroke="#000000" points="0,-28.5 157.1816,-28.5 "/>
<text text-anchor="start" x="8" y="-16.5" font-family="Helvetica,sans-Serif" font-size="10.00" fill="#000000">+ sql()</text>
<text text-anchor="start" x="8" y="-6.5" font-family="Helvetica,sans-Serif" font-size="10.00" fill="#000000">+ sqlGet()</text>
</g>
<!-- Node3 -->
<g id="node2" class="node">
<title>Node3</title>
<g id="a_node2"><a xlink:href="class_google___service_resource.html" target="_top" xlink:title="{Google_ServiceResource\n||+ __construct()\l+ __call()\l+ useObjects()\l# stripNull()\l}">
<polygon fill="#ffffff" stroke="#000000" points="13.6157,-101.5 13.6157,-185.5 143.5659,-185.5 143.5659,-101.5 13.6157,-101.5"/>
<text text-anchor="middle" x="78.5908" y="-173.5" font-family="Helvetica,sans-Serif" font-size="10.00" fill="#000000">Google_ServiceResource</text>
<polyline fill="none" stroke="#000000" points="13.6157,-167.5 143.5659,-167.5 "/>
<text text-anchor="middle" x="78.5908" y="-155.5" font-family="Helvetica,sans-Serif" font-size="10.00" fill="#000000"> </text>
<polyline fill="none" stroke="#000000" points="13.6157,-149.5 143.5659,-149.5 "/>
<text text-anchor="start" x="21.6157" y="-137.5" font-family="Helvetica,sans-Serif" font-size="10.00" fill="#000000">+ __construct()</text>
<text text-anchor="start" x="21.6157" y="-127.5" font-family="Helvetica,sans-Serif" font-size="10.00" fill="#000000">+ __call()</text>
<text text-anchor="start" x="21.6157" y="-117.5" font-family="Helvetica,sans-Serif" font-size="10.00" fill="#000000">+ useObjects()</text>
<text text-anchor="start" x="21.6157" y="-107.5" font-family="Helvetica,sans-Serif" font-size="10.00" fill="#000000"># stripNull()</text>
</a>
</g>
</g>
<!-- Node3&#45;&gt;Node2 -->
<g id="edge1" class="edge">
<title>Node3&#45;&gt;Node2</title>
<path fill="none" stroke="#191970" d="M78.5908,-91.1185C78.5908,-82.0854 78.5908,-72.9418 78.5908,-64.6489"/>
<polygon fill="none" stroke="#191970" points="75.0909,-91.219 78.5908,-101.219 82.0909,-91.219 75.0909,-91.219"/>
</g>
</g>
</svg>
