<?xml version="1.0" encoding="UTF-8" standalone="no"?>
<!DOCTYPE svg PUBLIC "-//W3C//DTD SVG 1.1//EN"
 "http://www.w3.org/Graphics/SVG/1.1/DTD/svg11.dtd">
<!-- Generated by graphviz version 2.40.1 (20161225.0304)
 -->
<!-- Title: Google_AnalyzeDataDescriptionFeaturesText Pages: 1 -->
<svg width="169pt" height="214pt"
 viewBox="0.00 0.00 168.53 214.00" xmlns="http://www.w3.org/2000/svg" xmlns:xlink="http://www.w3.org/1999/xlink">
<g id="graph0" class="graph" transform="scale(1 1) rotate(0) translate(4 210)">
<title>Google_AnalyzeDataDescriptionFeaturesText</title>
<polygon fill="#ffffff" stroke="transparent" points="-4,4 -4,-210 164.5264,-210 164.5264,4 -4,4"/>
<!-- Node2 -->
<g id="node1" class="node">
<title>Node2</title>
<polygon fill="#bfbfbf" stroke="#000000" points="0,-.5 0,-74.5 160.5264,-74.5 160.5264,-.5 0,-.5"/>
<text text-anchor="start" x="8" y="-62.5" font-family="Helvetica,sans-Serif" font-size="10.00" fill="#000000">Google_AnalyzeDataDescription</text>
<text text-anchor="middle" x="80.2632" y="-52.5" font-family="Helvetica,sans-Serif" font-size="10.00" fill="#000000">FeaturesText</text>
<polyline fill="none" stroke="#000000" points="0,-46.5 160.5264,-46.5 "/>
<text text-anchor="start" x="8" y="-34.5" font-family="Helvetica,sans-Serif" font-size="10.00" fill="#000000">+ $count</text>
<polyline fill="none" stroke="#000000" points="0,-28.5 160.5264,-28.5 "/>
<text text-anchor="start" x="8" y="-16.5" font-family="Helvetica,sans-Serif" font-size="10.00" fill="#000000">+ setCount()</text>
<text text-anchor="start" x="8" y="-6.5" font-family="Helvetica,sans-Serif" font-size="10.00" fill="#000000">+ getCount()</text>
</g>
<!-- Node3 -->
<g id="node2" class="node">
<title>Node3</title>
<g id="a_node2"><a xlink:href="class_google___model.html" target="_top" xlink:title="{Google_Model\n||+ __construct()\l+ assertIsArray()\l# mapTypes()\l# isAssociativeArray()\l# useObjects()\l}">
<polygon fill="#ffffff" stroke="#000000" points="23.9185,-111.5 23.9185,-205.5 136.6079,-205.5 136.6079,-111.5 23.9185,-111.5"/>
<text text-anchor="middle" x="80.2632" y="-193.5" font-family="Helvetica,sans-Serif" font-size="10.00" fill="#000000">Google_Model</text>
<polyline fill="none" stroke="#000000" points="23.9185,-187.5 136.6079,-187.5 "/>
<text text-anchor="middle" x="80.2632" y="-175.5" font-family="Helvetica,sans-Serif" font-size="10.00" fill="#000000"> </text>
<polyline fill="none" stroke="#000000" points="23.9185,-169.5 136.6079,-169.5 "/>
<text text-anchor="start" x="31.9185" y="-157.5" font-family="Helvetica,sans-Serif" font-size="10.00" fill="#000000">+ __construct()</text>
<text text-anchor="start" x="31.9185" y="-147.5" font-family="Helvetica,sans-Serif" font-size="10.00" fill="#000000">+ assertIsArray()</text>
<text text-anchor="start" x="31.9185" y="-137.5" font-family="Helvetica,sans-Serif" font-size="10.00" fill="#000000"># mapTypes()</text>
<text text-anchor="start" x="31.9185" y="-127.5" font-family="Helvetica,sans-Serif" font-size="10.00" fill="#000000"># isAssociativeArray()</text>
<text text-anchor="start" x="31.9185" y="-117.5" font-family="Helvetica,sans-Serif" font-size="10.00" fill="#000000"># useObjects()</text>
</a>
</g>
</g>
<!-- Node3&#45;&gt;Node2 -->
<g id="edge1" class="edge">
<title>Node3&#45;&gt;Node2</title>
<path fill="none" stroke="#191970" d="M80.2632,-101.2279C80.2632,-92.1684 80.2632,-83.0122 80.2632,-74.5748"/>
<polygon fill="none" stroke="#191970" points="76.7633,-101.3717 80.2632,-111.3718 83.7633,-101.3718 76.7633,-101.3717"/>
</g>
</g>
</svg>
