<?xml version="1.0" encoding="UTF-8" standalone="no"?>
<!DOCTYPE svg PUBLIC "-//W3C//DTD SVG 1.1//EN"
 "http://www.w3.org/Graphics/SVG/1.1/DTD/svg11.dtd">
<!-- Generated by graphviz version 2.40.1 (20161225.0304)
 -->
<!-- Title: Google_AndroidPublisherService Pages: 1 -->
<svg width="171pt" height="184pt"
 viewBox="0.00 0.00 171.31 184.00" xmlns="http://www.w3.org/2000/svg" xmlns:xlink="http://www.w3.org/1999/xlink">
<g id="graph0" class="graph" transform="scale(1 1) rotate(0) translate(4 180)">
<title>Google_AndroidPublisherService</title>
<polygon fill="#ffffff" stroke="transparent" points="-4,4 -4,-180 167.3096,-180 167.3096,4 -4,4"/>
<!-- Node0 -->
<g id="node1" class="node">
<title>Node0</title>
<polygon fill="#bfbfbf" stroke="#000000" points="0,-.5 0,-64.5 163.3096,-64.5 163.3096,-.5 0,-.5"/>
<text text-anchor="middle" x="81.6548" y="-52.5" font-family="Helvetica,sans-Serif" font-size="10.00" fill="#000000">Google_AndroidPublisherService</text>
<polyline fill="none" stroke="#000000" points="0,-46.5 163.3096,-46.5 "/>
<text text-anchor="start" x="8" y="-34.5" font-family="Helvetica,sans-Serif" font-size="10.00" fill="#000000">+ $inapppurchases</text>
<text text-anchor="start" x="8" y="-24.5" font-family="Helvetica,sans-Serif" font-size="10.00" fill="#000000">+ $purchases</text>
<polyline fill="none" stroke="#000000" points="0,-18.5 163.3096,-18.5 "/>
<text text-anchor="start" x="8" y="-6.5" font-family="Helvetica,sans-Serif" font-size="10.00" fill="#000000">+ __construct()</text>
</g>
<!-- Node1 -->
<g id="node2" class="node">
<title>Node1</title>
<g id="a_node2"><a xlink:href="class_google___service.html" target="_top" xlink:title="{Google_Service\n|+ $version\l+ $servicePath\l+ $resource\l|}">
<polygon fill="#ffffff" stroke="#000000" points="38.0786,-101.5 38.0786,-175.5 125.231,-175.5 125.231,-101.5 38.0786,-101.5"/>
<text text-anchor="middle" x="81.6548" y="-163.5" font-family="Helvetica,sans-Serif" font-size="10.00" fill="#000000">Google_Service</text>
<polyline fill="none" stroke="#000000" points="38.0786,-157.5 125.231,-157.5 "/>
<text text-anchor="start" x="46.0786" y="-145.5" font-family="Helvetica,sans-Serif" font-size="10.00" fill="#000000">+ $version</text>
<text text-anchor="start" x="46.0786" y="-135.5" font-family="Helvetica,sans-Serif" font-size="10.00" fill="#000000">+ $servicePath</text>
<text text-anchor="start" x="46.0786" y="-125.5" font-family="Helvetica,sans-Serif" font-size="10.00" fill="#000000">+ $resource</text>
<polyline fill="none" stroke="#000000" points="38.0786,-119.5 125.231,-119.5 "/>
<text text-anchor="middle" x="81.6548" y="-107.5" font-family="Helvetica,sans-Serif" font-size="10.00" fill="#000000"> </text>
</a>
</g>
</g>
<!-- Node1&#45;&gt;Node0 -->
<g id="edge1" class="edge">
<title>Node1&#45;&gt;Node0</title>
<path fill="none" stroke="#191970" d="M81.6548,-91.4211C81.6548,-82.4227 81.6548,-73.1937 81.6548,-64.7893"/>
<polygon fill="none" stroke="#191970" points="78.1549,-91.4263 81.6548,-101.4263 85.1549,-91.4264 78.1549,-91.4263"/>
</g>
</g>
</svg>
