<?xml version="1.0" encoding="UTF-8" standalone="no"?>
<!DOCTYPE svg PUBLIC "-//W3C//DTD SVG 1.1//EN"
 "http://www.w3.org/Graphics/SVG/1.1/DTD/svg11.dtd">
<!-- Generated by graphviz version 2.40.1 (20161225.0304)
 -->
<!-- Title: Swift_RfcComplianceException Pages: 1 -->
<svg width="163pt" height="245pt"
 viewBox="0.00 0.00 162.95 245.00" xmlns="http://www.w3.org/2000/svg" xmlns:xlink="http://www.w3.org/1999/xlink">
<g id="graph0" class="graph" transform="scale(1 1) rotate(0) translate(4 241)">
<title>Swift_RfcComplianceException</title>
<polygon fill="#ffffff" stroke="transparent" points="-4,4 -4,-241 158.9502,-241 158.9502,4 -4,4"/>
<!-- Node3 -->
<g id="node1" class="node">
<title>Node3</title>
<polygon fill="#bfbfbf" stroke="#000000" points="0,-.5 0,-54.5 154.9502,-54.5 154.9502,-.5 0,-.5"/>
<text text-anchor="middle" x="77.4751" y="-42.5" font-family="Helvetica,sans-Serif" font-size="10.00" fill="#000000">Swift_RfcComplianceException</text>
<polyline fill="none" stroke="#000000" points="0,-36.5 154.9502,-36.5 "/>
<text text-anchor="middle" x="77.4751" y="-24.5" font-family="Helvetica,sans-Serif" font-size="10.00" fill="#000000"> </text>
<polyline fill="none" stroke="#000000" points="0,-18.5 154.9502,-18.5 "/>
<text text-anchor="start" x="8" y="-6.5" font-family="Helvetica,sans-Serif" font-size="10.00" fill="#000000">+ __construct()</text>
</g>
<!-- Node4 -->
<g id="node2" class="node">
<title>Node4</title>
<g id="a_node2"><a xlink:href="class_swift___swift_exception.html" target="_top" xlink:title="{Swift_SwiftException\n||+ __construct()\l}">
<polygon fill="#ffffff" stroke="#000000" points="23.0664,-91.5 23.0664,-145.5 131.8838,-145.5 131.8838,-91.5 23.0664,-91.5"/>
<text text-anchor="middle" x="77.4751" y="-133.5" font-family="Helvetica,sans-Serif" font-size="10.00" fill="#000000">Swift_SwiftException</text>
<polyline fill="none" stroke="#000000" points="23.0664,-127.5 131.8838,-127.5 "/>
<text text-anchor="middle" x="77.4751" y="-115.5" font-family="Helvetica,sans-Serif" font-size="10.00" fill="#000000"> </text>
<polyline fill="none" stroke="#000000" points="23.0664,-109.5 131.8838,-109.5 "/>
<text text-anchor="start" x="31.0664" y="-97.5" font-family="Helvetica,sans-Serif" font-size="10.00" fill="#000000">+ __construct()</text>
</a>
</g>
</g>
<!-- Node4&#45;&gt;Node3 -->
<g id="edge1" class="edge">
<title>Node4&#45;&gt;Node3</title>
<path fill="none" stroke="#191970" d="M77.4751,-81.12C77.4751,-72.3006 77.4751,-63.0605 77.4751,-54.7837"/>
<polygon fill="none" stroke="#191970" points="73.9752,-81.197 77.4751,-91.197 80.9752,-81.197 73.9752,-81.197"/>
</g>
<!-- Node5 -->
<g id="node3" class="node">
<title>Node5</title>
<polygon fill="#ffffff" stroke="#bfbfbf" points="47.5171,-182.5 47.5171,-236.5 107.4331,-236.5 107.4331,-182.5 47.5171,-182.5"/>
<text text-anchor="middle" x="77.4751" y="-224.5" font-family="Helvetica,sans-Serif" font-size="10.00" fill="#000000">Exception</text>
<polyline fill="none" stroke="#bfbfbf" points="47.5171,-218.5 107.4331,-218.5 "/>
<text text-anchor="middle" x="77.4751" y="-206.5" font-family="Helvetica,sans-Serif" font-size="10.00" fill="#000000"> </text>
<polyline fill="none" stroke="#bfbfbf" points="47.5171,-200.5 107.4331,-200.5 "/>
<text text-anchor="middle" x="77.4751" y="-188.5" font-family="Helvetica,sans-Serif" font-size="10.00" fill="#000000"> </text>
</g>
<!-- Node5&#45;&gt;Node4 -->
<g id="edge2" class="edge">
<title>Node5&#45;&gt;Node4</title>
<path fill="none" stroke="#191970" d="M77.4751,-172.12C77.4751,-163.3006 77.4751,-154.0605 77.4751,-145.7837"/>
<polygon fill="none" stroke="#191970" points="73.9752,-172.197 77.4751,-182.197 80.9752,-172.197 73.9752,-172.197"/>
</g>
</g>
</svg>
