<?xml version="1.0" encoding="UTF-8" standalone="no"?>
<!DOCTYPE svg PUBLIC "-//W3C//DTD SVG 1.1//EN"
 "http://www.w3.org/Graphics/SVG/1.1/DTD/svg11.dtd">
<!-- Generated by graphviz version 2.40.1 (20161225.0304)
 -->
<!-- Title: UGMailPassReset Pages: 1 -->
<svg width="106pt" height="234pt"
 viewBox="0.00 0.00 105.69 234.00" xmlns="http://www.w3.org/2000/svg" xmlns:xlink="http://www.w3.org/1999/xlink">
<g id="graph0" class="graph" transform="scale(1 1) rotate(0) translate(4 230)">
<title>UGMailPassReset</title>
<polygon fill="#ffffff" stroke="transparent" points="-4,4 -4,-230 101.6895,-230 101.6895,4 -4,4"/>
<!-- Node0 -->
<g id="node1" class="node">
<title>Node0</title>
<polygon fill="#bfbfbf" stroke="#000000" points="0,-.5 0,-94.5 97.6895,-94.5 97.6895,-.5 0,-.5"/>
<text text-anchor="middle" x="48.8447" y="-82.5" font-family="Helvetica,sans-Serif" font-size="10.00" fill="#000000">UGMailPassReset</text>
<polyline fill="none" stroke="#000000" points="0,-76.5 97.6895,-76.5 "/>
<text text-anchor="middle" x="48.8447" y="-64.5" font-family="Helvetica,sans-Serif" font-size="10.00" fill="#000000"> </text>
<polyline fill="none" stroke="#000000" points="0,-58.5 97.6895,-58.5 "/>
<text text-anchor="start" x="8" y="-46.5" font-family="Helvetica,sans-Serif" font-size="10.00" fill="#000000">+ mailHeader()</text>
<text text-anchor="start" x="8" y="-36.5" font-family="Helvetica,sans-Serif" font-size="10.00" fill="#000000">+ mailSubject()</text>
<text text-anchor="start" x="8" y="-26.5" font-family="Helvetica,sans-Serif" font-size="10.00" fill="#000000">+ mailBody()</text>
<text text-anchor="start" x="8" y="-16.5" font-family="Helvetica,sans-Serif" font-size="10.00" fill="#000000">+ mailSuccess()</text>
<text text-anchor="start" x="8" y="-6.5" font-family="Helvetica,sans-Serif" font-size="10.00" fill="#000000">+ mailError()</text>
</g>
<!-- Node1 -->
<g id="node2" class="node">
<title>Node1</title>
<g id="a_node2"><a xlink:href="interface_u_g_mail_message.html" target="_top" xlink:title="{UGMailMessage\n||+ mailHeader()\l+ mailSubject()\l+ mailBody()\l+ mailSuccess()\l+ mailError()\l}">
<polygon fill="#ffffff" stroke="#000000" points="3.8892,-131.5 3.8892,-225.5 93.8003,-225.5 93.8003,-131.5 3.8892,-131.5"/>
<text text-anchor="middle" x="48.8447" y="-213.5" font-family="Helvetica,sans-Serif" font-size="10.00" fill="#000000">UGMailMessage</text>
<polyline fill="none" stroke="#000000" points="3.8892,-207.5 93.8003,-207.5 "/>
<text text-anchor="middle" x="48.8447" y="-195.5" font-family="Helvetica,sans-Serif" font-size="10.00" fill="#000000"> </text>
<polyline fill="none" stroke="#000000" points="3.8892,-189.5 93.8003,-189.5 "/>
<text text-anchor="start" x="11.8892" y="-177.5" font-family="Helvetica,sans-Serif" font-size="10.00" fill="#000000">+ mailHeader()</text>
<text text-anchor="start" x="11.8892" y="-167.5" font-family="Helvetica,sans-Serif" font-size="10.00" fill="#000000">+ mailSubject()</text>
<text text-anchor="start" x="11.8892" y="-157.5" font-family="Helvetica,sans-Serif" font-size="10.00" fill="#000000">+ mailBody()</text>
<text text-anchor="start" x="11.8892" y="-147.5" font-family="Helvetica,sans-Serif" font-size="10.00" fill="#000000">+ mailSuccess()</text>
<text text-anchor="start" x="11.8892" y="-137.5" font-family="Helvetica,sans-Serif" font-size="10.00" fill="#000000">+ mailError()</text>
</a>
</g>
</g>
<!-- Node1&#45;&gt;Node0 -->
<g id="edge1" class="edge">
<title>Node1&#45;&gt;Node0</title>
<path fill="none" stroke="#191970" d="M48.8447,-121.0214C48.8447,-112.2362 48.8447,-103.2556 48.8447,-94.7246"/>
<polygon fill="none" stroke="#191970" points="45.3448,-121.206 48.8447,-131.206 52.3448,-121.206 45.3448,-121.206"/>
</g>
</g>
</svg>
