<?xml version="1.0" encoding="UTF-8" standalone="no"?>
<!DOCTYPE svg PUBLIC "-//W3C//DTD SVG 1.1//EN"
 "http://www.w3.org/Graphics/SVG/1.1/DTD/svg11.dtd">
<!-- Generated by graphviz version 2.40.1 (20161225.0304)
 -->
<!-- Title: Google_AchievementDefinitionsServiceResource Pages: 1 -->
<svg width="166pt" height="194pt"
 viewBox="0.00 0.00 166.30 194.00" xmlns="http://www.w3.org/2000/svg" xmlns:xlink="http://www.w3.org/1999/xlink">
<g id="graph0" class="graph" transform="scale(1 1) rotate(0) translate(4 190)">
<title>Google_AchievementDefinitionsServiceResource</title>
<polygon fill="#ffffff" stroke="transparent" points="-4,4 -4,-190 162.3047,-190 162.3047,4 -4,4"/>
<!-- Node0 -->
<g id="node1" class="node">
<title>Node0</title>
<polygon fill="#bfbfbf" stroke="#000000" points="0,-.5 0,-64.5 158.3047,-64.5 158.3047,-.5 0,-.5"/>
<text text-anchor="start" x="8" y="-52.5" font-family="Helvetica,sans-Serif" font-size="10.00" fill="#000000">Google_AchievementDefinitions</text>
<text text-anchor="middle" x="79.1523" y="-42.5" font-family="Helvetica,sans-Serif" font-size="10.00" fill="#000000">ServiceResource</text>
<polyline fill="none" stroke="#000000" points="0,-36.5 158.3047,-36.5 "/>
<text text-anchor="middle" x="79.1523" y="-24.5" font-family="Helvetica,sans-Serif" font-size="10.00" fill="#000000"> </text>
<polyline fill="none" stroke="#000000" points="0,-18.5 158.3047,-18.5 "/>
<text text-anchor="start" x="8" y="-6.5" font-family="Helvetica,sans-Serif" font-size="10.00" fill="#000000">+ listAchievementDefinitions()</text>
</g>
<!-- Node1 -->
<g id="node2" class="node">
<title>Node1</title>
<g id="a_node2"><a xlink:href="class_google___service_resource.html" target="_top" xlink:title="{Google_ServiceResource\n||+ __construct()\l+ __call()\l+ useObjects()\l# stripNull()\l}">
<polygon fill="#ffffff" stroke="#000000" points="14.1772,-101.5 14.1772,-185.5 144.1274,-185.5 144.1274,-101.5 14.1772,-101.5"/>
<text text-anchor="middle" x="79.1523" y="-173.5" font-family="Helvetica,sans-Serif" font-size="10.00" fill="#000000">Google_ServiceResource</text>
<polyline fill="none" stroke="#000000" points="14.1772,-167.5 144.1274,-167.5 "/>
<text text-anchor="middle" x="79.1523" y="-155.5" font-family="Helvetica,sans-Serif" font-size="10.00" fill="#000000"> </text>
<polyline fill="none" stroke="#000000" points="14.1772,-149.5 144.1274,-149.5 "/>
<text text-anchor="start" x="22.1772" y="-137.5" font-family="Helvetica,sans-Serif" font-size="10.00" fill="#000000">+ __construct()</text>
<text text-anchor="start" x="22.1772" y="-127.5" font-family="Helvetica,sans-Serif" font-size="10.00" fill="#000000">+ __call()</text>
<text text-anchor="start" x="22.1772" y="-117.5" font-family="Helvetica,sans-Serif" font-size="10.00" fill="#000000">+ useObjects()</text>
<text text-anchor="start" x="22.1772" y="-107.5" font-family="Helvetica,sans-Serif" font-size="10.00" fill="#000000"># stripNull()</text>
</a>
</g>
</g>
<!-- Node1&#45;&gt;Node0 -->
<g id="edge1" class="edge">
<title>Node1&#45;&gt;Node0</title>
<path fill="none" stroke="#191970" d="M79.1523,-91.1185C79.1523,-82.0854 79.1523,-72.9418 79.1523,-64.6489"/>
<polygon fill="none" stroke="#191970" points="75.6524,-91.219 79.1523,-101.219 82.6524,-91.219 75.6524,-91.219"/>
</g>
</g>
</svg>
