<?xml version="1.0" encoding="UTF-8" standalone="no"?>
<!DOCTYPE svg PUBLIC "-//W3C//DTD SVG 1.1//EN"
 "http://www.w3.org/Graphics/SVG/1.1/DTD/svg11.dtd">
<!-- Generated by graphviz version 2.40.1 (20161225.0304)
 -->
<!-- Title: Swift_MailTransport Pages: 1 -->
<svg width="160pt" height="365pt"
 viewBox="0.00 0.00 159.98 365.00" xmlns="http://www.w3.org/2000/svg" xmlns:xlink="http://www.w3.org/1999/xlink">
<g id="graph0" class="graph" transform="scale(1 1) rotate(0) translate(4 361)">
<title>Swift_MailTransport</title>
<polygon fill="#ffffff" stroke="transparent" points="-4,4 -4,-361 155.9814,-361 155.9814,4 -4,4"/>
<!-- Node3 -->
<g id="node1" class="node">
<title>Node3</title>
<polygon fill="#bfbfbf" stroke="#000000" points="23.9941,-.5 23.9941,-64.5 127.9873,-64.5 127.9873,-.5 23.9941,-.5"/>
<text text-anchor="middle" x="75.9907" y="-52.5" font-family="Helvetica,sans-Serif" font-size="10.00" fill="#000000">Swift_MailTransport</text>
<polyline fill="none" stroke="#000000" points="23.9941,-46.5 127.9873,-46.5 "/>
<text text-anchor="middle" x="75.9907" y="-34.5" font-family="Helvetica,sans-Serif" font-size="10.00" fill="#000000"> </text>
<polyline fill="none" stroke="#000000" points="23.9941,-28.5 127.9873,-28.5 "/>
<text text-anchor="start" x="31.9941" y="-16.5" font-family="Helvetica,sans-Serif" font-size="10.00" fill="#000000">+ __construct()</text>
<text text-anchor="start" x="31.9941" y="-6.5" font-family="Helvetica,sans-Serif" font-size="10.00" fill="#000000">+ newInstance()</text>
</g>
<!-- Node4 -->
<g id="node2" class="node">
<title>Node4</title>
<g id="a_node2"><a xlink:href="class_swift___transport___mail_transport.html" target="_top" xlink:title="{Swift_Transport_MailTransport\n||+ __construct()\l+ isStarted()\l+ start()\l+ stop()\l+ setExtraParams()\l+ getExtraParams()\l+ send()\l+ registerPlugin()\l}">
<polygon fill="#ffffff" stroke="#000000" points="0,-101.5 0,-225.5 151.9814,-225.5 151.9814,-101.5 0,-101.5"/>
<text text-anchor="middle" x="75.9907" y="-213.5" font-family="Helvetica,sans-Serif" font-size="10.00" fill="#000000">Swift_Transport_MailTransport</text>
<polyline fill="none" stroke="#000000" points="0,-207.5 151.9814,-207.5 "/>
<text text-anchor="middle" x="75.9907" y="-195.5" font-family="Helvetica,sans-Serif" font-size="10.00" fill="#000000"> </text>
<polyline fill="none" stroke="#000000" points="0,-189.5 151.9814,-189.5 "/>
<text text-anchor="start" x="8" y="-177.5" font-family="Helvetica,sans-Serif" font-size="10.00" fill="#000000">+ __construct()</text>
<text text-anchor="start" x="8" y="-167.5" font-family="Helvetica,sans-Serif" font-size="10.00" fill="#000000">+ isStarted()</text>
<text text-anchor="start" x="8" y="-157.5" font-family="Helvetica,sans-Serif" font-size="10.00" fill="#000000">+ start()</text>
<text text-anchor="start" x="8" y="-147.5" font-family="Helvetica,sans-Serif" font-size="10.00" fill="#000000">+ stop()</text>
<text text-anchor="start" x="8" y="-137.5" font-family="Helvetica,sans-Serif" font-size="10.00" fill="#000000">+ setExtraParams()</text>
<text text-anchor="start" x="8" y="-127.5" font-family="Helvetica,sans-Serif" font-size="10.00" fill="#000000">+ getExtraParams()</text>
<text text-anchor="start" x="8" y="-117.5" font-family="Helvetica,sans-Serif" font-size="10.00" fill="#000000">+ send()</text>
<text text-anchor="start" x="8" y="-107.5" font-family="Helvetica,sans-Serif" font-size="10.00" fill="#000000">+ registerPlugin()</text>
</a>
</g>
</g>
<!-- Node4&#45;&gt;Node3 -->
<g id="edge1" class="edge">
<title>Node4&#45;&gt;Node3</title>
<path fill="none" stroke="#191970" d="M75.9907,-91.3337C75.9907,-82.0407 75.9907,-72.9285 75.9907,-64.756"/>
<polygon fill="none" stroke="#191970" points="72.4908,-91.4526 75.9907,-101.4527 79.4908,-91.4527 72.4908,-91.4526"/>
</g>
<!-- Node5 -->
<g id="node3" class="node">
<title>Node5</title>
<g id="a_node3"><a xlink:href="interface_swift___transport.html" target="_top" xlink:title="{Swift_Transport\n||+ isStarted()\l+ start()\l+ stop()\l+ send()\l+ registerPlugin()\l}">
<polygon fill="#ffffff" stroke="#000000" points="29.7803,-262.5 29.7803,-356.5 122.2012,-356.5 122.2012,-262.5 29.7803,-262.5"/>
<text text-anchor="middle" x="75.9907" y="-344.5" font-family="Helvetica,sans-Serif" font-size="10.00" fill="#000000">Swift_Transport</text>
<polyline fill="none" stroke="#000000" points="29.7803,-338.5 122.2012,-338.5 "/>
<text text-anchor="middle" x="75.9907" y="-326.5" font-family="Helvetica,sans-Serif" font-size="10.00" fill="#000000"> </text>
<polyline fill="none" stroke="#000000" points="29.7803,-320.5 122.2012,-320.5 "/>
<text text-anchor="start" x="37.7803" y="-308.5" font-family="Helvetica,sans-Serif" font-size="10.00" fill="#000000">+ isStarted()</text>
<text text-anchor="start" x="37.7803" y="-298.5" font-family="Helvetica,sans-Serif" font-size="10.00" fill="#000000">+ start()</text>
<text text-anchor="start" x="37.7803" y="-288.5" font-family="Helvetica,sans-Serif" font-size="10.00" fill="#000000">+ stop()</text>
<text text-anchor="start" x="37.7803" y="-278.5" font-family="Helvetica,sans-Serif" font-size="10.00" fill="#000000">+ send()</text>
<text text-anchor="start" x="37.7803" y="-268.5" font-family="Helvetica,sans-Serif" font-size="10.00" fill="#000000">+ registerPlugin()</text>
</a>
</g>
</g>
<!-- Node5&#45;&gt;Node4 -->
<g id="edge2" class="edge">
<title>Node5&#45;&gt;Node4</title>
<path fill="none" stroke="#191970" d="M75.9907,-252.0574C75.9907,-243.3564 75.9907,-234.3461 75.9907,-225.5528"/>
<polygon fill="none" stroke="#191970" points="72.4908,-252.0979 75.9907,-262.098 79.4908,-252.098 72.4908,-252.0979"/>
</g>
</g>
</svg>
