<?xml version="1.0" encoding="UTF-8" standalone="no"?>
<!DOCTYPE svg PUBLIC "-//W3C//DTD SVG 1.1//EN"
 "http://www.w3.org/Graphics/SVG/1.1/DTD/svg11.dtd">
<!-- Generated by graphviz version 2.40.1 (20161225.0304)
 -->
<!-- Title: AdminController Pages: 1 -->
<svg width="177pt" height="415pt"
 viewBox="0.00 0.00 176.54 415.00" xmlns="http://www.w3.org/2000/svg" xmlns:xlink="http://www.w3.org/1999/xlink">
<g id="graph0" class="graph" transform="scale(1 1) rotate(0) translate(4 411)">
<title>AdminController</title>
<polygon fill="#ffffff" stroke="transparent" points="-4,4 -4,-411 172.5439,-411 172.5439,4 -4,4"/>
<!-- Node3 -->
<g id="node1" class="node">
<title>Node3</title>
<polygon fill="#bfbfbf" stroke="#000000" points="20.2271,-.5 20.2271,-144.5 148.3169,-144.5 148.3169,-.5 20.2271,-.5"/>
<text text-anchor="middle" x="84.272" y="-132.5" font-family="Helvetica,sans-Serif" font-size="10.00" fill="#000000">AdminController</text>
<polyline fill="none" stroke="#000000" points="20.2271,-126.5 148.3169,-126.5 "/>
<text text-anchor="start" x="28.2271" y="-114.5" font-family="Helvetica,sans-Serif" font-size="10.00" fill="#000000">+ $_permissionControl</text>
<polyline fill="none" stroke="#000000" points="20.2271,-108.5 148.3169,-108.5 "/>
<text text-anchor="start" x="28.2271" y="-96.5" font-family="Helvetica,sans-Serif" font-size="10.00" fill="#000000">+ filters()</text>
<text text-anchor="start" x="28.2271" y="-86.5" font-family="Helvetica,sans-Serif" font-size="10.00" fill="#000000">+ accessRules()</text>
<text text-anchor="start" x="28.2271" y="-76.5" font-family="Helvetica,sans-Serif" font-size="10.00" fill="#000000">+ actionIndex()</text>
<text text-anchor="start" x="28.2271" y="-66.5" font-family="Helvetica,sans-Serif" font-size="10.00" fill="#000000">+ actionDocumentation()</text>
<text text-anchor="start" x="28.2271" y="-56.5" font-family="Helvetica,sans-Serif" font-size="10.00" fill="#000000">+ actionAccessList()</text>
<text text-anchor="start" x="28.2271" y="-46.5" font-family="Helvetica,sans-Serif" font-size="10.00" fill="#000000">+ actionUpdate()</text>
<text text-anchor="start" x="28.2271" y="-36.5" font-family="Helvetica,sans-Serif" font-size="10.00" fill="#000000">+ actionCron()</text>
<text text-anchor="start" x="28.2271" y="-26.5" font-family="Helvetica,sans-Serif" font-size="10.00" fill="#000000">+ loadConfiguration()</text>
<text text-anchor="start" x="28.2271" y="-16.5" font-family="Helvetica,sans-Serif" font-size="10.00" fill="#000000">+ loadCron()</text>
<text text-anchor="start" x="28.2271" y="-6.5" font-family="Helvetica,sans-Serif" font-size="10.00" fill="#000000"># performAjaxValidation()</text>
</g>
<!-- Node4 -->
<g id="node2" class="node">
<title>Node4</title>
<g id="a_node2"><a xlink:href="class_controller.html" target="_top" xlink:title="{Controller\n|+ $layout\l+ $title\l+ $menu\l+ $breadcrumbs\l+ $_permissionControl\l|+ getUser()\l+ filterUserGroupsAccessControl()\l+ getMapkey()\l+ filterUserGroupsAccessControl()\l# beforeAction()\l}">
<polygon fill="#ffffff" stroke="#000000" points="0,-181.5 0,-315.5 168.5439,-315.5 168.5439,-181.5 0,-181.5"/>
<text text-anchor="middle" x="84.272" y="-303.5" font-family="Helvetica,sans-Serif" font-size="10.00" fill="#000000">Controller</text>
<polyline fill="none" stroke="#000000" points="0,-297.5 168.5439,-297.5 "/>
<text text-anchor="start" x="8" y="-285.5" font-family="Helvetica,sans-Serif" font-size="10.00" fill="#000000">+ $layout</text>
<text text-anchor="start" x="8" y="-275.5" font-family="Helvetica,sans-Serif" font-size="10.00" fill="#000000">+ $title</text>
<text text-anchor="start" x="8" y="-265.5" font-family="Helvetica,sans-Serif" font-size="10.00" fill="#000000">+ $menu</text>
<text text-anchor="start" x="8" y="-255.5" font-family="Helvetica,sans-Serif" font-size="10.00" fill="#000000">+ $breadcrumbs</text>
<text text-anchor="start" x="8" y="-245.5" font-family="Helvetica,sans-Serif" font-size="10.00" fill="#000000">+ $_permissionControl</text>
<polyline fill="none" stroke="#000000" points="0,-239.5 168.5439,-239.5 "/>
<text text-anchor="start" x="8" y="-227.5" font-family="Helvetica,sans-Serif" font-size="10.00" fill="#000000">+ getUser()</text>
<text text-anchor="start" x="8" y="-217.5" font-family="Helvetica,sans-Serif" font-size="10.00" fill="#000000">+ filterUserGroupsAccessControl()</text>
<text text-anchor="start" x="8" y="-207.5" font-family="Helvetica,sans-Serif" font-size="10.00" fill="#000000">+ getMapkey()</text>
<text text-anchor="start" x="8" y="-197.5" font-family="Helvetica,sans-Serif" font-size="10.00" fill="#000000">+ filterUserGroupsAccessControl()</text>
<text text-anchor="start" x="8" y="-187.5" font-family="Helvetica,sans-Serif" font-size="10.00" fill="#000000"># beforeAction()</text>
</a>
</g>
</g>
<!-- Node4&#45;&gt;Node3 -->
<g id="edge1" class="edge">
<title>Node4&#45;&gt;Node3</title>
<path fill="none" stroke="#191970" d="M84.272,-171.1859C84.272,-162.3586 84.272,-153.3856 84.272,-144.6295"/>
<polygon fill="none" stroke="#191970" points="80.7721,-171.4598 84.272,-181.4599 87.7721,-171.4599 80.7721,-171.4598"/>
</g>
<!-- Node5 -->
<g id="node3" class="node">
<title>Node5</title>
<polygon fill="#ffffff" stroke="#bfbfbf" points="50.9863,-352.5 50.9863,-406.5 117.5576,-406.5 117.5576,-352.5 50.9863,-352.5"/>
<text text-anchor="middle" x="84.272" y="-394.5" font-family="Helvetica,sans-Serif" font-size="10.00" fill="#000000">CController</text>
<polyline fill="none" stroke="#bfbfbf" points="50.9863,-388.5 117.5576,-388.5 "/>
<text text-anchor="middle" x="84.272" y="-376.5" font-family="Helvetica,sans-Serif" font-size="10.00" fill="#000000"> </text>
<polyline fill="none" stroke="#bfbfbf" points="50.9863,-370.5 117.5576,-370.5 "/>
<text text-anchor="middle" x="84.272" y="-358.5" font-family="Helvetica,sans-Serif" font-size="10.00" fill="#000000"> </text>
</g>
<!-- Node5&#45;&gt;Node4 -->
<g id="edge2" class="edge">
<title>Node5&#45;&gt;Node4</title>
<path fill="none" stroke="#191970" d="M78.1134,-342.2321C77.7409,-333.8764 77.5444,-324.7626 77.5238,-315.607"/>
<polygon fill="none" stroke="#191970" points="74.6266,-342.5676 78.6792,-352.3567 81.6156,-342.1769 74.6266,-342.5676"/>
</g>
<!-- Node5&#45;&gt;Node4 -->
<g id="edge3" class="edge">
<title>Node5&#45;&gt;Node4</title>
<path fill="none" stroke="#191970" d="M90.4306,-342.2321C90.8031,-333.8764 90.9996,-324.7626 91.0202,-315.607"/>
<polygon fill="none" stroke="#191970" points="86.9283,-342.1769 89.8647,-352.3567 93.9174,-342.5676 86.9283,-342.1769"/>
</g>
</g>
</svg>
