<?xml version="1.0" encoding="UTF-8" standalone="no"?>
<!DOCTYPE svg PUBLIC "-//W3C//DTD SVG 1.1//EN"
 "http://www.w3.org/Graphics/SVG/1.1/DTD/svg11.dtd">
<!-- Generated by graphviz version 2.40.1 (20161225.0304)
 -->
<!-- Title: SiteController Pages: 1 -->
<svg width="177pt" height="455pt"
 viewBox="0.00 0.00 176.54 455.00" xmlns="http://www.w3.org/2000/svg" xmlns:xlink="http://www.w3.org/1999/xlink">
<g id="graph0" class="graph" transform="scale(1 1) rotate(0) translate(4 451)">
<title>SiteController</title>
<polygon fill="#ffffff" stroke="transparent" points="-4,4 -4,-451 172.5439,-451 172.5439,4 -4,4"/>
<!-- Node3 -->
<g id="node1" class="node">
<title>Node3</title>
<polygon fill="#bfbfbf" stroke="#000000" points="26.6528,-.5 26.6528,-184.5 141.8911,-184.5 141.8911,-.5 26.6528,-.5"/>
<text text-anchor="middle" x="84.272" y="-172.5" font-family="Helvetica,sans-Serif" font-size="10.00" fill="#000000">SiteController</text>
<polyline fill="none" stroke="#000000" points="26.6528,-166.5 141.8911,-166.5 "/>
<text text-anchor="start" x="34.6528" y="-154.5" font-family="Helvetica,sans-Serif" font-size="10.00" fill="#000000">+ $layout</text>
<polyline fill="none" stroke="#000000" points="26.6528,-148.5 141.8911,-148.5 "/>
<text text-anchor="start" x="34.6528" y="-136.5" font-family="Helvetica,sans-Serif" font-size="10.00" fill="#000000">+ actions()</text>
<text text-anchor="start" x="34.6528" y="-126.5" font-family="Helvetica,sans-Serif" font-size="10.00" fill="#000000">+ actionIndex()</text>
<text text-anchor="start" x="34.6528" y="-116.5" font-family="Helvetica,sans-Serif" font-size="10.00" fill="#000000">+ actionError()</text>
<text text-anchor="start" x="34.6528" y="-106.5" font-family="Helvetica,sans-Serif" font-size="10.00" fill="#000000">+ actionContact()</text>
<text text-anchor="start" x="34.6528" y="-96.5" font-family="Helvetica,sans-Serif" font-size="10.00" fill="#000000">+ actionLogin()</text>
<text text-anchor="start" x="34.6528" y="-86.5" font-family="Helvetica,sans-Serif" font-size="10.00" fill="#000000">+ actionOpenID()</text>
<text text-anchor="start" x="34.6528" y="-76.5" font-family="Helvetica,sans-Serif" font-size="10.00" fill="#000000">+ actionLogout()</text>
<text text-anchor="start" x="34.6528" y="-66.5" font-family="Helvetica,sans-Serif" font-size="10.00" fill="#000000">+ actionChangeLang()</text>
<text text-anchor="start" x="34.6528" y="-56.5" font-family="Helvetica,sans-Serif" font-size="10.00" fill="#000000">+ actions()</text>
<text text-anchor="start" x="34.6528" y="-46.5" font-family="Helvetica,sans-Serif" font-size="10.00" fill="#000000">+ actionIndex()</text>
<text text-anchor="start" x="34.6528" y="-36.5" font-family="Helvetica,sans-Serif" font-size="10.00" fill="#000000">+ actionError()</text>
<text text-anchor="start" x="34.6528" y="-26.5" font-family="Helvetica,sans-Serif" font-size="10.00" fill="#000000">+ actionContact()</text>
<text text-anchor="start" x="34.6528" y="-16.5" font-family="Helvetica,sans-Serif" font-size="10.00" fill="#000000">+ actionLogin()</text>
<text text-anchor="start" x="34.6528" y="-6.5" font-family="Helvetica,sans-Serif" font-size="10.00" fill="#000000">+ actionLogout()</text>
</g>
<!-- Node4 -->
<g id="node2" class="node">
<title>Node4</title>
<g id="a_node2"><a xlink:href="class_controller.html" target="_top" xlink:title="{Controller\n|+ $layout\l+ $title\l+ $menu\l+ $breadcrumbs\l+ $_permissionControl\l|+ getUser()\l+ filterUserGroupsAccessControl()\l+ getMapkey()\l+ filterUserGroupsAccessControl()\l# beforeAction()\l}">
<polygon fill="#ffffff" stroke="#000000" points="0,-221.5 0,-355.5 168.5439,-355.5 168.5439,-221.5 0,-221.5"/>
<text text-anchor="middle" x="84.272" y="-343.5" font-family="Helvetica,sans-Serif" font-size="10.00" fill="#000000">Controller</text>
<polyline fill="none" stroke="#000000" points="0,-337.5 168.5439,-337.5 "/>
<text text-anchor="start" x="8" y="-325.5" font-family="Helvetica,sans-Serif" font-size="10.00" fill="#000000">+ $layout</text>
<text text-anchor="start" x="8" y="-315.5" font-family="Helvetica,sans-Serif" font-size="10.00" fill="#000000">+ $title</text>
<text text-anchor="start" x="8" y="-305.5" font-family="Helvetica,sans-Serif" font-size="10.00" fill="#000000">+ $menu</text>
<text text-anchor="start" x="8" y="-295.5" font-family="Helvetica,sans-Serif" font-size="10.00" fill="#000000">+ $breadcrumbs</text>
<text text-anchor="start" x="8" y="-285.5" font-family="Helvetica,sans-Serif" font-size="10.00" fill="#000000">+ $_permissionControl</text>
<polyline fill="none" stroke="#000000" points="0,-279.5 168.5439,-279.5 "/>
<text text-anchor="start" x="8" y="-267.5" font-family="Helvetica,sans-Serif" font-size="10.00" fill="#000000">+ getUser()</text>
<text text-anchor="start" x="8" y="-257.5" font-family="Helvetica,sans-Serif" font-size="10.00" fill="#000000">+ filterUserGroupsAccessControl()</text>
<text text-anchor="start" x="8" y="-247.5" font-family="Helvetica,sans-Serif" font-size="10.00" fill="#000000">+ getMapkey()</text>
<text text-anchor="start" x="8" y="-237.5" font-family="Helvetica,sans-Serif" font-size="10.00" fill="#000000">+ filterUserGroupsAccessControl()</text>
<text text-anchor="start" x="8" y="-227.5" font-family="Helvetica,sans-Serif" font-size="10.00" fill="#000000"># beforeAction()</text>
</a>
</g>
</g>
<!-- Node4&#45;&gt;Node3 -->
<g id="edge1" class="edge">
<title>Node4&#45;&gt;Node3</title>
<path fill="none" stroke="#191970" d="M77.6573,-211.1762C77.5412,-202.4281 77.4998,-193.4497 77.5331,-184.5373"/>
<polygon fill="none" stroke="#191970" points="74.1602,-211.3824 77.8279,-221.3221 81.1592,-211.2647 74.1602,-211.3824"/>
</g>
<!-- Node4&#45;&gt;Node3 -->
<g id="edge4" class="edge">
<title>Node4&#45;&gt;Node3</title>
<path fill="none" stroke="#191970" d="M90.8866,-211.1762C91.0027,-202.4281 91.0441,-193.4497 91.0109,-184.5373"/>
<polygon fill="none" stroke="#191970" points="87.3847,-211.2647 90.716,-221.3221 94.3838,-211.3824 87.3847,-211.2647"/>
</g>
<!-- Node5 -->
<g id="node3" class="node">
<title>Node5</title>
<polygon fill="#ffffff" stroke="#bfbfbf" points="50.9863,-392.5 50.9863,-446.5 117.5576,-446.5 117.5576,-392.5 50.9863,-392.5"/>
<text text-anchor="middle" x="84.272" y="-434.5" font-family="Helvetica,sans-Serif" font-size="10.00" fill="#000000">CController</text>
<polyline fill="none" stroke="#bfbfbf" points="50.9863,-428.5 117.5576,-428.5 "/>
<text text-anchor="middle" x="84.272" y="-416.5" font-family="Helvetica,sans-Serif" font-size="10.00" fill="#000000"> </text>
<polyline fill="none" stroke="#bfbfbf" points="50.9863,-410.5 117.5576,-410.5 "/>
<text text-anchor="middle" x="84.272" y="-398.5" font-family="Helvetica,sans-Serif" font-size="10.00" fill="#000000"> </text>
</g>
<!-- Node5&#45;&gt;Node4 -->
<g id="edge2" class="edge">
<title>Node5&#45;&gt;Node4</title>
<path fill="none" stroke="#191970" d="M78.1134,-382.2321C77.7409,-373.8764 77.5444,-364.7626 77.5238,-355.607"/>
<polygon fill="none" stroke="#191970" points="74.6266,-382.5676 78.6792,-392.3567 81.6156,-382.1769 74.6266,-382.5676"/>
</g>
<!-- Node5&#45;&gt;Node4 -->
<g id="edge3" class="edge">
<title>Node5&#45;&gt;Node4</title>
<path fill="none" stroke="#191970" d="M90.4306,-382.2321C90.8031,-373.8764 90.9996,-364.7626 91.0202,-355.607"/>
<polygon fill="none" stroke="#191970" points="86.9283,-382.1769 89.8647,-392.3567 93.9174,-382.5676 86.9283,-382.1769"/>
</g>
</g>
</svg>
