<?xml version="1.0" encoding="UTF-8" standalone="no"?>
<!DOCTYPE svg PUBLIC "-//W3C//DTD SVG 1.1//EN"
 "http://www.w3.org/Graphics/SVG/1.1/DTD/svg11.dtd">
<!-- Generated by graphviz version 2.40.1 (20161225.0304)
 -->
<!-- Title: Kyiv Pages: 1 -->
<svg width="62pt" height="154pt"
 viewBox="0.00 0.00 62.34 154.00" xmlns="http://www.w3.org/2000/svg" xmlns:xlink="http://www.w3.org/1999/xlink">
<g id="graph0" class="graph" transform="scale(1 1) rotate(0) translate(4 150)">
<title>Kyiv</title>
<polygon fill="#ffffff" stroke="transparent" points="-4,4 -4,-150 58.3447,-150 58.3447,4 -4,4"/>
<!-- Node0 -->
<g id="node1" class="node">
<title>Node0</title>
<polygon fill="#bfbfbf" stroke="#000000" points="5.1416,-.5 5.1416,-54.5 49.2031,-54.5 49.2031,-.5 5.1416,-.5"/>
<text text-anchor="middle" x="27.1724" y="-42.5" font-family="Helvetica,sans-Serif" font-size="10.00" fill="#000000">Kyiv</text>
<polyline fill="none" stroke="#000000" points="5.1416,-36.5 49.2031,-36.5 "/>
<text text-anchor="middle" x="27.1724" y="-24.5" font-family="Helvetica,sans-Serif" font-size="10.00" fill="#000000"> </text>
<polyline fill="none" stroke="#000000" points="5.1416,-18.5 49.2031,-18.5 "/>
<text text-anchor="start" x="13.1416" y="-6.5" font-family="Helvetica,sans-Serif" font-size="10.00" fill="#000000">+ init()</text>
</g>
<!-- Node1 -->
<g id="node2" class="node">
<title>Node1</title>
<polygon fill="#ffffff" stroke="#bfbfbf" points="0,-91.5 0,-145.5 54.3447,-145.5 54.3447,-91.5 0,-91.5"/>
<text text-anchor="middle" x="27.1724" y="-133.5" font-family="Helvetica,sans-Serif" font-size="10.00" fill="#000000">CWidget</text>
<polyline fill="none" stroke="#bfbfbf" points="0,-127.5 54.3447,-127.5 "/>
<text text-anchor="middle" x="27.1724" y="-115.5" font-family="Helvetica,sans-Serif" font-size="10.00" fill="#000000"> </text>
<polyline fill="none" stroke="#bfbfbf" points="0,-109.5 54.3447,-109.5 "/>
<text text-anchor="middle" x="27.1724" y="-97.5" font-family="Helvetica,sans-Serif" font-size="10.00" fill="#000000"> </text>
</g>
<!-- Node1&#45;&gt;Node0 -->
<g id="edge1" class="edge">
<title>Node1&#45;&gt;Node0</title>
<path fill="none" stroke="#191970" d="M27.1724,-81.12C27.1724,-72.3006 27.1724,-63.0605 27.1724,-54.7837"/>
<polygon fill="none" stroke="#191970" points="23.6725,-81.197 27.1724,-91.197 30.6725,-81.197 23.6725,-81.197"/>
</g>
</g>
</svg>
