<?xml version="1.0" encoding="UTF-8" standalone="no"?>
<!DOCTYPE svg PUBLIC "-//W3C//DTD SVG 1.1//EN"
 "http://www.w3.org/Graphics/SVG/1.1/DTD/svg11.dtd">
<!-- Generated by graphviz version 2.40.1 (20161225.0304)
 -->
<!-- Title: UserSelectedLists Pages: 1 -->
<svg width="174pt" height="264pt"
 viewBox="0.00 0.00 174.35 264.00" xmlns="http://www.w3.org/2000/svg" xmlns:xlink="http://www.w3.org/1999/xlink">
<g id="graph0" class="graph" transform="scale(1 1) rotate(0) translate(4 260)">
<title>UserSelectedLists</title>
<polygon fill="#ffffff" stroke="transparent" points="-4,4 -4,-260 170.3516,-260 170.3516,4 -4,4"/>
<!-- Node2 -->
<g id="node1" class="node">
<title>Node2</title>
<polygon fill="#bfbfbf" stroke="#000000" points="0,-.5 0,-164.5 166.3516,-164.5 166.3516,-.5 0,-.5"/>
<text text-anchor="middle" x="83.1758" y="-152.5" font-family="Helvetica,sans-Serif" font-size="10.00" fill="#000000">UserSelectedLists</text>
<polyline fill="none" stroke="#000000" points="0,-146.5 166.3516,-146.5 "/>
<text text-anchor="middle" x="83.1758" y="-134.5" font-family="Helvetica,sans-Serif" font-size="10.00" fill="#000000"> </text>
<polyline fill="none" stroke="#000000" points="0,-128.5 166.3516,-128.5 "/>
<text text-anchor="start" x="8" y="-116.5" font-family="Helvetica,sans-Serif" font-size="10.00" fill="#000000">+ tableName()</text>
<text text-anchor="start" x="8" y="-106.5" font-family="Helvetica,sans-Serif" font-size="10.00" fill="#000000">+ rules()</text>
<text text-anchor="start" x="8" y="-96.5" font-family="Helvetica,sans-Serif" font-size="10.00" fill="#000000">+ relations()</text>
<text text-anchor="start" x="8" y="-86.5" font-family="Helvetica,sans-Serif" font-size="10.00" fill="#000000">+ behaviors()</text>
<text text-anchor="start" x="8" y="-76.5" font-family="Helvetica,sans-Serif" font-size="10.00" fill="#000000">+ getNotSentHoles()</text>
<text text-anchor="start" x="8" y="-66.5" font-family="Helvetica,sans-Serif" font-size="10.00" fill="#000000">+ getSentedHoles()</text>
<text text-anchor="start" x="8" y="-56.5" font-family="Helvetica,sans-Serif" font-size="10.00" fill="#000000">+ getSentedHolesHasAnswer()</text>
<text text-anchor="start" x="8" y="-46.5" font-family="Helvetica,sans-Serif" font-size="10.00" fill="#000000">+ getSentedHolesHasNoAnswer()</text>
<text text-anchor="start" x="8" y="-36.5" font-family="Helvetica,sans-Serif" font-size="10.00" fill="#000000">+ beforeDelete()</text>
<text text-anchor="start" x="8" y="-26.5" font-family="Helvetica,sans-Serif" font-size="10.00" fill="#000000">+ attributeLabels()</text>
<text text-anchor="start" x="8" y="-16.5" font-family="Helvetica,sans-Serif" font-size="10.00" fill="#000000">+ search()</text>
<text text-anchor="start" x="8" y="-6.5" font-family="Helvetica,sans-Serif" font-size="10.00" fill="#000000">+ model()</text>
</g>
<!-- Node3 -->
<g id="node2" class="node">
<title>Node3</title>
<polygon fill="#ffffff" stroke="#bfbfbf" points="41.8311,-201.5 41.8311,-255.5 124.5205,-255.5 124.5205,-201.5 41.8311,-201.5"/>
<text text-anchor="middle" x="83.1758" y="-243.5" font-family="Helvetica,sans-Serif" font-size="10.00" fill="#000000">CActiveRecord</text>
<polyline fill="none" stroke="#bfbfbf" points="41.8311,-237.5 124.5205,-237.5 "/>
<text text-anchor="middle" x="83.1758" y="-225.5" font-family="Helvetica,sans-Serif" font-size="10.00" fill="#000000"> </text>
<polyline fill="none" stroke="#bfbfbf" points="41.8311,-219.5 124.5205,-219.5 "/>
<text text-anchor="middle" x="83.1758" y="-207.5" font-family="Helvetica,sans-Serif" font-size="10.00" fill="#000000"> </text>
</g>
<!-- Node3&#45;&gt;Node2 -->
<g id="edge1" class="edge">
<title>Node3&#45;&gt;Node2</title>
<path fill="none" stroke="#191970" d="M83.1758,-191.3747C83.1758,-183.0924 83.1758,-173.9901 83.1758,-164.6855"/>
<polygon fill="none" stroke="#191970" points="79.6759,-191.3806 83.1758,-201.3807 86.6759,-191.3807 79.6759,-191.3806"/>
</g>
</g>
</svg>
