<?xml version="1.0" encoding="UTF-8" standalone="no"?>
<!DOCTYPE svg PUBLIC "-//W3C//DTD SVG 1.1//EN"
 "http://www.w3.org/Graphics/SVG/1.1/DTD/svg11.dtd">
<!-- Generated by graphviz version 2.40.1 (20161225.0304)
 -->
<!-- Title: Google_BucketVersioning Pages: 1 -->
<svg width="139pt" height="204pt"
 viewBox="0.00 0.00 139.08 204.00" xmlns="http://www.w3.org/2000/svg" xmlns:xlink="http://www.w3.org/1999/xlink">
<g id="graph0" class="graph" transform="scale(1 1) rotate(0) translate(4 200)">
<title>Google_BucketVersioning</title>
<polygon fill="#ffffff" stroke="transparent" points="-4,4 -4,-200 135.083,-200 135.083,4 -4,4"/>
<!-- Node2 -->
<g id="node1" class="node">
<title>Node2</title>
<polygon fill="#bfbfbf" stroke="#000000" points="0,-.5 0,-64.5 131.083,-64.5 131.083,-.5 0,-.5"/>
<text text-anchor="middle" x="65.5415" y="-52.5" font-family="Helvetica,sans-Serif" font-size="10.00" fill="#000000">Google_BucketVersioning</text>
<polyline fill="none" stroke="#000000" points="0,-46.5 131.083,-46.5 "/>
<text text-anchor="start" x="8" y="-34.5" font-family="Helvetica,sans-Serif" font-size="10.00" fill="#000000">+ $enabled</text>
<polyline fill="none" stroke="#000000" points="0,-28.5 131.083,-28.5 "/>
<text text-anchor="start" x="8" y="-16.5" font-family="Helvetica,sans-Serif" font-size="10.00" fill="#000000">+ setEnabled()</text>
<text text-anchor="start" x="8" y="-6.5" font-family="Helvetica,sans-Serif" font-size="10.00" fill="#000000">+ getEnabled()</text>
</g>
<!-- Node3 -->
<g id="node2" class="node">
<title>Node3</title>
<g id="a_node2"><a xlink:href="class_google___model.html" target="_top" xlink:title="{Google_Model\n||+ __construct()\l+ assertIsArray()\l# mapTypes()\l# isAssociativeArray()\l# useObjects()\l}">
<polygon fill="#ffffff" stroke="#000000" points="9.1968,-101.5 9.1968,-195.5 121.8862,-195.5 121.8862,-101.5 9.1968,-101.5"/>
<text text-anchor="middle" x="65.5415" y="-183.5" font-family="Helvetica,sans-Serif" font-size="10.00" fill="#000000">Google_Model</text>
<polyline fill="none" stroke="#000000" points="9.1968,-177.5 121.8862,-177.5 "/>
<text text-anchor="middle" x="65.5415" y="-165.5" font-family="Helvetica,sans-Serif" font-size="10.00" fill="#000000"> </text>
<polyline fill="none" stroke="#000000" points="9.1968,-159.5 121.8862,-159.5 "/>
<text text-anchor="start" x="17.1968" y="-147.5" font-family="Helvetica,sans-Serif" font-size="10.00" fill="#000000">+ __construct()</text>
<text text-anchor="start" x="17.1968" y="-137.5" font-family="Helvetica,sans-Serif" font-size="10.00" fill="#000000">+ assertIsArray()</text>
<text text-anchor="start" x="17.1968" y="-127.5" font-family="Helvetica,sans-Serif" font-size="10.00" fill="#000000"># mapTypes()</text>
<text text-anchor="start" x="17.1968" y="-117.5" font-family="Helvetica,sans-Serif" font-size="10.00" fill="#000000"># isAssociativeArray()</text>
<text text-anchor="start" x="17.1968" y="-107.5" font-family="Helvetica,sans-Serif" font-size="10.00" fill="#000000"># useObjects()</text>
</a>
</g>
</g>
<!-- Node3&#45;&gt;Node2 -->
<g id="edge1" class="edge">
<title>Node3&#45;&gt;Node2</title>
<path fill="none" stroke="#191970" d="M65.5415,-91.1299C65.5415,-82.0561 65.5415,-72.9618 65.5415,-64.7354"/>
<polygon fill="none" stroke="#191970" points="62.0416,-91.3183 65.5415,-101.3184 69.0416,-91.3184 62.0416,-91.3183"/>
</g>
</g>
</svg>
