<?xml version="1.0" encoding="UTF-8" standalone="no"?>
<!DOCTYPE svg PUBLIC "-//W3C//DTD SVG 1.1//EN"
 "http://www.w3.org/Graphics/SVG/1.1/DTD/svg11.dtd">
<!-- Generated by graphviz version 2.40.1 (20161225.0304)
 -->
<!-- Title: EOAuthProvider Pages: 1 -->
<svg width="153pt" height="295pt"
 viewBox="0.00 0.00 153.27 295.00" xmlns="http://www.w3.org/2000/svg" xmlns:xlink="http://www.w3.org/1999/xlink">
<g id="graph0" class="graph" transform="scale(1 1) rotate(0) translate(4 291)">
<title>EOAuthProvider</title>
<polygon fill="#ffffff" stroke="transparent" points="-4,4 -4,-291 149.2725,-291 149.2725,4 -4,4"/>
<!-- Node3 -->
<g id="node1" class="node">
<title>Node3</title>
<polygon fill="#bfbfbf" stroke="#000000" points="0,-.5 0,-104.5 145.2725,-104.5 145.2725,-.5 0,-.5"/>
<text text-anchor="middle" x="72.6362" y="-92.5" font-family="Helvetica,sans-Serif" font-size="10.00" fill="#000000">EOAuthProvider</text>
<polyline fill="none" stroke="#000000" points="0,-86.5 145.2725,-86.5 "/>
<text text-anchor="start" x="8" y="-74.5" font-family="Helvetica,sans-Serif" font-size="10.00" fill="#000000">+ $consumer</text>
<text text-anchor="start" x="8" y="-64.5" font-family="Helvetica,sans-Serif" font-size="10.00" fill="#000000">+ $token</text>
<text text-anchor="start" x="8" y="-54.5" font-family="Helvetica,sans-Serif" font-size="10.00" fill="#000000">+ $request_token_endpoint</text>
<text text-anchor="start" x="8" y="-44.5" font-family="Helvetica,sans-Serif" font-size="10.00" fill="#000000">+ $authorize_token_endpoint</text>
<text text-anchor="start" x="8" y="-34.5" font-family="Helvetica,sans-Serif" font-size="10.00" fill="#000000">+ $access_token_endpoint</text>
<polyline fill="none" stroke="#000000" points="0,-28.5 145.2725,-28.5 "/>
<text text-anchor="start" x="8" y="-16.5" font-family="Helvetica,sans-Serif" font-size="10.00" fill="#000000">+ __construct()</text>
<text text-anchor="start" x="8" y="-6.5" font-family="Helvetica,sans-Serif" font-size="10.00" fill="#000000">+ GetOAuthHeader()</text>
</g>
<!-- Node4 -->
<g id="node2" class="node">
<title>Node4</title>
<g id="a_node2"><a xlink:href="class_e_o_auth_component.html" target="_top" xlink:title="{EOAuthComponent\n||}">
<polygon fill="#ffffff" stroke="#000000" points="21.2769,-141.5 21.2769,-195.5 123.9956,-195.5 123.9956,-141.5 21.2769,-141.5"/>
<text text-anchor="middle" x="72.6362" y="-183.5" font-family="Helvetica,sans-Serif" font-size="10.00" fill="#000000">EOAuthComponent</text>
<polyline fill="none" stroke="#000000" points="21.2769,-177.5 123.9956,-177.5 "/>
<text text-anchor="middle" x="72.6362" y="-165.5" font-family="Helvetica,sans-Serif" font-size="10.00" fill="#000000"> </text>
<polyline fill="none" stroke="#000000" points="21.2769,-159.5 123.9956,-159.5 "/>
<text text-anchor="middle" x="72.6362" y="-147.5" font-family="Helvetica,sans-Serif" font-size="10.00" fill="#000000"> </text>
</a>
</g>
</g>
<!-- Node4&#45;&gt;Node3 -->
<g id="edge1" class="edge">
<title>Node4&#45;&gt;Node3</title>
<path fill="none" stroke="#191970" d="M72.6362,-131.0375C72.6362,-122.6013 72.6362,-113.4994 72.6362,-104.5858"/>
<polygon fill="none" stroke="#191970" points="69.1363,-131.3031 72.6362,-141.3032 76.1363,-131.3032 69.1363,-131.3031"/>
</g>
<!-- Node5 -->
<g id="node3" class="node">
<title>Node5</title>
<polygon fill="#ffffff" stroke="#bfbfbf" points="35.1758,-232.5 35.1758,-286.5 110.0967,-286.5 110.0967,-232.5 35.1758,-232.5"/>
<text text-anchor="middle" x="72.6362" y="-274.5" font-family="Helvetica,sans-Serif" font-size="10.00" fill="#000000">CComponent</text>
<polyline fill="none" stroke="#bfbfbf" points="35.1758,-268.5 110.0967,-268.5 "/>
<text text-anchor="middle" x="72.6362" y="-256.5" font-family="Helvetica,sans-Serif" font-size="10.00" fill="#000000"> </text>
<polyline fill="none" stroke="#bfbfbf" points="35.1758,-250.5 110.0967,-250.5 "/>
<text text-anchor="middle" x="72.6362" y="-238.5" font-family="Helvetica,sans-Serif" font-size="10.00" fill="#000000"> </text>
</g>
<!-- Node5&#45;&gt;Node4 -->
<g id="edge2" class="edge">
<title>Node5&#45;&gt;Node4</title>
<path fill="none" stroke="#191970" d="M72.6362,-222.12C72.6362,-213.3006 72.6362,-204.0605 72.6362,-195.7837"/>
<polygon fill="none" stroke="#191970" points="69.1363,-222.197 72.6362,-232.197 76.1363,-222.197 69.1363,-222.197"/>
</g>
</g>
</svg>
