<?xml version="1.0" encoding="UTF-8" standalone="no"?>
<!DOCTYPE svg PUBLIC "-//W3C//DTD SVG 1.1//EN"
 "http://www.w3.org/Graphics/SVG/1.1/DTD/svg11.dtd">
<!-- Generated by graphviz version 2.40.1 (20161225.0304)
 -->
<!-- Title: Swift_Transport_SimpleMailInvoker Pages: 1 -->
<svg width="150pt" height="164pt"
 viewBox="0.00 0.00 150.35 164.00" xmlns="http://www.w3.org/2000/svg" xmlns:xlink="http://www.w3.org/1999/xlink">
<g id="graph0" class="graph" transform="scale(1 1) rotate(0) translate(4 160)">
<title>Swift_Transport_SimpleMailInvoker</title>
<polygon fill="#ffffff" stroke="transparent" points="-4,4 -4,-160 146.3477,-160 146.3477,4 -4,4"/>
<!-- Node2 -->
<g id="node1" class="node">
<title>Node2</title>
<polygon fill="#bfbfbf" stroke="#000000" points="1.1133,-.5 1.1133,-64.5 141.2344,-64.5 141.2344,-.5 1.1133,-.5"/>
<text text-anchor="start" x="9.1133" y="-52.5" font-family="Helvetica,sans-Serif" font-size="10.00" fill="#000000">Swift_Transport_SimpleMail</text>
<text text-anchor="middle" x="71.1738" y="-42.5" font-family="Helvetica,sans-Serif" font-size="10.00" fill="#000000">Invoker</text>
<polyline fill="none" stroke="#000000" points="1.1133,-36.5 141.2344,-36.5 "/>
<text text-anchor="middle" x="71.1738" y="-24.5" font-family="Helvetica,sans-Serif" font-size="10.00" fill="#000000"> </text>
<polyline fill="none" stroke="#000000" points="1.1133,-18.5 141.2344,-18.5 "/>
<text text-anchor="start" x="9.1133" y="-6.5" font-family="Helvetica,sans-Serif" font-size="10.00" fill="#000000">+ mail()</text>
</g>
<!-- Node3 -->
<g id="node2" class="node">
<title>Node3</title>
<g id="a_node2"><a xlink:href="interface_swift___transport___mail_invoker.html" target="_top" xlink:title="{Swift_Transport_MailInvoker\n||+ mail()\l}">
<polygon fill="#ffffff" stroke="#000000" points="0,-101.5 0,-155.5 142.3477,-155.5 142.3477,-101.5 0,-101.5"/>
<text text-anchor="middle" x="71.1738" y="-143.5" font-family="Helvetica,sans-Serif" font-size="10.00" fill="#000000">Swift_Transport_MailInvoker</text>
<polyline fill="none" stroke="#000000" points="0,-137.5 142.3477,-137.5 "/>
<text text-anchor="middle" x="71.1738" y="-125.5" font-family="Helvetica,sans-Serif" font-size="10.00" fill="#000000"> </text>
<polyline fill="none" stroke="#000000" points="0,-119.5 142.3477,-119.5 "/>
<text text-anchor="start" x="8" y="-107.5" font-family="Helvetica,sans-Serif" font-size="10.00" fill="#000000">+ mail()</text>
</a>
</g>
</g>
<!-- Node3&#45;&gt;Node2 -->
<g id="edge1" class="edge">
<title>Node3&#45;&gt;Node2</title>
<path fill="none" stroke="#191970" d="M71.1738,-91.2276C71.1738,-82.4295 71.1738,-73.1248 71.1738,-64.5792"/>
<polygon fill="none" stroke="#191970" points="67.6739,-91.247 71.1738,-101.247 74.6739,-91.2471 67.6739,-91.247"/>
</g>
</g>
</svg>
