<?xml version="1.0" encoding="UTF-8" standalone="no"?>
<!DOCTYPE svg PUBLIC "-//W3C//DTD SVG 1.1//EN"
 "http://www.w3.org/Graphics/SVG/1.1/DTD/svg11.dtd">
<!-- Generated by graphviz version 2.40.1 (20161225.0304)
 -->
<!-- Title: Google_UsageReportsWarningsData Pages: 1 -->
<svg width="189pt" height="234pt"
 viewBox="0.00 0.00 188.72 234.00" xmlns="http://www.w3.org/2000/svg" xmlns:xlink="http://www.w3.org/1999/xlink">
<g id="graph0" class="graph" transform="scale(1 1) rotate(0) translate(4 230)">
<title>Google_UsageReportsWarningsData</title>
<polygon fill="#ffffff" stroke="transparent" points="-4,4 -4,-230 184.7217,-230 184.7217,4 -4,4"/>
<!-- Node0 -->
<g id="node1" class="node">
<title>Node0</title>
<polygon fill="#bfbfbf" stroke="#000000" points="0,-.5 0,-94.5 180.7217,-94.5 180.7217,-.5 0,-.5"/>
<text text-anchor="middle" x="90.3608" y="-82.5" font-family="Helvetica,sans-Serif" font-size="10.00" fill="#000000">Google_UsageReportsWarningsData</text>
<polyline fill="none" stroke="#000000" points="0,-76.5 180.7217,-76.5 "/>
<text text-anchor="start" x="8" y="-64.5" font-family="Helvetica,sans-Serif" font-size="10.00" fill="#000000">+ $key</text>
<text text-anchor="start" x="8" y="-54.5" font-family="Helvetica,sans-Serif" font-size="10.00" fill="#000000">+ $value</text>
<polyline fill="none" stroke="#000000" points="0,-48.5 180.7217,-48.5 "/>
<text text-anchor="start" x="8" y="-36.5" font-family="Helvetica,sans-Serif" font-size="10.00" fill="#000000">+ setKey()</text>
<text text-anchor="start" x="8" y="-26.5" font-family="Helvetica,sans-Serif" font-size="10.00" fill="#000000">+ getKey()</text>
<text text-anchor="start" x="8" y="-16.5" font-family="Helvetica,sans-Serif" font-size="10.00" fill="#000000">+ setValue()</text>
<text text-anchor="start" x="8" y="-6.5" font-family="Helvetica,sans-Serif" font-size="10.00" fill="#000000">+ getValue()</text>
</g>
<!-- Node1 -->
<g id="node2" class="node">
<title>Node1</title>
<g id="a_node2"><a xlink:href="class_google___model.html" target="_top" xlink:title="{Google_Model\n||+ __construct()\l+ assertIsArray()\l# mapTypes()\l# isAssociativeArray()\l# useObjects()\l}">
<polygon fill="#ffffff" stroke="#000000" points="34.0161,-131.5 34.0161,-225.5 146.7056,-225.5 146.7056,-131.5 34.0161,-131.5"/>
<text text-anchor="middle" x="90.3608" y="-213.5" font-family="Helvetica,sans-Serif" font-size="10.00" fill="#000000">Google_Model</text>
<polyline fill="none" stroke="#000000" points="34.0161,-207.5 146.7056,-207.5 "/>
<text text-anchor="middle" x="90.3608" y="-195.5" font-family="Helvetica,sans-Serif" font-size="10.00" fill="#000000"> </text>
<polyline fill="none" stroke="#000000" points="34.0161,-189.5 146.7056,-189.5 "/>
<text text-anchor="start" x="42.0161" y="-177.5" font-family="Helvetica,sans-Serif" font-size="10.00" fill="#000000">+ __construct()</text>
<text text-anchor="start" x="42.0161" y="-167.5" font-family="Helvetica,sans-Serif" font-size="10.00" fill="#000000">+ assertIsArray()</text>
<text text-anchor="start" x="42.0161" y="-157.5" font-family="Helvetica,sans-Serif" font-size="10.00" fill="#000000"># mapTypes()</text>
<text text-anchor="start" x="42.0161" y="-147.5" font-family="Helvetica,sans-Serif" font-size="10.00" fill="#000000"># isAssociativeArray()</text>
<text text-anchor="start" x="42.0161" y="-137.5" font-family="Helvetica,sans-Serif" font-size="10.00" fill="#000000"># useObjects()</text>
</a>
</g>
</g>
<!-- Node1&#45;&gt;Node0 -->
<g id="edge1" class="edge">
<title>Node1&#45;&gt;Node0</title>
<path fill="none" stroke="#191970" d="M90.3608,-121.0214C90.3608,-112.2362 90.3608,-103.2556 90.3608,-94.7246"/>
<polygon fill="none" stroke="#191970" points="86.8609,-121.206 90.3608,-131.206 93.8609,-121.206 86.8609,-121.206"/>
</g>
</g>
</svg>
