<?xml version="1.0" encoding="UTF-8" standalone="no"?>
<!DOCTYPE svg PUBLIC "-//W3C//DTD SVG 1.1//EN"
 "http://www.w3.org/Graphics/SVG/1.1/DTD/svg11.dtd">
<!-- Generated by graphviz version 2.40.1 (20161225.0304)
 -->
<!-- Title: Google_PlayersServiceResource Pages: 1 -->
<svg width="171pt" height="204pt"
 viewBox="0.00 0.00 171.29 204.00" xmlns="http://www.w3.org/2000/svg" xmlns:xlink="http://www.w3.org/1999/xlink">
<g id="graph0" class="graph" transform="scale(1 1) rotate(0) translate(4 200)">
<title>Google_PlayersServiceResource</title>
<polygon fill="#ffffff" stroke="transparent" points="-4,4 -4,-200 167.2949,-200 167.2949,4 -4,4"/>
<!-- Node2 -->
<g id="node1" class="node">
<title>Node2</title>
<polygon fill="#bfbfbf" stroke="#000000" points="0,-.5 0,-74.5 163.2949,-74.5 163.2949,-.5 0,-.5"/>
<text text-anchor="middle" x="81.6475" y="-62.5" font-family="Helvetica,sans-Serif" font-size="10.00" fill="#000000">Google_PlayersServiceResource</text>
<polyline fill="none" stroke="#000000" points="0,-56.5 163.2949,-56.5 "/>
<text text-anchor="middle" x="81.6475" y="-44.5" font-family="Helvetica,sans-Serif" font-size="10.00" fill="#000000"> </text>
<polyline fill="none" stroke="#000000" points="0,-38.5 163.2949,-38.5 "/>
<text text-anchor="start" x="8" y="-26.5" font-family="Helvetica,sans-Serif" font-size="10.00" fill="#000000">+ hide()</text>
<text text-anchor="start" x="8" y="-16.5" font-family="Helvetica,sans-Serif" font-size="10.00" fill="#000000">+ unhide()</text>
<text text-anchor="start" x="8" y="-6.5" font-family="Helvetica,sans-Serif" font-size="10.00" fill="#000000">+ get()</text>
</g>
<!-- Node3 -->
<g id="node2" class="node">
<title>Node3</title>
<g id="a_node2"><a xlink:href="class_google___service_resource.html" target="_top" xlink:title="{Google_ServiceResource\n||+ __construct()\l+ __call()\l+ useObjects()\l# stripNull()\l}">
<polygon fill="#ffffff" stroke="#000000" points="16.6724,-111.5 16.6724,-195.5 146.6226,-195.5 146.6226,-111.5 16.6724,-111.5"/>
<text text-anchor="middle" x="81.6475" y="-183.5" font-family="Helvetica,sans-Serif" font-size="10.00" fill="#000000">Google_ServiceResource</text>
<polyline fill="none" stroke="#000000" points="16.6724,-177.5 146.6226,-177.5 "/>
<text text-anchor="middle" x="81.6475" y="-165.5" font-family="Helvetica,sans-Serif" font-size="10.00" fill="#000000"> </text>
<polyline fill="none" stroke="#000000" points="16.6724,-159.5 146.6226,-159.5 "/>
<text text-anchor="start" x="24.6724" y="-147.5" font-family="Helvetica,sans-Serif" font-size="10.00" fill="#000000">+ __construct()</text>
<text text-anchor="start" x="24.6724" y="-137.5" font-family="Helvetica,sans-Serif" font-size="10.00" fill="#000000">+ __call()</text>
<text text-anchor="start" x="24.6724" y="-127.5" font-family="Helvetica,sans-Serif" font-size="10.00" fill="#000000">+ useObjects()</text>
<text text-anchor="start" x="24.6724" y="-117.5" font-family="Helvetica,sans-Serif" font-size="10.00" fill="#000000"># stripNull()</text>
</a>
</g>
</g>
<!-- Node3&#45;&gt;Node2 -->
<g id="edge1" class="edge">
<title>Node3&#45;&gt;Node2</title>
<path fill="none" stroke="#191970" d="M74.9251,-101.0572C74.8371,-92.2275 74.9594,-83.2244 75.292,-74.8766"/>
<polygon fill="none" stroke="#191970" points="71.4303,-101.3635 75.125,-111.2932 78.429,-101.2267 71.4303,-101.3635"/>
</g>
<!-- Node3&#45;&gt;Node2 -->
<g id="edge2" class="edge">
<title>Node3&#45;&gt;Node2</title>
<path fill="none" stroke="#191970" d="M88.3698,-101.0572C88.4578,-92.2275 88.3355,-83.2244 88.0029,-74.8766"/>
<polygon fill="none" stroke="#191970" points="84.866,-101.2267 88.1699,-111.2932 91.8646,-101.3635 84.866,-101.2267"/>
</g>
</g>
</svg>
