<?xml version="1.0" encoding="UTF-8" standalone="no"?>
<!DOCTYPE svg PUBLIC "-//W3C//DTD SVG 1.1//EN"
 "http://www.w3.org/Graphics/SVG/1.1/DTD/svg11.dtd">
<!-- Generated by graphviz version 2.40.1 (20161225.0304)
 -->
<!-- Title: EOAuthComponent Pages: 1 -->
<svg width="426pt" height="355pt"
 viewBox="0.00 0.00 425.91 355.00" xmlns="http://www.w3.org/2000/svg" xmlns:xlink="http://www.w3.org/1999/xlink">
<g id="graph0" class="graph" transform="scale(1 1) rotate(0) translate(4 351)">
<title>EOAuthComponent</title>
<polygon fill="#ffffff" stroke="transparent" points="-4,4 -4,-351 421.9058,-351 421.9058,4 -4,4"/>
<!-- Node0 -->
<g id="node1" class="node">
<title>Node0</title>
<polygon fill="#bfbfbf" stroke="#000000" points="171.2769,-201.5 171.2769,-255.5 273.9956,-255.5 273.9956,-201.5 171.2769,-201.5"/>
<text text-anchor="middle" x="222.6362" y="-243.5" font-family="Helvetica,sans-Serif" font-size="10.00" fill="#000000">EOAuthComponent</text>
<polyline fill="none" stroke="#000000" points="171.2769,-237.5 273.9956,-237.5 "/>
<text text-anchor="middle" x="222.6362" y="-225.5" font-family="Helvetica,sans-Serif" font-size="10.00" fill="#000000"> </text>
<polyline fill="none" stroke="#000000" points="171.2769,-219.5 273.9956,-219.5 "/>
<text text-anchor="middle" x="222.6362" y="-207.5" font-family="Helvetica,sans-Serif" font-size="10.00" fill="#000000"> </text>
</g>
<!-- Node2 -->
<g id="node3" class="node">
<title>Node2</title>
<g id="a_node3"><a xlink:href="class_e_o_auth_provider.html" target="_top" xlink:title="{EOAuthProvider\n|+ $consumer\l+ $token\l+ $request_token_endpoint\l+ $authorize_token_endpoint\l+ $access_token_endpoint\l|+ __construct()\l+ GetOAuthHeader()\l}">
<polygon fill="#ffffff" stroke="#000000" points="0,-30.5 0,-134.5 145.2725,-134.5 145.2725,-30.5 0,-30.5"/>
<text text-anchor="middle" x="72.6362" y="-122.5" font-family="Helvetica,sans-Serif" font-size="10.00" fill="#000000">EOAuthProvider</text>
<polyline fill="none" stroke="#000000" points="0,-116.5 145.2725,-116.5 "/>
<text text-anchor="start" x="8" y="-104.5" font-family="Helvetica,sans-Serif" font-size="10.00" fill="#000000">+ $consumer</text>
<text text-anchor="start" x="8" y="-94.5" font-family="Helvetica,sans-Serif" font-size="10.00" fill="#000000">+ $token</text>
<text text-anchor="start" x="8" y="-84.5" font-family="Helvetica,sans-Serif" font-size="10.00" fill="#000000">+ $request_token_endpoint</text>
<text text-anchor="start" x="8" y="-74.5" font-family="Helvetica,sans-Serif" font-size="10.00" fill="#000000">+ $authorize_token_endpoint</text>
<text text-anchor="start" x="8" y="-64.5" font-family="Helvetica,sans-Serif" font-size="10.00" fill="#000000">+ $access_token_endpoint</text>
<polyline fill="none" stroke="#000000" points="0,-58.5 145.2725,-58.5 "/>
<text text-anchor="start" x="8" y="-46.5" font-family="Helvetica,sans-Serif" font-size="10.00" fill="#000000">+ __construct()</text>
<text text-anchor="start" x="8" y="-36.5" font-family="Helvetica,sans-Serif" font-size="10.00" fill="#000000">+ GetOAuthHeader()</text>
</a>
</g>
</g>
<!-- Node0&#45;&gt;Node2 -->
<g id="edge2" class="edge">
<title>Node0&#45;&gt;Node2</title>
<path fill="none" stroke="#191970" d="M185.4381,-194.2317C175.3707,-184.8305 164.5255,-174.5858 154.6362,-165 144.631,-155.3018 134.0621,-144.8382 123.9603,-134.7263"/>
<polygon fill="none" stroke="#191970" points="183.2524,-196.9789 192.9563,-201.2317 188.0224,-191.8557 183.2524,-196.9789"/>
</g>
<!-- Node3 -->
<g id="node4" class="node">
<title>Node3</title>
<g id="a_node4"><a xlink:href="class_e_o_auth_user_identity.html" target="_top" xlink:title="{EOAuthUserIdentity\n|+ $scope\l+ $key\l+ $secret\l|+ __construct()\l+ getError()\l+ setError()\l+ getIsAuthenticated()\l+ getId()\l+ getName()\l+ getPersistentStates()\l+ authenticate()\l+ setProvider()\l+ getProvider()\l}">
<polygon fill="#ffffff" stroke="#000000" points="163.6401,-.5 163.6401,-164.5 281.6323,-164.5 281.6323,-.5 163.6401,-.5"/>
<text text-anchor="middle" x="222.6362" y="-152.5" font-family="Helvetica,sans-Serif" font-size="10.00" fill="#000000">EOAuthUserIdentity</text>
<polyline fill="none" stroke="#000000" points="163.6401,-146.5 281.6323,-146.5 "/>
<text text-anchor="start" x="171.6401" y="-134.5" font-family="Helvetica,sans-Serif" font-size="10.00" fill="#000000">+ $scope</text>
<text text-anchor="start" x="171.6401" y="-124.5" font-family="Helvetica,sans-Serif" font-size="10.00" fill="#000000">+ $key</text>
<text text-anchor="start" x="171.6401" y="-114.5" font-family="Helvetica,sans-Serif" font-size="10.00" fill="#000000">+ $secret</text>
<polyline fill="none" stroke="#000000" points="163.6401,-108.5 281.6323,-108.5 "/>
<text text-anchor="start" x="171.6401" y="-96.5" font-family="Helvetica,sans-Serif" font-size="10.00" fill="#000000">+ __construct()</text>
<text text-anchor="start" x="171.6401" y="-86.5" font-family="Helvetica,sans-Serif" font-size="10.00" fill="#000000">+ getError()</text>
<text text-anchor="start" x="171.6401" y="-76.5" font-family="Helvetica,sans-Serif" font-size="10.00" fill="#000000">+ setError()</text>
<text text-anchor="start" x="171.6401" y="-66.5" font-family="Helvetica,sans-Serif" font-size="10.00" fill="#000000">+ getIsAuthenticated()</text>
<text text-anchor="start" x="171.6401" y="-56.5" font-family="Helvetica,sans-Serif" font-size="10.00" fill="#000000">+ getId()</text>
<text text-anchor="start" x="171.6401" y="-46.5" font-family="Helvetica,sans-Serif" font-size="10.00" fill="#000000">+ getName()</text>
<text text-anchor="start" x="171.6401" y="-36.5" font-family="Helvetica,sans-Serif" font-size="10.00" fill="#000000">+ getPersistentStates()</text>
<text text-anchor="start" x="171.6401" y="-26.5" font-family="Helvetica,sans-Serif" font-size="10.00" fill="#000000">+ authenticate()</text>
<text text-anchor="start" x="171.6401" y="-16.5" font-family="Helvetica,sans-Serif" font-size="10.00" fill="#000000">+ setProvider()</text>
<text text-anchor="start" x="171.6401" y="-6.5" font-family="Helvetica,sans-Serif" font-size="10.00" fill="#000000">+ getProvider()</text>
</a>
</g>
</g>
<!-- Node0&#45;&gt;Node3 -->
<g id="edge3" class="edge">
<title>Node0&#45;&gt;Node3</title>
<path fill="none" stroke="#191970" d="M222.6362,-191.3747C222.6362,-183.0924 222.6362,-173.9901 222.6362,-164.6855"/>
<polygon fill="none" stroke="#191970" points="219.1363,-191.3806 222.6362,-201.3807 226.1363,-191.3807 219.1363,-191.3806"/>
</g>
<!-- Node4 -->
<g id="node5" class="node">
<title>Node4</title>
<g id="a_node5"><a xlink:href="class_e_o_auth_utils.html" target="_top" xlink:title="{EOAuthUtils\n||+ GetRequestToken()\l+ GetAuthorizationUrl()\l+ GetAccessToken()\l}">
<polygon fill="#ffffff" stroke="#000000" points="299.3667,-45.5 299.3667,-119.5 417.9058,-119.5 417.9058,-45.5 299.3667,-45.5"/>
<text text-anchor="middle" x="358.6362" y="-107.5" font-family="Helvetica,sans-Serif" font-size="10.00" fill="#000000">EOAuthUtils</text>
<polyline fill="none" stroke="#000000" points="299.3667,-101.5 417.9058,-101.5 "/>
<text text-anchor="middle" x="358.6362" y="-89.5" font-family="Helvetica,sans-Serif" font-size="10.00" fill="#000000"> </text>
<polyline fill="none" stroke="#000000" points="299.3667,-83.5 417.9058,-83.5 "/>
<text text-anchor="start" x="307.3667" y="-71.5" font-family="Helvetica,sans-Serif" font-size="10.00" fill="#000000">+ GetRequestToken()</text>
<text text-anchor="start" x="307.3667" y="-61.5" font-family="Helvetica,sans-Serif" font-size="10.00" fill="#000000">+ GetAuthorizationUrl()</text>
<text text-anchor="start" x="307.3667" y="-51.5" font-family="Helvetica,sans-Serif" font-size="10.00" fill="#000000">+ GetAccessToken()</text>
</a>
</g>
</g>
<!-- Node0&#45;&gt;Node4 -->
<g id="edge4" class="edge">
<title>Node0&#45;&gt;Node4</title>
<path fill="none" stroke="#191970" d="M260.7257,-194.5675C270.7101,-185.2356 281.2914,-174.9413 290.6362,-165 304.1117,-150.6643 318.0862,-134.0559 329.8362,-119.5148"/>
<polygon fill="none" stroke="#191970" points="258.2016,-192.1345 253.2373,-201.4943 262.955,-197.2732 258.2016,-192.1345"/>
</g>
<!-- Node1 -->
<g id="node2" class="node">
<title>Node1</title>
<polygon fill="#ffffff" stroke="#bfbfbf" points="185.1758,-292.5 185.1758,-346.5 260.0967,-346.5 260.0967,-292.5 185.1758,-292.5"/>
<text text-anchor="middle" x="222.6362" y="-334.5" font-family="Helvetica,sans-Serif" font-size="10.00" fill="#000000">CComponent</text>
<polyline fill="none" stroke="#bfbfbf" points="185.1758,-328.5 260.0967,-328.5 "/>
<text text-anchor="middle" x="222.6362" y="-316.5" font-family="Helvetica,sans-Serif" font-size="10.00" fill="#000000"> </text>
<polyline fill="none" stroke="#bfbfbf" points="185.1758,-310.5 260.0967,-310.5 "/>
<text text-anchor="middle" x="222.6362" y="-298.5" font-family="Helvetica,sans-Serif" font-size="10.00" fill="#000000"> </text>
</g>
<!-- Node1&#45;&gt;Node0 -->
<g id="edge1" class="edge">
<title>Node1&#45;&gt;Node0</title>
<path fill="none" stroke="#191970" d="M222.6362,-282.12C222.6362,-273.3006 222.6362,-264.0605 222.6362,-255.7837"/>
<polygon fill="none" stroke="#191970" points="219.1363,-282.197 222.6362,-292.197 226.1363,-282.197 219.1363,-282.197"/>
</g>
</g>
</svg>
