<?xml version="1.0" encoding="UTF-8" standalone="no"?>
<!DOCTYPE svg PUBLIC "-//W3C//DTD SVG 1.1//EN"
 "http://www.w3.org/Graphics/SVG/1.1/DTD/svg11.dtd">
<!-- Generated by graphviz version 2.40.1 (20161225.0304)
 -->
<!-- Title: Google_CommunityFollowServiceResource Pages: 1 -->
<svg width="175pt" height="204pt"
 viewBox="0.00 0.00 174.62 204.00" xmlns="http://www.w3.org/2000/svg" xmlns:xlink="http://www.w3.org/1999/xlink">
<g id="graph0" class="graph" transform="scale(1 1) rotate(0) translate(4 200)">
<title>Google_CommunityFollowServiceResource</title>
<polygon fill="#ffffff" stroke="transparent" points="-4,4 -4,-200 170.6152,-200 170.6152,4 -4,4"/>
<!-- Node0 -->
<g id="node1" class="node">
<title>Node0</title>
<polygon fill="#bfbfbf" stroke="#000000" points="0,-.5 0,-74.5 166.6152,-74.5 166.6152,-.5 0,-.5"/>
<text text-anchor="start" x="8" y="-62.5" font-family="Helvetica,sans-Serif" font-size="10.00" fill="#000000">Google_CommunityFollowService</text>
<text text-anchor="middle" x="83.3076" y="-52.5" font-family="Helvetica,sans-Serif" font-size="10.00" fill="#000000">Resource</text>
<polyline fill="none" stroke="#000000" points="0,-46.5 166.6152,-46.5 "/>
<text text-anchor="middle" x="83.3076" y="-34.5" font-family="Helvetica,sans-Serif" font-size="10.00" fill="#000000"> </text>
<polyline fill="none" stroke="#000000" points="0,-28.5 166.6152,-28.5 "/>
<text text-anchor="start" x="8" y="-16.5" font-family="Helvetica,sans-Serif" font-size="10.00" fill="#000000">+ delete()</text>
<text text-anchor="start" x="8" y="-6.5" font-family="Helvetica,sans-Serif" font-size="10.00" fill="#000000">+ insert()</text>
</g>
<!-- Node1 -->
<g id="node2" class="node">
<title>Node1</title>
<g id="a_node2"><a xlink:href="class_google___service_resource.html" target="_top" xlink:title="{Google_ServiceResource\n||+ __construct()\l+ __call()\l+ useObjects()\l# stripNull()\l}">
<polygon fill="#ffffff" stroke="#000000" points="18.3325,-111.5 18.3325,-195.5 148.2827,-195.5 148.2827,-111.5 18.3325,-111.5"/>
<text text-anchor="middle" x="83.3076" y="-183.5" font-family="Helvetica,sans-Serif" font-size="10.00" fill="#000000">Google_ServiceResource</text>
<polyline fill="none" stroke="#000000" points="18.3325,-177.5 148.2827,-177.5 "/>
<text text-anchor="middle" x="83.3076" y="-165.5" font-family="Helvetica,sans-Serif" font-size="10.00" fill="#000000"> </text>
<polyline fill="none" stroke="#000000" points="18.3325,-159.5 148.2827,-159.5 "/>
<text text-anchor="start" x="26.3325" y="-147.5" font-family="Helvetica,sans-Serif" font-size="10.00" fill="#000000">+ __construct()</text>
<text text-anchor="start" x="26.3325" y="-137.5" font-family="Helvetica,sans-Serif" font-size="10.00" fill="#000000">+ __call()</text>
<text text-anchor="start" x="26.3325" y="-127.5" font-family="Helvetica,sans-Serif" font-size="10.00" fill="#000000">+ useObjects()</text>
<text text-anchor="start" x="26.3325" y="-117.5" font-family="Helvetica,sans-Serif" font-size="10.00" fill="#000000"># stripNull()</text>
</a>
</g>
</g>
<!-- Node1&#45;&gt;Node0 -->
<g id="edge1" class="edge">
<title>Node1&#45;&gt;Node0</title>
<path fill="none" stroke="#191970" d="M83.3076,-101.0572C83.3076,-92.2275 83.3076,-83.2244 83.3076,-74.8766"/>
<polygon fill="none" stroke="#191970" points="79.8077,-101.2932 83.3076,-111.2932 86.8077,-101.2932 79.8077,-101.2932"/>
</g>
</g>
</svg>
