<?xml version="1.0" encoding="UTF-8" standalone="no"?>
<!DOCTYPE svg PUBLIC "-//W3C//DTD SVG 1.1//EN"
 "http://www.w3.org/Graphics/SVG/1.1/DTD/svg11.dtd">
<!-- Generated by graphviz version 2.40.1 (20161225.0304)
 -->
<!-- Title: Google_AccountsReportsServiceResource Pages: 1 -->
<svg width="171pt" height="204pt"
 viewBox="0.00 0.00 171.30 204.00" xmlns="http://www.w3.org/2000/svg" xmlns:xlink="http://www.w3.org/1999/xlink">
<g id="graph0" class="graph" transform="scale(1 1) rotate(0) translate(4 200)">
<title>Google_AccountsReportsServiceResource</title>
<polygon fill="#ffffff" stroke="transparent" points="-4,4 -4,-200 167.2998,-200 167.2998,4 -4,4"/>
<!-- Node0 -->
<g id="node1" class="node">
<title>Node0</title>
<polygon fill="#bfbfbf" stroke="#000000" points="0,-.5 0,-74.5 163.2998,-74.5 163.2998,-.5 0,-.5"/>
<text text-anchor="start" x="8" y="-62.5" font-family="Helvetica,sans-Serif" font-size="10.00" fill="#000000">Google_AccountsReportsService</text>
<text text-anchor="middle" x="81.6499" y="-52.5" font-family="Helvetica,sans-Serif" font-size="10.00" fill="#000000">Resource</text>
<polyline fill="none" stroke="#000000" points="0,-46.5 163.2998,-46.5 "/>
<text text-anchor="middle" x="81.6499" y="-34.5" font-family="Helvetica,sans-Serif" font-size="10.00" fill="#000000"> </text>
<polyline fill="none" stroke="#000000" points="0,-28.5 163.2998,-28.5 "/>
<text text-anchor="start" x="8" y="-16.5" font-family="Helvetica,sans-Serif" font-size="10.00" fill="#000000">+ generate()</text>
<text text-anchor="start" x="8" y="-6.5" font-family="Helvetica,sans-Serif" font-size="10.00" fill="#000000">+ generate()</text>
</g>
<!-- Node1 -->
<g id="node2" class="node">
<title>Node1</title>
<g id="a_node2"><a xlink:href="class_google___service_resource.html" target="_top" xlink:title="{Google_ServiceResource\n||+ __construct()\l+ __call()\l+ useObjects()\l# stripNull()\l}">
<polygon fill="#ffffff" stroke="#000000" points="16.6748,-111.5 16.6748,-195.5 146.625,-195.5 146.625,-111.5 16.6748,-111.5"/>
<text text-anchor="middle" x="81.6499" y="-183.5" font-family="Helvetica,sans-Serif" font-size="10.00" fill="#000000">Google_ServiceResource</text>
<polyline fill="none" stroke="#000000" points="16.6748,-177.5 146.625,-177.5 "/>
<text text-anchor="middle" x="81.6499" y="-165.5" font-family="Helvetica,sans-Serif" font-size="10.00" fill="#000000"> </text>
<polyline fill="none" stroke="#000000" points="16.6748,-159.5 146.625,-159.5 "/>
<text text-anchor="start" x="24.6748" y="-147.5" font-family="Helvetica,sans-Serif" font-size="10.00" fill="#000000">+ __construct()</text>
<text text-anchor="start" x="24.6748" y="-137.5" font-family="Helvetica,sans-Serif" font-size="10.00" fill="#000000">+ __call()</text>
<text text-anchor="start" x="24.6748" y="-127.5" font-family="Helvetica,sans-Serif" font-size="10.00" fill="#000000">+ useObjects()</text>
<text text-anchor="start" x="24.6748" y="-117.5" font-family="Helvetica,sans-Serif" font-size="10.00" fill="#000000"># stripNull()</text>
</a>
</g>
</g>
<!-- Node1&#45;&gt;Node0 -->
<g id="edge1" class="edge">
<title>Node1&#45;&gt;Node0</title>
<path fill="none" stroke="#191970" d="M74.9275,-101.0572C74.8395,-92.2275 74.9618,-83.2244 75.2944,-74.8766"/>
<polygon fill="none" stroke="#191970" points="71.4327,-101.3635 75.1274,-111.2932 78.4314,-101.2267 71.4327,-101.3635"/>
</g>
<!-- Node1&#45;&gt;Node0 -->
<g id="edge2" class="edge">
<title>Node1&#45;&gt;Node0</title>
<path fill="none" stroke="#191970" d="M88.3723,-101.0572C88.4603,-92.2275 88.338,-83.2244 88.0054,-74.8766"/>
<polygon fill="none" stroke="#191970" points="84.8684,-101.2267 88.1724,-111.2932 91.8671,-101.3635 84.8684,-101.2267"/>
</g>
</g>
</svg>
