<?xml version="1.0" encoding="UTF-8" standalone="no"?>
<!DOCTYPE svg PUBLIC "-//W3C//DTD SVG 1.1//EN"
 "http://www.w3.org/Graphics/SVG/1.1/DTD/svg11.dtd">
<!-- Generated by graphviz version 2.40.1 (20161225.0304)
 -->
<!-- Title: OAuthSignatureMethod Pages: 1 -->
<svg width="407pt" height="204pt"
 viewBox="0.00 0.00 406.51 204.00" xmlns="http://www.w3.org/2000/svg" xmlns:xlink="http://www.w3.org/1999/xlink">
<g id="graph0" class="graph" transform="scale(1 1) rotate(0) translate(4 200)">
<title>OAuthSignatureMethod</title>
<polygon fill="#ffffff" stroke="transparent" points="-4,4 -4,-200 402.5117,-200 402.5117,4 -4,4"/>
<!-- Node0 -->
<g id="node1" class="node">
<title>Node0</title>
<polygon fill="#bfbfbf" stroke="#000000" points="139,-141.5 139,-195.5 259.5117,-195.5 259.5117,-141.5 139,-141.5"/>
<text text-anchor="middle" x="199.2559" y="-183.5" font-family="Helvetica,sans-Serif" font-size="10.00" fill="#000000">OAuthSignatureMethod</text>
<polyline fill="none" stroke="#000000" points="139,-177.5 259.5117,-177.5 "/>
<text text-anchor="middle" x="199.2559" y="-165.5" font-family="Helvetica,sans-Serif" font-size="10.00" fill="#000000"> </text>
<polyline fill="none" stroke="#000000" points="139,-159.5 259.5117,-159.5 "/>
<text text-anchor="start" x="147" y="-147.5" font-family="Helvetica,sans-Serif" font-size="10.00" fill="#000000">+ check_signature()</text>
</g>
<!-- Node1 -->
<g id="node2" class="node">
<title>Node1</title>
<g id="a_node2"><a xlink:href="class_o_auth_signature_method___h_m_a_c___s_h_a1.html" target="_top" xlink:title="{OAuthSignatureMethod\l_HMAC_SHA1\n||+ get_name()\l+ build_signature()\l}">
<polygon fill="#ffffff" stroke="#000000" points="0,-15.5 0,-89.5 120.5117,-89.5 120.5117,-15.5 0,-15.5"/>
<text text-anchor="start" x="8" y="-77.5" font-family="Helvetica,sans-Serif" font-size="10.00" fill="#000000">OAuthSignatureMethod</text>
<text text-anchor="middle" x="60.2559" y="-67.5" font-family="Helvetica,sans-Serif" font-size="10.00" fill="#000000">_HMAC_SHA1</text>
<polyline fill="none" stroke="#000000" points="0,-61.5 120.5117,-61.5 "/>
<text text-anchor="middle" x="60.2559" y="-49.5" font-family="Helvetica,sans-Serif" font-size="10.00" fill="#000000"> </text>
<polyline fill="none" stroke="#000000" points="0,-43.5 120.5117,-43.5 "/>
<text text-anchor="start" x="8" y="-31.5" font-family="Helvetica,sans-Serif" font-size="10.00" fill="#000000">+ get_name()</text>
<text text-anchor="start" x="8" y="-21.5" font-family="Helvetica,sans-Serif" font-size="10.00" fill="#000000">+ build_signature()</text>
</a>
</g>
</g>
<!-- Node0&#45;&gt;Node1 -->
<g id="edge1" class="edge">
<title>Node0&#45;&gt;Node1</title>
<path fill="none" stroke="#191970" d="M158.6128,-134.5821C141.708,-120.4744 122.0335,-104.0554 104.7426,-89.6256"/>
<polygon fill="none" stroke="#191970" points="156.7463,-137.583 166.6665,-141.3032 161.2314,-132.2086 156.7463,-137.583"/>
</g>
<!-- Node2 -->
<g id="node3" class="node">
<title>Node2</title>
<g id="a_node3"><a xlink:href="class_o_auth_signature_method___p_l_a_i_n_t_e_x_t.html" target="_top" xlink:title="{OAuthSignatureMethod\l_PLAINTEXT\n||+ get_name()\l+ build_signature()\l}">
<polygon fill="#ffffff" stroke="#000000" points="139,-15.5 139,-89.5 259.5117,-89.5 259.5117,-15.5 139,-15.5"/>
<text text-anchor="start" x="147" y="-77.5" font-family="Helvetica,sans-Serif" font-size="10.00" fill="#000000">OAuthSignatureMethod</text>
<text text-anchor="middle" x="199.2559" y="-67.5" font-family="Helvetica,sans-Serif" font-size="10.00" fill="#000000">_PLAINTEXT</text>
<polyline fill="none" stroke="#000000" points="139,-61.5 259.5117,-61.5 "/>
<text text-anchor="middle" x="199.2559" y="-49.5" font-family="Helvetica,sans-Serif" font-size="10.00" fill="#000000"> </text>
<polyline fill="none" stroke="#000000" points="139,-43.5 259.5117,-43.5 "/>
<text text-anchor="start" x="147" y="-31.5" font-family="Helvetica,sans-Serif" font-size="10.00" fill="#000000">+ get_name()</text>
<text text-anchor="start" x="147" y="-21.5" font-family="Helvetica,sans-Serif" font-size="10.00" fill="#000000">+ build_signature()</text>
</a>
</g>
</g>
<!-- Node0&#45;&gt;Node2 -->
<g id="edge2" class="edge">
<title>Node0&#45;&gt;Node2</title>
<path fill="none" stroke="#191970" d="M199.2559,-131.0752C199.2559,-117.801 199.2559,-102.8748 199.2559,-89.6256"/>
<polygon fill="none" stroke="#191970" points="195.756,-131.3031 199.2559,-141.3032 202.756,-131.3032 195.756,-131.3031"/>
</g>
<!-- Node3 -->
<g id="node4" class="node">
<title>Node3</title>
<g id="a_node4"><a xlink:href="class_o_auth_signature_method___r_s_a___s_h_a1.html" target="_top" xlink:title="{OAuthSignatureMethod\l_RSA_SHA1\n||+ get_name()\l+ build_signature()\l+ check_signature()\l# fetch_public_cert()\l# fetch_private_cert()\l}">
<polygon fill="#ffffff" stroke="#000000" points="278,-.5 278,-104.5 398.5117,-104.5 398.5117,-.5 278,-.5"/>
<text text-anchor="start" x="286" y="-92.5" font-family="Helvetica,sans-Serif" font-size="10.00" fill="#000000">OAuthSignatureMethod</text>
<text text-anchor="middle" x="338.2559" y="-82.5" font-family="Helvetica,sans-Serif" font-size="10.00" fill="#000000">_RSA_SHA1</text>
<polyline fill="none" stroke="#000000" points="278,-76.5 398.5117,-76.5 "/>
<text text-anchor="middle" x="338.2559" y="-64.5" font-family="Helvetica,sans-Serif" font-size="10.00" fill="#000000"> </text>
<polyline fill="none" stroke="#000000" points="278,-58.5 398.5117,-58.5 "/>
<text text-anchor="start" x="286" y="-46.5" font-family="Helvetica,sans-Serif" font-size="10.00" fill="#000000">+ get_name()</text>
<text text-anchor="start" x="286" y="-36.5" font-family="Helvetica,sans-Serif" font-size="10.00" fill="#000000">+ build_signature()</text>
<text text-anchor="start" x="286" y="-26.5" font-family="Helvetica,sans-Serif" font-size="10.00" fill="#000000">+ check_signature()</text>
<text text-anchor="start" x="286" y="-16.5" font-family="Helvetica,sans-Serif" font-size="10.00" fill="#000000"># fetch_public_cert()</text>
<text text-anchor="start" x="286" y="-6.5" font-family="Helvetica,sans-Serif" font-size="10.00" fill="#000000"># fetch_private_cert()</text>
</a>
</g>
</g>
<!-- Node0&#45;&gt;Node3 -->
<g id="edge3" class="edge">
<title>Node0&#45;&gt;Node3</title>
<path fill="none" stroke="#191970" d="M239.8267,-134.6423C251.704,-124.7303 264.9534,-113.6732 277.7852,-102.9648"/>
<polygon fill="none" stroke="#191970" points="237.2803,-132.2086 231.8452,-141.3032 241.7654,-137.583 237.2803,-132.2086"/>
</g>
</g>
</svg>
