<?xml version="1.0" encoding="UTF-8" standalone="no"?>
<!DOCTYPE svg PUBLIC "-//W3C//DTD SVG 1.1//EN"
 "http://www.w3.org/Graphics/SVG/1.1/DTD/svg11.dtd">
<!-- Generated by graphviz version 2.40.1 (20161225.0304)
 -->
<!-- Title: CronCommand Pages: 1 -->
<svg width="114pt" height="164pt"
 viewBox="0.00 0.00 114.04 164.00" xmlns="http://www.w3.org/2000/svg" xmlns:xlink="http://www.w3.org/1999/xlink">
<g id="graph0" class="graph" transform="scale(1 1) rotate(0) translate(4 160)">
<title>CronCommand</title>
<polygon fill="#ffffff" stroke="transparent" points="-4,4 -4,-160 110.0391,-160 110.0391,4 -4,4"/>
<!-- Node2 -->
<g id="node1" class="node">
<title>Node2</title>
<polygon fill="#bfbfbf" stroke="#000000" points="11.1182,-.5 11.1182,-64.5 94.9209,-64.5 94.9209,-.5 11.1182,-.5"/>
<text text-anchor="middle" x="53.0195" y="-52.5" font-family="Helvetica,sans-Serif" font-size="10.00" fill="#000000">CronCommand</text>
<polyline fill="none" stroke="#000000" points="11.1182,-46.5 94.9209,-46.5 "/>
<text text-anchor="middle" x="53.0195" y="-34.5" font-family="Helvetica,sans-Serif" font-size="10.00" fill="#000000"> </text>
<polyline fill="none" stroke="#000000" points="11.1182,-28.5 94.9209,-28.5 "/>
<text text-anchor="start" x="19.1182" y="-16.5" font-family="Helvetica,sans-Serif" font-size="10.00" fill="#000000">+ getHelp()</text>
<text text-anchor="start" x="19.1182" y="-6.5" font-family="Helvetica,sans-Serif" font-size="10.00" fill="#000000">+ run()</text>
</g>
<!-- Node3 -->
<g id="node2" class="node">
<title>Node3</title>
<polygon fill="#ffffff" stroke="#bfbfbf" points="0,-101.5 0,-155.5 106.0391,-155.5 106.0391,-101.5 0,-101.5"/>
<text text-anchor="middle" x="53.0195" y="-143.5" font-family="Helvetica,sans-Serif" font-size="10.00" fill="#000000">CConsoleCommand</text>
<polyline fill="none" stroke="#bfbfbf" points="0,-137.5 106.0391,-137.5 "/>
<text text-anchor="middle" x="53.0195" y="-125.5" font-family="Helvetica,sans-Serif" font-size="10.00" fill="#000000"> </text>
<polyline fill="none" stroke="#bfbfbf" points="0,-119.5 106.0391,-119.5 "/>
<text text-anchor="middle" x="53.0195" y="-107.5" font-family="Helvetica,sans-Serif" font-size="10.00" fill="#000000"> </text>
</g>
<!-- Node3&#45;&gt;Node2 -->
<g id="edge1" class="edge">
<title>Node3&#45;&gt;Node2</title>
<path fill="none" stroke="#191970" d="M53.0195,-91.2276C53.0195,-82.4295 53.0195,-73.1248 53.0195,-64.5792"/>
<polygon fill="none" stroke="#191970" points="49.5196,-91.247 53.0195,-101.247 56.5196,-91.2471 49.5196,-91.247"/>
</g>
</g>
</svg>
