<?xml version="1.0" encoding="UTF-8" standalone="no"?>
<!DOCTYPE svg PUBLIC "-//W3C//DTD SVG 1.1//EN"
 "http://www.w3.org/Graphics/SVG/1.1/DTD/svg11.dtd">
<!-- Generated by graphviz version 2.40.1 (20161225.0304)
 -->
<!-- Title: Notify Pages: 1 -->
<svg width="91pt" height="174pt"
 viewBox="0.00 0.00 90.69 174.00" xmlns="http://www.w3.org/2000/svg" xmlns:xlink="http://www.w3.org/1999/xlink">
<g id="graph0" class="graph" transform="scale(1 1) rotate(0) translate(4 170)">
<title>Notify</title>
<polygon fill="#ffffff" stroke="transparent" points="-4,4 -4,-170 86.6895,-170 86.6895,4 -4,4"/>
<!-- Node0 -->
<g id="node1" class="node">
<title>Node0</title>
<polygon fill="#bfbfbf" stroke="#000000" points="1.5259,-.5 1.5259,-74.5 81.1636,-74.5 81.1636,-.5 1.5259,-.5"/>
<text text-anchor="middle" x="41.3447" y="-62.5" font-family="Helvetica,sans-Serif" font-size="10.00" fill="#000000">Notify</text>
<polyline fill="none" stroke="#000000" points="1.5259,-56.5 81.1636,-56.5 "/>
<text text-anchor="middle" x="41.3447" y="-44.5" font-family="Helvetica,sans-Serif" font-size="10.00" fill="#000000"> </text>
<polyline fill="none" stroke="#000000" points="1.5259,-38.5 81.1636,-38.5 "/>
<text text-anchor="start" x="9.5259" y="-26.5" font-family="Helvetica,sans-Serif" font-size="10.00" fill="#000000">+ relations()</text>
<text text-anchor="start" x="9.5259" y="-16.5" font-family="Helvetica,sans-Serif" font-size="10.00" fill="#000000">+ tableName()</text>
<text text-anchor="start" x="9.5259" y="-6.5" font-family="Helvetica,sans-Serif" font-size="10.00" fill="#000000">+ model()</text>
</g>
<!-- Node1 -->
<g id="node2" class="node">
<title>Node1</title>
<polygon fill="#ffffff" stroke="#bfbfbf" points="0,-111.5 0,-165.5 82.6895,-165.5 82.6895,-111.5 0,-111.5"/>
<text text-anchor="middle" x="41.3447" y="-153.5" font-family="Helvetica,sans-Serif" font-size="10.00" fill="#000000">CActiveRecord</text>
<polyline fill="none" stroke="#bfbfbf" points="0,-147.5 82.6895,-147.5 "/>
<text text-anchor="middle" x="41.3447" y="-135.5" font-family="Helvetica,sans-Serif" font-size="10.00" fill="#000000"> </text>
<polyline fill="none" stroke="#bfbfbf" points="0,-129.5 82.6895,-129.5 "/>
<text text-anchor="middle" x="41.3447" y="-117.5" font-family="Helvetica,sans-Serif" font-size="10.00" fill="#000000"> </text>
</g>
<!-- Node1&#45;&gt;Node0 -->
<g id="edge1" class="edge">
<title>Node1&#45;&gt;Node0</title>
<path fill="none" stroke="#191970" d="M41.3447,-101.1725C41.3447,-92.4692 41.3447,-83.2047 41.3447,-74.515"/>
<polygon fill="none" stroke="#191970" points="37.8448,-101.4338 41.3447,-111.4339 44.8448,-101.4339 37.8448,-101.4338"/>
</g>
</g>
</svg>
