<?xml version="1.0" encoding="UTF-8" standalone="no"?>
<!DOCTYPE svg PUBLIC "-//W3C//DTD SVG 1.1//EN"
 "http://www.w3.org/Graphics/SVG/1.1/DTD/svg11.dtd">
<!-- Generated by graphviz version 2.40.1 (20161225.0304)
 -->
<!-- Title: Google_AclServiceResource Pages: 1 -->
<svg width="152pt" height="244pt"
 viewBox="0.00 0.00 151.84 244.00" xmlns="http://www.w3.org/2000/svg" xmlns:xlink="http://www.w3.org/1999/xlink">
<g id="graph0" class="graph" transform="scale(1 1) rotate(0) translate(4 240)">
<title>Google_AclServiceResource</title>
<polygon fill="#ffffff" stroke="transparent" points="-4,4 -4,-240 147.8418,-240 147.8418,4 -4,4"/>
<!-- Node0 -->
<g id="node1" class="node">
<title>Node0</title>
<polygon fill="#bfbfbf" stroke="#000000" points="0,-.5 0,-114.5 143.8418,-114.5 143.8418,-.5 0,-.5"/>
<text text-anchor="middle" x="71.9209" y="-102.5" font-family="Helvetica,sans-Serif" font-size="10.00" fill="#000000">Google_AclServiceResource</text>
<polyline fill="none" stroke="#000000" points="0,-96.5 143.8418,-96.5 "/>
<text text-anchor="middle" x="71.9209" y="-84.5" font-family="Helvetica,sans-Serif" font-size="10.00" fill="#000000"> </text>
<polyline fill="none" stroke="#000000" points="0,-78.5 143.8418,-78.5 "/>
<text text-anchor="start" x="8" y="-66.5" font-family="Helvetica,sans-Serif" font-size="10.00" fill="#000000">+ delete()</text>
<text text-anchor="start" x="8" y="-56.5" font-family="Helvetica,sans-Serif" font-size="10.00" fill="#000000">+ get()</text>
<text text-anchor="start" x="8" y="-46.5" font-family="Helvetica,sans-Serif" font-size="10.00" fill="#000000">+ insert()</text>
<text text-anchor="start" x="8" y="-36.5" font-family="Helvetica,sans-Serif" font-size="10.00" fill="#000000">+ listAcl()</text>
<text text-anchor="start" x="8" y="-26.5" font-family="Helvetica,sans-Serif" font-size="10.00" fill="#000000">+ patch()</text>
<text text-anchor="start" x="8" y="-16.5" font-family="Helvetica,sans-Serif" font-size="10.00" fill="#000000">+ update()</text>
<text text-anchor="start" x="8" y="-6.5" font-family="Helvetica,sans-Serif" font-size="10.00" fill="#000000">+ delete()</text>
</g>
<!-- Node1 -->
<g id="node2" class="node">
<title>Node1</title>
<g id="a_node2"><a xlink:href="class_google___service_resource.html" target="_top" xlink:title="{Google_ServiceResource\n||+ __construct()\l+ __call()\l+ useObjects()\l# stripNull()\l}">
<polygon fill="#ffffff" stroke="#000000" points="6.9458,-151.5 6.9458,-235.5 136.896,-235.5 136.896,-151.5 6.9458,-151.5"/>
<text text-anchor="middle" x="71.9209" y="-223.5" font-family="Helvetica,sans-Serif" font-size="10.00" fill="#000000">Google_ServiceResource</text>
<polyline fill="none" stroke="#000000" points="6.9458,-217.5 136.896,-217.5 "/>
<text text-anchor="middle" x="71.9209" y="-205.5" font-family="Helvetica,sans-Serif" font-size="10.00" fill="#000000"> </text>
<polyline fill="none" stroke="#000000" points="6.9458,-199.5 136.896,-199.5 "/>
<text text-anchor="start" x="14.9458" y="-187.5" font-family="Helvetica,sans-Serif" font-size="10.00" fill="#000000">+ __construct()</text>
<text text-anchor="start" x="14.9458" y="-177.5" font-family="Helvetica,sans-Serif" font-size="10.00" fill="#000000">+ __call()</text>
<text text-anchor="start" x="14.9458" y="-167.5" font-family="Helvetica,sans-Serif" font-size="10.00" fill="#000000">+ useObjects()</text>
<text text-anchor="start" x="14.9458" y="-157.5" font-family="Helvetica,sans-Serif" font-size="10.00" fill="#000000"># stripNull()</text>
</a>
</g>
</g>
<!-- Node1&#45;&gt;Node0 -->
<g id="edge1" class="edge">
<title>Node1&#45;&gt;Node0</title>
<path fill="none" stroke="#191970" d="M65.3283,-140.9557C65.1507,-132.3721 65.1234,-123.4415 65.2464,-114.7513"/>
<polygon fill="none" stroke="#191970" points="61.8371,-141.3176 65.6196,-151.2142 68.8343,-141.1189 61.8371,-141.3176"/>
</g>
<!-- Node1&#45;&gt;Node0 -->
<g id="edge2" class="edge">
<title>Node1&#45;&gt;Node0</title>
<path fill="none" stroke="#191970" d="M78.5135,-140.9557C78.6911,-132.3721 78.7184,-123.4415 78.5954,-114.7513"/>
<polygon fill="none" stroke="#191970" points="75.0075,-141.1189 78.2222,-151.2142 82.0047,-141.3176 75.0075,-141.1189"/>
</g>
</g>
</svg>
