<?xml version="1.0" encoding="UTF-8" standalone="no"?>
<!DOCTYPE svg PUBLIC "-//W3C//DTD SVG 1.1//EN"
 "http://www.w3.org/Graphics/SVG/1.1/DTD/svg11.dtd">
<!-- Generated by graphviz version 2.40.1 (20161225.0304)
 -->
<!-- Title: Google_SeriesResponsesServiceResource Pages: 1 -->
<svg width="174pt" height="194pt"
 viewBox="0.00 0.00 173.53 194.00" xmlns="http://www.w3.org/2000/svg" xmlns:xlink="http://www.w3.org/1999/xlink">
<g id="graph0" class="graph" transform="scale(1 1) rotate(0) translate(4 190)">
<title>Google_SeriesResponsesServiceResource</title>
<polygon fill="#ffffff" stroke="transparent" points="-4,4 -4,-190 169.5264,-190 169.5264,4 -4,4"/>
<!-- Node0 -->
<g id="node1" class="node">
<title>Node0</title>
<polygon fill="#bfbfbf" stroke="#000000" points="0,-.5 0,-64.5 165.5264,-64.5 165.5264,-.5 0,-.5"/>
<text text-anchor="start" x="8" y="-52.5" font-family="Helvetica,sans-Serif" font-size="10.00" fill="#000000">Google_SeriesResponsesService</text>
<text text-anchor="middle" x="82.7632" y="-42.5" font-family="Helvetica,sans-Serif" font-size="10.00" fill="#000000">Resource</text>
<polyline fill="none" stroke="#000000" points="0,-36.5 165.5264,-36.5 "/>
<text text-anchor="middle" x="82.7632" y="-24.5" font-family="Helvetica,sans-Serif" font-size="10.00" fill="#000000"> </text>
<polyline fill="none" stroke="#000000" points="0,-18.5 165.5264,-18.5 "/>
<text text-anchor="start" x="8" y="-6.5" font-family="Helvetica,sans-Serif" font-size="10.00" fill="#000000">+ listSeriesResponses()</text>
</g>
<!-- Node1 -->
<g id="node2" class="node">
<title>Node1</title>
<g id="a_node2"><a xlink:href="class_google___service_resource.html" target="_top" xlink:title="{Google_ServiceResource\n||+ __construct()\l+ __call()\l+ useObjects()\l# stripNull()\l}">
<polygon fill="#ffffff" stroke="#000000" points="17.7881,-101.5 17.7881,-185.5 147.7383,-185.5 147.7383,-101.5 17.7881,-101.5"/>
<text text-anchor="middle" x="82.7632" y="-173.5" font-family="Helvetica,sans-Serif" font-size="10.00" fill="#000000">Google_ServiceResource</text>
<polyline fill="none" stroke="#000000" points="17.7881,-167.5 147.7383,-167.5 "/>
<text text-anchor="middle" x="82.7632" y="-155.5" font-family="Helvetica,sans-Serif" font-size="10.00" fill="#000000"> </text>
<polyline fill="none" stroke="#000000" points="17.7881,-149.5 147.7383,-149.5 "/>
<text text-anchor="start" x="25.7881" y="-137.5" font-family="Helvetica,sans-Serif" font-size="10.00" fill="#000000">+ __construct()</text>
<text text-anchor="start" x="25.7881" y="-127.5" font-family="Helvetica,sans-Serif" font-size="10.00" fill="#000000">+ __call()</text>
<text text-anchor="start" x="25.7881" y="-117.5" font-family="Helvetica,sans-Serif" font-size="10.00" fill="#000000">+ useObjects()</text>
<text text-anchor="start" x="25.7881" y="-107.5" font-family="Helvetica,sans-Serif" font-size="10.00" fill="#000000"># stripNull()</text>
</a>
</g>
</g>
<!-- Node1&#45;&gt;Node0 -->
<g id="edge1" class="edge">
<title>Node1&#45;&gt;Node0</title>
<path fill="none" stroke="#191970" d="M82.7632,-91.1185C82.7632,-82.0854 82.7632,-72.9418 82.7632,-64.6489"/>
<polygon fill="none" stroke="#191970" points="79.2633,-91.219 82.7632,-101.219 86.2633,-91.219 79.2633,-91.219"/>
</g>
</g>
</svg>
