<?xml version="1.0" encoding="UTF-8" standalone="no"?>
<!DOCTYPE svg PUBLIC "-//W3C//DTD SVG 1.1//EN"
 "http://www.w3.org/Graphics/SVG/1.1/DTD/svg11.dtd">
<!-- Generated by graphviz version 2.40.1 (20161225.0304)
 -->
<!-- Title: Google_Verifier Pages: 1 -->
<svg width="113pt" height="174pt"
 viewBox="0.00 0.00 113.50 174.00" xmlns="http://www.w3.org/2000/svg" xmlns:xlink="http://www.w3.org/1999/xlink">
<g id="graph0" class="graph" transform="scale(1 1) rotate(0) translate(4 170)">
<title>Google_Verifier</title>
<polygon fill="#ffffff" stroke="transparent" points="-4,4 -4,-170 109.4971,-170 109.4971,4 -4,4"/>
<!-- Node0 -->
<g id="node1" class="node">
<title>Node0</title>
<polygon fill="#bfbfbf" stroke="#000000" points="10.2808,-111.5 10.2808,-165.5 95.2163,-165.5 95.2163,-111.5 10.2808,-111.5"/>
<text text-anchor="middle" x="52.7485" y="-153.5" font-family="Helvetica,sans-Serif" font-size="10.00" fill="#000000">Google_Verifier</text>
<polyline fill="none" stroke="#000000" points="10.2808,-147.5 95.2163,-147.5 "/>
<text text-anchor="middle" x="52.7485" y="-135.5" font-family="Helvetica,sans-Serif" font-size="10.00" fill="#000000"> </text>
<polyline fill="none" stroke="#000000" points="10.2808,-129.5 95.2163,-129.5 "/>
<text text-anchor="start" x="18.2808" y="-117.5" font-family="Helvetica,sans-Serif" font-size="10.00" fill="#000000">+ verify()</text>
</g>
<!-- Node1 -->
<g id="node2" class="node">
<title>Node1</title>
<g id="a_node2"><a xlink:href="class_google___pem_verifier.html" target="_top" xlink:title="{Google_PemVerifier\n||+ __construct()\l+ __destruct()\l+ verify()\l}">
<polygon fill="#ffffff" stroke="#000000" points="0,-.5 0,-74.5 105.4971,-74.5 105.4971,-.5 0,-.5"/>
<text text-anchor="middle" x="52.7485" y="-62.5" font-family="Helvetica,sans-Serif" font-size="10.00" fill="#000000">Google_PemVerifier</text>
<polyline fill="none" stroke="#000000" points="0,-56.5 105.4971,-56.5 "/>
<text text-anchor="middle" x="52.7485" y="-44.5" font-family="Helvetica,sans-Serif" font-size="10.00" fill="#000000"> </text>
<polyline fill="none" stroke="#000000" points="0,-38.5 105.4971,-38.5 "/>
<text text-anchor="start" x="8" y="-26.5" font-family="Helvetica,sans-Serif" font-size="10.00" fill="#000000">+ __construct()</text>
<text text-anchor="start" x="8" y="-16.5" font-family="Helvetica,sans-Serif" font-size="10.00" fill="#000000">+ __destruct()</text>
<text text-anchor="start" x="8" y="-6.5" font-family="Helvetica,sans-Serif" font-size="10.00" fill="#000000">+ verify()</text>
</a>
</g>
</g>
<!-- Node0&#45;&gt;Node1 -->
<g id="edge1" class="edge">
<title>Node0&#45;&gt;Node1</title>
<path fill="none" stroke="#191970" d="M52.7485,-101.1725C52.7485,-92.4692 52.7485,-83.2047 52.7485,-74.515"/>
<polygon fill="none" stroke="#191970" points="49.2486,-101.4338 52.7485,-111.4339 56.2486,-101.4339 49.2486,-101.4338"/>
</g>
</g>
</svg>
