<?xml version="1.0" encoding="UTF-8" standalone="no"?>
<!DOCTYPE svg PUBLIC "-//W3C//DTD SVG 1.1//EN"
 "http://www.w3.org/Graphics/SVG/1.1/DTD/svg11.dtd">
<!-- Generated by graphviz version 2.40.1 (20161225.0304)
 -->
<!-- Title: OAuthException Pages: 1 -->
<svg width="96pt" height="154pt"
 viewBox="0.00 0.00 96.27 154.00" xmlns="http://www.w3.org/2000/svg" xmlns:xlink="http://www.w3.org/1999/xlink">
<g id="graph0" class="graph" transform="scale(1 1) rotate(0) translate(4 150)">
<title>OAuthException</title>
<polygon fill="#ffffff" stroke="transparent" points="-4,4 -4,-150 92.2656,-150 92.2656,4 -4,4"/>
<!-- Node0 -->
<g id="node1" class="node">
<title>Node0</title>
<polygon fill="#bfbfbf" stroke="#000000" points="0,-.5 0,-54.5 88.2656,-54.5 88.2656,-.5 0,-.5"/>
<text text-anchor="middle" x="44.1328" y="-42.5" font-family="Helvetica,sans-Serif" font-size="10.00" fill="#000000">OAuthException</text>
<polyline fill="none" stroke="#000000" points="0,-36.5 88.2656,-36.5 "/>
<text text-anchor="middle" x="44.1328" y="-24.5" font-family="Helvetica,sans-Serif" font-size="10.00" fill="#000000"> </text>
<polyline fill="none" stroke="#000000" points="0,-18.5 88.2656,-18.5 "/>
<text text-anchor="middle" x="44.1328" y="-6.5" font-family="Helvetica,sans-Serif" font-size="10.00" fill="#000000"> </text>
</g>
<!-- Node1 -->
<g id="node2" class="node">
<title>Node1</title>
<polygon fill="#ffffff" stroke="#bfbfbf" points="10.564,-91.5 10.564,-145.5 77.7017,-145.5 77.7017,-91.5 10.564,-91.5"/>
<text text-anchor="middle" x="44.1328" y="-133.5" font-family="Helvetica,sans-Serif" font-size="10.00" fill="#000000">CException</text>
<polyline fill="none" stroke="#bfbfbf" points="10.564,-127.5 77.7017,-127.5 "/>
<text text-anchor="middle" x="44.1328" y="-115.5" font-family="Helvetica,sans-Serif" font-size="10.00" fill="#000000"> </text>
<polyline fill="none" stroke="#bfbfbf" points="10.564,-109.5 77.7017,-109.5 "/>
<text text-anchor="middle" x="44.1328" y="-97.5" font-family="Helvetica,sans-Serif" font-size="10.00" fill="#000000"> </text>
</g>
<!-- Node1&#45;&gt;Node0 -->
<g id="edge1" class="edge">
<title>Node1&#45;&gt;Node0</title>
<path fill="none" stroke="#191970" d="M44.1328,-81.12C44.1328,-72.3006 44.1328,-63.0605 44.1328,-54.7837"/>
<polygon fill="none" stroke="#191970" points="40.6329,-81.197 44.1328,-91.197 47.6329,-81.197 40.6329,-81.197"/>
</g>
</g>
</svg>
