<?xml version="1.0" encoding="UTF-8" standalone="no"?>
<!DOCTYPE svg PUBLIC "-//W3C//DTD SVG 1.1//EN"
 "http://www.w3.org/Graphics/SVG/1.1/DTD/svg11.dtd">
<!-- Generated by graphviz version 2.40.1 (20161225.0304)
 -->
<!-- Title: Google_TaskqueueService Pages: 1 -->
<svg width="144pt" height="184pt"
 viewBox="0.00 0.00 143.52 184.00" xmlns="http://www.w3.org/2000/svg" xmlns:xlink="http://www.w3.org/1999/xlink">
<g id="graph0" class="graph" transform="scale(1 1) rotate(0) translate(4 180)">
<title>Google_TaskqueueService</title>
<polygon fill="#ffffff" stroke="transparent" points="-4,4 -4,-180 139.5215,-180 139.5215,4 -4,4"/>
<!-- Node0 -->
<g id="node1" class="node">
<title>Node0</title>
<polygon fill="#bfbfbf" stroke="#000000" points="0,-.5 0,-64.5 135.5215,-64.5 135.5215,-.5 0,-.5"/>
<text text-anchor="middle" x="67.7607" y="-52.5" font-family="Helvetica,sans-Serif" font-size="10.00" fill="#000000">Google_TaskqueueService</text>
<polyline fill="none" stroke="#000000" points="0,-46.5 135.5215,-46.5 "/>
<text text-anchor="start" x="8" y="-34.5" font-family="Helvetica,sans-Serif" font-size="10.00" fill="#000000">+ $taskqueues</text>
<text text-anchor="start" x="8" y="-24.5" font-family="Helvetica,sans-Serif" font-size="10.00" fill="#000000">+ $tasks</text>
<polyline fill="none" stroke="#000000" points="0,-18.5 135.5215,-18.5 "/>
<text text-anchor="start" x="8" y="-6.5" font-family="Helvetica,sans-Serif" font-size="10.00" fill="#000000">+ __construct()</text>
</g>
<!-- Node1 -->
<g id="node2" class="node">
<title>Node1</title>
<g id="a_node2"><a xlink:href="class_google___service.html" target="_top" xlink:title="{Google_Service\n|+ $version\l+ $servicePath\l+ $resource\l|}">
<polygon fill="#ffffff" stroke="#000000" points="24.1846,-101.5 24.1846,-175.5 111.3369,-175.5 111.3369,-101.5 24.1846,-101.5"/>
<text text-anchor="middle" x="67.7607" y="-163.5" font-family="Helvetica,sans-Serif" font-size="10.00" fill="#000000">Google_Service</text>
<polyline fill="none" stroke="#000000" points="24.1846,-157.5 111.3369,-157.5 "/>
<text text-anchor="start" x="32.1846" y="-145.5" font-family="Helvetica,sans-Serif" font-size="10.00" fill="#000000">+ $version</text>
<text text-anchor="start" x="32.1846" y="-135.5" font-family="Helvetica,sans-Serif" font-size="10.00" fill="#000000">+ $servicePath</text>
<text text-anchor="start" x="32.1846" y="-125.5" font-family="Helvetica,sans-Serif" font-size="10.00" fill="#000000">+ $resource</text>
<polyline fill="none" stroke="#000000" points="24.1846,-119.5 111.3369,-119.5 "/>
<text text-anchor="middle" x="67.7607" y="-107.5" font-family="Helvetica,sans-Serif" font-size="10.00" fill="#000000"> </text>
</a>
</g>
</g>
<!-- Node1&#45;&gt;Node0 -->
<g id="edge1" class="edge">
<title>Node1&#45;&gt;Node0</title>
<path fill="none" stroke="#191970" d="M67.7607,-91.4211C67.7607,-82.4227 67.7607,-73.1937 67.7607,-64.7893"/>
<polygon fill="none" stroke="#191970" points="64.2608,-91.4263 67.7607,-101.4263 71.2608,-91.4264 64.2608,-91.4263"/>
</g>
</g>
</svg>
