<?xml version="1.0" encoding="UTF-8" standalone="no"?>
<!DOCTYPE svg PUBLIC "-//W3C//DTD SVG 1.1//EN"
 "http://www.w3.org/Graphics/SVG/1.1/DTD/svg11.dtd">
<!-- Generated by graphviz version 2.40.1 (20161225.0304)
 -->
<!-- Title: Swift_SwiftException Pages: 1 -->
<svg width="117pt" height="154pt"
 viewBox="0.00 0.00 116.82 154.00" xmlns="http://www.w3.org/2000/svg" xmlns:xlink="http://www.w3.org/1999/xlink">
<g id="graph0" class="graph" transform="scale(1 1) rotate(0) translate(4 150)">
<title>Swift_SwiftException</title>
<polygon fill="#ffffff" stroke="transparent" points="-4,4 -4,-150 112.8174,-150 112.8174,4 -4,4"/>
<!-- Node7 -->
<g id="node1" class="node">
<title>Node7</title>
<polygon fill="#bfbfbf" stroke="#000000" points="0,-.5 0,-54.5 108.8174,-54.5 108.8174,-.5 0,-.5"/>
<text text-anchor="middle" x="54.4087" y="-42.5" font-family="Helvetica,sans-Serif" font-size="10.00" fill="#000000">Swift_SwiftException</text>
<polyline fill="none" stroke="#000000" points="0,-36.5 108.8174,-36.5 "/>
<text text-anchor="middle" x="54.4087" y="-24.5" font-family="Helvetica,sans-Serif" font-size="10.00" fill="#000000"> </text>
<polyline fill="none" stroke="#000000" points="0,-18.5 108.8174,-18.5 "/>
<text text-anchor="start" x="8" y="-6.5" font-family="Helvetica,sans-Serif" font-size="10.00" fill="#000000">+ __construct()</text>
</g>
<!-- Node8 -->
<g id="node2" class="node">
<title>Node8</title>
<polygon fill="#ffffff" stroke="#bfbfbf" points="24.4507,-91.5 24.4507,-145.5 84.3667,-145.5 84.3667,-91.5 24.4507,-91.5"/>
<text text-anchor="middle" x="54.4087" y="-133.5" font-family="Helvetica,sans-Serif" font-size="10.00" fill="#000000">Exception</text>
<polyline fill="none" stroke="#bfbfbf" points="24.4507,-127.5 84.3667,-127.5 "/>
<text text-anchor="middle" x="54.4087" y="-115.5" font-family="Helvetica,sans-Serif" font-size="10.00" fill="#000000"> </text>
<polyline fill="none" stroke="#bfbfbf" points="24.4507,-109.5 84.3667,-109.5 "/>
<text text-anchor="middle" x="54.4087" y="-97.5" font-family="Helvetica,sans-Serif" font-size="10.00" fill="#000000"> </text>
</g>
<!-- Node8&#45;&gt;Node7 -->
<g id="edge1" class="edge">
<title>Node8&#45;&gt;Node7</title>
<path fill="none" stroke="#191970" d="M54.4087,-81.12C54.4087,-72.3006 54.4087,-63.0605 54.4087,-54.7837"/>
<polygon fill="none" stroke="#191970" points="50.9088,-81.197 54.4087,-91.197 57.9088,-81.197 50.9088,-81.197"/>
</g>
</g>
</svg>
