<?xml version="1.0" encoding="UTF-8" standalone="no"?>
<!DOCTYPE svg PUBLIC "-//W3C//DTD SVG 1.1//EN"
 "http://www.w3.org/Graphics/SVG/1.1/DTD/svg11.dtd">
<!-- Generated by graphviz version 2.40.1 (20161225.0304)
 -->
<!-- Title: Google_VideoPlayer Pages: 1 -->
<svg width="121pt" height="204pt"
 viewBox="0.00 0.00 120.69 204.00" xmlns="http://www.w3.org/2000/svg" xmlns:xlink="http://www.w3.org/1999/xlink">
<g id="graph0" class="graph" transform="scale(1 1) rotate(0) translate(4 200)">
<title>Google_VideoPlayer</title>
<polygon fill="#ffffff" stroke="transparent" points="-4,4 -4,-200 116.6895,-200 116.6895,4 -4,4"/>
<!-- Node2 -->
<g id="node1" class="node">
<title>Node2</title>
<polygon fill="#bfbfbf" stroke="#000000" points="2.5684,-.5 2.5684,-64.5 110.1211,-64.5 110.1211,-.5 2.5684,-.5"/>
<text text-anchor="middle" x="56.3447" y="-52.5" font-family="Helvetica,sans-Serif" font-size="10.00" fill="#000000">Google_VideoPlayer</text>
<polyline fill="none" stroke="#000000" points="2.5684,-46.5 110.1211,-46.5 "/>
<text text-anchor="start" x="10.5684" y="-34.5" font-family="Helvetica,sans-Serif" font-size="10.00" fill="#000000">+ $embedHtml</text>
<polyline fill="none" stroke="#000000" points="2.5684,-28.5 110.1211,-28.5 "/>
<text text-anchor="start" x="10.5684" y="-16.5" font-family="Helvetica,sans-Serif" font-size="10.00" fill="#000000">+ setEmbedHtml()</text>
<text text-anchor="start" x="10.5684" y="-6.5" font-family="Helvetica,sans-Serif" font-size="10.00" fill="#000000">+ getEmbedHtml()</text>
</g>
<!-- Node3 -->
<g id="node2" class="node">
<title>Node3</title>
<g id="a_node2"><a xlink:href="class_google___model.html" target="_top" xlink:title="{Google_Model\n||+ __construct()\l+ assertIsArray()\l# mapTypes()\l# isAssociativeArray()\l# useObjects()\l}">
<polygon fill="#ffffff" stroke="#000000" points="0,-101.5 0,-195.5 112.6895,-195.5 112.6895,-101.5 0,-101.5"/>
<text text-anchor="middle" x="56.3447" y="-183.5" font-family="Helvetica,sans-Serif" font-size="10.00" fill="#000000">Google_Model</text>
<polyline fill="none" stroke="#000000" points="0,-177.5 112.6895,-177.5 "/>
<text text-anchor="middle" x="56.3447" y="-165.5" font-family="Helvetica,sans-Serif" font-size="10.00" fill="#000000"> </text>
<polyline fill="none" stroke="#000000" points="0,-159.5 112.6895,-159.5 "/>
<text text-anchor="start" x="8" y="-147.5" font-family="Helvetica,sans-Serif" font-size="10.00" fill="#000000">+ __construct()</text>
<text text-anchor="start" x="8" y="-137.5" font-family="Helvetica,sans-Serif" font-size="10.00" fill="#000000">+ assertIsArray()</text>
<text text-anchor="start" x="8" y="-127.5" font-family="Helvetica,sans-Serif" font-size="10.00" fill="#000000"># mapTypes()</text>
<text text-anchor="start" x="8" y="-117.5" font-family="Helvetica,sans-Serif" font-size="10.00" fill="#000000"># isAssociativeArray()</text>
<text text-anchor="start" x="8" y="-107.5" font-family="Helvetica,sans-Serif" font-size="10.00" fill="#000000"># useObjects()</text>
</a>
</g>
</g>
<!-- Node3&#45;&gt;Node2 -->
<g id="edge1" class="edge">
<title>Node3&#45;&gt;Node2</title>
<path fill="none" stroke="#191970" d="M56.3447,-91.1299C56.3447,-82.0561 56.3447,-72.9618 56.3447,-64.7354"/>
<polygon fill="none" stroke="#191970" points="52.8448,-91.3183 56.3447,-101.3184 59.8448,-91.3184 52.8448,-91.3183"/>
</g>
</g>
</svg>
