<?xml version="1.0" encoding="UTF-8" standalone="no"?>
<!DOCTYPE svg PUBLIC "-//W3C//DTD SVG 1.1//EN"
 "http://www.w3.org/Graphics/SVG/1.1/DTD/svg11.dtd">
<!-- Generated by graphviz version 2.40.1 (20161225.0304)
 -->
<!-- Title: SpravController Pages: 1 -->
<svg width="177pt" height="365pt"
 viewBox="0.00 0.00 176.54 365.00" xmlns="http://www.w3.org/2000/svg" xmlns:xlink="http://www.w3.org/1999/xlink">
<g id="graph0" class="graph" transform="scale(1 1) rotate(0) translate(4 361)">
<title>SpravController</title>
<polygon fill="#ffffff" stroke="transparent" points="-4,4 -4,-361 172.5439,-361 172.5439,4 -4,4"/>
<!-- Node0 -->
<g id="node1" class="node">
<title>Node0</title>
<polygon fill="#bfbfbf" stroke="#000000" points="40.2881,-.5 40.2881,-94.5 128.2559,-94.5 128.2559,-.5 40.2881,-.5"/>
<text text-anchor="middle" x="84.272" y="-82.5" font-family="Helvetica,sans-Serif" font-size="10.00" fill="#000000">SpravController</text>
<polyline fill="none" stroke="#000000" points="40.2881,-76.5 128.2559,-76.5 "/>
<text text-anchor="start" x="48.2881" y="-64.5" font-family="Helvetica,sans-Serif" font-size="10.00" fill="#000000">+ $layout</text>
<polyline fill="none" stroke="#000000" points="40.2881,-58.5 128.2559,-58.5 "/>
<text text-anchor="start" x="48.2881" y="-46.5" font-family="Helvetica,sans-Serif" font-size="10.00" fill="#000000">+ filters()</text>
<text text-anchor="start" x="48.2881" y="-36.5" font-family="Helvetica,sans-Serif" font-size="10.00" fill="#000000">+ accessRules()</text>
<text text-anchor="start" x="48.2881" y="-26.5" font-family="Helvetica,sans-Serif" font-size="10.00" fill="#000000">+ actionView()</text>
<text text-anchor="start" x="48.2881" y="-16.5" font-family="Helvetica,sans-Serif" font-size="10.00" fill="#000000">+ actionIndex()</text>
<text text-anchor="start" x="48.2881" y="-6.5" font-family="Helvetica,sans-Serif" font-size="10.00" fill="#000000">+ loadModel()</text>
</g>
<!-- Node1 -->
<g id="node2" class="node">
<title>Node1</title>
<g id="a_node2"><a xlink:href="class_controller.html" target="_top" xlink:title="{Controller\n|+ $layout\l+ $title\l+ $menu\l+ $breadcrumbs\l+ $_permissionControl\l|+ getUser()\l+ filterUserGroupsAccessControl()\l+ getMapkey()\l+ filterUserGroupsAccessControl()\l# beforeAction()\l}">
<polygon fill="#ffffff" stroke="#000000" points="0,-131.5 0,-265.5 168.5439,-265.5 168.5439,-131.5 0,-131.5"/>
<text text-anchor="middle" x="84.272" y="-253.5" font-family="Helvetica,sans-Serif" font-size="10.00" fill="#000000">Controller</text>
<polyline fill="none" stroke="#000000" points="0,-247.5 168.5439,-247.5 "/>
<text text-anchor="start" x="8" y="-235.5" font-family="Helvetica,sans-Serif" font-size="10.00" fill="#000000">+ $layout</text>
<text text-anchor="start" x="8" y="-225.5" font-family="Helvetica,sans-Serif" font-size="10.00" fill="#000000">+ $title</text>
<text text-anchor="start" x="8" y="-215.5" font-family="Helvetica,sans-Serif" font-size="10.00" fill="#000000">+ $menu</text>
<text text-anchor="start" x="8" y="-205.5" font-family="Helvetica,sans-Serif" font-size="10.00" fill="#000000">+ $breadcrumbs</text>
<text text-anchor="start" x="8" y="-195.5" font-family="Helvetica,sans-Serif" font-size="10.00" fill="#000000">+ $_permissionControl</text>
<polyline fill="none" stroke="#000000" points="0,-189.5 168.5439,-189.5 "/>
<text text-anchor="start" x="8" y="-177.5" font-family="Helvetica,sans-Serif" font-size="10.00" fill="#000000">+ getUser()</text>
<text text-anchor="start" x="8" y="-167.5" font-family="Helvetica,sans-Serif" font-size="10.00" fill="#000000">+ filterUserGroupsAccessControl()</text>
<text text-anchor="start" x="8" y="-157.5" font-family="Helvetica,sans-Serif" font-size="10.00" fill="#000000">+ getMapkey()</text>
<text text-anchor="start" x="8" y="-147.5" font-family="Helvetica,sans-Serif" font-size="10.00" fill="#000000">+ filterUserGroupsAccessControl()</text>
<text text-anchor="start" x="8" y="-137.5" font-family="Helvetica,sans-Serif" font-size="10.00" fill="#000000"># beforeAction()</text>
</a>
</g>
</g>
<!-- Node1&#45;&gt;Node0 -->
<g id="edge1" class="edge">
<title>Node1&#45;&gt;Node0</title>
<path fill="none" stroke="#191970" d="M84.272,-121.14C84.272,-112.0503 84.272,-102.9965 84.272,-94.5061"/>
<polygon fill="none" stroke="#191970" points="80.7721,-121.3898 84.272,-131.3898 87.7721,-121.3899 80.7721,-121.3898"/>
</g>
<!-- Node2 -->
<g id="node3" class="node">
<title>Node2</title>
<polygon fill="#ffffff" stroke="#bfbfbf" points="50.9863,-302.5 50.9863,-356.5 117.5576,-356.5 117.5576,-302.5 50.9863,-302.5"/>
<text text-anchor="middle" x="84.272" y="-344.5" font-family="Helvetica,sans-Serif" font-size="10.00" fill="#000000">CController</text>
<polyline fill="none" stroke="#bfbfbf" points="50.9863,-338.5 117.5576,-338.5 "/>
<text text-anchor="middle" x="84.272" y="-326.5" font-family="Helvetica,sans-Serif" font-size="10.00" fill="#000000"> </text>
<polyline fill="none" stroke="#bfbfbf" points="50.9863,-320.5 117.5576,-320.5 "/>
<text text-anchor="middle" x="84.272" y="-308.5" font-family="Helvetica,sans-Serif" font-size="10.00" fill="#000000"> </text>
</g>
<!-- Node2&#45;&gt;Node1 -->
<g id="edge2" class="edge">
<title>Node2&#45;&gt;Node1</title>
<path fill="none" stroke="#191970" d="M78.1134,-292.2321C77.7409,-283.8764 77.5444,-274.7626 77.5238,-265.607"/>
<polygon fill="none" stroke="#191970" points="74.6266,-292.5676 78.6792,-302.3567 81.6156,-292.1769 74.6266,-292.5676"/>
</g>
<!-- Node2&#45;&gt;Node1 -->
<g id="edge3" class="edge">
<title>Node2&#45;&gt;Node1</title>
<path fill="none" stroke="#191970" d="M90.4306,-292.2321C90.8031,-283.8764 90.9996,-274.7626 91.0202,-265.607"/>
<polygon fill="none" stroke="#191970" points="86.9283,-292.1769 89.8647,-302.3567 93.9174,-292.5676 86.9283,-292.1769"/>
</g>
</g>
</svg>
