<?xml version="1.0" encoding="UTF-8" standalone="no"?>
<!DOCTYPE svg PUBLIC "-//W3C//DTD SVG 1.1//EN"
 "http://www.w3.org/Graphics/SVG/1.1/DTD/svg11.dtd">
<!-- Generated by graphviz version 2.40.1 (20161225.0304)
 -->
<!-- Title: Google_UrlChannel Pages: 1 -->
<svg width="121pt" height="314pt"
 viewBox="0.00 0.00 120.69 314.00" xmlns="http://www.w3.org/2000/svg" xmlns:xlink="http://www.w3.org/1999/xlink">
<g id="graph0" class="graph" transform="scale(1 1) rotate(0) translate(4 310)">
<title>Google_UrlChannel</title>
<polygon fill="#ffffff" stroke="transparent" points="-4,4 -4,-310 116.6895,-310 116.6895,4 -4,4"/>
<!-- Node0 -->
<g id="node1" class="node">
<title>Node0</title>
<polygon fill="#bfbfbf" stroke="#000000" points="4.4287,-.5 4.4287,-174.5 108.2607,-174.5 108.2607,-.5 4.4287,-.5"/>
<text text-anchor="middle" x="56.3447" y="-162.5" font-family="Helvetica,sans-Serif" font-size="10.00" fill="#000000">Google_UrlChannel</text>
<polyline fill="none" stroke="#000000" points="4.4287,-156.5 108.2607,-156.5 "/>
<text text-anchor="start" x="12.4287" y="-144.5" font-family="Helvetica,sans-Serif" font-size="10.00" fill="#000000">+ $id</text>
<text text-anchor="start" x="12.4287" y="-134.5" font-family="Helvetica,sans-Serif" font-size="10.00" fill="#000000">+ $kind</text>
<text text-anchor="start" x="12.4287" y="-124.5" font-family="Helvetica,sans-Serif" font-size="10.00" fill="#000000">+ $urlPattern</text>
<polyline fill="none" stroke="#000000" points="4.4287,-118.5 108.2607,-118.5 "/>
<text text-anchor="start" x="12.4287" y="-106.5" font-family="Helvetica,sans-Serif" font-size="10.00" fill="#000000">+ setId()</text>
<text text-anchor="start" x="12.4287" y="-96.5" font-family="Helvetica,sans-Serif" font-size="10.00" fill="#000000">+ getId()</text>
<text text-anchor="start" x="12.4287" y="-86.5" font-family="Helvetica,sans-Serif" font-size="10.00" fill="#000000">+ setKind()</text>
<text text-anchor="start" x="12.4287" y="-76.5" font-family="Helvetica,sans-Serif" font-size="10.00" fill="#000000">+ getKind()</text>
<text text-anchor="start" x="12.4287" y="-66.5" font-family="Helvetica,sans-Serif" font-size="10.00" fill="#000000">+ setUrlPattern()</text>
<text text-anchor="start" x="12.4287" y="-56.5" font-family="Helvetica,sans-Serif" font-size="10.00" fill="#000000">+ getUrlPattern()</text>
<text text-anchor="start" x="12.4287" y="-46.5" font-family="Helvetica,sans-Serif" font-size="10.00" fill="#000000">+ setId()</text>
<text text-anchor="start" x="12.4287" y="-36.5" font-family="Helvetica,sans-Serif" font-size="10.00" fill="#000000">+ getId()</text>
<text text-anchor="start" x="12.4287" y="-26.5" font-family="Helvetica,sans-Serif" font-size="10.00" fill="#000000">+ setKind()</text>
<text text-anchor="start" x="12.4287" y="-16.5" font-family="Helvetica,sans-Serif" font-size="10.00" fill="#000000">+ getKind()</text>
<text text-anchor="start" x="12.4287" y="-6.5" font-family="Helvetica,sans-Serif" font-size="10.00" fill="#000000">і ще 8...</text>
</g>
<!-- Node1 -->
<g id="node2" class="node">
<title>Node1</title>
<g id="a_node2"><a xlink:href="class_google___model.html" target="_top" xlink:title="{Google_Model\n||+ __construct()\l+ assertIsArray()\l# mapTypes()\l# isAssociativeArray()\l# useObjects()\l}">
<polygon fill="#ffffff" stroke="#000000" points="0,-211.5 0,-305.5 112.6895,-305.5 112.6895,-211.5 0,-211.5"/>
<text text-anchor="middle" x="56.3447" y="-293.5" font-family="Helvetica,sans-Serif" font-size="10.00" fill="#000000">Google_Model</text>
<polyline fill="none" stroke="#000000" points="0,-287.5 112.6895,-287.5 "/>
<text text-anchor="middle" x="56.3447" y="-275.5" font-family="Helvetica,sans-Serif" font-size="10.00" fill="#000000"> </text>
<polyline fill="none" stroke="#000000" points="0,-269.5 112.6895,-269.5 "/>
<text text-anchor="start" x="8" y="-257.5" font-family="Helvetica,sans-Serif" font-size="10.00" fill="#000000">+ __construct()</text>
<text text-anchor="start" x="8" y="-247.5" font-family="Helvetica,sans-Serif" font-size="10.00" fill="#000000">+ assertIsArray()</text>
<text text-anchor="start" x="8" y="-237.5" font-family="Helvetica,sans-Serif" font-size="10.00" fill="#000000"># mapTypes()</text>
<text text-anchor="start" x="8" y="-227.5" font-family="Helvetica,sans-Serif" font-size="10.00" fill="#000000"># isAssociativeArray()</text>
<text text-anchor="start" x="8" y="-217.5" font-family="Helvetica,sans-Serif" font-size="10.00" fill="#000000"># useObjects()</text>
</a>
</g>
</g>
<!-- Node1&#45;&gt;Node0 -->
<g id="edge1" class="edge">
<title>Node1&#45;&gt;Node0</title>
<path fill="none" stroke="#191970" d="M43.5154,-201.1126C43.0926,-192.5496 42.8697,-183.5632 42.8467,-174.5537"/>
<polygon fill="none" stroke="#191970" points="40.0353,-201.5494 44.1303,-211.3208 47.0226,-201.1285 40.0353,-201.5494"/>
</g>
<!-- Node1&#45;&gt;Node0 -->
<g id="edge2" class="edge">
<title>Node1&#45;&gt;Node0</title>
<path fill="none" stroke="#191970" d="M56.3447,-201.1126C56.3447,-192.5496 56.3447,-183.5632 56.3447,-174.5537"/>
<polygon fill="none" stroke="#191970" points="52.8448,-201.3208 56.3447,-211.3208 59.8448,-201.3209 52.8448,-201.3208"/>
</g>
<!-- Node1&#45;&gt;Node0 -->
<g id="edge3" class="edge">
<title>Node1&#45;&gt;Node0</title>
<path fill="none" stroke="#191970" d="M69.174,-201.1126C69.5969,-192.5496 69.8198,-183.5632 69.8427,-174.5537"/>
<polygon fill="none" stroke="#191970" points="65.6668,-201.1285 68.5591,-211.3208 72.6542,-201.5494 65.6668,-201.1285"/>
</g>
</g>
</svg>
