<?xml version="1.0" encoding="UTF-8" standalone="no"?>
<!DOCTYPE svg PUBLIC "-//W3C//DTD SVG 1.1//EN"
 "http://www.w3.org/Graphics/SVG/1.1/DTD/svg11.dtd">
<!-- Generated by graphviz version 2.40.1 (20161225.0304)
 -->
<!-- Title: ECommentsBaseWidget Pages: 1 -->
<svg width="133pt" height="224pt"
 viewBox="0.00 0.00 132.93 224.00" xmlns="http://www.w3.org/2000/svg" xmlns:xlink="http://www.w3.org/1999/xlink">
<g id="graph0" class="graph" transform="scale(1 1) rotate(0) translate(4 220)">
<title>ECommentsBaseWidget</title>
<polygon fill="#ffffff" stroke="transparent" points="-4,4 -4,-220 128.9307,-220 128.9307,4 -4,4"/>
<!-- Node6 -->
<g id="node1" class="node">
<title>Node6</title>
<polygon fill="#bfbfbf" stroke="#000000" points="0,-.5 0,-124.5 124.9307,-124.5 124.9307,-.5 0,-.5"/>
<text text-anchor="middle" x="62.4653" y="-112.5" font-family="Helvetica,sans-Serif" font-size="10.00" fill="#000000">ECommentsBaseWidget</text>
<polyline fill="none" stroke="#000000" points="0,-106.5 124.9307,-106.5 "/>
<text text-anchor="start" x="8" y="-94.5" font-family="Helvetica,sans-Serif" font-size="10.00" fill="#000000">+ $model</text>
<text text-anchor="start" x="8" y="-84.5" font-family="Helvetica,sans-Serif" font-size="10.00" fill="#000000">+ $registeredOnly</text>
<text text-anchor="start" x="8" y="-74.5" font-family="Helvetica,sans-Serif" font-size="10.00" fill="#000000">+ $useCaptcha</text>
<text text-anchor="start" x="8" y="-64.5" font-family="Helvetica,sans-Serif" font-size="10.00" fill="#000000">+ $postCommentAction</text>
<text text-anchor="start" x="8" y="-54.5" font-family="Helvetica,sans-Serif" font-size="10.00" fill="#000000"># $_config</text>
<polyline fill="none" stroke="#000000" points="0,-48.5 124.9307,-48.5 "/>
<text text-anchor="start" x="8" y="-36.5" font-family="Helvetica,sans-Serif" font-size="10.00" fill="#000000">+ init()</text>
<text text-anchor="start" x="8" y="-26.5" font-family="Helvetica,sans-Serif" font-size="10.00" fill="#000000"># registerScripts()</text>
<text text-anchor="start" x="8" y="-16.5" font-family="Helvetica,sans-Serif" font-size="10.00" fill="#000000"># createNewComment()</text>
<text text-anchor="start" x="8" y="-6.5" font-family="Helvetica,sans-Serif" font-size="10.00" fill="#000000"># getOwnerPK()</text>
</g>
<!-- Node7 -->
<g id="node2" class="node">
<title>Node7</title>
<polygon fill="#ffffff" stroke="#bfbfbf" points="28.9014,-161.5 28.9014,-215.5 96.0293,-215.5 96.0293,-161.5 28.9014,-161.5"/>
<text text-anchor="middle" x="62.4653" y="-203.5" font-family="Helvetica,sans-Serif" font-size="10.00" fill="#000000">CJuiWidget</text>
<polyline fill="none" stroke="#bfbfbf" points="28.9014,-197.5 96.0293,-197.5 "/>
<text text-anchor="middle" x="62.4653" y="-185.5" font-family="Helvetica,sans-Serif" font-size="10.00" fill="#000000"> </text>
<polyline fill="none" stroke="#bfbfbf" points="28.9014,-179.5 96.0293,-179.5 "/>
<text text-anchor="middle" x="62.4653" y="-167.5" font-family="Helvetica,sans-Serif" font-size="10.00" fill="#000000"> </text>
</g>
<!-- Node7&#45;&gt;Node6 -->
<g id="edge1" class="edge">
<title>Node7&#45;&gt;Node6</title>
<path fill="none" stroke="#191970" d="M62.4653,-151.3011C62.4653,-142.9169 62.4653,-133.7957 62.4653,-124.6969"/>
<polygon fill="none" stroke="#191970" points="58.9654,-151.4698 62.4653,-161.4698 65.9654,-151.4699 58.9654,-151.4698"/>
</g>
</g>
</svg>
