<?xml version="1.0" encoding="UTF-8" standalone="no"?>
<!DOCTYPE svg PUBLIC "-//W3C//DTD SVG 1.1//EN"
 "http://www.w3.org/Graphics/SVG/1.1/DTD/svg11.dtd">
<!-- Generated by graphviz version 2.40.1 (20161225.0304)
 -->
<!-- Title: Google_BigqueryService Pages: 1 -->
<svg width="135pt" height="214pt"
 viewBox="0.00 0.00 134.62 214.00" xmlns="http://www.w3.org/2000/svg" xmlns:xlink="http://www.w3.org/1999/xlink">
<g id="graph0" class="graph" transform="scale(1 1) rotate(0) translate(4 210)">
<title>Google_BigqueryService</title>
<polygon fill="#ffffff" stroke="transparent" points="-4,4 -4,-210 130.6201,-210 130.6201,4 -4,4"/>
<!-- Node2 -->
<g id="node1" class="node">
<title>Node2</title>
<polygon fill="#bfbfbf" stroke="#000000" points="0,-.5 0,-94.5 126.6201,-94.5 126.6201,-.5 0,-.5"/>
<text text-anchor="middle" x="63.3101" y="-82.5" font-family="Helvetica,sans-Serif" font-size="10.00" fill="#000000">Google_BigqueryService</text>
<polyline fill="none" stroke="#000000" points="0,-76.5 126.6201,-76.5 "/>
<text text-anchor="start" x="8" y="-64.5" font-family="Helvetica,sans-Serif" font-size="10.00" fill="#000000">+ $datasets</text>
<text text-anchor="start" x="8" y="-54.5" font-family="Helvetica,sans-Serif" font-size="10.00" fill="#000000">+ $jobs</text>
<text text-anchor="start" x="8" y="-44.5" font-family="Helvetica,sans-Serif" font-size="10.00" fill="#000000">+ $projects</text>
<text text-anchor="start" x="8" y="-34.5" font-family="Helvetica,sans-Serif" font-size="10.00" fill="#000000">+ $tabledata</text>
<text text-anchor="start" x="8" y="-24.5" font-family="Helvetica,sans-Serif" font-size="10.00" fill="#000000">+ $tables</text>
<polyline fill="none" stroke="#000000" points="0,-18.5 126.6201,-18.5 "/>
<text text-anchor="start" x="8" y="-6.5" font-family="Helvetica,sans-Serif" font-size="10.00" fill="#000000">+ __construct()</text>
</g>
<!-- Node3 -->
<g id="node2" class="node">
<title>Node3</title>
<g id="a_node2"><a xlink:href="class_google___service.html" target="_top" xlink:title="{Google_Service\n|+ $version\l+ $servicePath\l+ $resource\l|}">
<polygon fill="#ffffff" stroke="#000000" points="19.7339,-131.5 19.7339,-205.5 106.8862,-205.5 106.8862,-131.5 19.7339,-131.5"/>
<text text-anchor="middle" x="63.3101" y="-193.5" font-family="Helvetica,sans-Serif" font-size="10.00" fill="#000000">Google_Service</text>
<polyline fill="none" stroke="#000000" points="19.7339,-187.5 106.8862,-187.5 "/>
<text text-anchor="start" x="27.7339" y="-175.5" font-family="Helvetica,sans-Serif" font-size="10.00" fill="#000000">+ $version</text>
<text text-anchor="start" x="27.7339" y="-165.5" font-family="Helvetica,sans-Serif" font-size="10.00" fill="#000000">+ $servicePath</text>
<text text-anchor="start" x="27.7339" y="-155.5" font-family="Helvetica,sans-Serif" font-size="10.00" fill="#000000">+ $resource</text>
<polyline fill="none" stroke="#000000" points="19.7339,-149.5 106.8862,-149.5 "/>
<text text-anchor="middle" x="63.3101" y="-137.5" font-family="Helvetica,sans-Serif" font-size="10.00" fill="#000000"> </text>
</a>
</g>
</g>
<!-- Node3&#45;&gt;Node2 -->
<g id="edge1" class="edge">
<title>Node3&#45;&gt;Node2</title>
<path fill="none" stroke="#191970" d="M63.3101,-120.9307C63.3101,-112.3143 63.3101,-103.3308 63.3101,-94.7244"/>
<polygon fill="none" stroke="#191970" points="59.8102,-121.2087 63.3101,-131.2087 66.8102,-121.2087 59.8102,-121.2087"/>
</g>
</g>
</svg>
