<?xml version="1.0" encoding="UTF-8" standalone="no"?>
<!DOCTYPE svg PUBLIC "-//W3C//DTD SVG 1.1//EN"
 "http://www.w3.org/Graphics/SVG/1.1/DTD/svg11.dtd">
<!-- Generated by graphviz version 2.40.1 (20161225.0304)
 -->
<!-- Title: Google_CustomersServiceResource Pages: 1 -->
<svg width="186pt" height="214pt"
 viewBox="0.00 0.00 186.29 214.00" xmlns="http://www.w3.org/2000/svg" xmlns:xlink="http://www.w3.org/1999/xlink">
<g id="graph0" class="graph" transform="scale(1 1) rotate(0) translate(4 210)">
<title>Google_CustomersServiceResource</title>
<polygon fill="#ffffff" stroke="transparent" points="-4,4 -4,-210 182.2949,-210 182.2949,4 -4,4"/>
<!-- Node0 -->
<g id="node1" class="node">
<title>Node0</title>
<polygon fill="#bfbfbf" stroke="#000000" points="0,-.5 0,-84.5 178.2949,-84.5 178.2949,-.5 0,-.5"/>
<text text-anchor="middle" x="89.1475" y="-72.5" font-family="Helvetica,sans-Serif" font-size="10.00" fill="#000000">Google_CustomersServiceResource</text>
<polyline fill="none" stroke="#000000" points="0,-66.5 178.2949,-66.5 "/>
<text text-anchor="middle" x="89.1475" y="-54.5" font-family="Helvetica,sans-Serif" font-size="10.00" fill="#000000"> </text>
<polyline fill="none" stroke="#000000" points="0,-48.5 178.2949,-48.5 "/>
<text text-anchor="start" x="8" y="-36.5" font-family="Helvetica,sans-Serif" font-size="10.00" fill="#000000">+ get()</text>
<text text-anchor="start" x="8" y="-26.5" font-family="Helvetica,sans-Serif" font-size="10.00" fill="#000000">+ insert()</text>
<text text-anchor="start" x="8" y="-16.5" font-family="Helvetica,sans-Serif" font-size="10.00" fill="#000000">+ patch()</text>
<text text-anchor="start" x="8" y="-6.5" font-family="Helvetica,sans-Serif" font-size="10.00" fill="#000000">+ update()</text>
</g>
<!-- Node1 -->
<g id="node2" class="node">
<title>Node1</title>
<g id="a_node2"><a xlink:href="class_google___service_resource.html" target="_top" xlink:title="{Google_ServiceResource\n||+ __construct()\l+ __call()\l+ useObjects()\l# stripNull()\l}">
<polygon fill="#ffffff" stroke="#000000" points="24.1724,-121.5 24.1724,-205.5 154.1226,-205.5 154.1226,-121.5 24.1724,-121.5"/>
<text text-anchor="middle" x="89.1475" y="-193.5" font-family="Helvetica,sans-Serif" font-size="10.00" fill="#000000">Google_ServiceResource</text>
<polyline fill="none" stroke="#000000" points="24.1724,-187.5 154.1226,-187.5 "/>
<text text-anchor="middle" x="89.1475" y="-175.5" font-family="Helvetica,sans-Serif" font-size="10.00" fill="#000000"> </text>
<polyline fill="none" stroke="#000000" points="24.1724,-169.5 154.1226,-169.5 "/>
<text text-anchor="start" x="32.1724" y="-157.5" font-family="Helvetica,sans-Serif" font-size="10.00" fill="#000000">+ __construct()</text>
<text text-anchor="start" x="32.1724" y="-147.5" font-family="Helvetica,sans-Serif" font-size="10.00" fill="#000000">+ __call()</text>
<text text-anchor="start" x="32.1724" y="-137.5" font-family="Helvetica,sans-Serif" font-size="10.00" fill="#000000">+ useObjects()</text>
<text text-anchor="start" x="32.1724" y="-127.5" font-family="Helvetica,sans-Serif" font-size="10.00" fill="#000000"># stripNull()</text>
</a>
</g>
</g>
<!-- Node1&#45;&gt;Node0 -->
<g id="edge1" class="edge">
<title>Node1&#45;&gt;Node0</title>
<path fill="none" stroke="#191970" d="M89.1475,-110.977C89.1475,-102.1562 89.1475,-93.1052 89.1475,-84.5917"/>
<polygon fill="none" stroke="#191970" points="85.6476,-111.18 89.1475,-121.1801 92.6476,-111.1801 85.6476,-111.18"/>
</g>
</g>
</svg>
