<?xml version="1.0" encoding="UTF-8" standalone="no"?>
<!DOCTYPE svg PUBLIC "-//W3C//DTD SVG 1.1//EN"
 "http://www.w3.org/Graphics/SVG/1.1/DTD/svg11.dtd">
<!-- Generated by graphviz version 2.40.1 (20161225.0304)
 -->
<!-- Title: UserIdentity Pages: 1 -->
<svg width="94pt" height="154pt"
 viewBox="0.00 0.00 93.77 154.00" xmlns="http://www.w3.org/2000/svg" xmlns:xlink="http://www.w3.org/1999/xlink">
<g id="graph0" class="graph" transform="scale(1 1) rotate(0) translate(4 150)">
<title>UserIdentity</title>
<polygon fill="#ffffff" stroke="transparent" points="-4,4 -4,-150 89.7656,-150 89.7656,4 -4,4"/>
<!-- Node0 -->
<g id="node1" class="node">
<title>Node0</title>
<polygon fill="#bfbfbf" stroke="#000000" points="0,-.5 0,-54.5 85.7656,-54.5 85.7656,-.5 0,-.5"/>
<text text-anchor="middle" x="42.8828" y="-42.5" font-family="Helvetica,sans-Serif" font-size="10.00" fill="#000000">UserIdentity</text>
<polyline fill="none" stroke="#000000" points="0,-36.5 85.7656,-36.5 "/>
<text text-anchor="middle" x="42.8828" y="-24.5" font-family="Helvetica,sans-Serif" font-size="10.00" fill="#000000"> </text>
<polyline fill="none" stroke="#000000" points="0,-18.5 85.7656,-18.5 "/>
<text text-anchor="start" x="8" y="-6.5" font-family="Helvetica,sans-Serif" font-size="10.00" fill="#000000">+ authenticate()</text>
</g>
<!-- Node1 -->
<g id="node2" class="node">
<title>Node1</title>
<polygon fill="#ffffff" stroke="#bfbfbf" points="4.5947,-91.5 4.5947,-145.5 81.1709,-145.5 81.1709,-91.5 4.5947,-91.5"/>
<text text-anchor="middle" x="42.8828" y="-133.5" font-family="Helvetica,sans-Serif" font-size="10.00" fill="#000000">CUserIdentity</text>
<polyline fill="none" stroke="#bfbfbf" points="4.5947,-127.5 81.1709,-127.5 "/>
<text text-anchor="middle" x="42.8828" y="-115.5" font-family="Helvetica,sans-Serif" font-size="10.00" fill="#000000"> </text>
<polyline fill="none" stroke="#bfbfbf" points="4.5947,-109.5 81.1709,-109.5 "/>
<text text-anchor="middle" x="42.8828" y="-97.5" font-family="Helvetica,sans-Serif" font-size="10.00" fill="#000000"> </text>
</g>
<!-- Node1&#45;&gt;Node0 -->
<g id="edge1" class="edge">
<title>Node1&#45;&gt;Node0</title>
<path fill="none" stroke="#191970" d="M42.8828,-81.12C42.8828,-72.3006 42.8828,-63.0605 42.8828,-54.7837"/>
<polygon fill="none" stroke="#191970" points="39.3829,-81.197 42.8828,-91.197 46.3829,-81.197 39.3829,-81.197"/>
</g>
</g>
</svg>
