<?xml version="1.0" encoding="UTF-8" standalone="no"?>
<!DOCTYPE svg PUBLIC "-//W3C//DTD SVG 1.1//EN"
 "http://www.w3.org/Graphics/SVG/1.1/DTD/svg11.dtd">
<!-- Generated by graphviz version 2.40.1 (20161225.0304)
 -->
<!-- Title: Google_InstancesServiceResource Pages: 1 -->
<svg width="181pt" height="284pt"
 viewBox="0.00 0.00 180.75 284.00" xmlns="http://www.w3.org/2000/svg" xmlns:xlink="http://www.w3.org/1999/xlink">
<g id="graph0" class="graph" transform="scale(1 1) rotate(0) translate(4 280)">
<title>Google_InstancesServiceResource</title>
<polygon fill="#ffffff" stroke="transparent" points="-4,4 -4,-280 176.7529,-280 176.7529,4 -4,4"/>
<!-- Node0 -->
<g id="node1" class="node">
<title>Node0</title>
<polygon fill="#bfbfbf" stroke="#000000" points="0,-.5 0,-154.5 172.7529,-154.5 172.7529,-.5 0,-.5"/>
<text text-anchor="middle" x="86.3765" y="-142.5" font-family="Helvetica,sans-Serif" font-size="10.00" fill="#000000">Google_InstancesServiceResource</text>
<polyline fill="none" stroke="#000000" points="0,-136.5 172.7529,-136.5 "/>
<text text-anchor="middle" x="86.3765" y="-124.5" font-family="Helvetica,sans-Serif" font-size="10.00" fill="#000000"> </text>
<polyline fill="none" stroke="#000000" points="0,-118.5 172.7529,-118.5 "/>
<text text-anchor="start" x="8" y="-106.5" font-family="Helvetica,sans-Serif" font-size="10.00" fill="#000000">+ addAccessConfig()</text>
<text text-anchor="start" x="8" y="-96.5" font-family="Helvetica,sans-Serif" font-size="10.00" fill="#000000">+ aggregatedList()</text>
<text text-anchor="start" x="8" y="-86.5" font-family="Helvetica,sans-Serif" font-size="10.00" fill="#000000">+ attachDisk()</text>
<text text-anchor="start" x="8" y="-76.5" font-family="Helvetica,sans-Serif" font-size="10.00" fill="#000000">+ delete()</text>
<text text-anchor="start" x="8" y="-66.5" font-family="Helvetica,sans-Serif" font-size="10.00" fill="#000000">+ deleteAccessConfig()</text>
<text text-anchor="start" x="8" y="-56.5" font-family="Helvetica,sans-Serif" font-size="10.00" fill="#000000">+ detachDisk()</text>
<text text-anchor="start" x="8" y="-46.5" font-family="Helvetica,sans-Serif" font-size="10.00" fill="#000000">+ get()</text>
<text text-anchor="start" x="8" y="-36.5" font-family="Helvetica,sans-Serif" font-size="10.00" fill="#000000">+ getSerialPortOutput()</text>
<text text-anchor="start" x="8" y="-26.5" font-family="Helvetica,sans-Serif" font-size="10.00" fill="#000000">+ insert()</text>
<text text-anchor="start" x="8" y="-16.5" font-family="Helvetica,sans-Serif" font-size="10.00" fill="#000000">+ listInstances()</text>
<text text-anchor="start" x="8" y="-6.5" font-family="Helvetica,sans-Serif" font-size="10.00" fill="#000000">і ще 13...</text>
</g>
<!-- Node1 -->
<g id="node2" class="node">
<title>Node1</title>
<g id="a_node2"><a xlink:href="class_google___service_resource.html" target="_top" xlink:title="{Google_ServiceResource\n||+ __construct()\l+ __call()\l+ useObjects()\l# stripNull()\l}">
<polygon fill="#ffffff" stroke="#000000" points="21.4014,-191.5 21.4014,-275.5 151.3516,-275.5 151.3516,-191.5 21.4014,-191.5"/>
<text text-anchor="middle" x="86.3765" y="-263.5" font-family="Helvetica,sans-Serif" font-size="10.00" fill="#000000">Google_ServiceResource</text>
<polyline fill="none" stroke="#000000" points="21.4014,-257.5 151.3516,-257.5 "/>
<text text-anchor="middle" x="86.3765" y="-245.5" font-family="Helvetica,sans-Serif" font-size="10.00" fill="#000000"> </text>
<polyline fill="none" stroke="#000000" points="21.4014,-239.5 151.3516,-239.5 "/>
<text text-anchor="start" x="29.4014" y="-227.5" font-family="Helvetica,sans-Serif" font-size="10.00" fill="#000000">+ __construct()</text>
<text text-anchor="start" x="29.4014" y="-217.5" font-family="Helvetica,sans-Serif" font-size="10.00" fill="#000000">+ __call()</text>
<text text-anchor="start" x="29.4014" y="-207.5" font-family="Helvetica,sans-Serif" font-size="10.00" fill="#000000">+ useObjects()</text>
<text text-anchor="start" x="29.4014" y="-197.5" font-family="Helvetica,sans-Serif" font-size="10.00" fill="#000000"># stripNull()</text>
</a>
</g>
</g>
<!-- Node1&#45;&gt;Node0 -->
<g id="edge1" class="edge">
<title>Node1&#45;&gt;Node0</title>
<path fill="none" stroke="#191970" d="M79.9614,-181.132C79.7305,-172.5955 79.619,-163.5981 79.6268,-154.6163"/>
<polygon fill="none" stroke="#191970" points="76.4686,-181.4072 80.3022,-191.2842 83.4646,-181.1723 76.4686,-181.4072"/>
</g>
<!-- Node1&#45;&gt;Node0 -->
<g id="edge2" class="edge">
<title>Node1&#45;&gt;Node0</title>
<path fill="none" stroke="#191970" d="M92.7915,-181.132C93.0224,-172.5955 93.1339,-163.5981 93.1261,-154.6163"/>
<polygon fill="none" stroke="#191970" points="89.2883,-181.1723 92.4507,-191.2842 96.2843,-181.4072 89.2883,-181.1723"/>
</g>
</g>
</svg>
