<?xml version="1.0" encoding="UTF-8" standalone="no"?>
<!DOCTYPE svg PUBLIC "-//W3C//DTD SVG 1.1//EN"
 "http://www.w3.org/Graphics/SVG/1.1/DTD/svg11.dtd">
<!-- Generated by graphviz version 2.40.1 (20161225.0304)
 -->
<!-- Title: Google_ServiceException Pages: 1 -->
<svg width="139pt" height="255pt"
 viewBox="0.00 0.00 139.07 255.00" xmlns="http://www.w3.org/2000/svg" xmlns:xlink="http://www.w3.org/1999/xlink">
<g id="graph0" class="graph" transform="scale(1 1) rotate(0) translate(4 251)">
<title>Google_ServiceException</title>
<polygon fill="#ffffff" stroke="transparent" points="-4,4 -4,-251 135.0684,-251 135.0684,4 -4,4"/>
<!-- Node0 -->
<g id="node1" class="node">
<title>Node0</title>
<polygon fill="#bfbfbf" stroke="#000000" points="0,-.5 0,-64.5 131.0684,-64.5 131.0684,-.5 0,-.5"/>
<text text-anchor="middle" x="65.5342" y="-52.5" font-family="Helvetica,sans-Serif" font-size="10.00" fill="#000000">Google_ServiceException</text>
<polyline fill="none" stroke="#000000" points="0,-46.5 131.0684,-46.5 "/>
<text text-anchor="start" x="8" y="-34.5" font-family="Helvetica,sans-Serif" font-size="10.00" fill="#000000"># $errors</text>
<polyline fill="none" stroke="#000000" points="0,-28.5 131.0684,-28.5 "/>
<text text-anchor="start" x="8" y="-16.5" font-family="Helvetica,sans-Serif" font-size="10.00" fill="#000000">+ __construct()</text>
<text text-anchor="start" x="8" y="-6.5" font-family="Helvetica,sans-Serif" font-size="10.00" fill="#000000">+ getErrors()</text>
</g>
<!-- Node1 -->
<g id="node2" class="node">
<title>Node1</title>
<g id="a_node2"><a xlink:href="class_google___exception.html" target="_top" xlink:title="{Google_Exception\n||}">
<polygon fill="#ffffff" stroke="#000000" points="16.6724,-101.5 16.6724,-155.5 114.396,-155.5 114.396,-101.5 16.6724,-101.5"/>
<text text-anchor="middle" x="65.5342" y="-143.5" font-family="Helvetica,sans-Serif" font-size="10.00" fill="#000000">Google_Exception</text>
<polyline fill="none" stroke="#000000" points="16.6724,-137.5 114.396,-137.5 "/>
<text text-anchor="middle" x="65.5342" y="-125.5" font-family="Helvetica,sans-Serif" font-size="10.00" fill="#000000"> </text>
<polyline fill="none" stroke="#000000" points="16.6724,-119.5 114.396,-119.5 "/>
<text text-anchor="middle" x="65.5342" y="-107.5" font-family="Helvetica,sans-Serif" font-size="10.00" fill="#000000"> </text>
</a>
</g>
</g>
<!-- Node1&#45;&gt;Node0 -->
<g id="edge1" class="edge">
<title>Node1&#45;&gt;Node0</title>
<path fill="none" stroke="#191970" d="M65.5342,-91.2276C65.5342,-82.4295 65.5342,-73.1248 65.5342,-64.5792"/>
<polygon fill="none" stroke="#191970" points="62.0343,-91.247 65.5342,-101.247 69.0343,-91.2471 62.0343,-91.247"/>
</g>
<!-- Node2 -->
<g id="node3" class="node">
<title>Node2</title>
<polygon fill="#ffffff" stroke="#bfbfbf" points="35.5762,-192.5 35.5762,-246.5 95.4922,-246.5 95.4922,-192.5 35.5762,-192.5"/>
<text text-anchor="middle" x="65.5342" y="-234.5" font-family="Helvetica,sans-Serif" font-size="10.00" fill="#000000">Exception</text>
<polyline fill="none" stroke="#bfbfbf" points="35.5762,-228.5 95.4922,-228.5 "/>
<text text-anchor="middle" x="65.5342" y="-216.5" font-family="Helvetica,sans-Serif" font-size="10.00" fill="#000000"> </text>
<polyline fill="none" stroke="#bfbfbf" points="35.5762,-210.5 95.4922,-210.5 "/>
<text text-anchor="middle" x="65.5342" y="-198.5" font-family="Helvetica,sans-Serif" font-size="10.00" fill="#000000"> </text>
</g>
<!-- Node2&#45;&gt;Node1 -->
<g id="edge2" class="edge">
<title>Node2&#45;&gt;Node1</title>
<path fill="none" stroke="#191970" d="M65.5342,-182.12C65.5342,-173.3006 65.5342,-164.0605 65.5342,-155.7837"/>
<polygon fill="none" stroke="#191970" points="62.0343,-182.197 65.5342,-192.197 69.0343,-182.197 62.0343,-182.197"/>
</g>
</g>
</svg>
