<?xml version="1.0" encoding="UTF-8" standalone="no"?>
<!DOCTYPE svg PUBLIC "-//W3C//DTD SVG 1.1//EN"
 "http://www.w3.org/Graphics/SVG/1.1/DTD/svg11.dtd">
<!-- Generated by graphviz version 2.40.1 (20161225.0304)
 -->
<!-- Title: Google_ActivityObjectAttachmentsEmbed Pages: 1 -->
<svg width="178pt" height="284pt"
 viewBox="0.00 0.00 177.96 284.00" xmlns="http://www.w3.org/2000/svg" xmlns:xlink="http://www.w3.org/1999/xlink">
<g id="graph0" class="graph" transform="scale(1 1) rotate(0) translate(4 280)">
<title>Google_ActivityObjectAttachmentsEmbed</title>
<polygon fill="#ffffff" stroke="transparent" points="-4,4 -4,-280 173.96,-280 173.96,4 -4,4"/>
<!-- Node2 -->
<g id="node1" class="node">
<title>Node2</title>
<polygon fill="#bfbfbf" stroke="#000000" points="0,-.5 0,-144.5 169.96,-144.5 169.96,-.5 0,-.5"/>
<text text-anchor="start" x="8" y="-132.5" font-family="Helvetica,sans-Serif" font-size="10.00" fill="#000000">Google_ActivityObjectAttachments</text>
<text text-anchor="middle" x="84.98" y="-122.5" font-family="Helvetica,sans-Serif" font-size="10.00" fill="#000000">Embed</text>
<polyline fill="none" stroke="#000000" points="0,-116.5 169.96,-116.5 "/>
<text text-anchor="start" x="8" y="-104.5" font-family="Helvetica,sans-Serif" font-size="10.00" fill="#000000">+ $type</text>
<text text-anchor="start" x="8" y="-94.5" font-family="Helvetica,sans-Serif" font-size="10.00" fill="#000000">+ $url</text>
<polyline fill="none" stroke="#000000" points="0,-88.5 169.96,-88.5 "/>
<text text-anchor="start" x="8" y="-76.5" font-family="Helvetica,sans-Serif" font-size="10.00" fill="#000000">+ setType()</text>
<text text-anchor="start" x="8" y="-66.5" font-family="Helvetica,sans-Serif" font-size="10.00" fill="#000000">+ getType()</text>
<text text-anchor="start" x="8" y="-56.5" font-family="Helvetica,sans-Serif" font-size="10.00" fill="#000000">+ setUrl()</text>
<text text-anchor="start" x="8" y="-46.5" font-family="Helvetica,sans-Serif" font-size="10.00" fill="#000000">+ getUrl()</text>
<text text-anchor="start" x="8" y="-36.5" font-family="Helvetica,sans-Serif" font-size="10.00" fill="#000000">+ setType()</text>
<text text-anchor="start" x="8" y="-26.5" font-family="Helvetica,sans-Serif" font-size="10.00" fill="#000000">+ getType()</text>
<text text-anchor="start" x="8" y="-16.5" font-family="Helvetica,sans-Serif" font-size="10.00" fill="#000000">+ setUrl()</text>
<text text-anchor="start" x="8" y="-6.5" font-family="Helvetica,sans-Serif" font-size="10.00" fill="#000000">+ getUrl()</text>
</g>
<!-- Node3 -->
<g id="node2" class="node">
<title>Node3</title>
<g id="a_node2"><a xlink:href="class_google___model.html" target="_top" xlink:title="{Google_Model\n||+ __construct()\l+ assertIsArray()\l# mapTypes()\l# isAssociativeArray()\l# useObjects()\l}">
<polygon fill="#ffffff" stroke="#000000" points="28.6353,-181.5 28.6353,-275.5 141.3247,-275.5 141.3247,-181.5 28.6353,-181.5"/>
<text text-anchor="middle" x="84.98" y="-263.5" font-family="Helvetica,sans-Serif" font-size="10.00" fill="#000000">Google_Model</text>
<polyline fill="none" stroke="#000000" points="28.6353,-257.5 141.3247,-257.5 "/>
<text text-anchor="middle" x="84.98" y="-245.5" font-family="Helvetica,sans-Serif" font-size="10.00" fill="#000000"> </text>
<polyline fill="none" stroke="#000000" points="28.6353,-239.5 141.3247,-239.5 "/>
<text text-anchor="start" x="36.6353" y="-227.5" font-family="Helvetica,sans-Serif" font-size="10.00" fill="#000000">+ __construct()</text>
<text text-anchor="start" x="36.6353" y="-217.5" font-family="Helvetica,sans-Serif" font-size="10.00" fill="#000000">+ assertIsArray()</text>
<text text-anchor="start" x="36.6353" y="-207.5" font-family="Helvetica,sans-Serif" font-size="10.00" fill="#000000"># mapTypes()</text>
<text text-anchor="start" x="36.6353" y="-197.5" font-family="Helvetica,sans-Serif" font-size="10.00" fill="#000000"># isAssociativeArray()</text>
<text text-anchor="start" x="36.6353" y="-187.5" font-family="Helvetica,sans-Serif" font-size="10.00" fill="#000000"># useObjects()</text>
</a>
</g>
</g>
<!-- Node3&#45;&gt;Node2 -->
<g id="edge1" class="edge">
<title>Node3&#45;&gt;Node2</title>
<path fill="none" stroke="#191970" d="M78.4416,-171.0008C78.2604,-162.4102 78.1956,-153.4624 78.2471,-144.6162"/>
<polygon fill="none" stroke="#191970" points="74.9503,-171.3702 78.7203,-181.2715 81.9477,-171.1802 74.9503,-171.3702"/>
</g>
<!-- Node3&#45;&gt;Node2 -->
<g id="edge2" class="edge">
<title>Node3&#45;&gt;Node2</title>
<path fill="none" stroke="#191970" d="M91.5183,-171.0008C91.6995,-162.4102 91.7644,-153.4624 91.7129,-144.6162"/>
<polygon fill="none" stroke="#191970" points="88.0123,-171.1802 91.2396,-181.2715 95.0097,-171.3702 88.0123,-171.1802"/>
</g>
</g>
</svg>
