<?xml version="1.0" encoding="UTF-8" standalone="no"?>
<!DOCTYPE svg PUBLIC "-//W3C//DTD SVG 1.1//EN"
 "http://www.w3.org/Graphics/SVG/1.1/DTD/svg11.dtd">
<!-- Generated by graphviz version 2.40.1 (20161225.0304)
 -->
<!-- Title: Google_ReportsSavedServiceResource Pages: 1 -->
<svg width="159pt" height="224pt"
 viewBox="0.00 0.00 158.52 224.00" xmlns="http://www.w3.org/2000/svg" xmlns:xlink="http://www.w3.org/1999/xlink">
<g id="graph0" class="graph" transform="scale(1 1) rotate(0) translate(4 220)">
<title>Google_ReportsSavedServiceResource</title>
<polygon fill="#ffffff" stroke="transparent" points="-4,4 -4,-220 154.5215,-220 154.5215,4 -4,4"/>
<!-- Node0 -->
<g id="node1" class="node">
<title>Node0</title>
<polygon fill="#bfbfbf" stroke="#000000" points="0,-.5 0,-94.5 150.5215,-94.5 150.5215,-.5 0,-.5"/>
<text text-anchor="start" x="8" y="-82.5" font-family="Helvetica,sans-Serif" font-size="10.00" fill="#000000">Google_ReportsSavedService</text>
<text text-anchor="middle" x="75.2607" y="-72.5" font-family="Helvetica,sans-Serif" font-size="10.00" fill="#000000">Resource</text>
<polyline fill="none" stroke="#000000" points="0,-66.5 150.5215,-66.5 "/>
<text text-anchor="middle" x="75.2607" y="-54.5" font-family="Helvetica,sans-Serif" font-size="10.00" fill="#000000"> </text>
<polyline fill="none" stroke="#000000" points="0,-48.5 150.5215,-48.5 "/>
<text text-anchor="start" x="8" y="-36.5" font-family="Helvetica,sans-Serif" font-size="10.00" fill="#000000">+ generate()</text>
<text text-anchor="start" x="8" y="-26.5" font-family="Helvetica,sans-Serif" font-size="10.00" fill="#000000">+ listReportsSaved()</text>
<text text-anchor="start" x="8" y="-16.5" font-family="Helvetica,sans-Serif" font-size="10.00" fill="#000000">+ generate()</text>
<text text-anchor="start" x="8" y="-6.5" font-family="Helvetica,sans-Serif" font-size="10.00" fill="#000000">+ listReportsSaved()</text>
</g>
<!-- Node1 -->
<g id="node2" class="node">
<title>Node1</title>
<g id="a_node2"><a xlink:href="class_google___service_resource.html" target="_top" xlink:title="{Google_ServiceResource\n||+ __construct()\l+ __call()\l+ useObjects()\l# stripNull()\l}">
<polygon fill="#ffffff" stroke="#000000" points="10.2856,-131.5 10.2856,-215.5 140.2358,-215.5 140.2358,-131.5 10.2856,-131.5"/>
<text text-anchor="middle" x="75.2607" y="-203.5" font-family="Helvetica,sans-Serif" font-size="10.00" fill="#000000">Google_ServiceResource</text>
<polyline fill="none" stroke="#000000" points="10.2856,-197.5 140.2358,-197.5 "/>
<text text-anchor="middle" x="75.2607" y="-185.5" font-family="Helvetica,sans-Serif" font-size="10.00" fill="#000000"> </text>
<polyline fill="none" stroke="#000000" points="10.2856,-179.5 140.2358,-179.5 "/>
<text text-anchor="start" x="18.2856" y="-167.5" font-family="Helvetica,sans-Serif" font-size="10.00" fill="#000000">+ __construct()</text>
<text text-anchor="start" x="18.2856" y="-157.5" font-family="Helvetica,sans-Serif" font-size="10.00" fill="#000000">+ __call()</text>
<text text-anchor="start" x="18.2856" y="-147.5" font-family="Helvetica,sans-Serif" font-size="10.00" fill="#000000">+ useObjects()</text>
<text text-anchor="start" x="18.2856" y="-137.5" font-family="Helvetica,sans-Serif" font-size="10.00" fill="#000000"># stripNull()</text>
</a>
</g>
</g>
<!-- Node1&#45;&gt;Node0 -->
<g id="edge1" class="edge">
<title>Node1&#45;&gt;Node0</title>
<path fill="none" stroke="#191970" d="M68.5962,-121.0873C68.4537,-112.3328 68.4894,-103.2974 68.7035,-94.6838"/>
<polygon fill="none" stroke="#191970" points="65.0998,-121.2827 68.8454,-131.1933 72.0977,-121.11 65.0998,-121.2827"/>
</g>
<!-- Node1&#45;&gt;Node0 -->
<g id="edge2" class="edge">
<title>Node1&#45;&gt;Node0</title>
<path fill="none" stroke="#191970" d="M81.9253,-121.0873C82.0678,-112.3328 82.032,-103.2974 81.818,-94.6838"/>
<polygon fill="none" stroke="#191970" points="78.4238,-121.11 81.6761,-131.1933 85.4216,-121.2827 78.4238,-121.11"/>
</g>
</g>
</svg>
