<?xml version="1.0" encoding="UTF-8" standalone="no"?>
<!DOCTYPE svg PUBLIC "-//W3C//DTD SVG 1.1//EN"
 "http://www.w3.org/Graphics/SVG/1.1/DTD/svg11.dtd">
<!-- Generated by graphviz version 2.40.1 (20161225.0304)
 -->
<!-- Title: Google_MylibraryBookshelvesVolumesServiceResource Pages: 1 -->
<svg width="159pt" height="204pt"
 viewBox="0.00 0.00 159.06 204.00" xmlns="http://www.w3.org/2000/svg" xmlns:xlink="http://www.w3.org/1999/xlink">
<g id="graph0" class="graph" transform="scale(1 1) rotate(0) translate(4 200)">
<title>Google_MylibraryBookshelvesVolumesServiceResource</title>
<polygon fill="#ffffff" stroke="transparent" points="-4,4 -4,-200 155.0635,-200 155.0635,4 -4,4"/>
<!-- Node0 -->
<g id="node1" class="node">
<title>Node0</title>
<polygon fill="#bfbfbf" stroke="#000000" points="0,-.5 0,-74.5 151.0635,-74.5 151.0635,-.5 0,-.5"/>
<text text-anchor="start" x="8" y="-62.5" font-family="Helvetica,sans-Serif" font-size="10.00" fill="#000000">Google_MylibraryBookshelves</text>
<text text-anchor="middle" x="75.5317" y="-52.5" font-family="Helvetica,sans-Serif" font-size="10.00" fill="#000000">VolumesServiceResource</text>
<polyline fill="none" stroke="#000000" points="0,-46.5 151.0635,-46.5 "/>
<text text-anchor="middle" x="75.5317" y="-34.5" font-family="Helvetica,sans-Serif" font-size="10.00" fill="#000000"> </text>
<polyline fill="none" stroke="#000000" points="0,-28.5 151.0635,-28.5 "/>
<text text-anchor="start" x="8" y="-16.5" font-family="Helvetica,sans-Serif" font-size="10.00" fill="#000000">+ listMylibraryBookshelves</text>
<text text-anchor="start" x="8" y="-6.5" font-family="Helvetica,sans-Serif" font-size="10.00" fill="#000000">Volumes()</text>
</g>
<!-- Node1 -->
<g id="node2" class="node">
<title>Node1</title>
<g id="a_node2"><a xlink:href="class_google___service_resource.html" target="_top" xlink:title="{Google_ServiceResource\n||+ __construct()\l+ __call()\l+ useObjects()\l# stripNull()\l}">
<polygon fill="#ffffff" stroke="#000000" points="10.5566,-111.5 10.5566,-195.5 140.5068,-195.5 140.5068,-111.5 10.5566,-111.5"/>
<text text-anchor="middle" x="75.5317" y="-183.5" font-family="Helvetica,sans-Serif" font-size="10.00" fill="#000000">Google_ServiceResource</text>
<polyline fill="none" stroke="#000000" points="10.5566,-177.5 140.5068,-177.5 "/>
<text text-anchor="middle" x="75.5317" y="-165.5" font-family="Helvetica,sans-Serif" font-size="10.00" fill="#000000"> </text>
<polyline fill="none" stroke="#000000" points="10.5566,-159.5 140.5068,-159.5 "/>
<text text-anchor="start" x="18.5566" y="-147.5" font-family="Helvetica,sans-Serif" font-size="10.00" fill="#000000">+ __construct()</text>
<text text-anchor="start" x="18.5566" y="-137.5" font-family="Helvetica,sans-Serif" font-size="10.00" fill="#000000">+ __call()</text>
<text text-anchor="start" x="18.5566" y="-127.5" font-family="Helvetica,sans-Serif" font-size="10.00" fill="#000000">+ useObjects()</text>
<text text-anchor="start" x="18.5566" y="-117.5" font-family="Helvetica,sans-Serif" font-size="10.00" fill="#000000"># stripNull()</text>
</a>
</g>
</g>
<!-- Node1&#45;&gt;Node0 -->
<g id="edge1" class="edge">
<title>Node1&#45;&gt;Node0</title>
<path fill="none" stroke="#191970" d="M75.5317,-101.0572C75.5317,-92.2275 75.5317,-83.2244 75.5317,-74.8766"/>
<polygon fill="none" stroke="#191970" points="72.0318,-101.2932 75.5317,-111.2932 79.0318,-101.2932 72.0318,-101.2932"/>
</g>
</g>
</svg>
