<?xml version="1.0" encoding="UTF-8" standalone="no"?>
<!DOCTYPE svg PUBLIC "-//W3C//DTD SVG 1.1//EN"
 "http://www.w3.org/Graphics/SVG/1.1/DTD/svg11.dtd">
<!-- Generated by graphviz version 2.40.1 (20161225.0304)
 -->
<!-- Title: passwordStrength Pages: 1 -->
<svg width="135pt" height="234pt"
 viewBox="0.00 0.00 135.26 234.00" xmlns="http://www.w3.org/2000/svg" xmlns:xlink="http://www.w3.org/1999/xlink">
<g id="graph0" class="graph" transform="scale(1 1) rotate(0) translate(4 230)">
<title>passwordStrength</title>
<polygon fill="#ffffff" stroke="transparent" points="-4,4 -4,-230 131.2646,-230 131.2646,4 -4,4"/>
<!-- Node2 -->
<g id="node1" class="node">
<title>Node2</title>
<polygon fill="#bfbfbf" stroke="#000000" points="0,-.5 0,-134.5 127.2646,-134.5 127.2646,-.5 0,-.5"/>
<text text-anchor="middle" x="63.6323" y="-122.5" font-family="Helvetica,sans-Serif" font-size="10.00" fill="#000000">passwordStrength</text>
<polyline fill="none" stroke="#000000" points="0,-116.5 127.2646,-116.5 "/>
<text text-anchor="start" x="8" y="-104.5" font-family="Helvetica,sans-Serif" font-size="10.00" fill="#000000">+ WEAK</text>
<text text-anchor="start" x="8" y="-94.5" font-family="Helvetica,sans-Serif" font-size="10.00" fill="#000000">+ MEDIUM</text>
<text text-anchor="start" x="8" y="-84.5" font-family="Helvetica,sans-Serif" font-size="10.00" fill="#000000">+ STRONG</text>
<text text-anchor="start" x="8" y="-74.5" font-family="Helvetica,sans-Serif" font-size="10.00" fill="#000000">+ $weak_pattern</text>
<text text-anchor="start" x="8" y="-64.5" font-family="Helvetica,sans-Serif" font-size="10.00" fill="#000000">+ $medium_pattern</text>
<text text-anchor="start" x="8" y="-54.5" font-family="Helvetica,sans-Serif" font-size="10.00" fill="#000000">+ $strong_pattern</text>
<text text-anchor="start" x="8" y="-44.5" font-family="Helvetica,sans-Serif" font-size="10.00" fill="#000000">+ $user_id</text>
<text text-anchor="start" x="8" y="-34.5" font-family="Helvetica,sans-Serif" font-size="10.00" fill="#000000">+ $pattern</text>
<polyline fill="none" stroke="#000000" points="0,-28.5 127.2646,-28.5 "/>
<text text-anchor="start" x="8" y="-16.5" font-family="Helvetica,sans-Serif" font-size="10.00" fill="#000000">+ clientValidateAttribute()</text>
<text text-anchor="start" x="8" y="-6.5" font-family="Helvetica,sans-Serif" font-size="10.00" fill="#000000"># validateAttribute()</text>
</g>
<!-- Node3 -->
<g id="node2" class="node">
<title>Node3</title>
<polygon fill="#ffffff" stroke="#bfbfbf" points="32.6563,-171.5 32.6563,-225.5 94.6084,-225.5 94.6084,-171.5 32.6563,-171.5"/>
<text text-anchor="middle" x="63.6323" y="-213.5" font-family="Helvetica,sans-Serif" font-size="10.00" fill="#000000">CValidator</text>
<polyline fill="none" stroke="#bfbfbf" points="32.6563,-207.5 94.6084,-207.5 "/>
<text text-anchor="middle" x="63.6323" y="-195.5" font-family="Helvetica,sans-Serif" font-size="10.00" fill="#000000"> </text>
<polyline fill="none" stroke="#bfbfbf" points="32.6563,-189.5 94.6084,-189.5 "/>
<text text-anchor="middle" x="63.6323" y="-177.5" font-family="Helvetica,sans-Serif" font-size="10.00" fill="#000000"> </text>
</g>
<!-- Node3&#45;&gt;Node2 -->
<g id="edge1" class="edge">
<title>Node3&#45;&gt;Node2</title>
<path fill="none" stroke="#191970" d="M63.6323,-161.2321C63.6323,-152.8764 63.6323,-143.7626 63.6323,-134.607"/>
<polygon fill="none" stroke="#191970" points="60.1324,-161.3567 63.6323,-171.3567 67.1324,-161.3567 60.1324,-161.3567"/>
</g>
</g>
</svg>
