<?xml version="1.0" encoding="UTF-8" standalone="no"?>
<!DOCTYPE svg PUBLIC "-//W3C//DTD SVG 1.1//EN"
 "http://www.w3.org/Graphics/SVG/1.1/DTD/svg11.dtd">
<!-- Generated by graphviz version 2.40.1 (20161225.0304)
 -->
<!-- Title: PictureFiles Pages: 1 -->
<svg width="105pt" height="174pt"
 viewBox="0.00 0.00 104.88 174.00" xmlns="http://www.w3.org/2000/svg" xmlns:xlink="http://www.w3.org/1999/xlink">
<g id="graph0" class="graph" transform="scale(1 1) rotate(0) translate(4 170)">
<title>PictureFiles</title>
<polygon fill="#ffffff" stroke="transparent" points="-4,4 -4,-170 100.8789,-170 100.8789,4 -4,4"/>
<!-- Node2 -->
<g id="node1" class="node">
<title>Node2</title>
<polygon fill="#bfbfbf" stroke="#000000" points="0,-.5 0,-74.5 96.8789,-74.5 96.8789,-.5 0,-.5"/>
<text text-anchor="middle" x="48.4395" y="-62.5" font-family="Helvetica,sans-Serif" font-size="10.00" fill="#000000">PictureFiles</text>
<polyline fill="none" stroke="#000000" points="0,-56.5 96.8789,-56.5 "/>
<text text-anchor="middle" x="48.4395" y="-44.5" font-family="Helvetica,sans-Serif" font-size="10.00" fill="#000000"> </text>
<polyline fill="none" stroke="#000000" points="0,-38.5 96.8789,-38.5 "/>
<text text-anchor="start" x="8" y="-26.5" font-family="Helvetica,sans-Serif" font-size="10.00" fill="#000000">+ rules()</text>
<text text-anchor="start" x="8" y="-16.5" font-family="Helvetica,sans-Serif" font-size="10.00" fill="#000000">+ attributeLabels()</text>
<text text-anchor="start" x="8" y="-6.5" font-family="Helvetica,sans-Serif" font-size="10.00" fill="#000000">+ model()</text>
</g>
<!-- Node3 -->
<g id="node2" class="node">
<title>Node3</title>
<polygon fill="#ffffff" stroke="#bfbfbf" points="11.5454,-111.5 11.5454,-165.5 85.3335,-165.5 85.3335,-111.5 11.5454,-111.5"/>
<text text-anchor="middle" x="48.4395" y="-153.5" font-family="Helvetica,sans-Serif" font-size="10.00" fill="#000000">CFormModel</text>
<polyline fill="none" stroke="#bfbfbf" points="11.5454,-147.5 85.3335,-147.5 "/>
<text text-anchor="middle" x="48.4395" y="-135.5" font-family="Helvetica,sans-Serif" font-size="10.00" fill="#000000"> </text>
<polyline fill="none" stroke="#bfbfbf" points="11.5454,-129.5 85.3335,-129.5 "/>
<text text-anchor="middle" x="48.4395" y="-117.5" font-family="Helvetica,sans-Serif" font-size="10.00" fill="#000000"> </text>
</g>
<!-- Node3&#45;&gt;Node2 -->
<g id="edge1" class="edge">
<title>Node3&#45;&gt;Node2</title>
<path fill="none" stroke="#191970" d="M48.4395,-101.1725C48.4395,-92.4692 48.4395,-83.2047 48.4395,-74.515"/>
<polygon fill="none" stroke="#191970" points="44.9396,-101.4338 48.4395,-111.4339 51.9396,-101.4339 44.9396,-101.4338"/>
</g>
</g>
</svg>
