<?xml version="1.0" encoding="UTF-8" standalone="no"?>
<!DOCTYPE svg PUBLIC "-//W3C//DTD SVG 1.1//EN"
 "http://www.w3.org/Graphics/SVG/1.1/DTD/svg11.dtd">
<!-- Generated by graphviz version 2.40.1 (20161225.0304)
 -->
<!-- Title: UserGroupsLookup Pages: 1 -->
<svg width="111pt" height="224pt"
 viewBox="0.00 0.00 110.71 224.00" xmlns="http://www.w3.org/2000/svg" xmlns:xlink="http://www.w3.org/1999/xlink">
<g id="graph0" class="graph" transform="scale(1 1) rotate(0) translate(4 220)">
<title>UserGroupsLookup</title>
<polygon fill="#ffffff" stroke="transparent" points="-4,4 -4,-220 106.7139,-220 106.7139,4 -4,4"/>
<!-- Node2 -->
<g id="node1" class="node">
<title>Node2</title>
<polygon fill="#bfbfbf" stroke="#000000" points="0,-.5 0,-124.5 102.7139,-124.5 102.7139,-.5 0,-.5"/>
<text text-anchor="middle" x="51.3569" y="-112.5" font-family="Helvetica,sans-Serif" font-size="10.00" fill="#000000">UserGroupsLookup</text>
<polyline fill="none" stroke="#000000" points="0,-106.5 102.7139,-106.5 "/>
<text text-anchor="middle" x="51.3569" y="-94.5" font-family="Helvetica,sans-Serif" font-size="10.00" fill="#000000"> </text>
<polyline fill="none" stroke="#000000" points="0,-88.5 102.7139,-88.5 "/>
<text text-anchor="start" x="8" y="-76.5" font-family="Helvetica,sans-Serif" font-size="10.00" fill="#000000">+ tableName()</text>
<text text-anchor="start" x="8" y="-66.5" font-family="Helvetica,sans-Serif" font-size="10.00" fill="#000000">+ rules()</text>
<text text-anchor="start" x="8" y="-56.5" font-family="Helvetica,sans-Serif" font-size="10.00" fill="#000000">+ relations()</text>
<text text-anchor="start" x="8" y="-46.5" font-family="Helvetica,sans-Serif" font-size="10.00" fill="#000000">+ attributeLabels()</text>
<text text-anchor="start" x="8" y="-36.5" font-family="Helvetica,sans-Serif" font-size="10.00" fill="#000000">+ search()</text>
<text text-anchor="start" x="8" y="-26.5" font-family="Helvetica,sans-Serif" font-size="10.00" fill="#000000">+ model()</text>
<text text-anchor="start" x="8" y="-16.5" font-family="Helvetica,sans-Serif" font-size="10.00" fill="#000000">+ resolve()</text>
<text text-anchor="start" x="8" y="-6.5" font-family="Helvetica,sans-Serif" font-size="10.00" fill="#000000">+ inverse()</text>
</g>
<!-- Node3 -->
<g id="node2" class="node">
<title>Node3</title>
<polygon fill="#ffffff" stroke="#bfbfbf" points="10.0122,-161.5 10.0122,-215.5 92.7017,-215.5 92.7017,-161.5 10.0122,-161.5"/>
<text text-anchor="middle" x="51.3569" y="-203.5" font-family="Helvetica,sans-Serif" font-size="10.00" fill="#000000">CActiveRecord</text>
<polyline fill="none" stroke="#bfbfbf" points="10.0122,-197.5 92.7017,-197.5 "/>
<text text-anchor="middle" x="51.3569" y="-185.5" font-family="Helvetica,sans-Serif" font-size="10.00" fill="#000000"> </text>
<polyline fill="none" stroke="#bfbfbf" points="10.0122,-179.5 92.7017,-179.5 "/>
<text text-anchor="middle" x="51.3569" y="-167.5" font-family="Helvetica,sans-Serif" font-size="10.00" fill="#000000"> </text>
</g>
<!-- Node3&#45;&gt;Node2 -->
<g id="edge1" class="edge">
<title>Node3&#45;&gt;Node2</title>
<path fill="none" stroke="#191970" d="M51.3569,-151.3011C51.3569,-142.9169 51.3569,-133.7957 51.3569,-124.6969"/>
<polygon fill="none" stroke="#191970" points="47.857,-151.4698 51.3569,-161.4698 54.857,-151.4699 47.857,-151.4698"/>
</g>
</g>
</svg>
