<?xml version="1.0" encoding="UTF-8" standalone="no"?>
<!DOCTYPE svg PUBLIC "-//W3C//DTD SVG 1.1//EN"
 "http://www.w3.org/Graphics/SVG/1.1/DTD/svg11.dtd">
<!-- Generated by graphviz version 2.40.1 (20161225.0304)
 -->
<!-- Title: Comments Pages: 1 -->
<svg width="133pt" height="355pt"
 viewBox="0.00 0.00 133.23 355.00" xmlns="http://www.w3.org/2000/svg" xmlns:xlink="http://www.w3.org/1999/xlink">
<g id="graph0" class="graph" transform="scale(1 1) rotate(0) translate(4 351)">
<title>Comments</title>
<polygon fill="#ffffff" stroke="transparent" points="-4,4 -4,-351 129.2285,-351 129.2285,4 -4,4"/>
<!-- Node0 -->
<g id="node1" class="node">
<title>Node0</title>
<polygon fill="#bfbfbf" stroke="#000000" points="0,-.5 0,-94.5 125.2285,-94.5 125.2285,-.5 0,-.5"/>
<text text-anchor="middle" x="62.6143" y="-82.5" font-family="Helvetica,sans-Serif" font-size="10.00" fill="#000000">Comments</text>
<polyline fill="none" stroke="#000000" points="0,-76.5 125.2285,-76.5 "/>
<text text-anchor="start" x="8" y="-64.5" font-family="Helvetica,sans-Serif" font-size="10.00" fill="#000000">+ $showPopupForm</text>
<text text-anchor="start" x="8" y="-54.5" font-family="Helvetica,sans-Serif" font-size="10.00" fill="#000000">+ $allowSubcommenting</text>
<text text-anchor="start" x="8" y="-44.5" font-family="Helvetica,sans-Serif" font-size="10.00" fill="#000000">+ $useGravatar</text>
<text text-anchor="start" x="8" y="-34.5" font-family="Helvetica,sans-Serif" font-size="10.00" fill="#000000">+ $adminMode</text>
<polyline fill="none" stroke="#000000" points="0,-28.5 125.2285,-28.5 "/>
<text text-anchor="start" x="8" y="-16.5" font-family="Helvetica,sans-Serif" font-size="10.00" fill="#000000">+ init()</text>
<text text-anchor="start" x="8" y="-6.5" font-family="Helvetica,sans-Serif" font-size="10.00" fill="#000000">+ run()</text>
</g>
<!-- Node1 -->
<g id="node2" class="node">
<title>Node1</title>
<g id="a_node2"><a xlink:href="class_e_comments_base_widget.html" target="_top" xlink:title="{ECommentsBaseWidget\n|+ $model\l+ $registeredOnly\l+ $useCaptcha\l+ $postCommentAction\l# $_config\l|+ init()\l# registerScripts()\l# createNewComment()\l# getOwnerPK()\l}">
<polygon fill="#ffffff" stroke="#000000" points=".1489,-131.5 .1489,-255.5 125.0796,-255.5 125.0796,-131.5 .1489,-131.5"/>
<text text-anchor="middle" x="62.6143" y="-243.5" font-family="Helvetica,sans-Serif" font-size="10.00" fill="#000000">ECommentsBaseWidget</text>
<polyline fill="none" stroke="#000000" points=".1489,-237.5 125.0796,-237.5 "/>
<text text-anchor="start" x="8.1489" y="-225.5" font-family="Helvetica,sans-Serif" font-size="10.00" fill="#000000">+ $model</text>
<text text-anchor="start" x="8.1489" y="-215.5" font-family="Helvetica,sans-Serif" font-size="10.00" fill="#000000">+ $registeredOnly</text>
<text text-anchor="start" x="8.1489" y="-205.5" font-family="Helvetica,sans-Serif" font-size="10.00" fill="#000000">+ $useCaptcha</text>
<text text-anchor="start" x="8.1489" y="-195.5" font-family="Helvetica,sans-Serif" font-size="10.00" fill="#000000">+ $postCommentAction</text>
<text text-anchor="start" x="8.1489" y="-185.5" font-family="Helvetica,sans-Serif" font-size="10.00" fill="#000000"># $_config</text>
<polyline fill="none" stroke="#000000" points=".1489,-179.5 125.0796,-179.5 "/>
<text text-anchor="start" x="8.1489" y="-167.5" font-family="Helvetica,sans-Serif" font-size="10.00" fill="#000000">+ init()</text>
<text text-anchor="start" x="8.1489" y="-157.5" font-family="Helvetica,sans-Serif" font-size="10.00" fill="#000000"># registerScripts()</text>
<text text-anchor="start" x="8.1489" y="-147.5" font-family="Helvetica,sans-Serif" font-size="10.00" fill="#000000"># createNewComment()</text>
<text text-anchor="start" x="8.1489" y="-137.5" font-family="Helvetica,sans-Serif" font-size="10.00" fill="#000000"># getOwnerPK()</text>
</a>
</g>
</g>
<!-- Node1&#45;&gt;Node0 -->
<g id="edge1" class="edge">
<title>Node1&#45;&gt;Node0</title>
<path fill="none" stroke="#191970" d="M62.6143,-121.0513C62.6143,-112.0686 62.6143,-103.0747 62.6143,-94.6138"/>
<polygon fill="none" stroke="#191970" points="59.1144,-121.1593 62.6143,-131.1594 66.1144,-121.1594 59.1144,-121.1593"/>
</g>
<!-- Node2 -->
<g id="node3" class="node">
<title>Node2</title>
<polygon fill="#ffffff" stroke="#bfbfbf" points="29.0503,-292.5 29.0503,-346.5 96.1782,-346.5 96.1782,-292.5 29.0503,-292.5"/>
<text text-anchor="middle" x="62.6143" y="-334.5" font-family="Helvetica,sans-Serif" font-size="10.00" fill="#000000">CJuiWidget</text>
<polyline fill="none" stroke="#bfbfbf" points="29.0503,-328.5 96.1782,-328.5 "/>
<text text-anchor="middle" x="62.6143" y="-316.5" font-family="Helvetica,sans-Serif" font-size="10.00" fill="#000000"> </text>
<polyline fill="none" stroke="#bfbfbf" points="29.0503,-310.5 96.1782,-310.5 "/>
<text text-anchor="middle" x="62.6143" y="-298.5" font-family="Helvetica,sans-Serif" font-size="10.00" fill="#000000"> </text>
</g>
<!-- Node2&#45;&gt;Node1 -->
<g id="edge2" class="edge">
<title>Node2&#45;&gt;Node1</title>
<path fill="none" stroke="#191970" d="M62.6143,-282.3011C62.6143,-273.9169 62.6143,-264.7957 62.6143,-255.6969"/>
<polygon fill="none" stroke="#191970" points="59.1144,-282.4698 62.6143,-292.4698 66.1144,-282.4699 59.1144,-282.4698"/>
</g>
</g>
</svg>
