<?xml version="1.0" encoding="UTF-8" standalone="no"?>
<!DOCTYPE svg PUBLIC "-//W3C//DTD SVG 1.1//EN"
 "http://www.w3.org/Graphics/SVG/1.1/DTD/svg11.dtd">
<!-- Generated by graphviz version 2.40.1 (20161225.0304)
 -->
<!-- Title: Google_ShoppingModelExtrasJsonV1FacetRules Pages: 1 -->
<svg width="160pt" height="214pt"
 viewBox="0.00 0.00 159.64 214.00" xmlns="http://www.w3.org/2000/svg" xmlns:xlink="http://www.w3.org/1999/xlink">
<g id="graph0" class="graph" transform="scale(1 1) rotate(0) translate(4 210)">
<title>Google_ShoppingModelExtrasJsonV1FacetRules</title>
<polygon fill="#ffffff" stroke="transparent" points="-4,4 -4,-210 155.6445,-210 155.6445,4 -4,4"/>
<!-- Node0 -->
<g id="node1" class="node">
<title>Node0</title>
<polygon fill="#bfbfbf" stroke="#000000" points="0,-.5 0,-74.5 151.6445,-74.5 151.6445,-.5 0,-.5"/>
<text text-anchor="start" x="8" y="-62.5" font-family="Helvetica,sans-Serif" font-size="10.00" fill="#000000">Google_ShoppingModelExtras</text>
<text text-anchor="middle" x="75.8223" y="-52.5" font-family="Helvetica,sans-Serif" font-size="10.00" fill="#000000">JsonV1FacetRules</text>
<polyline fill="none" stroke="#000000" points="0,-46.5 151.6445,-46.5 "/>
<text text-anchor="start" x="8" y="-34.5" font-family="Helvetica,sans-Serif" font-size="10.00" fill="#000000">+ $name</text>
<polyline fill="none" stroke="#000000" points="0,-28.5 151.6445,-28.5 "/>
<text text-anchor="start" x="8" y="-16.5" font-family="Helvetica,sans-Serif" font-size="10.00" fill="#000000">+ setName()</text>
<text text-anchor="start" x="8" y="-6.5" font-family="Helvetica,sans-Serif" font-size="10.00" fill="#000000">+ getName()</text>
</g>
<!-- Node1 -->
<g id="node2" class="node">
<title>Node1</title>
<g id="a_node2"><a xlink:href="class_google___model.html" target="_top" xlink:title="{Google_Model\n||+ __construct()\l+ assertIsArray()\l# mapTypes()\l# isAssociativeArray()\l# useObjects()\l}">
<polygon fill="#ffffff" stroke="#000000" points="19.4775,-111.5 19.4775,-205.5 132.167,-205.5 132.167,-111.5 19.4775,-111.5"/>
<text text-anchor="middle" x="75.8223" y="-193.5" font-family="Helvetica,sans-Serif" font-size="10.00" fill="#000000">Google_Model</text>
<polyline fill="none" stroke="#000000" points="19.4775,-187.5 132.167,-187.5 "/>
<text text-anchor="middle" x="75.8223" y="-175.5" font-family="Helvetica,sans-Serif" font-size="10.00" fill="#000000"> </text>
<polyline fill="none" stroke="#000000" points="19.4775,-169.5 132.167,-169.5 "/>
<text text-anchor="start" x="27.4775" y="-157.5" font-family="Helvetica,sans-Serif" font-size="10.00" fill="#000000">+ __construct()</text>
<text text-anchor="start" x="27.4775" y="-147.5" font-family="Helvetica,sans-Serif" font-size="10.00" fill="#000000">+ assertIsArray()</text>
<text text-anchor="start" x="27.4775" y="-137.5" font-family="Helvetica,sans-Serif" font-size="10.00" fill="#000000"># mapTypes()</text>
<text text-anchor="start" x="27.4775" y="-127.5" font-family="Helvetica,sans-Serif" font-size="10.00" fill="#000000"># isAssociativeArray()</text>
<text text-anchor="start" x="27.4775" y="-117.5" font-family="Helvetica,sans-Serif" font-size="10.00" fill="#000000"># useObjects()</text>
</a>
</g>
</g>
<!-- Node1&#45;&gt;Node0 -->
<g id="edge1" class="edge">
<title>Node1&#45;&gt;Node0</title>
<path fill="none" stroke="#191970" d="M75.8223,-101.2279C75.8223,-92.1684 75.8223,-83.0122 75.8223,-74.5748"/>
<polygon fill="none" stroke="#191970" points="72.3224,-101.3717 75.8223,-111.3718 79.3224,-101.3718 72.3224,-101.3717"/>
</g>
</g>
</svg>
