<?xml version="1.0" encoding="UTF-8" standalone="no"?>
<!DOCTYPE svg PUBLIC "-//W3C//DTD SVG 1.1//EN"
 "http://www.w3.org/Graphics/SVG/1.1/DTD/svg11.dtd">
<!-- Generated by graphviz version 2.40.1 (20161225.0304)
 -->
<!-- Title: Google_IO Pages: 1 -->
<svg width="284pt" height="274pt"
 viewBox="0.00 0.00 283.57 274.00" xmlns="http://www.w3.org/2000/svg" xmlns:xlink="http://www.w3.org/1999/xlink">
<g id="graph0" class="graph" transform="scale(1 1) rotate(0) translate(4 270)">
<title>Google_IO</title>
<polygon fill="#ffffff" stroke="transparent" points="-4,4 -4,-270 279.5732,-270 279.5732,4 -4,4"/>
<!-- Node0 -->
<g id="node1" class="node">
<title>Node0</title>
<polygon fill="#bfbfbf" stroke="#000000" points="54.499,-121.5 54.499,-265.5 220.0742,-265.5 220.0742,-121.5 54.499,-121.5"/>
<text text-anchor="middle" x="137.2866" y="-253.5" font-family="Helvetica,sans-Serif" font-size="10.00" fill="#000000">Google_IO</text>
<polyline fill="none" stroke="#000000" points="54.499,-247.5 220.0742,-247.5 "/>
<text text-anchor="start" x="62.499" y="-235.5" font-family="Helvetica,sans-Serif" font-size="10.00" fill="#000000">+ CONNECTION_ESTABLISHED</text>
<text text-anchor="start" x="62.499" y="-225.5" font-family="Helvetica,sans-Serif" font-size="10.00" fill="#000000">+ FORM_URLENCODED</text>
<polyline fill="none" stroke="#000000" points="54.499,-219.5 220.0742,-219.5 "/>
<text text-anchor="start" x="62.499" y="-207.5" font-family="Helvetica,sans-Serif" font-size="10.00" fill="#000000">+ authenticatedRequest()</text>
<text text-anchor="start" x="62.499" y="-197.5" font-family="Helvetica,sans-Serif" font-size="10.00" fill="#000000">+ makeRequest()</text>
<text text-anchor="start" x="62.499" y="-187.5" font-family="Helvetica,sans-Serif" font-size="10.00" fill="#000000">+ setOptions()</text>
<text text-anchor="start" x="62.499" y="-177.5" font-family="Helvetica,sans-Serif" font-size="10.00" fill="#000000"># setCachedRequest()</text>
<text text-anchor="start" x="62.499" y="-167.5" font-family="Helvetica,sans-Serif" font-size="10.00" fill="#000000"># getCachedRequest()</text>
<text text-anchor="start" x="62.499" y="-157.5" font-family="Helvetica,sans-Serif" font-size="10.00" fill="#000000"># processEntityRequest()</text>
<text text-anchor="start" x="62.499" y="-147.5" font-family="Helvetica,sans-Serif" font-size="10.00" fill="#000000"># checkMustRevaliadateCached</text>
<text text-anchor="start" x="62.499" y="-137.5" font-family="Helvetica,sans-Serif" font-size="10.00" fill="#000000">Request()</text>
<text text-anchor="start" x="62.499" y="-127.5" font-family="Helvetica,sans-Serif" font-size="10.00" fill="#000000"># updateCachedRequest()</text>
</g>
<!-- Node1 -->
<g id="node2" class="node">
<title>Node1</title>
<g id="a_node2"><a xlink:href="class_google___curl_i_o.html" target="_top" xlink:title="{Google_CurlIO\n||+ __construct()\l+ authenticatedRequest()\l+ makeRequest()\l+ setOptions()\l}">
<polygon fill="#ffffff" stroke="#000000" points="0,-.5 0,-84.5 128.5732,-84.5 128.5732,-.5 0,-.5"/>
<text text-anchor="middle" x="64.2866" y="-72.5" font-family="Helvetica,sans-Serif" font-size="10.00" fill="#000000">Google_CurlIO</text>
<polyline fill="none" stroke="#000000" points="0,-66.5 128.5732,-66.5 "/>
<text text-anchor="middle" x="64.2866" y="-54.5" font-family="Helvetica,sans-Serif" font-size="10.00" fill="#000000"> </text>
<polyline fill="none" stroke="#000000" points="0,-48.5 128.5732,-48.5 "/>
<text text-anchor="start" x="8" y="-36.5" font-family="Helvetica,sans-Serif" font-size="10.00" fill="#000000">+ __construct()</text>
<text text-anchor="start" x="8" y="-26.5" font-family="Helvetica,sans-Serif" font-size="10.00" fill="#000000">+ authenticatedRequest()</text>
<text text-anchor="start" x="8" y="-16.5" font-family="Helvetica,sans-Serif" font-size="10.00" fill="#000000">+ makeRequest()</text>
<text text-anchor="start" x="8" y="-6.5" font-family="Helvetica,sans-Serif" font-size="10.00" fill="#000000">+ setOptions()</text>
</a>
</g>
</g>
<!-- Node0&#45;&gt;Node1 -->
<g id="edge1" class="edge">
<title>Node0&#45;&gt;Node1</title>
<path fill="none" stroke="#191970" d="M97.9229,-112.0764C93.3843,-102.6884 88.9051,-93.4232 84.7684,-84.8663"/>
<polygon fill="none" stroke="#191970" points="94.7797,-113.6162 102.2833,-121.0959 101.0819,-110.5694 94.7797,-113.6162"/>
</g>
<!-- Node2 -->
<g id="node3" class="node">
<title>Node2</title>
<g id="a_node3"><a xlink:href="class_google___http_stream_i_o.html" target="_top" xlink:title="{Google_HttpStreamIO\n||+ authenticatedRequest()\l+ makeRequest()\l+ setOptions()\l}">
<polygon fill="#ffffff" stroke="#000000" points="147,-5.5 147,-79.5 275.5732,-79.5 275.5732,-5.5 147,-5.5"/>
<text text-anchor="middle" x="211.2866" y="-67.5" font-family="Helvetica,sans-Serif" font-size="10.00" fill="#000000">Google_HttpStreamIO</text>
<polyline fill="none" stroke="#000000" points="147,-61.5 275.5732,-61.5 "/>
<text text-anchor="middle" x="211.2866" y="-49.5" font-family="Helvetica,sans-Serif" font-size="10.00" fill="#000000"> </text>
<polyline fill="none" stroke="#000000" points="147,-43.5 275.5732,-43.5 "/>
<text text-anchor="start" x="155" y="-31.5" font-family="Helvetica,sans-Serif" font-size="10.00" fill="#000000">+ authenticatedRequest()</text>
<text text-anchor="start" x="155" y="-21.5" font-family="Helvetica,sans-Serif" font-size="10.00" fill="#000000">+ makeRequest()</text>
<text text-anchor="start" x="155" y="-11.5" font-family="Helvetica,sans-Serif" font-size="10.00" fill="#000000">+ setOptions()</text>
</a>
</g>
</g>
<!-- Node0&#45;&gt;Node2 -->
<g id="edge2" class="edge">
<title>Node0&#45;&gt;Node2</title>
<path fill="none" stroke="#191970" d="M177.2295,-111.995C182.779,-100.6709 188.2397,-89.5281 193.1079,-79.5944"/>
<polygon fill="none" stroke="#191970" points="174.0272,-110.576 172.7694,-121.0959 180.313,-113.6565 174.0272,-110.576"/>
</g>
</g>
</svg>
