<?xml version="1.0" encoding="UTF-8" standalone="no"?>
<!DOCTYPE svg PUBLIC "-//W3C//DTD SVG 1.1//EN"
 "http://www.w3.org/Graphics/SVG/1.1/DTD/svg11.dtd">
<!-- Generated by graphviz version 2.40.1 (20161225.0304)
 -->
<!-- Title: Google_ApplicationsServiceResource Pages: 1 -->
<svg width="149pt" height="214pt"
 viewBox="0.00 0.00 149.07 214.00" xmlns="http://www.w3.org/2000/svg" xmlns:xlink="http://www.w3.org/1999/xlink">
<g id="graph0" class="graph" transform="scale(1 1) rotate(0) translate(4 210)">
<title>Google_ApplicationsServiceResource</title>
<polygon fill="#ffffff" stroke="transparent" points="-4,4 -4,-210 145.0732,-210 145.0732,4 -4,4"/>
<!-- Node2 -->
<g id="node1" class="node">
<title>Node2</title>
<polygon fill="#bfbfbf" stroke="#000000" points="0,-.5 0,-84.5 141.0732,-84.5 141.0732,-.5 0,-.5"/>
<text text-anchor="start" x="8" y="-72.5" font-family="Helvetica,sans-Serif" font-size="10.00" fill="#000000">Google_ApplicationsService</text>
<text text-anchor="middle" x="70.5366" y="-62.5" font-family="Helvetica,sans-Serif" font-size="10.00" fill="#000000">Resource</text>
<polyline fill="none" stroke="#000000" points="0,-56.5 141.0732,-56.5 "/>
<text text-anchor="middle" x="70.5366" y="-44.5" font-family="Helvetica,sans-Serif" font-size="10.00" fill="#000000"> </text>
<polyline fill="none" stroke="#000000" points="0,-38.5 141.0732,-38.5 "/>
<text text-anchor="start" x="8" y="-26.5" font-family="Helvetica,sans-Serif" font-size="10.00" fill="#000000">+ listHidden()</text>
<text text-anchor="start" x="8" y="-16.5" font-family="Helvetica,sans-Serif" font-size="10.00" fill="#000000">+ get()</text>
<text text-anchor="start" x="8" y="-6.5" font-family="Helvetica,sans-Serif" font-size="10.00" fill="#000000">+ played()</text>
</g>
<!-- Node3 -->
<g id="node2" class="node">
<title>Node3</title>
<g id="a_node2"><a xlink:href="class_google___service_resource.html" target="_top" xlink:title="{Google_ServiceResource\n||+ __construct()\l+ __call()\l+ useObjects()\l# stripNull()\l}">
<polygon fill="#ffffff" stroke="#000000" points="5.5615,-121.5 5.5615,-205.5 135.5117,-205.5 135.5117,-121.5 5.5615,-121.5"/>
<text text-anchor="middle" x="70.5366" y="-193.5" font-family="Helvetica,sans-Serif" font-size="10.00" fill="#000000">Google_ServiceResource</text>
<polyline fill="none" stroke="#000000" points="5.5615,-187.5 135.5117,-187.5 "/>
<text text-anchor="middle" x="70.5366" y="-175.5" font-family="Helvetica,sans-Serif" font-size="10.00" fill="#000000"> </text>
<polyline fill="none" stroke="#000000" points="5.5615,-169.5 135.5117,-169.5 "/>
<text text-anchor="start" x="13.5615" y="-157.5" font-family="Helvetica,sans-Serif" font-size="10.00" fill="#000000">+ __construct()</text>
<text text-anchor="start" x="13.5615" y="-147.5" font-family="Helvetica,sans-Serif" font-size="10.00" fill="#000000">+ __call()</text>
<text text-anchor="start" x="13.5615" y="-137.5" font-family="Helvetica,sans-Serif" font-size="10.00" fill="#000000">+ useObjects()</text>
<text text-anchor="start" x="13.5615" y="-127.5" font-family="Helvetica,sans-Serif" font-size="10.00" fill="#000000"># stripNull()</text>
</a>
</g>
</g>
<!-- Node3&#45;&gt;Node2 -->
<g id="edge1" class="edge">
<title>Node3&#45;&gt;Node2</title>
<path fill="none" stroke="#191970" d="M63.839,-110.977C63.7225,-102.1562 63.8003,-93.1052 64.0724,-84.5917"/>
<polygon fill="none" stroke="#191970" points="60.3444,-111.2601 64.0651,-121.1801 67.3426,-111.105 60.3444,-111.2601"/>
</g>
<!-- Node3&#45;&gt;Node2 -->
<g id="edge2" class="edge">
<title>Node3&#45;&gt;Node2</title>
<path fill="none" stroke="#191970" d="M77.2342,-110.977C77.3507,-102.1562 77.273,-93.1052 77.0009,-84.5917"/>
<polygon fill="none" stroke="#191970" points="73.7306,-111.105 77.0081,-121.1801 80.7289,-111.2601 73.7306,-111.105"/>
</g>
</g>
</svg>
