<?xml version="1.0" encoding="UTF-8" standalone="no"?>
<!DOCTYPE svg PUBLIC "-//W3C//DTD SVG 1.1//EN"
 "http://www.w3.org/Graphics/SVG/1.1/DTD/svg11.dtd">
<!-- Generated by graphviz version 2.40.1 (20161225.0304)
 -->
<!-- Title: OAuthSignatureMethod_RSA_SHA1 Pages: 1 -->
<svg width="129pt" height="204pt"
 viewBox="0.00 0.00 128.51 204.00" xmlns="http://www.w3.org/2000/svg" xmlns:xlink="http://www.w3.org/1999/xlink">
<g id="graph0" class="graph" transform="scale(1 1) rotate(0) translate(4 200)">
<title>OAuthSignatureMethod_RSA_SHA1</title>
<polygon fill="#ffffff" stroke="transparent" points="-4,4 -4,-200 124.5117,-200 124.5117,4 -4,4"/>
<!-- Node2 -->
<g id="node1" class="node">
<title>Node2</title>
<polygon fill="#bfbfbf" stroke="#000000" points="0,-.5 0,-104.5 120.5117,-104.5 120.5117,-.5 0,-.5"/>
<text text-anchor="start" x="8" y="-92.5" font-family="Helvetica,sans-Serif" font-size="10.00" fill="#000000">OAuthSignatureMethod</text>
<text text-anchor="middle" x="60.2559" y="-82.5" font-family="Helvetica,sans-Serif" font-size="10.00" fill="#000000">_RSA_SHA1</text>
<polyline fill="none" stroke="#000000" points="0,-76.5 120.5117,-76.5 "/>
<text text-anchor="middle" x="60.2559" y="-64.5" font-family="Helvetica,sans-Serif" font-size="10.00" fill="#000000"> </text>
<polyline fill="none" stroke="#000000" points="0,-58.5 120.5117,-58.5 "/>
<text text-anchor="start" x="8" y="-46.5" font-family="Helvetica,sans-Serif" font-size="10.00" fill="#000000">+ get_name()</text>
<text text-anchor="start" x="8" y="-36.5" font-family="Helvetica,sans-Serif" font-size="10.00" fill="#000000">+ build_signature()</text>
<text text-anchor="start" x="8" y="-26.5" font-family="Helvetica,sans-Serif" font-size="10.00" fill="#000000">+ check_signature()</text>
<text text-anchor="start" x="8" y="-16.5" font-family="Helvetica,sans-Serif" font-size="10.00" fill="#000000"># fetch_public_cert()</text>
<text text-anchor="start" x="8" y="-6.5" font-family="Helvetica,sans-Serif" font-size="10.00" fill="#000000"># fetch_private_cert()</text>
</g>
<!-- Node3 -->
<g id="node2" class="node">
<title>Node3</title>
<g id="a_node2"><a xlink:href="class_o_auth_signature_method.html" target="_top" xlink:title="{OAuthSignatureMethod\n||+ check_signature()\l}">
<polygon fill="#ffffff" stroke="#000000" points="0,-141.5 0,-195.5 120.5117,-195.5 120.5117,-141.5 0,-141.5"/>
<text text-anchor="middle" x="60.2559" y="-183.5" font-family="Helvetica,sans-Serif" font-size="10.00" fill="#000000">OAuthSignatureMethod</text>
<polyline fill="none" stroke="#000000" points="0,-177.5 120.5117,-177.5 "/>
<text text-anchor="middle" x="60.2559" y="-165.5" font-family="Helvetica,sans-Serif" font-size="10.00" fill="#000000"> </text>
<polyline fill="none" stroke="#000000" points="0,-159.5 120.5117,-159.5 "/>
<text text-anchor="start" x="8" y="-147.5" font-family="Helvetica,sans-Serif" font-size="10.00" fill="#000000">+ check_signature()</text>
</a>
</g>
</g>
<!-- Node3&#45;&gt;Node2 -->
<g id="edge1" class="edge">
<title>Node3&#45;&gt;Node2</title>
<path fill="none" stroke="#191970" d="M60.2559,-131.0375C60.2559,-122.6013 60.2559,-113.4994 60.2559,-104.5858"/>
<polygon fill="none" stroke="#191970" points="56.756,-131.3031 60.2559,-141.3032 63.756,-131.3032 56.756,-131.3031"/>
</g>
</g>
</svg>
