<?xml version="1.0" encoding="UTF-8" standalone="no"?>
<!DOCTYPE svg PUBLIC "-//W3C//DTD SVG 1.1//EN"
 "http://www.w3.org/Graphics/SVG/1.1/DTD/svg11.dtd">
<!-- Generated by graphviz version 2.40.1 (20161225.0304)
 -->
<!-- Title: Google_ModeratorVotesResourcePartial Pages: 1 -->
<svg width="175pt" height="244pt"
 viewBox="0.00 0.00 175.21 244.00" xmlns="http://www.w3.org/2000/svg" xmlns:xlink="http://www.w3.org/1999/xlink">
<g id="graph0" class="graph" transform="scale(1 1) rotate(0) translate(4 240)">
<title>Google_ModeratorVotesResourcePartial</title>
<polygon fill="#ffffff" stroke="transparent" points="-4,4 -4,-240 171.2061,-240 171.2061,4 -4,4"/>
<!-- Node0 -->
<g id="node1" class="node">
<title>Node0</title>
<polygon fill="#bfbfbf" stroke="#000000" points="0,-.5 0,-104.5 167.2061,-104.5 167.2061,-.5 0,-.5"/>
<text text-anchor="start" x="8" y="-92.5" font-family="Helvetica,sans-Serif" font-size="10.00" fill="#000000">Google_ModeratorVotesResource</text>
<text text-anchor="middle" x="83.603" y="-82.5" font-family="Helvetica,sans-Serif" font-size="10.00" fill="#000000">Partial</text>
<polyline fill="none" stroke="#000000" points="0,-76.5 167.2061,-76.5 "/>
<text text-anchor="start" x="8" y="-64.5" font-family="Helvetica,sans-Serif" font-size="10.00" fill="#000000">+ $vote</text>
<text text-anchor="start" x="8" y="-54.5" font-family="Helvetica,sans-Serif" font-size="10.00" fill="#000000">+ $flag</text>
<polyline fill="none" stroke="#000000" points="0,-48.5 167.2061,-48.5 "/>
<text text-anchor="start" x="8" y="-36.5" font-family="Helvetica,sans-Serif" font-size="10.00" fill="#000000">+ setVote()</text>
<text text-anchor="start" x="8" y="-26.5" font-family="Helvetica,sans-Serif" font-size="10.00" fill="#000000">+ getVote()</text>
<text text-anchor="start" x="8" y="-16.5" font-family="Helvetica,sans-Serif" font-size="10.00" fill="#000000">+ setFlag()</text>
<text text-anchor="start" x="8" y="-6.5" font-family="Helvetica,sans-Serif" font-size="10.00" fill="#000000">+ getFlag()</text>
</g>
<!-- Node1 -->
<g id="node2" class="node">
<title>Node1</title>
<g id="a_node2"><a xlink:href="class_google___model.html" target="_top" xlink:title="{Google_Model\n||+ __construct()\l+ assertIsArray()\l# mapTypes()\l# isAssociativeArray()\l# useObjects()\l}">
<polygon fill="#ffffff" stroke="#000000" points="27.2583,-141.5 27.2583,-235.5 139.9478,-235.5 139.9478,-141.5 27.2583,-141.5"/>
<text text-anchor="middle" x="83.603" y="-223.5" font-family="Helvetica,sans-Serif" font-size="10.00" fill="#000000">Google_Model</text>
<polyline fill="none" stroke="#000000" points="27.2583,-217.5 139.9478,-217.5 "/>
<text text-anchor="middle" x="83.603" y="-205.5" font-family="Helvetica,sans-Serif" font-size="10.00" fill="#000000"> </text>
<polyline fill="none" stroke="#000000" points="27.2583,-199.5 139.9478,-199.5 "/>
<text text-anchor="start" x="35.2583" y="-187.5" font-family="Helvetica,sans-Serif" font-size="10.00" fill="#000000">+ __construct()</text>
<text text-anchor="start" x="35.2583" y="-177.5" font-family="Helvetica,sans-Serif" font-size="10.00" fill="#000000">+ assertIsArray()</text>
<text text-anchor="start" x="35.2583" y="-167.5" font-family="Helvetica,sans-Serif" font-size="10.00" fill="#000000"># mapTypes()</text>
<text text-anchor="start" x="35.2583" y="-157.5" font-family="Helvetica,sans-Serif" font-size="10.00" fill="#000000"># isAssociativeArray()</text>
<text text-anchor="start" x="35.2583" y="-147.5" font-family="Helvetica,sans-Serif" font-size="10.00" fill="#000000"># useObjects()</text>
</a>
</g>
</g>
<!-- Node1&#45;&gt;Node0 -->
<g id="edge1" class="edge">
<title>Node1&#45;&gt;Node0</title>
<path fill="none" stroke="#191970" d="M83.603,-131.1629C83.603,-122.3884 83.603,-113.3711 83.603,-104.715"/>
<polygon fill="none" stroke="#191970" points="80.1031,-131.3154 83.603,-141.3155 87.1031,-131.3155 80.1031,-131.3154"/>
</g>
</g>
</svg>
