<?xml version="1.0" encoding="UTF-8" standalone="no"?>
<!DOCTYPE svg PUBLIC "-//W3C//DTD SVG 1.1//EN"
 "http://www.w3.org/Graphics/SVG/1.1/DTD/svg11.dtd">
<!-- Generated by graphviz version 2.40.1 (20161225.0304)
 -->
<!-- Title: UpdateController Pages: 1 -->
<svg width="177pt" height="345pt"
 viewBox="0.00 0.00 176.54 345.00" xmlns="http://www.w3.org/2000/svg" xmlns:xlink="http://www.w3.org/1999/xlink">
<g id="graph0" class="graph" transform="scale(1 1) rotate(0) translate(4 341)">
<title>UpdateController</title>
<polygon fill="#ffffff" stroke="transparent" points="-4,4 -4,-341 172.5439,-341 172.5439,4 -4,4"/>
<!-- Node0 -->
<g id="node1" class="node">
<title>Node0</title>
<polygon fill="#bfbfbf" stroke="#000000" points="26.1084,-.5 26.1084,-74.5 142.4355,-74.5 142.4355,-.5 26.1084,-.5"/>
<text text-anchor="middle" x="84.272" y="-62.5" font-family="Helvetica,sans-Serif" font-size="10.00" fill="#000000">UpdateController</text>
<polyline fill="none" stroke="#000000" points="26.1084,-56.5 142.4355,-56.5 "/>
<text text-anchor="start" x="34.1084" y="-44.5" font-family="Helvetica,sans-Serif" font-size="10.00" fill="#000000">+ $_permissionControl</text>
<polyline fill="none" stroke="#000000" points="26.1084,-38.5 142.4355,-38.5 "/>
<text text-anchor="start" x="34.1084" y="-26.5" font-family="Helvetica,sans-Serif" font-size="10.00" fill="#000000">+ filters()</text>
<text text-anchor="start" x="34.1084" y="-16.5" font-family="Helvetica,sans-Serif" font-size="10.00" fill="#000000">+ accessRules()</text>
<text text-anchor="start" x="34.1084" y="-6.5" font-family="Helvetica,sans-Serif" font-size="10.00" fill="#000000">+ actionExecute()</text>
</g>
<!-- Node1 -->
<g id="node2" class="node">
<title>Node1</title>
<g id="a_node2"><a xlink:href="class_controller.html" target="_top" xlink:title="{Controller\n|+ $layout\l+ $title\l+ $menu\l+ $breadcrumbs\l+ $_permissionControl\l|+ getUser()\l+ filterUserGroupsAccessControl()\l+ getMapkey()\l+ filterUserGroupsAccessControl()\l# beforeAction()\l}">
<polygon fill="#ffffff" stroke="#000000" points="0,-111.5 0,-245.5 168.5439,-245.5 168.5439,-111.5 0,-111.5"/>
<text text-anchor="middle" x="84.272" y="-233.5" font-family="Helvetica,sans-Serif" font-size="10.00" fill="#000000">Controller</text>
<polyline fill="none" stroke="#000000" points="0,-227.5 168.5439,-227.5 "/>
<text text-anchor="start" x="8" y="-215.5" font-family="Helvetica,sans-Serif" font-size="10.00" fill="#000000">+ $layout</text>
<text text-anchor="start" x="8" y="-205.5" font-family="Helvetica,sans-Serif" font-size="10.00" fill="#000000">+ $title</text>
<text text-anchor="start" x="8" y="-195.5" font-family="Helvetica,sans-Serif" font-size="10.00" fill="#000000">+ $menu</text>
<text text-anchor="start" x="8" y="-185.5" font-family="Helvetica,sans-Serif" font-size="10.00" fill="#000000">+ $breadcrumbs</text>
<text text-anchor="start" x="8" y="-175.5" font-family="Helvetica,sans-Serif" font-size="10.00" fill="#000000">+ $_permissionControl</text>
<polyline fill="none" stroke="#000000" points="0,-169.5 168.5439,-169.5 "/>
<text text-anchor="start" x="8" y="-157.5" font-family="Helvetica,sans-Serif" font-size="10.00" fill="#000000">+ getUser()</text>
<text text-anchor="start" x="8" y="-147.5" font-family="Helvetica,sans-Serif" font-size="10.00" fill="#000000">+ filterUserGroupsAccessControl()</text>
<text text-anchor="start" x="8" y="-137.5" font-family="Helvetica,sans-Serif" font-size="10.00" fill="#000000">+ getMapkey()</text>
<text text-anchor="start" x="8" y="-127.5" font-family="Helvetica,sans-Serif" font-size="10.00" fill="#000000">+ filterUserGroupsAccessControl()</text>
<text text-anchor="start" x="8" y="-117.5" font-family="Helvetica,sans-Serif" font-size="10.00" fill="#000000"># beforeAction()</text>
</a>
</g>
</g>
<!-- Node1&#45;&gt;Node0 -->
<g id="edge1" class="edge">
<title>Node1&#45;&gt;Node0</title>
<path fill="none" stroke="#191970" d="M84.272,-101.2431C84.272,-92.0002 84.272,-82.9136 84.272,-74.6267"/>
<polygon fill="none" stroke="#191970" points="80.7721,-101.3036 84.272,-111.3036 87.7721,-101.3036 80.7721,-101.3036"/>
</g>
<!-- Node2 -->
<g id="node3" class="node">
<title>Node2</title>
<polygon fill="#ffffff" stroke="#bfbfbf" points="50.9863,-282.5 50.9863,-336.5 117.5576,-336.5 117.5576,-282.5 50.9863,-282.5"/>
<text text-anchor="middle" x="84.272" y="-324.5" font-family="Helvetica,sans-Serif" font-size="10.00" fill="#000000">CController</text>
<polyline fill="none" stroke="#bfbfbf" points="50.9863,-318.5 117.5576,-318.5 "/>
<text text-anchor="middle" x="84.272" y="-306.5" font-family="Helvetica,sans-Serif" font-size="10.00" fill="#000000"> </text>
<polyline fill="none" stroke="#bfbfbf" points="50.9863,-300.5 117.5576,-300.5 "/>
<text text-anchor="middle" x="84.272" y="-288.5" font-family="Helvetica,sans-Serif" font-size="10.00" fill="#000000"> </text>
</g>
<!-- Node2&#45;&gt;Node1 -->
<g id="edge2" class="edge">
<title>Node2&#45;&gt;Node1</title>
<path fill="none" stroke="#191970" d="M78.1134,-272.2321C77.7409,-263.8764 77.5444,-254.7626 77.5238,-245.607"/>
<polygon fill="none" stroke="#191970" points="74.6266,-272.5676 78.6792,-282.3567 81.6156,-272.1769 74.6266,-272.5676"/>
</g>
<!-- Node2&#45;&gt;Node1 -->
<g id="edge3" class="edge">
<title>Node2&#45;&gt;Node1</title>
<path fill="none" stroke="#191970" d="M90.4306,-272.2321C90.8031,-263.8764 90.9996,-254.7626 91.0202,-245.607"/>
<polygon fill="none" stroke="#191970" points="86.9283,-272.1769 89.8647,-282.3567 93.9174,-272.5676 86.9283,-272.1769"/>
</g>
</g>
</svg>
