<?xml version="1.0" encoding="UTF-8" standalone="no"?>
<!DOCTYPE svg PUBLIC "-//W3C//DTD SVG 1.1//EN"
 "http://www.w3.org/Graphics/SVG/1.1/DTD/svg11.dtd">
<!-- Generated by graphviz version 2.40.1 (20161225.0304)
 -->
<!-- Title: Google_PlaylistsServiceResource Pages: 1 -->
<svg width="175pt" height="214pt"
 viewBox="0.00 0.00 174.62 214.00" xmlns="http://www.w3.org/2000/svg" xmlns:xlink="http://www.w3.org/1999/xlink">
<g id="graph0" class="graph" transform="scale(1 1) rotate(0) translate(4 210)">
<title>Google_PlaylistsServiceResource</title>
<polygon fill="#ffffff" stroke="transparent" points="-4,4 -4,-210 170.625,-210 170.625,4 -4,4"/>
<!-- Node2 -->
<g id="node1" class="node">
<title>Node2</title>
<polygon fill="#bfbfbf" stroke="#000000" points="0,-.5 0,-84.5 166.625,-84.5 166.625,-.5 0,-.5"/>
<text text-anchor="middle" x="83.3125" y="-72.5" font-family="Helvetica,sans-Serif" font-size="10.00" fill="#000000">Google_PlaylistsServiceResource</text>
<polyline fill="none" stroke="#000000" points="0,-66.5 166.625,-66.5 "/>
<text text-anchor="middle" x="83.3125" y="-54.5" font-family="Helvetica,sans-Serif" font-size="10.00" fill="#000000"> </text>
<polyline fill="none" stroke="#000000" points="0,-48.5 166.625,-48.5 "/>
<text text-anchor="start" x="8" y="-36.5" font-family="Helvetica,sans-Serif" font-size="10.00" fill="#000000">+ delete()</text>
<text text-anchor="start" x="8" y="-26.5" font-family="Helvetica,sans-Serif" font-size="10.00" fill="#000000">+ insert()</text>
<text text-anchor="start" x="8" y="-16.5" font-family="Helvetica,sans-Serif" font-size="10.00" fill="#000000">+ listPlaylists()</text>
<text text-anchor="start" x="8" y="-6.5" font-family="Helvetica,sans-Serif" font-size="10.00" fill="#000000">+ update()</text>
</g>
<!-- Node3 -->
<g id="node2" class="node">
<title>Node3</title>
<g id="a_node2"><a xlink:href="class_google___service_resource.html" target="_top" xlink:title="{Google_ServiceResource\n||+ __construct()\l+ __call()\l+ useObjects()\l# stripNull()\l}">
<polygon fill="#ffffff" stroke="#000000" points="18.3374,-121.5 18.3374,-205.5 148.2876,-205.5 148.2876,-121.5 18.3374,-121.5"/>
<text text-anchor="middle" x="83.3125" y="-193.5" font-family="Helvetica,sans-Serif" font-size="10.00" fill="#000000">Google_ServiceResource</text>
<polyline fill="none" stroke="#000000" points="18.3374,-187.5 148.2876,-187.5 "/>
<text text-anchor="middle" x="83.3125" y="-175.5" font-family="Helvetica,sans-Serif" font-size="10.00" fill="#000000"> </text>
<polyline fill="none" stroke="#000000" points="18.3374,-169.5 148.2876,-169.5 "/>
<text text-anchor="start" x="26.3374" y="-157.5" font-family="Helvetica,sans-Serif" font-size="10.00" fill="#000000">+ __construct()</text>
<text text-anchor="start" x="26.3374" y="-147.5" font-family="Helvetica,sans-Serif" font-size="10.00" fill="#000000">+ __call()</text>
<text text-anchor="start" x="26.3374" y="-137.5" font-family="Helvetica,sans-Serif" font-size="10.00" fill="#000000">+ useObjects()</text>
<text text-anchor="start" x="26.3374" y="-127.5" font-family="Helvetica,sans-Serif" font-size="10.00" fill="#000000"># stripNull()</text>
</a>
</g>
</g>
<!-- Node3&#45;&gt;Node2 -->
<g id="edge1" class="edge">
<title>Node3&#45;&gt;Node2</title>
<path fill="none" stroke="#191970" d="M83.3125,-110.977C83.3125,-102.1562 83.3125,-93.1052 83.3125,-84.5917"/>
<polygon fill="none" stroke="#191970" points="79.8126,-111.18 83.3125,-121.1801 86.8126,-111.1801 79.8126,-111.18"/>
</g>
</g>
</svg>
