<?xml version="1.0" encoding="UTF-8" standalone="no"?>
<!DOCTYPE svg PUBLIC "-//W3C//DTD SVG 1.1//EN"
 "http://www.w3.org/Graphics/SVG/1.1/DTD/svg11.dtd">
<!-- Generated by graphviz version 2.40.1 (20161225.0304)
 -->
<!-- Title: Google_ChildrenServiceResource Pages: 1 -->
<svg width="175pt" height="214pt"
 viewBox="0.00 0.00 175.19 214.00" xmlns="http://www.w3.org/2000/svg" xmlns:xlink="http://www.w3.org/1999/xlink">
<g id="graph0" class="graph" transform="scale(1 1) rotate(0) translate(4 210)">
<title>Google_ChildrenServiceResource</title>
<polygon fill="#ffffff" stroke="transparent" points="-4,4 -4,-210 171.1914,-210 171.1914,4 -4,4"/>
<!-- Node0 -->
<g id="node1" class="node">
<title>Node0</title>
<polygon fill="#bfbfbf" stroke="#000000" points="0,-.5 0,-84.5 167.1914,-84.5 167.1914,-.5 0,-.5"/>
<text text-anchor="middle" x="83.5957" y="-72.5" font-family="Helvetica,sans-Serif" font-size="10.00" fill="#000000">Google_ChildrenServiceResource</text>
<polyline fill="none" stroke="#000000" points="0,-66.5 167.1914,-66.5 "/>
<text text-anchor="middle" x="83.5957" y="-54.5" font-family="Helvetica,sans-Serif" font-size="10.00" fill="#000000"> </text>
<polyline fill="none" stroke="#000000" points="0,-48.5 167.1914,-48.5 "/>
<text text-anchor="start" x="8" y="-36.5" font-family="Helvetica,sans-Serif" font-size="10.00" fill="#000000">+ delete()</text>
<text text-anchor="start" x="8" y="-26.5" font-family="Helvetica,sans-Serif" font-size="10.00" fill="#000000">+ get()</text>
<text text-anchor="start" x="8" y="-16.5" font-family="Helvetica,sans-Serif" font-size="10.00" fill="#000000">+ insert()</text>
<text text-anchor="start" x="8" y="-6.5" font-family="Helvetica,sans-Serif" font-size="10.00" fill="#000000">+ listChildren()</text>
</g>
<!-- Node1 -->
<g id="node2" class="node">
<title>Node1</title>
<g id="a_node2"><a xlink:href="class_google___service_resource.html" target="_top" xlink:title="{Google_ServiceResource\n||+ __construct()\l+ __call()\l+ useObjects()\l# stripNull()\l}">
<polygon fill="#ffffff" stroke="#000000" points="18.6206,-121.5 18.6206,-205.5 148.5708,-205.5 148.5708,-121.5 18.6206,-121.5"/>
<text text-anchor="middle" x="83.5957" y="-193.5" font-family="Helvetica,sans-Serif" font-size="10.00" fill="#000000">Google_ServiceResource</text>
<polyline fill="none" stroke="#000000" points="18.6206,-187.5 148.5708,-187.5 "/>
<text text-anchor="middle" x="83.5957" y="-175.5" font-family="Helvetica,sans-Serif" font-size="10.00" fill="#000000"> </text>
<polyline fill="none" stroke="#000000" points="18.6206,-169.5 148.5708,-169.5 "/>
<text text-anchor="start" x="26.6206" y="-157.5" font-family="Helvetica,sans-Serif" font-size="10.00" fill="#000000">+ __construct()</text>
<text text-anchor="start" x="26.6206" y="-147.5" font-family="Helvetica,sans-Serif" font-size="10.00" fill="#000000">+ __call()</text>
<text text-anchor="start" x="26.6206" y="-137.5" font-family="Helvetica,sans-Serif" font-size="10.00" fill="#000000">+ useObjects()</text>
<text text-anchor="start" x="26.6206" y="-127.5" font-family="Helvetica,sans-Serif" font-size="10.00" fill="#000000"># stripNull()</text>
</a>
</g>
</g>
<!-- Node1&#45;&gt;Node0 -->
<g id="edge1" class="edge">
<title>Node1&#45;&gt;Node0</title>
<path fill="none" stroke="#191970" d="M83.5957,-110.977C83.5957,-102.1562 83.5957,-93.1052 83.5957,-84.5917"/>
<polygon fill="none" stroke="#191970" points="80.0958,-111.18 83.5957,-121.1801 87.0958,-111.1801 80.0958,-111.18"/>
</g>
</g>
</svg>
