<?xml version="1.0" encoding="UTF-8" standalone="no"?>
<!DOCTYPE svg PUBLIC "-//W3C//DTD SVG 1.1//EN"
 "http://www.w3.org/Graphics/SVG/1.1/DTD/svg11.dtd">
<!-- Generated by graphviz version 2.40.1 (20161225.0304)
 -->
<!-- Title: collectionWidget Pages: 1 -->
<svg width="125pt" height="174pt"
 viewBox="0.00 0.00 124.58 174.00" xmlns="http://www.w3.org/2000/svg" xmlns:xlink="http://www.w3.org/1999/xlink">
<g id="graph0" class="graph" transform="scale(1 1) rotate(0) translate(4 170)">
<title>collectionWidget</title>
<polygon fill="#ffffff" stroke="transparent" points="-4,4 -4,-170 120.5811,-170 120.5811,4 -4,4"/>
<!-- Node0 -->
<g id="node1" class="node">
<title>Node0</title>
<polygon fill="#bfbfbf" stroke="#000000" points="0,-.5 0,-74.5 116.5811,-74.5 116.5811,-.5 0,-.5"/>
<text text-anchor="middle" x="58.2905" y="-62.5" font-family="Helvetica,sans-Serif" font-size="10.00" fill="#000000">collectionWidget</text>
<polyline fill="none" stroke="#000000" points="0,-56.5 116.5811,-56.5 "/>
<text text-anchor="start" x="8" y="-44.5" font-family="Helvetica,sans-Serif" font-size="10.00" fill="#000000">+ $itemview</text>
<polyline fill="none" stroke="#000000" points="0,-38.5 116.5811,-38.5 "/>
<text text-anchor="start" x="8" y="-26.5" font-family="Helvetica,sans-Serif" font-size="10.00" fill="#000000">+ init()</text>
<text text-anchor="start" x="8" y="-16.5" font-family="Helvetica,sans-Serif" font-size="10.00" fill="#000000">+ run()</text>
<text text-anchor="start" x="8" y="-6.5" font-family="Helvetica,sans-Serif" font-size="10.00" fill="#000000"># registerCoreScripts()</text>
</g>
<!-- Node1 -->
<g id="node2" class="node">
<title>Node1</title>
<polygon fill="#ffffff" stroke="#bfbfbf" points="31.1182,-111.5 31.1182,-165.5 85.4629,-165.5 85.4629,-111.5 31.1182,-111.5"/>
<text text-anchor="middle" x="58.2905" y="-153.5" font-family="Helvetica,sans-Serif" font-size="10.00" fill="#000000">CWidget</text>
<polyline fill="none" stroke="#bfbfbf" points="31.1182,-147.5 85.4629,-147.5 "/>
<text text-anchor="middle" x="58.2905" y="-135.5" font-family="Helvetica,sans-Serif" font-size="10.00" fill="#000000"> </text>
<polyline fill="none" stroke="#bfbfbf" points="31.1182,-129.5 85.4629,-129.5 "/>
<text text-anchor="middle" x="58.2905" y="-117.5" font-family="Helvetica,sans-Serif" font-size="10.00" fill="#000000"> </text>
</g>
<!-- Node1&#45;&gt;Node0 -->
<g id="edge1" class="edge">
<title>Node1&#45;&gt;Node0</title>
<path fill="none" stroke="#191970" d="M58.2905,-101.1725C58.2905,-92.4692 58.2905,-83.2047 58.2905,-74.515"/>
<polygon fill="none" stroke="#191970" points="54.7906,-101.4338 58.2905,-111.4339 61.7906,-101.4339 54.7906,-101.4338"/>
</g>
</g>
</svg>
