<?xml version="1.0" encoding="UTF-8" standalone="no"?>
<!DOCTYPE svg PUBLIC "-//W3C//DTD SVG 1.1//EN"
 "http://www.w3.org/Graphics/SVG/1.1/DTD/svg11.dtd">
<!-- Generated by graphviz version 2.40.1 (20161225.0304)
 -->
<!-- Title: Swift_StreamFilters_StringReplacementFilter Pages: 1 -->
<svg width="137pt" height="194pt"
 viewBox="0.00 0.00 136.83 194.00" xmlns="http://www.w3.org/2000/svg" xmlns:xlink="http://www.w3.org/1999/xlink">
<g id="graph0" class="graph" transform="scale(1 1) rotate(0) translate(4 190)">
<title>Swift_StreamFilters_StringReplacementFilter</title>
<polygon fill="#ffffff" stroke="transparent" points="-4,4 -4,-190 132.8271,-190 132.8271,4 -4,4"/>
<!-- Node0 -->
<g id="node1" class="node">
<title>Node0</title>
<polygon fill="#bfbfbf" stroke="#000000" points="0,-.5 0,-84.5 128.8271,-84.5 128.8271,-.5 0,-.5"/>
<text text-anchor="start" x="8" y="-72.5" font-family="Helvetica,sans-Serif" font-size="10.00" fill="#000000">Swift_StreamFilters</text>
<text text-anchor="middle" x="64.4136" y="-62.5" font-family="Helvetica,sans-Serif" font-size="10.00" fill="#000000">_StringReplacementFilter</text>
<polyline fill="none" stroke="#000000" points="0,-56.5 128.8271,-56.5 "/>
<text text-anchor="middle" x="64.4136" y="-44.5" font-family="Helvetica,sans-Serif" font-size="10.00" fill="#000000"> </text>
<polyline fill="none" stroke="#000000" points="0,-38.5 128.8271,-38.5 "/>
<text text-anchor="start" x="8" y="-26.5" font-family="Helvetica,sans-Serif" font-size="10.00" fill="#000000">+ __construct()</text>
<text text-anchor="start" x="8" y="-16.5" font-family="Helvetica,sans-Serif" font-size="10.00" fill="#000000">+ shouldBuffer()</text>
<text text-anchor="start" x="8" y="-6.5" font-family="Helvetica,sans-Serif" font-size="10.00" fill="#000000">+ filter()</text>
</g>
<!-- Node1 -->
<g id="node2" class="node">
<title>Node1</title>
<g id="a_node2"><a xlink:href="interface_swift___stream_filter.html" target="_top" xlink:title="{Swift_StreamFilter\n||+ shouldBuffer()\l+ filter()\l}">
<polygon fill="#ffffff" stroke="#000000" points="15.5713,-121.5 15.5713,-185.5 113.2559,-185.5 113.2559,-121.5 15.5713,-121.5"/>
<text text-anchor="middle" x="64.4136" y="-173.5" font-family="Helvetica,sans-Serif" font-size="10.00" fill="#000000">Swift_StreamFilter</text>
<polyline fill="none" stroke="#000000" points="15.5713,-167.5 113.2559,-167.5 "/>
<text text-anchor="middle" x="64.4136" y="-155.5" font-family="Helvetica,sans-Serif" font-size="10.00" fill="#000000"> </text>
<polyline fill="none" stroke="#000000" points="15.5713,-149.5 113.2559,-149.5 "/>
<text text-anchor="start" x="23.5713" y="-137.5" font-family="Helvetica,sans-Serif" font-size="10.00" fill="#000000">+ shouldBuffer()</text>
<text text-anchor="start" x="23.5713" y="-127.5" font-family="Helvetica,sans-Serif" font-size="10.00" fill="#000000">+ filter()</text>
</a>
</g>
</g>
<!-- Node1&#45;&gt;Node0 -->
<g id="edge1" class="edge">
<title>Node1&#45;&gt;Node0</title>
<path fill="none" stroke="#191970" d="M64.4136,-111.1673C64.4136,-102.5509 64.4136,-93.4852 64.4136,-84.8676"/>
<polygon fill="none" stroke="#191970" points="60.9137,-111.3942 64.4136,-121.3942 67.9137,-111.3942 60.9137,-111.3942"/>
</g>
</g>
</svg>
