<?xml version="1.0" encoding="UTF-8" standalone="no"?>
<!DOCTYPE svg PUBLIC "-//W3C//DTD SVG 1.1//EN"
 "http://www.w3.org/Graphics/SVG/1.1/DTD/svg11.dtd">
<!-- Generated by graphviz version 2.40.1 (20161225.0304)
 -->
<!-- Title: Google_MirrorService Pages: 1 -->
<svg width="133pt" height="214pt"
 viewBox="0.00 0.00 132.67 214.00" xmlns="http://www.w3.org/2000/svg" xmlns:xlink="http://www.w3.org/1999/xlink">
<g id="graph0" class="graph" transform="scale(1 1) rotate(0) translate(4 210)">
<title>Google_MirrorService</title>
<polygon fill="#ffffff" stroke="transparent" points="-4,4 -4,-210 128.6719,-210 128.6719,4 -4,4"/>
<!-- Node0 -->
<g id="node1" class="node">
<title>Node0</title>
<polygon fill="#bfbfbf" stroke="#000000" points="0,-.5 0,-94.5 124.6719,-94.5 124.6719,-.5 0,-.5"/>
<text text-anchor="middle" x="62.3359" y="-82.5" font-family="Helvetica,sans-Serif" font-size="10.00" fill="#000000">Google_MirrorService</text>
<polyline fill="none" stroke="#000000" points="0,-76.5 124.6719,-76.5 "/>
<text text-anchor="start" x="8" y="-64.5" font-family="Helvetica,sans-Serif" font-size="10.00" fill="#000000">+ $contacts</text>
<text text-anchor="start" x="8" y="-54.5" font-family="Helvetica,sans-Serif" font-size="10.00" fill="#000000">+ $locations</text>
<text text-anchor="start" x="8" y="-44.5" font-family="Helvetica,sans-Serif" font-size="10.00" fill="#000000">+ $subscriptions</text>
<text text-anchor="start" x="8" y="-34.5" font-family="Helvetica,sans-Serif" font-size="10.00" fill="#000000">+ $timeline</text>
<text text-anchor="start" x="8" y="-24.5" font-family="Helvetica,sans-Serif" font-size="10.00" fill="#000000">+ $timeline_attachments</text>
<polyline fill="none" stroke="#000000" points="0,-18.5 124.6719,-18.5 "/>
<text text-anchor="start" x="8" y="-6.5" font-family="Helvetica,sans-Serif" font-size="10.00" fill="#000000">+ __construct()</text>
</g>
<!-- Node1 -->
<g id="node2" class="node">
<title>Node1</title>
<g id="a_node2"><a xlink:href="class_google___service.html" target="_top" xlink:title="{Google_Service\n|+ $version\l+ $servicePath\l+ $resource\l|}">
<polygon fill="#ffffff" stroke="#000000" points="18.7598,-131.5 18.7598,-205.5 105.9121,-205.5 105.9121,-131.5 18.7598,-131.5"/>
<text text-anchor="middle" x="62.3359" y="-193.5" font-family="Helvetica,sans-Serif" font-size="10.00" fill="#000000">Google_Service</text>
<polyline fill="none" stroke="#000000" points="18.7598,-187.5 105.9121,-187.5 "/>
<text text-anchor="start" x="26.7598" y="-175.5" font-family="Helvetica,sans-Serif" font-size="10.00" fill="#000000">+ $version</text>
<text text-anchor="start" x="26.7598" y="-165.5" font-family="Helvetica,sans-Serif" font-size="10.00" fill="#000000">+ $servicePath</text>
<text text-anchor="start" x="26.7598" y="-155.5" font-family="Helvetica,sans-Serif" font-size="10.00" fill="#000000">+ $resource</text>
<polyline fill="none" stroke="#000000" points="18.7598,-149.5 105.9121,-149.5 "/>
<text text-anchor="middle" x="62.3359" y="-137.5" font-family="Helvetica,sans-Serif" font-size="10.00" fill="#000000"> </text>
</a>
</g>
</g>
<!-- Node1&#45;&gt;Node0 -->
<g id="edge1" class="edge">
<title>Node1&#45;&gt;Node0</title>
<path fill="none" stroke="#191970" d="M62.3359,-120.9307C62.3359,-112.3143 62.3359,-103.3308 62.3359,-94.7244"/>
<polygon fill="none" stroke="#191970" points="58.836,-121.2087 62.3359,-131.2087 65.836,-121.2087 58.836,-121.2087"/>
</g>
</g>
</svg>
