<?xml version="1.0" encoding="UTF-8" standalone="no"?>
<!DOCTYPE svg PUBLIC "-//W3C//DTD SVG 1.1//EN"
 "http://www.w3.org/Graphics/SVG/1.1/DTD/svg11.dtd">
<!-- Generated by graphviz version 2.40.1 (20161225.0304)
 -->
<!-- Title: EAuthUserIdentity Pages: 1 -->
<svg width="184pt" height="214pt"
 viewBox="0.00 0.00 184.12 214.00" xmlns="http://www.w3.org/2000/svg" xmlns:xlink="http://www.w3.org/1999/xlink">
<g id="graph0" class="graph" transform="scale(1 1) rotate(0) translate(4 210)">
<title>EAuthUserIdentity</title>
<polygon fill="#ffffff" stroke="transparent" points="-4,4 -4,-210 180.1172,-210 180.1172,4 -4,4"/>
<!-- Node0 -->
<g id="node1" class="node">
<title>Node0</title>
<polygon fill="#bfbfbf" stroke="#000000" points="0,-.5 0,-114.5 176.1172,-114.5 176.1172,-.5 0,-.5"/>
<text text-anchor="middle" x="88.0586" y="-102.5" font-family="Helvetica,sans-Serif" font-size="10.00" fill="#000000">EAuthUserIdentity</text>
<polyline fill="none" stroke="#000000" points="0,-96.5 176.1172,-96.5 "/>
<text text-anchor="start" x="8" y="-84.5" font-family="Helvetica,sans-Serif" font-size="10.00" fill="#000000">+ ERROR_NOT_AUTHENTICATED</text>
<text text-anchor="start" x="8" y="-74.5" font-family="Helvetica,sans-Serif" font-size="10.00" fill="#000000"># $service</text>
<text text-anchor="start" x="8" y="-64.5" font-family="Helvetica,sans-Serif" font-size="10.00" fill="#000000"># $id</text>
<text text-anchor="start" x="8" y="-54.5" font-family="Helvetica,sans-Serif" font-size="10.00" fill="#000000"># $name</text>
<polyline fill="none" stroke="#000000" points="0,-48.5 176.1172,-48.5 "/>
<text text-anchor="start" x="8" y="-36.5" font-family="Helvetica,sans-Serif" font-size="10.00" fill="#000000">+ __construct()</text>
<text text-anchor="start" x="8" y="-26.5" font-family="Helvetica,sans-Serif" font-size="10.00" fill="#000000">+ authenticate()</text>
<text text-anchor="start" x="8" y="-16.5" font-family="Helvetica,sans-Serif" font-size="10.00" fill="#000000">+ getId()</text>
<text text-anchor="start" x="8" y="-6.5" font-family="Helvetica,sans-Serif" font-size="10.00" fill="#000000">+ getName()</text>
</g>
<!-- Node1 -->
<g id="node2" class="node">
<title>Node1</title>
<polygon fill="#ffffff" stroke="#bfbfbf" points="38.374,-151.5 38.374,-205.5 137.7432,-205.5 137.7432,-151.5 38.374,-151.5"/>
<text text-anchor="middle" x="88.0586" y="-193.5" font-family="Helvetica,sans-Serif" font-size="10.00" fill="#000000">CBaseUserIdentity</text>
<polyline fill="none" stroke="#bfbfbf" points="38.374,-187.5 137.7432,-187.5 "/>
<text text-anchor="middle" x="88.0586" y="-175.5" font-family="Helvetica,sans-Serif" font-size="10.00" fill="#000000"> </text>
<polyline fill="none" stroke="#bfbfbf" points="38.374,-169.5 137.7432,-169.5 "/>
<text text-anchor="middle" x="88.0586" y="-157.5" font-family="Helvetica,sans-Serif" font-size="10.00" fill="#000000"> </text>
</g>
<!-- Node1&#45;&gt;Node0 -->
<g id="edge1" class="edge">
<title>Node1&#45;&gt;Node0</title>
<path fill="none" stroke="#191970" d="M88.0586,-141.172C88.0586,-132.7988 88.0586,-123.728 88.0586,-114.7528"/>
<polygon fill="none" stroke="#191970" points="84.5587,-141.3452 88.0586,-151.3452 91.5587,-141.3453 84.5587,-141.3452"/>
</g>
</g>
</svg>
