<?xml version="1.0" encoding="UTF-8" standalone="no"?>
<!DOCTYPE svg PUBLIC "-//W3C//DTD SVG 1.1//EN"
 "http://www.w3.org/Graphics/SVG/1.1/DTD/svg11.dtd">
<!-- Generated by graphviz version 2.40.1 (20161225.0304)
 -->
<!-- Title: Google_RoomAutoMatchStatus Pages: 1 -->
<svg width="165pt" height="234pt"
 viewBox="0.00 0.00 164.63 234.00" xmlns="http://www.w3.org/2000/svg" xmlns:xlink="http://www.w3.org/1999/xlink">
<g id="graph0" class="graph" transform="scale(1 1) rotate(0) translate(4 230)">
<title>Google_RoomAutoMatchStatus</title>
<polygon fill="#ffffff" stroke="transparent" points="-4,4 -4,-230 160.6348,-230 160.6348,4 -4,4"/>
<!-- Node2 -->
<g id="node1" class="node">
<title>Node2</title>
<polygon fill="#bfbfbf" stroke="#000000" points="0,-.5 0,-94.5 156.6348,-94.5 156.6348,-.5 0,-.5"/>
<text text-anchor="middle" x="78.3174" y="-82.5" font-family="Helvetica,sans-Serif" font-size="10.00" fill="#000000">Google_RoomAutoMatchStatus</text>
<polyline fill="none" stroke="#000000" points="0,-76.5 156.6348,-76.5 "/>
<text text-anchor="start" x="8" y="-64.5" font-family="Helvetica,sans-Serif" font-size="10.00" fill="#000000">+ $kind</text>
<text text-anchor="start" x="8" y="-54.5" font-family="Helvetica,sans-Serif" font-size="10.00" fill="#000000">+ $waitEstimateSeconds</text>
<polyline fill="none" stroke="#000000" points="0,-48.5 156.6348,-48.5 "/>
<text text-anchor="start" x="8" y="-36.5" font-family="Helvetica,sans-Serif" font-size="10.00" fill="#000000">+ setKind()</text>
<text text-anchor="start" x="8" y="-26.5" font-family="Helvetica,sans-Serif" font-size="10.00" fill="#000000">+ getKind()</text>
<text text-anchor="start" x="8" y="-16.5" font-family="Helvetica,sans-Serif" font-size="10.00" fill="#000000">+ setWaitEstimateSeconds()</text>
<text text-anchor="start" x="8" y="-6.5" font-family="Helvetica,sans-Serif" font-size="10.00" fill="#000000">+ getWaitEstimateSeconds()</text>
</g>
<!-- Node3 -->
<g id="node2" class="node">
<title>Node3</title>
<g id="a_node2"><a xlink:href="class_google___model.html" target="_top" xlink:title="{Google_Model\n||+ __construct()\l+ assertIsArray()\l# mapTypes()\l# isAssociativeArray()\l# useObjects()\l}">
<polygon fill="#ffffff" stroke="#000000" points="21.9727,-131.5 21.9727,-225.5 134.6621,-225.5 134.6621,-131.5 21.9727,-131.5"/>
<text text-anchor="middle" x="78.3174" y="-213.5" font-family="Helvetica,sans-Serif" font-size="10.00" fill="#000000">Google_Model</text>
<polyline fill="none" stroke="#000000" points="21.9727,-207.5 134.6621,-207.5 "/>
<text text-anchor="middle" x="78.3174" y="-195.5" font-family="Helvetica,sans-Serif" font-size="10.00" fill="#000000"> </text>
<polyline fill="none" stroke="#000000" points="21.9727,-189.5 134.6621,-189.5 "/>
<text text-anchor="start" x="29.9727" y="-177.5" font-family="Helvetica,sans-Serif" font-size="10.00" fill="#000000">+ __construct()</text>
<text text-anchor="start" x="29.9727" y="-167.5" font-family="Helvetica,sans-Serif" font-size="10.00" fill="#000000">+ assertIsArray()</text>
<text text-anchor="start" x="29.9727" y="-157.5" font-family="Helvetica,sans-Serif" font-size="10.00" fill="#000000"># mapTypes()</text>
<text text-anchor="start" x="29.9727" y="-147.5" font-family="Helvetica,sans-Serif" font-size="10.00" fill="#000000"># isAssociativeArray()</text>
<text text-anchor="start" x="29.9727" y="-137.5" font-family="Helvetica,sans-Serif" font-size="10.00" fill="#000000"># useObjects()</text>
</a>
</g>
</g>
<!-- Node3&#45;&gt;Node2 -->
<g id="edge1" class="edge">
<title>Node3&#45;&gt;Node2</title>
<path fill="none" stroke="#191970" d="M78.3174,-121.0214C78.3174,-112.2362 78.3174,-103.2556 78.3174,-94.7246"/>
<polygon fill="none" stroke="#191970" points="74.8175,-121.206 78.3174,-131.206 81.8175,-121.206 74.8175,-121.206"/>
</g>
</g>
</svg>
