<?xml version="1.0" encoding="UTF-8" standalone="no"?>
<!DOCTYPE svg PUBLIC "-//W3C//DTD SVG 1.1//EN"
 "http://www.w3.org/Graphics/SVG/1.1/DTD/svg11.dtd">
<!-- Generated by graphviz version 2.40.1 (20161225.0304)
 -->
<!-- Title: Swift_Plugins_DecoratorPlugin Pages: 1 -->
<svg width="291pt" height="285pt"
 viewBox="0.00 0.00 291.00 285.00" xmlns="http://www.w3.org/2000/svg" xmlns:xlink="http://www.w3.org/1999/xlink">
<g id="graph0" class="graph" transform="scale(1 1) rotate(0) translate(4 281)">
<title>Swift_Plugins_DecoratorPlugin</title>
<polygon fill="#ffffff" stroke="transparent" points="-4,4 -4,-281 287.0044,-281 287.0044,4 -4,4"/>
<!-- Node4 -->
<g id="node1" class="node">
<title>Node4</title>
<polygon fill="#bfbfbf" stroke="#000000" points="68.6084,-.5 68.6084,-84.5 221.9033,-84.5 221.9033,-.5 68.6084,-.5"/>
<text text-anchor="middle" x="145.2559" y="-72.5" font-family="Helvetica,sans-Serif" font-size="10.00" fill="#000000">Swift_Plugins_DecoratorPlugin</text>
<polyline fill="none" stroke="#000000" points="68.6084,-66.5 221.9033,-66.5 "/>
<text text-anchor="middle" x="145.2559" y="-54.5" font-family="Helvetica,sans-Serif" font-size="10.00" fill="#000000"> </text>
<polyline fill="none" stroke="#000000" points="68.6084,-48.5 221.9033,-48.5 "/>
<text text-anchor="start" x="76.6084" y="-36.5" font-family="Helvetica,sans-Serif" font-size="10.00" fill="#000000">+ __construct()</text>
<text text-anchor="start" x="76.6084" y="-26.5" font-family="Helvetica,sans-Serif" font-size="10.00" fill="#000000">+ beforeSendPerformed()</text>
<text text-anchor="start" x="76.6084" y="-16.5" font-family="Helvetica,sans-Serif" font-size="10.00" fill="#000000">+ getReplacementsFor()</text>
<text text-anchor="start" x="76.6084" y="-6.5" font-family="Helvetica,sans-Serif" font-size="10.00" fill="#000000">+ sendPerformed()</text>
</g>
<!-- Node5 -->
<g id="node2" class="node">
<title>Node5</title>
<g id="a_node2"><a xlink:href="interface_swift___events___send_listener.html" target="_top" xlink:title="{Swift_Events_SendListener\n||+ beforeSendPerformed()\l+ sendPerformed()\l}">
<polygon fill="#ffffff" stroke="#000000" points="1.1084,-121.5 1.1084,-185.5 139.4033,-185.5 139.4033,-121.5 1.1084,-121.5"/>
<text text-anchor="middle" x="70.2559" y="-173.5" font-family="Helvetica,sans-Serif" font-size="10.00" fill="#000000">Swift_Events_SendListener</text>
<polyline fill="none" stroke="#000000" points="1.1084,-167.5 139.4033,-167.5 "/>
<text text-anchor="middle" x="70.2559" y="-155.5" font-family="Helvetica,sans-Serif" font-size="10.00" fill="#000000"> </text>
<polyline fill="none" stroke="#000000" points="1.1084,-149.5 139.4033,-149.5 "/>
<text text-anchor="start" x="9.1084" y="-137.5" font-family="Helvetica,sans-Serif" font-size="10.00" fill="#000000">+ beforeSendPerformed()</text>
<text text-anchor="start" x="9.1084" y="-127.5" font-family="Helvetica,sans-Serif" font-size="10.00" fill="#000000">+ sendPerformed()</text>
</a>
</g>
</g>
<!-- Node5&#45;&gt;Node4 -->
<g id="edge1" class="edge">
<title>Node5&#45;&gt;Node4</title>
<path fill="none" stroke="#191970" d="M97.7116,-112.8655C103.8718,-103.7484 110.4225,-94.0534 116.6291,-84.8676"/>
<polygon fill="none" stroke="#191970" points="94.6475,-111.1488 91.949,-121.3942 100.4477,-115.0678 94.6475,-111.1488"/>
</g>
<!-- Node6 -->
<g id="node3" class="node">
<title>Node6</title>
<g id="a_node3"><a xlink:href="interface_swift___events___event_listener.html" target="_top" xlink:title="{Swift_Events_EventListener\n||}">
<polygon fill="#ffffff" stroke="#000000" points="0,-222.5 0,-276.5 140.5117,-276.5 140.5117,-222.5 0,-222.5"/>
<text text-anchor="middle" x="70.2559" y="-264.5" font-family="Helvetica,sans-Serif" font-size="10.00" fill="#000000">Swift_Events_EventListener</text>
<polyline fill="none" stroke="#000000" points="0,-258.5 140.5117,-258.5 "/>
<text text-anchor="middle" x="70.2559" y="-246.5" font-family="Helvetica,sans-Serif" font-size="10.00" fill="#000000"> </text>
<polyline fill="none" stroke="#000000" points="0,-240.5 140.5117,-240.5 "/>
<text text-anchor="middle" x="70.2559" y="-228.5" font-family="Helvetica,sans-Serif" font-size="10.00" fill="#000000"> </text>
</a>
</g>
</g>
<!-- Node6&#45;&gt;Node5 -->
<g id="edge2" class="edge">
<title>Node6&#45;&gt;Node5</title>
<path fill="none" stroke="#191970" d="M70.2559,-212.2276C70.2559,-203.4295 70.2559,-194.1248 70.2559,-185.5792"/>
<polygon fill="none" stroke="#191970" points="66.756,-212.247 70.2559,-222.247 73.756,-212.2471 66.756,-212.247"/>
</g>
<!-- Node7 -->
<g id="node4" class="node">
<title>Node7</title>
<g id="a_node4"><a xlink:href="interface_swift___plugins___decorator___replacements.html" target="_top" xlink:title="{Swift_Plugins_Decorator\l_Replacements\n||+ getReplacementsFor()\l}">
<polygon fill="#ffffff" stroke="#000000" points="157.5073,-121.5 157.5073,-185.5 283.0044,-185.5 283.0044,-121.5 157.5073,-121.5"/>
<text text-anchor="start" x="165.5073" y="-173.5" font-family="Helvetica,sans-Serif" font-size="10.00" fill="#000000">Swift_Plugins_Decorator</text>
<text text-anchor="middle" x="220.2559" y="-163.5" font-family="Helvetica,sans-Serif" font-size="10.00" fill="#000000">_Replacements</text>
<polyline fill="none" stroke="#000000" points="157.5073,-157.5 283.0044,-157.5 "/>
<text text-anchor="middle" x="220.2559" y="-145.5" font-family="Helvetica,sans-Serif" font-size="10.00" fill="#000000"> </text>
<polyline fill="none" stroke="#000000" points="157.5073,-139.5 283.0044,-139.5 "/>
<text text-anchor="start" x="165.5073" y="-127.5" font-family="Helvetica,sans-Serif" font-size="10.00" fill="#000000">+ getReplacementsFor()</text>
</a>
</g>
</g>
<!-- Node7&#45;&gt;Node4 -->
<g id="edge3" class="edge">
<title>Node7&#45;&gt;Node4</title>
<path fill="none" stroke="#191970" d="M192.8001,-112.8655C186.6399,-103.7484 180.0892,-94.0534 173.8826,-84.8676"/>
<polygon fill="none" stroke="#191970" points="190.0641,-115.0678 198.5628,-121.3942 195.8642,-111.1488 190.0641,-115.0678"/>
</g>
</g>
</svg>
