<?xml version="1.0" encoding="UTF-8" standalone="no"?>
<!DOCTYPE svg PUBLIC "-//W3C//DTD SVG 1.1//EN"
 "http://www.w3.org/Graphics/SVG/1.1/DTD/svg11.dtd">
<!-- Generated by graphviz version 2.40.1 (20161225.0304)
 -->
<!-- Title: Google_TranslateService Pages: 1 -->
<svg width="136pt" height="194pt"
 viewBox="0.00 0.00 136.47 194.00" xmlns="http://www.w3.org/2000/svg" xmlns:xlink="http://www.w3.org/1999/xlink">
<g id="graph0" class="graph" transform="scale(1 1) rotate(0) translate(4 190)">
<title>Google_TranslateService</title>
<polygon fill="#ffffff" stroke="transparent" points="-4,4 -4,-190 132.4707,-190 132.4707,4 -4,4"/>
<!-- Node0 -->
<g id="node1" class="node">
<title>Node0</title>
<polygon fill="#bfbfbf" stroke="#000000" points="0,-.5 0,-74.5 128.4707,-74.5 128.4707,-.5 0,-.5"/>
<text text-anchor="middle" x="64.2354" y="-62.5" font-family="Helvetica,sans-Serif" font-size="10.00" fill="#000000">Google_TranslateService</text>
<polyline fill="none" stroke="#000000" points="0,-56.5 128.4707,-56.5 "/>
<text text-anchor="start" x="8" y="-44.5" font-family="Helvetica,sans-Serif" font-size="10.00" fill="#000000">+ $detections</text>
<text text-anchor="start" x="8" y="-34.5" font-family="Helvetica,sans-Serif" font-size="10.00" fill="#000000">+ $languages</text>
<text text-anchor="start" x="8" y="-24.5" font-family="Helvetica,sans-Serif" font-size="10.00" fill="#000000">+ $translations</text>
<polyline fill="none" stroke="#000000" points="0,-18.5 128.4707,-18.5 "/>
<text text-anchor="start" x="8" y="-6.5" font-family="Helvetica,sans-Serif" font-size="10.00" fill="#000000">+ __construct()</text>
</g>
<!-- Node1 -->
<g id="node2" class="node">
<title>Node1</title>
<g id="a_node2"><a xlink:href="class_google___service.html" target="_top" xlink:title="{Google_Service\n|+ $version\l+ $servicePath\l+ $resource\l|}">
<polygon fill="#ffffff" stroke="#000000" points="20.6592,-111.5 20.6592,-185.5 107.8115,-185.5 107.8115,-111.5 20.6592,-111.5"/>
<text text-anchor="middle" x="64.2354" y="-173.5" font-family="Helvetica,sans-Serif" font-size="10.00" fill="#000000">Google_Service</text>
<polyline fill="none" stroke="#000000" points="20.6592,-167.5 107.8115,-167.5 "/>
<text text-anchor="start" x="28.6592" y="-155.5" font-family="Helvetica,sans-Serif" font-size="10.00" fill="#000000">+ $version</text>
<text text-anchor="start" x="28.6592" y="-145.5" font-family="Helvetica,sans-Serif" font-size="10.00" fill="#000000">+ $servicePath</text>
<text text-anchor="start" x="28.6592" y="-135.5" font-family="Helvetica,sans-Serif" font-size="10.00" fill="#000000">+ $resource</text>
<polyline fill="none" stroke="#000000" points="20.6592,-129.5 107.8115,-129.5 "/>
<text text-anchor="middle" x="64.2354" y="-117.5" font-family="Helvetica,sans-Serif" font-size="10.00" fill="#000000"> </text>
</a>
</g>
</g>
<!-- Node1&#45;&gt;Node0 -->
<g id="edge1" class="edge">
<title>Node1&#45;&gt;Node0</title>
<path fill="none" stroke="#191970" d="M64.2354,-101.1104C64.2354,-92.336 64.2354,-83.2851 64.2354,-74.8608"/>
<polygon fill="none" stroke="#191970" points="60.7355,-101.2298 64.2354,-111.2298 67.7355,-101.2299 60.7355,-101.2298"/>
</g>
</g>
</svg>
