<?xml version="1.0" encoding="UTF-8" standalone="no"?>
<!DOCTYPE svg PUBLIC "-//W3C//DTD SVG 1.1//EN"
 "http://www.w3.org/Graphics/SVG/1.1/DTD/svg11.dtd">
<!-- Generated by graphviz version 2.40.1 (20161225.0304)
 -->
<!-- Title: CAdvancedArbehavior Pages: 1 -->
<svg width="188pt" height="214pt"
 viewBox="0.00 0.00 187.67 214.00" xmlns="http://www.w3.org/2000/svg" xmlns:xlink="http://www.w3.org/1999/xlink">
<g id="graph0" class="graph" transform="scale(1 1) rotate(0) translate(4 210)">
<title>CAdvancedArbehavior</title>
<polygon fill="#ffffff" stroke="transparent" points="-4,4 -4,-210 183.6719,-210 183.6719,4 -4,4"/>
<!-- Node0 -->
<g id="node1" class="node">
<title>Node0</title>
<polygon fill="#bfbfbf" stroke="#000000" points="0,-.5 0,-114.5 179.6719,-114.5 179.6719,-.5 0,-.5"/>
<text text-anchor="middle" x="89.8359" y="-102.5" font-family="Helvetica,sans-Serif" font-size="10.00" fill="#000000">CAdvancedArbehavior</text>
<polyline fill="none" stroke="#000000" points="0,-96.5 179.6719,-96.5 "/>
<text text-anchor="middle" x="89.8359" y="-84.5" font-family="Helvetica,sans-Serif" font-size="10.00" fill="#000000"> </text>
<polyline fill="none" stroke="#000000" points="0,-78.5 179.6719,-78.5 "/>
<text text-anchor="start" x="8" y="-66.5" font-family="Helvetica,sans-Serif" font-size="10.00" fill="#000000">+ afterSave()</text>
<text text-anchor="start" x="8" y="-56.5" font-family="Helvetica,sans-Serif" font-size="10.00" fill="#000000">+ writeManyManyTables()</text>
<text text-anchor="start" x="8" y="-46.5" font-family="Helvetica,sans-Serif" font-size="10.00" fill="#000000">+ executeManyManyEntry()</text>
<text text-anchor="start" x="8" y="-36.5" font-family="Helvetica,sans-Serif" font-size="10.00" fill="#000000">+ makeManyManyInsertCommand()</text>
<text text-anchor="start" x="8" y="-26.5" font-family="Helvetica,sans-Serif" font-size="10.00" fill="#000000">+ makeManyManyDeleteCommand()</text>
<text text-anchor="start" x="8" y="-16.5" font-family="Helvetica,sans-Serif" font-size="10.00" fill="#000000">+ getManyManyTable()</text>
<text text-anchor="start" x="8" y="-6.5" font-family="Helvetica,sans-Serif" font-size="10.00" fill="#000000">+ getRelationNameForDeletion()</text>
</g>
<!-- Node1 -->
<g id="node2" class="node">
<title>Node1</title>
<polygon fill="#ffffff" stroke="#bfbfbf" points="28.7573,-151.5 28.7573,-205.5 150.9146,-205.5 150.9146,-151.5 28.7573,-151.5"/>
<text text-anchor="middle" x="89.8359" y="-193.5" font-family="Helvetica,sans-Serif" font-size="10.00" fill="#000000">CActiveRecordBehavior</text>
<polyline fill="none" stroke="#bfbfbf" points="28.7573,-187.5 150.9146,-187.5 "/>
<text text-anchor="middle" x="89.8359" y="-175.5" font-family="Helvetica,sans-Serif" font-size="10.00" fill="#000000"> </text>
<polyline fill="none" stroke="#bfbfbf" points="28.7573,-169.5 150.9146,-169.5 "/>
<text text-anchor="middle" x="89.8359" y="-157.5" font-family="Helvetica,sans-Serif" font-size="10.00" fill="#000000"> </text>
</g>
<!-- Node1&#45;&gt;Node0 -->
<g id="edge1" class="edge">
<title>Node1&#45;&gt;Node0</title>
<path fill="none" stroke="#191970" d="M89.8359,-141.172C89.8359,-132.7988 89.8359,-123.728 89.8359,-114.7528"/>
<polygon fill="none" stroke="#191970" points="86.336,-141.3452 89.8359,-151.3452 93.336,-141.3453 86.336,-141.3452"/>
</g>
</g>
</svg>
