<?xml version="1.0" encoding="UTF-8" standalone="no"?>
<!DOCTYPE svg PUBLIC "-//W3C//DTD SVG 1.1//EN"
 "http://www.w3.org/Graphics/SVG/1.1/DTD/svg11.dtd">
<!-- Generated by graphviz version 2.40.1 (20161225.0304)
 -->
<!-- Title: Google_CommunitiesServiceResource Pages: 1 -->
<svg width="154pt" height="204pt"
 viewBox="0.00 0.00 153.50 204.00" xmlns="http://www.w3.org/2000/svg" xmlns:xlink="http://www.w3.org/1999/xlink">
<g id="graph0" class="graph" transform="scale(1 1) rotate(0) translate(4 200)">
<title>Google_CommunitiesServiceResource</title>
<polygon fill="#ffffff" stroke="transparent" points="-4,4 -4,-200 149.502,-200 149.502,4 -4,4"/>
<!-- Node2 -->
<g id="node1" class="node">
<title>Node2</title>
<polygon fill="#bfbfbf" stroke="#000000" points="0,-.5 0,-74.5 145.502,-74.5 145.502,-.5 0,-.5"/>
<text text-anchor="start" x="8" y="-62.5" font-family="Helvetica,sans-Serif" font-size="10.00" fill="#000000">Google_CommunitiesService</text>
<text text-anchor="middle" x="72.751" y="-52.5" font-family="Helvetica,sans-Serif" font-size="10.00" fill="#000000">Resource</text>
<polyline fill="none" stroke="#000000" points="0,-46.5 145.502,-46.5 "/>
<text text-anchor="middle" x="72.751" y="-34.5" font-family="Helvetica,sans-Serif" font-size="10.00" fill="#000000"> </text>
<polyline fill="none" stroke="#000000" points="0,-28.5 145.502,-28.5 "/>
<text text-anchor="start" x="8" y="-16.5" font-family="Helvetica,sans-Serif" font-size="10.00" fill="#000000">+ get()</text>
<text text-anchor="start" x="8" y="-6.5" font-family="Helvetica,sans-Serif" font-size="10.00" fill="#000000">+ listCommunities()</text>
</g>
<!-- Node3 -->
<g id="node2" class="node">
<title>Node3</title>
<g id="a_node2"><a xlink:href="class_google___service_resource.html" target="_top" xlink:title="{Google_ServiceResource\n||+ __construct()\l+ __call()\l+ useObjects()\l# stripNull()\l}">
<polygon fill="#ffffff" stroke="#000000" points="7.7759,-111.5 7.7759,-195.5 137.7261,-195.5 137.7261,-111.5 7.7759,-111.5"/>
<text text-anchor="middle" x="72.751" y="-183.5" font-family="Helvetica,sans-Serif" font-size="10.00" fill="#000000">Google_ServiceResource</text>
<polyline fill="none" stroke="#000000" points="7.7759,-177.5 137.7261,-177.5 "/>
<text text-anchor="middle" x="72.751" y="-165.5" font-family="Helvetica,sans-Serif" font-size="10.00" fill="#000000"> </text>
<polyline fill="none" stroke="#000000" points="7.7759,-159.5 137.7261,-159.5 "/>
<text text-anchor="start" x="15.7759" y="-147.5" font-family="Helvetica,sans-Serif" font-size="10.00" fill="#000000">+ __construct()</text>
<text text-anchor="start" x="15.7759" y="-137.5" font-family="Helvetica,sans-Serif" font-size="10.00" fill="#000000">+ __call()</text>
<text text-anchor="start" x="15.7759" y="-127.5" font-family="Helvetica,sans-Serif" font-size="10.00" fill="#000000">+ useObjects()</text>
<text text-anchor="start" x="15.7759" y="-117.5" font-family="Helvetica,sans-Serif" font-size="10.00" fill="#000000"># stripNull()</text>
</a>
</g>
</g>
<!-- Node3&#45;&gt;Node2 -->
<g id="edge1" class="edge">
<title>Node3&#45;&gt;Node2</title>
<path fill="none" stroke="#191970" d="M72.751,-101.0572C72.751,-92.2275 72.751,-83.2244 72.751,-74.8766"/>
<polygon fill="none" stroke="#191970" points="69.2511,-101.2932 72.751,-111.2932 76.2511,-101.2932 69.2511,-101.2932"/>
</g>
</g>
</svg>
