<?xml version="1.0" encoding="UTF-8" standalone="no"?>
<!DOCTYPE svg PUBLIC "-//W3C//DTD SVG 1.1//EN"
 "http://www.w3.org/Graphics/SVG/1.1/DTD/svg11.dtd">
<!-- Generated by graphviz version 2.40.1 (20161225.0304)
 -->
<!-- Title: Google_IOException Pages: 1 -->
<svg width="116pt" height="245pt"
 viewBox="0.00 0.00 116.28 245.00" xmlns="http://www.w3.org/2000/svg" xmlns:xlink="http://www.w3.org/1999/xlink">
<g id="graph0" class="graph" transform="scale(1 1) rotate(0) translate(4 241)">
<title>Google_IOException</title>
<polygon fill="#ffffff" stroke="transparent" points="-4,4 -4,-241 112.2803,-241 112.2803,4 -4,4"/>
<!-- Node0 -->
<g id="node1" class="node">
<title>Node0</title>
<polygon fill="#bfbfbf" stroke="#000000" points="0,-.5 0,-54.5 108.2803,-54.5 108.2803,-.5 0,-.5"/>
<text text-anchor="middle" x="54.1401" y="-42.5" font-family="Helvetica,sans-Serif" font-size="10.00" fill="#000000">Google_IOException</text>
<polyline fill="none" stroke="#000000" points="0,-36.5 108.2803,-36.5 "/>
<text text-anchor="middle" x="54.1401" y="-24.5" font-family="Helvetica,sans-Serif" font-size="10.00" fill="#000000"> </text>
<polyline fill="none" stroke="#000000" points="0,-18.5 108.2803,-18.5 "/>
<text text-anchor="middle" x="54.1401" y="-6.5" font-family="Helvetica,sans-Serif" font-size="10.00" fill="#000000"> </text>
</g>
<!-- Node1 -->
<g id="node2" class="node">
<title>Node1</title>
<g id="a_node2"><a xlink:href="class_google___exception.html" target="_top" xlink:title="{Google_Exception\n||}">
<polygon fill="#ffffff" stroke="#000000" points="5.2783,-91.5 5.2783,-145.5 103.002,-145.5 103.002,-91.5 5.2783,-91.5"/>
<text text-anchor="middle" x="54.1401" y="-133.5" font-family="Helvetica,sans-Serif" font-size="10.00" fill="#000000">Google_Exception</text>
<polyline fill="none" stroke="#000000" points="5.2783,-127.5 103.002,-127.5 "/>
<text text-anchor="middle" x="54.1401" y="-115.5" font-family="Helvetica,sans-Serif" font-size="10.00" fill="#000000"> </text>
<polyline fill="none" stroke="#000000" points="5.2783,-109.5 103.002,-109.5 "/>
<text text-anchor="middle" x="54.1401" y="-97.5" font-family="Helvetica,sans-Serif" font-size="10.00" fill="#000000"> </text>
</a>
</g>
</g>
<!-- Node1&#45;&gt;Node0 -->
<g id="edge1" class="edge">
<title>Node1&#45;&gt;Node0</title>
<path fill="none" stroke="#191970" d="M54.1401,-81.12C54.1401,-72.3006 54.1401,-63.0605 54.1401,-54.7837"/>
<polygon fill="none" stroke="#191970" points="50.6402,-81.197 54.1401,-91.197 57.6402,-81.197 50.6402,-81.197"/>
</g>
<!-- Node2 -->
<g id="node3" class="node">
<title>Node2</title>
<polygon fill="#ffffff" stroke="#bfbfbf" points="24.1821,-182.5 24.1821,-236.5 84.0981,-236.5 84.0981,-182.5 24.1821,-182.5"/>
<text text-anchor="middle" x="54.1401" y="-224.5" font-family="Helvetica,sans-Serif" font-size="10.00" fill="#000000">Exception</text>
<polyline fill="none" stroke="#bfbfbf" points="24.1821,-218.5 84.0981,-218.5 "/>
<text text-anchor="middle" x="54.1401" y="-206.5" font-family="Helvetica,sans-Serif" font-size="10.00" fill="#000000"> </text>
<polyline fill="none" stroke="#bfbfbf" points="24.1821,-200.5 84.0981,-200.5 "/>
<text text-anchor="middle" x="54.1401" y="-188.5" font-family="Helvetica,sans-Serif" font-size="10.00" fill="#000000"> </text>
</g>
<!-- Node2&#45;&gt;Node1 -->
<g id="edge2" class="edge">
<title>Node2&#45;&gt;Node1</title>
<path fill="none" stroke="#191970" d="M54.1401,-172.12C54.1401,-163.3006 54.1401,-154.0605 54.1401,-145.7837"/>
<polygon fill="none" stroke="#191970" points="50.6402,-172.197 54.1401,-182.197 57.6402,-172.197 50.6402,-172.197"/>
</g>
</g>
</svg>
