<?xml version="1.0" encoding="UTF-8" standalone="no"?>
<!DOCTYPE svg PUBLIC "-//W3C//DTD SVG 1.1//EN"
 "http://www.w3.org/Graphics/SVG/1.1/DTD/svg11.dtd">
<!-- Generated by graphviz version 2.40.1 (20161225.0304)
 -->
<!-- Title: Google_LiveStreamStatus Pages: 1 -->
<svg width="141pt" height="204pt"
 viewBox="0.00 0.00 140.73 204.00" xmlns="http://www.w3.org/2000/svg" xmlns:xlink="http://www.w3.org/1999/xlink">
<g id="graph0" class="graph" transform="scale(1 1) rotate(0) translate(4 200)">
<title>Google_LiveStreamStatus</title>
<polygon fill="#ffffff" stroke="transparent" points="-4,4 -4,-200 136.7334,-200 136.7334,4 -4,4"/>
<!-- Node2 -->
<g id="node1" class="node">
<title>Node2</title>
<polygon fill="#bfbfbf" stroke="#000000" points="0,-.5 0,-64.5 132.7334,-64.5 132.7334,-.5 0,-.5"/>
<text text-anchor="middle" x="66.3667" y="-52.5" font-family="Helvetica,sans-Serif" font-size="10.00" fill="#000000">Google_LiveStreamStatus</text>
<polyline fill="none" stroke="#000000" points="0,-46.5 132.7334,-46.5 "/>
<text text-anchor="start" x="8" y="-34.5" font-family="Helvetica,sans-Serif" font-size="10.00" fill="#000000">+ $streamStatus</text>
<polyline fill="none" stroke="#000000" points="0,-28.5 132.7334,-28.5 "/>
<text text-anchor="start" x="8" y="-16.5" font-family="Helvetica,sans-Serif" font-size="10.00" fill="#000000">+ setStreamStatus()</text>
<text text-anchor="start" x="8" y="-6.5" font-family="Helvetica,sans-Serif" font-size="10.00" fill="#000000">+ getStreamStatus()</text>
</g>
<!-- Node3 -->
<g id="node2" class="node">
<title>Node3</title>
<g id="a_node2"><a xlink:href="class_google___model.html" target="_top" xlink:title="{Google_Model\n||+ __construct()\l+ assertIsArray()\l# mapTypes()\l# isAssociativeArray()\l# useObjects()\l}">
<polygon fill="#ffffff" stroke="#000000" points="10.022,-101.5 10.022,-195.5 122.7114,-195.5 122.7114,-101.5 10.022,-101.5"/>
<text text-anchor="middle" x="66.3667" y="-183.5" font-family="Helvetica,sans-Serif" font-size="10.00" fill="#000000">Google_Model</text>
<polyline fill="none" stroke="#000000" points="10.022,-177.5 122.7114,-177.5 "/>
<text text-anchor="middle" x="66.3667" y="-165.5" font-family="Helvetica,sans-Serif" font-size="10.00" fill="#000000"> </text>
<polyline fill="none" stroke="#000000" points="10.022,-159.5 122.7114,-159.5 "/>
<text text-anchor="start" x="18.022" y="-147.5" font-family="Helvetica,sans-Serif" font-size="10.00" fill="#000000">+ __construct()</text>
<text text-anchor="start" x="18.022" y="-137.5" font-family="Helvetica,sans-Serif" font-size="10.00" fill="#000000">+ assertIsArray()</text>
<text text-anchor="start" x="18.022" y="-127.5" font-family="Helvetica,sans-Serif" font-size="10.00" fill="#000000"># mapTypes()</text>
<text text-anchor="start" x="18.022" y="-117.5" font-family="Helvetica,sans-Serif" font-size="10.00" fill="#000000"># isAssociativeArray()</text>
<text text-anchor="start" x="18.022" y="-107.5" font-family="Helvetica,sans-Serif" font-size="10.00" fill="#000000"># useObjects()</text>
</a>
</g>
</g>
<!-- Node3&#45;&gt;Node2 -->
<g id="edge1" class="edge">
<title>Node3&#45;&gt;Node2</title>
<path fill="none" stroke="#191970" d="M66.3667,-91.1299C66.3667,-82.0561 66.3667,-72.9618 66.3667,-64.7354"/>
<polygon fill="none" stroke="#191970" points="62.8668,-91.3183 66.3667,-101.3184 69.8668,-91.3184 62.8668,-91.3183"/>
</g>
</g>
</svg>
