<?xml version="1.0" encoding="UTF-8" standalone="no"?>
<!DOCTYPE svg PUBLIC "-//W3C//DTD SVG 1.1//EN"
 "http://www.w3.org/Graphics/SVG/1.1/DTD/svg11.dtd">
<!-- Generated by graphviz version 2.40.1 (20161225.0304)
 -->
<!-- Title: Google_PurchasesServiceResource Pages: 1 -->
<svg width="185pt" height="194pt"
 viewBox="0.00 0.00 185.20 194.00" xmlns="http://www.w3.org/2000/svg" xmlns:xlink="http://www.w3.org/1999/xlink">
<g id="graph0" class="graph" transform="scale(1 1) rotate(0) translate(4 190)">
<title>Google_PurchasesServiceResource</title>
<polygon fill="#ffffff" stroke="transparent" points="-4,4 -4,-190 181.1963,-190 181.1963,4 -4,4"/>
<!-- Node0 -->
<g id="node1" class="node">
<title>Node0</title>
<polygon fill="#bfbfbf" stroke="#000000" points="0,-.5 0,-64.5 177.1963,-64.5 177.1963,-.5 0,-.5"/>
<text text-anchor="middle" x="88.5981" y="-52.5" font-family="Helvetica,sans-Serif" font-size="10.00" fill="#000000">Google_PurchasesServiceResource</text>
<polyline fill="none" stroke="#000000" points="0,-46.5 177.1963,-46.5 "/>
<text text-anchor="middle" x="88.5981" y="-34.5" font-family="Helvetica,sans-Serif" font-size="10.00" fill="#000000"> </text>
<polyline fill="none" stroke="#000000" points="0,-28.5 177.1963,-28.5 "/>
<text text-anchor="start" x="8" y="-16.5" font-family="Helvetica,sans-Serif" font-size="10.00" fill="#000000">+ cancel()</text>
<text text-anchor="start" x="8" y="-6.5" font-family="Helvetica,sans-Serif" font-size="10.00" fill="#000000">+ get()</text>
</g>
<!-- Node1 -->
<g id="node2" class="node">
<title>Node1</title>
<g id="a_node2"><a xlink:href="class_google___service_resource.html" target="_top" xlink:title="{Google_ServiceResource\n||+ __construct()\l+ __call()\l+ useObjects()\l# stripNull()\l}">
<polygon fill="#ffffff" stroke="#000000" points="23.623,-101.5 23.623,-185.5 153.5732,-185.5 153.5732,-101.5 23.623,-101.5"/>
<text text-anchor="middle" x="88.5981" y="-173.5" font-family="Helvetica,sans-Serif" font-size="10.00" fill="#000000">Google_ServiceResource</text>
<polyline fill="none" stroke="#000000" points="23.623,-167.5 153.5732,-167.5 "/>
<text text-anchor="middle" x="88.5981" y="-155.5" font-family="Helvetica,sans-Serif" font-size="10.00" fill="#000000"> </text>
<polyline fill="none" stroke="#000000" points="23.623,-149.5 153.5732,-149.5 "/>
<text text-anchor="start" x="31.623" y="-137.5" font-family="Helvetica,sans-Serif" font-size="10.00" fill="#000000">+ __construct()</text>
<text text-anchor="start" x="31.623" y="-127.5" font-family="Helvetica,sans-Serif" font-size="10.00" fill="#000000">+ __call()</text>
<text text-anchor="start" x="31.623" y="-117.5" font-family="Helvetica,sans-Serif" font-size="10.00" fill="#000000">+ useObjects()</text>
<text text-anchor="start" x="31.623" y="-107.5" font-family="Helvetica,sans-Serif" font-size="10.00" fill="#000000"># stripNull()</text>
</a>
</g>
</g>
<!-- Node1&#45;&gt;Node0 -->
<g id="edge1" class="edge">
<title>Node1&#45;&gt;Node0</title>
<path fill="none" stroke="#191970" d="M88.5981,-91.1185C88.5981,-82.0854 88.5981,-72.9418 88.5981,-64.6489"/>
<polygon fill="none" stroke="#191970" points="85.0982,-91.219 88.5981,-101.219 92.0982,-91.219 85.0982,-91.219"/>
</g>
</g>
</svg>
