<?xml version="1.0" encoding="UTF-8" standalone="no"?>
<!DOCTYPE svg PUBLIC "-//W3C//DTD SVG 1.1//EN"
 "http://www.w3.org/Graphics/SVG/1.1/DTD/svg11.dtd">
<!-- Generated by graphviz version 2.40.1 (20161225.0304)
 -->
<!-- Title: ECommentsListWidget Pages: 1 -->
<svg width="133pt" height="345pt"
 viewBox="0.00 0.00 133.23 345.00" xmlns="http://www.w3.org/2000/svg" xmlns:xlink="http://www.w3.org/1999/xlink">
<g id="graph0" class="graph" transform="scale(1 1) rotate(0) translate(4 341)">
<title>ECommentsListWidget</title>
<polygon fill="#ffffff" stroke="transparent" points="-4,4 -4,-341 129.2285,-341 129.2285,4 -4,4"/>
<!-- Node3 -->
<g id="node1" class="node">
<title>Node3</title>
<polygon fill="#bfbfbf" stroke="#000000" points="0,-.5 0,-84.5 125.2285,-84.5 125.2285,-.5 0,-.5"/>
<text text-anchor="middle" x="62.6143" y="-72.5" font-family="Helvetica,sans-Serif" font-size="10.00" fill="#000000">ECommentsListWidget</text>
<polyline fill="none" stroke="#000000" points="0,-66.5 125.2285,-66.5 "/>
<text text-anchor="start" x="8" y="-54.5" font-family="Helvetica,sans-Serif" font-size="10.00" fill="#000000">+ $showPopupForm</text>
<text text-anchor="start" x="8" y="-44.5" font-family="Helvetica,sans-Serif" font-size="10.00" fill="#000000">+ $allowSubcommenting</text>
<text text-anchor="start" x="8" y="-34.5" font-family="Helvetica,sans-Serif" font-size="10.00" fill="#000000">+ $adminMode</text>
<polyline fill="none" stroke="#000000" points="0,-28.5 125.2285,-28.5 "/>
<text text-anchor="start" x="8" y="-16.5" font-family="Helvetica,sans-Serif" font-size="10.00" fill="#000000">+ init()</text>
<text text-anchor="start" x="8" y="-6.5" font-family="Helvetica,sans-Serif" font-size="10.00" fill="#000000">+ run()</text>
</g>
<!-- Node4 -->
<g id="node2" class="node">
<title>Node4</title>
<g id="a_node2"><a xlink:href="class_e_comments_base_widget.html" target="_top" xlink:title="{ECommentsBaseWidget\n|+ $model\l+ $registeredOnly\l+ $useCaptcha\l+ $postCommentAction\l# $_config\l|+ init()\l# registerScripts()\l# createNewComment()\l# getOwnerPK()\l}">
<polygon fill="#ffffff" stroke="#000000" points=".1489,-121.5 .1489,-245.5 125.0796,-245.5 125.0796,-121.5 .1489,-121.5"/>
<text text-anchor="middle" x="62.6143" y="-233.5" font-family="Helvetica,sans-Serif" font-size="10.00" fill="#000000">ECommentsBaseWidget</text>
<polyline fill="none" stroke="#000000" points=".1489,-227.5 125.0796,-227.5 "/>
<text text-anchor="start" x="8.1489" y="-215.5" font-family="Helvetica,sans-Serif" font-size="10.00" fill="#000000">+ $model</text>
<text text-anchor="start" x="8.1489" y="-205.5" font-family="Helvetica,sans-Serif" font-size="10.00" fill="#000000">+ $registeredOnly</text>
<text text-anchor="start" x="8.1489" y="-195.5" font-family="Helvetica,sans-Serif" font-size="10.00" fill="#000000">+ $useCaptcha</text>
<text text-anchor="start" x="8.1489" y="-185.5" font-family="Helvetica,sans-Serif" font-size="10.00" fill="#000000">+ $postCommentAction</text>
<text text-anchor="start" x="8.1489" y="-175.5" font-family="Helvetica,sans-Serif" font-size="10.00" fill="#000000"># $_config</text>
<polyline fill="none" stroke="#000000" points=".1489,-169.5 125.0796,-169.5 "/>
<text text-anchor="start" x="8.1489" y="-157.5" font-family="Helvetica,sans-Serif" font-size="10.00" fill="#000000">+ init()</text>
<text text-anchor="start" x="8.1489" y="-147.5" font-family="Helvetica,sans-Serif" font-size="10.00" fill="#000000"># registerScripts()</text>
<text text-anchor="start" x="8.1489" y="-137.5" font-family="Helvetica,sans-Serif" font-size="10.00" fill="#000000"># createNewComment()</text>
<text text-anchor="start" x="8.1489" y="-127.5" font-family="Helvetica,sans-Serif" font-size="10.00" fill="#000000"># getOwnerPK()</text>
</a>
</g>
</g>
<!-- Node4&#45;&gt;Node3 -->
<g id="edge1" class="edge">
<title>Node4&#45;&gt;Node3</title>
<path fill="none" stroke="#191970" d="M62.6143,-111.0326C62.6143,-101.9755 62.6143,-92.9617 62.6143,-84.5898"/>
<polygon fill="none" stroke="#191970" points="59.1144,-111.2449 62.6143,-121.2449 66.1144,-111.2449 59.1144,-111.2449"/>
</g>
<!-- Node5 -->
<g id="node3" class="node">
<title>Node5</title>
<polygon fill="#ffffff" stroke="#bfbfbf" points="29.0503,-282.5 29.0503,-336.5 96.1782,-336.5 96.1782,-282.5 29.0503,-282.5"/>
<text text-anchor="middle" x="62.6143" y="-324.5" font-family="Helvetica,sans-Serif" font-size="10.00" fill="#000000">CJuiWidget</text>
<polyline fill="none" stroke="#bfbfbf" points="29.0503,-318.5 96.1782,-318.5 "/>
<text text-anchor="middle" x="62.6143" y="-306.5" font-family="Helvetica,sans-Serif" font-size="10.00" fill="#000000"> </text>
<polyline fill="none" stroke="#bfbfbf" points="29.0503,-300.5 96.1782,-300.5 "/>
<text text-anchor="middle" x="62.6143" y="-288.5" font-family="Helvetica,sans-Serif" font-size="10.00" fill="#000000"> </text>
</g>
<!-- Node5&#45;&gt;Node4 -->
<g id="edge2" class="edge">
<title>Node5&#45;&gt;Node4</title>
<path fill="none" stroke="#191970" d="M62.6143,-272.3011C62.6143,-263.9169 62.6143,-254.7957 62.6143,-245.6969"/>
<polygon fill="none" stroke="#191970" points="59.1144,-272.4698 62.6143,-282.4698 66.1144,-272.4699 59.1144,-272.4698"/>
</g>
</g>
</svg>
