<?xml version="1.0" encoding="UTF-8" standalone="no"?>
<!DOCTYPE svg PUBLIC "-//W3C//DTD SVG 1.1//EN"
 "http://www.w3.org/Graphics/SVG/1.1/DTD/svg11.dtd">
<!-- Generated by graphviz version 2.40.1 (20161225.0304)
 -->
<!-- Title: MediaElementPortlet Pages: 1 -->
<svg width="131pt" height="294pt"
 viewBox="0.00 0.00 130.72 294.00" xmlns="http://www.w3.org/2000/svg" xmlns:xlink="http://www.w3.org/1999/xlink">
<g id="graph0" class="graph" transform="scale(1 1) rotate(0) translate(4 290)">
<title>MediaElementPortlet</title>
<polygon fill="#ffffff" stroke="transparent" points="-4,4 -4,-290 126.7236,-290 126.7236,4 -4,4"/>
<!-- Node0 -->
<g id="node1" class="node">
<title>Node0</title>
<polygon fill="#bfbfbf" stroke="#000000" points="0,-.5 0,-194.5 122.7236,-194.5 122.7236,-.5 0,-.5"/>
<text text-anchor="middle" x="61.3618" y="-182.5" font-family="Helvetica,sans-Serif" font-size="10.00" fill="#000000">MediaElementPortlet</text>
<polyline fill="none" stroke="#000000" points="0,-176.5 122.7236,-176.5 "/>
<text text-anchor="start" x="8" y="-164.5" font-family="Helvetica,sans-Serif" font-size="10.00" fill="#000000">+ $attribute</text>
<text text-anchor="start" x="8" y="-154.5" font-family="Helvetica,sans-Serif" font-size="10.00" fill="#000000">+ $model</text>
<text text-anchor="start" x="8" y="-144.5" font-family="Helvetica,sans-Serif" font-size="10.00" fill="#000000">+ $url</text>
<text text-anchor="start" x="8" y="-134.5" font-family="Helvetica,sans-Serif" font-size="10.00" fill="#000000">+ $mimeType</text>
<text text-anchor="start" x="8" y="-124.5" font-family="Helvetica,sans-Serif" font-size="10.00" fill="#000000">+ $mediaType</text>
<text text-anchor="start" x="8" y="-114.5" font-family="Helvetica,sans-Serif" font-size="10.00" fill="#000000">+ $autoplay</text>
<text text-anchor="start" x="8" y="-104.5" font-family="Helvetica,sans-Serif" font-size="10.00" fill="#000000">+ $htmlOptions</text>
<text text-anchor="start" x="8" y="-94.5" font-family="Helvetica,sans-Serif" font-size="10.00" fill="#000000">+ $scriptUrl</text>
<text text-anchor="start" x="8" y="-84.5" font-family="Helvetica,sans-Serif" font-size="10.00" fill="#000000">+ $scriptFile</text>
<text text-anchor="start" x="8" y="-74.5" font-family="Helvetica,sans-Serif" font-size="10.00" fill="#000000">+ $cssFile</text>
<polyline fill="none" stroke="#000000" points="0,-68.5 122.7236,-68.5 "/>
<text text-anchor="start" x="8" y="-56.5" font-family="Helvetica,sans-Serif" font-size="10.00" fill="#000000">+ init()</text>
<text text-anchor="start" x="8" y="-46.5" font-family="Helvetica,sans-Serif" font-size="10.00" fill="#000000">+ run()</text>
<text text-anchor="start" x="8" y="-36.5" font-family="Helvetica,sans-Serif" font-size="10.00" fill="#000000"># registerScriptFile()</text>
<text text-anchor="start" x="8" y="-26.5" font-family="Helvetica,sans-Serif" font-size="10.00" fill="#000000"># registerCssFile()</text>
<text text-anchor="start" x="8" y="-16.5" font-family="Helvetica,sans-Serif" font-size="10.00" fill="#000000"># resolvePackagePath()</text>
<text text-anchor="start" x="8" y="-6.5" font-family="Helvetica,sans-Serif" font-size="10.00" fill="#000000"># registerCoreScripts()</text>
</g>
<!-- Node1 -->
<g id="node2" class="node">
<title>Node1</title>
<polygon fill="#ffffff" stroke="#bfbfbf" points="35.3003,-231.5 35.3003,-285.5 87.4233,-285.5 87.4233,-231.5 35.3003,-231.5"/>
<text text-anchor="middle" x="61.3618" y="-273.5" font-family="Helvetica,sans-Serif" font-size="10.00" fill="#000000">CPortlet</text>
<polyline fill="none" stroke="#bfbfbf" points="35.3003,-267.5 87.4233,-267.5 "/>
<text text-anchor="middle" x="61.3618" y="-255.5" font-family="Helvetica,sans-Serif" font-size="10.00" fill="#000000"> </text>
<polyline fill="none" stroke="#bfbfbf" points="35.3003,-249.5 87.4233,-249.5 "/>
<text text-anchor="middle" x="61.3618" y="-237.5" font-family="Helvetica,sans-Serif" font-size="10.00" fill="#000000"> </text>
</g>
<!-- Node1&#45;&gt;Node0 -->
<g id="edge1" class="edge">
<title>Node1&#45;&gt;Node0</title>
<path fill="none" stroke="#191970" d="M61.3618,-221.0295C61.3618,-212.9055 61.3618,-203.9536 61.3618,-194.6933"/>
<polygon fill="none" stroke="#191970" points="57.8619,-221.1885 61.3618,-231.1885 64.8619,-221.1886 57.8619,-221.1885"/>
</g>
</g>
</svg>
