<?xml version="1.0" encoding="UTF-8" standalone="no"?>
<!DOCTYPE svg PUBLIC "-//W3C//DTD SVG 1.1//EN"
 "http://www.w3.org/Graphics/SVG/1.1/DTD/svg11.dtd">
<!-- Generated by graphviz version 2.40.1 (20161225.0304)
 -->
<!-- Title: Google_UsersServiceResource Pages: 1 -->
<svg width="164pt" height="264pt"
 viewBox="0.00 0.00 164.06 264.00" xmlns="http://www.w3.org/2000/svg" xmlns:xlink="http://www.w3.org/1999/xlink">
<g id="graph0" class="graph" transform="scale(1 1) rotate(0) translate(4 260)">
<title>Google_UsersServiceResource</title>
<polygon fill="#ffffff" stroke="transparent" points="-4,4 -4,-260 160.0635,-260 160.0635,4 -4,4"/>
<!-- Node2 -->
<g id="node1" class="node">
<title>Node2</title>
<polygon fill="#bfbfbf" stroke="#000000" points="0,-.5 0,-134.5 156.0635,-134.5 156.0635,-.5 0,-.5"/>
<text text-anchor="middle" x="78.0317" y="-122.5" font-family="Helvetica,sans-Serif" font-size="10.00" fill="#000000">Google_UsersServiceResource</text>
<polyline fill="none" stroke="#000000" points="0,-116.5 156.0635,-116.5 "/>
<text text-anchor="middle" x="78.0317" y="-104.5" font-family="Helvetica,sans-Serif" font-size="10.00" fill="#000000"> </text>
<polyline fill="none" stroke="#000000" points="0,-98.5 156.0635,-98.5 "/>
<text text-anchor="start" x="8" y="-86.5" font-family="Helvetica,sans-Serif" font-size="10.00" fill="#000000">+ get()</text>
<text text-anchor="start" x="8" y="-76.5" font-family="Helvetica,sans-Serif" font-size="10.00" fill="#000000">+ delete()</text>
<text text-anchor="start" x="8" y="-66.5" font-family="Helvetica,sans-Serif" font-size="10.00" fill="#000000">+ get()</text>
<text text-anchor="start" x="8" y="-56.5" font-family="Helvetica,sans-Serif" font-size="10.00" fill="#000000">+ insert()</text>
<text text-anchor="start" x="8" y="-46.5" font-family="Helvetica,sans-Serif" font-size="10.00" fill="#000000">+ listUsers()</text>
<text text-anchor="start" x="8" y="-36.5" font-family="Helvetica,sans-Serif" font-size="10.00" fill="#000000">+ makeAdmin()</text>
<text text-anchor="start" x="8" y="-26.5" font-family="Helvetica,sans-Serif" font-size="10.00" fill="#000000">+ patch()</text>
<text text-anchor="start" x="8" y="-16.5" font-family="Helvetica,sans-Serif" font-size="10.00" fill="#000000">+ undelete()</text>
<text text-anchor="start" x="8" y="-6.5" font-family="Helvetica,sans-Serif" font-size="10.00" fill="#000000">+ update()</text>
</g>
<!-- Node3 -->
<g id="node2" class="node">
<title>Node3</title>
<g id="a_node2"><a xlink:href="class_google___service_resource.html" target="_top" xlink:title="{Google_ServiceResource\n||+ __construct()\l+ __call()\l+ useObjects()\l# stripNull()\l}">
<polygon fill="#ffffff" stroke="#000000" points="13.0566,-171.5 13.0566,-255.5 143.0068,-255.5 143.0068,-171.5 13.0566,-171.5"/>
<text text-anchor="middle" x="78.0317" y="-243.5" font-family="Helvetica,sans-Serif" font-size="10.00" fill="#000000">Google_ServiceResource</text>
<polyline fill="none" stroke="#000000" points="13.0566,-237.5 143.0068,-237.5 "/>
<text text-anchor="middle" x="78.0317" y="-225.5" font-family="Helvetica,sans-Serif" font-size="10.00" fill="#000000"> </text>
<polyline fill="none" stroke="#000000" points="13.0566,-219.5 143.0068,-219.5 "/>
<text text-anchor="start" x="21.0566" y="-207.5" font-family="Helvetica,sans-Serif" font-size="10.00" fill="#000000">+ __construct()</text>
<text text-anchor="start" x="21.0566" y="-197.5" font-family="Helvetica,sans-Serif" font-size="10.00" fill="#000000">+ __call()</text>
<text text-anchor="start" x="21.0566" y="-187.5" font-family="Helvetica,sans-Serif" font-size="10.00" fill="#000000">+ useObjects()</text>
<text text-anchor="start" x="21.0566" y="-177.5" font-family="Helvetica,sans-Serif" font-size="10.00" fill="#000000"># stripNull()</text>
</a>
</g>
</g>
<!-- Node3&#45;&gt;Node2 -->
<g id="edge1" class="edge">
<title>Node3&#45;&gt;Node2</title>
<path fill="none" stroke="#191970" d="M71.5256,-161.0637C71.3174,-152.4995 71.2425,-143.5242 71.3009,-134.6643"/>
<polygon fill="none" stroke="#191970" points="68.0339,-161.3854 71.8457,-171.2708 75.0305,-161.1659 68.0339,-161.3854"/>
</g>
<!-- Node3&#45;&gt;Node2 -->
<g id="edge2" class="edge">
<title>Node3&#45;&gt;Node2</title>
<path fill="none" stroke="#191970" d="M84.5378,-161.0637C84.7461,-152.4995 84.821,-143.5242 84.7625,-134.6643"/>
<polygon fill="none" stroke="#191970" points="81.033,-161.1659 84.2177,-171.2708 88.0296,-161.3854 81.033,-161.1659"/>
</g>
</g>
</svg>
