<?xml version="1.0" encoding="UTF-8" standalone="no"?>
<!DOCTYPE svg PUBLIC "-//W3C//DTD SVG 1.1//EN"
 "http://www.w3.org/Graphics/SVG/1.1/DTD/svg11.dtd">
<!-- Generated by graphviz version 2.40.1 (20161225.0304)
 -->
<!-- Title: Swift_Encoder_Base64Encoder Pages: 1 -->
<svg width="314pt" height="366pt"
 viewBox="0.00 0.00 314.39 366.00" xmlns="http://www.w3.org/2000/svg" xmlns:xlink="http://www.w3.org/1999/xlink">
<g id="graph0" class="graph" transform="scale(1 1) rotate(0) translate(4 362)">
<title>Swift_Encoder_Base64Encoder</title>
<polygon fill="#ffffff" stroke="transparent" points="-4,4 -4,-362 310.3936,-362 310.3936,4 -4,4"/>
<!-- Node0 -->
<g id="node1" class="node">
<title>Node0</title>
<polygon fill="#bfbfbf" stroke="#000000" points="75.1528,-111.5 75.1528,-175.5 232.354,-175.5 232.354,-111.5 75.1528,-111.5"/>
<text text-anchor="middle" x="153.7534" y="-163.5" font-family="Helvetica,sans-Serif" font-size="10.00" fill="#000000">Swift_Encoder_Base64Encoder</text>
<polyline fill="none" stroke="#000000" points="75.1528,-157.5 232.354,-157.5 "/>
<text text-anchor="middle" x="153.7534" y="-145.5" font-family="Helvetica,sans-Serif" font-size="10.00" fill="#000000"> </text>
<polyline fill="none" stroke="#000000" points="75.1528,-139.5 232.354,-139.5 "/>
<text text-anchor="start" x="83.1528" y="-127.5" font-family="Helvetica,sans-Serif" font-size="10.00" fill="#000000">+ encodeString()</text>
<text text-anchor="start" x="83.1528" y="-117.5" font-family="Helvetica,sans-Serif" font-size="10.00" fill="#000000">+ charsetChanged()</text>
</g>
<!-- Node3 -->
<g id="node4" class="node">
<title>Node3</title>
<g id="a_node4"><a xlink:href="class_swift___mime___content_encoder___base64_content_encoder.html" target="_top" xlink:title="{Swift_Mime_ContentEncoder\l_Base64ContentEncoder\n||+ encodeByteStream()\l+ getName()\l}">
<polygon fill="#ffffff" stroke="#000000" points="0,-.5 0,-74.5 145.5068,-74.5 145.5068,-.5 0,-.5"/>
<text text-anchor="start" x="8" y="-62.5" font-family="Helvetica,sans-Serif" font-size="10.00" fill="#000000">Swift_Mime_ContentEncoder</text>
<text text-anchor="middle" x="72.7534" y="-52.5" font-family="Helvetica,sans-Serif" font-size="10.00" fill="#000000">_Base64ContentEncoder</text>
<polyline fill="none" stroke="#000000" points="0,-46.5 145.5068,-46.5 "/>
<text text-anchor="middle" x="72.7534" y="-34.5" font-family="Helvetica,sans-Serif" font-size="10.00" fill="#000000"> </text>
<polyline fill="none" stroke="#000000" points="0,-28.5 145.5068,-28.5 "/>
<text text-anchor="start" x="8" y="-16.5" font-family="Helvetica,sans-Serif" font-size="10.00" fill="#000000">+ encodeByteStream()</text>
<text text-anchor="start" x="8" y="-6.5" font-family="Helvetica,sans-Serif" font-size="10.00" fill="#000000">+ getName()</text>
</a>
</g>
</g>
<!-- Node0&#45;&gt;Node3 -->
<g id="edge3" class="edge">
<title>Node0&#45;&gt;Node3</title>
<path fill="none" stroke="#191970" d="M123.0558,-103.3278C115.8727,-93.9277 108.2519,-83.9548 101.1731,-74.6912"/>
<polygon fill="none" stroke="#191970" points="120.3782,-105.5882 129.2309,-111.4088 125.9402,-101.338 120.3782,-105.5882"/>
</g>
<!-- Node4 -->
<g id="node5" class="node">
<title>Node4</title>
<g id="a_node5"><a xlink:href="class_swift___mime___header_encoder___base64_header_encoder.html" target="_top" xlink:title="{Swift_Mime_HeaderEncoder\l_Base64HeaderEncoder\n||+ getName()\l}">
<polygon fill="#ffffff" stroke="#000000" points="163.1133,-5.5 163.1133,-69.5 306.3936,-69.5 306.3936,-5.5 163.1133,-5.5"/>
<text text-anchor="start" x="171.1133" y="-57.5" font-family="Helvetica,sans-Serif" font-size="10.00" fill="#000000">Swift_Mime_HeaderEncoder</text>
<text text-anchor="middle" x="234.7534" y="-47.5" font-family="Helvetica,sans-Serif" font-size="10.00" fill="#000000">_Base64HeaderEncoder</text>
<polyline fill="none" stroke="#000000" points="163.1133,-41.5 306.3936,-41.5 "/>
<text text-anchor="middle" x="234.7534" y="-29.5" font-family="Helvetica,sans-Serif" font-size="10.00" fill="#000000"> </text>
<polyline fill="none" stroke="#000000" points="163.1133,-23.5 306.3936,-23.5 "/>
<text text-anchor="start" x="171.1133" y="-11.5" font-family="Helvetica,sans-Serif" font-size="10.00" fill="#000000">+ getName()</text>
</a>
</g>
</g>
<!-- Node0&#45;&gt;Node4 -->
<g id="edge4" class="edge">
<title>Node0&#45;&gt;Node4</title>
<path fill="none" stroke="#191970" d="M184.5725,-103.1688C192.9918,-92.151 202.0039,-80.3574 210.0347,-69.8479"/>
<polygon fill="none" stroke="#191970" points="181.5667,-101.338 178.2759,-111.4088 187.1287,-105.5882 181.5667,-101.338"/>
</g>
<!-- Node1 -->
<g id="node2" class="node">
<title>Node1</title>
<g id="a_node2"><a xlink:href="interface_swift___encoder.html" target="_top" xlink:title="{Swift_Encoder\n||+ encodeString()\l}">
<polygon fill="#ffffff" stroke="#000000" points="108.6489,-212.5 108.6489,-266.5 198.8579,-266.5 198.8579,-212.5 108.6489,-212.5"/>
<text text-anchor="middle" x="153.7534" y="-254.5" font-family="Helvetica,sans-Serif" font-size="10.00" fill="#000000">Swift_Encoder</text>
<polyline fill="none" stroke="#000000" points="108.6489,-248.5 198.8579,-248.5 "/>
<text text-anchor="middle" x="153.7534" y="-236.5" font-family="Helvetica,sans-Serif" font-size="10.00" fill="#000000"> </text>
<polyline fill="none" stroke="#000000" points="108.6489,-230.5 198.8579,-230.5 "/>
<text text-anchor="start" x="116.6489" y="-218.5" font-family="Helvetica,sans-Serif" font-size="10.00" fill="#000000">+ encodeString()</text>
</a>
</g>
</g>
<!-- Node1&#45;&gt;Node0 -->
<g id="edge1" class="edge">
<title>Node1&#45;&gt;Node0</title>
<path fill="none" stroke="#191970" d="M153.7534,-202.2276C153.7534,-193.4295 153.7534,-184.1248 153.7534,-175.5792"/>
<polygon fill="none" stroke="#191970" points="150.2535,-202.247 153.7534,-212.247 157.2535,-202.2471 150.2535,-202.247"/>
</g>
<!-- Node2 -->
<g id="node3" class="node">
<title>Node2</title>
<g id="a_node3"><a xlink:href="interface_swift___mime___charset_observer.html" target="_top" xlink:title="{Swift_Mime_CharsetObserver\n||+ charsetChanged()\l}">
<polygon fill="#ffffff" stroke="#000000" points="79.0664,-303.5 79.0664,-357.5 228.4404,-357.5 228.4404,-303.5 79.0664,-303.5"/>
<text text-anchor="middle" x="153.7534" y="-345.5" font-family="Helvetica,sans-Serif" font-size="10.00" fill="#000000">Swift_Mime_CharsetObserver</text>
<polyline fill="none" stroke="#000000" points="79.0664,-339.5 228.4404,-339.5 "/>
<text text-anchor="middle" x="153.7534" y="-327.5" font-family="Helvetica,sans-Serif" font-size="10.00" fill="#000000"> </text>
<polyline fill="none" stroke="#000000" points="79.0664,-321.5 228.4404,-321.5 "/>
<text text-anchor="start" x="87.0664" y="-309.5" font-family="Helvetica,sans-Serif" font-size="10.00" fill="#000000">+ charsetChanged()</text>
</a>
</g>
</g>
<!-- Node2&#45;&gt;Node1 -->
<g id="edge2" class="edge">
<title>Node2&#45;&gt;Node1</title>
<path fill="none" stroke="#191970" d="M153.7534,-293.12C153.7534,-284.3006 153.7534,-275.0605 153.7534,-266.7837"/>
<polygon fill="none" stroke="#191970" points="150.2535,-293.197 153.7534,-303.197 157.2535,-293.197 150.2535,-293.197"/>
</g>
</g>
</svg>
