<?xml version="1.0" encoding="UTF-8" standalone="no"?>
<!DOCTYPE svg PUBLIC "-//W3C//DTD SVG 1.1//EN"
 "http://www.w3.org/Graphics/SVG/1.1/DTD/svg11.dtd">
<!-- Generated by graphviz version 2.40.1 (20161225.0304)
 -->
<!-- Title: Swift_Events_EventObject Pages: 1 -->
<svg width="142pt" height="204pt"
 viewBox="0.00 0.00 141.84 204.00" xmlns="http://www.w3.org/2000/svg" xmlns:xlink="http://www.w3.org/1999/xlink">
<g id="graph0" class="graph" transform="scale(1 1) rotate(0) translate(4 200)">
<title>Swift_Events_EventObject</title>
<polygon fill="#ffffff" stroke="transparent" points="-4,4 -4,-200 137.8369,-200 137.8369,4 -4,4"/>
<!-- Node7 -->
<g id="node1" class="node">
<title>Node7</title>
<polygon fill="#bfbfbf" stroke="#000000" points="0,-.5 0,-84.5 133.8369,-84.5 133.8369,-.5 0,-.5"/>
<text text-anchor="middle" x="66.9185" y="-72.5" font-family="Helvetica,sans-Serif" font-size="10.00" fill="#000000">Swift_Events_EventObject</text>
<polyline fill="none" stroke="#000000" points="0,-66.5 133.8369,-66.5 "/>
<text text-anchor="middle" x="66.9185" y="-54.5" font-family="Helvetica,sans-Serif" font-size="10.00" fill="#000000"> </text>
<polyline fill="none" stroke="#000000" points="0,-48.5 133.8369,-48.5 "/>
<text text-anchor="start" x="8" y="-36.5" font-family="Helvetica,sans-Serif" font-size="10.00" fill="#000000">+ __construct()</text>
<text text-anchor="start" x="8" y="-26.5" font-family="Helvetica,sans-Serif" font-size="10.00" fill="#000000">+ getSource()</text>
<text text-anchor="start" x="8" y="-16.5" font-family="Helvetica,sans-Serif" font-size="10.00" fill="#000000">+ cancelBubble()</text>
<text text-anchor="start" x="8" y="-6.5" font-family="Helvetica,sans-Serif" font-size="10.00" fill="#000000">+ bubbleCancelled()</text>
</g>
<!-- Node8 -->
<g id="node2" class="node">
<title>Node8</title>
<g id="a_node2"><a xlink:href="interface_swift___events___event.html" target="_top" xlink:title="{Swift_Events_Event\n||+ getSource()\l+ cancelBubble()\l+ bubbleCancelled()\l}">
<polygon fill="#ffffff" stroke="#000000" points="14.0283,-121.5 14.0283,-195.5 119.8086,-195.5 119.8086,-121.5 14.0283,-121.5"/>
<text text-anchor="middle" x="66.9185" y="-183.5" font-family="Helvetica,sans-Serif" font-size="10.00" fill="#000000">Swift_Events_Event</text>
<polyline fill="none" stroke="#000000" points="14.0283,-177.5 119.8086,-177.5 "/>
<text text-anchor="middle" x="66.9185" y="-165.5" font-family="Helvetica,sans-Serif" font-size="10.00" fill="#000000"> </text>
<polyline fill="none" stroke="#000000" points="14.0283,-159.5 119.8086,-159.5 "/>
<text text-anchor="start" x="22.0283" y="-147.5" font-family="Helvetica,sans-Serif" font-size="10.00" fill="#000000">+ getSource()</text>
<text text-anchor="start" x="22.0283" y="-137.5" font-family="Helvetica,sans-Serif" font-size="10.00" fill="#000000">+ cancelBubble()</text>
<text text-anchor="start" x="22.0283" y="-127.5" font-family="Helvetica,sans-Serif" font-size="10.00" fill="#000000">+ bubbleCancelled()</text>
</a>
</g>
</g>
<!-- Node8&#45;&gt;Node7 -->
<g id="edge1" class="edge">
<title>Node8&#45;&gt;Node7</title>
<path fill="none" stroke="#191970" d="M66.9185,-111.3716C66.9185,-102.5842 66.9185,-93.4515 66.9185,-84.8197"/>
<polygon fill="none" stroke="#191970" points="63.4186,-111.4779 66.9185,-121.4779 70.4186,-111.478 63.4186,-111.4779"/>
</g>
</g>
</svg>
