<?xml version="1.0" encoding="UTF-8" standalone="no"?>
<!DOCTYPE svg PUBLIC "-//W3C//DTD SVG 1.1//EN"
 "http://www.w3.org/Graphics/SVG/1.1/DTD/svg11.dtd">
<!-- Generated by graphviz version 2.40.1 (20161225.0304)
 -->
<!-- Title: Google_AdStyleFont Pages: 1 -->
<svg width="121pt" height="274pt"
 viewBox="0.00 0.00 120.69 274.00" xmlns="http://www.w3.org/2000/svg" xmlns:xlink="http://www.w3.org/1999/xlink">
<g id="graph0" class="graph" transform="scale(1 1) rotate(0) translate(4 270)">
<title>Google_AdStyleFont</title>
<polygon fill="#ffffff" stroke="transparent" points="-4,4 -4,-270 116.6895,-270 116.6895,4 -4,4"/>
<!-- Node0 -->
<g id="node1" class="node">
<title>Node0</title>
<polygon fill="#bfbfbf" stroke="#000000" points="2.2046,-.5 2.2046,-134.5 110.4849,-134.5 110.4849,-.5 2.2046,-.5"/>
<text text-anchor="middle" x="56.3447" y="-122.5" font-family="Helvetica,sans-Serif" font-size="10.00" fill="#000000">Google_AdStyleFont</text>
<polyline fill="none" stroke="#000000" points="2.2046,-116.5 110.4849,-116.5 "/>
<text text-anchor="start" x="10.2046" y="-104.5" font-family="Helvetica,sans-Serif" font-size="10.00" fill="#000000">+ $family</text>
<text text-anchor="start" x="10.2046" y="-94.5" font-family="Helvetica,sans-Serif" font-size="10.00" fill="#000000">+ $size</text>
<polyline fill="none" stroke="#000000" points="2.2046,-88.5 110.4849,-88.5 "/>
<text text-anchor="start" x="10.2046" y="-76.5" font-family="Helvetica,sans-Serif" font-size="10.00" fill="#000000">+ setFamily()</text>
<text text-anchor="start" x="10.2046" y="-66.5" font-family="Helvetica,sans-Serif" font-size="10.00" fill="#000000">+ getFamily()</text>
<text text-anchor="start" x="10.2046" y="-56.5" font-family="Helvetica,sans-Serif" font-size="10.00" fill="#000000">+ setSize()</text>
<text text-anchor="start" x="10.2046" y="-46.5" font-family="Helvetica,sans-Serif" font-size="10.00" fill="#000000">+ getSize()</text>
<text text-anchor="start" x="10.2046" y="-36.5" font-family="Helvetica,sans-Serif" font-size="10.00" fill="#000000">+ setFamily()</text>
<text text-anchor="start" x="10.2046" y="-26.5" font-family="Helvetica,sans-Serif" font-size="10.00" fill="#000000">+ getFamily()</text>
<text text-anchor="start" x="10.2046" y="-16.5" font-family="Helvetica,sans-Serif" font-size="10.00" fill="#000000">+ setSize()</text>
<text text-anchor="start" x="10.2046" y="-6.5" font-family="Helvetica,sans-Serif" font-size="10.00" fill="#000000">+ getSize()</text>
</g>
<!-- Node1 -->
<g id="node2" class="node">
<title>Node1</title>
<g id="a_node2"><a xlink:href="class_google___model.html" target="_top" xlink:title="{Google_Model\n||+ __construct()\l+ assertIsArray()\l# mapTypes()\l# isAssociativeArray()\l# useObjects()\l}">
<polygon fill="#ffffff" stroke="#000000" points="0,-171.5 0,-265.5 112.6895,-265.5 112.6895,-171.5 0,-171.5"/>
<text text-anchor="middle" x="56.3447" y="-253.5" font-family="Helvetica,sans-Serif" font-size="10.00" fill="#000000">Google_Model</text>
<polyline fill="none" stroke="#000000" points="0,-247.5 112.6895,-247.5 "/>
<text text-anchor="middle" x="56.3447" y="-235.5" font-family="Helvetica,sans-Serif" font-size="10.00" fill="#000000"> </text>
<polyline fill="none" stroke="#000000" points="0,-229.5 112.6895,-229.5 "/>
<text text-anchor="start" x="8" y="-217.5" font-family="Helvetica,sans-Serif" font-size="10.00" fill="#000000">+ __construct()</text>
<text text-anchor="start" x="8" y="-207.5" font-family="Helvetica,sans-Serif" font-size="10.00" fill="#000000">+ assertIsArray()</text>
<text text-anchor="start" x="8" y="-197.5" font-family="Helvetica,sans-Serif" font-size="10.00" fill="#000000"># mapTypes()</text>
<text text-anchor="start" x="8" y="-187.5" font-family="Helvetica,sans-Serif" font-size="10.00" fill="#000000"># isAssociativeArray()</text>
<text text-anchor="start" x="8" y="-177.5" font-family="Helvetica,sans-Serif" font-size="10.00" fill="#000000"># useObjects()</text>
</a>
</g>
</g>
<!-- Node1&#45;&gt;Node0 -->
<g id="edge1" class="edge">
<title>Node1&#45;&gt;Node0</title>
<path fill="none" stroke="#191970" d="M49.7655,-160.8599C49.5985,-152.2753 49.554,-143.3638 49.632,-134.605"/>
<polygon fill="none" stroke="#191970" points="46.2737,-161.2303 50.0299,-171.137 53.2714,-161.0502 46.2737,-161.2303"/>
</g>
<!-- Node1&#45;&gt;Node0 -->
<g id="edge2" class="edge">
<title>Node1&#45;&gt;Node0</title>
<path fill="none" stroke="#191970" d="M62.924,-160.8599C63.091,-152.2753 63.1355,-143.3638 63.0575,-134.605"/>
<polygon fill="none" stroke="#191970" points="59.418,-161.0502 62.6596,-171.137 66.4157,-161.2303 59.418,-161.0502"/>
</g>
</g>
</svg>
