<?xml version="1.0" encoding="UTF-8" standalone="no"?>
<!DOCTYPE svg PUBLIC "-//W3C//DTD SVG 1.1//EN"
 "http://www.w3.org/Graphics/SVG/1.1/DTD/svg11.dtd">
<!-- Generated by graphviz version 2.40.1 (20161225.0304)
 -->
<!-- Title: Google_PagespeedonlineService Pages: 1 -->
<svg width="172pt" height="174pt"
 viewBox="0.00 0.00 172.44 174.00" xmlns="http://www.w3.org/2000/svg" xmlns:xlink="http://www.w3.org/1999/xlink">
<g id="graph0" class="graph" transform="scale(1 1) rotate(0) translate(4 170)">
<title>Google_PagespeedonlineService</title>
<polygon fill="#ffffff" stroke="transparent" points="-4,4 -4,-170 168.4424,-170 168.4424,4 -4,4"/>
<!-- Node2 -->
<g id="node1" class="node">
<title>Node2</title>
<polygon fill="#bfbfbf" stroke="#000000" points="0,-.5 0,-54.5 164.4424,-54.5 164.4424,-.5 0,-.5"/>
<text text-anchor="middle" x="82.2212" y="-42.5" font-family="Helvetica,sans-Serif" font-size="10.00" fill="#000000">Google_PagespeedonlineService</text>
<polyline fill="none" stroke="#000000" points="0,-36.5 164.4424,-36.5 "/>
<text text-anchor="start" x="8" y="-24.5" font-family="Helvetica,sans-Serif" font-size="10.00" fill="#000000">+ $pagespeedapi</text>
<polyline fill="none" stroke="#000000" points="0,-18.5 164.4424,-18.5 "/>
<text text-anchor="start" x="8" y="-6.5" font-family="Helvetica,sans-Serif" font-size="10.00" fill="#000000">+ __construct()</text>
</g>
<!-- Node3 -->
<g id="node2" class="node">
<title>Node3</title>
<g id="a_node2"><a xlink:href="class_google___service.html" target="_top" xlink:title="{Google_Service\n|+ $version\l+ $servicePath\l+ $resource\l|}">
<polygon fill="#ffffff" stroke="#000000" points="38.645,-91.5 38.645,-165.5 125.7974,-165.5 125.7974,-91.5 38.645,-91.5"/>
<text text-anchor="middle" x="82.2212" y="-153.5" font-family="Helvetica,sans-Serif" font-size="10.00" fill="#000000">Google_Service</text>
<polyline fill="none" stroke="#000000" points="38.645,-147.5 125.7974,-147.5 "/>
<text text-anchor="start" x="46.645" y="-135.5" font-family="Helvetica,sans-Serif" font-size="10.00" fill="#000000">+ $version</text>
<text text-anchor="start" x="46.645" y="-125.5" font-family="Helvetica,sans-Serif" font-size="10.00" fill="#000000">+ $servicePath</text>
<text text-anchor="start" x="46.645" y="-115.5" font-family="Helvetica,sans-Serif" font-size="10.00" fill="#000000">+ $resource</text>
<polyline fill="none" stroke="#000000" points="38.645,-109.5 125.7974,-109.5 "/>
<text text-anchor="middle" x="82.2212" y="-97.5" font-family="Helvetica,sans-Serif" font-size="10.00" fill="#000000"> </text>
</a>
</g>
</g>
<!-- Node3&#45;&gt;Node2 -->
<g id="edge1" class="edge">
<title>Node3&#45;&gt;Node2</title>
<path fill="none" stroke="#191970" d="M82.2212,-81.3008C82.2212,-72.1879 82.2212,-62.931 82.2212,-54.7239"/>
<polygon fill="none" stroke="#191970" points="78.7213,-81.4648 82.2212,-91.4648 85.7213,-81.4649 78.7213,-81.4648"/>
</g>
</g>
</svg>
