<?xml version="1.0" encoding="UTF-8" standalone="no"?>
<!DOCTYPE svg PUBLIC "-//W3C//DTD SVG 1.1//EN"
 "http://www.w3.org/Graphics/SVG/1.1/DTD/svg11.dtd">
<!-- Generated by graphviz version 2.40.1 (20161225.0304)
 -->
<!-- Title: Swift_Transport_StreamBuffer Pages: 1 -->
<svg width="374pt" height="465pt"
 viewBox="0.00 0.00 374.17 465.00" xmlns="http://www.w3.org/2000/svg" xmlns:xlink="http://www.w3.org/1999/xlink">
<g id="graph0" class="graph" transform="scale(1 1) rotate(0) translate(4 461)">
<title>Swift_Transport_StreamBuffer</title>
<polygon fill="#ffffff" stroke="transparent" points="-4,4 -4,-461 370.1685,-461 370.1685,4 -4,4"/>
<!-- Node0 -->
<g id="node1" class="node">
<title>Node0</title>
<polygon fill="#bfbfbf" stroke="#000000" points="98.4448,-.5 98.4448,-144.5 248.3999,-144.5 248.3999,-.5 98.4448,-.5"/>
<text text-anchor="middle" x="173.4224" y="-132.5" font-family="Helvetica,sans-Serif" font-size="10.00" fill="#000000">Swift_Transport_StreamBuffer</text>
<polyline fill="none" stroke="#000000" points="98.4448,-126.5 248.3999,-126.5 "/>
<text text-anchor="middle" x="173.4224" y="-114.5" font-family="Helvetica,sans-Serif" font-size="10.00" fill="#000000"> </text>
<polyline fill="none" stroke="#000000" points="98.4448,-108.5 248.3999,-108.5 "/>
<text text-anchor="start" x="106.4448" y="-96.5" font-family="Helvetica,sans-Serif" font-size="10.00" fill="#000000">+ __construct()</text>
<text text-anchor="start" x="106.4448" y="-86.5" font-family="Helvetica,sans-Serif" font-size="10.00" fill="#000000">+ initialize()</text>
<text text-anchor="start" x="106.4448" y="-76.5" font-family="Helvetica,sans-Serif" font-size="10.00" fill="#000000">+ setParam()</text>
<text text-anchor="start" x="106.4448" y="-66.5" font-family="Helvetica,sans-Serif" font-size="10.00" fill="#000000">+ terminate()</text>
<text text-anchor="start" x="106.4448" y="-56.5" font-family="Helvetica,sans-Serif" font-size="10.00" fill="#000000">+ setWriteTranslations()</text>
<text text-anchor="start" x="106.4448" y="-46.5" font-family="Helvetica,sans-Serif" font-size="10.00" fill="#000000">+ readLine()</text>
<text text-anchor="start" x="106.4448" y="-36.5" font-family="Helvetica,sans-Serif" font-size="10.00" fill="#000000">+ read()</text>
<text text-anchor="start" x="106.4448" y="-26.5" font-family="Helvetica,sans-Serif" font-size="10.00" fill="#000000">+ setReadPointer()</text>
<text text-anchor="start" x="106.4448" y="-16.5" font-family="Helvetica,sans-Serif" font-size="10.00" fill="#000000"># _flush()</text>
<text text-anchor="start" x="106.4448" y="-6.5" font-family="Helvetica,sans-Serif" font-size="10.00" fill="#000000"># _commit()</text>
</g>
<!-- Node1 -->
<g id="node2" class="node">
<title>Node1</title>
<g id="a_node2"><a xlink:href="class_swift___byte_stream___abstract_filterable_input_stream.html" target="_top" xlink:title="{Swift_ByteStream_Abstract\lFilterableInputStream\n||+ addFilter()\l+ removeFilter()\l+ write()\l+ commit()\l+ bind()\l+ unbind()\l+ flushBuffers()\l# _commit()\l# _flush()\l}">
<polygon fill="#ffffff" stroke="#000000" points="29.5654,-181.5 29.5654,-325.5 167.2793,-325.5 167.2793,-181.5 29.5654,-181.5"/>
<text text-anchor="start" x="37.5654" y="-313.5" font-family="Helvetica,sans-Serif" font-size="10.00" fill="#000000">Swift_ByteStream_Abstract</text>
<text text-anchor="middle" x="98.4224" y="-303.5" font-family="Helvetica,sans-Serif" font-size="10.00" fill="#000000">FilterableInputStream</text>
<polyline fill="none" stroke="#000000" points="29.5654,-297.5 167.2793,-297.5 "/>
<text text-anchor="middle" x="98.4224" y="-285.5" font-family="Helvetica,sans-Serif" font-size="10.00" fill="#000000"> </text>
<polyline fill="none" stroke="#000000" points="29.5654,-279.5 167.2793,-279.5 "/>
<text text-anchor="start" x="37.5654" y="-267.5" font-family="Helvetica,sans-Serif" font-size="10.00" fill="#000000">+ addFilter()</text>
<text text-anchor="start" x="37.5654" y="-257.5" font-family="Helvetica,sans-Serif" font-size="10.00" fill="#000000">+ removeFilter()</text>
<text text-anchor="start" x="37.5654" y="-247.5" font-family="Helvetica,sans-Serif" font-size="10.00" fill="#000000">+ write()</text>
<text text-anchor="start" x="37.5654" y="-237.5" font-family="Helvetica,sans-Serif" font-size="10.00" fill="#000000">+ commit()</text>
<text text-anchor="start" x="37.5654" y="-227.5" font-family="Helvetica,sans-Serif" font-size="10.00" fill="#000000">+ bind()</text>
<text text-anchor="start" x="37.5654" y="-217.5" font-family="Helvetica,sans-Serif" font-size="10.00" fill="#000000">+ unbind()</text>
<text text-anchor="start" x="37.5654" y="-207.5" font-family="Helvetica,sans-Serif" font-size="10.00" fill="#000000">+ flushBuffers()</text>
<text text-anchor="start" x="37.5654" y="-197.5" font-family="Helvetica,sans-Serif" font-size="10.00" fill="#000000"># _commit()</text>
<text text-anchor="start" x="37.5654" y="-187.5" font-family="Helvetica,sans-Serif" font-size="10.00" fill="#000000"># _flush()</text>
</a>
</g>
</g>
<!-- Node1&#45;&gt;Node0 -->
<g id="edge1" class="edge">
<title>Node1&#45;&gt;Node0</title>
<path fill="none" stroke="#191970" d="M132.1976,-171.9891C135.981,-162.8584 139.8156,-153.6044 143.5451,-144.6038"/>
<polygon fill="none" stroke="#191970" points="128.8745,-170.8658 128.2799,-181.4439 135.3413,-173.5455 128.8745,-170.8658"/>
</g>
<!-- Node2 -->
<g id="node3" class="node">
<title>Node2</title>
<g id="a_node3"><a xlink:href="interface_swift___input_byte_stream.html" target="_top" xlink:title="{Swift_InputByteStream\n||+ write()\l+ commit()\l+ bind()\l+ unbind()\l+ flushBuffers()\l}">
<polygon fill="#ffffff" stroke="#000000" points="104.5654,-362.5 104.5654,-456.5 222.2793,-456.5 222.2793,-362.5 104.5654,-362.5"/>
<text text-anchor="middle" x="163.4224" y="-444.5" font-family="Helvetica,sans-Serif" font-size="10.00" fill="#000000">Swift_InputByteStream</text>
<polyline fill="none" stroke="#000000" points="104.5654,-438.5 222.2793,-438.5 "/>
<text text-anchor="middle" x="163.4224" y="-426.5" font-family="Helvetica,sans-Serif" font-size="10.00" fill="#000000"> </text>
<polyline fill="none" stroke="#000000" points="104.5654,-420.5 222.2793,-420.5 "/>
<text text-anchor="start" x="112.5654" y="-408.5" font-family="Helvetica,sans-Serif" font-size="10.00" fill="#000000">+ write()</text>
<text text-anchor="start" x="112.5654" y="-398.5" font-family="Helvetica,sans-Serif" font-size="10.00" fill="#000000">+ commit()</text>
<text text-anchor="start" x="112.5654" y="-388.5" font-family="Helvetica,sans-Serif" font-size="10.00" fill="#000000">+ bind()</text>
<text text-anchor="start" x="112.5654" y="-378.5" font-family="Helvetica,sans-Serif" font-size="10.00" fill="#000000">+ unbind()</text>
<text text-anchor="start" x="112.5654" y="-368.5" font-family="Helvetica,sans-Serif" font-size="10.00" fill="#000000">+ flushBuffers()</text>
</a>
</g>
</g>
<!-- Node2&#45;&gt;Node1 -->
<g id="edge2" class="edge">
<title>Node2&#45;&gt;Node1</title>
<path fill="none" stroke="#191970" d="M139.8179,-352.8492C136.1308,-344.0002 132.2782,-334.7541 128.4708,-325.6162"/>
<polygon fill="none" stroke="#191970" points="136.6668,-354.3869 143.7438,-362.2715 143.1284,-351.6946 136.6668,-354.3869"/>
</g>
<!-- Node4 -->
<g id="node5" class="node">
<title>Node4</title>
<g id="a_node5"><a xlink:href="interface_swift___transport___io_buffer.html" target="_top" xlink:title="{Swift_Transport_IoBuffer\n|+ TYPE_SOCKET\l+ TYPE_PROCESS\l|+ initialize()\l+ setParam()\l+ terminate()\l+ setWriteTranslations()\l+ readLine()\l}">
<polygon fill="#ffffff" stroke="#000000" points="185.3906,-201.5 185.3906,-305.5 311.4541,-305.5 311.4541,-201.5 185.3906,-201.5"/>
<text text-anchor="middle" x="248.4224" y="-293.5" font-family="Helvetica,sans-Serif" font-size="10.00" fill="#000000">Swift_Transport_IoBuffer</text>
<polyline fill="none" stroke="#000000" points="185.3906,-287.5 311.4541,-287.5 "/>
<text text-anchor="start" x="193.3906" y="-275.5" font-family="Helvetica,sans-Serif" font-size="10.00" fill="#000000">+ TYPE_SOCKET</text>
<text text-anchor="start" x="193.3906" y="-265.5" font-family="Helvetica,sans-Serif" font-size="10.00" fill="#000000">+ TYPE_PROCESS</text>
<polyline fill="none" stroke="#000000" points="185.3906,-259.5 311.4541,-259.5 "/>
<text text-anchor="start" x="193.3906" y="-247.5" font-family="Helvetica,sans-Serif" font-size="10.00" fill="#000000">+ initialize()</text>
<text text-anchor="start" x="193.3906" y="-237.5" font-family="Helvetica,sans-Serif" font-size="10.00" fill="#000000">+ setParam()</text>
<text text-anchor="start" x="193.3906" y="-227.5" font-family="Helvetica,sans-Serif" font-size="10.00" fill="#000000">+ terminate()</text>
<text text-anchor="start" x="193.3906" y="-217.5" font-family="Helvetica,sans-Serif" font-size="10.00" fill="#000000">+ setWriteTranslations()</text>
<text text-anchor="start" x="193.3906" y="-207.5" font-family="Helvetica,sans-Serif" font-size="10.00" fill="#000000">+ readLine()</text>
</a>
</g>
</g>
<!-- Node2&#45;&gt;Node4 -->
<g id="edge5" class="edge">
<title>Node2&#45;&gt;Node4</title>
<path fill="none" stroke="#191970" d="M194.043,-353.3021C202.4965,-337.7875 211.6317,-321.0217 219.9575,-305.7415"/>
<polygon fill="none" stroke="#191970" points="190.8671,-351.8158 189.1558,-362.2715 197.0139,-355.165 190.8671,-351.8158"/>
</g>
<!-- Node3 -->
<g id="node4" class="node">
<title>Node3</title>
<g id="a_node4"><a xlink:href="interface_swift___filterable.html" target="_top" xlink:title="{Swift_Filterable\n||+ addFilter()\l+ removeFilter()\l}">
<polygon fill="#ffffff" stroke="#000000" points="0,-377.5 0,-441.5 86.8447,-441.5 86.8447,-377.5 0,-377.5"/>
<text text-anchor="middle" x="43.4224" y="-429.5" font-family="Helvetica,sans-Serif" font-size="10.00" fill="#000000">Swift_Filterable</text>
<polyline fill="none" stroke="#000000" points="0,-423.5 86.8447,-423.5 "/>
<text text-anchor="middle" x="43.4224" y="-411.5" font-family="Helvetica,sans-Serif" font-size="10.00" fill="#000000"> </text>
<polyline fill="none" stroke="#000000" points="0,-405.5 86.8447,-405.5 "/>
<text text-anchor="start" x="8" y="-393.5" font-family="Helvetica,sans-Serif" font-size="10.00" fill="#000000">+ addFilter()</text>
<text text-anchor="start" x="8" y="-383.5" font-family="Helvetica,sans-Serif" font-size="10.00" fill="#000000">+ removeFilter()</text>
</a>
</g>
</g>
<!-- Node3&#45;&gt;Node1 -->
<g id="edge3" class="edge">
<title>Node3&#45;&gt;Node1</title>
<path fill="none" stroke="#191970" d="M58.1798,-367.6426C62.7437,-354.6976 67.9089,-340.0474 72.9801,-325.6634"/>
<polygon fill="none" stroke="#191970" points="54.8426,-366.5819 54.8184,-377.1767 61.4444,-368.9095 54.8426,-366.5819"/>
</g>
<!-- Node4&#45;&gt;Node0 -->
<g id="edge4" class="edge">
<title>Node4&#45;&gt;Node0</title>
<path fill="none" stroke="#191970" d="M222.8797,-191.8571C216.581,-176.6562 209.7796,-160.2422 203.2959,-144.5947"/>
<polygon fill="none" stroke="#191970" points="219.6678,-193.2488 226.7293,-201.1473 226.1346,-190.5692 219.6678,-193.2488"/>
</g>
<!-- Node5 -->
<g id="node6" class="node">
<title>Node5</title>
<g id="a_node6"><a xlink:href="interface_swift___output_byte_stream.html" target="_top" xlink:title="{Swift_OutputByteStream\n||+ read()\l+ setReadPointer()\l}">
<polygon fill="#ffffff" stroke="#000000" points="240.6763,-377.5 240.6763,-441.5 366.1685,-441.5 366.1685,-377.5 240.6763,-377.5"/>
<text text-anchor="middle" x="303.4224" y="-429.5" font-family="Helvetica,sans-Serif" font-size="10.00" fill="#000000">Swift_OutputByteStream</text>
<polyline fill="none" stroke="#000000" points="240.6763,-423.5 366.1685,-423.5 "/>
<text text-anchor="middle" x="303.4224" y="-411.5" font-family="Helvetica,sans-Serif" font-size="10.00" fill="#000000"> </text>
<polyline fill="none" stroke="#000000" points="240.6763,-405.5 366.1685,-405.5 "/>
<text text-anchor="start" x="248.6763" y="-393.5" font-family="Helvetica,sans-Serif" font-size="10.00" fill="#000000">+ read()</text>
<text text-anchor="start" x="248.6763" y="-383.5" font-family="Helvetica,sans-Serif" font-size="10.00" fill="#000000">+ setReadPointer()</text>
</a>
</g>
</g>
<!-- Node5&#45;&gt;Node4 -->
<g id="edge6" class="edge">
<title>Node5&#45;&gt;Node4</title>
<path fill="none" stroke="#191970" d="M288.6482,-367.595C281.9399,-348.5679 273.9355,-325.8646 266.8399,-305.7389"/>
<polygon fill="none" stroke="#191970" points="285.4004,-368.9095 292.0263,-377.1767 292.0021,-366.5819 285.4004,-368.9095"/>
</g>
</g>
</svg>
