<?xml version="1.0" encoding="UTF-8" standalone="no"?>
<!DOCTYPE svg PUBLIC "-//W3C//DTD SVG 1.1//EN"
 "http://www.w3.org/Graphics/SVG/1.1/DTD/svg11.dtd">
<!-- Generated by graphviz version 2.40.1 (20161225.0304)
 -->
<!-- Title: Google_MylibraryAnnotationsServiceResource Pages: 1 -->
<svg width="155pt" height="234pt"
 viewBox="0.00 0.00 155.18 234.00" xmlns="http://www.w3.org/2000/svg" xmlns:xlink="http://www.w3.org/1999/xlink">
<g id="graph0" class="graph" transform="scale(1 1) rotate(0) translate(4 230)">
<title>Google_MylibraryAnnotationsServiceResource</title>
<polygon fill="#ffffff" stroke="transparent" points="-4,4 -4,-230 151.1816,-230 151.1816,4 -4,4"/>
<!-- Node0 -->
<g id="node1" class="node">
<title>Node0</title>
<polygon fill="#bfbfbf" stroke="#000000" points="0,-.5 0,-104.5 147.1816,-104.5 147.1816,-.5 0,-.5"/>
<text text-anchor="start" x="8" y="-92.5" font-family="Helvetica,sans-Serif" font-size="10.00" fill="#000000">Google_MylibraryAnnotations</text>
<text text-anchor="middle" x="73.5908" y="-82.5" font-family="Helvetica,sans-Serif" font-size="10.00" fill="#000000">ServiceResource</text>
<polyline fill="none" stroke="#000000" points="0,-76.5 147.1816,-76.5 "/>
<text text-anchor="middle" x="73.5908" y="-64.5" font-family="Helvetica,sans-Serif" font-size="10.00" fill="#000000"> </text>
<polyline fill="none" stroke="#000000" points="0,-58.5 147.1816,-58.5 "/>
<text text-anchor="start" x="8" y="-46.5" font-family="Helvetica,sans-Serif" font-size="10.00" fill="#000000">+ delete()</text>
<text text-anchor="start" x="8" y="-36.5" font-family="Helvetica,sans-Serif" font-size="10.00" fill="#000000">+ get()</text>
<text text-anchor="start" x="8" y="-26.5" font-family="Helvetica,sans-Serif" font-size="10.00" fill="#000000">+ insert()</text>
<text text-anchor="start" x="8" y="-16.5" font-family="Helvetica,sans-Serif" font-size="10.00" fill="#000000">+ listMylibraryAnnotations()</text>
<text text-anchor="start" x="8" y="-6.5" font-family="Helvetica,sans-Serif" font-size="10.00" fill="#000000">+ update()</text>
</g>
<!-- Node1 -->
<g id="node2" class="node">
<title>Node1</title>
<g id="a_node2"><a xlink:href="class_google___service_resource.html" target="_top" xlink:title="{Google_ServiceResource\n||+ __construct()\l+ __call()\l+ useObjects()\l# stripNull()\l}">
<polygon fill="#ffffff" stroke="#000000" points="8.6157,-141.5 8.6157,-225.5 138.5659,-225.5 138.5659,-141.5 8.6157,-141.5"/>
<text text-anchor="middle" x="73.5908" y="-213.5" font-family="Helvetica,sans-Serif" font-size="10.00" fill="#000000">Google_ServiceResource</text>
<polyline fill="none" stroke="#000000" points="8.6157,-207.5 138.5659,-207.5 "/>
<text text-anchor="middle" x="73.5908" y="-195.5" font-family="Helvetica,sans-Serif" font-size="10.00" fill="#000000"> </text>
<polyline fill="none" stroke="#000000" points="8.6157,-189.5 138.5659,-189.5 "/>
<text text-anchor="start" x="16.6157" y="-177.5" font-family="Helvetica,sans-Serif" font-size="10.00" fill="#000000">+ __construct()</text>
<text text-anchor="start" x="16.6157" y="-167.5" font-family="Helvetica,sans-Serif" font-size="10.00" fill="#000000">+ __call()</text>
<text text-anchor="start" x="16.6157" y="-157.5" font-family="Helvetica,sans-Serif" font-size="10.00" fill="#000000">+ useObjects()</text>
<text text-anchor="start" x="16.6157" y="-147.5" font-family="Helvetica,sans-Serif" font-size="10.00" fill="#000000"># stripNull()</text>
</a>
</g>
</g>
<!-- Node1&#45;&gt;Node0 -->
<g id="edge1" class="edge">
<title>Node1&#45;&gt;Node0</title>
<path fill="none" stroke="#191970" d="M73.5908,-131.2546C73.5908,-122.5097 73.5908,-113.4358 73.5908,-104.6923"/>
<polygon fill="none" stroke="#191970" points="70.0909,-131.3297 73.5908,-141.3297 77.0909,-131.3297 70.0909,-131.3297"/>
</g>
</g>
</svg>
