<?xml version="1.0" encoding="UTF-8" standalone="no"?>
<!DOCTYPE svg PUBLIC "-//W3C//DTD SVG 1.1//EN"
 "http://www.w3.org/Graphics/SVG/1.1/DTD/svg11.dtd">
<!-- Generated by graphviz version 2.40.1 (20161225.0304)
 -->
<!-- Title: EOAuthComponent Pages: 1 -->
<svg width="111pt" height="154pt"
 viewBox="0.00 0.00 110.72 154.00" xmlns="http://www.w3.org/2000/svg" xmlns:xlink="http://www.w3.org/1999/xlink">
<g id="graph0" class="graph" transform="scale(1 1) rotate(0) translate(4 150)">
<title>EOAuthComponent</title>
<polygon fill="#ffffff" stroke="transparent" points="-4,4 -4,-150 106.7188,-150 106.7188,4 -4,4"/>
<!-- Node5 -->
<g id="node1" class="node">
<title>Node5</title>
<polygon fill="#bfbfbf" stroke="#000000" points="0,-.5 0,-54.5 102.7188,-54.5 102.7188,-.5 0,-.5"/>
<text text-anchor="middle" x="51.3594" y="-42.5" font-family="Helvetica,sans-Serif" font-size="10.00" fill="#000000">EOAuthComponent</text>
<polyline fill="none" stroke="#000000" points="0,-36.5 102.7188,-36.5 "/>
<text text-anchor="middle" x="51.3594" y="-24.5" font-family="Helvetica,sans-Serif" font-size="10.00" fill="#000000"> </text>
<polyline fill="none" stroke="#000000" points="0,-18.5 102.7188,-18.5 "/>
<text text-anchor="middle" x="51.3594" y="-6.5" font-family="Helvetica,sans-Serif" font-size="10.00" fill="#000000"> </text>
</g>
<!-- Node6 -->
<g id="node2" class="node">
<title>Node6</title>
<polygon fill="#ffffff" stroke="#bfbfbf" points="13.8989,-91.5 13.8989,-145.5 88.8198,-145.5 88.8198,-91.5 13.8989,-91.5"/>
<text text-anchor="middle" x="51.3594" y="-133.5" font-family="Helvetica,sans-Serif" font-size="10.00" fill="#000000">CComponent</text>
<polyline fill="none" stroke="#bfbfbf" points="13.8989,-127.5 88.8198,-127.5 "/>
<text text-anchor="middle" x="51.3594" y="-115.5" font-family="Helvetica,sans-Serif" font-size="10.00" fill="#000000"> </text>
<polyline fill="none" stroke="#bfbfbf" points="13.8989,-109.5 88.8198,-109.5 "/>
<text text-anchor="middle" x="51.3594" y="-97.5" font-family="Helvetica,sans-Serif" font-size="10.00" fill="#000000"> </text>
</g>
<!-- Node6&#45;&gt;Node5 -->
<g id="edge1" class="edge">
<title>Node6&#45;&gt;Node5</title>
<path fill="none" stroke="#191970" d="M51.3594,-81.12C51.3594,-72.3006 51.3594,-63.0605 51.3594,-54.7837"/>
<polygon fill="none" stroke="#191970" points="47.8595,-81.197 51.3594,-91.197 54.8595,-81.197 47.8595,-81.197"/>
</g>
</g>
</svg>
