<?xml version="1.0" encoding="UTF-8" standalone="no"?>
<!DOCTYPE svg PUBLIC "-//W3C//DTD SVG 1.1//EN"
 "http://www.w3.org/Graphics/SVG/1.1/DTD/svg11.dtd">
<!-- Generated by graphviz version 2.40.1 (20161225.0304)
 -->
<!-- Title: Google_UserMakeAdmin Pages: 1 -->
<svg width="136pt" height="204pt"
 viewBox="0.00 0.00 135.72 204.00" xmlns="http://www.w3.org/2000/svg" xmlns:xlink="http://www.w3.org/1999/xlink">
<g id="graph0" class="graph" transform="scale(1 1) rotate(0) translate(4 200)">
<title>Google_UserMakeAdmin</title>
<polygon fill="#ffffff" stroke="transparent" points="-4,4 -4,-200 131.7188,-200 131.7188,4 -4,4"/>
<!-- Node2 -->
<g id="node1" class="node">
<title>Node2</title>
<polygon fill="#bfbfbf" stroke="#000000" points="0,-.5 0,-64.5 127.7188,-64.5 127.7188,-.5 0,-.5"/>
<text text-anchor="middle" x="63.8594" y="-52.5" font-family="Helvetica,sans-Serif" font-size="10.00" fill="#000000">Google_UserMakeAdmin</text>
<polyline fill="none" stroke="#000000" points="0,-46.5 127.7188,-46.5 "/>
<text text-anchor="start" x="8" y="-34.5" font-family="Helvetica,sans-Serif" font-size="10.00" fill="#000000">+ $status</text>
<polyline fill="none" stroke="#000000" points="0,-28.5 127.7188,-28.5 "/>
<text text-anchor="start" x="8" y="-16.5" font-family="Helvetica,sans-Serif" font-size="10.00" fill="#000000">+ setStatus()</text>
<text text-anchor="start" x="8" y="-6.5" font-family="Helvetica,sans-Serif" font-size="10.00" fill="#000000">+ getStatus()</text>
</g>
<!-- Node3 -->
<g id="node2" class="node">
<title>Node3</title>
<g id="a_node2"><a xlink:href="class_google___model.html" target="_top" xlink:title="{Google_Model\n||+ __construct()\l+ assertIsArray()\l# mapTypes()\l# isAssociativeArray()\l# useObjects()\l}">
<polygon fill="#ffffff" stroke="#000000" points="7.5146,-101.5 7.5146,-195.5 120.2041,-195.5 120.2041,-101.5 7.5146,-101.5"/>
<text text-anchor="middle" x="63.8594" y="-183.5" font-family="Helvetica,sans-Serif" font-size="10.00" fill="#000000">Google_Model</text>
<polyline fill="none" stroke="#000000" points="7.5146,-177.5 120.2041,-177.5 "/>
<text text-anchor="middle" x="63.8594" y="-165.5" font-family="Helvetica,sans-Serif" font-size="10.00" fill="#000000"> </text>
<polyline fill="none" stroke="#000000" points="7.5146,-159.5 120.2041,-159.5 "/>
<text text-anchor="start" x="15.5146" y="-147.5" font-family="Helvetica,sans-Serif" font-size="10.00" fill="#000000">+ __construct()</text>
<text text-anchor="start" x="15.5146" y="-137.5" font-family="Helvetica,sans-Serif" font-size="10.00" fill="#000000">+ assertIsArray()</text>
<text text-anchor="start" x="15.5146" y="-127.5" font-family="Helvetica,sans-Serif" font-size="10.00" fill="#000000"># mapTypes()</text>
<text text-anchor="start" x="15.5146" y="-117.5" font-family="Helvetica,sans-Serif" font-size="10.00" fill="#000000"># isAssociativeArray()</text>
<text text-anchor="start" x="15.5146" y="-107.5" font-family="Helvetica,sans-Serif" font-size="10.00" fill="#000000"># useObjects()</text>
</a>
</g>
</g>
<!-- Node3&#45;&gt;Node2 -->
<g id="edge1" class="edge">
<title>Node3&#45;&gt;Node2</title>
<path fill="none" stroke="#191970" d="M63.8594,-91.1299C63.8594,-82.0561 63.8594,-72.9618 63.8594,-64.7354"/>
<polygon fill="none" stroke="#191970" points="60.3595,-91.3183 63.8594,-101.3184 67.3595,-91.3184 60.3595,-91.3183"/>
</g>
</g>
</svg>
