<?xml version="1.0" encoding="UTF-8" standalone="no"?>
<!DOCTYPE svg PUBLIC "-//W3C//DTD SVG 1.1//EN"
 "http://www.w3.org/Graphics/SVG/1.1/DTD/svg11.dtd">
<!-- Generated by graphviz version 2.40.1 (20161225.0304)
 -->
<!-- Title: YiiMail Pages: 1 -->
<svg width="132pt" height="284pt"
 viewBox="0.00 0.00 131.84 284.00" xmlns="http://www.w3.org/2000/svg" xmlns:xlink="http://www.w3.org/1999/xlink">
<g id="graph0" class="graph" transform="scale(1 1) rotate(0) translate(4 280)">
<title>YiiMail</title>
<polygon fill="#ffffff" stroke="transparent" points="-4,4 -4,-280 127.8418,-280 127.8418,4 -4,4"/>
<!-- Node2 -->
<g id="node1" class="node">
<title>Node2</title>
<polygon fill="#bfbfbf" stroke="#000000" points="9.8682,-.5 9.8682,-184.5 113.9736,-184.5 113.9736,-.5 9.8682,-.5"/>
<text text-anchor="middle" x="61.9209" y="-172.5" font-family="Helvetica,sans-Serif" font-size="10.00" fill="#000000">YiiMail</text>
<polyline fill="none" stroke="#000000" points="9.8682,-166.5 113.9736,-166.5 "/>
<text text-anchor="start" x="17.8682" y="-154.5" font-family="Helvetica,sans-Serif" font-size="10.00" fill="#000000">+ $logging</text>
<text text-anchor="start" x="17.8682" y="-144.5" font-family="Helvetica,sans-Serif" font-size="10.00" fill="#000000">+ $dryRun</text>
<text text-anchor="start" x="17.8682" y="-134.5" font-family="Helvetica,sans-Serif" font-size="10.00" fill="#000000">+ $transportType</text>
<text text-anchor="start" x="17.8682" y="-124.5" font-family="Helvetica,sans-Serif" font-size="10.00" fill="#000000">+ $viewPath</text>
<text text-anchor="start" x="17.8682" y="-114.5" font-family="Helvetica,sans-Serif" font-size="10.00" fill="#000000">+ $transportOptions</text>
<text text-anchor="start" x="17.8682" y="-104.5" font-family="Helvetica,sans-Serif" font-size="10.00" fill="#000000"># $transport</text>
<text text-anchor="start" x="17.8682" y="-94.5" font-family="Helvetica,sans-Serif" font-size="10.00" fill="#000000"># $mailer</text>
<polyline fill="none" stroke="#000000" points="9.8682,-88.5 113.9736,-88.5 "/>
<text text-anchor="start" x="17.8682" y="-76.5" font-family="Helvetica,sans-Serif" font-size="10.00" fill="#000000">+ init()</text>
<text text-anchor="start" x="17.8682" y="-66.5" font-family="Helvetica,sans-Serif" font-size="10.00" fill="#000000">+ send()</text>
<text text-anchor="start" x="17.8682" y="-56.5" font-family="Helvetica,sans-Serif" font-size="10.00" fill="#000000">+ batchSend()</text>
<text text-anchor="start" x="17.8682" y="-46.5" font-family="Helvetica,sans-Serif" font-size="10.00" fill="#000000">+ sendSimple()</text>
<text text-anchor="start" x="17.8682" y="-36.5" font-family="Helvetica,sans-Serif" font-size="10.00" fill="#000000">+ getTransport()</text>
<text text-anchor="start" x="17.8682" y="-26.5" font-family="Helvetica,sans-Serif" font-size="10.00" fill="#000000">+ getMailer()</text>
<text text-anchor="start" x="17.8682" y="-16.5" font-family="Helvetica,sans-Serif" font-size="10.00" fill="#000000">+ registerScripts()</text>
<text text-anchor="start" x="17.8682" y="-6.5" font-family="Helvetica,sans-Serif" font-size="10.00" fill="#000000">+ log()</text>
</g>
<!-- Node3 -->
<g id="node2" class="node">
<title>Node3</title>
<polygon fill="#ffffff" stroke="#bfbfbf" points="0,-221.5 0,-275.5 123.8418,-275.5 123.8418,-221.5 0,-221.5"/>
<text text-anchor="middle" x="61.9209" y="-263.5" font-family="Helvetica,sans-Serif" font-size="10.00" fill="#000000">CApplicationComponent</text>
<polyline fill="none" stroke="#bfbfbf" points="0,-257.5 123.8418,-257.5 "/>
<text text-anchor="middle" x="61.9209" y="-245.5" font-family="Helvetica,sans-Serif" font-size="10.00" fill="#000000"> </text>
<polyline fill="none" stroke="#bfbfbf" points="0,-239.5 123.8418,-239.5 "/>
<text text-anchor="middle" x="61.9209" y="-227.5" font-family="Helvetica,sans-Serif" font-size="10.00" fill="#000000"> </text>
</g>
<!-- Node3&#45;&gt;Node2 -->
<g id="edge1" class="edge">
<title>Node3&#45;&gt;Node2</title>
<path fill="none" stroke="#191970" d="M61.9209,-211.1046C61.9209,-202.9323 61.9209,-193.9353 61.9209,-184.662"/>
<polygon fill="none" stroke="#191970" points="58.421,-211.3268 61.9209,-221.3269 65.421,-211.3269 58.421,-211.3268"/>
</g>
</g>
</svg>
