<?xml version="1.0" encoding="UTF-8" standalone="no"?>
<!DOCTYPE svg PUBLIC "-//W3C//DTD SVG 1.1//EN"
 "http://www.w3.org/Graphics/SVG/1.1/DTD/svg11.dtd">
<!-- Generated by graphviz version 2.40.1 (20161225.0304)
 -->
<!-- Title: UserGroupsGroup Pages: 1 -->
<svg width="106pt" height="234pt"
 viewBox="0.00 0.00 105.70 234.00" xmlns="http://www.w3.org/2000/svg" xmlns:xlink="http://www.w3.org/1999/xlink">
<g id="graph0" class="graph" transform="scale(1 1) rotate(0) translate(4 230)">
<title>UserGroupsGroup</title>
<polygon fill="#ffffff" stroke="transparent" points="-4,4 -4,-230 101.6992,-230 101.6992,4 -4,4"/>
<!-- Node0 -->
<g id="node1" class="node">
<title>Node0</title>
<polygon fill="#bfbfbf" stroke="#000000" points="0,-.5 0,-134.5 97.6992,-134.5 97.6992,-.5 0,-.5"/>
<text text-anchor="middle" x="48.8496" y="-122.5" font-family="Helvetica,sans-Serif" font-size="10.00" fill="#000000">UserGroupsGroup</text>
<polyline fill="none" stroke="#000000" points="0,-116.5 97.6992,-116.5 "/>
<text text-anchor="start" x="8" y="-104.5" font-family="Helvetica,sans-Serif" font-size="10.00" fill="#000000">+ $access</text>
<polyline fill="none" stroke="#000000" points="0,-98.5 97.6992,-98.5 "/>
<text text-anchor="start" x="8" y="-86.5" font-family="Helvetica,sans-Serif" font-size="10.00" fill="#000000">+ tableName()</text>
<text text-anchor="start" x="8" y="-76.5" font-family="Helvetica,sans-Serif" font-size="10.00" fill="#000000">+ rules()</text>
<text text-anchor="start" x="8" y="-66.5" font-family="Helvetica,sans-Serif" font-size="10.00" fill="#000000">+ levelCheck()</text>
<text text-anchor="start" x="8" y="-56.5" font-family="Helvetica,sans-Serif" font-size="10.00" fill="#000000">+ relations()</text>
<text text-anchor="start" x="8" y="-46.5" font-family="Helvetica,sans-Serif" font-size="10.00" fill="#000000">+ attributeLabels()</text>
<text text-anchor="start" x="8" y="-36.5" font-family="Helvetica,sans-Serif" font-size="10.00" fill="#000000">+ search()</text>
<text text-anchor="start" x="8" y="-26.5" font-family="Helvetica,sans-Serif" font-size="10.00" fill="#000000">+ afterFind()</text>
<text text-anchor="start" x="8" y="-16.5" font-family="Helvetica,sans-Serif" font-size="10.00" fill="#000000">+ model()</text>
<text text-anchor="start" x="8" y="-6.5" font-family="Helvetica,sans-Serif" font-size="10.00" fill="#000000">+ groupList()</text>
</g>
<!-- Node1 -->
<g id="node2" class="node">
<title>Node1</title>
<polygon fill="#ffffff" stroke="#bfbfbf" points="7.5049,-171.5 7.5049,-225.5 90.1943,-225.5 90.1943,-171.5 7.5049,-171.5"/>
<text text-anchor="middle" x="48.8496" y="-213.5" font-family="Helvetica,sans-Serif" font-size="10.00" fill="#000000">CActiveRecord</text>
<polyline fill="none" stroke="#bfbfbf" points="7.5049,-207.5 90.1943,-207.5 "/>
<text text-anchor="middle" x="48.8496" y="-195.5" font-family="Helvetica,sans-Serif" font-size="10.00" fill="#000000"> </text>
<polyline fill="none" stroke="#bfbfbf" points="7.5049,-189.5 90.1943,-189.5 "/>
<text text-anchor="middle" x="48.8496" y="-177.5" font-family="Helvetica,sans-Serif" font-size="10.00" fill="#000000"> </text>
</g>
<!-- Node1&#45;&gt;Node0 -->
<g id="edge1" class="edge">
<title>Node1&#45;&gt;Node0</title>
<path fill="none" stroke="#191970" d="M48.8496,-161.2321C48.8496,-152.8764 48.8496,-143.7626 48.8496,-134.607"/>
<polygon fill="none" stroke="#191970" points="45.3497,-161.3567 48.8496,-171.3567 52.3497,-161.3567 45.3497,-161.3567"/>
</g>
</g>
</svg>
