<?xml version="1.0" encoding="UTF-8" standalone="no"?>
<!DOCTYPE svg PUBLIC "-//W3C//DTD SVG 1.1//EN"
 "http://www.w3.org/Graphics/SVG/1.1/DTD/svg11.dtd">
<!-- Generated by graphviz version 2.40.1 (20161225.0304)
 -->
<!-- Title: Google_TableRow Pages: 1 -->
<svg width="121pt" height="224pt"
 viewBox="0.00 0.00 120.69 224.00" xmlns="http://www.w3.org/2000/svg" xmlns:xlink="http://www.w3.org/1999/xlink">
<g id="graph0" class="graph" transform="scale(1 1) rotate(0) translate(4 220)">
<title>Google_TableRow</title>
<polygon fill="#ffffff" stroke="transparent" points="-4,4 -4,-220 116.6895,-220 116.6895,4 -4,4"/>
<!-- Node0 -->
<g id="node1" class="node">
<title>Node0</title>
<polygon fill="#bfbfbf" stroke="#000000" points="7.4854,-.5 7.4854,-84.5 105.2041,-84.5 105.2041,-.5 7.4854,-.5"/>
<text text-anchor="middle" x="56.3447" y="-72.5" font-family="Helvetica,sans-Serif" font-size="10.00" fill="#000000">Google_TableRow</text>
<polyline fill="none" stroke="#000000" points="7.4854,-66.5 105.2041,-66.5 "/>
<text text-anchor="start" x="15.4854" y="-54.5" font-family="Helvetica,sans-Serif" font-size="10.00" fill="#000000">+ $f</text>
<text text-anchor="start" x="15.4854" y="-44.5" font-family="Helvetica,sans-Serif" font-size="10.00" fill="#000000"># $__fType</text>
<text text-anchor="start" x="15.4854" y="-34.5" font-family="Helvetica,sans-Serif" font-size="10.00" fill="#000000"># $__fDataType</text>
<polyline fill="none" stroke="#000000" points="7.4854,-28.5 105.2041,-28.5 "/>
<text text-anchor="start" x="15.4854" y="-16.5" font-family="Helvetica,sans-Serif" font-size="10.00" fill="#000000">+ setF()</text>
<text text-anchor="start" x="15.4854" y="-6.5" font-family="Helvetica,sans-Serif" font-size="10.00" fill="#000000">+ getF()</text>
</g>
<!-- Node1 -->
<g id="node2" class="node">
<title>Node1</title>
<g id="a_node2"><a xlink:href="class_google___model.html" target="_top" xlink:title="{Google_Model\n||+ __construct()\l+ assertIsArray()\l# mapTypes()\l# isAssociativeArray()\l# useObjects()\l}">
<polygon fill="#ffffff" stroke="#000000" points="0,-121.5 0,-215.5 112.6895,-215.5 112.6895,-121.5 0,-121.5"/>
<text text-anchor="middle" x="56.3447" y="-203.5" font-family="Helvetica,sans-Serif" font-size="10.00" fill="#000000">Google_Model</text>
<polyline fill="none" stroke="#000000" points="0,-197.5 112.6895,-197.5 "/>
<text text-anchor="middle" x="56.3447" y="-185.5" font-family="Helvetica,sans-Serif" font-size="10.00" fill="#000000"> </text>
<polyline fill="none" stroke="#000000" points="0,-179.5 112.6895,-179.5 "/>
<text text-anchor="start" x="8" y="-167.5" font-family="Helvetica,sans-Serif" font-size="10.00" fill="#000000">+ __construct()</text>
<text text-anchor="start" x="8" y="-157.5" font-family="Helvetica,sans-Serif" font-size="10.00" fill="#000000">+ assertIsArray()</text>
<text text-anchor="start" x="8" y="-147.5" font-family="Helvetica,sans-Serif" font-size="10.00" fill="#000000"># mapTypes()</text>
<text text-anchor="start" x="8" y="-137.5" font-family="Helvetica,sans-Serif" font-size="10.00" fill="#000000"># isAssociativeArray()</text>
<text text-anchor="start" x="8" y="-127.5" font-family="Helvetica,sans-Serif" font-size="10.00" fill="#000000"># useObjects()</text>
</a>
</g>
</g>
<!-- Node1&#45;&gt;Node0 -->
<g id="edge1" class="edge">
<title>Node1&#45;&gt;Node0</title>
<path fill="none" stroke="#191970" d="M56.3447,-110.9387C56.3447,-102.0848 56.3447,-93.0866 56.3447,-84.6505"/>
<polygon fill="none" stroke="#191970" points="52.8448,-111.2237 56.3447,-121.2238 59.8448,-111.2238 52.8448,-111.2237"/>
</g>
</g>
</svg>
