<?xml version="1.0" encoding="UTF-8" standalone="no"?>
<!DOCTYPE svg PUBLIC "-//W3C//DTD SVG 1.1//EN"
 "http://www.w3.org/Graphics/SVG/1.1/DTD/svg11.dtd">
<!-- Generated by graphviz version 2.40.1 (20161225.0304)
 -->
<!-- Title: EFineUploader Pages: 1 -->
<svg width="91pt" height="184pt"
 viewBox="0.00 0.00 90.70 184.00" xmlns="http://www.w3.org/2000/svg" xmlns:xlink="http://www.w3.org/1999/xlink">
<g id="graph0" class="graph" transform="scale(1 1) rotate(0) translate(4 180)">
<title>EFineUploader</title>
<polygon fill="#ffffff" stroke="transparent" points="-4,4 -4,-180 86.7041,-180 86.7041,4 -4,4"/>
<!-- Node0 -->
<g id="node1" class="node">
<title>Node0</title>
<polygon fill="#bfbfbf" stroke="#000000" points="0,-.5 0,-84.5 82.7041,-84.5 82.7041,-.5 0,-.5"/>
<text text-anchor="middle" x="41.3521" y="-72.5" font-family="Helvetica,sans-Serif" font-size="10.00" fill="#000000">EFineUploader</text>
<polyline fill="none" stroke="#000000" points="0,-66.5 82.7041,-66.5 "/>
<text text-anchor="start" x="8" y="-54.5" font-family="Helvetica,sans-Serif" font-size="10.00" fill="#000000">+ $version</text>
<text text-anchor="start" x="8" y="-44.5" font-family="Helvetica,sans-Serif" font-size="10.00" fill="#000000">+ $id</text>
<text text-anchor="start" x="8" y="-34.5" font-family="Helvetica,sans-Serif" font-size="10.00" fill="#000000">+ $config</text>
<text text-anchor="start" x="8" y="-24.5" font-family="Helvetica,sans-Serif" font-size="10.00" fill="#000000">+ $css</text>
<polyline fill="none" stroke="#000000" points="0,-18.5 82.7041,-18.5 "/>
<text text-anchor="start" x="8" y="-6.5" font-family="Helvetica,sans-Serif" font-size="10.00" fill="#000000">+ run()</text>
</g>
<!-- Node1 -->
<g id="node2" class="node">
<title>Node1</title>
<polygon fill="#ffffff" stroke="#bfbfbf" points="14.1797,-121.5 14.1797,-175.5 68.5244,-175.5 68.5244,-121.5 14.1797,-121.5"/>
<text text-anchor="middle" x="41.3521" y="-163.5" font-family="Helvetica,sans-Serif" font-size="10.00" fill="#000000">CWidget</text>
<polyline fill="none" stroke="#bfbfbf" points="14.1797,-157.5 68.5244,-157.5 "/>
<text text-anchor="middle" x="41.3521" y="-145.5" font-family="Helvetica,sans-Serif" font-size="10.00" fill="#000000"> </text>
<polyline fill="none" stroke="#bfbfbf" points="14.1797,-139.5 68.5244,-139.5 "/>
<text text-anchor="middle" x="41.3521" y="-127.5" font-family="Helvetica,sans-Serif" font-size="10.00" fill="#000000"> </text>
</g>
<!-- Node1&#45;&gt;Node0 -->
<g id="edge1" class="edge">
<title>Node1&#45;&gt;Node0</title>
<path fill="none" stroke="#191970" d="M41.3521,-111.3536C41.3521,-102.7475 41.3521,-93.5271 41.3521,-84.7212"/>
<polygon fill="none" stroke="#191970" points="37.8521,-111.4774 41.3521,-121.4775 44.8521,-111.4775 37.8521,-111.4774"/>
</g>
</g>
</svg>
