<?xml version="1.0" encoding="UTF-8" standalone="no"?>
<!DOCTYPE svg PUBLIC "-//W3C//DTD SVG 1.1//EN"
 "http://www.w3.org/Graphics/SVG/1.1/DTD/svg11.dtd">
<!-- Generated by graphviz version 2.40.1 (20161225.0304)
 -->
<!-- Title: UserGroupsAccess Pages: 1 -->
<svg width="110pt" height="234pt"
 viewBox="0.00 0.00 110.14 234.00" xmlns="http://www.w3.org/2000/svg" xmlns:xlink="http://www.w3.org/1999/xlink">
<g id="graph0" class="graph" transform="scale(1 1) rotate(0) translate(4 230)">
<title>UserGroupsAccess</title>
<polygon fill="#ffffff" stroke="transparent" points="-4,4 -4,-230 106.1377,-230 106.1377,4 -4,4"/>
<!-- Node0 -->
<g id="node1" class="node">
<title>Node0</title>
<polygon fill="#bfbfbf" stroke="#000000" points="0,-.5 0,-134.5 102.1377,-134.5 102.1377,-.5 0,-.5"/>
<text text-anchor="middle" x="51.0688" y="-122.5" font-family="Helvetica,sans-Serif" font-size="10.00" fill="#000000">UserGroupsAccess</text>
<polyline fill="none" stroke="#000000" points="0,-116.5 102.1377,-116.5 "/>
<text text-anchor="start" x="8" y="-104.5" font-family="Helvetica,sans-Serif" font-size="10.00" fill="#000000">+ USER</text>
<text text-anchor="start" x="8" y="-94.5" font-family="Helvetica,sans-Serif" font-size="10.00" fill="#000000">+ GROUP</text>
<polyline fill="none" stroke="#000000" points="0,-88.5 102.1377,-88.5 "/>
<text text-anchor="start" x="8" y="-76.5" font-family="Helvetica,sans-Serif" font-size="10.00" fill="#000000">+ tableName()</text>
<text text-anchor="start" x="8" y="-66.5" font-family="Helvetica,sans-Serif" font-size="10.00" fill="#000000">+ rules()</text>
<text text-anchor="start" x="8" y="-56.5" font-family="Helvetica,sans-Serif" font-size="10.00" fill="#000000">+ relations()</text>
<text text-anchor="start" x="8" y="-46.5" font-family="Helvetica,sans-Serif" font-size="10.00" fill="#000000">+ attributeLabels()</text>
<text text-anchor="start" x="8" y="-36.5" font-family="Helvetica,sans-Serif" font-size="10.00" fill="#000000">+ model()</text>
<text text-anchor="start" x="8" y="-26.5" font-family="Helvetica,sans-Serif" font-size="10.00" fill="#000000">+ controllerList()</text>
<text text-anchor="start" x="8" y="-16.5" font-family="Helvetica,sans-Serif" font-size="10.00" fill="#000000">+ homeList()</text>
<text text-anchor="start" x="8" y="-6.5" font-family="Helvetica,sans-Serif" font-size="10.00" fill="#000000">+ findRules()</text>
</g>
<!-- Node1 -->
<g id="node2" class="node">
<title>Node1</title>
<polygon fill="#ffffff" stroke="#bfbfbf" points="9.7241,-171.5 9.7241,-225.5 92.4136,-225.5 92.4136,-171.5 9.7241,-171.5"/>
<text text-anchor="middle" x="51.0688" y="-213.5" font-family="Helvetica,sans-Serif" font-size="10.00" fill="#000000">CActiveRecord</text>
<polyline fill="none" stroke="#bfbfbf" points="9.7241,-207.5 92.4136,-207.5 "/>
<text text-anchor="middle" x="51.0688" y="-195.5" font-family="Helvetica,sans-Serif" font-size="10.00" fill="#000000"> </text>
<polyline fill="none" stroke="#bfbfbf" points="9.7241,-189.5 92.4136,-189.5 "/>
<text text-anchor="middle" x="51.0688" y="-177.5" font-family="Helvetica,sans-Serif" font-size="10.00" fill="#000000"> </text>
</g>
<!-- Node1&#45;&gt;Node0 -->
<g id="edge1" class="edge">
<title>Node1&#45;&gt;Node0</title>
<path fill="none" stroke="#191970" d="M51.0688,-161.2321C51.0688,-152.8764 51.0688,-143.7626 51.0688,-134.607"/>
<polygon fill="none" stroke="#191970" points="47.5689,-161.3567 51.0688,-171.3567 54.5689,-161.3567 47.5689,-161.3567"/>
</g>
</g>
</svg>
