<?xml version="1.0" encoding="UTF-8" standalone="no"?>
<!DOCTYPE svg PUBLIC "-//W3C//DTD SVG 1.1//EN"
 "http://www.w3.org/Graphics/SVG/1.1/DTD/svg11.dtd">
<!-- Generated by graphviz version 2.40.1 (20161225.0304)
 -->
<!-- Title: CKFinder_Connector_ErrorHandler_QuickUpload Pages: 1 -->
<svg width="150pt" height="244pt"
 viewBox="0.00 0.00 149.62 244.00" xmlns="http://www.w3.org/2000/svg" xmlns:xlink="http://www.w3.org/1999/xlink">
<g id="graph0" class="graph" transform="scale(1 1) rotate(0) translate(4 240)">
<title>CKFinder_Connector_ErrorHandler_QuickUpload</title>
<polygon fill="#ffffff" stroke="transparent" points="-4,4 -4,-240 145.6152,-240 145.6152,4 -4,4"/>
<!-- Node2 -->
<g id="node1" class="node">
<title>Node2</title>
<polygon fill="#bfbfbf" stroke="#000000" points="0,-.5 0,-74.5 141.6152,-74.5 141.6152,-.5 0,-.5"/>
<text text-anchor="start" x="8" y="-62.5" font-family="Helvetica,sans-Serif" font-size="10.00" fill="#000000">CKFinder_Connector</text>
<text text-anchor="middle" x="70.8076" y="-52.5" font-family="Helvetica,sans-Serif" font-size="10.00" fill="#000000">_ErrorHandler_QuickUpload</text>
<polyline fill="none" stroke="#000000" points="0,-46.5 141.6152,-46.5 "/>
<text text-anchor="middle" x="70.8076" y="-34.5" font-family="Helvetica,sans-Serif" font-size="10.00" fill="#000000"> </text>
<polyline fill="none" stroke="#000000" points="0,-28.5 141.6152,-28.5 "/>
<text text-anchor="start" x="8" y="-16.5" font-family="Helvetica,sans-Serif" font-size="10.00" fill="#000000">+ throwError()</text>
<text text-anchor="start" x="8" y="-6.5" font-family="Helvetica,sans-Serif" font-size="10.00" fill="#000000">+ throwError()</text>
</g>
<!-- Node3 -->
<g id="node2" class="node">
<title>Node3</title>
<g id="a_node2"><a xlink:href="class_c_k_finder___connector___error_handler___base.html" target="_top" xlink:title="{CKFinder_Connector\l_ErrorHandler_Base\n|+ $_catchAllErrors\l+ $_skipErrorsArray\l|+ setCatchAllErros()\l+ setSkipErrorsArray()\l+ throwError()\l+ setCatchAllErros()\l+ setSkipErrorsArray()\l+ throwError()\l}">
<polygon fill="#ffffff" stroke="#000000" points="13.2153,-111.5 13.2153,-235.5 128.3999,-235.5 128.3999,-111.5 13.2153,-111.5"/>
<text text-anchor="start" x="21.2153" y="-223.5" font-family="Helvetica,sans-Serif" font-size="10.00" fill="#000000">CKFinder_Connector</text>
<text text-anchor="middle" x="70.8076" y="-213.5" font-family="Helvetica,sans-Serif" font-size="10.00" fill="#000000">_ErrorHandler_Base</text>
<polyline fill="none" stroke="#000000" points="13.2153,-207.5 128.3999,-207.5 "/>
<text text-anchor="start" x="21.2153" y="-195.5" font-family="Helvetica,sans-Serif" font-size="10.00" fill="#000000">+ $_catchAllErrors</text>
<text text-anchor="start" x="21.2153" y="-185.5" font-family="Helvetica,sans-Serif" font-size="10.00" fill="#000000">+ $_skipErrorsArray</text>
<polyline fill="none" stroke="#000000" points="13.2153,-179.5 128.3999,-179.5 "/>
<text text-anchor="start" x="21.2153" y="-167.5" font-family="Helvetica,sans-Serif" font-size="10.00" fill="#000000">+ setCatchAllErros()</text>
<text text-anchor="start" x="21.2153" y="-157.5" font-family="Helvetica,sans-Serif" font-size="10.00" fill="#000000">+ setSkipErrorsArray()</text>
<text text-anchor="start" x="21.2153" y="-147.5" font-family="Helvetica,sans-Serif" font-size="10.00" fill="#000000">+ throwError()</text>
<text text-anchor="start" x="21.2153" y="-137.5" font-family="Helvetica,sans-Serif" font-size="10.00" fill="#000000">+ setCatchAllErros()</text>
<text text-anchor="start" x="21.2153" y="-127.5" font-family="Helvetica,sans-Serif" font-size="10.00" fill="#000000">+ setSkipErrorsArray()</text>
<text text-anchor="start" x="21.2153" y="-117.5" font-family="Helvetica,sans-Serif" font-size="10.00" fill="#000000">+ throwError()</text>
</a>
</g>
</g>
<!-- Node3&#45;&gt;Node2 -->
<g id="edge1" class="edge">
<title>Node3&#45;&gt;Node2</title>
<path fill="none" stroke="#191970" d="M64.0686,-101.3955C64.1181,-92.1182 64.3357,-82.9431 64.7213,-74.5643"/>
<polygon fill="none" stroke="#191970" points="60.5686,-101.474 64.0808,-111.4697 67.5685,-101.4654 60.5686,-101.474"/>
</g>
<!-- Node3&#45;&gt;Node2 -->
<g id="edge2" class="edge">
<title>Node3&#45;&gt;Node2</title>
<path fill="none" stroke="#191970" d="M77.5467,-101.3955C77.4972,-92.1182 77.2796,-82.9431 76.8939,-74.5643"/>
<polygon fill="none" stroke="#191970" points="74.0467,-101.4654 77.5344,-111.4697 81.0467,-101.474 74.0467,-101.4654"/>
</g>
</g>
</svg>
