<?xml version="1.0" encoding="UTF-8" standalone="no"?>
<!DOCTYPE svg PUBLIC "-//W3C//DTD SVG 1.1//EN"
 "http://www.w3.org/Graphics/SVG/1.1/DTD/svg11.dtd">
<!-- Generated by graphviz version 2.40.1 (20161225.0304)
 -->
<!-- Title: Swift_Plugins_Reporters_HtmlReporter Pages: 1 -->
<svg width="133pt" height="174pt"
 viewBox="0.00 0.00 133.50 174.00" xmlns="http://www.w3.org/2000/svg" xmlns:xlink="http://www.w3.org/1999/xlink">
<g id="graph0" class="graph" transform="scale(1 1) rotate(0) translate(4 170)">
<title>Swift_Plugins_Reporters_HtmlReporter</title>
<polygon fill="#ffffff" stroke="transparent" points="-4,4 -4,-170 129.4971,-170 129.4971,4 -4,4"/>
<!-- Node0 -->
<g id="node1" class="node">
<title>Node0</title>
<polygon fill="#bfbfbf" stroke="#000000" points="0,-.5 0,-64.5 125.4971,-64.5 125.4971,-.5 0,-.5"/>
<text text-anchor="start" x="8" y="-52.5" font-family="Helvetica,sans-Serif" font-size="10.00" fill="#000000">Swift_Plugins_Reporters</text>
<text text-anchor="middle" x="62.7485" y="-42.5" font-family="Helvetica,sans-Serif" font-size="10.00" fill="#000000">_HtmlReporter</text>
<polyline fill="none" stroke="#000000" points="0,-36.5 125.4971,-36.5 "/>
<text text-anchor="middle" x="62.7485" y="-24.5" font-family="Helvetica,sans-Serif" font-size="10.00" fill="#000000"> </text>
<polyline fill="none" stroke="#000000" points="0,-18.5 125.4971,-18.5 "/>
<text text-anchor="start" x="8" y="-6.5" font-family="Helvetica,sans-Serif" font-size="10.00" fill="#000000">+ notify()</text>
</g>
<!-- Node1 -->
<g id="node2" class="node">
<title>Node1</title>
<g id="a_node2"><a xlink:href="interface_swift___plugins___reporter.html" target="_top" xlink:title="{Swift_Plugins_Reporter\n|+ RESULT_PASS\l+ RESULT_FAIL\l|+ notify()\l}">
<polygon fill="#ffffff" stroke="#000000" points="2.5,-101.5 2.5,-165.5 122.9971,-165.5 122.9971,-101.5 2.5,-101.5"/>
<text text-anchor="middle" x="62.7485" y="-153.5" font-family="Helvetica,sans-Serif" font-size="10.00" fill="#000000">Swift_Plugins_Reporter</text>
<polyline fill="none" stroke="#000000" points="2.5,-147.5 122.9971,-147.5 "/>
<text text-anchor="start" x="10.5" y="-135.5" font-family="Helvetica,sans-Serif" font-size="10.00" fill="#000000">+ RESULT_PASS</text>
<text text-anchor="start" x="10.5" y="-125.5" font-family="Helvetica,sans-Serif" font-size="10.00" fill="#000000">+ RESULT_FAIL</text>
<polyline fill="none" stroke="#000000" points="2.5,-119.5 122.9971,-119.5 "/>
<text text-anchor="start" x="10.5" y="-107.5" font-family="Helvetica,sans-Serif" font-size="10.00" fill="#000000">+ notify()</text>
</a>
</g>
</g>
<!-- Node1&#45;&gt;Node0 -->
<g id="edge1" class="edge">
<title>Node1&#45;&gt;Node0</title>
<path fill="none" stroke="#191970" d="M62.7485,-91.1361C62.7485,-82.3176 62.7485,-73.1592 62.7485,-64.7749"/>
<polygon fill="none" stroke="#191970" points="59.2486,-91.2652 62.7485,-101.2653 66.2486,-91.2653 59.2486,-91.2652"/>
</g>
</g>
</svg>
