<?xml version="1.0" encoding="UTF-8" standalone="no"?>
<!DOCTYPE svg PUBLIC "-//W3C//DTD SVG 1.1//EN"
 "http://www.w3.org/Graphics/SVG/1.1/DTD/svg11.dtd">
<!-- Generated by graphviz version 2.40.1 (20161225.0304)
 -->
<!-- Title: Controller Pages: 1 -->
<svg width="177pt" height="234pt"
 viewBox="0.00 0.00 176.54 234.00" xmlns="http://www.w3.org/2000/svg" xmlns:xlink="http://www.w3.org/1999/xlink">
<g id="graph0" class="graph" transform="scale(1 1) rotate(0) translate(4 230)">
<title>Controller</title>
<polygon fill="#ffffff" stroke="transparent" points="-4,4 -4,-230 172.5439,-230 172.5439,4 -4,4"/>
<!-- Node22 -->
<g id="node1" class="node">
<title>Node22</title>
<polygon fill="#bfbfbf" stroke="#000000" points="0,-.5 0,-134.5 168.5439,-134.5 168.5439,-.5 0,-.5"/>
<text text-anchor="middle" x="84.272" y="-122.5" font-family="Helvetica,sans-Serif" font-size="10.00" fill="#000000">Controller</text>
<polyline fill="none" stroke="#000000" points="0,-116.5 168.5439,-116.5 "/>
<text text-anchor="start" x="8" y="-104.5" font-family="Helvetica,sans-Serif" font-size="10.00" fill="#000000">+ $layout</text>
<text text-anchor="start" x="8" y="-94.5" font-family="Helvetica,sans-Serif" font-size="10.00" fill="#000000">+ $title</text>
<text text-anchor="start" x="8" y="-84.5" font-family="Helvetica,sans-Serif" font-size="10.00" fill="#000000">+ $menu</text>
<text text-anchor="start" x="8" y="-74.5" font-family="Helvetica,sans-Serif" font-size="10.00" fill="#000000">+ $breadcrumbs</text>
<text text-anchor="start" x="8" y="-64.5" font-family="Helvetica,sans-Serif" font-size="10.00" fill="#000000">+ $_permissionControl</text>
<polyline fill="none" stroke="#000000" points="0,-58.5 168.5439,-58.5 "/>
<text text-anchor="start" x="8" y="-46.5" font-family="Helvetica,sans-Serif" font-size="10.00" fill="#000000">+ getUser()</text>
<text text-anchor="start" x="8" y="-36.5" font-family="Helvetica,sans-Serif" font-size="10.00" fill="#000000">+ filterUserGroupsAccessControl()</text>
<text text-anchor="start" x="8" y="-26.5" font-family="Helvetica,sans-Serif" font-size="10.00" fill="#000000">+ getMapkey()</text>
<text text-anchor="start" x="8" y="-16.5" font-family="Helvetica,sans-Serif" font-size="10.00" fill="#000000">+ filterUserGroupsAccessControl()</text>
<text text-anchor="start" x="8" y="-6.5" font-family="Helvetica,sans-Serif" font-size="10.00" fill="#000000"># beforeAction()</text>
</g>
<!-- Node23 -->
<g id="node2" class="node">
<title>Node23</title>
<polygon fill="#ffffff" stroke="#bfbfbf" points="50.9863,-171.5 50.9863,-225.5 117.5576,-225.5 117.5576,-171.5 50.9863,-171.5"/>
<text text-anchor="middle" x="84.272" y="-213.5" font-family="Helvetica,sans-Serif" font-size="10.00" fill="#000000">CController</text>
<polyline fill="none" stroke="#bfbfbf" points="50.9863,-207.5 117.5576,-207.5 "/>
<text text-anchor="middle" x="84.272" y="-195.5" font-family="Helvetica,sans-Serif" font-size="10.00" fill="#000000"> </text>
<polyline fill="none" stroke="#bfbfbf" points="50.9863,-189.5 117.5576,-189.5 "/>
<text text-anchor="middle" x="84.272" y="-177.5" font-family="Helvetica,sans-Serif" font-size="10.00" fill="#000000"> </text>
</g>
<!-- Node23&#45;&gt;Node22 -->
<g id="edge1" class="edge">
<title>Node23&#45;&gt;Node22</title>
<path fill="none" stroke="#191970" d="M78.1134,-161.2321C77.7409,-152.8764 77.5444,-143.7626 77.5238,-134.607"/>
<polygon fill="none" stroke="#191970" points="74.6266,-161.5676 78.6792,-171.3567 81.6156,-161.1769 74.6266,-161.5676"/>
</g>
<!-- Node23&#45;&gt;Node22 -->
<g id="edge2" class="edge">
<title>Node23&#45;&gt;Node22</title>
<path fill="none" stroke="#191970" d="M90.4306,-161.2321C90.8031,-152.8764 90.9996,-143.7626 91.0202,-134.607"/>
<polygon fill="none" stroke="#191970" points="86.9283,-161.1769 89.8647,-171.3567 93.9174,-161.5676 86.9283,-161.1769"/>
</g>
</g>
</svg>
