<?xml version="1.0" encoding="UTF-8" standalone="no"?>
<!DOCTYPE svg PUBLIC "-//W3C//DTD SVG 1.1//EN"
 "http://www.w3.org/Graphics/SVG/1.1/DTD/svg11.dtd">
<!-- Generated by graphviz version 2.40.1 (20161225.0304)
 -->
<!-- Title: Google_UserUndelete Pages: 1 -->
<svg width="123pt" height="204pt"
 viewBox="0.00 0.00 122.95 204.00" xmlns="http://www.w3.org/2000/svg" xmlns:xlink="http://www.w3.org/1999/xlink">
<g id="graph0" class="graph" transform="scale(1 1) rotate(0) translate(4 200)">
<title>Google_UserUndelete</title>
<polygon fill="#ffffff" stroke="transparent" points="-4,4 -4,-200 118.9502,-200 118.9502,4 -4,4"/>
<!-- Node2 -->
<g id="node1" class="node">
<title>Node2</title>
<polygon fill="#bfbfbf" stroke="#000000" points="0,-.5 0,-64.5 114.9502,-64.5 114.9502,-.5 0,-.5"/>
<text text-anchor="middle" x="57.4751" y="-52.5" font-family="Helvetica,sans-Serif" font-size="10.00" fill="#000000">Google_UserUndelete</text>
<polyline fill="none" stroke="#000000" points="0,-46.5 114.9502,-46.5 "/>
<text text-anchor="start" x="8" y="-34.5" font-family="Helvetica,sans-Serif" font-size="10.00" fill="#000000">+ $orgUnitPath</text>
<polyline fill="none" stroke="#000000" points="0,-28.5 114.9502,-28.5 "/>
<text text-anchor="start" x="8" y="-16.5" font-family="Helvetica,sans-Serif" font-size="10.00" fill="#000000">+ setOrgUnitPath()</text>
<text text-anchor="start" x="8" y="-6.5" font-family="Helvetica,sans-Serif" font-size="10.00" fill="#000000">+ getOrgUnitPath()</text>
</g>
<!-- Node3 -->
<g id="node2" class="node">
<title>Node3</title>
<g id="a_node2"><a xlink:href="class_google___model.html" target="_top" xlink:title="{Google_Model\n||+ __construct()\l+ assertIsArray()\l# mapTypes()\l# isAssociativeArray()\l# useObjects()\l}">
<polygon fill="#ffffff" stroke="#000000" points="1.1304,-101.5 1.1304,-195.5 113.8198,-195.5 113.8198,-101.5 1.1304,-101.5"/>
<text text-anchor="middle" x="57.4751" y="-183.5" font-family="Helvetica,sans-Serif" font-size="10.00" fill="#000000">Google_Model</text>
<polyline fill="none" stroke="#000000" points="1.1304,-177.5 113.8198,-177.5 "/>
<text text-anchor="middle" x="57.4751" y="-165.5" font-family="Helvetica,sans-Serif" font-size="10.00" fill="#000000"> </text>
<polyline fill="none" stroke="#000000" points="1.1304,-159.5 113.8198,-159.5 "/>
<text text-anchor="start" x="9.1304" y="-147.5" font-family="Helvetica,sans-Serif" font-size="10.00" fill="#000000">+ __construct()</text>
<text text-anchor="start" x="9.1304" y="-137.5" font-family="Helvetica,sans-Serif" font-size="10.00" fill="#000000">+ assertIsArray()</text>
<text text-anchor="start" x="9.1304" y="-127.5" font-family="Helvetica,sans-Serif" font-size="10.00" fill="#000000"># mapTypes()</text>
<text text-anchor="start" x="9.1304" y="-117.5" font-family="Helvetica,sans-Serif" font-size="10.00" fill="#000000"># isAssociativeArray()</text>
<text text-anchor="start" x="9.1304" y="-107.5" font-family="Helvetica,sans-Serif" font-size="10.00" fill="#000000"># useObjects()</text>
</a>
</g>
</g>
<!-- Node3&#45;&gt;Node2 -->
<g id="edge1" class="edge">
<title>Node3&#45;&gt;Node2</title>
<path fill="none" stroke="#191970" d="M57.4751,-91.1299C57.4751,-82.0561 57.4751,-72.9618 57.4751,-64.7354"/>
<polygon fill="none" stroke="#191970" points="53.9752,-91.3183 57.4751,-101.3184 60.9752,-91.3184 53.9752,-91.3183"/>
</g>
</g>
</svg>
