<?xml version="1.0" encoding="UTF-8" standalone="no"?>
<!DOCTYPE svg PUBLIC "-//W3C//DTD SVG 1.1//EN"
 "http://www.w3.org/Graphics/SVG/1.1/DTD/svg11.dtd">
<!-- Generated by graphviz version 2.40.1 (20161225.0304)
 -->
<!-- Title: Google_LayersServiceResource Pages: 1 -->
<svg width="168pt" height="194pt"
 viewBox="0.00 0.00 167.96 194.00" xmlns="http://www.w3.org/2000/svg" xmlns:xlink="http://www.w3.org/1999/xlink">
<g id="graph0" class="graph" transform="scale(1 1) rotate(0) translate(4 190)">
<title>Google_LayersServiceResource</title>
<polygon fill="#ffffff" stroke="transparent" points="-4,4 -4,-190 163.9648,-190 163.9648,4 -4,4"/>
<!-- Node2 -->
<g id="node1" class="node">
<title>Node2</title>
<polygon fill="#bfbfbf" stroke="#000000" points="0,-.5 0,-64.5 159.9648,-64.5 159.9648,-.5 0,-.5"/>
<text text-anchor="middle" x="79.9824" y="-52.5" font-family="Helvetica,sans-Serif" font-size="10.00" fill="#000000">Google_LayersServiceResource</text>
<polyline fill="none" stroke="#000000" points="0,-46.5 159.9648,-46.5 "/>
<text text-anchor="middle" x="79.9824" y="-34.5" font-family="Helvetica,sans-Serif" font-size="10.00" fill="#000000"> </text>
<polyline fill="none" stroke="#000000" points="0,-28.5 159.9648,-28.5 "/>
<text text-anchor="start" x="8" y="-16.5" font-family="Helvetica,sans-Serif" font-size="10.00" fill="#000000">+ get()</text>
<text text-anchor="start" x="8" y="-6.5" font-family="Helvetica,sans-Serif" font-size="10.00" fill="#000000">+ listLayers()</text>
</g>
<!-- Node3 -->
<g id="node2" class="node">
<title>Node3</title>
<g id="a_node2"><a xlink:href="class_google___service_resource.html" target="_top" xlink:title="{Google_ServiceResource\n||+ __construct()\l+ __call()\l+ useObjects()\l# stripNull()\l}">
<polygon fill="#ffffff" stroke="#000000" points="15.0073,-101.5 15.0073,-185.5 144.9575,-185.5 144.9575,-101.5 15.0073,-101.5"/>
<text text-anchor="middle" x="79.9824" y="-173.5" font-family="Helvetica,sans-Serif" font-size="10.00" fill="#000000">Google_ServiceResource</text>
<polyline fill="none" stroke="#000000" points="15.0073,-167.5 144.9575,-167.5 "/>
<text text-anchor="middle" x="79.9824" y="-155.5" font-family="Helvetica,sans-Serif" font-size="10.00" fill="#000000"> </text>
<polyline fill="none" stroke="#000000" points="15.0073,-149.5 144.9575,-149.5 "/>
<text text-anchor="start" x="23.0073" y="-137.5" font-family="Helvetica,sans-Serif" font-size="10.00" fill="#000000">+ __construct()</text>
<text text-anchor="start" x="23.0073" y="-127.5" font-family="Helvetica,sans-Serif" font-size="10.00" fill="#000000">+ __call()</text>
<text text-anchor="start" x="23.0073" y="-117.5" font-family="Helvetica,sans-Serif" font-size="10.00" fill="#000000">+ useObjects()</text>
<text text-anchor="start" x="23.0073" y="-107.5" font-family="Helvetica,sans-Serif" font-size="10.00" fill="#000000"># stripNull()</text>
</a>
</g>
</g>
<!-- Node3&#45;&gt;Node2 -->
<g id="edge1" class="edge">
<title>Node3&#45;&gt;Node2</title>
<path fill="none" stroke="#191970" d="M79.9824,-91.1185C79.9824,-82.0854 79.9824,-72.9418 79.9824,-64.6489"/>
<polygon fill="none" stroke="#191970" points="76.4825,-91.219 79.9824,-101.219 83.4825,-91.219 76.4825,-91.219"/>
</g>
</g>
</svg>
