<?xml version="1.0" encoding="UTF-8" standalone="no"?>
<!DOCTYPE svg PUBLIC "-//W3C//DTD SVG 1.1//EN"
 "http://www.w3.org/Graphics/SVG/1.1/DTD/svg11.dtd">
<!-- Generated by graphviz version 2.40.1 (20161225.0304)
 -->
<!-- Title: Swift_Plugins_LoggerPlugin Pages: 1 -->
<svg width="836pt" height="385pt"
 viewBox="0.00 0.00 835.90 385.00" xmlns="http://www.w3.org/2000/svg" xmlns:xlink="http://www.w3.org/1999/xlink">
<g id="graph0" class="graph" transform="scale(1 1) rotate(0) translate(4 381)">
<title>Swift_Plugins_LoggerPlugin</title>
<polygon fill="#ffffff" stroke="transparent" points="-4,4 -4,-381 831.8984,-381 831.8984,4 -4,4"/>
<!-- Node7 -->
<g id="node1" class="node">
<title>Node7</title>
<polygon fill="#bfbfbf" stroke="#000000" points="365.271,-.5 365.271,-154.5 505.7974,-154.5 505.7974,-.5 365.271,-.5"/>
<text text-anchor="middle" x="435.5342" y="-142.5" font-family="Helvetica,sans-Serif" font-size="10.00" fill="#000000">Swift_Plugins_LoggerPlugin</text>
<polyline fill="none" stroke="#000000" points="365.271,-136.5 505.7974,-136.5 "/>
<text text-anchor="middle" x="435.5342" y="-124.5" font-family="Helvetica,sans-Serif" font-size="10.00" fill="#000000"> </text>
<polyline fill="none" stroke="#000000" points="365.271,-118.5 505.7974,-118.5 "/>
<text text-anchor="start" x="373.271" y="-106.5" font-family="Helvetica,sans-Serif" font-size="10.00" fill="#000000">+ __construct()</text>
<text text-anchor="start" x="373.271" y="-96.5" font-family="Helvetica,sans-Serif" font-size="10.00" fill="#000000">+ add()</text>
<text text-anchor="start" x="373.271" y="-86.5" font-family="Helvetica,sans-Serif" font-size="10.00" fill="#000000">+ clear()</text>
<text text-anchor="start" x="373.271" y="-76.5" font-family="Helvetica,sans-Serif" font-size="10.00" fill="#000000">+ dump()</text>
<text text-anchor="start" x="373.271" y="-66.5" font-family="Helvetica,sans-Serif" font-size="10.00" fill="#000000">+ commandSent()</text>
<text text-anchor="start" x="373.271" y="-56.5" font-family="Helvetica,sans-Serif" font-size="10.00" fill="#000000">+ responseReceived()</text>
<text text-anchor="start" x="373.271" y="-46.5" font-family="Helvetica,sans-Serif" font-size="10.00" fill="#000000">+ beforeTransportStarted()</text>
<text text-anchor="start" x="373.271" y="-36.5" font-family="Helvetica,sans-Serif" font-size="10.00" fill="#000000">+ transportStarted()</text>
<text text-anchor="start" x="373.271" y="-26.5" font-family="Helvetica,sans-Serif" font-size="10.00" fill="#000000">+ beforeTransportStopped()</text>
<text text-anchor="start" x="373.271" y="-16.5" font-family="Helvetica,sans-Serif" font-size="10.00" fill="#000000">+ transportStopped()</text>
<text text-anchor="start" x="373.271" y="-6.5" font-family="Helvetica,sans-Serif" font-size="10.00" fill="#000000">+ exceptionThrown()</text>
</g>
<!-- Node8 -->
<g id="node2" class="node">
<title>Node8</title>
<g id="a_node2"><a xlink:href="interface_swift___events___command_listener.html" target="_top" xlink:title="{Swift_Events_CommandListener\n||+ commandSent()\l}">
<polygon fill="#ffffff" stroke="#000000" points="0,-211.5 0,-265.5 161.0684,-265.5 161.0684,-211.5 0,-211.5"/>
<text text-anchor="middle" x="80.5342" y="-253.5" font-family="Helvetica,sans-Serif" font-size="10.00" fill="#000000">Swift_Events_CommandListener</text>
<polyline fill="none" stroke="#000000" points="0,-247.5 161.0684,-247.5 "/>
<text text-anchor="middle" x="80.5342" y="-235.5" font-family="Helvetica,sans-Serif" font-size="10.00" fill="#000000"> </text>
<polyline fill="none" stroke="#000000" points="0,-229.5 161.0684,-229.5 "/>
<text text-anchor="start" x="8" y="-217.5" font-family="Helvetica,sans-Serif" font-size="10.00" fill="#000000">+ commandSent()</text>
</a>
</g>
</g>
<!-- Node8&#45;&gt;Node7 -->
<g id="edge1" class="edge">
<title>Node8&#45;&gt;Node7</title>
<path fill="none" stroke="#191970" d="M139.1553,-206.6871C149.5356,-201.3049 160.2976,-195.8836 170.5342,-191 235.5816,-159.9672 311.2984,-127.9342 365.1,-105.8452"/>
<polygon fill="none" stroke="#191970" points="137.3951,-203.6578 130.1543,-211.3923 140.638,-209.8613 137.3951,-203.6578"/>
</g>
<!-- Node9 -->
<g id="node3" class="node">
<title>Node9</title>
<g id="a_node3"><a xlink:href="interface_swift___events___event_listener.html" target="_top" xlink:title="{Swift_Events_EventListener\n||}">
<polygon fill="#ffffff" stroke="#000000" points="277.2783,-322.5 277.2783,-376.5 417.79,-376.5 417.79,-322.5 277.2783,-322.5"/>
<text text-anchor="middle" x="347.5342" y="-364.5" font-family="Helvetica,sans-Serif" font-size="10.00" fill="#000000">Swift_Events_EventListener</text>
<polyline fill="none" stroke="#000000" points="277.2783,-358.5 417.79,-358.5 "/>
<text text-anchor="middle" x="347.5342" y="-346.5" font-family="Helvetica,sans-Serif" font-size="10.00" fill="#000000"> </text>
<polyline fill="none" stroke="#000000" points="277.2783,-340.5 417.79,-340.5 "/>
<text text-anchor="middle" x="347.5342" y="-328.5" font-family="Helvetica,sans-Serif" font-size="10.00" fill="#000000"> </text>
</a>
</g>
</g>
<!-- Node9&#45;&gt;Node8 -->
<g id="edge2" class="edge">
<title>Node9&#45;&gt;Node8</title>
<path fill="none" stroke="#191970" d="M267.0917,-323.3334C236.4866,-312.6797 201.5355,-299.6603 170.5342,-286 156.7917,-279.9446 142.253,-272.6737 128.9619,-265.6621"/>
<polygon fill="none" stroke="#191970" points="266.2705,-326.7525 276.8652,-326.7071 268.5546,-320.1356 266.2705,-326.7525"/>
</g>
<!-- Node10 -->
<g id="node4" class="node">
<title>Node10</title>
<g id="a_node4"><a xlink:href="interface_swift___events___response_listener.html" target="_top" xlink:title="{Swift_Events_ResponseListener\n||+ responseReceived()\l}">
<polygon fill="#ffffff" stroke="#000000" points="179.5493,-211.5 179.5493,-265.5 339.519,-265.5 339.519,-211.5 179.5493,-211.5"/>
<text text-anchor="middle" x="259.5342" y="-253.5" font-family="Helvetica,sans-Serif" font-size="10.00" fill="#000000">Swift_Events_ResponseListener</text>
<polyline fill="none" stroke="#000000" points="179.5493,-247.5 339.519,-247.5 "/>
<text text-anchor="middle" x="259.5342" y="-235.5" font-family="Helvetica,sans-Serif" font-size="10.00" fill="#000000"> </text>
<polyline fill="none" stroke="#000000" points="179.5493,-229.5 339.519,-229.5 "/>
<text text-anchor="start" x="187.5493" y="-217.5" font-family="Helvetica,sans-Serif" font-size="10.00" fill="#000000">+ responseReceived()</text>
</a>
</g>
</g>
<!-- Node9&#45;&gt;Node10 -->
<g id="edge4" class="edge">
<title>Node9&#45;&gt;Node10</title>
<path fill="none" stroke="#191970" d="M319.6998,-314.3908C307.2395,-298.6737 292.7702,-280.4227 281.1442,-265.758"/>
<polygon fill="none" stroke="#191970" points="317.0518,-316.6845 326.007,-322.3463 322.5371,-312.3358 317.0518,-316.6845"/>
</g>
<!-- Node11 -->
<g id="node5" class="node">
<title>Node11</title>
<g id="a_node5"><a xlink:href="interface_swift___events___transport_change_listener.html" target="_top" xlink:title="{Swift_Events_TransportChange\lListener\n||+ beforeTransportStarted()\l+ transportStarted()\l+ beforeTransportStopped()\l+ transportStopped()\l}">
<polygon fill="#ffffff" stroke="#000000" points="357.124,-191.5 357.124,-285.5 513.9443,-285.5 513.9443,-191.5 357.124,-191.5"/>
<text text-anchor="start" x="365.124" y="-273.5" font-family="Helvetica,sans-Serif" font-size="10.00" fill="#000000">Swift_Events_TransportChange</text>
<text text-anchor="middle" x="435.5342" y="-263.5" font-family="Helvetica,sans-Serif" font-size="10.00" fill="#000000">Listener</text>
<polyline fill="none" stroke="#000000" points="357.124,-257.5 513.9443,-257.5 "/>
<text text-anchor="middle" x="435.5342" y="-245.5" font-family="Helvetica,sans-Serif" font-size="10.00" fill="#000000"> </text>
<polyline fill="none" stroke="#000000" points="357.124,-239.5 513.9443,-239.5 "/>
<text text-anchor="start" x="365.124" y="-227.5" font-family="Helvetica,sans-Serif" font-size="10.00" fill="#000000">+ beforeTransportStarted()</text>
<text text-anchor="start" x="365.124" y="-217.5" font-family="Helvetica,sans-Serif" font-size="10.00" fill="#000000">+ transportStarted()</text>
<text text-anchor="start" x="365.124" y="-207.5" font-family="Helvetica,sans-Serif" font-size="10.00" fill="#000000">+ beforeTransportStopped()</text>
<text text-anchor="start" x="365.124" y="-197.5" font-family="Helvetica,sans-Serif" font-size="10.00" fill="#000000">+ transportStopped()</text>
</a>
</g>
</g>
<!-- Node9&#45;&gt;Node11 -->
<g id="edge6" class="edge">
<title>Node9&#45;&gt;Node11</title>
<path fill="none" stroke="#191970" d="M375.4556,-314.281C382.6509,-305.2051 390.5113,-295.2903 398.1046,-285.7123"/>
<polygon fill="none" stroke="#191970" points="372.5312,-312.3358 369.0614,-322.3463 378.0166,-316.6845 372.5312,-312.3358"/>
</g>
<!-- Node12 -->
<g id="node6" class="node">
<title>Node12</title>
<g id="a_node6"><a xlink:href="interface_swift___events___transport_exception_listener.html" target="_top" xlink:title="{Swift_Events_TransportException\lListener\n||+ exceptionThrown()\l}">
<polygon fill="#ffffff" stroke="#000000" points="531.6807,-206.5 531.6807,-270.5 697.3877,-270.5 697.3877,-206.5 531.6807,-206.5"/>
<text text-anchor="start" x="539.6807" y="-258.5" font-family="Helvetica,sans-Serif" font-size="10.00" fill="#000000">Swift_Events_TransportException</text>
<text text-anchor="middle" x="614.5342" y="-248.5" font-family="Helvetica,sans-Serif" font-size="10.00" fill="#000000">Listener</text>
<polyline fill="none" stroke="#000000" points="531.6807,-242.5 697.3877,-242.5 "/>
<text text-anchor="middle" x="614.5342" y="-230.5" font-family="Helvetica,sans-Serif" font-size="10.00" fill="#000000"> </text>
<polyline fill="none" stroke="#000000" points="531.6807,-224.5 697.3877,-224.5 "/>
<text text-anchor="start" x="539.6807" y="-212.5" font-family="Helvetica,sans-Serif" font-size="10.00" fill="#000000">+ exceptionThrown()</text>
</a>
</g>
</g>
<!-- Node9&#45;&gt;Node12 -->
<g id="edge8" class="edge">
<title>Node9&#45;&gt;Node12</title>
<path fill="none" stroke="#191970" d="M427.7766,-322.8215C457.8369,-312.1931 492.0739,-299.324 522.5342,-286 533.2389,-281.3175 544.4387,-275.9506 555.1921,-270.5487"/>
<polygon fill="none" stroke="#191970" points="426.4506,-319.5775 418.1737,-326.1913 428.7685,-326.1826 426.4506,-319.5775"/>
</g>
<!-- Node10&#45;&gt;Node7 -->
<g id="edge3" class="edge">
<title>Node10&#45;&gt;Node7</title>
<path fill="none" stroke="#191970" d="M297.0064,-204.2214C316.8614,-186.0587 341.9065,-163.148 365.2235,-141.8183"/>
<polygon fill="none" stroke="#191970" points="294.4063,-201.8564 289.3902,-211.1885 299.1311,-207.0213 294.4063,-201.8564"/>
</g>
<!-- Node11&#45;&gt;Node7 -->
<g id="edge5" class="edge">
<title>Node11&#45;&gt;Node7</title>
<path fill="none" stroke="#191970" d="M435.5342,-181.4698C435.5342,-172.7448 435.5342,-163.6167 435.5342,-154.5472"/>
<polygon fill="none" stroke="#191970" points="432.0343,-181.4993 435.5342,-191.4993 439.0343,-181.4994 432.0343,-181.4993"/>
</g>
<!-- Node12&#45;&gt;Node7 -->
<g id="edge7" class="edge">
<title>Node12&#45;&gt;Node7</title>
<path fill="none" stroke="#191970" d="M571.1838,-199.5089C551.637,-181.9276 528.0471,-160.7099 506.0589,-140.9328"/>
<polygon fill="none" stroke="#191970" points="568.9655,-202.2211 578.7411,-206.3062 573.6466,-197.0166 568.9655,-202.2211"/>
</g>
<!-- Node13 -->
<g id="node7" class="node">
<title>Node13</title>
<g id="a_node7"><a xlink:href="interface_swift___plugins___logger.html" target="_top" xlink:title="{Swift_Plugins_Logger\n||+ add()\l+ clear()\l+ dump()\l}">
<polygon fill="#ffffff" stroke="#000000" points="715.1699,-201.5 715.1699,-275.5 827.8984,-275.5 827.8984,-201.5 715.1699,-201.5"/>
<text text-anchor="middle" x="771.5342" y="-263.5" font-family="Helvetica,sans-Serif" font-size="10.00" fill="#000000">Swift_Plugins_Logger</text>
<polyline fill="none" stroke="#000000" points="715.1699,-257.5 827.8984,-257.5 "/>
<text text-anchor="middle" x="771.5342" y="-245.5" font-family="Helvetica,sans-Serif" font-size="10.00" fill="#000000"> </text>
<polyline fill="none" stroke="#000000" points="715.1699,-239.5 827.8984,-239.5 "/>
<text text-anchor="start" x="723.1699" y="-227.5" font-family="Helvetica,sans-Serif" font-size="10.00" fill="#000000">+ add()</text>
<text text-anchor="start" x="723.1699" y="-217.5" font-family="Helvetica,sans-Serif" font-size="10.00" fill="#000000">+ clear()</text>
<text text-anchor="start" x="723.1699" y="-207.5" font-family="Helvetica,sans-Serif" font-size="10.00" fill="#000000">+ dump()</text>
</a>
</g>
</g>
<!-- Node13&#45;&gt;Node7 -->
<g id="edge9" class="edge">
<title>Node13&#45;&gt;Node7</title>
<path fill="none" stroke="#191970" d="M714.9711,-196.0082C712.1548,-194.2597 709.3337,-192.5801 706.5342,-191 641.3463,-154.2063 561.8429,-122.2991 505.8577,-101.7668"/>
<polygon fill="none" stroke="#191970" points="713.0779,-198.9519 723.379,-201.4295 716.8713,-193.0688 713.0779,-198.9519"/>
</g>
</g>
</svg>
