<?xml version="1.0" encoding="UTF-8" standalone="no"?>
<!DOCTYPE svg PUBLIC "-//W3C//DTD SVG 1.1//EN"
 "http://www.w3.org/Graphics/SVG/1.1/DTD/svg11.dtd">
<!-- Generated by graphviz version 2.40.1 (20161225.0304)
 -->
<!-- Title: CKFinder_Connector_ErrorHandler_Base Pages: 1 -->
<svg width="428pt" height="244pt"
 viewBox="0.00 0.00 427.89 244.00" xmlns="http://www.w3.org/2000/svg" xmlns:xlink="http://www.w3.org/1999/xlink">
<g id="graph0" class="graph" transform="scale(1 1) rotate(0) translate(4 240)">
<title>CKFinder_Connector_ErrorHandler_Base</title>
<polygon fill="#ffffff" stroke="transparent" points="-4,4 -4,-240 423.8911,-240 423.8911,4 -4,4"/>
<!-- Node0 -->
<g id="node1" class="node">
<title>Node0</title>
<polygon fill="#bfbfbf" stroke="#000000" points="147.4912,-111.5 147.4912,-235.5 262.6758,-235.5 262.6758,-111.5 147.4912,-111.5"/>
<text text-anchor="start" x="155.4912" y="-223.5" font-family="Helvetica,sans-Serif" font-size="10.00" fill="#000000">CKFinder_Connector</text>
<text text-anchor="middle" x="205.0835" y="-213.5" font-family="Helvetica,sans-Serif" font-size="10.00" fill="#000000">_ErrorHandler_Base</text>
<polyline fill="none" stroke="#000000" points="147.4912,-207.5 262.6758,-207.5 "/>
<text text-anchor="start" x="155.4912" y="-195.5" font-family="Helvetica,sans-Serif" font-size="10.00" fill="#000000">+ $_catchAllErrors</text>
<text text-anchor="start" x="155.4912" y="-185.5" font-family="Helvetica,sans-Serif" font-size="10.00" fill="#000000">+ $_skipErrorsArray</text>
<polyline fill="none" stroke="#000000" points="147.4912,-179.5 262.6758,-179.5 "/>
<text text-anchor="start" x="155.4912" y="-167.5" font-family="Helvetica,sans-Serif" font-size="10.00" fill="#000000">+ setCatchAllErros()</text>
<text text-anchor="start" x="155.4912" y="-157.5" font-family="Helvetica,sans-Serif" font-size="10.00" fill="#000000">+ setSkipErrorsArray()</text>
<text text-anchor="start" x="155.4912" y="-147.5" font-family="Helvetica,sans-Serif" font-size="10.00" fill="#000000">+ throwError()</text>
<text text-anchor="start" x="155.4912" y="-137.5" font-family="Helvetica,sans-Serif" font-size="10.00" fill="#000000">+ setCatchAllErros()</text>
<text text-anchor="start" x="155.4912" y="-127.5" font-family="Helvetica,sans-Serif" font-size="10.00" fill="#000000">+ setSkipErrorsArray()</text>
<text text-anchor="start" x="155.4912" y="-117.5" font-family="Helvetica,sans-Serif" font-size="10.00" fill="#000000">+ throwError()</text>
</g>
<!-- Node1 -->
<g id="node2" class="node">
<title>Node1</title>
<g id="a_node2"><a xlink:href="class_c_k_finder___connector___error_handler___file_upload.html" target="_top" xlink:title="{CKFinder_Connector\l_ErrorHandler_FileUpload\n||+ throwError()\l+ throwError()\l}">
<polygon fill="#ffffff" stroke="#000000" points="0,-.5 0,-74.5 132.167,-74.5 132.167,-.5 0,-.5"/>
<text text-anchor="start" x="8" y="-62.5" font-family="Helvetica,sans-Serif" font-size="10.00" fill="#000000">CKFinder_Connector</text>
<text text-anchor="middle" x="66.0835" y="-52.5" font-family="Helvetica,sans-Serif" font-size="10.00" fill="#000000">_ErrorHandler_FileUpload</text>
<polyline fill="none" stroke="#000000" points="0,-46.5 132.167,-46.5 "/>
<text text-anchor="middle" x="66.0835" y="-34.5" font-family="Helvetica,sans-Serif" font-size="10.00" fill="#000000"> </text>
<polyline fill="none" stroke="#000000" points="0,-28.5 132.167,-28.5 "/>
<text text-anchor="start" x="8" y="-16.5" font-family="Helvetica,sans-Serif" font-size="10.00" fill="#000000">+ throwError()</text>
<text text-anchor="start" x="8" y="-6.5" font-family="Helvetica,sans-Serif" font-size="10.00" fill="#000000">+ throwError()</text>
</a>
</g>
</g>
<!-- Node0&#45;&gt;Node1 -->
<g id="edge1" class="edge">
<title>Node0&#45;&gt;Node1</title>
<path fill="none" stroke="#191970" d="M139.6587,-116.0208C125.2133,-102.0761 110.5363,-87.5265 98.104,-74.7947"/>
<polygon fill="none" stroke="#191970" points="137.5423,-118.8411 147.1785,-123.245 142.3919,-113.7931 137.5423,-118.8411"/>
</g>
<!-- Node0&#45;&gt;Node1 -->
<g id="edge2" class="edge">
<title>Node0&#45;&gt;Node1</title>
<path fill="none" stroke="#191970" d="M141.1665,-104.359C130.6448,-94.0793 119.953,-83.8344 110.0517,-74.5643"/>
<polygon fill="none" stroke="#191970" points="138.8231,-106.9632 148.4117,-111.4697 143.7263,-101.9672 138.8231,-106.9632"/>
</g>
<!-- Node2 -->
<g id="node3" class="node">
<title>Node2</title>
<g id="a_node3"><a xlink:href="class_c_k_finder___connector___error_handler___http.html" target="_top" xlink:title="{CKFinder_Connector\l_ErrorHandler_Http\n||+ throwError()\l+ throwError()\l}">
<polygon fill="#ffffff" stroke="#000000" points="150.1157,-.5 150.1157,-74.5 260.0513,-74.5 260.0513,-.5 150.1157,-.5"/>
<text text-anchor="start" x="158.1157" y="-62.5" font-family="Helvetica,sans-Serif" font-size="10.00" fill="#000000">CKFinder_Connector</text>
<text text-anchor="middle" x="205.0835" y="-52.5" font-family="Helvetica,sans-Serif" font-size="10.00" fill="#000000">_ErrorHandler_Http</text>
<polyline fill="none" stroke="#000000" points="150.1157,-46.5 260.0513,-46.5 "/>
<text text-anchor="middle" x="205.0835" y="-34.5" font-family="Helvetica,sans-Serif" font-size="10.00" fill="#000000"> </text>
<polyline fill="none" stroke="#000000" points="150.1157,-28.5 260.0513,-28.5 "/>
<text text-anchor="start" x="158.1157" y="-16.5" font-family="Helvetica,sans-Serif" font-size="10.00" fill="#000000">+ throwError()</text>
<text text-anchor="start" x="158.1157" y="-6.5" font-family="Helvetica,sans-Serif" font-size="10.00" fill="#000000">+ throwError()</text>
</a>
</g>
</g>
<!-- Node0&#45;&gt;Node2 -->
<g id="edge3" class="edge">
<title>Node0&#45;&gt;Node2</title>
<path fill="none" stroke="#191970" d="M198.3444,-101.3955C198.394,-92.1182 198.6115,-82.9431 198.9972,-74.5643"/>
<polygon fill="none" stroke="#191970" points="194.8444,-101.474 198.3567,-111.4697 201.8444,-101.4654 194.8444,-101.474"/>
</g>
<!-- Node0&#45;&gt;Node2 -->
<g id="edge4" class="edge">
<title>Node0&#45;&gt;Node2</title>
<path fill="none" stroke="#191970" d="M211.8226,-101.3955C211.773,-92.1182 211.5555,-82.9431 211.1698,-74.5643"/>
<polygon fill="none" stroke="#191970" points="208.3226,-101.4654 211.8103,-111.4697 215.3226,-101.474 208.3226,-101.4654"/>
</g>
<!-- Node3 -->
<g id="node4" class="node">
<title>Node3</title>
<g id="a_node4"><a xlink:href="class_c_k_finder___connector___error_handler___quick_upload.html" target="_top" xlink:title="{CKFinder_Connector\l_ErrorHandler_QuickUpload\n||+ throwError()\l+ throwError()\l}">
<polygon fill="#ffffff" stroke="#000000" points="278.2759,-.5 278.2759,-74.5 419.8911,-74.5 419.8911,-.5 278.2759,-.5"/>
<text text-anchor="start" x="286.2759" y="-62.5" font-family="Helvetica,sans-Serif" font-size="10.00" fill="#000000">CKFinder_Connector</text>
<text text-anchor="middle" x="349.0835" y="-52.5" font-family="Helvetica,sans-Serif" font-size="10.00" fill="#000000">_ErrorHandler_QuickUpload</text>
<polyline fill="none" stroke="#000000" points="278.2759,-46.5 419.8911,-46.5 "/>
<text text-anchor="middle" x="349.0835" y="-34.5" font-family="Helvetica,sans-Serif" font-size="10.00" fill="#000000"> </text>
<polyline fill="none" stroke="#000000" points="278.2759,-28.5 419.8911,-28.5 "/>
<text text-anchor="start" x="286.2759" y="-16.5" font-family="Helvetica,sans-Serif" font-size="10.00" fill="#000000">+ throwError()</text>
<text text-anchor="start" x="286.2759" y="-6.5" font-family="Helvetica,sans-Serif" font-size="10.00" fill="#000000">+ throwError()</text>
</a>
</g>
</g>
<!-- Node0&#45;&gt;Node3 -->
<g id="edge5" class="edge">
<title>Node0&#45;&gt;Node3</title>
<path fill="none" stroke="#191970" d="M270.1231,-105.6987C281.3559,-95.0874 292.8146,-84.4697 303.405,-74.8791"/>
<polygon fill="none" stroke="#191970" points="267.6313,-103.2382 262.7856,-112.6601 272.4492,-108.3165 267.6313,-103.2382"/>
</g>
<!-- Node0&#45;&gt;Node3 -->
<g id="edge6" class="edge">
<title>Node0&#45;&gt;Node3</title>
<path fill="none" stroke="#191970" d="M270.4342,-118.0573C286.182,-103.4144 302.3516,-87.9666 315.9309,-74.5587"/>
<polygon fill="none" stroke="#191970" points="267.7123,-115.8074 262.7505,-125.1686 272.467,-120.9448 267.7123,-115.8074"/>
</g>
</g>
</svg>
