<?xml version="1.0" encoding="UTF-8" standalone="no"?>
<!DOCTYPE svg PUBLIC "-//W3C//DTD SVG 1.1//EN"
 "http://www.w3.org/Graphics/SVG/1.1/DTD/svg11.dtd">
<!-- Generated by graphviz version 2.40.1 (20161225.0304)
 -->
<!-- Title: Google_GanService Pages: 1 -->
<svg width="114pt" height="224pt"
 viewBox="0.00 0.00 114.05 224.00" xmlns="http://www.w3.org/2000/svg" xmlns:xlink="http://www.w3.org/1999/xlink">
<g id="graph0" class="graph" transform="scale(1 1) rotate(0) translate(4 220)">
<title>Google_GanService</title>
<polygon fill="#ffffff" stroke="transparent" points="-4,4 -4,-220 110.0537,-220 110.0537,4 -4,4"/>
<!-- Node2 -->
<g id="node1" class="node">
<title>Node2</title>
<polygon fill="#bfbfbf" stroke="#000000" points="0,-.5 0,-104.5 106.0537,-104.5 106.0537,-.5 0,-.5"/>
<text text-anchor="middle" x="53.0269" y="-92.5" font-family="Helvetica,sans-Serif" font-size="10.00" fill="#000000">Google_GanService</text>
<polyline fill="none" stroke="#000000" points="0,-86.5 106.0537,-86.5 "/>
<text text-anchor="start" x="8" y="-74.5" font-family="Helvetica,sans-Serif" font-size="10.00" fill="#000000">+ $advertisers</text>
<text text-anchor="start" x="8" y="-64.5" font-family="Helvetica,sans-Serif" font-size="10.00" fill="#000000">+ $ccOffers</text>
<text text-anchor="start" x="8" y="-54.5" font-family="Helvetica,sans-Serif" font-size="10.00" fill="#000000">+ $events</text>
<text text-anchor="start" x="8" y="-44.5" font-family="Helvetica,sans-Serif" font-size="10.00" fill="#000000">+ $links</text>
<text text-anchor="start" x="8" y="-34.5" font-family="Helvetica,sans-Serif" font-size="10.00" fill="#000000">+ $publishers</text>
<text text-anchor="start" x="8" y="-24.5" font-family="Helvetica,sans-Serif" font-size="10.00" fill="#000000">+ $reports</text>
<polyline fill="none" stroke="#000000" points="0,-18.5 106.0537,-18.5 "/>
<text text-anchor="start" x="8" y="-6.5" font-family="Helvetica,sans-Serif" font-size="10.00" fill="#000000">+ __construct()</text>
</g>
<!-- Node3 -->
<g id="node2" class="node">
<title>Node3</title>
<g id="a_node2"><a xlink:href="class_google___service.html" target="_top" xlink:title="{Google_Service\n|+ $version\l+ $servicePath\l+ $resource\l|}">
<polygon fill="#ffffff" stroke="#000000" points="9.4507,-141.5 9.4507,-215.5 96.603,-215.5 96.603,-141.5 9.4507,-141.5"/>
<text text-anchor="middle" x="53.0269" y="-203.5" font-family="Helvetica,sans-Serif" font-size="10.00" fill="#000000">Google_Service</text>
<polyline fill="none" stroke="#000000" points="9.4507,-197.5 96.603,-197.5 "/>
<text text-anchor="start" x="17.4507" y="-185.5" font-family="Helvetica,sans-Serif" font-size="10.00" fill="#000000">+ $version</text>
<text text-anchor="start" x="17.4507" y="-175.5" font-family="Helvetica,sans-Serif" font-size="10.00" fill="#000000">+ $servicePath</text>
<text text-anchor="start" x="17.4507" y="-165.5" font-family="Helvetica,sans-Serif" font-size="10.00" fill="#000000">+ $resource</text>
<polyline fill="none" stroke="#000000" points="9.4507,-159.5 96.603,-159.5 "/>
<text text-anchor="middle" x="53.0269" y="-147.5" font-family="Helvetica,sans-Serif" font-size="10.00" fill="#000000"> </text>
</a>
</g>
</g>
<!-- Node3&#45;&gt;Node2 -->
<g id="edge1" class="edge">
<title>Node3&#45;&gt;Node2</title>
<path fill="none" stroke="#191970" d="M53.0269,-131.131C53.0269,-122.5233 53.0269,-113.5001 53.0269,-104.761"/>
<polygon fill="none" stroke="#191970" points="49.527,-131.3773 53.0269,-141.3773 56.527,-131.3774 49.527,-131.3773"/>
</g>
</g>
</svg>
