<?xml version="1.0" encoding="UTF-8" standalone="no"?>
<!DOCTYPE svg PUBLIC "-//W3C//DTD SVG 1.1//EN"
 "http://www.w3.org/Graphics/SVG/1.1/DTD/svg11.dtd">
<!-- Generated by graphviz version 2.40.1 (20161225.0304)
 -->
<!-- Title: EFancyBox Pages: 1 -->
<svg width="105pt" height="214pt"
 viewBox="0.00 0.00 104.89 214.00" xmlns="http://www.w3.org/2000/svg" xmlns:xlink="http://www.w3.org/1999/xlink">
<g id="graph0" class="graph" transform="scale(1 1) rotate(0) translate(4 210)">
<title>EFancyBox</title>
<polygon fill="#ffffff" stroke="transparent" points="-4,4 -4,-210 100.8936,-210 100.8936,4 -4,4"/>
<!-- Node2 -->
<g id="node1" class="node">
<title>Node2</title>
<polygon fill="#bfbfbf" stroke="#000000" points="0,-.5 0,-114.5 96.8936,-114.5 96.8936,-.5 0,-.5"/>
<text text-anchor="middle" x="48.4468" y="-102.5" font-family="Helvetica,sans-Serif" font-size="10.00" fill="#000000">EFancyBox</text>
<polyline fill="none" stroke="#000000" points="0,-96.5 96.8936,-96.5 "/>
<text text-anchor="start" x="8" y="-84.5" font-family="Helvetica,sans-Serif" font-size="10.00" fill="#000000">+ $id</text>
<text text-anchor="start" x="8" y="-74.5" font-family="Helvetica,sans-Serif" font-size="10.00" fill="#000000">+ $target</text>
<text text-anchor="start" x="8" y="-64.5" font-family="Helvetica,sans-Serif" font-size="10.00" fill="#000000">+ $easingEnabled</text>
<text text-anchor="start" x="8" y="-54.5" font-family="Helvetica,sans-Serif" font-size="10.00" fill="#000000">+ $mouseEnabled</text>
<text text-anchor="start" x="8" y="-44.5" font-family="Helvetica,sans-Serif" font-size="10.00" fill="#000000">+ $config</text>
<polyline fill="none" stroke="#000000" points="0,-38.5 96.8936,-38.5 "/>
<text text-anchor="start" x="8" y="-26.5" font-family="Helvetica,sans-Serif" font-size="10.00" fill="#000000">+ init()</text>
<text text-anchor="start" x="8" y="-16.5" font-family="Helvetica,sans-Serif" font-size="10.00" fill="#000000">+ run()</text>
<text text-anchor="start" x="8" y="-6.5" font-family="Helvetica,sans-Serif" font-size="10.00" fill="#000000">+ publishAssets()</text>
</g>
<!-- Node3 -->
<g id="node2" class="node">
<title>Node3</title>
<polygon fill="#ffffff" stroke="#bfbfbf" points="21.2744,-151.5 21.2744,-205.5 75.6191,-205.5 75.6191,-151.5 21.2744,-151.5"/>
<text text-anchor="middle" x="48.4468" y="-193.5" font-family="Helvetica,sans-Serif" font-size="10.00" fill="#000000">CWidget</text>
<polyline fill="none" stroke="#bfbfbf" points="21.2744,-187.5 75.6191,-187.5 "/>
<text text-anchor="middle" x="48.4468" y="-175.5" font-family="Helvetica,sans-Serif" font-size="10.00" fill="#000000"> </text>
<polyline fill="none" stroke="#bfbfbf" points="21.2744,-169.5 75.6191,-169.5 "/>
<text text-anchor="middle" x="48.4468" y="-157.5" font-family="Helvetica,sans-Serif" font-size="10.00" fill="#000000"> </text>
</g>
<!-- Node3&#45;&gt;Node2 -->
<g id="edge1" class="edge">
<title>Node3&#45;&gt;Node2</title>
<path fill="none" stroke="#191970" d="M48.4468,-141.172C48.4468,-132.7988 48.4468,-123.728 48.4468,-114.7528"/>
<polygon fill="none" stroke="#191970" points="44.9469,-141.3452 48.4468,-151.3452 51.9469,-141.3453 44.9469,-141.3452"/>
</g>
</g>
</svg>
