<?xml version="1.0" encoding="UTF-8" standalone="no"?>
<!DOCTYPE svg PUBLIC "-//W3C//DTD SVG 1.1//EN"
 "http://www.w3.org/Graphics/SVG/1.1/DTD/svg11.dtd">
<!-- Generated by graphviz version 2.40.1 (20161225.0304)
 -->
<!-- Title: YiiMailMessage Pages: 1 -->
<svg width="94pt" height="204pt"
 viewBox="0.00 0.00 93.66 204.00" xmlns="http://www.w3.org/2000/svg" xmlns:xlink="http://www.w3.org/1999/xlink">
<g id="graph0" class="graph" transform="scale(1 1) rotate(0) translate(4 200)">
<title>YiiMailMessage</title>
<polygon fill="#ffffff" stroke="transparent" points="-4,4 -4,-200 89.6582,-200 89.6582,4 -4,4"/>
<!-- Node0 -->
<g id="node1" class="node">
<title>Node0</title>
<polygon fill="#bfbfbf" stroke="#000000" points="0,-.5 0,-104.5 85.6582,-104.5 85.6582,-.5 0,-.5"/>
<text text-anchor="middle" x="42.8291" y="-92.5" font-family="Helvetica,sans-Serif" font-size="10.00" fill="#000000">YiiMailMessage</text>
<polyline fill="none" stroke="#000000" points="0,-86.5 85.6582,-86.5 "/>
<text text-anchor="start" x="8" y="-74.5" font-family="Helvetica,sans-Serif" font-size="10.00" fill="#000000">+ $view</text>
<text text-anchor="start" x="8" y="-64.5" font-family="Helvetica,sans-Serif" font-size="10.00" fill="#000000">+ $message</text>
<polyline fill="none" stroke="#000000" points="0,-58.5 85.6582,-58.5 "/>
<text text-anchor="start" x="8" y="-46.5" font-family="Helvetica,sans-Serif" font-size="10.00" fill="#000000">+ __get()</text>
<text text-anchor="start" x="8" y="-36.5" font-family="Helvetica,sans-Serif" font-size="10.00" fill="#000000">+ __set()</text>
<text text-anchor="start" x="8" y="-26.5" font-family="Helvetica,sans-Serif" font-size="10.00" fill="#000000">+ __call()</text>
<text text-anchor="start" x="8" y="-16.5" font-family="Helvetica,sans-Serif" font-size="10.00" fill="#000000">+ __construct()</text>
<text text-anchor="start" x="8" y="-6.5" font-family="Helvetica,sans-Serif" font-size="10.00" fill="#000000">+ setBody()</text>
</g>
<!-- Node1 -->
<g id="node2" class="node">
<title>Node1</title>
<polygon fill="#ffffff" stroke="#bfbfbf" points="5.3687,-141.5 5.3687,-195.5 80.2896,-195.5 80.2896,-141.5 5.3687,-141.5"/>
<text text-anchor="middle" x="42.8291" y="-183.5" font-family="Helvetica,sans-Serif" font-size="10.00" fill="#000000">CComponent</text>
<polyline fill="none" stroke="#bfbfbf" points="5.3687,-177.5 80.2896,-177.5 "/>
<text text-anchor="middle" x="42.8291" y="-165.5" font-family="Helvetica,sans-Serif" font-size="10.00" fill="#000000"> </text>
<polyline fill="none" stroke="#bfbfbf" points="5.3687,-159.5 80.2896,-159.5 "/>
<text text-anchor="middle" x="42.8291" y="-147.5" font-family="Helvetica,sans-Serif" font-size="10.00" fill="#000000"> </text>
</g>
<!-- Node1&#45;&gt;Node0 -->
<g id="edge1" class="edge">
<title>Node1&#45;&gt;Node0</title>
<path fill="none" stroke="#191970" d="M42.8291,-131.0375C42.8291,-122.6013 42.8291,-113.4994 42.8291,-104.5858"/>
<polygon fill="none" stroke="#191970" points="39.3292,-131.3031 42.8291,-141.3032 46.3292,-131.3032 39.3292,-131.3031"/>
</g>
</g>
</svg>
