<?xml version="1.0" encoding="UTF-8" standalone="no"?>
<!DOCTYPE svg PUBLIC "-//W3C//DTD SVG 1.1//EN"
 "http://www.w3.org/Graphics/SVG/1.1/DTD/svg11.dtd">
<!-- Generated by graphviz version 2.40.1 (20161225.0304)
 -->
<!-- Title: UserGroupsAccessControl Pages: 1 -->
<svg width="142pt" height="174pt"
 viewBox="0.00 0.00 142.37 174.00" xmlns="http://www.w3.org/2000/svg" xmlns:xlink="http://www.w3.org/1999/xlink">
<g id="graph0" class="graph" transform="scale(1 1) rotate(0) translate(4 170)">
<title>UserGroupsAccessControl</title>
<polygon fill="#ffffff" stroke="transparent" points="-4,4 -4,-170 138.374,-170 138.374,4 -4,4"/>
<!-- Node2 -->
<g id="node1" class="node">
<title>Node2</title>
<polygon fill="#bfbfbf" stroke="#000000" points="0,-.5 0,-74.5 134.374,-74.5 134.374,-.5 0,-.5"/>
<text text-anchor="middle" x="67.187" y="-62.5" font-family="Helvetica,sans-Serif" font-size="10.00" fill="#000000">UserGroupsAccessControl</text>
<polyline fill="none" stroke="#000000" points="0,-56.5 134.374,-56.5 "/>
<text text-anchor="middle" x="67.187" y="-44.5" font-family="Helvetica,sans-Serif" font-size="10.00" fill="#000000"> </text>
<polyline fill="none" stroke="#000000" points="0,-38.5 134.374,-38.5 "/>
<text text-anchor="start" x="8" y="-26.5" font-family="Helvetica,sans-Serif" font-size="10.00" fill="#000000">+ getRules()</text>
<text text-anchor="start" x="8" y="-16.5" font-family="Helvetica,sans-Serif" font-size="10.00" fill="#000000">+ setRules()</text>
<text text-anchor="start" x="8" y="-6.5" font-family="Helvetica,sans-Serif" font-size="10.00" fill="#000000"># accessDenied()</text>
</g>
<!-- Node3 -->
<g id="node2" class="node">
<title>Node3</title>
<polygon fill="#ffffff" stroke="#bfbfbf" points="12.2314,-111.5 12.2314,-165.5 122.1426,-165.5 122.1426,-111.5 12.2314,-111.5"/>
<text text-anchor="middle" x="67.187" y="-153.5" font-family="Helvetica,sans-Serif" font-size="10.00" fill="#000000">CAccessControlFilter</text>
<polyline fill="none" stroke="#bfbfbf" points="12.2314,-147.5 122.1426,-147.5 "/>
<text text-anchor="middle" x="67.187" y="-135.5" font-family="Helvetica,sans-Serif" font-size="10.00" fill="#000000"> </text>
<polyline fill="none" stroke="#bfbfbf" points="12.2314,-129.5 122.1426,-129.5 "/>
<text text-anchor="middle" x="67.187" y="-117.5" font-family="Helvetica,sans-Serif" font-size="10.00" fill="#000000"> </text>
</g>
<!-- Node3&#45;&gt;Node2 -->
<g id="edge1" class="edge">
<title>Node3&#45;&gt;Node2</title>
<path fill="none" stroke="#191970" d="M67.187,-101.1725C67.187,-92.4692 67.187,-83.2047 67.187,-74.515"/>
<polygon fill="none" stroke="#191970" points="63.6871,-101.4338 67.187,-111.4339 70.6871,-101.4339 63.6871,-101.4338"/>
</g>
</g>
</svg>
