<?xml version="1.0" encoding="UTF-8" standalone="no"?>
<!DOCTYPE svg PUBLIC "-//W3C//DTD SVG 1.1//EN"
 "http://www.w3.org/Graphics/SVG/1.1/DTD/svg11.dtd">
<!-- Generated by graphviz version 2.40.1 (20161225.0304)
 -->
<!-- Title: Google_SearchServiceResource Pages: 1 -->
<svg width="170pt" height="184pt"
 viewBox="0.00 0.00 169.63 184.00" xmlns="http://www.w3.org/2000/svg" xmlns:xlink="http://www.w3.org/1999/xlink">
<g id="graph0" class="graph" transform="scale(1 1) rotate(0) translate(4 180)">
<title>Google_SearchServiceResource</title>
<polygon fill="#ffffff" stroke="transparent" points="-4,4 -4,-180 165.6348,-180 165.6348,4 -4,4"/>
<!-- Node2 -->
<g id="node1" class="node">
<title>Node2</title>
<polygon fill="#bfbfbf" stroke="#000000" points="0,-.5 0,-54.5 161.6348,-54.5 161.6348,-.5 0,-.5"/>
<text text-anchor="middle" x="80.8174" y="-42.5" font-family="Helvetica,sans-Serif" font-size="10.00" fill="#000000">Google_SearchServiceResource</text>
<polyline fill="none" stroke="#000000" points="0,-36.5 161.6348,-36.5 "/>
<text text-anchor="middle" x="80.8174" y="-24.5" font-family="Helvetica,sans-Serif" font-size="10.00" fill="#000000"> </text>
<polyline fill="none" stroke="#000000" points="0,-18.5 161.6348,-18.5 "/>
<text text-anchor="start" x="8" y="-6.5" font-family="Helvetica,sans-Serif" font-size="10.00" fill="#000000">+ listSearch()</text>
</g>
<!-- Node3 -->
<g id="node2" class="node">
<title>Node3</title>
<g id="a_node2"><a xlink:href="class_google___service_resource.html" target="_top" xlink:title="{Google_ServiceResource\n||+ __construct()\l+ __call()\l+ useObjects()\l# stripNull()\l}">
<polygon fill="#ffffff" stroke="#000000" points="15.8423,-91.5 15.8423,-175.5 145.7925,-175.5 145.7925,-91.5 15.8423,-91.5"/>
<text text-anchor="middle" x="80.8174" y="-163.5" font-family="Helvetica,sans-Serif" font-size="10.00" fill="#000000">Google_ServiceResource</text>
<polyline fill="none" stroke="#000000" points="15.8423,-157.5 145.7925,-157.5 "/>
<text text-anchor="middle" x="80.8174" y="-145.5" font-family="Helvetica,sans-Serif" font-size="10.00" fill="#000000"> </text>
<polyline fill="none" stroke="#000000" points="15.8423,-139.5 145.7925,-139.5 "/>
<text text-anchor="start" x="23.8423" y="-127.5" font-family="Helvetica,sans-Serif" font-size="10.00" fill="#000000">+ __construct()</text>
<text text-anchor="start" x="23.8423" y="-117.5" font-family="Helvetica,sans-Serif" font-size="10.00" fill="#000000">+ __call()</text>
<text text-anchor="start" x="23.8423" y="-107.5" font-family="Helvetica,sans-Serif" font-size="10.00" fill="#000000">+ useObjects()</text>
<text text-anchor="start" x="23.8423" y="-97.5" font-family="Helvetica,sans-Serif" font-size="10.00" fill="#000000"># stripNull()</text>
</a>
</g>
</g>
<!-- Node3&#45;&gt;Node2 -->
<g id="edge1" class="edge">
<title>Node3&#45;&gt;Node2</title>
<path fill="none" stroke="#191970" d="M80.8174,-81.041C80.8174,-71.8936 80.8174,-62.7248 80.8174,-54.6245"/>
<polygon fill="none" stroke="#191970" points="77.3175,-81.3014 80.8174,-91.3014 84.3175,-81.3015 77.3175,-81.3014"/>
</g>
</g>
</svg>
