<?xml version="1.0" encoding="UTF-8" standalone="no"?>
<!DOCTYPE svg PUBLIC "-//W3C//DTD SVG 1.1//EN"
 "http://www.w3.org/Graphics/SVG/1.1/DTD/svg11.dtd">
<!-- Generated by graphviz version 2.40.1 (20161225.0304)
 -->
<!-- Title: Google_SiteVerificationService Pages: 1 -->
<svg width="161pt" height="174pt"
 viewBox="0.00 0.00 161.30 174.00" xmlns="http://www.w3.org/2000/svg" xmlns:xlink="http://www.w3.org/1999/xlink">
<g id="graph0" class="graph" transform="scale(1 1) rotate(0) translate(4 170)">
<title>Google_SiteVerificationService</title>
<polygon fill="#ffffff" stroke="transparent" points="-4,4 -4,-170 157.3047,-170 157.3047,4 -4,4"/>
<!-- Node0 -->
<g id="node1" class="node">
<title>Node0</title>
<polygon fill="#bfbfbf" stroke="#000000" points="0,-.5 0,-54.5 153.3047,-54.5 153.3047,-.5 0,-.5"/>
<text text-anchor="middle" x="76.6523" y="-42.5" font-family="Helvetica,sans-Serif" font-size="10.00" fill="#000000">Google_SiteVerificationService</text>
<polyline fill="none" stroke="#000000" points="0,-36.5 153.3047,-36.5 "/>
<text text-anchor="start" x="8" y="-24.5" font-family="Helvetica,sans-Serif" font-size="10.00" fill="#000000">+ $webResource</text>
<polyline fill="none" stroke="#000000" points="0,-18.5 153.3047,-18.5 "/>
<text text-anchor="start" x="8" y="-6.5" font-family="Helvetica,sans-Serif" font-size="10.00" fill="#000000">+ __construct()</text>
</g>
<!-- Node1 -->
<g id="node2" class="node">
<title>Node1</title>
<g id="a_node2"><a xlink:href="class_google___service.html" target="_top" xlink:title="{Google_Service\n|+ $version\l+ $servicePath\l+ $resource\l|}">
<polygon fill="#ffffff" stroke="#000000" points="33.0762,-91.5 33.0762,-165.5 120.2285,-165.5 120.2285,-91.5 33.0762,-91.5"/>
<text text-anchor="middle" x="76.6523" y="-153.5" font-family="Helvetica,sans-Serif" font-size="10.00" fill="#000000">Google_Service</text>
<polyline fill="none" stroke="#000000" points="33.0762,-147.5 120.2285,-147.5 "/>
<text text-anchor="start" x="41.0762" y="-135.5" font-family="Helvetica,sans-Serif" font-size="10.00" fill="#000000">+ $version</text>
<text text-anchor="start" x="41.0762" y="-125.5" font-family="Helvetica,sans-Serif" font-size="10.00" fill="#000000">+ $servicePath</text>
<text text-anchor="start" x="41.0762" y="-115.5" font-family="Helvetica,sans-Serif" font-size="10.00" fill="#000000">+ $resource</text>
<polyline fill="none" stroke="#000000" points="33.0762,-109.5 120.2285,-109.5 "/>
<text text-anchor="middle" x="76.6523" y="-97.5" font-family="Helvetica,sans-Serif" font-size="10.00" fill="#000000"> </text>
</a>
</g>
</g>
<!-- Node1&#45;&gt;Node0 -->
<g id="edge1" class="edge">
<title>Node1&#45;&gt;Node0</title>
<path fill="none" stroke="#191970" d="M76.6523,-81.3008C76.6523,-72.1879 76.6523,-62.931 76.6523,-54.7239"/>
<polygon fill="none" stroke="#191970" points="73.1524,-81.4648 76.6523,-91.4648 80.1524,-81.4649 73.1524,-81.4648"/>
</g>
</g>
</svg>
