<?xml version="1.0" encoding="UTF-8" standalone="no"?>
<!DOCTYPE svg PUBLIC "-//W3C//DTD SVG 1.1//EN"
 "http://www.w3.org/Graphics/SVG/1.1/DTD/svg11.dtd">
<!-- Generated by graphviz version 2.40.1 (20161225.0304)
 -->
<!-- Title: UserGroupsInstallation Pages: 1 -->
<svg width="142pt" height="254pt"
 viewBox="0.00 0.00 142.12 254.00" xmlns="http://www.w3.org/2000/svg" xmlns:xlink="http://www.w3.org/1999/xlink">
<g id="graph0" class="graph" transform="scale(1 1) rotate(0) translate(4 250)">
<title>UserGroupsInstallation</title>
<polygon fill="#ffffff" stroke="transparent" points="-4,4 -4,-250 138.1152,-250 138.1152,4 -4,4"/>
<!-- Node0 -->
<g id="node1" class="node">
<title>Node0</title>
<polygon fill="#bfbfbf" stroke="#000000" points="0,-.5 0,-154.5 134.1152,-154.5 134.1152,-.5 0,-.5"/>
<text text-anchor="middle" x="67.0576" y="-142.5" font-family="Helvetica,sans-Serif" font-size="10.00" fill="#000000">UserGroupsInstallation</text>
<polyline fill="none" stroke="#000000" points="0,-136.5 134.1152,-136.5 "/>
<text text-anchor="start" x="8" y="-124.5" font-family="Helvetica,sans-Serif" font-size="10.00" fill="#000000">+ VERSION</text>
<text text-anchor="start" x="8" y="-114.5" font-family="Helvetica,sans-Serif" font-size="10.00" fill="#000000">+ $accesscode</text>
<text text-anchor="start" x="8" y="-104.5" font-family="Helvetica,sans-Serif" font-size="10.00" fill="#000000">+ $root_user</text>
<text text-anchor="start" x="8" y="-94.5" font-family="Helvetica,sans-Serif" font-size="10.00" fill="#000000">+ $root_password</text>
<text text-anchor="start" x="8" y="-84.5" font-family="Helvetica,sans-Serif" font-size="10.00" fill="#000000">+ $root_password_confirm</text>
<text text-anchor="start" x="8" y="-74.5" font-family="Helvetica,sans-Serif" font-size="10.00" fill="#000000">+ $root_email</text>
<text text-anchor="start" x="8" y="-64.5" font-family="Helvetica,sans-Serif" font-size="10.00" fill="#000000">+ $root_question</text>
<text text-anchor="start" x="8" y="-54.5" font-family="Helvetica,sans-Serif" font-size="10.00" fill="#000000">+ $root_answer</text>
<polyline fill="none" stroke="#000000" points="0,-48.5 134.1152,-48.5 "/>
<text text-anchor="start" x="8" y="-36.5" font-family="Helvetica,sans-Serif" font-size="10.00" fill="#000000">+ rules()</text>
<text text-anchor="start" x="8" y="-26.5" font-family="Helvetica,sans-Serif" font-size="10.00" fill="#000000">+ authenticate()</text>
<text text-anchor="start" x="8" y="-16.5" font-family="Helvetica,sans-Serif" font-size="10.00" fill="#000000">+ passwordStrength()</text>
<text text-anchor="start" x="8" y="-6.5" font-family="Helvetica,sans-Serif" font-size="10.00" fill="#000000">+ attributeLabels()</text>
</g>
<!-- Node1 -->
<g id="node2" class="node">
<title>Node1</title>
<polygon fill="#ffffff" stroke="#bfbfbf" points="30.1636,-191.5 30.1636,-245.5 103.9517,-245.5 103.9517,-191.5 30.1636,-191.5"/>
<text text-anchor="middle" x="67.0576" y="-233.5" font-family="Helvetica,sans-Serif" font-size="10.00" fill="#000000">CFormModel</text>
<polyline fill="none" stroke="#bfbfbf" points="30.1636,-227.5 103.9517,-227.5 "/>
<text text-anchor="middle" x="67.0576" y="-215.5" font-family="Helvetica,sans-Serif" font-size="10.00" fill="#000000"> </text>
<polyline fill="none" stroke="#bfbfbf" points="30.1636,-209.5 103.9517,-209.5 "/>
<text text-anchor="middle" x="67.0576" y="-197.5" font-family="Helvetica,sans-Serif" font-size="10.00" fill="#000000"> </text>
</g>
<!-- Node1&#45;&gt;Node0 -->
<g id="edge1" class="edge">
<title>Node1&#45;&gt;Node0</title>
<path fill="none" stroke="#191970" d="M67.0576,-181.0381C67.0576,-172.845 67.0576,-163.8826 67.0576,-154.7679"/>
<polygon fill="none" stroke="#191970" points="63.5577,-181.3137 67.0576,-191.3138 70.5577,-181.3138 63.5577,-181.3137"/>
</g>
</g>
</svg>
