<?xml version="1.0" encoding="UTF-8" standalone="no"?>
<!DOCTYPE svg PUBLIC "-//W3C//DTD SVG 1.1//EN"
 "http://www.w3.org/Graphics/SVG/1.1/DTD/svg11.dtd">
<!-- Generated by graphviz version 2.40.1 (20161225.0304)
 -->
<!-- Title: Google_InvideoPosition Pages: 1 -->
<svg width="130pt" height="234pt"
 viewBox="0.00 0.00 129.63 234.00" xmlns="http://www.w3.org/2000/svg" xmlns:xlink="http://www.w3.org/1999/xlink">
<g id="graph0" class="graph" transform="scale(1 1) rotate(0) translate(4 230)">
<title>Google_InvideoPosition</title>
<polygon fill="#ffffff" stroke="transparent" points="-4,4 -4,-230 125.6299,-230 125.6299,4 -4,4"/>
<!-- Node0 -->
<g id="node1" class="node">
<title>Node0</title>
<polygon fill="#bfbfbf" stroke="#000000" points="0,-.5 0,-94.5 121.6299,-94.5 121.6299,-.5 0,-.5"/>
<text text-anchor="middle" x="60.8149" y="-82.5" font-family="Helvetica,sans-Serif" font-size="10.00" fill="#000000">Google_InvideoPosition</text>
<polyline fill="none" stroke="#000000" points="0,-76.5 121.6299,-76.5 "/>
<text text-anchor="start" x="8" y="-64.5" font-family="Helvetica,sans-Serif" font-size="10.00" fill="#000000">+ $cornerPosition</text>
<text text-anchor="start" x="8" y="-54.5" font-family="Helvetica,sans-Serif" font-size="10.00" fill="#000000">+ $type</text>
<polyline fill="none" stroke="#000000" points="0,-48.5 121.6299,-48.5 "/>
<text text-anchor="start" x="8" y="-36.5" font-family="Helvetica,sans-Serif" font-size="10.00" fill="#000000">+ setCornerPosition()</text>
<text text-anchor="start" x="8" y="-26.5" font-family="Helvetica,sans-Serif" font-size="10.00" fill="#000000">+ getCornerPosition()</text>
<text text-anchor="start" x="8" y="-16.5" font-family="Helvetica,sans-Serif" font-size="10.00" fill="#000000">+ setType()</text>
<text text-anchor="start" x="8" y="-6.5" font-family="Helvetica,sans-Serif" font-size="10.00" fill="#000000">+ getType()</text>
</g>
<!-- Node1 -->
<g id="node2" class="node">
<title>Node1</title>
<g id="a_node2"><a xlink:href="class_google___model.html" target="_top" xlink:title="{Google_Model\n||+ __construct()\l+ assertIsArray()\l# mapTypes()\l# isAssociativeArray()\l# useObjects()\l}">
<polygon fill="#ffffff" stroke="#000000" points="4.4702,-131.5 4.4702,-225.5 117.1597,-225.5 117.1597,-131.5 4.4702,-131.5"/>
<text text-anchor="middle" x="60.8149" y="-213.5" font-family="Helvetica,sans-Serif" font-size="10.00" fill="#000000">Google_Model</text>
<polyline fill="none" stroke="#000000" points="4.4702,-207.5 117.1597,-207.5 "/>
<text text-anchor="middle" x="60.8149" y="-195.5" font-family="Helvetica,sans-Serif" font-size="10.00" fill="#000000"> </text>
<polyline fill="none" stroke="#000000" points="4.4702,-189.5 117.1597,-189.5 "/>
<text text-anchor="start" x="12.4702" y="-177.5" font-family="Helvetica,sans-Serif" font-size="10.00" fill="#000000">+ __construct()</text>
<text text-anchor="start" x="12.4702" y="-167.5" font-family="Helvetica,sans-Serif" font-size="10.00" fill="#000000">+ assertIsArray()</text>
<text text-anchor="start" x="12.4702" y="-157.5" font-family="Helvetica,sans-Serif" font-size="10.00" fill="#000000"># mapTypes()</text>
<text text-anchor="start" x="12.4702" y="-147.5" font-family="Helvetica,sans-Serif" font-size="10.00" fill="#000000"># isAssociativeArray()</text>
<text text-anchor="start" x="12.4702" y="-137.5" font-family="Helvetica,sans-Serif" font-size="10.00" fill="#000000"># useObjects()</text>
</a>
</g>
</g>
<!-- Node1&#45;&gt;Node0 -->
<g id="edge1" class="edge">
<title>Node1&#45;&gt;Node0</title>
<path fill="none" stroke="#191970" d="M60.8149,-121.0214C60.8149,-112.2362 60.8149,-103.2556 60.8149,-94.7246"/>
<polygon fill="none" stroke="#191970" points="57.315,-121.206 60.8149,-131.206 64.315,-121.206 57.315,-121.206"/>
</g>
</g>
</svg>
