<?xml version="1.0" encoding="UTF-8" standalone="no"?>
<!DOCTYPE svg PUBLIC "-//W3C//DTD SVG 1.1//EN"
 "http://www.w3.org/Graphics/SVG/1.1/DTD/svg11.dtd">
<!-- Generated by graphviz version 2.40.1 (20161225.0304)
 -->
<!-- Title: HoleAnswers Pages: 1 -->
<svg width="115pt" height="294pt"
 viewBox="0.00 0.00 114.87 294.00" xmlns="http://www.w3.org/2000/svg" xmlns:xlink="http://www.w3.org/1999/xlink">
<g id="graph0" class="graph" transform="scale(1 1) rotate(0) translate(4 290)">
<title>HoleAnswers</title>
<polygon fill="#ffffff" stroke="transparent" points="-4,4 -4,-290 110.8691,-290 110.8691,4 -4,4"/>
<!-- Node0 -->
<g id="node1" class="node">
<title>Node0</title>
<polygon fill="#bfbfbf" stroke="#000000" points="0,-.5 0,-194.5 106.8691,-194.5 106.8691,-.5 0,-.5"/>
<text text-anchor="middle" x="53.4346" y="-182.5" font-family="Helvetica,sans-Serif" font-size="10.00" fill="#000000">HoleAnswers</text>
<polyline fill="none" stroke="#000000" points="0,-176.5 106.8691,-176.5 "/>
<text text-anchor="start" x="8" y="-164.5" font-family="Helvetica,sans-Serif" font-size="10.00" fill="#000000">+ $isimport</text>
<text text-anchor="start" x="8" y="-154.5" font-family="Helvetica,sans-Serif" font-size="10.00" fill="#000000">+ $firstAnswermodel</text>
<polyline fill="none" stroke="#000000" points="0,-148.5 106.8691,-148.5 "/>
<text text-anchor="start" x="8" y="-136.5" font-family="Helvetica,sans-Serif" font-size="10.00" fill="#000000">+ tableName()</text>
<text text-anchor="start" x="8" y="-126.5" font-family="Helvetica,sans-Serif" font-size="10.00" fill="#000000">+ rules()</text>
<text text-anchor="start" x="8" y="-116.5" font-family="Helvetica,sans-Serif" font-size="10.00" fill="#000000">+ relations()</text>
<text text-anchor="start" x="8" y="-106.5" font-family="Helvetica,sans-Serif" font-size="10.00" fill="#000000">+ behaviors()</text>
<text text-anchor="start" x="8" y="-96.5" font-family="Helvetica,sans-Serif" font-size="10.00" fill="#000000">+ getResultz()</text>
<text text-anchor="start" x="8" y="-86.5" font-family="Helvetica,sans-Serif" font-size="10.00" fill="#000000">+ attributeLabels()</text>
<text text-anchor="start" x="8" y="-76.5" font-family="Helvetica,sans-Serif" font-size="10.00" fill="#000000">+ getFilesFolder()</text>
<text text-anchor="start" x="8" y="-66.5" font-family="Helvetica,sans-Serif" font-size="10.00" fill="#000000">+ getuppload_files()</text>
<text text-anchor="start" x="8" y="-56.5" font-family="Helvetica,sans-Serif" font-size="10.00" fill="#000000">+ afterSave()</text>
<text text-anchor="start" x="8" y="-46.5" font-family="Helvetica,sans-Serif" font-size="10.00" fill="#000000">+ beforeSave()</text>
<text text-anchor="start" x="8" y="-36.5" font-family="Helvetica,sans-Serif" font-size="10.00" fill="#000000">+ beforeDelete()</text>
<text text-anchor="start" x="8" y="-26.5" font-family="Helvetica,sans-Serif" font-size="10.00" fill="#000000">+ afterDelete()</text>
<text text-anchor="start" x="8" y="-16.5" font-family="Helvetica,sans-Serif" font-size="10.00" fill="#000000">+ search()</text>
<text text-anchor="start" x="8" y="-6.5" font-family="Helvetica,sans-Serif" font-size="10.00" fill="#000000">+ model()</text>
</g>
<!-- Node1 -->
<g id="node2" class="node">
<title>Node1</title>
<polygon fill="#ffffff" stroke="#bfbfbf" points="12.0898,-231.5 12.0898,-285.5 94.7793,-285.5 94.7793,-231.5 12.0898,-231.5"/>
<text text-anchor="middle" x="53.4346" y="-273.5" font-family="Helvetica,sans-Serif" font-size="10.00" fill="#000000">CActiveRecord</text>
<polyline fill="none" stroke="#bfbfbf" points="12.0898,-267.5 94.7793,-267.5 "/>
<text text-anchor="middle" x="53.4346" y="-255.5" font-family="Helvetica,sans-Serif" font-size="10.00" fill="#000000"> </text>
<polyline fill="none" stroke="#bfbfbf" points="12.0898,-249.5 94.7793,-249.5 "/>
<text text-anchor="middle" x="53.4346" y="-237.5" font-family="Helvetica,sans-Serif" font-size="10.00" fill="#000000"> </text>
</g>
<!-- Node1&#45;&gt;Node0 -->
<g id="edge1" class="edge">
<title>Node1&#45;&gt;Node0</title>
<path fill="none" stroke="#191970" d="M53.4346,-221.0295C53.4346,-212.9055 53.4346,-203.9536 53.4346,-194.6933"/>
<polygon fill="none" stroke="#191970" points="49.9347,-221.1885 53.4346,-231.1885 56.9347,-221.1886 49.9347,-221.1885"/>
</g>
</g>
</svg>
