<?xml version="1.0" encoding="UTF-8" standalone="no"?>
<!DOCTYPE svg PUBLIC "-//W3C//DTD SVG 1.1//EN"
 "http://www.w3.org/Graphics/SVG/1.1/DTD/svg11.dtd">
<!-- Generated by graphviz version 2.40.1 (20161225.0304)
 -->
<!-- Title: Google_MediaServiceResource Pages: 1 -->
<svg width="165pt" height="184pt"
 viewBox="0.00 0.00 165.19 184.00" xmlns="http://www.w3.org/2000/svg" xmlns:xlink="http://www.w3.org/1999/xlink">
<g id="graph0" class="graph" transform="scale(1 1) rotate(0) translate(4 180)">
<title>Google_MediaServiceResource</title>
<polygon fill="#ffffff" stroke="transparent" points="-4,4 -4,-180 161.1865,-180 161.1865,4 -4,4"/>
<!-- Node2 -->
<g id="node1" class="node">
<title>Node2</title>
<polygon fill="#bfbfbf" stroke="#000000" points="0,-.5 0,-54.5 157.1865,-54.5 157.1865,-.5 0,-.5"/>
<text text-anchor="middle" x="78.5933" y="-42.5" font-family="Helvetica,sans-Serif" font-size="10.00" fill="#000000">Google_MediaServiceResource</text>
<polyline fill="none" stroke="#000000" points="0,-36.5 157.1865,-36.5 "/>
<text text-anchor="middle" x="78.5933" y="-24.5" font-family="Helvetica,sans-Serif" font-size="10.00" fill="#000000"> </text>
<polyline fill="none" stroke="#000000" points="0,-18.5 157.1865,-18.5 "/>
<text text-anchor="start" x="8" y="-6.5" font-family="Helvetica,sans-Serif" font-size="10.00" fill="#000000">+ insert()</text>
</g>
<!-- Node3 -->
<g id="node2" class="node">
<title>Node3</title>
<g id="a_node2"><a xlink:href="class_google___service_resource.html" target="_top" xlink:title="{Google_ServiceResource\n||+ __construct()\l+ __call()\l+ useObjects()\l# stripNull()\l}">
<polygon fill="#ffffff" stroke="#000000" points="13.6182,-91.5 13.6182,-175.5 143.5684,-175.5 143.5684,-91.5 13.6182,-91.5"/>
<text text-anchor="middle" x="78.5933" y="-163.5" font-family="Helvetica,sans-Serif" font-size="10.00" fill="#000000">Google_ServiceResource</text>
<polyline fill="none" stroke="#000000" points="13.6182,-157.5 143.5684,-157.5 "/>
<text text-anchor="middle" x="78.5933" y="-145.5" font-family="Helvetica,sans-Serif" font-size="10.00" fill="#000000"> </text>
<polyline fill="none" stroke="#000000" points="13.6182,-139.5 143.5684,-139.5 "/>
<text text-anchor="start" x="21.6182" y="-127.5" font-family="Helvetica,sans-Serif" font-size="10.00" fill="#000000">+ __construct()</text>
<text text-anchor="start" x="21.6182" y="-117.5" font-family="Helvetica,sans-Serif" font-size="10.00" fill="#000000">+ __call()</text>
<text text-anchor="start" x="21.6182" y="-107.5" font-family="Helvetica,sans-Serif" font-size="10.00" fill="#000000">+ useObjects()</text>
<text text-anchor="start" x="21.6182" y="-97.5" font-family="Helvetica,sans-Serif" font-size="10.00" fill="#000000"># stripNull()</text>
</a>
</g>
</g>
<!-- Node3&#45;&gt;Node2 -->
<g id="edge1" class="edge">
<title>Node3&#45;&gt;Node2</title>
<path fill="none" stroke="#191970" d="M78.5933,-81.041C78.5933,-71.8936 78.5933,-62.7248 78.5933,-54.6245"/>
<polygon fill="none" stroke="#191970" points="75.0934,-81.3014 78.5933,-91.3014 82.0934,-81.3015 75.0934,-81.3014"/>
</g>
</g>
</svg>
