<?xml version="1.0" encoding="UTF-8" standalone="no"?>
<!DOCTYPE svg PUBLIC "-//W3C//DTD SVG 1.1//EN"
 "http://www.w3.org/Graphics/SVG/1.1/DTD/svg11.dtd">
<!-- Generated by graphviz version 2.40.1 (20161225.0304)
 -->
<!-- Title: Google_ManagementAccountsServiceResource Pages: 1 -->
<svg width="161pt" height="194pt"
 viewBox="0.00 0.00 161.31 194.00" xmlns="http://www.w3.org/2000/svg" xmlns:xlink="http://www.w3.org/1999/xlink">
<g id="graph0" class="graph" transform="scale(1 1) rotate(0) translate(4 190)">
<title>Google_ManagementAccountsServiceResource</title>
<polygon fill="#ffffff" stroke="transparent" points="-4,4 -4,-190 157.3096,-190 157.3096,4 -4,4"/>
<!-- Node0 -->
<g id="node1" class="node">
<title>Node0</title>
<polygon fill="#bfbfbf" stroke="#000000" points="0,-.5 0,-64.5 153.3096,-64.5 153.3096,-.5 0,-.5"/>
<text text-anchor="start" x="8" y="-52.5" font-family="Helvetica,sans-Serif" font-size="10.00" fill="#000000">Google_ManagementAccounts</text>
<text text-anchor="middle" x="76.6548" y="-42.5" font-family="Helvetica,sans-Serif" font-size="10.00" fill="#000000">ServiceResource</text>
<polyline fill="none" stroke="#000000" points="0,-36.5 153.3096,-36.5 "/>
<text text-anchor="middle" x="76.6548" y="-24.5" font-family="Helvetica,sans-Serif" font-size="10.00" fill="#000000"> </text>
<polyline fill="none" stroke="#000000" points="0,-18.5 153.3096,-18.5 "/>
<text text-anchor="start" x="8" y="-6.5" font-family="Helvetica,sans-Serif" font-size="10.00" fill="#000000">+ listManagementAccounts()</text>
</g>
<!-- Node1 -->
<g id="node2" class="node">
<title>Node1</title>
<g id="a_node2"><a xlink:href="class_google___service_resource.html" target="_top" xlink:title="{Google_ServiceResource\n||+ __construct()\l+ __call()\l+ useObjects()\l# stripNull()\l}">
<polygon fill="#ffffff" stroke="#000000" points="11.6797,-101.5 11.6797,-185.5 141.6299,-185.5 141.6299,-101.5 11.6797,-101.5"/>
<text text-anchor="middle" x="76.6548" y="-173.5" font-family="Helvetica,sans-Serif" font-size="10.00" fill="#000000">Google_ServiceResource</text>
<polyline fill="none" stroke="#000000" points="11.6797,-167.5 141.6299,-167.5 "/>
<text text-anchor="middle" x="76.6548" y="-155.5" font-family="Helvetica,sans-Serif" font-size="10.00" fill="#000000"> </text>
<polyline fill="none" stroke="#000000" points="11.6797,-149.5 141.6299,-149.5 "/>
<text text-anchor="start" x="19.6797" y="-137.5" font-family="Helvetica,sans-Serif" font-size="10.00" fill="#000000">+ __construct()</text>
<text text-anchor="start" x="19.6797" y="-127.5" font-family="Helvetica,sans-Serif" font-size="10.00" fill="#000000">+ __call()</text>
<text text-anchor="start" x="19.6797" y="-117.5" font-family="Helvetica,sans-Serif" font-size="10.00" fill="#000000">+ useObjects()</text>
<text text-anchor="start" x="19.6797" y="-107.5" font-family="Helvetica,sans-Serif" font-size="10.00" fill="#000000"># stripNull()</text>
</a>
</g>
</g>
<!-- Node1&#45;&gt;Node0 -->
<g id="edge1" class="edge">
<title>Node1&#45;&gt;Node0</title>
<path fill="none" stroke="#191970" d="M76.6548,-91.1185C76.6548,-82.0854 76.6548,-72.9418 76.6548,-64.6489"/>
<polygon fill="none" stroke="#191970" points="73.1549,-91.219 76.6548,-101.219 80.1549,-91.219 73.1549,-91.219"/>
</g>
</g>
</svg>
