<?xml version="1.0" encoding="UTF-8" standalone="no"?>
<!DOCTYPE svg PUBLIC "-//W3C//DTD SVG 1.1//EN"
 "http://www.w3.org/Graphics/SVG/1.1/DTD/svg11.dtd">
<!-- Generated by graphviz version 2.40.1 (20161225.0304)
 -->
<!-- Title: Swift_Transport_LoadBalancedTransport Pages: 1 -->
<svg width="302pt" height="526pt"
 viewBox="0.00 0.00 302.19 526.00" xmlns="http://www.w3.org/2000/svg" xmlns:xlink="http://www.w3.org/1999/xlink">
<g id="graph0" class="graph" transform="scale(1 1) rotate(0) translate(4 522)">
<title>Swift_Transport_LoadBalancedTransport</title>
<polygon fill="#ffffff" stroke="transparent" points="-4,4 -4,-522 298.1948,-522 298.1948,4 -4,4"/>
<!-- Node0 -->
<g id="node1" class="node">
<title>Node0</title>
<polygon fill="#bfbfbf" stroke="#000000" points="75.2192,-232.5 75.2192,-386.5 230.3843,-386.5 230.3843,-232.5 75.2192,-232.5"/>
<text text-anchor="start" x="83.2192" y="-374.5" font-family="Helvetica,sans-Serif" font-size="10.00" fill="#000000">Swift_Transport_LoadBalanced</text>
<text text-anchor="middle" x="152.8018" y="-364.5" font-family="Helvetica,sans-Serif" font-size="10.00" fill="#000000">Transport</text>
<polyline fill="none" stroke="#000000" points="75.2192,-358.5 230.3843,-358.5 "/>
<text text-anchor="start" x="83.2192" y="-346.5" font-family="Helvetica,sans-Serif" font-size="10.00" fill="#000000"># $_transports</text>
<polyline fill="none" stroke="#000000" points="75.2192,-340.5 230.3843,-340.5 "/>
<text text-anchor="start" x="83.2192" y="-328.5" font-family="Helvetica,sans-Serif" font-size="10.00" fill="#000000">+ __construct()</text>
<text text-anchor="start" x="83.2192" y="-318.5" font-family="Helvetica,sans-Serif" font-size="10.00" fill="#000000">+ setTransports()</text>
<text text-anchor="start" x="83.2192" y="-308.5" font-family="Helvetica,sans-Serif" font-size="10.00" fill="#000000">+ getTransports()</text>
<text text-anchor="start" x="83.2192" y="-298.5" font-family="Helvetica,sans-Serif" font-size="10.00" fill="#000000">+ isStarted()</text>
<text text-anchor="start" x="83.2192" y="-288.5" font-family="Helvetica,sans-Serif" font-size="10.00" fill="#000000">+ start()</text>
<text text-anchor="start" x="83.2192" y="-278.5" font-family="Helvetica,sans-Serif" font-size="10.00" fill="#000000">+ stop()</text>
<text text-anchor="start" x="83.2192" y="-268.5" font-family="Helvetica,sans-Serif" font-size="10.00" fill="#000000">+ send()</text>
<text text-anchor="start" x="83.2192" y="-258.5" font-family="Helvetica,sans-Serif" font-size="10.00" fill="#000000">+ registerPlugin()</text>
<text text-anchor="start" x="83.2192" y="-248.5" font-family="Helvetica,sans-Serif" font-size="10.00" fill="#000000"># _getNextTransport()</text>
<text text-anchor="start" x="83.2192" y="-238.5" font-family="Helvetica,sans-Serif" font-size="10.00" fill="#000000"># _killCurrentTransport()</text>
</g>
<!-- Node2 -->
<g id="node3" class="node">
<title>Node2</title>
<g id="a_node3"><a xlink:href="class_swift___load_balanced_transport.html" target="_top" xlink:title="{Swift_LoadBalancedTransport\n||+ __construct()\l+ newInstance()\l}">
<polygon fill="#ffffff" stroke="#000000" points="0,-116.5 0,-180.5 149.6035,-180.5 149.6035,-116.5 0,-116.5"/>
<text text-anchor="middle" x="74.8018" y="-168.5" font-family="Helvetica,sans-Serif" font-size="10.00" fill="#000000">Swift_LoadBalancedTransport</text>
<polyline fill="none" stroke="#000000" points="0,-162.5 149.6035,-162.5 "/>
<text text-anchor="middle" x="74.8018" y="-150.5" font-family="Helvetica,sans-Serif" font-size="10.00" fill="#000000"> </text>
<polyline fill="none" stroke="#000000" points="0,-144.5 149.6035,-144.5 "/>
<text text-anchor="start" x="8" y="-132.5" font-family="Helvetica,sans-Serif" font-size="10.00" fill="#000000">+ __construct()</text>
<text text-anchor="start" x="8" y="-122.5" font-family="Helvetica,sans-Serif" font-size="10.00" fill="#000000">+ newInstance()</text>
</a>
</g>
</g>
<!-- Node0&#45;&gt;Node2 -->
<g id="edge2" class="edge">
<title>Node0&#45;&gt;Node2</title>
<path fill="none" stroke="#191970" d="M110.8443,-222.8956C103.5402,-207.819 96.3751,-193.0296 90.3819,-180.6591"/>
<polygon fill="none" stroke="#191970" points="107.8911,-224.8275 115.401,-232.3009 114.1907,-221.7754 107.8911,-224.8275"/>
</g>
<!-- Node3 -->
<g id="node4" class="node">
<title>Node3</title>
<g id="a_node4"><a xlink:href="class_swift___transport___failover_transport.html" target="_top" xlink:title="{Swift_Transport_Failover\lTransport\n||+ __construct()\l+ send()\l# _getNextTransport()\l# _killCurrentTransport()\l}">
<polygon fill="#ffffff" stroke="#000000" points="167.4087,-101.5 167.4087,-195.5 294.1948,-195.5 294.1948,-101.5 167.4087,-101.5"/>
<text text-anchor="start" x="175.4087" y="-183.5" font-family="Helvetica,sans-Serif" font-size="10.00" fill="#000000">Swift_Transport_Failover</text>
<text text-anchor="middle" x="230.8018" y="-173.5" font-family="Helvetica,sans-Serif" font-size="10.00" fill="#000000">Transport</text>
<polyline fill="none" stroke="#000000" points="167.4087,-167.5 294.1948,-167.5 "/>
<text text-anchor="middle" x="230.8018" y="-155.5" font-family="Helvetica,sans-Serif" font-size="10.00" fill="#000000"> </text>
<polyline fill="none" stroke="#000000" points="167.4087,-149.5 294.1948,-149.5 "/>
<text text-anchor="start" x="175.4087" y="-137.5" font-family="Helvetica,sans-Serif" font-size="10.00" fill="#000000">+ __construct()</text>
<text text-anchor="start" x="175.4087" y="-127.5" font-family="Helvetica,sans-Serif" font-size="10.00" fill="#000000">+ send()</text>
<text text-anchor="start" x="175.4087" y="-117.5" font-family="Helvetica,sans-Serif" font-size="10.00" fill="#000000"># _getNextTransport()</text>
<text text-anchor="start" x="175.4087" y="-107.5" font-family="Helvetica,sans-Serif" font-size="10.00" fill="#000000"># _killCurrentTransport()</text>
</a>
</g>
</g>
<!-- Node0&#45;&gt;Node3 -->
<g id="edge3" class="edge">
<title>Node0&#45;&gt;Node3</title>
<path fill="none" stroke="#191970" d="M194.578,-223.2695C199.134,-213.8654 203.6392,-204.5662 207.8433,-195.8887"/>
<polygon fill="none" stroke="#191970" points="191.4128,-221.7754 190.2025,-232.3009 197.7124,-224.8275 191.4128,-221.7754"/>
</g>
<!-- Node1 -->
<g id="node2" class="node">
<title>Node1</title>
<g id="a_node2"><a xlink:href="interface_swift___transport.html" target="_top" xlink:title="{Swift_Transport\n||+ isStarted()\l+ start()\l+ stop()\l+ send()\l+ registerPlugin()\l}">
<polygon fill="#ffffff" stroke="#000000" points="106.5913,-423.5 106.5913,-517.5 199.0122,-517.5 199.0122,-423.5 106.5913,-423.5"/>
<text text-anchor="middle" x="152.8018" y="-505.5" font-family="Helvetica,sans-Serif" font-size="10.00" fill="#000000">Swift_Transport</text>
<polyline fill="none" stroke="#000000" points="106.5913,-499.5 199.0122,-499.5 "/>
<text text-anchor="middle" x="152.8018" y="-487.5" font-family="Helvetica,sans-Serif" font-size="10.00" fill="#000000"> </text>
<polyline fill="none" stroke="#000000" points="106.5913,-481.5 199.0122,-481.5 "/>
<text text-anchor="start" x="114.5913" y="-469.5" font-family="Helvetica,sans-Serif" font-size="10.00" fill="#000000">+ isStarted()</text>
<text text-anchor="start" x="114.5913" y="-459.5" font-family="Helvetica,sans-Serif" font-size="10.00" fill="#000000">+ start()</text>
<text text-anchor="start" x="114.5913" y="-449.5" font-family="Helvetica,sans-Serif" font-size="10.00" fill="#000000">+ stop()</text>
<text text-anchor="start" x="114.5913" y="-439.5" font-family="Helvetica,sans-Serif" font-size="10.00" fill="#000000">+ send()</text>
<text text-anchor="start" x="114.5913" y="-429.5" font-family="Helvetica,sans-Serif" font-size="10.00" fill="#000000">+ registerPlugin()</text>
</a>
</g>
</g>
<!-- Node1&#45;&gt;Node0 -->
<g id="edge1" class="edge">
<title>Node1&#45;&gt;Node0</title>
<path fill="none" stroke="#191970" d="M152.8018,-413.4698C152.8018,-404.7448 152.8018,-395.6167 152.8018,-386.5472"/>
<polygon fill="none" stroke="#191970" points="149.3019,-413.4993 152.8018,-423.4993 156.3019,-413.4994 149.3019,-413.4993"/>
</g>
<!-- Node4 -->
<g id="node5" class="node">
<title>Node4</title>
<g id="a_node5"><a xlink:href="class_swift___failover_transport.html" target="_top" xlink:title="{Swift_FailoverTransport\n||+ __construct()\l+ newInstance()\l}">
<polygon fill="#ffffff" stroke="#000000" points="170.1895,-.5 170.1895,-64.5 291.4141,-64.5 291.4141,-.5 170.1895,-.5"/>
<text text-anchor="middle" x="230.8018" y="-52.5" font-family="Helvetica,sans-Serif" font-size="10.00" fill="#000000">Swift_FailoverTransport</text>
<polyline fill="none" stroke="#000000" points="170.1895,-46.5 291.4141,-46.5 "/>
<text text-anchor="middle" x="230.8018" y="-34.5" font-family="Helvetica,sans-Serif" font-size="10.00" fill="#000000"> </text>
<polyline fill="none" stroke="#000000" points="170.1895,-28.5 291.4141,-28.5 "/>
<text text-anchor="start" x="178.1895" y="-16.5" font-family="Helvetica,sans-Serif" font-size="10.00" fill="#000000">+ __construct()</text>
<text text-anchor="start" x="178.1895" y="-6.5" font-family="Helvetica,sans-Serif" font-size="10.00" fill="#000000">+ newInstance()</text>
</a>
</g>
</g>
<!-- Node3&#45;&gt;Node4 -->
<g id="edge4" class="edge">
<title>Node3&#45;&gt;Node4</title>
<path fill="none" stroke="#191970" d="M230.8018,-91.1299C230.8018,-82.0561 230.8018,-72.9618 230.8018,-64.7354"/>
<polygon fill="none" stroke="#191970" points="227.3019,-91.3183 230.8018,-101.3184 234.3019,-91.3184 227.3019,-91.3183"/>
</g>
</g>
</svg>
