<?xml version="1.0" encoding="UTF-8" standalone="no"?>
<!DOCTYPE svg PUBLIC "-//W3C//DTD SVG 1.1//EN"
 "http://www.w3.org/Graphics/SVG/1.1/DTD/svg11.dtd">
<!-- Generated by graphviz version 2.40.1 (20161225.0304)
 -->
<!-- Title: googleApcCache Pages: 1 -->
<svg width="100pt" height="204pt"
 viewBox="0.00 0.00 100.17 204.00" xmlns="http://www.w3.org/2000/svg" xmlns:xlink="http://www.w3.org/1999/xlink">
<g id="graph0" class="graph" transform="scale(1 1) rotate(0) translate(4 200)">
<title>googleApcCache</title>
<polygon fill="#ffffff" stroke="transparent" points="-4,4 -4,-200 96.167,-200 96.167,4 -4,4"/>
<!-- Node0 -->
<g id="node1" class="node">
<title>Node0</title>
<polygon fill="#bfbfbf" stroke="#000000" points="0,-.5 0,-84.5 92.167,-84.5 92.167,-.5 0,-.5"/>
<text text-anchor="middle" x="46.0835" y="-72.5" font-family="Helvetica,sans-Serif" font-size="10.00" fill="#000000">googleApcCache</text>
<polyline fill="none" stroke="#000000" points="0,-66.5 92.167,-66.5 "/>
<text text-anchor="middle" x="46.0835" y="-54.5" font-family="Helvetica,sans-Serif" font-size="10.00" fill="#000000"> </text>
<polyline fill="none" stroke="#000000" points="0,-48.5 92.167,-48.5 "/>
<text text-anchor="start" x="8" y="-36.5" font-family="Helvetica,sans-Serif" font-size="10.00" fill="#000000">+ __construct()</text>
<text text-anchor="start" x="8" y="-26.5" font-family="Helvetica,sans-Serif" font-size="10.00" fill="#000000">+ get()</text>
<text text-anchor="start" x="8" y="-16.5" font-family="Helvetica,sans-Serif" font-size="10.00" fill="#000000">+ set()</text>
<text text-anchor="start" x="8" y="-6.5" font-family="Helvetica,sans-Serif" font-size="10.00" fill="#000000">+ delete()</text>
</g>
<!-- Node1 -->
<g id="node2" class="node">
<title>Node1</title>
<g id="a_node2"><a xlink:href="class_google___cache.html" target="_top" xlink:title="{Google_Cache\n||+ get()\l+ set()\l+ delete()\l}">
<polygon fill="#ffffff" stroke="#000000" points="4.7266,-121.5 4.7266,-195.5 87.4404,-195.5 87.4404,-121.5 4.7266,-121.5"/>
<text text-anchor="middle" x="46.0835" y="-183.5" font-family="Helvetica,sans-Serif" font-size="10.00" fill="#000000">Google_Cache</text>
<polyline fill="none" stroke="#000000" points="4.7266,-177.5 87.4404,-177.5 "/>
<text text-anchor="middle" x="46.0835" y="-165.5" font-family="Helvetica,sans-Serif" font-size="10.00" fill="#000000"> </text>
<polyline fill="none" stroke="#000000" points="4.7266,-159.5 87.4404,-159.5 "/>
<text text-anchor="start" x="12.7266" y="-147.5" font-family="Helvetica,sans-Serif" font-size="10.00" fill="#000000">+ get()</text>
<text text-anchor="start" x="12.7266" y="-137.5" font-family="Helvetica,sans-Serif" font-size="10.00" fill="#000000">+ set()</text>
<text text-anchor="start" x="12.7266" y="-127.5" font-family="Helvetica,sans-Serif" font-size="10.00" fill="#000000">+ delete()</text>
</a>
</g>
</g>
<!-- Node1&#45;&gt;Node0 -->
<g id="edge1" class="edge">
<title>Node1&#45;&gt;Node0</title>
<path fill="none" stroke="#191970" d="M46.0835,-111.3716C46.0835,-102.5842 46.0835,-93.4515 46.0835,-84.8197"/>
<polygon fill="none" stroke="#191970" points="42.5836,-111.4779 46.0835,-121.4779 49.5836,-111.478 42.5836,-111.4779"/>
</g>
</g>
</svg>
