<?xml version="1.0" encoding="UTF-8" standalone="no"?>
<!DOCTYPE svg PUBLIC "-//W3C//DTD SVG 1.1//EN"
 "http://www.w3.org/Graphics/SVG/1.1/DTD/svg11.dtd">
<!-- Generated by graphviz version 2.40.1 (20161225.0304)
 -->
<!-- Title: Google_UrlshortenerService Pages: 1 -->
<svg width="150pt" height="174pt"
 viewBox="0.00 0.00 150.17 174.00" xmlns="http://www.w3.org/2000/svg" xmlns:xlink="http://www.w3.org/1999/xlink">
<g id="graph0" class="graph" transform="scale(1 1) rotate(0) translate(4 170)">
<title>Google_UrlshortenerService</title>
<polygon fill="#ffffff" stroke="transparent" points="-4,4 -4,-170 146.1719,-170 146.1719,4 -4,4"/>
<!-- Node2 -->
<g id="node1" class="node">
<title>Node2</title>
<polygon fill="#bfbfbf" stroke="#000000" points="0,-.5 0,-54.5 142.1719,-54.5 142.1719,-.5 0,-.5"/>
<text text-anchor="middle" x="71.0859" y="-42.5" font-family="Helvetica,sans-Serif" font-size="10.00" fill="#000000">Google_UrlshortenerService</text>
<polyline fill="none" stroke="#000000" points="0,-36.5 142.1719,-36.5 "/>
<text text-anchor="start" x="8" y="-24.5" font-family="Helvetica,sans-Serif" font-size="10.00" fill="#000000">+ $url</text>
<polyline fill="none" stroke="#000000" points="0,-18.5 142.1719,-18.5 "/>
<text text-anchor="start" x="8" y="-6.5" font-family="Helvetica,sans-Serif" font-size="10.00" fill="#000000">+ __construct()</text>
</g>
<!-- Node3 -->
<g id="node2" class="node">
<title>Node3</title>
<g id="a_node2"><a xlink:href="class_google___service.html" target="_top" xlink:title="{Google_Service\n|+ $version\l+ $servicePath\l+ $resource\l|}">
<polygon fill="#ffffff" stroke="#000000" points="27.5098,-91.5 27.5098,-165.5 114.6621,-165.5 114.6621,-91.5 27.5098,-91.5"/>
<text text-anchor="middle" x="71.0859" y="-153.5" font-family="Helvetica,sans-Serif" font-size="10.00" fill="#000000">Google_Service</text>
<polyline fill="none" stroke="#000000" points="27.5098,-147.5 114.6621,-147.5 "/>
<text text-anchor="start" x="35.5098" y="-135.5" font-family="Helvetica,sans-Serif" font-size="10.00" fill="#000000">+ $version</text>
<text text-anchor="start" x="35.5098" y="-125.5" font-family="Helvetica,sans-Serif" font-size="10.00" fill="#000000">+ $servicePath</text>
<text text-anchor="start" x="35.5098" y="-115.5" font-family="Helvetica,sans-Serif" font-size="10.00" fill="#000000">+ $resource</text>
<polyline fill="none" stroke="#000000" points="27.5098,-109.5 114.6621,-109.5 "/>
<text text-anchor="middle" x="71.0859" y="-97.5" font-family="Helvetica,sans-Serif" font-size="10.00" fill="#000000"> </text>
</a>
</g>
</g>
<!-- Node3&#45;&gt;Node2 -->
<g id="edge1" class="edge">
<title>Node3&#45;&gt;Node2</title>
<path fill="none" stroke="#191970" d="M71.0859,-81.3008C71.0859,-72.1879 71.0859,-62.931 71.0859,-54.7239"/>
<polygon fill="none" stroke="#191970" points="67.586,-81.4648 71.0859,-91.4648 74.586,-81.4649 67.586,-81.4648"/>
</g>
</g>
</svg>
