<?xml version="1.0" encoding="UTF-8" standalone="no"?>
<!DOCTYPE svg PUBLIC "-//W3C//DTD SVG 1.1//EN"
 "http://www.w3.org/Graphics/SVG/1.1/DTD/svg11.dtd">
<!-- Generated by graphviz version 2.40.1 (20161225.0304)
 -->
<!-- Title: Swift_Plugins_Pop_Pop3Exception Pages: 1 -->
<svg width="180pt" height="336pt"
 viewBox="0.00 0.00 180.22 336.00" xmlns="http://www.w3.org/2000/svg" xmlns:xlink="http://www.w3.org/1999/xlink">
<g id="graph0" class="graph" transform="scale(1 1) rotate(0) translate(4 332)">
<title>Swift_Plugins_Pop_Pop3Exception</title>
<polygon fill="#ffffff" stroke="transparent" points="-4,4 -4,-332 176.2158,-332 176.2158,4 -4,4"/>
<!-- Node4 -->
<g id="node1" class="node">
<title>Node4</title>
<polygon fill="#bfbfbf" stroke="#000000" points="0,-.5 0,-54.5 172.2158,-54.5 172.2158,-.5 0,-.5"/>
<text text-anchor="middle" x="86.1079" y="-42.5" font-family="Helvetica,sans-Serif" font-size="10.00" fill="#000000">Swift_Plugins_Pop_Pop3Exception</text>
<polyline fill="none" stroke="#000000" points="0,-36.5 172.2158,-36.5 "/>
<text text-anchor="middle" x="86.1079" y="-24.5" font-family="Helvetica,sans-Serif" font-size="10.00" fill="#000000"> </text>
<polyline fill="none" stroke="#000000" points="0,-18.5 172.2158,-18.5 "/>
<text text-anchor="start" x="8" y="-6.5" font-family="Helvetica,sans-Serif" font-size="10.00" fill="#000000">+ __construct()</text>
</g>
<!-- Node5 -->
<g id="node2" class="node">
<title>Node5</title>
<g id="a_node2"><a xlink:href="class_swift___io_exception.html" target="_top" xlink:title="{Swift_IoException\n||+ __construct()\l}">
<polygon fill="#ffffff" stroke="#000000" points="38.3643,-91.5 38.3643,-145.5 133.8516,-145.5 133.8516,-91.5 38.3643,-91.5"/>
<text text-anchor="middle" x="86.1079" y="-133.5" font-family="Helvetica,sans-Serif" font-size="10.00" fill="#000000">Swift_IoException</text>
<polyline fill="none" stroke="#000000" points="38.3643,-127.5 133.8516,-127.5 "/>
<text text-anchor="middle" x="86.1079" y="-115.5" font-family="Helvetica,sans-Serif" font-size="10.00" fill="#000000"> </text>
<polyline fill="none" stroke="#000000" points="38.3643,-109.5 133.8516,-109.5 "/>
<text text-anchor="start" x="46.3643" y="-97.5" font-family="Helvetica,sans-Serif" font-size="10.00" fill="#000000">+ __construct()</text>
</a>
</g>
</g>
<!-- Node5&#45;&gt;Node4 -->
<g id="edge1" class="edge">
<title>Node5&#45;&gt;Node4</title>
<path fill="none" stroke="#191970" d="M86.1079,-81.12C86.1079,-72.3006 86.1079,-63.0605 86.1079,-54.7837"/>
<polygon fill="none" stroke="#191970" points="82.608,-81.197 86.1079,-91.197 89.608,-81.197 82.608,-81.197"/>
</g>
<!-- Node6 -->
<g id="node3" class="node">
<title>Node6</title>
<g id="a_node3"><a xlink:href="class_swift___swift_exception.html" target="_top" xlink:title="{Swift_SwiftException\n||+ __construct()\l}">
<polygon fill="#ffffff" stroke="#000000" points="31.6992,-182.5 31.6992,-236.5 140.5166,-236.5 140.5166,-182.5 31.6992,-182.5"/>
<text text-anchor="middle" x="86.1079" y="-224.5" font-family="Helvetica,sans-Serif" font-size="10.00" fill="#000000">Swift_SwiftException</text>
<polyline fill="none" stroke="#000000" points="31.6992,-218.5 140.5166,-218.5 "/>
<text text-anchor="middle" x="86.1079" y="-206.5" font-family="Helvetica,sans-Serif" font-size="10.00" fill="#000000"> </text>
<polyline fill="none" stroke="#000000" points="31.6992,-200.5 140.5166,-200.5 "/>
<text text-anchor="start" x="39.6992" y="-188.5" font-family="Helvetica,sans-Serif" font-size="10.00" fill="#000000">+ __construct()</text>
</a>
</g>
</g>
<!-- Node6&#45;&gt;Node5 -->
<g id="edge2" class="edge">
<title>Node6&#45;&gt;Node5</title>
<path fill="none" stroke="#191970" d="M86.1079,-172.12C86.1079,-163.3006 86.1079,-154.0605 86.1079,-145.7837"/>
<polygon fill="none" stroke="#191970" points="82.608,-172.197 86.1079,-182.197 89.608,-172.197 82.608,-172.197"/>
</g>
<!-- Node7 -->
<g id="node4" class="node">
<title>Node7</title>
<polygon fill="#ffffff" stroke="#bfbfbf" points="56.1499,-273.5 56.1499,-327.5 116.0659,-327.5 116.0659,-273.5 56.1499,-273.5"/>
<text text-anchor="middle" x="86.1079" y="-315.5" font-family="Helvetica,sans-Serif" font-size="10.00" fill="#000000">Exception</text>
<polyline fill="none" stroke="#bfbfbf" points="56.1499,-309.5 116.0659,-309.5 "/>
<text text-anchor="middle" x="86.1079" y="-297.5" font-family="Helvetica,sans-Serif" font-size="10.00" fill="#000000"> </text>
<polyline fill="none" stroke="#bfbfbf" points="56.1499,-291.5 116.0659,-291.5 "/>
<text text-anchor="middle" x="86.1079" y="-279.5" font-family="Helvetica,sans-Serif" font-size="10.00" fill="#000000"> </text>
</g>
<!-- Node7&#45;&gt;Node6 -->
<g id="edge3" class="edge">
<title>Node7&#45;&gt;Node6</title>
<path fill="none" stroke="#191970" d="M86.1079,-263.12C86.1079,-254.3006 86.1079,-245.0605 86.1079,-236.7837"/>
<polygon fill="none" stroke="#191970" points="82.608,-263.197 86.1079,-273.197 89.608,-263.197 82.608,-263.197"/>
</g>
</g>
</svg>
