<?xml version="1.0" encoding="UTF-8" standalone="no"?>
<!DOCTYPE svg PUBLIC "-//W3C//DTD SVG 1.1//EN"
 "http://www.w3.org/Graphics/SVG/1.1/DTD/svg11.dtd">
<!-- Generated by graphviz version 2.40.1 (20161225.0304)
 -->
<!-- Title: Google_AdunitsCustomchannelsServiceResource Pages: 1 -->
<svg width="170pt" height="204pt"
 viewBox="0.00 0.00 169.64 204.00" xmlns="http://www.w3.org/2000/svg" xmlns:xlink="http://www.w3.org/1999/xlink">
<g id="graph0" class="graph" transform="scale(1 1) rotate(0) translate(4 200)">
<title>Google_AdunitsCustomchannelsServiceResource</title>
<polygon fill="#ffffff" stroke="transparent" points="-4,4 -4,-200 165.6445,-200 165.6445,4 -4,4"/>
<!-- Node0 -->
<g id="node1" class="node">
<title>Node0</title>
<polygon fill="#bfbfbf" stroke="#000000" points="0,-.5 0,-74.5 161.6445,-74.5 161.6445,-.5 0,-.5"/>
<text text-anchor="start" x="8" y="-62.5" font-family="Helvetica,sans-Serif" font-size="10.00" fill="#000000">Google_AdunitsCustomchannels</text>
<text text-anchor="middle" x="80.8223" y="-52.5" font-family="Helvetica,sans-Serif" font-size="10.00" fill="#000000">ServiceResource</text>
<polyline fill="none" stroke="#000000" points="0,-46.5 161.6445,-46.5 "/>
<text text-anchor="middle" x="80.8223" y="-34.5" font-family="Helvetica,sans-Serif" font-size="10.00" fill="#000000"> </text>
<polyline fill="none" stroke="#000000" points="0,-28.5 161.6445,-28.5 "/>
<text text-anchor="start" x="8" y="-16.5" font-family="Helvetica,sans-Serif" font-size="10.00" fill="#000000">+ listAdunitsCustomchannels()</text>
<text text-anchor="start" x="8" y="-6.5" font-family="Helvetica,sans-Serif" font-size="10.00" fill="#000000">+ listAdunitsCustomchannels()</text>
</g>
<!-- Node1 -->
<g id="node2" class="node">
<title>Node1</title>
<g id="a_node2"><a xlink:href="class_google___service_resource.html" target="_top" xlink:title="{Google_ServiceResource\n||+ __construct()\l+ __call()\l+ useObjects()\l# stripNull()\l}">
<polygon fill="#ffffff" stroke="#000000" points="15.8472,-111.5 15.8472,-195.5 145.7974,-195.5 145.7974,-111.5 15.8472,-111.5"/>
<text text-anchor="middle" x="80.8223" y="-183.5" font-family="Helvetica,sans-Serif" font-size="10.00" fill="#000000">Google_ServiceResource</text>
<polyline fill="none" stroke="#000000" points="15.8472,-177.5 145.7974,-177.5 "/>
<text text-anchor="middle" x="80.8223" y="-165.5" font-family="Helvetica,sans-Serif" font-size="10.00" fill="#000000"> </text>
<polyline fill="none" stroke="#000000" points="15.8472,-159.5 145.7974,-159.5 "/>
<text text-anchor="start" x="23.8472" y="-147.5" font-family="Helvetica,sans-Serif" font-size="10.00" fill="#000000">+ __construct()</text>
<text text-anchor="start" x="23.8472" y="-137.5" font-family="Helvetica,sans-Serif" font-size="10.00" fill="#000000">+ __call()</text>
<text text-anchor="start" x="23.8472" y="-127.5" font-family="Helvetica,sans-Serif" font-size="10.00" fill="#000000">+ useObjects()</text>
<text text-anchor="start" x="23.8472" y="-117.5" font-family="Helvetica,sans-Serif" font-size="10.00" fill="#000000"># stripNull()</text>
</a>
</g>
</g>
<!-- Node1&#45;&gt;Node0 -->
<g id="edge1" class="edge">
<title>Node1&#45;&gt;Node0</title>
<path fill="none" stroke="#191970" d="M74.0999,-101.0572C74.0119,-92.2275 74.1342,-83.2244 74.4668,-74.8766"/>
<polygon fill="none" stroke="#191970" points="70.6051,-101.3635 74.2998,-111.2932 77.6038,-101.2267 70.6051,-101.3635"/>
</g>
<!-- Node1&#45;&gt;Node0 -->
<g id="edge2" class="edge">
<title>Node1&#45;&gt;Node0</title>
<path fill="none" stroke="#191970" d="M87.5446,-101.0572C87.6326,-92.2275 87.5103,-83.2244 87.1777,-74.8766"/>
<polygon fill="none" stroke="#191970" points="84.0408,-101.2267 87.3447,-111.2932 91.0394,-101.3635 84.0408,-101.2267"/>
</g>
</g>
</svg>
