<?xml version="1.0" encoding="UTF-8" standalone="no"?>
<!DOCTYPE svg PUBLIC "-//W3C//DTD SVG 1.1//EN"
 "http://www.w3.org/Graphics/SVG/1.1/DTD/svg11.dtd">
<!-- Generated by graphviz version 2.40.1 (20161225.0304)
 -->
<!-- Title: Google_ShoppingModelRecommendationsJsonV1RecommendationList Pages: 1 -->
<svg width="215pt" height="234pt"
 viewBox="0.00 0.00 214.68 234.00" xmlns="http://www.w3.org/2000/svg" xmlns:xlink="http://www.w3.org/1999/xlink">
<g id="graph0" class="graph" transform="scale(1 1) rotate(0) translate(4 230)">
<title>Google_ShoppingModelRecommendationsJsonV1RecommendationList</title>
<polygon fill="#ffffff" stroke="transparent" points="-4,4 -4,-230 210.6787,-230 210.6787,4 -4,4"/>
<!-- Node0 -->
<g id="node1" class="node">
<title>Node0</title>
<polygon fill="#bfbfbf" stroke="#000000" points="0,-.5 0,-94.5 206.6787,-94.5 206.6787,-.5 0,-.5"/>
<text text-anchor="start" x="8" y="-82.5" font-family="Helvetica,sans-Serif" font-size="10.00" fill="#000000">Google_ShoppingModelRecommendations</text>
<text text-anchor="middle" x="103.3394" y="-72.5" font-family="Helvetica,sans-Serif" font-size="10.00" fill="#000000">JsonV1RecommendationList</text>
<polyline fill="none" stroke="#000000" points="0,-66.5 206.6787,-66.5 "/>
<text text-anchor="start" x="8" y="-54.5" font-family="Helvetica,sans-Serif" font-size="10.00" fill="#000000">+ $product</text>
<text text-anchor="start" x="8" y="-44.5" font-family="Helvetica,sans-Serif" font-size="10.00" fill="#000000"># $__productType</text>
<text text-anchor="start" x="8" y="-34.5" font-family="Helvetica,sans-Serif" font-size="10.00" fill="#000000"># $__productDataType</text>
<polyline fill="none" stroke="#000000" points="0,-28.5 206.6787,-28.5 "/>
<text text-anchor="start" x="8" y="-16.5" font-family="Helvetica,sans-Serif" font-size="10.00" fill="#000000">+ setProduct()</text>
<text text-anchor="start" x="8" y="-6.5" font-family="Helvetica,sans-Serif" font-size="10.00" fill="#000000">+ getProduct()</text>
</g>
<!-- Node1 -->
<g id="node2" class="node">
<title>Node1</title>
<g id="a_node2"><a xlink:href="class_google___model.html" target="_top" xlink:title="{Google_Model\n||+ __construct()\l+ assertIsArray()\l# mapTypes()\l# isAssociativeArray()\l# useObjects()\l}">
<polygon fill="#ffffff" stroke="#000000" points="46.9946,-131.5 46.9946,-225.5 159.6841,-225.5 159.6841,-131.5 46.9946,-131.5"/>
<text text-anchor="middle" x="103.3394" y="-213.5" font-family="Helvetica,sans-Serif" font-size="10.00" fill="#000000">Google_Model</text>
<polyline fill="none" stroke="#000000" points="46.9946,-207.5 159.6841,-207.5 "/>
<text text-anchor="middle" x="103.3394" y="-195.5" font-family="Helvetica,sans-Serif" font-size="10.00" fill="#000000"> </text>
<polyline fill="none" stroke="#000000" points="46.9946,-189.5 159.6841,-189.5 "/>
<text text-anchor="start" x="54.9946" y="-177.5" font-family="Helvetica,sans-Serif" font-size="10.00" fill="#000000">+ __construct()</text>
<text text-anchor="start" x="54.9946" y="-167.5" font-family="Helvetica,sans-Serif" font-size="10.00" fill="#000000">+ assertIsArray()</text>
<text text-anchor="start" x="54.9946" y="-157.5" font-family="Helvetica,sans-Serif" font-size="10.00" fill="#000000"># mapTypes()</text>
<text text-anchor="start" x="54.9946" y="-147.5" font-family="Helvetica,sans-Serif" font-size="10.00" fill="#000000"># isAssociativeArray()</text>
<text text-anchor="start" x="54.9946" y="-137.5" font-family="Helvetica,sans-Serif" font-size="10.00" fill="#000000"># useObjects()</text>
</a>
</g>
</g>
<!-- Node1&#45;&gt;Node0 -->
<g id="edge1" class="edge">
<title>Node1&#45;&gt;Node0</title>
<path fill="none" stroke="#191970" d="M103.3394,-121.0214C103.3394,-112.2362 103.3394,-103.2556 103.3394,-94.7246"/>
<polygon fill="none" stroke="#191970" points="99.8395,-121.206 103.3394,-131.206 106.8395,-121.206 99.8395,-121.206"/>
</g>
</g>
</svg>
