<?xml version="1.0" encoding="UTF-8" standalone="no"?>
<!DOCTYPE svg PUBLIC "-//W3C//DTD SVG 1.1//EN"
 "http://www.w3.org/Graphics/SVG/1.1/DTD/svg11.dtd">
<!-- Generated by graphviz version 2.40.1 (20161225.0304)
 -->
<!-- Title: Google_GroupssettingsService Pages: 1 -->
<svg width="162pt" height="174pt"
 viewBox="0.00 0.00 162.41 174.00" xmlns="http://www.w3.org/2000/svg" xmlns:xlink="http://www.w3.org/1999/xlink">
<g id="graph0" class="graph" transform="scale(1 1) rotate(0) translate(4 170)">
<title>Google_GroupssettingsService</title>
<polygon fill="#ffffff" stroke="transparent" points="-4,4 -4,-170 158.4082,-170 158.4082,4 -4,4"/>
<!-- Node0 -->
<g id="node1" class="node">
<title>Node0</title>
<polygon fill="#bfbfbf" stroke="#000000" points="0,-.5 0,-54.5 154.4082,-54.5 154.4082,-.5 0,-.5"/>
<text text-anchor="middle" x="77.2041" y="-42.5" font-family="Helvetica,sans-Serif" font-size="10.00" fill="#000000">Google_GroupssettingsService</text>
<polyline fill="none" stroke="#000000" points="0,-36.5 154.4082,-36.5 "/>
<text text-anchor="start" x="8" y="-24.5" font-family="Helvetica,sans-Serif" font-size="10.00" fill="#000000">+ $groups</text>
<polyline fill="none" stroke="#000000" points="0,-18.5 154.4082,-18.5 "/>
<text text-anchor="start" x="8" y="-6.5" font-family="Helvetica,sans-Serif" font-size="10.00" fill="#000000">+ __construct()</text>
</g>
<!-- Node1 -->
<g id="node2" class="node">
<title>Node1</title>
<g id="a_node2"><a xlink:href="class_google___service.html" target="_top" xlink:title="{Google_Service\n|+ $version\l+ $servicePath\l+ $resource\l|}">
<polygon fill="#ffffff" stroke="#000000" points="33.6279,-91.5 33.6279,-165.5 120.7803,-165.5 120.7803,-91.5 33.6279,-91.5"/>
<text text-anchor="middle" x="77.2041" y="-153.5" font-family="Helvetica,sans-Serif" font-size="10.00" fill="#000000">Google_Service</text>
<polyline fill="none" stroke="#000000" points="33.6279,-147.5 120.7803,-147.5 "/>
<text text-anchor="start" x="41.6279" y="-135.5" font-family="Helvetica,sans-Serif" font-size="10.00" fill="#000000">+ $version</text>
<text text-anchor="start" x="41.6279" y="-125.5" font-family="Helvetica,sans-Serif" font-size="10.00" fill="#000000">+ $servicePath</text>
<text text-anchor="start" x="41.6279" y="-115.5" font-family="Helvetica,sans-Serif" font-size="10.00" fill="#000000">+ $resource</text>
<polyline fill="none" stroke="#000000" points="33.6279,-109.5 120.7803,-109.5 "/>
<text text-anchor="middle" x="77.2041" y="-97.5" font-family="Helvetica,sans-Serif" font-size="10.00" fill="#000000"> </text>
</a>
</g>
</g>
<!-- Node1&#45;&gt;Node0 -->
<g id="edge1" class="edge">
<title>Node1&#45;&gt;Node0</title>
<path fill="none" stroke="#191970" d="M77.2041,-81.3008C77.2041,-72.1879 77.2041,-62.931 77.2041,-54.7239"/>
<polygon fill="none" stroke="#191970" points="73.7042,-81.4648 77.2041,-91.4648 80.7042,-81.4649 73.7042,-81.4648"/>
</g>
</g>
</svg>
