<?xml version="1.0" encoding="UTF-8" standalone="no"?>
<!DOCTYPE svg PUBLIC "-//W3C//DTD SVG 1.1//EN"
 "http://www.w3.org/Graphics/SVG/1.1/DTD/svg11.dtd">
<!-- Generated by graphviz version 2.40.1 (20161225.0304)
 -->
<!-- Title: Google_AttachmentsListResponse Pages: 1 -->
<svg width="178pt" height="254pt"
 viewBox="0.00 0.00 177.98 254.00" xmlns="http://www.w3.org/2000/svg" xmlns:xlink="http://www.w3.org/1999/xlink">
<g id="graph0" class="graph" transform="scale(1 1) rotate(0) translate(4 250)">
<title>Google_AttachmentsListResponse</title>
<polygon fill="#ffffff" stroke="transparent" points="-4,4 -4,-250 173.9795,-250 173.9795,4 -4,4"/>
<!-- Node0 -->
<g id="node1" class="node">
<title>Node0</title>
<polygon fill="#bfbfbf" stroke="#000000" points="0,-.5 0,-114.5 169.9795,-114.5 169.9795,-.5 0,-.5"/>
<text text-anchor="middle" x="84.9897" y="-102.5" font-family="Helvetica,sans-Serif" font-size="10.00" fill="#000000">Google_AttachmentsListResponse</text>
<polyline fill="none" stroke="#000000" points="0,-96.5 169.9795,-96.5 "/>
<text text-anchor="start" x="8" y="-84.5" font-family="Helvetica,sans-Serif" font-size="10.00" fill="#000000">+ $items</text>
<text text-anchor="start" x="8" y="-74.5" font-family="Helvetica,sans-Serif" font-size="10.00" fill="#000000">+ $kind</text>
<text text-anchor="start" x="8" y="-64.5" font-family="Helvetica,sans-Serif" font-size="10.00" fill="#000000"># $__itemsType</text>
<text text-anchor="start" x="8" y="-54.5" font-family="Helvetica,sans-Serif" font-size="10.00" fill="#000000"># $__itemsDataType</text>
<polyline fill="none" stroke="#000000" points="0,-48.5 169.9795,-48.5 "/>
<text text-anchor="start" x="8" y="-36.5" font-family="Helvetica,sans-Serif" font-size="10.00" fill="#000000">+ setItems()</text>
<text text-anchor="start" x="8" y="-26.5" font-family="Helvetica,sans-Serif" font-size="10.00" fill="#000000">+ getItems()</text>
<text text-anchor="start" x="8" y="-16.5" font-family="Helvetica,sans-Serif" font-size="10.00" fill="#000000">+ setKind()</text>
<text text-anchor="start" x="8" y="-6.5" font-family="Helvetica,sans-Serif" font-size="10.00" fill="#000000">+ getKind()</text>
</g>
<!-- Node1 -->
<g id="node2" class="node">
<title>Node1</title>
<g id="a_node2"><a xlink:href="class_google___model.html" target="_top" xlink:title="{Google_Model\n||+ __construct()\l+ assertIsArray()\l# mapTypes()\l# isAssociativeArray()\l# useObjects()\l}">
<polygon fill="#ffffff" stroke="#000000" points="28.645,-151.5 28.645,-245.5 141.3345,-245.5 141.3345,-151.5 28.645,-151.5"/>
<text text-anchor="middle" x="84.9897" y="-233.5" font-family="Helvetica,sans-Serif" font-size="10.00" fill="#000000">Google_Model</text>
<polyline fill="none" stroke="#000000" points="28.645,-227.5 141.3345,-227.5 "/>
<text text-anchor="middle" x="84.9897" y="-215.5" font-family="Helvetica,sans-Serif" font-size="10.00" fill="#000000"> </text>
<polyline fill="none" stroke="#000000" points="28.645,-209.5 141.3345,-209.5 "/>
<text text-anchor="start" x="36.645" y="-197.5" font-family="Helvetica,sans-Serif" font-size="10.00" fill="#000000">+ __construct()</text>
<text text-anchor="start" x="36.645" y="-187.5" font-family="Helvetica,sans-Serif" font-size="10.00" fill="#000000">+ assertIsArray()</text>
<text text-anchor="start" x="36.645" y="-177.5" font-family="Helvetica,sans-Serif" font-size="10.00" fill="#000000"># mapTypes()</text>
<text text-anchor="start" x="36.645" y="-167.5" font-family="Helvetica,sans-Serif" font-size="10.00" fill="#000000"># isAssociativeArray()</text>
<text text-anchor="start" x="36.645" y="-157.5" font-family="Helvetica,sans-Serif" font-size="10.00" fill="#000000"># useObjects()</text>
</a>
</g>
</g>
<!-- Node1&#45;&gt;Node0 -->
<g id="edge1" class="edge">
<title>Node1&#45;&gt;Node0</title>
<path fill="none" stroke="#191970" d="M84.9897,-141.1082C84.9897,-132.412 84.9897,-123.44 84.9897,-114.7469"/>
<polygon fill="none" stroke="#191970" points="81.4898,-141.1568 84.9897,-151.1568 88.4898,-141.1568 81.4898,-141.1568"/>
</g>
</g>
</svg>
