<?xml version="1.0" encoding="UTF-8" standalone="no"?>
<!DOCTYPE svg PUBLIC "-//W3C//DTD SVG 1.1//EN"
 "http://www.w3.org/Graphics/SVG/1.1/DTD/svg11.dtd">
<!-- Generated by graphviz version 2.40.1 (20161225.0304)
 -->
<!-- Title: Google_CustomsearchService Pages: 1 -->
<svg width="160pt" height="174pt"
 viewBox="0.00 0.00 159.62 174.00" xmlns="http://www.w3.org/2000/svg" xmlns:xlink="http://www.w3.org/1999/xlink">
<g id="graph0" class="graph" transform="scale(1 1) rotate(0) translate(4 170)">
<title>Google_CustomsearchService</title>
<polygon fill="#ffffff" stroke="transparent" points="-4,4 -4,-170 155.6201,-170 155.6201,4 -4,4"/>
<!-- Node0 -->
<g id="node1" class="node">
<title>Node0</title>
<polygon fill="#bfbfbf" stroke="#000000" points="0,-.5 0,-54.5 151.6201,-54.5 151.6201,-.5 0,-.5"/>
<text text-anchor="middle" x="75.8101" y="-42.5" font-family="Helvetica,sans-Serif" font-size="10.00" fill="#000000">Google_CustomsearchService</text>
<polyline fill="none" stroke="#000000" points="0,-36.5 151.6201,-36.5 "/>
<text text-anchor="start" x="8" y="-24.5" font-family="Helvetica,sans-Serif" font-size="10.00" fill="#000000">+ $cse</text>
<polyline fill="none" stroke="#000000" points="0,-18.5 151.6201,-18.5 "/>
<text text-anchor="start" x="8" y="-6.5" font-family="Helvetica,sans-Serif" font-size="10.00" fill="#000000">+ __construct()</text>
</g>
<!-- Node1 -->
<g id="node2" class="node">
<title>Node1</title>
<g id="a_node2"><a xlink:href="class_google___service.html" target="_top" xlink:title="{Google_Service\n|+ $version\l+ $servicePath\l+ $resource\l|}">
<polygon fill="#ffffff" stroke="#000000" points="32.2339,-91.5 32.2339,-165.5 119.3862,-165.5 119.3862,-91.5 32.2339,-91.5"/>
<text text-anchor="middle" x="75.8101" y="-153.5" font-family="Helvetica,sans-Serif" font-size="10.00" fill="#000000">Google_Service</text>
<polyline fill="none" stroke="#000000" points="32.2339,-147.5 119.3862,-147.5 "/>
<text text-anchor="start" x="40.2339" y="-135.5" font-family="Helvetica,sans-Serif" font-size="10.00" fill="#000000">+ $version</text>
<text text-anchor="start" x="40.2339" y="-125.5" font-family="Helvetica,sans-Serif" font-size="10.00" fill="#000000">+ $servicePath</text>
<text text-anchor="start" x="40.2339" y="-115.5" font-family="Helvetica,sans-Serif" font-size="10.00" fill="#000000">+ $resource</text>
<polyline fill="none" stroke="#000000" points="32.2339,-109.5 119.3862,-109.5 "/>
<text text-anchor="middle" x="75.8101" y="-97.5" font-family="Helvetica,sans-Serif" font-size="10.00" fill="#000000"> </text>
</a>
</g>
</g>
<!-- Node1&#45;&gt;Node0 -->
<g id="edge1" class="edge">
<title>Node1&#45;&gt;Node0</title>
<path fill="none" stroke="#191970" d="M75.8101,-81.3008C75.8101,-72.1879 75.8101,-62.931 75.8101,-54.7239"/>
<polygon fill="none" stroke="#191970" points="72.3102,-81.4648 75.8101,-91.4648 79.3102,-81.4649 72.3102,-81.4648"/>
</g>
</g>
</svg>
