<?xml version="1.0" encoding="UTF-8" standalone="no"?>
<!DOCTYPE svg PUBLIC "-//W3C//DTD SVG 1.1//EN"
 "http://www.w3.org/Graphics/SVG/1.1/DTD/svg11.dtd">
<!-- Generated by graphviz version 2.40.1 (20161225.0304)
 -->
<!-- Title: UGMailInvitation Pages: 1 -->
<svg width="98pt" height="234pt"
 viewBox="0.00 0.00 97.91 234.00" xmlns="http://www.w3.org/2000/svg" xmlns:xlink="http://www.w3.org/1999/xlink">
<g id="graph0" class="graph" transform="scale(1 1) rotate(0) translate(4 230)">
<title>UGMailInvitation</title>
<polygon fill="#ffffff" stroke="transparent" points="-4,4 -4,-230 93.9111,-230 93.9111,4 -4,4"/>
<!-- Node2 -->
<g id="node1" class="node">
<title>Node2</title>
<polygon fill="#bfbfbf" stroke="#000000" points=".2759,-.5 .2759,-94.5 89.6353,-94.5 89.6353,-.5 .2759,-.5"/>
<text text-anchor="middle" x="44.9556" y="-82.5" font-family="Helvetica,sans-Serif" font-size="10.00" fill="#000000">UGMailInvitation</text>
<polyline fill="none" stroke="#000000" points=".2759,-76.5 89.6353,-76.5 "/>
<text text-anchor="middle" x="44.9556" y="-64.5" font-family="Helvetica,sans-Serif" font-size="10.00" fill="#000000"> </text>
<polyline fill="none" stroke="#000000" points=".2759,-58.5 89.6353,-58.5 "/>
<text text-anchor="start" x="8.2759" y="-46.5" font-family="Helvetica,sans-Serif" font-size="10.00" fill="#000000">+ mailHeader()</text>
<text text-anchor="start" x="8.2759" y="-36.5" font-family="Helvetica,sans-Serif" font-size="10.00" fill="#000000">+ mailSubject()</text>
<text text-anchor="start" x="8.2759" y="-26.5" font-family="Helvetica,sans-Serif" font-size="10.00" fill="#000000">+ mailBody()</text>
<text text-anchor="start" x="8.2759" y="-16.5" font-family="Helvetica,sans-Serif" font-size="10.00" fill="#000000">+ mailSuccess()</text>
<text text-anchor="start" x="8.2759" y="-6.5" font-family="Helvetica,sans-Serif" font-size="10.00" fill="#000000">+ mailError()</text>
</g>
<!-- Node3 -->
<g id="node2" class="node">
<title>Node3</title>
<g id="a_node2"><a xlink:href="interface_u_g_mail_message.html" target="_top" xlink:title="{UGMailMessage\n||+ mailHeader()\l+ mailSubject()\l+ mailBody()\l+ mailSuccess()\l+ mailError()\l}">
<polygon fill="#ffffff" stroke="#000000" points="0,-131.5 0,-225.5 89.9111,-225.5 89.9111,-131.5 0,-131.5"/>
<text text-anchor="middle" x="44.9556" y="-213.5" font-family="Helvetica,sans-Serif" font-size="10.00" fill="#000000">UGMailMessage</text>
<polyline fill="none" stroke="#000000" points="0,-207.5 89.9111,-207.5 "/>
<text text-anchor="middle" x="44.9556" y="-195.5" font-family="Helvetica,sans-Serif" font-size="10.00" fill="#000000"> </text>
<polyline fill="none" stroke="#000000" points="0,-189.5 89.9111,-189.5 "/>
<text text-anchor="start" x="8" y="-177.5" font-family="Helvetica,sans-Serif" font-size="10.00" fill="#000000">+ mailHeader()</text>
<text text-anchor="start" x="8" y="-167.5" font-family="Helvetica,sans-Serif" font-size="10.00" fill="#000000">+ mailSubject()</text>
<text text-anchor="start" x="8" y="-157.5" font-family="Helvetica,sans-Serif" font-size="10.00" fill="#000000">+ mailBody()</text>
<text text-anchor="start" x="8" y="-147.5" font-family="Helvetica,sans-Serif" font-size="10.00" fill="#000000">+ mailSuccess()</text>
<text text-anchor="start" x="8" y="-137.5" font-family="Helvetica,sans-Serif" font-size="10.00" fill="#000000">+ mailError()</text>
</a>
</g>
</g>
<!-- Node3&#45;&gt;Node2 -->
<g id="edge1" class="edge">
<title>Node3&#45;&gt;Node2</title>
<path fill="none" stroke="#191970" d="M44.9556,-121.0214C44.9556,-112.2362 44.9556,-103.2556 44.9556,-94.7246"/>
<polygon fill="none" stroke="#191970" points="41.4557,-121.206 44.9556,-131.206 48.4557,-121.206 41.4557,-121.206"/>
</g>
</g>
</svg>
