<?xml version="1.0" encoding="UTF-8" standalone="no"?>
<!DOCTYPE svg PUBLIC "-//W3C//DTD SVG 1.1//EN"
 "http://www.w3.org/Graphics/SVG/1.1/DTD/svg11.dtd">
<!-- Generated by graphviz version 2.40.1 (20161225.0304)
 -->
<!-- Title: Google_PointStyle Pages: 1 -->
<svg width="136pt" height="254pt"
 viewBox="0.00 0.00 135.74 254.00" xmlns="http://www.w3.org/2000/svg" xmlns:xlink="http://www.w3.org/1999/xlink">
<g id="graph0" class="graph" transform="scale(1 1) rotate(0) translate(4 250)">
<title>Google_PointStyle</title>
<polygon fill="#ffffff" stroke="transparent" points="-4,4 -4,-250 131.7383,-250 131.7383,4 -4,4"/>
<!-- Node2 -->
<g id="node1" class="node">
<title>Node2</title>
<polygon fill="#bfbfbf" stroke="#000000" points="0,-.5 0,-114.5 127.7383,-114.5 127.7383,-.5 0,-.5"/>
<text text-anchor="middle" x="63.8691" y="-102.5" font-family="Helvetica,sans-Serif" font-size="10.00" fill="#000000">Google_PointStyle</text>
<polyline fill="none" stroke="#000000" points="0,-96.5 127.7383,-96.5 "/>
<text text-anchor="start" x="8" y="-84.5" font-family="Helvetica,sans-Serif" font-size="10.00" fill="#000000">+ $iconName</text>
<text text-anchor="start" x="8" y="-74.5" font-family="Helvetica,sans-Serif" font-size="10.00" fill="#000000">+ $iconStyler</text>
<text text-anchor="start" x="8" y="-64.5" font-family="Helvetica,sans-Serif" font-size="10.00" fill="#000000"># $__iconStylerType</text>
<text text-anchor="start" x="8" y="-54.5" font-family="Helvetica,sans-Serif" font-size="10.00" fill="#000000"># $__iconStylerDataType</text>
<polyline fill="none" stroke="#000000" points="0,-48.5 127.7383,-48.5 "/>
<text text-anchor="start" x="8" y="-36.5" font-family="Helvetica,sans-Serif" font-size="10.00" fill="#000000">+ setIconName()</text>
<text text-anchor="start" x="8" y="-26.5" font-family="Helvetica,sans-Serif" font-size="10.00" fill="#000000">+ getIconName()</text>
<text text-anchor="start" x="8" y="-16.5" font-family="Helvetica,sans-Serif" font-size="10.00" fill="#000000">+ setIconStyler()</text>
<text text-anchor="start" x="8" y="-6.5" font-family="Helvetica,sans-Serif" font-size="10.00" fill="#000000">+ getIconStyler()</text>
</g>
<!-- Node3 -->
<g id="node2" class="node">
<title>Node3</title>
<g id="a_node2"><a xlink:href="class_google___model.html" target="_top" xlink:title="{Google_Model\n||+ __construct()\l+ assertIsArray()\l# mapTypes()\l# isAssociativeArray()\l# useObjects()\l}">
<polygon fill="#ffffff" stroke="#000000" points="7.5244,-151.5 7.5244,-245.5 120.2139,-245.5 120.2139,-151.5 7.5244,-151.5"/>
<text text-anchor="middle" x="63.8691" y="-233.5" font-family="Helvetica,sans-Serif" font-size="10.00" fill="#000000">Google_Model</text>
<polyline fill="none" stroke="#000000" points="7.5244,-227.5 120.2139,-227.5 "/>
<text text-anchor="middle" x="63.8691" y="-215.5" font-family="Helvetica,sans-Serif" font-size="10.00" fill="#000000"> </text>
<polyline fill="none" stroke="#000000" points="7.5244,-209.5 120.2139,-209.5 "/>
<text text-anchor="start" x="15.5244" y="-197.5" font-family="Helvetica,sans-Serif" font-size="10.00" fill="#000000">+ __construct()</text>
<text text-anchor="start" x="15.5244" y="-187.5" font-family="Helvetica,sans-Serif" font-size="10.00" fill="#000000">+ assertIsArray()</text>
<text text-anchor="start" x="15.5244" y="-177.5" font-family="Helvetica,sans-Serif" font-size="10.00" fill="#000000"># mapTypes()</text>
<text text-anchor="start" x="15.5244" y="-167.5" font-family="Helvetica,sans-Serif" font-size="10.00" fill="#000000"># isAssociativeArray()</text>
<text text-anchor="start" x="15.5244" y="-157.5" font-family="Helvetica,sans-Serif" font-size="10.00" fill="#000000"># useObjects()</text>
</a>
</g>
</g>
<!-- Node3&#45;&gt;Node2 -->
<g id="edge1" class="edge">
<title>Node3&#45;&gt;Node2</title>
<path fill="none" stroke="#191970" d="M63.8691,-141.1082C63.8691,-132.412 63.8691,-123.44 63.8691,-114.7469"/>
<polygon fill="none" stroke="#191970" points="60.3692,-141.1568 63.8691,-151.1568 67.3692,-141.1568 60.3692,-141.1568"/>
</g>
</g>
</svg>
