<?xml version="1.0" encoding="UTF-8" standalone="no"?>
<!DOCTYPE svg PUBLIC "-//W3C//DTD SVG 1.1//EN"
 "http://www.w3.org/Graphics/SVG/1.1/DTD/svg11.dtd">
<!-- Generated by graphviz version 2.40.1 (20161225.0304)
 -->
<!-- Title: Google_InstancesExportRequest Pages: 1 -->
<svg width="171pt" height="224pt"
 viewBox="0.00 0.00 170.76 224.00" xmlns="http://www.w3.org/2000/svg" xmlns:xlink="http://www.w3.org/1999/xlink">
<g id="graph0" class="graph" transform="scale(1 1) rotate(0) translate(4 220)">
<title>Google_InstancesExportRequest</title>
<polygon fill="#ffffff" stroke="transparent" points="-4,4 -4,-220 166.7578,-220 166.7578,4 -4,4"/>
<!-- Node2 -->
<g id="node1" class="node">
<title>Node2</title>
<polygon fill="#bfbfbf" stroke="#000000" points="0,-.5 0,-84.5 162.7578,-84.5 162.7578,-.5 0,-.5"/>
<text text-anchor="middle" x="81.3789" y="-72.5" font-family="Helvetica,sans-Serif" font-size="10.00" fill="#000000">Google_InstancesExportRequest</text>
<polyline fill="none" stroke="#000000" points="0,-66.5 162.7578,-66.5 "/>
<text text-anchor="start" x="8" y="-54.5" font-family="Helvetica,sans-Serif" font-size="10.00" fill="#000000">+ $exportContext</text>
<text text-anchor="start" x="8" y="-44.5" font-family="Helvetica,sans-Serif" font-size="10.00" fill="#000000"># $__exportContextType</text>
<text text-anchor="start" x="8" y="-34.5" font-family="Helvetica,sans-Serif" font-size="10.00" fill="#000000"># $__exportContextDataType</text>
<polyline fill="none" stroke="#000000" points="0,-28.5 162.7578,-28.5 "/>
<text text-anchor="start" x="8" y="-16.5" font-family="Helvetica,sans-Serif" font-size="10.00" fill="#000000">+ setExportContext()</text>
<text text-anchor="start" x="8" y="-6.5" font-family="Helvetica,sans-Serif" font-size="10.00" fill="#000000">+ getExportContext()</text>
</g>
<!-- Node3 -->
<g id="node2" class="node">
<title>Node3</title>
<g id="a_node2"><a xlink:href="class_google___model.html" target="_top" xlink:title="{Google_Model\n||+ __construct()\l+ assertIsArray()\l# mapTypes()\l# isAssociativeArray()\l# useObjects()\l}">
<polygon fill="#ffffff" stroke="#000000" points="25.0342,-121.5 25.0342,-215.5 137.7236,-215.5 137.7236,-121.5 25.0342,-121.5"/>
<text text-anchor="middle" x="81.3789" y="-203.5" font-family="Helvetica,sans-Serif" font-size="10.00" fill="#000000">Google_Model</text>
<polyline fill="none" stroke="#000000" points="25.0342,-197.5 137.7236,-197.5 "/>
<text text-anchor="middle" x="81.3789" y="-185.5" font-family="Helvetica,sans-Serif" font-size="10.00" fill="#000000"> </text>
<polyline fill="none" stroke="#000000" points="25.0342,-179.5 137.7236,-179.5 "/>
<text text-anchor="start" x="33.0342" y="-167.5" font-family="Helvetica,sans-Serif" font-size="10.00" fill="#000000">+ __construct()</text>
<text text-anchor="start" x="33.0342" y="-157.5" font-family="Helvetica,sans-Serif" font-size="10.00" fill="#000000">+ assertIsArray()</text>
<text text-anchor="start" x="33.0342" y="-147.5" font-family="Helvetica,sans-Serif" font-size="10.00" fill="#000000"># mapTypes()</text>
<text text-anchor="start" x="33.0342" y="-137.5" font-family="Helvetica,sans-Serif" font-size="10.00" fill="#000000"># isAssociativeArray()</text>
<text text-anchor="start" x="33.0342" y="-127.5" font-family="Helvetica,sans-Serif" font-size="10.00" fill="#000000"># useObjects()</text>
</a>
</g>
</g>
<!-- Node3&#45;&gt;Node2 -->
<g id="edge1" class="edge">
<title>Node3&#45;&gt;Node2</title>
<path fill="none" stroke="#191970" d="M81.3789,-110.9387C81.3789,-102.0848 81.3789,-93.0866 81.3789,-84.6505"/>
<polygon fill="none" stroke="#191970" points="77.879,-111.2237 81.3789,-121.2238 84.879,-111.2238 77.879,-111.2237"/>
</g>
</g>
</svg>
