<?xml version="1.0" encoding="UTF-8" standalone="no"?>
<!DOCTYPE svg PUBLIC "-//W3C//DTD SVG 1.1//EN"
 "http://www.w3.org/Graphics/SVG/1.1/DTD/svg11.dtd">
<!-- Generated by graphviz version 2.40.1 (20161225.0304)
 -->
<!-- Title: Google_CacheException Pages: 1 -->
<svg width="135pt" height="245pt"
 viewBox="0.00 0.00 134.63 245.00" xmlns="http://www.w3.org/2000/svg" xmlns:xlink="http://www.w3.org/1999/xlink">
<g id="graph0" class="graph" transform="scale(1 1) rotate(0) translate(4 241)">
<title>Google_CacheException</title>
<polygon fill="#ffffff" stroke="transparent" points="-4,4 -4,-241 130.6299,-241 130.6299,4 -4,4"/>
<!-- Node0 -->
<g id="node1" class="node">
<title>Node0</title>
<polygon fill="#bfbfbf" stroke="#000000" points="0,-.5 0,-54.5 126.6299,-54.5 126.6299,-.5 0,-.5"/>
<text text-anchor="middle" x="63.3149" y="-42.5" font-family="Helvetica,sans-Serif" font-size="10.00" fill="#000000">Google_CacheException</text>
<polyline fill="none" stroke="#000000" points="0,-36.5 126.6299,-36.5 "/>
<text text-anchor="middle" x="63.3149" y="-24.5" font-family="Helvetica,sans-Serif" font-size="10.00" fill="#000000"> </text>
<polyline fill="none" stroke="#000000" points="0,-18.5 126.6299,-18.5 "/>
<text text-anchor="middle" x="63.3149" y="-6.5" font-family="Helvetica,sans-Serif" font-size="10.00" fill="#000000"> </text>
</g>
<!-- Node1 -->
<g id="node2" class="node">
<title>Node1</title>
<g id="a_node2"><a xlink:href="class_google___exception.html" target="_top" xlink:title="{Google_Exception\n||}">
<polygon fill="#ffffff" stroke="#000000" points="14.4531,-91.5 14.4531,-145.5 112.1768,-145.5 112.1768,-91.5 14.4531,-91.5"/>
<text text-anchor="middle" x="63.3149" y="-133.5" font-family="Helvetica,sans-Serif" font-size="10.00" fill="#000000">Google_Exception</text>
<polyline fill="none" stroke="#000000" points="14.4531,-127.5 112.1768,-127.5 "/>
<text text-anchor="middle" x="63.3149" y="-115.5" font-family="Helvetica,sans-Serif" font-size="10.00" fill="#000000"> </text>
<polyline fill="none" stroke="#000000" points="14.4531,-109.5 112.1768,-109.5 "/>
<text text-anchor="middle" x="63.3149" y="-97.5" font-family="Helvetica,sans-Serif" font-size="10.00" fill="#000000"> </text>
</a>
</g>
</g>
<!-- Node1&#45;&gt;Node0 -->
<g id="edge1" class="edge">
<title>Node1&#45;&gt;Node0</title>
<path fill="none" stroke="#191970" d="M63.3149,-81.12C63.3149,-72.3006 63.3149,-63.0605 63.3149,-54.7837"/>
<polygon fill="none" stroke="#191970" points="59.815,-81.197 63.3149,-91.197 66.815,-81.197 59.815,-81.197"/>
</g>
<!-- Node2 -->
<g id="node3" class="node">
<title>Node2</title>
<polygon fill="#ffffff" stroke="#bfbfbf" points="33.3569,-182.5 33.3569,-236.5 93.2729,-236.5 93.2729,-182.5 33.3569,-182.5"/>
<text text-anchor="middle" x="63.3149" y="-224.5" font-family="Helvetica,sans-Serif" font-size="10.00" fill="#000000">Exception</text>
<polyline fill="none" stroke="#bfbfbf" points="33.3569,-218.5 93.2729,-218.5 "/>
<text text-anchor="middle" x="63.3149" y="-206.5" font-family="Helvetica,sans-Serif" font-size="10.00" fill="#000000"> </text>
<polyline fill="none" stroke="#bfbfbf" points="33.3569,-200.5 93.2729,-200.5 "/>
<text text-anchor="middle" x="63.3149" y="-188.5" font-family="Helvetica,sans-Serif" font-size="10.00" fill="#000000"> </text>
</g>
<!-- Node2&#45;&gt;Node1 -->
<g id="edge2" class="edge">
<title>Node2&#45;&gt;Node1</title>
<path fill="none" stroke="#191970" d="M63.3149,-172.12C63.3149,-163.3006 63.3149,-154.0605 63.3149,-145.7837"/>
<polygon fill="none" stroke="#191970" points="59.815,-172.197 63.3149,-182.197 66.815,-172.197 59.815,-172.197"/>
</g>
</g>
</svg>
