<?xml version="1.0" encoding="UTF-8" standalone="no"?>
<!DOCTYPE svg PUBLIC "-//W3C//DTD SVG 1.1//EN"
 "http://www.w3.org/Graphics/SVG/1.1/DTD/svg11.dtd">
<!-- Generated by graphviz version 2.40.1 (20161225.0304)
 -->
<!-- Title: XmlController Pages: 1 -->
<svg width="177pt" height="445pt"
 viewBox="0.00 0.00 176.54 445.00" xmlns="http://www.w3.org/2000/svg" xmlns:xlink="http://www.w3.org/1999/xlink">
<g id="graph0" class="graph" transform="scale(1 1) rotate(0) translate(4 441)">
<title>XmlController</title>
<polygon fill="#ffffff" stroke="transparent" points="-4,4 -4,-441 172.5439,-441 172.5439,4 -4,4"/>
<!-- Node0 -->
<g id="node1" class="node">
<title>Node0</title>
<polygon fill="#bfbfbf" stroke="#000000" points="14.4385,-.5 14.4385,-174.5 154.1055,-174.5 154.1055,-.5 14.4385,-.5"/>
<text text-anchor="middle" x="84.272" y="-162.5" font-family="Helvetica,sans-Serif" font-size="10.00" fill="#000000">XmlController</text>
<polyline fill="none" stroke="#000000" points="14.4385,-156.5 154.1055,-156.5 "/>
<text text-anchor="start" x="22.4385" y="-144.5" font-family="Helvetica,sans-Serif" font-size="10.00" fill="#000000">+ $layout</text>
<text text-anchor="start" x="22.4385" y="-134.5" font-family="Helvetica,sans-Serif" font-size="10.00" fill="#000000">+ $updateMethods</text>
<polyline fill="none" stroke="#000000" points="14.4385,-128.5 154.1055,-128.5 "/>
<text text-anchor="start" x="22.4385" y="-116.5" font-family="Helvetica,sans-Serif" font-size="10.00" fill="#000000">+ getErrors()</text>
<text text-anchor="start" x="22.4385" y="-106.5" font-family="Helvetica,sans-Serif" font-size="10.00" fill="#000000">+ getUploadError()</text>
<text text-anchor="start" x="22.4385" y="-96.5" font-family="Helvetica,sans-Serif" font-size="10.00" fill="#000000">+ actionTest()</text>
<text text-anchor="start" x="22.4385" y="-86.5" font-family="Helvetica,sans-Serif" font-size="10.00" fill="#000000">+ actionIndex()</text>
<text text-anchor="start" x="22.4385" y="-76.5" font-family="Helvetica,sans-Serif" font-size="10.00" fill="#000000">+ actionAuthorize()</text>
<text text-anchor="start" x="22.4385" y="-66.5" font-family="Helvetica,sans-Serif" font-size="10.00" fill="#000000">+ actionCheckauth()</text>
<text text-anchor="start" x="22.4385" y="-56.5" font-family="Helvetica,sans-Serif" font-size="10.00" fill="#000000">+ actionExit()</text>
<text text-anchor="start" x="22.4385" y="-46.5" font-family="Helvetica,sans-Serif" font-size="10.00" fill="#000000">+ actionMy()</text>
<text text-anchor="start" x="22.4385" y="-36.5" font-family="Helvetica,sans-Serif" font-size="10.00" fill="#000000">+ actionGetfileuploadlimits()</text>
<text text-anchor="start" x="22.4385" y="-26.5" font-family="Helvetica,sans-Serif" font-size="10.00" fill="#000000">+ actionAdd()</text>
<text text-anchor="start" x="22.4385" y="-16.5" font-family="Helvetica,sans-Serif" font-size="10.00" fill="#000000">і ще 13...</text>
<text text-anchor="start" x="22.4385" y="-6.5" font-family="Helvetica,sans-Serif" font-size="10.00" fill="#000000"># performAjaxValidation()</text>
</g>
<!-- Node1 -->
<g id="node2" class="node">
<title>Node1</title>
<g id="a_node2"><a xlink:href="class_controller.html" target="_top" xlink:title="{Controller\n|+ $layout\l+ $title\l+ $menu\l+ $breadcrumbs\l+ $_permissionControl\l|+ getUser()\l+ filterUserGroupsAccessControl()\l+ getMapkey()\l+ filterUserGroupsAccessControl()\l# beforeAction()\l}">
<polygon fill="#ffffff" stroke="#000000" points="0,-211.5 0,-345.5 168.5439,-345.5 168.5439,-211.5 0,-211.5"/>
<text text-anchor="middle" x="84.272" y="-333.5" font-family="Helvetica,sans-Serif" font-size="10.00" fill="#000000">Controller</text>
<polyline fill="none" stroke="#000000" points="0,-327.5 168.5439,-327.5 "/>
<text text-anchor="start" x="8" y="-315.5" font-family="Helvetica,sans-Serif" font-size="10.00" fill="#000000">+ $layout</text>
<text text-anchor="start" x="8" y="-305.5" font-family="Helvetica,sans-Serif" font-size="10.00" fill="#000000">+ $title</text>
<text text-anchor="start" x="8" y="-295.5" font-family="Helvetica,sans-Serif" font-size="10.00" fill="#000000">+ $menu</text>
<text text-anchor="start" x="8" y="-285.5" font-family="Helvetica,sans-Serif" font-size="10.00" fill="#000000">+ $breadcrumbs</text>
<text text-anchor="start" x="8" y="-275.5" font-family="Helvetica,sans-Serif" font-size="10.00" fill="#000000">+ $_permissionControl</text>
<polyline fill="none" stroke="#000000" points="0,-269.5 168.5439,-269.5 "/>
<text text-anchor="start" x="8" y="-257.5" font-family="Helvetica,sans-Serif" font-size="10.00" fill="#000000">+ getUser()</text>
<text text-anchor="start" x="8" y="-247.5" font-family="Helvetica,sans-Serif" font-size="10.00" fill="#000000">+ filterUserGroupsAccessControl()</text>
<text text-anchor="start" x="8" y="-237.5" font-family="Helvetica,sans-Serif" font-size="10.00" fill="#000000">+ getMapkey()</text>
<text text-anchor="start" x="8" y="-227.5" font-family="Helvetica,sans-Serif" font-size="10.00" fill="#000000">+ filterUserGroupsAccessControl()</text>
<text text-anchor="start" x="8" y="-217.5" font-family="Helvetica,sans-Serif" font-size="10.00" fill="#000000"># beforeAction()</text>
</a>
</g>
</g>
<!-- Node1&#45;&gt;Node0 -->
<g id="edge1" class="edge">
<title>Node1&#45;&gt;Node0</title>
<path fill="none" stroke="#191970" d="M84.272,-201.2262C84.272,-192.4351 84.272,-183.43 84.272,-174.524"/>
<polygon fill="none" stroke="#191970" points="80.7721,-201.4291 84.272,-211.4291 87.7721,-201.4292 80.7721,-201.4291"/>
</g>
<!-- Node2 -->
<g id="node3" class="node">
<title>Node2</title>
<polygon fill="#ffffff" stroke="#bfbfbf" points="50.9863,-382.5 50.9863,-436.5 117.5576,-436.5 117.5576,-382.5 50.9863,-382.5"/>
<text text-anchor="middle" x="84.272" y="-424.5" font-family="Helvetica,sans-Serif" font-size="10.00" fill="#000000">CController</text>
<polyline fill="none" stroke="#bfbfbf" points="50.9863,-418.5 117.5576,-418.5 "/>
<text text-anchor="middle" x="84.272" y="-406.5" font-family="Helvetica,sans-Serif" font-size="10.00" fill="#000000"> </text>
<polyline fill="none" stroke="#bfbfbf" points="50.9863,-400.5 117.5576,-400.5 "/>
<text text-anchor="middle" x="84.272" y="-388.5" font-family="Helvetica,sans-Serif" font-size="10.00" fill="#000000"> </text>
</g>
<!-- Node2&#45;&gt;Node1 -->
<g id="edge2" class="edge">
<title>Node2&#45;&gt;Node1</title>
<path fill="none" stroke="#191970" d="M78.1134,-372.2321C77.7409,-363.8764 77.5444,-354.7626 77.5238,-345.607"/>
<polygon fill="none" stroke="#191970" points="74.6266,-372.5676 78.6792,-382.3567 81.6156,-372.1769 74.6266,-372.5676"/>
</g>
<!-- Node2&#45;&gt;Node1 -->
<g id="edge3" class="edge">
<title>Node2&#45;&gt;Node1</title>
<path fill="none" stroke="#191970" d="M90.4306,-372.2321C90.8031,-363.8764 90.9996,-354.7626 91.0202,-345.607"/>
<polygon fill="none" stroke="#191970" points="86.9283,-372.1769 89.8647,-382.3567 93.9174,-372.5676 86.9283,-372.1769"/>
</g>
</g>
</svg>
