<?xml version="1.0" encoding="UTF-8" standalone="no"?>
<!DOCTYPE svg PUBLIC "-//W3C//DTD SVG 1.1//EN"
 "http://www.w3.org/Graphics/SVG/1.1/DTD/svg11.dtd">
<!-- Generated by graphviz version 2.40.1 (20161225.0304)
 -->
<!-- Title: RequestForm Pages: 1 -->
<svg width="111pt" height="294pt"
 viewBox="0.00 0.00 111.02 294.00" xmlns="http://www.w3.org/2000/svg" xmlns:xlink="http://www.w3.org/1999/xlink">
<g id="graph0" class="graph" transform="scale(1 1) rotate(0) translate(4 290)">
<title>RequestForm</title>
<polygon fill="#ffffff" stroke="transparent" points="-4,4 -4,-290 107.0166,-290 107.0166,4 -4,4"/>
<!-- Node0 -->
<g id="node1" class="node">
<title>Node0</title>
<polygon fill="#bfbfbf" stroke="#000000" points="0,-.5 0,-194.5 103.0166,-194.5 103.0166,-.5 0,-.5"/>
<text text-anchor="middle" x="51.5083" y="-182.5" font-family="Helvetica,sans-Serif" font-size="10.00" fill="#000000">RequestForm</text>
<polyline fill="none" stroke="#000000" points="0,-176.5 103.0166,-176.5 "/>
<text text-anchor="start" x="8" y="-164.5" font-family="Helvetica,sans-Serif" font-size="10.00" fill="#000000">+ $lang</text>
<text text-anchor="start" x="8" y="-154.5" font-family="Helvetica,sans-Serif" font-size="10.00" fill="#000000">+ $defect_type</text>
<text text-anchor="start" x="8" y="-144.5" font-family="Helvetica,sans-Serif" font-size="10.00" fill="#000000">+ $to_name</text>
<text text-anchor="start" x="8" y="-134.5" font-family="Helvetica,sans-Serif" font-size="10.00" fill="#000000">+ $to_address</text>
<text text-anchor="start" x="8" y="-124.5" font-family="Helvetica,sans-Serif" font-size="10.00" fill="#000000">+ $to_index</text>
<text text-anchor="start" x="8" y="-114.5" font-family="Helvetica,sans-Serif" font-size="10.00" fill="#000000">+ $name_from</text>
<text text-anchor="start" x="8" y="-104.5" font-family="Helvetica,sans-Serif" font-size="10.00" fill="#000000">+ $address_from</text>
<text text-anchor="start" x="8" y="-94.5" font-family="Helvetica,sans-Serif" font-size="10.00" fill="#000000">+ $index_from</text>
<text text-anchor="start" x="8" y="-84.5" font-family="Helvetica,sans-Serif" font-size="10.00" fill="#000000">+ $signature</text>
<text text-anchor="start" x="8" y="-74.5" font-family="Helvetica,sans-Serif" font-size="10.00" fill="#000000">+ $html</text>
<text text-anchor="start" x="8" y="-64.5" font-family="Helvetica,sans-Serif" font-size="10.00" fill="#000000">+ $pdf</text>
<text text-anchor="start" x="8" y="-54.5" font-family="Helvetica,sans-Serif" font-size="10.00" fill="#000000">+ $authority</text>
<text text-anchor="start" x="8" y="-44.5" font-family="Helvetica,sans-Serif" font-size="10.00" fill="#000000">+ $application_data</text>
<text text-anchor="start" x="8" y="-34.5" font-family="Helvetica,sans-Serif" font-size="10.00" fill="#000000">+ $holes</text>
<polyline fill="none" stroke="#000000" points="0,-28.5 103.0166,-28.5 "/>
<text text-anchor="start" x="8" y="-16.5" font-family="Helvetica,sans-Serif" font-size="10.00" fill="#000000">+ rules()</text>
<text text-anchor="start" x="8" y="-6.5" font-family="Helvetica,sans-Serif" font-size="10.00" fill="#000000">+ attributeLabels()</text>
</g>
<!-- Node1 -->
<g id="node2" class="node">
<title>Node1</title>
<polygon fill="#ffffff" stroke="#bfbfbf" points="14.6143,-231.5 14.6143,-285.5 88.4023,-285.5 88.4023,-231.5 14.6143,-231.5"/>
<text text-anchor="middle" x="51.5083" y="-273.5" font-family="Helvetica,sans-Serif" font-size="10.00" fill="#000000">CFormModel</text>
<polyline fill="none" stroke="#bfbfbf" points="14.6143,-267.5 88.4023,-267.5 "/>
<text text-anchor="middle" x="51.5083" y="-255.5" font-family="Helvetica,sans-Serif" font-size="10.00" fill="#000000"> </text>
<polyline fill="none" stroke="#bfbfbf" points="14.6143,-249.5 88.4023,-249.5 "/>
<text text-anchor="middle" x="51.5083" y="-237.5" font-family="Helvetica,sans-Serif" font-size="10.00" fill="#000000"> </text>
</g>
<!-- Node1&#45;&gt;Node0 -->
<g id="edge1" class="edge">
<title>Node1&#45;&gt;Node0</title>
<path fill="none" stroke="#191970" d="M51.5083,-221.0295C51.5083,-212.9055 51.5083,-203.9536 51.5083,-194.6933"/>
<polygon fill="none" stroke="#191970" points="48.0084,-221.1885 51.5083,-231.1885 55.0084,-221.1886 48.0084,-221.1885"/>
</g>
</g>
</svg>
