<?xml version="1.0" encoding="UTF-8" standalone="no"?>
<!DOCTYPE svg PUBLIC "-//W3C//DTD SVG 1.1//EN"
 "http://www.w3.org/Graphics/SVG/1.1/DTD/svg11.dtd">
<!-- Generated by graphviz version 2.40.1 (20161225.0304)
 -->
<!-- Title: Google_VolumesUseruploadedServiceResource Pages: 1 -->
<svg width="162pt" height="194pt"
 viewBox="0.00 0.00 162.43 194.00" xmlns="http://www.w3.org/2000/svg" xmlns:xlink="http://www.w3.org/1999/xlink">
<g id="graph0" class="graph" transform="scale(1 1) rotate(0) translate(4 190)">
<title>Google_VolumesUseruploadedServiceResource</title>
<polygon fill="#ffffff" stroke="transparent" points="-4,4 -4,-190 158.4326,-190 158.4326,4 -4,4"/>
<!-- Node2 -->
<g id="node1" class="node">
<title>Node2</title>
<polygon fill="#bfbfbf" stroke="#000000" points="0,-.5 0,-64.5 154.4326,-64.5 154.4326,-.5 0,-.5"/>
<text text-anchor="start" x="8" y="-52.5" font-family="Helvetica,sans-Serif" font-size="10.00" fill="#000000">Google_VolumesUseruploaded</text>
<text text-anchor="middle" x="77.2163" y="-42.5" font-family="Helvetica,sans-Serif" font-size="10.00" fill="#000000">ServiceResource</text>
<polyline fill="none" stroke="#000000" points="0,-36.5 154.4326,-36.5 "/>
<text text-anchor="middle" x="77.2163" y="-24.5" font-family="Helvetica,sans-Serif" font-size="10.00" fill="#000000"> </text>
<polyline fill="none" stroke="#000000" points="0,-18.5 154.4326,-18.5 "/>
<text text-anchor="start" x="8" y="-6.5" font-family="Helvetica,sans-Serif" font-size="10.00" fill="#000000">+ listVolumesUseruploaded()</text>
</g>
<!-- Node3 -->
<g id="node2" class="node">
<title>Node3</title>
<g id="a_node2"><a xlink:href="class_google___service_resource.html" target="_top" xlink:title="{Google_ServiceResource\n||+ __construct()\l+ __call()\l+ useObjects()\l# stripNull()\l}">
<polygon fill="#ffffff" stroke="#000000" points="12.2412,-101.5 12.2412,-185.5 142.1914,-185.5 142.1914,-101.5 12.2412,-101.5"/>
<text text-anchor="middle" x="77.2163" y="-173.5" font-family="Helvetica,sans-Serif" font-size="10.00" fill="#000000">Google_ServiceResource</text>
<polyline fill="none" stroke="#000000" points="12.2412,-167.5 142.1914,-167.5 "/>
<text text-anchor="middle" x="77.2163" y="-155.5" font-family="Helvetica,sans-Serif" font-size="10.00" fill="#000000"> </text>
<polyline fill="none" stroke="#000000" points="12.2412,-149.5 142.1914,-149.5 "/>
<text text-anchor="start" x="20.2412" y="-137.5" font-family="Helvetica,sans-Serif" font-size="10.00" fill="#000000">+ __construct()</text>
<text text-anchor="start" x="20.2412" y="-127.5" font-family="Helvetica,sans-Serif" font-size="10.00" fill="#000000">+ __call()</text>
<text text-anchor="start" x="20.2412" y="-117.5" font-family="Helvetica,sans-Serif" font-size="10.00" fill="#000000">+ useObjects()</text>
<text text-anchor="start" x="20.2412" y="-107.5" font-family="Helvetica,sans-Serif" font-size="10.00" fill="#000000"># stripNull()</text>
</a>
</g>
</g>
<!-- Node3&#45;&gt;Node2 -->
<g id="edge1" class="edge">
<title>Node3&#45;&gt;Node2</title>
<path fill="none" stroke="#191970" d="M77.2163,-91.1185C77.2163,-82.0854 77.2163,-72.9418 77.2163,-64.6489"/>
<polygon fill="none" stroke="#191970" points="73.7164,-91.219 77.2163,-101.219 80.7164,-91.219 73.7164,-91.219"/>
</g>
</g>
</svg>
