<?xml version="1.0" encoding="UTF-8" standalone="no"?>
<!DOCTYPE svg PUBLIC "-//W3C//DTD SVG 1.1//EN"
 "http://www.w3.org/Graphics/SVG/1.1/DTD/svg11.dtd">
<!-- Generated by graphviz version 2.40.1 (20161225.0304)
 -->
<!-- Title: Google_AdClients Pages: 1 -->
<svg width="124pt" height="344pt"
 viewBox="0.00 0.00 123.78 344.00" xmlns="http://www.w3.org/2000/svg" xmlns:xlink="http://www.w3.org/1999/xlink">
<g id="graph0" class="graph" transform="scale(1 1) rotate(0) translate(4 340)">
<title>Google_AdClients</title>
<polygon fill="#ffffff" stroke="transparent" points="-4,4 -4,-340 119.7803,-340 119.7803,4 -4,4"/>
<!-- Node2 -->
<g id="node1" class="node">
<title>Node2</title>
<polygon fill="#bfbfbf" stroke="#000000" points="0,-.5 0,-204.5 115.7803,-204.5 115.7803,-.5 0,-.5"/>
<text text-anchor="middle" x="57.8901" y="-192.5" font-family="Helvetica,sans-Serif" font-size="10.00" fill="#000000">Google_AdClients</text>
<polyline fill="none" stroke="#000000" points="0,-186.5 115.7803,-186.5 "/>
<text text-anchor="start" x="8" y="-174.5" font-family="Helvetica,sans-Serif" font-size="10.00" fill="#000000">+ $etag</text>
<text text-anchor="start" x="8" y="-164.5" font-family="Helvetica,sans-Serif" font-size="10.00" fill="#000000">+ $items</text>
<text text-anchor="start" x="8" y="-154.5" font-family="Helvetica,sans-Serif" font-size="10.00" fill="#000000">+ $kind</text>
<text text-anchor="start" x="8" y="-144.5" font-family="Helvetica,sans-Serif" font-size="10.00" fill="#000000">+ $nextPageToken</text>
<text text-anchor="start" x="8" y="-134.5" font-family="Helvetica,sans-Serif" font-size="10.00" fill="#000000"># $__itemsType</text>
<text text-anchor="start" x="8" y="-124.5" font-family="Helvetica,sans-Serif" font-size="10.00" fill="#000000"># $__itemsDataType</text>
<polyline fill="none" stroke="#000000" points="0,-118.5 115.7803,-118.5 "/>
<text text-anchor="start" x="8" y="-106.5" font-family="Helvetica,sans-Serif" font-size="10.00" fill="#000000">+ setEtag()</text>
<text text-anchor="start" x="8" y="-96.5" font-family="Helvetica,sans-Serif" font-size="10.00" fill="#000000">+ getEtag()</text>
<text text-anchor="start" x="8" y="-86.5" font-family="Helvetica,sans-Serif" font-size="10.00" fill="#000000">+ setItems()</text>
<text text-anchor="start" x="8" y="-76.5" font-family="Helvetica,sans-Serif" font-size="10.00" fill="#000000">+ getItems()</text>
<text text-anchor="start" x="8" y="-66.5" font-family="Helvetica,sans-Serif" font-size="10.00" fill="#000000">+ setKind()</text>
<text text-anchor="start" x="8" y="-56.5" font-family="Helvetica,sans-Serif" font-size="10.00" fill="#000000">+ getKind()</text>
<text text-anchor="start" x="8" y="-46.5" font-family="Helvetica,sans-Serif" font-size="10.00" fill="#000000">+ setNextPageToken()</text>
<text text-anchor="start" x="8" y="-36.5" font-family="Helvetica,sans-Serif" font-size="10.00" fill="#000000">+ getNextPageToken()</text>
<text text-anchor="start" x="8" y="-26.5" font-family="Helvetica,sans-Serif" font-size="10.00" fill="#000000">+ setEtag()</text>
<text text-anchor="start" x="8" y="-16.5" font-family="Helvetica,sans-Serif" font-size="10.00" fill="#000000">+ getEtag()</text>
<text text-anchor="start" x="8" y="-6.5" font-family="Helvetica,sans-Serif" font-size="10.00" fill="#000000">і ще 14...</text>
</g>
<!-- Node3 -->
<g id="node2" class="node">
<title>Node3</title>
<g id="a_node2"><a xlink:href="class_google___model.html" target="_top" xlink:title="{Google_Model\n||+ __construct()\l+ assertIsArray()\l# mapTypes()\l# isAssociativeArray()\l# useObjects()\l}">
<polygon fill="#ffffff" stroke="#000000" points="1.5454,-241.5 1.5454,-335.5 114.2349,-335.5 114.2349,-241.5 1.5454,-241.5"/>
<text text-anchor="middle" x="57.8901" y="-323.5" font-family="Helvetica,sans-Serif" font-size="10.00" fill="#000000">Google_Model</text>
<polyline fill="none" stroke="#000000" points="1.5454,-317.5 114.2349,-317.5 "/>
<text text-anchor="middle" x="57.8901" y="-305.5" font-family="Helvetica,sans-Serif" font-size="10.00" fill="#000000"> </text>
<polyline fill="none" stroke="#000000" points="1.5454,-299.5 114.2349,-299.5 "/>
<text text-anchor="start" x="9.5454" y="-287.5" font-family="Helvetica,sans-Serif" font-size="10.00" fill="#000000">+ __construct()</text>
<text text-anchor="start" x="9.5454" y="-277.5" font-family="Helvetica,sans-Serif" font-size="10.00" fill="#000000">+ assertIsArray()</text>
<text text-anchor="start" x="9.5454" y="-267.5" font-family="Helvetica,sans-Serif" font-size="10.00" fill="#000000"># mapTypes()</text>
<text text-anchor="start" x="9.5454" y="-257.5" font-family="Helvetica,sans-Serif" font-size="10.00" fill="#000000"># isAssociativeArray()</text>
<text text-anchor="start" x="9.5454" y="-247.5" font-family="Helvetica,sans-Serif" font-size="10.00" fill="#000000"># useObjects()</text>
</a>
</g>
</g>
<!-- Node3&#45;&gt;Node2 -->
<g id="edge1" class="edge">
<title>Node3&#45;&gt;Node2</title>
<path fill="none" stroke="#191970" d="M45.3057,-231.007C44.8478,-222.5394 44.5617,-213.6097 44.4473,-204.5646"/>
<polygon fill="none" stroke="#191970" points="41.8189,-231.3266 45.9493,-241.0831 48.8046,-230.8803 41.8189,-231.3266"/>
</g>
<!-- Node3&#45;&gt;Node2 -->
<g id="edge2" class="edge">
<title>Node3&#45;&gt;Node2</title>
<path fill="none" stroke="#191970" d="M57.8901,-231.007C57.8901,-222.5394 57.8901,-213.6097 57.8901,-204.5646"/>
<polygon fill="none" stroke="#191970" points="54.3902,-231.0831 57.8901,-241.0831 61.3902,-231.0831 54.3902,-231.0831"/>
</g>
<!-- Node3&#45;&gt;Node2 -->
<g id="edge3" class="edge">
<title>Node3&#45;&gt;Node2</title>
<path fill="none" stroke="#191970" d="M70.4746,-231.007C70.9324,-222.5394 71.2186,-213.6097 71.333,-204.5646"/>
<polygon fill="none" stroke="#191970" points="66.9757,-230.8803 69.831,-241.0831 73.9614,-231.3266 66.9757,-230.8803"/>
</g>
</g>
</svg>
