<?xml version="1.0" encoding="UTF-8" standalone="no"?>
<!DOCTYPE svg PUBLIC "-//W3C//DTD SVG 1.1//EN"
 "http://www.w3.org/Graphics/SVG/1.1/DTD/svg11.dtd">
<!-- Generated by graphviz version 2.40.1 (20161225.0304)
 -->
<!-- Title: EAuthWidget Pages: 1 -->
<svg width="124pt" height="224pt"
 viewBox="0.00 0.00 123.79 224.00" xmlns="http://www.w3.org/2000/svg" xmlns:xlink="http://www.w3.org/1999/xlink">
<g id="graph0" class="graph" transform="scale(1 1) rotate(0) translate(4 220)">
<title>EAuthWidget</title>
<polygon fill="#ffffff" stroke="transparent" points="-4,4 -4,-220 119.7852,-220 119.7852,4 -4,4"/>
<!-- Node0 -->
<g id="node1" class="node">
<title>Node0</title>
<polygon fill="#bfbfbf" stroke="#000000" points="0,-.5 0,-124.5 115.7852,-124.5 115.7852,-.5 0,-.5"/>
<text text-anchor="middle" x="57.8926" y="-112.5" font-family="Helvetica,sans-Serif" font-size="10.00" fill="#000000">EAuthWidget</text>
<polyline fill="none" stroke="#000000" points="0,-106.5 115.7852,-106.5 "/>
<text text-anchor="start" x="8" y="-94.5" font-family="Helvetica,sans-Serif" font-size="10.00" fill="#000000">+ $component</text>
<text text-anchor="start" x="8" y="-84.5" font-family="Helvetica,sans-Serif" font-size="10.00" fill="#000000">+ $services</text>
<text text-anchor="start" x="8" y="-74.5" font-family="Helvetica,sans-Serif" font-size="10.00" fill="#000000">+ $predefinedServices</text>
<text text-anchor="start" x="8" y="-64.5" font-family="Helvetica,sans-Serif" font-size="10.00" fill="#000000">+ $popup</text>
<text text-anchor="start" x="8" y="-54.5" font-family="Helvetica,sans-Serif" font-size="10.00" fill="#000000">+ $action</text>
<text text-anchor="start" x="8" y="-44.5" font-family="Helvetica,sans-Serif" font-size="10.00" fill="#000000">+ $cssFile</text>
<polyline fill="none" stroke="#000000" points="0,-38.5 115.7852,-38.5 "/>
<text text-anchor="start" x="8" y="-26.5" font-family="Helvetica,sans-Serif" font-size="10.00" fill="#000000">+ init()</text>
<text text-anchor="start" x="8" y="-16.5" font-family="Helvetica,sans-Serif" font-size="10.00" fill="#000000">+ run()</text>
<text text-anchor="start" x="8" y="-6.5" font-family="Helvetica,sans-Serif" font-size="10.00" fill="#000000"># registerAssets()</text>
</g>
<!-- Node1 -->
<g id="node2" class="node">
<title>Node1</title>
<polygon fill="#ffffff" stroke="#bfbfbf" points="30.7202,-161.5 30.7202,-215.5 85.0649,-215.5 85.0649,-161.5 30.7202,-161.5"/>
<text text-anchor="middle" x="57.8926" y="-203.5" font-family="Helvetica,sans-Serif" font-size="10.00" fill="#000000">CWidget</text>
<polyline fill="none" stroke="#bfbfbf" points="30.7202,-197.5 85.0649,-197.5 "/>
<text text-anchor="middle" x="57.8926" y="-185.5" font-family="Helvetica,sans-Serif" font-size="10.00" fill="#000000"> </text>
<polyline fill="none" stroke="#bfbfbf" points="30.7202,-179.5 85.0649,-179.5 "/>
<text text-anchor="middle" x="57.8926" y="-167.5" font-family="Helvetica,sans-Serif" font-size="10.00" fill="#000000"> </text>
</g>
<!-- Node1&#45;&gt;Node0 -->
<g id="edge1" class="edge">
<title>Node1&#45;&gt;Node0</title>
<path fill="none" stroke="#191970" d="M57.8926,-151.3011C57.8926,-142.9169 57.8926,-133.7957 57.8926,-124.6969"/>
<polygon fill="none" stroke="#191970" points="54.3927,-151.4698 57.8926,-161.4698 61.3927,-151.4699 54.3927,-151.4698"/>
</g>
</g>
</svg>
