<?xml version="1.0" encoding="UTF-8" standalone="no"?>
<!DOCTYPE svg PUBLIC "-//W3C//DTD SVG 1.1//EN"
 "http://www.w3.org/Graphics/SVG/1.1/DTD/svg11.dtd">
<!-- Generated by graphviz version 2.40.1 (20161225.0304)
 -->
<!-- Title: EAuthException Pages: 1 -->
<svg width="95pt" height="154pt"
 viewBox="0.00 0.00 95.16 154.00" xmlns="http://www.w3.org/2000/svg" xmlns:xlink="http://www.w3.org/1999/xlink">
<g id="graph0" class="graph" transform="scale(1 1) rotate(0) translate(4 150)">
<title>EAuthException</title>
<polygon fill="#ffffff" stroke="transparent" points="-4,4 -4,-150 91.1572,-150 91.1572,4 -4,4"/>
<!-- Node0 -->
<g id="node1" class="node">
<title>Node0</title>
<polygon fill="#bfbfbf" stroke="#000000" points="0,-.5 0,-54.5 87.1572,-54.5 87.1572,-.5 0,-.5"/>
<text text-anchor="middle" x="43.5786" y="-42.5" font-family="Helvetica,sans-Serif" font-size="10.00" fill="#000000">EAuthException</text>
<polyline fill="none" stroke="#000000" points="0,-36.5 87.1572,-36.5 "/>
<text text-anchor="middle" x="43.5786" y="-24.5" font-family="Helvetica,sans-Serif" font-size="10.00" fill="#000000"> </text>
<polyline fill="none" stroke="#000000" points="0,-18.5 87.1572,-18.5 "/>
<text text-anchor="middle" x="43.5786" y="-6.5" font-family="Helvetica,sans-Serif" font-size="10.00" fill="#000000"> </text>
</g>
<!-- Node1 -->
<g id="node2" class="node">
<title>Node1</title>
<polygon fill="#ffffff" stroke="#bfbfbf" points="10.0098,-91.5 10.0098,-145.5 77.1475,-145.5 77.1475,-91.5 10.0098,-91.5"/>
<text text-anchor="middle" x="43.5786" y="-133.5" font-family="Helvetica,sans-Serif" font-size="10.00" fill="#000000">CException</text>
<polyline fill="none" stroke="#bfbfbf" points="10.0098,-127.5 77.1475,-127.5 "/>
<text text-anchor="middle" x="43.5786" y="-115.5" font-family="Helvetica,sans-Serif" font-size="10.00" fill="#000000"> </text>
<polyline fill="none" stroke="#bfbfbf" points="10.0098,-109.5 77.1475,-109.5 "/>
<text text-anchor="middle" x="43.5786" y="-97.5" font-family="Helvetica,sans-Serif" font-size="10.00" fill="#000000"> </text>
</g>
<!-- Node1&#45;&gt;Node0 -->
<g id="edge1" class="edge">
<title>Node1&#45;&gt;Node0</title>
<path fill="none" stroke="#191970" d="M43.5786,-81.12C43.5786,-72.3006 43.5786,-63.0605 43.5786,-54.7837"/>
<polygon fill="none" stroke="#191970" points="40.0787,-81.197 43.5786,-91.197 47.0787,-81.197 40.0787,-81.197"/>
</g>
</g>
</svg>
