<?xml version="1.0" encoding="UTF-8" standalone="no"?>
<!DOCTYPE svg PUBLIC "-//W3C//DTD SVG 1.1//EN"
 "http://www.w3.org/Graphics/SVG/1.1/DTD/svg11.dtd">
<!-- Generated by graphviz version 2.40.1 (20161225.0304)
 -->
<!-- Title: Google_CommentsServiceResource Pages: 1 -->
<svg width="186pt" height="284pt"
 viewBox="0.00 0.00 186.29 284.00" xmlns="http://www.w3.org/2000/svg" xmlns:xlink="http://www.w3.org/1999/xlink">
<g id="graph0" class="graph" transform="scale(1 1) rotate(0) translate(4 280)">
<title>Google_CommentsServiceResource</title>
<polygon fill="#ffffff" stroke="transparent" points="-4,4 -4,-280 182.2949,-280 182.2949,4 -4,4"/>
<!-- Node2 -->
<g id="node1" class="node">
<title>Node2</title>
<polygon fill="#bfbfbf" stroke="#000000" points="0,-.5 0,-154.5 178.2949,-154.5 178.2949,-.5 0,-.5"/>
<text text-anchor="middle" x="89.1475" y="-142.5" font-family="Helvetica,sans-Serif" font-size="10.00" fill="#000000">Google_CommentsServiceResource</text>
<polyline fill="none" stroke="#000000" points="0,-136.5 178.2949,-136.5 "/>
<text text-anchor="middle" x="89.1475" y="-124.5" font-family="Helvetica,sans-Serif" font-size="10.00" fill="#000000"> </text>
<polyline fill="none" stroke="#000000" points="0,-118.5 178.2949,-118.5 "/>
<text text-anchor="start" x="8" y="-106.5" font-family="Helvetica,sans-Serif" font-size="10.00" fill="#000000">+ get()</text>
<text text-anchor="start" x="8" y="-96.5" font-family="Helvetica,sans-Serif" font-size="10.00" fill="#000000">+ listComments()</text>
<text text-anchor="start" x="8" y="-86.5" font-family="Helvetica,sans-Serif" font-size="10.00" fill="#000000">+ delete()</text>
<text text-anchor="start" x="8" y="-76.5" font-family="Helvetica,sans-Serif" font-size="10.00" fill="#000000">+ get()</text>
<text text-anchor="start" x="8" y="-66.5" font-family="Helvetica,sans-Serif" font-size="10.00" fill="#000000">+ insert()</text>
<text text-anchor="start" x="8" y="-56.5" font-family="Helvetica,sans-Serif" font-size="10.00" fill="#000000">+ listComments()</text>
<text text-anchor="start" x="8" y="-46.5" font-family="Helvetica,sans-Serif" font-size="10.00" fill="#000000">+ patch()</text>
<text text-anchor="start" x="8" y="-36.5" font-family="Helvetica,sans-Serif" font-size="10.00" fill="#000000">+ update()</text>
<text text-anchor="start" x="8" y="-26.5" font-family="Helvetica,sans-Serif" font-size="10.00" fill="#000000">+ delete()</text>
<text text-anchor="start" x="8" y="-16.5" font-family="Helvetica,sans-Serif" font-size="10.00" fill="#000000">+ get()</text>
<text text-anchor="start" x="8" y="-6.5" font-family="Helvetica,sans-Serif" font-size="10.00" fill="#000000">і ще 7...</text>
</g>
<!-- Node3 -->
<g id="node2" class="node">
<title>Node3</title>
<g id="a_node2"><a xlink:href="class_google___service_resource.html" target="_top" xlink:title="{Google_ServiceResource\n||+ __construct()\l+ __call()\l+ useObjects()\l# stripNull()\l}">
<polygon fill="#ffffff" stroke="#000000" points="24.1724,-191.5 24.1724,-275.5 154.1226,-275.5 154.1226,-191.5 24.1724,-191.5"/>
<text text-anchor="middle" x="89.1475" y="-263.5" font-family="Helvetica,sans-Serif" font-size="10.00" fill="#000000">Google_ServiceResource</text>
<polyline fill="none" stroke="#000000" points="24.1724,-257.5 154.1226,-257.5 "/>
<text text-anchor="middle" x="89.1475" y="-245.5" font-family="Helvetica,sans-Serif" font-size="10.00" fill="#000000"> </text>
<polyline fill="none" stroke="#000000" points="24.1724,-239.5 154.1226,-239.5 "/>
<text text-anchor="start" x="32.1724" y="-227.5" font-family="Helvetica,sans-Serif" font-size="10.00" fill="#000000">+ __construct()</text>
<text text-anchor="start" x="32.1724" y="-217.5" font-family="Helvetica,sans-Serif" font-size="10.00" fill="#000000">+ __call()</text>
<text text-anchor="start" x="32.1724" y="-207.5" font-family="Helvetica,sans-Serif" font-size="10.00" fill="#000000">+ useObjects()</text>
<text text-anchor="start" x="32.1724" y="-197.5" font-family="Helvetica,sans-Serif" font-size="10.00" fill="#000000"># stripNull()</text>
</a>
</g>
</g>
<!-- Node3&#45;&gt;Node2 -->
<g id="edge1" class="edge">
<title>Node3&#45;&gt;Node2</title>
<path fill="none" stroke="#191970" d="M63.4873,-181.132C62.5638,-172.5955 62.1177,-163.5981 62.149,-154.6163"/>
<polygon fill="none" stroke="#191970" points="60.0507,-181.8389 64.8505,-191.2842 66.9884,-180.9073 60.0507,-181.8389"/>
</g>
<!-- Node3&#45;&gt;Node2 -->
<g id="edge2" class="edge">
<title>Node3&#45;&gt;Node2</title>
<path fill="none" stroke="#191970" d="M76.3174,-181.132C75.8556,-172.5955 75.6326,-163.5981 75.6482,-154.6163"/>
<polygon fill="none" stroke="#191970" points="72.8369,-181.5411 76.999,-191.2842 79.8211,-181.0721 72.8369,-181.5411"/>
</g>
<!-- Node3&#45;&gt;Node2 -->
<g id="edge3" class="edge">
<title>Node3&#45;&gt;Node2</title>
<path fill="none" stroke="#191970" d="M89.1475,-181.132C89.1475,-172.5955 89.1475,-163.5981 89.1475,-154.6163"/>
<polygon fill="none" stroke="#191970" points="85.6476,-181.2841 89.1475,-191.2842 92.6476,-181.2842 85.6476,-181.2841"/>
</g>
<!-- Node3&#45;&gt;Node2 -->
<g id="edge4" class="edge">
<title>Node3&#45;&gt;Node2</title>
<path fill="none" stroke="#191970" d="M101.9776,-181.132C102.4393,-172.5955 102.6623,-163.5981 102.6467,-154.6163"/>
<polygon fill="none" stroke="#191970" points="98.4738,-181.0721 101.2959,-191.2842 105.4581,-181.5411 98.4738,-181.0721"/>
</g>
<!-- Node3&#45;&gt;Node2 -->
<g id="edge5" class="edge">
<title>Node3&#45;&gt;Node2</title>
<path fill="none" stroke="#191970" d="M114.8076,-181.132C115.7311,-172.5955 116.1772,-163.5981 116.1459,-154.6163"/>
<polygon fill="none" stroke="#191970" points="111.3065,-180.9073 113.4444,-191.2842 118.2442,-181.8389 111.3065,-180.9073"/>
</g>
</g>
</svg>
