<?xml version="1.0" encoding="UTF-8" standalone="no"?>
<!DOCTYPE svg PUBLIC "-//W3C//DTD SVG 1.1//EN"
 "http://www.w3.org/Graphics/SVG/1.1/DTD/svg11.dtd">
<!-- Generated by graphviz version 2.40.1 (20161225.0304)
 -->
<!-- Title: EAuth Pages: 1 -->
<svg width="132pt" height="274pt"
 viewBox="0.00 0.00 131.84 274.00" xmlns="http://www.w3.org/2000/svg" xmlns:xlink="http://www.w3.org/1999/xlink">
<g id="graph0" class="graph" transform="scale(1 1) rotate(0) translate(4 270)">
<title>EAuth</title>
<polygon fill="#ffffff" stroke="transparent" points="-4,4 -4,-270 127.8418,-270 127.8418,4 -4,4"/>
<!-- Node0 -->
<g id="node1" class="node">
<title>Node0</title>
<polygon fill="#bfbfbf" stroke="#000000" points="10.2441,-.5 10.2441,-174.5 113.5977,-174.5 113.5977,-.5 10.2441,-.5"/>
<text text-anchor="middle" x="61.9209" y="-162.5" font-family="Helvetica,sans-Serif" font-size="10.00" fill="#000000">EAuth</text>
<polyline fill="none" stroke="#000000" points="10.2441,-156.5 113.5977,-156.5 "/>
<text text-anchor="start" x="18.2441" y="-144.5" font-family="Helvetica,sans-Serif" font-size="10.00" fill="#000000">+ $services</text>
<text text-anchor="start" x="18.2441" y="-134.5" font-family="Helvetica,sans-Serif" font-size="10.00" fill="#000000">+ $popup</text>
<text text-anchor="start" x="18.2441" y="-124.5" font-family="Helvetica,sans-Serif" font-size="10.00" fill="#000000">+ $cache</text>
<text text-anchor="start" x="18.2441" y="-114.5" font-family="Helvetica,sans-Serif" font-size="10.00" fill="#000000">+ $cacheExpire</text>
<text text-anchor="start" x="18.2441" y="-104.5" font-family="Helvetica,sans-Serif" font-size="10.00" fill="#000000"># $redirectView</text>
<polyline fill="none" stroke="#000000" points="10.2441,-98.5 113.5977,-98.5 "/>
<text text-anchor="start" x="18.2441" y="-86.5" font-family="Helvetica,sans-Serif" font-size="10.00" fill="#000000">+ getServices()</text>
<text text-anchor="start" x="18.2441" y="-76.5" font-family="Helvetica,sans-Serif" font-size="10.00" fill="#000000">+ getServiceType()</text>
<text text-anchor="start" x="18.2441" y="-66.5" font-family="Helvetica,sans-Serif" font-size="10.00" fill="#000000">+ getIdentity()</text>
<text text-anchor="start" x="18.2441" y="-56.5" font-family="Helvetica,sans-Serif" font-size="10.00" fill="#000000">+ setRedirectView()</text>
<text text-anchor="start" x="18.2441" y="-46.5" font-family="Helvetica,sans-Serif" font-size="10.00" fill="#000000">+ redirect()</text>
<text text-anchor="start" x="18.2441" y="-36.5" font-family="Helvetica,sans-Serif" font-size="10.00" fill="#000000">+ renderWidget()</text>
<text text-anchor="start" x="18.2441" y="-26.5" font-family="Helvetica,sans-Serif" font-size="10.00" fill="#000000">+ toString()</text>
<text text-anchor="start" x="18.2441" y="-16.5" font-family="Helvetica,sans-Serif" font-size="10.00" fill="#000000">+ fromString()</text>
<text text-anchor="start" x="18.2441" y="-6.5" font-family="Helvetica,sans-Serif" font-size="10.00" fill="#000000"># getService()</text>
</g>
<!-- Node1 -->
<g id="node2" class="node">
<title>Node1</title>
<polygon fill="#ffffff" stroke="#bfbfbf" points="0,-211.5 0,-265.5 123.8418,-265.5 123.8418,-211.5 0,-211.5"/>
<text text-anchor="middle" x="61.9209" y="-253.5" font-family="Helvetica,sans-Serif" font-size="10.00" fill="#000000">CApplicationComponent</text>
<polyline fill="none" stroke="#bfbfbf" points="0,-247.5 123.8418,-247.5 "/>
<text text-anchor="middle" x="61.9209" y="-235.5" font-family="Helvetica,sans-Serif" font-size="10.00" fill="#000000"> </text>
<polyline fill="none" stroke="#bfbfbf" points="0,-229.5 123.8418,-229.5 "/>
<text text-anchor="middle" x="61.9209" y="-217.5" font-family="Helvetica,sans-Serif" font-size="10.00" fill="#000000"> </text>
</g>
<!-- Node1&#45;&gt;Node0 -->
<g id="edge1" class="edge">
<title>Node1&#45;&gt;Node0</title>
<path fill="none" stroke="#191970" d="M61.9209,-200.9707C61.9209,-192.8399 61.9209,-183.9149 61.9209,-174.7531"/>
<polygon fill="none" stroke="#191970" points="58.421,-201.155 61.9209,-211.155 65.421,-201.1551 58.421,-201.155"/>
</g>
</g>
</svg>
