<?xml version="1.0" encoding="UTF-8" standalone="no"?>
<!DOCTYPE svg PUBLIC "-//W3C//DTD SVG 1.1//EN"
 "http://www.w3.org/Graphics/SVG/1.1/DTD/svg11.dtd">
<!-- Generated by graphviz version 2.40.1 (20161225.0304)
 -->
<!-- Title: Google_SubmissionList Pages: 1 -->
<svg width="129pt" height="254pt"
 viewBox="0.00 0.00 129.06 254.00" xmlns="http://www.w3.org/2000/svg" xmlns:xlink="http://www.w3.org/1999/xlink">
<g id="graph0" class="graph" transform="scale(1 1) rotate(0) translate(4 250)">
<title>Google_SubmissionList</title>
<polygon fill="#ffffff" stroke="transparent" points="-4,4 -4,-250 125.0586,-250 125.0586,4 -4,4"/>
<!-- Node0 -->
<g id="node1" class="node">
<title>Node0</title>
<polygon fill="#bfbfbf" stroke="#000000" points="0,-.5 0,-114.5 121.0586,-114.5 121.0586,-.5 0,-.5"/>
<text text-anchor="middle" x="60.5293" y="-102.5" font-family="Helvetica,sans-Serif" font-size="10.00" fill="#000000">Google_SubmissionList</text>
<polyline fill="none" stroke="#000000" points="0,-96.5 121.0586,-96.5 "/>
<text text-anchor="start" x="8" y="-84.5" font-family="Helvetica,sans-Serif" font-size="10.00" fill="#000000">+ $items</text>
<text text-anchor="start" x="8" y="-74.5" font-family="Helvetica,sans-Serif" font-size="10.00" fill="#000000">+ $kind</text>
<text text-anchor="start" x="8" y="-64.5" font-family="Helvetica,sans-Serif" font-size="10.00" fill="#000000"># $__itemsType</text>
<text text-anchor="start" x="8" y="-54.5" font-family="Helvetica,sans-Serif" font-size="10.00" fill="#000000"># $__itemsDataType</text>
<polyline fill="none" stroke="#000000" points="0,-48.5 121.0586,-48.5 "/>
<text text-anchor="start" x="8" y="-36.5" font-family="Helvetica,sans-Serif" font-size="10.00" fill="#000000">+ setItems()</text>
<text text-anchor="start" x="8" y="-26.5" font-family="Helvetica,sans-Serif" font-size="10.00" fill="#000000">+ getItems()</text>
<text text-anchor="start" x="8" y="-16.5" font-family="Helvetica,sans-Serif" font-size="10.00" fill="#000000">+ setKind()</text>
<text text-anchor="start" x="8" y="-6.5" font-family="Helvetica,sans-Serif" font-size="10.00" fill="#000000">+ getKind()</text>
</g>
<!-- Node1 -->
<g id="node2" class="node">
<title>Node1</title>
<g id="a_node2"><a xlink:href="class_google___model.html" target="_top" xlink:title="{Google_Model\n||+ __construct()\l+ assertIsArray()\l# mapTypes()\l# isAssociativeArray()\l# useObjects()\l}">
<polygon fill="#ffffff" stroke="#000000" points="4.1846,-151.5 4.1846,-245.5 116.874,-245.5 116.874,-151.5 4.1846,-151.5"/>
<text text-anchor="middle" x="60.5293" y="-233.5" font-family="Helvetica,sans-Serif" font-size="10.00" fill="#000000">Google_Model</text>
<polyline fill="none" stroke="#000000" points="4.1846,-227.5 116.874,-227.5 "/>
<text text-anchor="middle" x="60.5293" y="-215.5" font-family="Helvetica,sans-Serif" font-size="10.00" fill="#000000"> </text>
<polyline fill="none" stroke="#000000" points="4.1846,-209.5 116.874,-209.5 "/>
<text text-anchor="start" x="12.1846" y="-197.5" font-family="Helvetica,sans-Serif" font-size="10.00" fill="#000000">+ __construct()</text>
<text text-anchor="start" x="12.1846" y="-187.5" font-family="Helvetica,sans-Serif" font-size="10.00" fill="#000000">+ assertIsArray()</text>
<text text-anchor="start" x="12.1846" y="-177.5" font-family="Helvetica,sans-Serif" font-size="10.00" fill="#000000"># mapTypes()</text>
<text text-anchor="start" x="12.1846" y="-167.5" font-family="Helvetica,sans-Serif" font-size="10.00" fill="#000000"># isAssociativeArray()</text>
<text text-anchor="start" x="12.1846" y="-157.5" font-family="Helvetica,sans-Serif" font-size="10.00" fill="#000000"># useObjects()</text>
</a>
</g>
</g>
<!-- Node1&#45;&gt;Node0 -->
<g id="edge1" class="edge">
<title>Node1&#45;&gt;Node0</title>
<path fill="none" stroke="#191970" d="M60.5293,-141.1082C60.5293,-132.412 60.5293,-123.44 60.5293,-114.7469"/>
<polygon fill="none" stroke="#191970" points="57.0294,-141.1568 60.5293,-151.1568 64.0294,-141.1568 57.0294,-141.1568"/>
</g>
</g>
</svg>
