<?xml version="1.0" encoding="UTF-8" standalone="no"?>
<!DOCTYPE svg PUBLIC "-//W3C//DTD SVG 1.1//EN"
 "http://www.w3.org/Graphics/SVG/1.1/DTD/svg11.dtd">
<!-- Generated by graphviz version 2.40.1 (20161225.0304)
 -->
<!-- Title: Google_BucketWebsite Pages: 1 -->
<svg width="128pt" height="234pt"
 viewBox="0.00 0.00 128.33 234.00" xmlns="http://www.w3.org/2000/svg" xmlns:xlink="http://www.w3.org/1999/xlink">
<g id="graph0" class="graph" transform="scale(1 1) rotate(0) translate(4 230)">
<title>Google_BucketWebsite</title>
<polygon fill="#ffffff" stroke="transparent" points="-4,4 -4,-230 124.3262,-230 124.3262,4 -4,4"/>
<!-- Node2 -->
<g id="node1" class="node">
<title>Node2</title>
<polygon fill="#bfbfbf" stroke="#000000" points="0,-.5 0,-94.5 120.3262,-94.5 120.3262,-.5 0,-.5"/>
<text text-anchor="middle" x="60.1631" y="-82.5" font-family="Helvetica,sans-Serif" font-size="10.00" fill="#000000">Google_BucketWebsite</text>
<polyline fill="none" stroke="#000000" points="0,-76.5 120.3262,-76.5 "/>
<text text-anchor="start" x="8" y="-64.5" font-family="Helvetica,sans-Serif" font-size="10.00" fill="#000000">+ $mainPageSuffix</text>
<text text-anchor="start" x="8" y="-54.5" font-family="Helvetica,sans-Serif" font-size="10.00" fill="#000000">+ $notFoundPage</text>
<polyline fill="none" stroke="#000000" points="0,-48.5 120.3262,-48.5 "/>
<text text-anchor="start" x="8" y="-36.5" font-family="Helvetica,sans-Serif" font-size="10.00" fill="#000000">+ setMainPageSuffix()</text>
<text text-anchor="start" x="8" y="-26.5" font-family="Helvetica,sans-Serif" font-size="10.00" fill="#000000">+ getMainPageSuffix()</text>
<text text-anchor="start" x="8" y="-16.5" font-family="Helvetica,sans-Serif" font-size="10.00" fill="#000000">+ setNotFoundPage()</text>
<text text-anchor="start" x="8" y="-6.5" font-family="Helvetica,sans-Serif" font-size="10.00" fill="#000000">+ getNotFoundPage()</text>
</g>
<!-- Node3 -->
<g id="node2" class="node">
<title>Node3</title>
<g id="a_node2"><a xlink:href="class_google___model.html" target="_top" xlink:title="{Google_Model\n||+ __construct()\l+ assertIsArray()\l# mapTypes()\l# isAssociativeArray()\l# useObjects()\l}">
<polygon fill="#ffffff" stroke="#000000" points="3.8184,-131.5 3.8184,-225.5 116.5078,-225.5 116.5078,-131.5 3.8184,-131.5"/>
<text text-anchor="middle" x="60.1631" y="-213.5" font-family="Helvetica,sans-Serif" font-size="10.00" fill="#000000">Google_Model</text>
<polyline fill="none" stroke="#000000" points="3.8184,-207.5 116.5078,-207.5 "/>
<text text-anchor="middle" x="60.1631" y="-195.5" font-family="Helvetica,sans-Serif" font-size="10.00" fill="#000000"> </text>
<polyline fill="none" stroke="#000000" points="3.8184,-189.5 116.5078,-189.5 "/>
<text text-anchor="start" x="11.8184" y="-177.5" font-family="Helvetica,sans-Serif" font-size="10.00" fill="#000000">+ __construct()</text>
<text text-anchor="start" x="11.8184" y="-167.5" font-family="Helvetica,sans-Serif" font-size="10.00" fill="#000000">+ assertIsArray()</text>
<text text-anchor="start" x="11.8184" y="-157.5" font-family="Helvetica,sans-Serif" font-size="10.00" fill="#000000"># mapTypes()</text>
<text text-anchor="start" x="11.8184" y="-147.5" font-family="Helvetica,sans-Serif" font-size="10.00" fill="#000000"># isAssociativeArray()</text>
<text text-anchor="start" x="11.8184" y="-137.5" font-family="Helvetica,sans-Serif" font-size="10.00" fill="#000000"># useObjects()</text>
</a>
</g>
</g>
<!-- Node3&#45;&gt;Node2 -->
<g id="edge1" class="edge">
<title>Node3&#45;&gt;Node2</title>
<path fill="none" stroke="#191970" d="M60.1631,-121.0214C60.1631,-112.2362 60.1631,-103.2556 60.1631,-94.7246"/>
<polygon fill="none" stroke="#191970" points="56.6632,-121.206 60.1631,-131.206 63.6632,-121.206 56.6632,-121.206"/>
</g>
</g>
</svg>
