<?xml version="1.0" encoding="UTF-8" standalone="no"?>
<!DOCTYPE svg PUBLIC "-//W3C//DTD SVG 1.1//EN"
 "http://www.w3.org/Graphics/SVG/1.1/DTD/svg11.dtd">
<!-- Generated by graphviz version 2.40.1 (20161225.0304)
 -->
<!-- Title: MessengersController Pages: 1 -->
<svg width="177pt" height="395pt"
 viewBox="0.00 0.00 176.54 395.00" xmlns="http://www.w3.org/2000/svg" xmlns:xlink="http://www.w3.org/1999/xlink">
<g id="graph0" class="graph" transform="scale(1 1) rotate(0) translate(4 391)">
<title>MessengersController</title>
<polygon fill="#ffffff" stroke="transparent" points="-4,4 -4,-391 172.5439,-391 172.5439,4 -4,4"/>
<!-- Node3 -->
<g id="node1" class="node">
<title>Node3</title>
<polygon fill="#bfbfbf" stroke="#000000" points="20.2271,-.5 20.2271,-124.5 148.3169,-124.5 148.3169,-.5 20.2271,-.5"/>
<text text-anchor="middle" x="84.272" y="-112.5" font-family="Helvetica,sans-Serif" font-size="10.00" fill="#000000">MessengersController</text>
<polyline fill="none" stroke="#000000" points="20.2271,-106.5 148.3169,-106.5 "/>
<text text-anchor="start" x="28.2271" y="-94.5" font-family="Helvetica,sans-Serif" font-size="10.00" fill="#000000">+ $layout</text>
<polyline fill="none" stroke="#000000" points="20.2271,-88.5 148.3169,-88.5 "/>
<text text-anchor="start" x="28.2271" y="-76.5" font-family="Helvetica,sans-Serif" font-size="10.00" fill="#000000">+ filters()</text>
<text text-anchor="start" x="28.2271" y="-66.5" font-family="Helvetica,sans-Serif" font-size="10.00" fill="#000000">+ accessRules()</text>
<text text-anchor="start" x="28.2271" y="-56.5" font-family="Helvetica,sans-Serif" font-size="10.00" fill="#000000">+ actionCreate()</text>
<text text-anchor="start" x="28.2271" y="-46.5" font-family="Helvetica,sans-Serif" font-size="10.00" fill="#000000">+ actionUpdate()</text>
<text text-anchor="start" x="28.2271" y="-36.5" font-family="Helvetica,sans-Serif" font-size="10.00" fill="#000000">+ actionDelete()</text>
<text text-anchor="start" x="28.2271" y="-26.5" font-family="Helvetica,sans-Serif" font-size="10.00" fill="#000000">+ actionIndex()</text>
<text text-anchor="start" x="28.2271" y="-16.5" font-family="Helvetica,sans-Serif" font-size="10.00" fill="#000000">+ loadModel()</text>
<text text-anchor="start" x="28.2271" y="-6.5" font-family="Helvetica,sans-Serif" font-size="10.00" fill="#000000"># performAjaxValidation()</text>
</g>
<!-- Node4 -->
<g id="node2" class="node">
<title>Node4</title>
<g id="a_node2"><a xlink:href="class_controller.html" target="_top" xlink:title="{Controller\n|+ $layout\l+ $title\l+ $menu\l+ $breadcrumbs\l+ $_permissionControl\l|+ getUser()\l+ filterUserGroupsAccessControl()\l+ getMapkey()\l+ filterUserGroupsAccessControl()\l# beforeAction()\l}">
<polygon fill="#ffffff" stroke="#000000" points="0,-161.5 0,-295.5 168.5439,-295.5 168.5439,-161.5 0,-161.5"/>
<text text-anchor="middle" x="84.272" y="-283.5" font-family="Helvetica,sans-Serif" font-size="10.00" fill="#000000">Controller</text>
<polyline fill="none" stroke="#000000" points="0,-277.5 168.5439,-277.5 "/>
<text text-anchor="start" x="8" y="-265.5" font-family="Helvetica,sans-Serif" font-size="10.00" fill="#000000">+ $layout</text>
<text text-anchor="start" x="8" y="-255.5" font-family="Helvetica,sans-Serif" font-size="10.00" fill="#000000">+ $title</text>
<text text-anchor="start" x="8" y="-245.5" font-family="Helvetica,sans-Serif" font-size="10.00" fill="#000000">+ $menu</text>
<text text-anchor="start" x="8" y="-235.5" font-family="Helvetica,sans-Serif" font-size="10.00" fill="#000000">+ $breadcrumbs</text>
<text text-anchor="start" x="8" y="-225.5" font-family="Helvetica,sans-Serif" font-size="10.00" fill="#000000">+ $_permissionControl</text>
<polyline fill="none" stroke="#000000" points="0,-219.5 168.5439,-219.5 "/>
<text text-anchor="start" x="8" y="-207.5" font-family="Helvetica,sans-Serif" font-size="10.00" fill="#000000">+ getUser()</text>
<text text-anchor="start" x="8" y="-197.5" font-family="Helvetica,sans-Serif" font-size="10.00" fill="#000000">+ filterUserGroupsAccessControl()</text>
<text text-anchor="start" x="8" y="-187.5" font-family="Helvetica,sans-Serif" font-size="10.00" fill="#000000">+ getMapkey()</text>
<text text-anchor="start" x="8" y="-177.5" font-family="Helvetica,sans-Serif" font-size="10.00" fill="#000000">+ filterUserGroupsAccessControl()</text>
<text text-anchor="start" x="8" y="-167.5" font-family="Helvetica,sans-Serif" font-size="10.00" fill="#000000"># beforeAction()</text>
</a>
</g>
</g>
<!-- Node4&#45;&gt;Node3 -->
<g id="edge1" class="edge">
<title>Node4&#45;&gt;Node3</title>
<path fill="none" stroke="#191970" d="M84.272,-151.4111C84.272,-142.4562 84.272,-133.4091 84.272,-124.6895"/>
<polygon fill="none" stroke="#191970" points="80.7721,-151.4599 84.272,-161.4599 87.7721,-151.46 80.7721,-151.4599"/>
</g>
<!-- Node5 -->
<g id="node3" class="node">
<title>Node5</title>
<polygon fill="#ffffff" stroke="#bfbfbf" points="50.9863,-332.5 50.9863,-386.5 117.5576,-386.5 117.5576,-332.5 50.9863,-332.5"/>
<text text-anchor="middle" x="84.272" y="-374.5" font-family="Helvetica,sans-Serif" font-size="10.00" fill="#000000">CController</text>
<polyline fill="none" stroke="#bfbfbf" points="50.9863,-368.5 117.5576,-368.5 "/>
<text text-anchor="middle" x="84.272" y="-356.5" font-family="Helvetica,sans-Serif" font-size="10.00" fill="#000000"> </text>
<polyline fill="none" stroke="#bfbfbf" points="50.9863,-350.5 117.5576,-350.5 "/>
<text text-anchor="middle" x="84.272" y="-338.5" font-family="Helvetica,sans-Serif" font-size="10.00" fill="#000000"> </text>
</g>
<!-- Node5&#45;&gt;Node4 -->
<g id="edge2" class="edge">
<title>Node5&#45;&gt;Node4</title>
<path fill="none" stroke="#191970" d="M78.1134,-322.2321C77.7409,-313.8764 77.5444,-304.7626 77.5238,-295.607"/>
<polygon fill="none" stroke="#191970" points="74.6266,-322.5676 78.6792,-332.3567 81.6156,-322.1769 74.6266,-322.5676"/>
</g>
<!-- Node5&#45;&gt;Node4 -->
<g id="edge3" class="edge">
<title>Node5&#45;&gt;Node4</title>
<path fill="none" stroke="#191970" d="M90.4306,-322.2321C90.8031,-313.8764 90.9996,-304.7626 91.0202,-295.607"/>
<polygon fill="none" stroke="#191970" points="86.9283,-322.1769 89.8647,-332.3567 93.9174,-322.5676 86.9283,-322.1769"/>
</g>
</g>
</svg>
