<?xml version="1.0" encoding="UTF-8" standalone="no"?>
<!DOCTYPE svg PUBLIC "-//W3C//DTD SVG 1.1//EN"
 "http://www.w3.org/Graphics/SVG/1.1/DTD/svg11.dtd">
<!-- Generated by graphviz version 2.40.1 (20161225.0304)
 -->
<!-- Title: Google_FreeBusyRequestItem Pages: 1 -->
<svg width="161pt" height="204pt"
 viewBox="0.00 0.00 161.29 204.00" xmlns="http://www.w3.org/2000/svg" xmlns:xlink="http://www.w3.org/1999/xlink">
<g id="graph0" class="graph" transform="scale(1 1) rotate(0) translate(4 200)">
<title>Google_FreeBusyRequestItem</title>
<polygon fill="#ffffff" stroke="transparent" points="-4,4 -4,-200 157.2949,-200 157.2949,4 -4,4"/>
<!-- Node0 -->
<g id="node1" class="node">
<title>Node0</title>
<polygon fill="#bfbfbf" stroke="#000000" points="0,-.5 0,-64.5 153.2949,-64.5 153.2949,-.5 0,-.5"/>
<text text-anchor="middle" x="76.6475" y="-52.5" font-family="Helvetica,sans-Serif" font-size="10.00" fill="#000000">Google_FreeBusyRequestItem</text>
<polyline fill="none" stroke="#000000" points="0,-46.5 153.2949,-46.5 "/>
<text text-anchor="start" x="8" y="-34.5" font-family="Helvetica,sans-Serif" font-size="10.00" fill="#000000">+ $id</text>
<polyline fill="none" stroke="#000000" points="0,-28.5 153.2949,-28.5 "/>
<text text-anchor="start" x="8" y="-16.5" font-family="Helvetica,sans-Serif" font-size="10.00" fill="#000000">+ setId()</text>
<text text-anchor="start" x="8" y="-6.5" font-family="Helvetica,sans-Serif" font-size="10.00" fill="#000000">+ getId()</text>
</g>
<!-- Node1 -->
<g id="node2" class="node">
<title>Node1</title>
<g id="a_node2"><a xlink:href="class_google___model.html" target="_top" xlink:title="{Google_Model\n||+ __construct()\l+ assertIsArray()\l# mapTypes()\l# isAssociativeArray()\l# useObjects()\l}">
<polygon fill="#ffffff" stroke="#000000" points="20.3027,-101.5 20.3027,-195.5 132.9922,-195.5 132.9922,-101.5 20.3027,-101.5"/>
<text text-anchor="middle" x="76.6475" y="-183.5" font-family="Helvetica,sans-Serif" font-size="10.00" fill="#000000">Google_Model</text>
<polyline fill="none" stroke="#000000" points="20.3027,-177.5 132.9922,-177.5 "/>
<text text-anchor="middle" x="76.6475" y="-165.5" font-family="Helvetica,sans-Serif" font-size="10.00" fill="#000000"> </text>
<polyline fill="none" stroke="#000000" points="20.3027,-159.5 132.9922,-159.5 "/>
<text text-anchor="start" x="28.3027" y="-147.5" font-family="Helvetica,sans-Serif" font-size="10.00" fill="#000000">+ __construct()</text>
<text text-anchor="start" x="28.3027" y="-137.5" font-family="Helvetica,sans-Serif" font-size="10.00" fill="#000000">+ assertIsArray()</text>
<text text-anchor="start" x="28.3027" y="-127.5" font-family="Helvetica,sans-Serif" font-size="10.00" fill="#000000"># mapTypes()</text>
<text text-anchor="start" x="28.3027" y="-117.5" font-family="Helvetica,sans-Serif" font-size="10.00" fill="#000000"># isAssociativeArray()</text>
<text text-anchor="start" x="28.3027" y="-107.5" font-family="Helvetica,sans-Serif" font-size="10.00" fill="#000000"># useObjects()</text>
</a>
</g>
</g>
<!-- Node1&#45;&gt;Node0 -->
<g id="edge1" class="edge">
<title>Node1&#45;&gt;Node0</title>
<path fill="none" stroke="#191970" d="M76.6475,-91.1299C76.6475,-82.0561 76.6475,-72.9618 76.6475,-64.7354"/>
<polygon fill="none" stroke="#191970" points="73.1476,-91.3183 76.6475,-101.3184 80.1476,-91.3184 73.1476,-91.3183"/>
</g>
</g>
</svg>
