<?xml version="1.0" encoding="UTF-8" standalone="no"?>
<!DOCTYPE svg PUBLIC "-//W3C//DTD SVG 1.1//EN"
 "http://www.w3.org/Graphics/SVG/1.1/DTD/svg11.dtd">
<!-- Generated by graphviz version 2.40.1 (20161225.0304)
 -->
<!-- Title: EOAuthUserIdentity Pages: 1 -->
<svg width="200pt" height="355pt"
 viewBox="0.00 0.00 200.43 355.00" xmlns="http://www.w3.org/2000/svg" xmlns:xlink="http://www.w3.org/1999/xlink">
<g id="graph0" class="graph" transform="scale(1 1) rotate(0) translate(4 351)">
<title>EOAuthUserIdentity</title>
<polygon fill="#ffffff" stroke="transparent" points="-4,4 -4,-351 196.4258,-351 196.4258,4 -4,4"/>
<!-- Node0 -->
<g id="node1" class="node">
<title>Node0</title>
<polygon fill="#bfbfbf" stroke="#000000" points="44.3633,-.5 44.3633,-164.5 162.3555,-164.5 162.3555,-.5 44.3633,-.5"/>
<text text-anchor="middle" x="103.3594" y="-152.5" font-family="Helvetica,sans-Serif" font-size="10.00" fill="#000000">EOAuthUserIdentity</text>
<polyline fill="none" stroke="#000000" points="44.3633,-146.5 162.3555,-146.5 "/>
<text text-anchor="start" x="52.3633" y="-134.5" font-family="Helvetica,sans-Serif" font-size="10.00" fill="#000000">+ $scope</text>
<text text-anchor="start" x="52.3633" y="-124.5" font-family="Helvetica,sans-Serif" font-size="10.00" fill="#000000">+ $key</text>
<text text-anchor="start" x="52.3633" y="-114.5" font-family="Helvetica,sans-Serif" font-size="10.00" fill="#000000">+ $secret</text>
<polyline fill="none" stroke="#000000" points="44.3633,-108.5 162.3555,-108.5 "/>
<text text-anchor="start" x="52.3633" y="-96.5" font-family="Helvetica,sans-Serif" font-size="10.00" fill="#000000">+ __construct()</text>
<text text-anchor="start" x="52.3633" y="-86.5" font-family="Helvetica,sans-Serif" font-size="10.00" fill="#000000">+ getError()</text>
<text text-anchor="start" x="52.3633" y="-76.5" font-family="Helvetica,sans-Serif" font-size="10.00" fill="#000000">+ setError()</text>
<text text-anchor="start" x="52.3633" y="-66.5" font-family="Helvetica,sans-Serif" font-size="10.00" fill="#000000">+ getIsAuthenticated()</text>
<text text-anchor="start" x="52.3633" y="-56.5" font-family="Helvetica,sans-Serif" font-size="10.00" fill="#000000">+ getId()</text>
<text text-anchor="start" x="52.3633" y="-46.5" font-family="Helvetica,sans-Serif" font-size="10.00" fill="#000000">+ getName()</text>
<text text-anchor="start" x="52.3633" y="-36.5" font-family="Helvetica,sans-Serif" font-size="10.00" fill="#000000">+ getPersistentStates()</text>
<text text-anchor="start" x="52.3633" y="-26.5" font-family="Helvetica,sans-Serif" font-size="10.00" fill="#000000">+ authenticate()</text>
<text text-anchor="start" x="52.3633" y="-16.5" font-family="Helvetica,sans-Serif" font-size="10.00" fill="#000000">+ setProvider()</text>
<text text-anchor="start" x="52.3633" y="-6.5" font-family="Helvetica,sans-Serif" font-size="10.00" fill="#000000">+ getProvider()</text>
</g>
<!-- Node1 -->
<g id="node2" class="node">
<title>Node1</title>
<g id="a_node2"><a xlink:href="class_e_o_auth_component.html" target="_top" xlink:title="{EOAuthComponent\n||}">
<polygon fill="#ffffff" stroke="#000000" points="0,-201.5 0,-255.5 102.7188,-255.5 102.7188,-201.5 0,-201.5"/>
<text text-anchor="middle" x="51.3594" y="-243.5" font-family="Helvetica,sans-Serif" font-size="10.00" fill="#000000">EOAuthComponent</text>
<polyline fill="none" stroke="#000000" points="0,-237.5 102.7188,-237.5 "/>
<text text-anchor="middle" x="51.3594" y="-225.5" font-family="Helvetica,sans-Serif" font-size="10.00" fill="#000000"> </text>
<polyline fill="none" stroke="#000000" points="0,-219.5 102.7188,-219.5 "/>
<text text-anchor="middle" x="51.3594" y="-207.5" font-family="Helvetica,sans-Serif" font-size="10.00" fill="#000000"> </text>
</a>
</g>
</g>
<!-- Node1&#45;&gt;Node0 -->
<g id="edge1" class="edge">
<title>Node1&#45;&gt;Node0</title>
<path fill="none" stroke="#191970" d="M64.3859,-191.9257C67.3879,-183.4968 70.7002,-174.1968 74.0878,-164.6855"/>
<polygon fill="none" stroke="#191970" points="61.0764,-190.786 61.0183,-201.3807 67.6707,-193.1347 61.0764,-190.786"/>
</g>
<!-- Node2 -->
<g id="node3" class="node">
<title>Node2</title>
<polygon fill="#ffffff" stroke="#bfbfbf" points="13.8989,-292.5 13.8989,-346.5 88.8198,-346.5 88.8198,-292.5 13.8989,-292.5"/>
<text text-anchor="middle" x="51.3594" y="-334.5" font-family="Helvetica,sans-Serif" font-size="10.00" fill="#000000">CComponent</text>
<polyline fill="none" stroke="#bfbfbf" points="13.8989,-328.5 88.8198,-328.5 "/>
<text text-anchor="middle" x="51.3594" y="-316.5" font-family="Helvetica,sans-Serif" font-size="10.00" fill="#000000"> </text>
<polyline fill="none" stroke="#bfbfbf" points="13.8989,-310.5 88.8198,-310.5 "/>
<text text-anchor="middle" x="51.3594" y="-298.5" font-family="Helvetica,sans-Serif" font-size="10.00" fill="#000000"> </text>
</g>
<!-- Node2&#45;&gt;Node1 -->
<g id="edge2" class="edge">
<title>Node2&#45;&gt;Node1</title>
<path fill="none" stroke="#191970" d="M51.3594,-282.12C51.3594,-273.3006 51.3594,-264.0605 51.3594,-255.7837"/>
<polygon fill="none" stroke="#191970" points="47.8595,-282.197 51.3594,-292.197 54.8595,-282.197 47.8595,-282.197"/>
</g>
<!-- Node3 -->
<g id="node4" class="node">
<title>Node3</title>
<polygon fill="#ffffff" stroke="#bfbfbf" points="120.293,-201.5 120.293,-255.5 192.4258,-255.5 192.4258,-201.5 120.293,-201.5"/>
<text text-anchor="middle" x="156.3594" y="-243.5" font-family="Helvetica,sans-Serif" font-size="10.00" fill="#000000">IUserIdentity</text>
<polyline fill="none" stroke="#bfbfbf" points="120.293,-237.5 192.4258,-237.5 "/>
<text text-anchor="middle" x="156.3594" y="-225.5" font-family="Helvetica,sans-Serif" font-size="10.00" fill="#000000"> </text>
<polyline fill="none" stroke="#bfbfbf" points="120.293,-219.5 192.4258,-219.5 "/>
<text text-anchor="middle" x="156.3594" y="-207.5" font-family="Helvetica,sans-Serif" font-size="10.00" fill="#000000"> </text>
</g>
<!-- Node3&#45;&gt;Node0 -->
<g id="edge3" class="edge">
<title>Node3&#45;&gt;Node0</title>
<path fill="none" stroke="#191970" d="M143.0824,-191.9257C140.0226,-183.4968 136.6466,-174.1968 133.1938,-164.6855"/>
<polygon fill="none" stroke="#191970" points="139.8124,-193.1752 146.5147,-201.3807 146.3923,-190.7866 139.8124,-193.1752"/>
</g>
</g>
</svg>
