<?xml version="1.0" encoding="UTF-8" standalone="no"?>
<!DOCTYPE svg PUBLIC "-//W3C//DTD SVG 1.1//EN"
 "http://www.w3.org/Graphics/SVG/1.1/DTD/svg11.dtd">
<!-- Generated by graphviz version 2.40.1 (20161225.0304)
 -->
<!-- Title: Hole Pages: 1 -->
<svg width="105pt" height="164pt"
 viewBox="0.00 0.00 104.88 164.00" xmlns="http://www.w3.org/2000/svg" xmlns:xlink="http://www.w3.org/1999/xlink">
<g id="graph0" class="graph" transform="scale(1 1) rotate(0) translate(4 160)">
<title>Hole</title>
<polygon fill="#ffffff" stroke="transparent" points="-4,4 -4,-160 100.8789,-160 100.8789,4 -4,4"/>
<!-- Node2 -->
<g id="node1" class="node">
<title>Node2</title>
<polygon fill="#bfbfbf" stroke="#000000" points="0,-.5 0,-64.5 96.8789,-64.5 96.8789,-.5 0,-.5"/>
<text text-anchor="middle" x="48.4395" y="-52.5" font-family="Helvetica,sans-Serif" font-size="10.00" fill="#000000">Hole</text>
<polyline fill="none" stroke="#000000" points="0,-46.5 96.8789,-46.5 "/>
<text text-anchor="start" x="8" y="-34.5" font-family="Helvetica,sans-Serif" font-size="10.00" fill="#000000">+ $region</text>
<text text-anchor="start" x="8" y="-24.5" font-family="Helvetica,sans-Serif" font-size="10.00" fill="#000000">+ $holetype</text>
<polyline fill="none" stroke="#000000" points="0,-18.5 96.8789,-18.5 "/>
<text text-anchor="start" x="8" y="-6.5" font-family="Helvetica,sans-Serif" font-size="10.00" fill="#000000">+ attributeLabels()</text>
</g>
<!-- Node3 -->
<g id="node2" class="node">
<title>Node3</title>
<polygon fill="#ffffff" stroke="#bfbfbf" points="11.5454,-101.5 11.5454,-155.5 85.3335,-155.5 85.3335,-101.5 11.5454,-101.5"/>
<text text-anchor="middle" x="48.4395" y="-143.5" font-family="Helvetica,sans-Serif" font-size="10.00" fill="#000000">CFormModel</text>
<polyline fill="none" stroke="#bfbfbf" points="11.5454,-137.5 85.3335,-137.5 "/>
<text text-anchor="middle" x="48.4395" y="-125.5" font-family="Helvetica,sans-Serif" font-size="10.00" fill="#000000"> </text>
<polyline fill="none" stroke="#bfbfbf" points="11.5454,-119.5 85.3335,-119.5 "/>
<text text-anchor="middle" x="48.4395" y="-107.5" font-family="Helvetica,sans-Serif" font-size="10.00" fill="#000000"> </text>
</g>
<!-- Node3&#45;&gt;Node2 -->
<g id="edge1" class="edge">
<title>Node3&#45;&gt;Node2</title>
<path fill="none" stroke="#191970" d="M48.4395,-91.2276C48.4395,-82.4295 48.4395,-73.1248 48.4395,-64.5792"/>
<polygon fill="none" stroke="#191970" points="44.9396,-91.247 48.4395,-101.247 51.9396,-91.2471 44.9396,-91.247"/>
</g>
</g>
</svg>
