<?xml version="1.0" encoding="UTF-8" standalone="no"?>
<!DOCTYPE svg PUBLIC "-//W3C//DTD SVG 1.1//EN"
 "http://www.w3.org/Graphics/SVG/1.1/DTD/svg11.dtd">
<!-- Generated by graphviz version 2.40.1 (20161225.0304)
 -->
<!-- Title: Google_AdExchangeSellerService Pages: 1 -->
<svg width="177pt" height="244pt"
 viewBox="0.00 0.00 177.43 244.00" xmlns="http://www.w3.org/2000/svg" xmlns:xlink="http://www.w3.org/1999/xlink">
<g id="graph0" class="graph" transform="scale(1 1) rotate(0) translate(4 240)">
<title>Google_AdExchangeSellerService</title>
<polygon fill="#ffffff" stroke="transparent" points="-4,4 -4,-240 173.4277,-240 173.4277,4 -4,4"/>
<!-- Node0 -->
<g id="node1" class="node">
<title>Node0</title>
<polygon fill="#bfbfbf" stroke="#000000" points="0,-.5 0,-124.5 169.4277,-124.5 169.4277,-.5 0,-.5"/>
<text text-anchor="middle" x="84.7139" y="-112.5" font-family="Helvetica,sans-Serif" font-size="10.00" fill="#000000">Google_AdExchangeSellerService</text>
<polyline fill="none" stroke="#000000" points="0,-106.5 169.4277,-106.5 "/>
<text text-anchor="start" x="8" y="-94.5" font-family="Helvetica,sans-Serif" font-size="10.00" fill="#000000">+ $adclients</text>
<text text-anchor="start" x="8" y="-84.5" font-family="Helvetica,sans-Serif" font-size="10.00" fill="#000000">+ $adunits</text>
<text text-anchor="start" x="8" y="-74.5" font-family="Helvetica,sans-Serif" font-size="10.00" fill="#000000">+ $adunits_customchannels</text>
<text text-anchor="start" x="8" y="-64.5" font-family="Helvetica,sans-Serif" font-size="10.00" fill="#000000">+ $customchannels</text>
<text text-anchor="start" x="8" y="-54.5" font-family="Helvetica,sans-Serif" font-size="10.00" fill="#000000">+ $customchannels_adunits</text>
<text text-anchor="start" x="8" y="-44.5" font-family="Helvetica,sans-Serif" font-size="10.00" fill="#000000">+ $reports</text>
<text text-anchor="start" x="8" y="-34.5" font-family="Helvetica,sans-Serif" font-size="10.00" fill="#000000">+ $reports_saved</text>
<text text-anchor="start" x="8" y="-24.5" font-family="Helvetica,sans-Serif" font-size="10.00" fill="#000000">+ $urlchannels</text>
<polyline fill="none" stroke="#000000" points="0,-18.5 169.4277,-18.5 "/>
<text text-anchor="start" x="8" y="-6.5" font-family="Helvetica,sans-Serif" font-size="10.00" fill="#000000">+ __construct()</text>
</g>
<!-- Node1 -->
<g id="node2" class="node">
<title>Node1</title>
<g id="a_node2"><a xlink:href="class_google___service.html" target="_top" xlink:title="{Google_Service\n|+ $version\l+ $servicePath\l+ $resource\l|}">
<polygon fill="#ffffff" stroke="#000000" points="41.1377,-161.5 41.1377,-235.5 128.29,-235.5 128.29,-161.5 41.1377,-161.5"/>
<text text-anchor="middle" x="84.7139" y="-223.5" font-family="Helvetica,sans-Serif" font-size="10.00" fill="#000000">Google_Service</text>
<polyline fill="none" stroke="#000000" points="41.1377,-217.5 128.29,-217.5 "/>
<text text-anchor="start" x="49.1377" y="-205.5" font-family="Helvetica,sans-Serif" font-size="10.00" fill="#000000">+ $version</text>
<text text-anchor="start" x="49.1377" y="-195.5" font-family="Helvetica,sans-Serif" font-size="10.00" fill="#000000">+ $servicePath</text>
<text text-anchor="start" x="49.1377" y="-185.5" font-family="Helvetica,sans-Serif" font-size="10.00" fill="#000000">+ $resource</text>
<polyline fill="none" stroke="#000000" points="41.1377,-179.5 128.29,-179.5 "/>
<text text-anchor="middle" x="84.7139" y="-167.5" font-family="Helvetica,sans-Serif" font-size="10.00" fill="#000000"> </text>
</a>
</g>
</g>
<!-- Node1&#45;&gt;Node0 -->
<g id="edge1" class="edge">
<title>Node1&#45;&gt;Node0</title>
<path fill="none" stroke="#191970" d="M84.7139,-151.1948C84.7139,-142.6499 84.7139,-133.623 84.7139,-124.7288"/>
<polygon fill="none" stroke="#191970" points="81.214,-151.3374 84.7139,-161.3374 88.214,-151.3374 81.214,-151.3374"/>
</g>
</g>
</svg>
