<?xml version="1.0" encoding="UTF-8" standalone="no"?>
<!DOCTYPE svg PUBLIC "-//W3C//DTD SVG 1.1//EN"
 "http://www.w3.org/Graphics/SVG/1.1/DTD/svg11.dtd">
<!-- Generated by graphviz version 2.40.1 (20161225.0304)
 -->
<!-- Title: Google_StorageService Pages: 1 -->
<svg width="167pt" height="224pt"
 viewBox="0.00 0.00 166.57 224.00" xmlns="http://www.w3.org/2000/svg" xmlns:xlink="http://www.w3.org/1999/xlink">
<g id="graph0" class="graph" transform="scale(1 1) rotate(0) translate(4 220)">
<title>Google_StorageService</title>
<polygon fill="#ffffff" stroke="transparent" points="-4,4 -4,-220 162.5732,-220 162.5732,4 -4,4"/>
<!-- Node0 -->
<g id="node1" class="node">
<title>Node0</title>
<polygon fill="#bfbfbf" stroke="#000000" points="0,-.5 0,-104.5 158.5732,-104.5 158.5732,-.5 0,-.5"/>
<text text-anchor="middle" x="79.2866" y="-92.5" font-family="Helvetica,sans-Serif" font-size="10.00" fill="#000000">Google_StorageService</text>
<polyline fill="none" stroke="#000000" points="0,-86.5 158.5732,-86.5 "/>
<text text-anchor="start" x="8" y="-74.5" font-family="Helvetica,sans-Serif" font-size="10.00" fill="#000000">+ $bucketAccessControls</text>
<text text-anchor="start" x="8" y="-64.5" font-family="Helvetica,sans-Serif" font-size="10.00" fill="#000000">+ $buckets</text>
<text text-anchor="start" x="8" y="-54.5" font-family="Helvetica,sans-Serif" font-size="10.00" fill="#000000">+ $channels</text>
<text text-anchor="start" x="8" y="-44.5" font-family="Helvetica,sans-Serif" font-size="10.00" fill="#000000">+ $defaultObjectAccessControls</text>
<text text-anchor="start" x="8" y="-34.5" font-family="Helvetica,sans-Serif" font-size="10.00" fill="#000000">+ $objectAccessControls</text>
<text text-anchor="start" x="8" y="-24.5" font-family="Helvetica,sans-Serif" font-size="10.00" fill="#000000">+ $objects</text>
<polyline fill="none" stroke="#000000" points="0,-18.5 158.5732,-18.5 "/>
<text text-anchor="start" x="8" y="-6.5" font-family="Helvetica,sans-Serif" font-size="10.00" fill="#000000">+ __construct()</text>
</g>
<!-- Node1 -->
<g id="node2" class="node">
<title>Node1</title>
<g id="a_node2"><a xlink:href="class_google___service.html" target="_top" xlink:title="{Google_Service\n|+ $version\l+ $servicePath\l+ $resource\l|}">
<polygon fill="#ffffff" stroke="#000000" points="35.7104,-141.5 35.7104,-215.5 122.8628,-215.5 122.8628,-141.5 35.7104,-141.5"/>
<text text-anchor="middle" x="79.2866" y="-203.5" font-family="Helvetica,sans-Serif" font-size="10.00" fill="#000000">Google_Service</text>
<polyline fill="none" stroke="#000000" points="35.7104,-197.5 122.8628,-197.5 "/>
<text text-anchor="start" x="43.7104" y="-185.5" font-family="Helvetica,sans-Serif" font-size="10.00" fill="#000000">+ $version</text>
<text text-anchor="start" x="43.7104" y="-175.5" font-family="Helvetica,sans-Serif" font-size="10.00" fill="#000000">+ $servicePath</text>
<text text-anchor="start" x="43.7104" y="-165.5" font-family="Helvetica,sans-Serif" font-size="10.00" fill="#000000">+ $resource</text>
<polyline fill="none" stroke="#000000" points="35.7104,-159.5 122.8628,-159.5 "/>
<text text-anchor="middle" x="79.2866" y="-147.5" font-family="Helvetica,sans-Serif" font-size="10.00" fill="#000000"> </text>
</a>
</g>
</g>
<!-- Node1&#45;&gt;Node0 -->
<g id="edge1" class="edge">
<title>Node1&#45;&gt;Node0</title>
<path fill="none" stroke="#191970" d="M79.2866,-131.131C79.2866,-122.5233 79.2866,-113.5001 79.2866,-104.761"/>
<polygon fill="none" stroke="#191970" points="75.7867,-131.3773 79.2866,-141.3773 82.7867,-131.3774 75.7867,-131.3773"/>
</g>
</g>
</svg>
