<?xml version="1.0" encoding="UTF-8" standalone="no"?>
<!DOCTYPE svg PUBLIC "-//W3C//DTD SVG 1.1//EN"
 "http://www.w3.org/Graphics/SVG/1.1/DTD/svg11.dtd">
<!-- Generated by graphviz version 2.40.1 (20161225.0304)
 -->
<!-- Title: Google_LiveBroadcastsServiceResource Pages: 1 -->
<svg width="164pt" height="254pt"
 viewBox="0.00 0.00 163.52 254.00" xmlns="http://www.w3.org/2000/svg" xmlns:xlink="http://www.w3.org/1999/xlink">
<g id="graph0" class="graph" transform="scale(1 1) rotate(0) translate(4 250)">
<title>Google_LiveBroadcastsServiceResource</title>
<polygon fill="#ffffff" stroke="transparent" points="-4,4 -4,-250 159.5215,-250 159.5215,4 -4,4"/>
<!-- Node2 -->
<g id="node1" class="node">
<title>Node2</title>
<polygon fill="#bfbfbf" stroke="#000000" points="0,-.5 0,-124.5 155.5215,-124.5 155.5215,-.5 0,-.5"/>
<text text-anchor="start" x="8" y="-112.5" font-family="Helvetica,sans-Serif" font-size="10.00" fill="#000000">Google_LiveBroadcastsService</text>
<text text-anchor="middle" x="77.7607" y="-102.5" font-family="Helvetica,sans-Serif" font-size="10.00" fill="#000000">Resource</text>
<polyline fill="none" stroke="#000000" points="0,-96.5 155.5215,-96.5 "/>
<text text-anchor="middle" x="77.7607" y="-84.5" font-family="Helvetica,sans-Serif" font-size="10.00" fill="#000000"> </text>
<polyline fill="none" stroke="#000000" points="0,-78.5 155.5215,-78.5 "/>
<text text-anchor="start" x="8" y="-66.5" font-family="Helvetica,sans-Serif" font-size="10.00" fill="#000000">+ bind()</text>
<text text-anchor="start" x="8" y="-56.5" font-family="Helvetica,sans-Serif" font-size="10.00" fill="#000000">+ control()</text>
<text text-anchor="start" x="8" y="-46.5" font-family="Helvetica,sans-Serif" font-size="10.00" fill="#000000">+ delete()</text>
<text text-anchor="start" x="8" y="-36.5" font-family="Helvetica,sans-Serif" font-size="10.00" fill="#000000">+ insert()</text>
<text text-anchor="start" x="8" y="-26.5" font-family="Helvetica,sans-Serif" font-size="10.00" fill="#000000">+ listLiveBroadcasts()</text>
<text text-anchor="start" x="8" y="-16.5" font-family="Helvetica,sans-Serif" font-size="10.00" fill="#000000">+ transition()</text>
<text text-anchor="start" x="8" y="-6.5" font-family="Helvetica,sans-Serif" font-size="10.00" fill="#000000">+ update()</text>
</g>
<!-- Node3 -->
<g id="node2" class="node">
<title>Node3</title>
<g id="a_node2"><a xlink:href="class_google___service_resource.html" target="_top" xlink:title="{Google_ServiceResource\n||+ __construct()\l+ __call()\l+ useObjects()\l# stripNull()\l}">
<polygon fill="#ffffff" stroke="#000000" points="12.7856,-161.5 12.7856,-245.5 142.7358,-245.5 142.7358,-161.5 12.7856,-161.5"/>
<text text-anchor="middle" x="77.7607" y="-233.5" font-family="Helvetica,sans-Serif" font-size="10.00" fill="#000000">Google_ServiceResource</text>
<polyline fill="none" stroke="#000000" points="12.7856,-227.5 142.7358,-227.5 "/>
<text text-anchor="middle" x="77.7607" y="-215.5" font-family="Helvetica,sans-Serif" font-size="10.00" fill="#000000"> </text>
<polyline fill="none" stroke="#000000" points="12.7856,-209.5 142.7358,-209.5 "/>
<text text-anchor="start" x="20.7856" y="-197.5" font-family="Helvetica,sans-Serif" font-size="10.00" fill="#000000">+ __construct()</text>
<text text-anchor="start" x="20.7856" y="-187.5" font-family="Helvetica,sans-Serif" font-size="10.00" fill="#000000">+ __call()</text>
<text text-anchor="start" x="20.7856" y="-177.5" font-family="Helvetica,sans-Serif" font-size="10.00" fill="#000000">+ useObjects()</text>
<text text-anchor="start" x="20.7856" y="-167.5" font-family="Helvetica,sans-Serif" font-size="10.00" fill="#000000"># stripNull()</text>
</a>
</g>
</g>
<!-- Node3&#45;&gt;Node2 -->
<g id="edge1" class="edge">
<title>Node3&#45;&gt;Node2</title>
<path fill="none" stroke="#191970" d="M77.7607,-150.9426C77.7607,-142.3515 77.7607,-133.3797 77.7607,-124.5851"/>
<polygon fill="none" stroke="#191970" points="74.2608,-151.1953 77.7607,-161.1954 81.2608,-151.1954 74.2608,-151.1953"/>
</g>
</g>
</svg>
