<?xml version="1.0" encoding="UTF-8" standalone="no"?>
<!DOCTYPE svg PUBLIC "-//W3C//DTD SVG 1.1//EN"
 "http://www.w3.org/Graphics/SVG/1.1/DTD/svg11.dtd">
<!-- Generated by graphviz version 2.40.1 (20161225.0304)
 -->
<!-- Title: Google_CommentActorImage Pages: 1 -->
<svg width="156pt" height="224pt"
 viewBox="0.00 0.00 156.29 224.00" xmlns="http://www.w3.org/2000/svg" xmlns:xlink="http://www.w3.org/1999/xlink">
<g id="graph0" class="graph" transform="scale(1 1) rotate(0) translate(4 220)">
<title>Google_CommentActorImage</title>
<polygon fill="#ffffff" stroke="transparent" points="-4,4 -4,-220 152.2852,-220 152.2852,4 -4,4"/>
<!-- Node0 -->
<g id="node1" class="node">
<title>Node0</title>
<polygon fill="#bfbfbf" stroke="#000000" points="0,-.5 0,-84.5 148.2852,-84.5 148.2852,-.5 0,-.5"/>
<text text-anchor="middle" x="74.1426" y="-72.5" font-family="Helvetica,sans-Serif" font-size="10.00" fill="#000000">Google_CommentActorImage</text>
<polyline fill="none" stroke="#000000" points="0,-66.5 148.2852,-66.5 "/>
<text text-anchor="start" x="8" y="-54.5" font-family="Helvetica,sans-Serif" font-size="10.00" fill="#000000">+ $url</text>
<polyline fill="none" stroke="#000000" points="0,-48.5 148.2852,-48.5 "/>
<text text-anchor="start" x="8" y="-36.5" font-family="Helvetica,sans-Serif" font-size="10.00" fill="#000000">+ setUrl()</text>
<text text-anchor="start" x="8" y="-26.5" font-family="Helvetica,sans-Serif" font-size="10.00" fill="#000000">+ getUrl()</text>
<text text-anchor="start" x="8" y="-16.5" font-family="Helvetica,sans-Serif" font-size="10.00" fill="#000000">+ setUrl()</text>
<text text-anchor="start" x="8" y="-6.5" font-family="Helvetica,sans-Serif" font-size="10.00" fill="#000000">+ getUrl()</text>
</g>
<!-- Node1 -->
<g id="node2" class="node">
<title>Node1</title>
<g id="a_node2"><a xlink:href="class_google___model.html" target="_top" xlink:title="{Google_Model\n||+ __construct()\l+ assertIsArray()\l# mapTypes()\l# isAssociativeArray()\l# useObjects()\l}">
<polygon fill="#ffffff" stroke="#000000" points="17.7979,-121.5 17.7979,-215.5 130.4873,-215.5 130.4873,-121.5 17.7979,-121.5"/>
<text text-anchor="middle" x="74.1426" y="-203.5" font-family="Helvetica,sans-Serif" font-size="10.00" fill="#000000">Google_Model</text>
<polyline fill="none" stroke="#000000" points="17.7979,-197.5 130.4873,-197.5 "/>
<text text-anchor="middle" x="74.1426" y="-185.5" font-family="Helvetica,sans-Serif" font-size="10.00" fill="#000000"> </text>
<polyline fill="none" stroke="#000000" points="17.7979,-179.5 130.4873,-179.5 "/>
<text text-anchor="start" x="25.7979" y="-167.5" font-family="Helvetica,sans-Serif" font-size="10.00" fill="#000000">+ __construct()</text>
<text text-anchor="start" x="25.7979" y="-157.5" font-family="Helvetica,sans-Serif" font-size="10.00" fill="#000000">+ assertIsArray()</text>
<text text-anchor="start" x="25.7979" y="-147.5" font-family="Helvetica,sans-Serif" font-size="10.00" fill="#000000"># mapTypes()</text>
<text text-anchor="start" x="25.7979" y="-137.5" font-family="Helvetica,sans-Serif" font-size="10.00" fill="#000000"># isAssociativeArray()</text>
<text text-anchor="start" x="25.7979" y="-127.5" font-family="Helvetica,sans-Serif" font-size="10.00" fill="#000000"># useObjects()</text>
</a>
</g>
</g>
<!-- Node1&#45;&gt;Node0 -->
<g id="edge1" class="edge">
<title>Node1&#45;&gt;Node0</title>
<path fill="none" stroke="#191970" d="M67.415,-110.9387C67.3419,-102.0848 67.4477,-93.0866 67.7325,-84.6505"/>
<polygon fill="none" stroke="#191970" points="63.92,-111.2823 67.583,-121.2238 70.9191,-111.1679 63.92,-111.2823"/>
</g>
<!-- Node1&#45;&gt;Node0 -->
<g id="edge2" class="edge">
<title>Node1&#45;&gt;Node0</title>
<path fill="none" stroke="#191970" d="M80.8702,-110.9387C80.9433,-102.0848 80.8375,-93.0866 80.5527,-84.6505"/>
<polygon fill="none" stroke="#191970" points="77.3661,-111.1679 80.7021,-121.2238 84.3651,-111.2823 77.3661,-111.1679"/>
</g>
</g>
</svg>
