<?xml version="1.0" encoding="UTF-8" standalone="no"?>
<!DOCTYPE svg PUBLIC "-//W3C//DTD SVG 1.1//EN"
 "http://www.w3.org/Graphics/SVG/1.1/DTD/svg11.dtd">
<!-- Generated by graphviz version 2.40.1 (20161225.0304)
 -->
<!-- Title: Google_AdclientsServiceResource Pages: 1 -->
<svg width="179pt" height="214pt"
 viewBox="0.00 0.00 178.53 214.00" xmlns="http://www.w3.org/2000/svg" xmlns:xlink="http://www.w3.org/1999/xlink">
<g id="graph0" class="graph" transform="scale(1 1) rotate(0) translate(4 210)">
<title>Google_AdclientsServiceResource</title>
<polygon fill="#ffffff" stroke="transparent" points="-4,4 -4,-210 174.5264,-210 174.5264,4 -4,4"/>
<!-- Node2 -->
<g id="node1" class="node">
<title>Node2</title>
<polygon fill="#bfbfbf" stroke="#000000" points="0,-.5 0,-84.5 170.5264,-84.5 170.5264,-.5 0,-.5"/>
<text text-anchor="middle" x="85.2632" y="-72.5" font-family="Helvetica,sans-Serif" font-size="10.00" fill="#000000">Google_AdclientsServiceResource</text>
<polyline fill="none" stroke="#000000" points="0,-66.5 170.5264,-66.5 "/>
<text text-anchor="middle" x="85.2632" y="-54.5" font-family="Helvetica,sans-Serif" font-size="10.00" fill="#000000"> </text>
<polyline fill="none" stroke="#000000" points="0,-48.5 170.5264,-48.5 "/>
<text text-anchor="start" x="8" y="-36.5" font-family="Helvetica,sans-Serif" font-size="10.00" fill="#000000">+ listAdclients()</text>
<text text-anchor="start" x="8" y="-26.5" font-family="Helvetica,sans-Serif" font-size="10.00" fill="#000000">+ get()</text>
<text text-anchor="start" x="8" y="-16.5" font-family="Helvetica,sans-Serif" font-size="10.00" fill="#000000">+ listAdclients()</text>
<text text-anchor="start" x="8" y="-6.5" font-family="Helvetica,sans-Serif" font-size="10.00" fill="#000000">+ listAdclients()</text>
</g>
<!-- Node3 -->
<g id="node2" class="node">
<title>Node3</title>
<g id="a_node2"><a xlink:href="class_google___service_resource.html" target="_top" xlink:title="{Google_ServiceResource\n||+ __construct()\l+ __call()\l+ useObjects()\l# stripNull()\l}">
<polygon fill="#ffffff" stroke="#000000" points="20.2881,-121.5 20.2881,-205.5 150.2383,-205.5 150.2383,-121.5 20.2881,-121.5"/>
<text text-anchor="middle" x="85.2632" y="-193.5" font-family="Helvetica,sans-Serif" font-size="10.00" fill="#000000">Google_ServiceResource</text>
<polyline fill="none" stroke="#000000" points="20.2881,-187.5 150.2383,-187.5 "/>
<text text-anchor="middle" x="85.2632" y="-175.5" font-family="Helvetica,sans-Serif" font-size="10.00" fill="#000000"> </text>
<polyline fill="none" stroke="#000000" points="20.2881,-169.5 150.2383,-169.5 "/>
<text text-anchor="start" x="28.2881" y="-157.5" font-family="Helvetica,sans-Serif" font-size="10.00" fill="#000000">+ __construct()</text>
<text text-anchor="start" x="28.2881" y="-147.5" font-family="Helvetica,sans-Serif" font-size="10.00" fill="#000000">+ __call()</text>
<text text-anchor="start" x="28.2881" y="-137.5" font-family="Helvetica,sans-Serif" font-size="10.00" fill="#000000">+ useObjects()</text>
<text text-anchor="start" x="28.2881" y="-127.5" font-family="Helvetica,sans-Serif" font-size="10.00" fill="#000000"># stripNull()</text>
</a>
</g>
</g>
<!-- Node3&#45;&gt;Node2 -->
<g id="edge1" class="edge">
<title>Node3&#45;&gt;Node2</title>
<path fill="none" stroke="#191970" d="M71.868,-110.977C71.6349,-102.1562 71.7905,-93.1052 72.3347,-84.5917"/>
<polygon fill="none" stroke="#191970" points="68.3808,-111.3449 72.3202,-121.1801 75.3739,-111.0349 68.3808,-111.3449"/>
</g>
<!-- Node3&#45;&gt;Node2 -->
<g id="edge2" class="edge">
<title>Node3&#45;&gt;Node2</title>
<path fill="none" stroke="#191970" d="M85.2632,-110.977C85.2632,-102.1562 85.2632,-93.1052 85.2632,-84.5917"/>
<polygon fill="none" stroke="#191970" points="81.7633,-111.18 85.2632,-121.1801 88.7633,-111.1801 81.7633,-111.18"/>
</g>
<!-- Node3&#45;&gt;Node2 -->
<g id="edge3" class="edge">
<title>Node3&#45;&gt;Node2</title>
<path fill="none" stroke="#191970" d="M98.6583,-110.977C98.8914,-102.1562 98.7359,-93.1052 98.1917,-84.5917"/>
<polygon fill="none" stroke="#191970" points="95.1524,-111.0349 98.2062,-121.1801 102.1456,-111.3449 95.1524,-111.0349"/>
</g>
</g>
</svg>
