<?xml version="1.0" encoding="UTF-8" standalone="no"?>
<!DOCTYPE svg PUBLIC "-//W3C//DTD SVG 1.1//EN"
 "http://www.w3.org/Graphics/SVG/1.1/DTD/svg11.dtd">
<!-- Generated by graphviz version 2.40.1 (20161225.0304)
 -->
<!-- Title: Google_PlusService Pages: 1 -->
<svg width="115pt" height="244pt"
 viewBox="0.00 0.00 114.61 244.00" xmlns="http://www.w3.org/2000/svg" xmlns:xlink="http://www.w3.org/1999/xlink">
<g id="graph0" class="graph" transform="scale(1 1) rotate(0) translate(4 240)">
<title>Google_PlusService</title>
<polygon fill="#ffffff" stroke="transparent" points="-4,4 -4,-240 110.6055,-240 110.6055,4 -4,4"/>
<!-- Node0 -->
<g id="node1" class="node">
<title>Node0</title>
<polygon fill="#bfbfbf" stroke="#000000" points="0,-.5 0,-124.5 106.6055,-124.5 106.6055,-.5 0,-.5"/>
<text text-anchor="middle" x="53.3027" y="-112.5" font-family="Helvetica,sans-Serif" font-size="10.00" fill="#000000">Google_PlusService</text>
<polyline fill="none" stroke="#000000" points="0,-106.5 106.6055,-106.5 "/>
<text text-anchor="start" x="8" y="-94.5" font-family="Helvetica,sans-Serif" font-size="10.00" fill="#000000">+ $activities</text>
<text text-anchor="start" x="8" y="-84.5" font-family="Helvetica,sans-Serif" font-size="10.00" fill="#000000">+ $audiences</text>
<text text-anchor="start" x="8" y="-74.5" font-family="Helvetica,sans-Serif" font-size="10.00" fill="#000000">+ $circles</text>
<text text-anchor="start" x="8" y="-64.5" font-family="Helvetica,sans-Serif" font-size="10.00" fill="#000000">+ $comments</text>
<text text-anchor="start" x="8" y="-54.5" font-family="Helvetica,sans-Serif" font-size="10.00" fill="#000000">+ $media</text>
<text text-anchor="start" x="8" y="-44.5" font-family="Helvetica,sans-Serif" font-size="10.00" fill="#000000">+ $people</text>
<text text-anchor="start" x="8" y="-34.5" font-family="Helvetica,sans-Serif" font-size="10.00" fill="#000000">+ $moments</text>
<polyline fill="none" stroke="#000000" points="0,-28.5 106.6055,-28.5 "/>
<text text-anchor="start" x="8" y="-16.5" font-family="Helvetica,sans-Serif" font-size="10.00" fill="#000000">+ __construct()</text>
<text text-anchor="start" x="8" y="-6.5" font-family="Helvetica,sans-Serif" font-size="10.00" fill="#000000">+ __construct()</text>
</g>
<!-- Node1 -->
<g id="node2" class="node">
<title>Node1</title>
<g id="a_node2"><a xlink:href="class_google___service.html" target="_top" xlink:title="{Google_Service\n|+ $version\l+ $servicePath\l+ $resource\l|}">
<polygon fill="#ffffff" stroke="#000000" points="9.7266,-161.5 9.7266,-235.5 96.8789,-235.5 96.8789,-161.5 9.7266,-161.5"/>
<text text-anchor="middle" x="53.3027" y="-223.5" font-family="Helvetica,sans-Serif" font-size="10.00" fill="#000000">Google_Service</text>
<polyline fill="none" stroke="#000000" points="9.7266,-217.5 96.8789,-217.5 "/>
<text text-anchor="start" x="17.7266" y="-205.5" font-family="Helvetica,sans-Serif" font-size="10.00" fill="#000000">+ $version</text>
<text text-anchor="start" x="17.7266" y="-195.5" font-family="Helvetica,sans-Serif" font-size="10.00" fill="#000000">+ $servicePath</text>
<text text-anchor="start" x="17.7266" y="-185.5" font-family="Helvetica,sans-Serif" font-size="10.00" fill="#000000">+ $resource</text>
<polyline fill="none" stroke="#000000" points="9.7266,-179.5 96.8789,-179.5 "/>
<text text-anchor="middle" x="53.3027" y="-167.5" font-family="Helvetica,sans-Serif" font-size="10.00" fill="#000000"> </text>
</a>
</g>
</g>
<!-- Node1&#45;&gt;Node0 -->
<g id="edge1" class="edge">
<title>Node1&#45;&gt;Node0</title>
<path fill="none" stroke="#191970" d="M46.8386,-151.1948C46.5956,-142.6499 46.5075,-133.623 46.5744,-124.7288"/>
<polygon fill="none" stroke="#191970" points="43.3464,-151.4729 47.2119,-161.3374 50.3416,-151.2154 43.3464,-151.4729"/>
</g>
<!-- Node1&#45;&gt;Node0 -->
<g id="edge2" class="edge">
<title>Node1&#45;&gt;Node0</title>
<path fill="none" stroke="#191970" d="M59.7669,-151.1948C60.0099,-142.6499 60.098,-133.623 60.0311,-124.7288"/>
<polygon fill="none" stroke="#191970" points="56.2638,-151.2154 59.3936,-161.3374 63.2591,-151.4729 56.2638,-151.2154"/>
</g>
</g>
</svg>
