<?xml version="1.0" encoding="UTF-8" standalone="no"?>
<!DOCTYPE svg PUBLIC "-//W3C//DTD SVG 1.1//EN"
 "http://www.w3.org/Graphics/SVG/1.1/DTD/svg11.dtd">
<!-- Generated by graphviz version 2.40.1 (20161225.0304)
 -->
<!-- Title: HoleRequestSent Pages: 1 -->
<svg width="102pt" height="194pt"
 viewBox="0.00 0.00 102.38 194.00" xmlns="http://www.w3.org/2000/svg" xmlns:xlink="http://www.w3.org/1999/xlink">
<g id="graph0" class="graph" transform="scale(1 1) rotate(0) translate(4 190)">
<title>HoleRequestSent</title>
<polygon fill="#ffffff" stroke="transparent" points="-4,4 -4,-190 98.3838,-190 98.3838,4 -4,4"/>
<!-- Node0 -->
<g id="node1" class="node">
<title>Node0</title>
<polygon fill="#bfbfbf" stroke="#000000" points="0,-.5 0,-94.5 94.3838,-94.5 94.3838,-.5 0,-.5"/>
<text text-anchor="middle" x="47.1919" y="-82.5" font-family="Helvetica,sans-Serif" font-size="10.00" fill="#000000">HoleRequestSent</text>
<polyline fill="none" stroke="#000000" points="0,-76.5 94.3838,-76.5 "/>
<text text-anchor="middle" x="47.1919" y="-64.5" font-family="Helvetica,sans-Serif" font-size="10.00" fill="#000000"> </text>
<polyline fill="none" stroke="#000000" points="0,-58.5 94.3838,-58.5 "/>
<text text-anchor="start" x="8" y="-46.5" font-family="Helvetica,sans-Serif" font-size="10.00" fill="#000000">+ relations()</text>
<text text-anchor="start" x="8" y="-36.5" font-family="Helvetica,sans-Serif" font-size="10.00" fill="#000000">+ tableName()</text>
<text text-anchor="start" x="8" y="-26.5" font-family="Helvetica,sans-Serif" font-size="10.00" fill="#000000">+ updateMail()</text>
<text text-anchor="start" x="8" y="-16.5" font-family="Helvetica,sans-Serif" font-size="10.00" fill="#000000">+ model()</text>
<text text-anchor="start" x="8" y="-6.5" font-family="Helvetica,sans-Serif" font-size="10.00" fill="#000000"># ukrpostcodes()</text>
</g>
<!-- Node1 -->
<g id="node2" class="node">
<title>Node1</title>
<polygon fill="#ffffff" stroke="#bfbfbf" points="5.8472,-131.5 5.8472,-185.5 88.5366,-185.5 88.5366,-131.5 5.8472,-131.5"/>
<text text-anchor="middle" x="47.1919" y="-173.5" font-family="Helvetica,sans-Serif" font-size="10.00" fill="#000000">CActiveRecord</text>
<polyline fill="none" stroke="#bfbfbf" points="5.8472,-167.5 88.5366,-167.5 "/>
<text text-anchor="middle" x="47.1919" y="-155.5" font-family="Helvetica,sans-Serif" font-size="10.00" fill="#000000"> </text>
<polyline fill="none" stroke="#bfbfbf" points="5.8472,-149.5 88.5366,-149.5 "/>
<text text-anchor="middle" x="47.1919" y="-137.5" font-family="Helvetica,sans-Serif" font-size="10.00" fill="#000000"> </text>
</g>
<!-- Node1&#45;&gt;Node0 -->
<g id="edge1" class="edge">
<title>Node1&#45;&gt;Node0</title>
<path fill="none" stroke="#191970" d="M47.1919,-121.3237C47.1919,-112.7904 47.1919,-103.6061 47.1919,-94.7123"/>
<polygon fill="none" stroke="#191970" points="43.692,-121.3463 47.1919,-131.3463 50.692,-121.3464 43.692,-121.3463"/>
</g>
</g>
</svg>
