<?xml version="1.0" encoding="UTF-8" standalone="no"?>
<!DOCTYPE svg PUBLIC "-//W3C//DTD SVG 1.1//EN"
 "http://www.w3.org/Graphics/SVG/1.1/DTD/svg11.dtd">
<!-- Generated by graphviz version 2.40.1 (20161225.0304)
 -->
<!-- Title: Swift_Plugins_AntiFloodPlugin Pages: 1 -->
<svg width="281pt" height="325pt"
 viewBox="0.00 0.00 281.29 325.00" xmlns="http://www.w3.org/2000/svg" xmlns:xlink="http://www.w3.org/1999/xlink">
<g id="graph0" class="graph" transform="scale(1 1) rotate(0) translate(4 321)">
<title>Swift_Plugins_AntiFloodPlugin</title>
<polygon fill="#ffffff" stroke="transparent" points="-4,4 -4,-321 277.2852,-321 277.2852,4 -4,4"/>
<!-- Node0 -->
<g id="node1" class="node">
<title>Node0</title>
<polygon fill="#bfbfbf" stroke="#000000" points="66.4385,-.5 66.4385,-124.5 218.0732,-124.5 218.0732,-.5 66.4385,-.5"/>
<text text-anchor="middle" x="142.2559" y="-112.5" font-family="Helvetica,sans-Serif" font-size="10.00" fill="#000000">Swift_Plugins_AntiFloodPlugin</text>
<polyline fill="none" stroke="#000000" points="66.4385,-106.5 218.0732,-106.5 "/>
<text text-anchor="middle" x="142.2559" y="-94.5" font-family="Helvetica,sans-Serif" font-size="10.00" fill="#000000"> </text>
<polyline fill="none" stroke="#000000" points="66.4385,-88.5 218.0732,-88.5 "/>
<text text-anchor="start" x="74.4385" y="-76.5" font-family="Helvetica,sans-Serif" font-size="10.00" fill="#000000">+ __construct()</text>
<text text-anchor="start" x="74.4385" y="-66.5" font-family="Helvetica,sans-Serif" font-size="10.00" fill="#000000">+ setThreshold()</text>
<text text-anchor="start" x="74.4385" y="-56.5" font-family="Helvetica,sans-Serif" font-size="10.00" fill="#000000">+ getThreshold()</text>
<text text-anchor="start" x="74.4385" y="-46.5" font-family="Helvetica,sans-Serif" font-size="10.00" fill="#000000">+ setSleepTime()</text>
<text text-anchor="start" x="74.4385" y="-36.5" font-family="Helvetica,sans-Serif" font-size="10.00" fill="#000000">+ getSleepTime()</text>
<text text-anchor="start" x="74.4385" y="-26.5" font-family="Helvetica,sans-Serif" font-size="10.00" fill="#000000">+ beforeSendPerformed()</text>
<text text-anchor="start" x="74.4385" y="-16.5" font-family="Helvetica,sans-Serif" font-size="10.00" fill="#000000">+ sendPerformed()</text>
<text text-anchor="start" x="74.4385" y="-6.5" font-family="Helvetica,sans-Serif" font-size="10.00" fill="#000000">+ sleep()</text>
</g>
<!-- Node1 -->
<g id="node2" class="node">
<title>Node1</title>
<g id="a_node2"><a xlink:href="interface_swift___events___send_listener.html" target="_top" xlink:title="{Swift_Events_SendListener\n||+ beforeSendPerformed()\l+ sendPerformed()\l}">
<polygon fill="#ffffff" stroke="#000000" points="1.1084,-161.5 1.1084,-225.5 139.4033,-225.5 139.4033,-161.5 1.1084,-161.5"/>
<text text-anchor="middle" x="70.2559" y="-213.5" font-family="Helvetica,sans-Serif" font-size="10.00" fill="#000000">Swift_Events_SendListener</text>
<polyline fill="none" stroke="#000000" points="1.1084,-207.5 139.4033,-207.5 "/>
<text text-anchor="middle" x="70.2559" y="-195.5" font-family="Helvetica,sans-Serif" font-size="10.00" fill="#000000"> </text>
<polyline fill="none" stroke="#000000" points="1.1084,-189.5 139.4033,-189.5 "/>
<text text-anchor="start" x="9.1084" y="-177.5" font-family="Helvetica,sans-Serif" font-size="10.00" fill="#000000">+ beforeSendPerformed()</text>
<text text-anchor="start" x="9.1084" y="-167.5" font-family="Helvetica,sans-Serif" font-size="10.00" fill="#000000">+ sendPerformed()</text>
</a>
</g>
</g>
<!-- Node1&#45;&gt;Node0 -->
<g id="edge1" class="edge">
<title>Node1&#45;&gt;Node0</title>
<path fill="none" stroke="#191970" d="M92.7774,-152.5232C97.638,-143.6796 102.8818,-134.1389 108.0749,-124.6903"/>
<polygon fill="none" stroke="#191970" points="89.6185,-151.0044 87.869,-161.4538 95.753,-154.376 89.6185,-151.0044"/>
</g>
<!-- Node2 -->
<g id="node3" class="node">
<title>Node2</title>
<g id="a_node3"><a xlink:href="interface_swift___events___event_listener.html" target="_top" xlink:title="{Swift_Events_EventListener\n||}">
<polygon fill="#ffffff" stroke="#000000" points="0,-262.5 0,-316.5 140.5117,-316.5 140.5117,-262.5 0,-262.5"/>
<text text-anchor="middle" x="70.2559" y="-304.5" font-family="Helvetica,sans-Serif" font-size="10.00" fill="#000000">Swift_Events_EventListener</text>
<polyline fill="none" stroke="#000000" points="0,-298.5 140.5117,-298.5 "/>
<text text-anchor="middle" x="70.2559" y="-286.5" font-family="Helvetica,sans-Serif" font-size="10.00" fill="#000000"> </text>
<polyline fill="none" stroke="#000000" points="0,-280.5 140.5117,-280.5 "/>
<text text-anchor="middle" x="70.2559" y="-268.5" font-family="Helvetica,sans-Serif" font-size="10.00" fill="#000000"> </text>
</a>
</g>
</g>
<!-- Node2&#45;&gt;Node1 -->
<g id="edge2" class="edge">
<title>Node2&#45;&gt;Node1</title>
<path fill="none" stroke="#191970" d="M70.2559,-252.2276C70.2559,-243.4295 70.2559,-234.1248 70.2559,-225.5792"/>
<polygon fill="none" stroke="#191970" points="66.756,-252.247 70.2559,-262.247 73.756,-252.2471 66.756,-252.247"/>
</g>
<!-- Node3 -->
<g id="node4" class="node">
<title>Node3</title>
<g id="a_node4"><a xlink:href="interface_swift___plugins___sleeper.html" target="_top" xlink:title="{Swift_Plugins_Sleeper\n||+ sleep()\l}">
<polygon fill="#ffffff" stroke="#000000" points="157.2266,-166.5 157.2266,-220.5 273.2852,-220.5 273.2852,-166.5 157.2266,-166.5"/>
<text text-anchor="middle" x="215.2559" y="-208.5" font-family="Helvetica,sans-Serif" font-size="10.00" fill="#000000">Swift_Plugins_Sleeper</text>
<polyline fill="none" stroke="#000000" points="157.2266,-202.5 273.2852,-202.5 "/>
<text text-anchor="middle" x="215.2559" y="-190.5" font-family="Helvetica,sans-Serif" font-size="10.00" fill="#000000"> </text>
<polyline fill="none" stroke="#000000" points="157.2266,-184.5 273.2852,-184.5 "/>
<text text-anchor="start" x="165.2266" y="-172.5" font-family="Helvetica,sans-Serif" font-size="10.00" fill="#000000">+ sleep()</text>
</a>
</g>
</g>
<!-- Node3&#45;&gt;Node0 -->
<g id="edge3" class="edge">
<title>Node3&#45;&gt;Node0</title>
<path fill="none" stroke="#191970" d="M195.145,-157.4107C189.4911,-147.2646 183.175,-135.9302 176.9303,-124.724"/>
<polygon fill="none" stroke="#191970" points="192.2051,-159.3252 200.1302,-166.3567 198.3198,-155.9177 192.2051,-159.3252"/>
</g>
</g>
</svg>
