<?xml version="1.0" encoding="UTF-8" standalone="no"?>
<!DOCTYPE svg PUBLIC "-//W3C//DTD SVG 1.1//EN"
 "http://www.w3.org/Graphics/SVG/1.1/DTD/svg11.dtd">
<!-- Generated by graphviz version 2.40.1 (20161225.0304)
 -->
<!-- Title: EFineUploaderAction Pages: 1 -->
<svg width="118pt" height="154pt"
 viewBox="0.00 0.00 118.50 154.00" xmlns="http://www.w3.org/2000/svg" xmlns:xlink="http://www.w3.org/1999/xlink">
<g id="graph0" class="graph" transform="scale(1 1) rotate(0) translate(4 150)">
<title>EFineUploaderAction</title>
<polygon fill="#ffffff" stroke="transparent" points="-4,4 -4,-150 114.4971,-150 114.4971,4 -4,4"/>
<!-- Node2 -->
<g id="node1" class="node">
<title>Node2</title>
<polygon fill="#bfbfbf" stroke="#000000" points="0,-.5 0,-54.5 110.4971,-54.5 110.4971,-.5 0,-.5"/>
<text text-anchor="middle" x="55.2485" y="-42.5" font-family="Helvetica,sans-Serif" font-size="10.00" fill="#000000">EFineUploaderAction</text>
<polyline fill="none" stroke="#000000" points="0,-36.5 110.4971,-36.5 "/>
<text text-anchor="middle" x="55.2485" y="-24.5" font-family="Helvetica,sans-Serif" font-size="10.00" fill="#000000"> </text>
<polyline fill="none" stroke="#000000" points="0,-18.5 110.4971,-18.5 "/>
<text text-anchor="start" x="8" y="-6.5" font-family="Helvetica,sans-Serif" font-size="10.00" fill="#000000">+ run()</text>
</g>
<!-- Node3 -->
<g id="node2" class="node">
<title>Node3</title>
<polygon fill="#ffffff" stroke="#bfbfbf" points="29.7412,-91.5 29.7412,-145.5 80.7559,-145.5 80.7559,-91.5 29.7412,-91.5"/>
<text text-anchor="middle" x="55.2485" y="-133.5" font-family="Helvetica,sans-Serif" font-size="10.00" fill="#000000">CAction</text>
<polyline fill="none" stroke="#bfbfbf" points="29.7412,-127.5 80.7559,-127.5 "/>
<text text-anchor="middle" x="55.2485" y="-115.5" font-family="Helvetica,sans-Serif" font-size="10.00" fill="#000000"> </text>
<polyline fill="none" stroke="#bfbfbf" points="29.7412,-109.5 80.7559,-109.5 "/>
<text text-anchor="middle" x="55.2485" y="-97.5" font-family="Helvetica,sans-Serif" font-size="10.00" fill="#000000"> </text>
</g>
<!-- Node3&#45;&gt;Node2 -->
<g id="edge1" class="edge">
<title>Node3&#45;&gt;Node2</title>
<path fill="none" stroke="#191970" d="M55.2485,-81.12C55.2485,-72.3006 55.2485,-63.0605 55.2485,-54.7837"/>
<polygon fill="none" stroke="#191970" points="51.7486,-81.197 55.2485,-91.197 58.7486,-81.197 51.7486,-81.197"/>
</g>
</g>
</svg>
