<?xml version="1.0" encoding="UTF-8" standalone="no"?>
<!DOCTYPE svg PUBLIC "-//W3C//DTD SVG 1.1//EN"
 "http://www.w3.org/Graphics/SVG/1.1/DTD/svg11.dtd">
<!-- Generated by graphviz version 2.40.1 (20161225.0304)
 -->
<!-- Title: VarDumper Pages: 1 -->
<svg width="82pt" height="154pt"
 viewBox="0.00 0.00 81.61 154.00" xmlns="http://www.w3.org/2000/svg" xmlns:xlink="http://www.w3.org/1999/xlink">
<g id="graph0" class="graph" transform="scale(1 1) rotate(0) translate(4 150)">
<title>VarDumper</title>
<polygon fill="#ffffff" stroke="transparent" points="-4,4 -4,-150 77.6123,-150 77.6123,4 -4,4"/>
<!-- Node0 -->
<g id="node1" class="node">
<title>Node0</title>
<polygon fill="#bfbfbf" stroke="#000000" points="3.6108,-.5 3.6108,-54.5 70.0015,-54.5 70.0015,-.5 3.6108,-.5"/>
<text text-anchor="middle" x="36.8062" y="-42.5" font-family="Helvetica,sans-Serif" font-size="10.00" fill="#000000">VarDumper</text>
<polyline fill="none" stroke="#000000" points="3.6108,-36.5 70.0015,-36.5 "/>
<text text-anchor="middle" x="36.8062" y="-24.5" font-family="Helvetica,sans-Serif" font-size="10.00" fill="#000000"> </text>
<polyline fill="none" stroke="#000000" points="3.6108,-18.5 70.0015,-18.5 "/>
<text text-anchor="start" x="11.6108" y="-6.5" font-family="Helvetica,sans-Serif" font-size="10.00" fill="#000000">+ dump()</text>
</g>
<!-- Node1 -->
<g id="node2" class="node">
<title>Node1</title>
<polygon fill="#ffffff" stroke="#bfbfbf" points="0,-91.5 0,-145.5 73.6123,-145.5 73.6123,-91.5 0,-91.5"/>
<text text-anchor="middle" x="36.8062" y="-133.5" font-family="Helvetica,sans-Serif" font-size="10.00" fill="#000000">CVarDumper</text>
<polyline fill="none" stroke="#bfbfbf" points="0,-127.5 73.6123,-127.5 "/>
<text text-anchor="middle" x="36.8062" y="-115.5" font-family="Helvetica,sans-Serif" font-size="10.00" fill="#000000"> </text>
<polyline fill="none" stroke="#bfbfbf" points="0,-109.5 73.6123,-109.5 "/>
<text text-anchor="middle" x="36.8062" y="-97.5" font-family="Helvetica,sans-Serif" font-size="10.00" fill="#000000"> </text>
</g>
<!-- Node1&#45;&gt;Node0 -->
<g id="edge1" class="edge">
<title>Node1&#45;&gt;Node0</title>
<path fill="none" stroke="#191970" d="M36.8062,-81.12C36.8062,-72.3006 36.8062,-63.0605 36.8062,-54.7837"/>
<polygon fill="none" stroke="#191970" points="33.3063,-81.197 36.8062,-91.197 40.3063,-81.197 33.3063,-81.197"/>
</g>
</g>
</svg>
