<?xml version="1.0" encoding="UTF-8" standalone="no"?>
<!DOCTYPE svg PUBLIC "-//W3C//DTD SVG 1.1//EN"
 "http://www.w3.org/Graphics/SVG/1.1/DTD/svg11.dtd">
<!-- Generated by graphviz version 2.40.1 (20161225.0304)
 -->
<!-- Title: Google_LanguagesListResponse Pages: 1 -->
<svg width="172pt" height="224pt"
 viewBox="0.00 0.00 171.89 224.00" xmlns="http://www.w3.org/2000/svg" xmlns:xlink="http://www.w3.org/1999/xlink">
<g id="graph0" class="graph" transform="scale(1 1) rotate(0) translate(4 220)">
<title>Google_LanguagesListResponse</title>
<polygon fill="#ffffff" stroke="transparent" points="-4,4 -4,-220 167.8906,-220 167.8906,4 -4,4"/>
<!-- Node0 -->
<g id="node1" class="node">
<title>Node0</title>
<polygon fill="#bfbfbf" stroke="#000000" points="0,-.5 0,-84.5 163.8906,-84.5 163.8906,-.5 0,-.5"/>
<text text-anchor="middle" x="81.9453" y="-72.5" font-family="Helvetica,sans-Serif" font-size="10.00" fill="#000000">Google_LanguagesListResponse</text>
<polyline fill="none" stroke="#000000" points="0,-66.5 163.8906,-66.5 "/>
<text text-anchor="start" x="8" y="-54.5" font-family="Helvetica,sans-Serif" font-size="10.00" fill="#000000">+ $languages</text>
<text text-anchor="start" x="8" y="-44.5" font-family="Helvetica,sans-Serif" font-size="10.00" fill="#000000"># $__languagesType</text>
<text text-anchor="start" x="8" y="-34.5" font-family="Helvetica,sans-Serif" font-size="10.00" fill="#000000"># $__languagesDataType</text>
<polyline fill="none" stroke="#000000" points="0,-28.5 163.8906,-28.5 "/>
<text text-anchor="start" x="8" y="-16.5" font-family="Helvetica,sans-Serif" font-size="10.00" fill="#000000">+ setLanguages()</text>
<text text-anchor="start" x="8" y="-6.5" font-family="Helvetica,sans-Serif" font-size="10.00" fill="#000000">+ getLanguages()</text>
</g>
<!-- Node1 -->
<g id="node2" class="node">
<title>Node1</title>
<g id="a_node2"><a xlink:href="class_google___model.html" target="_top" xlink:title="{Google_Model\n||+ __construct()\l+ assertIsArray()\l# mapTypes()\l# isAssociativeArray()\l# useObjects()\l}">
<polygon fill="#ffffff" stroke="#000000" points="25.6006,-121.5 25.6006,-215.5 138.29,-215.5 138.29,-121.5 25.6006,-121.5"/>
<text text-anchor="middle" x="81.9453" y="-203.5" font-family="Helvetica,sans-Serif" font-size="10.00" fill="#000000">Google_Model</text>
<polyline fill="none" stroke="#000000" points="25.6006,-197.5 138.29,-197.5 "/>
<text text-anchor="middle" x="81.9453" y="-185.5" font-family="Helvetica,sans-Serif" font-size="10.00" fill="#000000"> </text>
<polyline fill="none" stroke="#000000" points="25.6006,-179.5 138.29,-179.5 "/>
<text text-anchor="start" x="33.6006" y="-167.5" font-family="Helvetica,sans-Serif" font-size="10.00" fill="#000000">+ __construct()</text>
<text text-anchor="start" x="33.6006" y="-157.5" font-family="Helvetica,sans-Serif" font-size="10.00" fill="#000000">+ assertIsArray()</text>
<text text-anchor="start" x="33.6006" y="-147.5" font-family="Helvetica,sans-Serif" font-size="10.00" fill="#000000"># mapTypes()</text>
<text text-anchor="start" x="33.6006" y="-137.5" font-family="Helvetica,sans-Serif" font-size="10.00" fill="#000000"># isAssociativeArray()</text>
<text text-anchor="start" x="33.6006" y="-127.5" font-family="Helvetica,sans-Serif" font-size="10.00" fill="#000000"># useObjects()</text>
</a>
</g>
</g>
<!-- Node1&#45;&gt;Node0 -->
<g id="edge1" class="edge">
<title>Node1&#45;&gt;Node0</title>
<path fill="none" stroke="#191970" d="M81.9453,-110.9387C81.9453,-102.0848 81.9453,-93.0866 81.9453,-84.6505"/>
<polygon fill="none" stroke="#191970" points="78.4454,-111.2237 81.9453,-121.2238 85.4454,-111.2238 78.4454,-111.2237"/>
</g>
</g>
</svg>
