<?xml version="1.0" encoding="UTF-8" standalone="no"?>
<!DOCTYPE svg PUBLIC "-//W3C//DTD SVG 1.1//EN"
 "http://www.w3.org/Graphics/SVG/1.1/DTD/svg11.dtd">
<!-- Generated by graphviz version 2.40.1 (20161225.0304)
 -->
<!-- Title: UserGroupsAccessRule Pages: 1 -->
<svg width="131pt" height="234pt"
 viewBox="0.00 0.00 130.70 234.00" xmlns="http://www.w3.org/2000/svg" xmlns:xlink="http://www.w3.org/1999/xlink">
<g id="graph0" class="graph" transform="scale(1 1) rotate(0) translate(4 230)">
<title>UserGroupsAccessRule</title>
<polygon fill="#ffffff" stroke="transparent" points="-4,4 -4,-230 126.7041,-230 126.7041,4 -4,4"/>
<!-- Node0 -->
<g id="node1" class="node">
<title>Node0</title>
<polygon fill="#bfbfbf" stroke="#000000" points="0,-.5 0,-134.5 122.7041,-134.5 122.7041,-.5 0,-.5"/>
<text text-anchor="middle" x="61.3521" y="-122.5" font-family="Helvetica,sans-Serif" font-size="10.00" fill="#000000">UserGroupsAccessRule</text>
<polyline fill="none" stroke="#000000" points="0,-116.5 122.7041,-116.5 "/>
<text text-anchor="start" x="8" y="-104.5" font-family="Helvetica,sans-Serif" font-size="10.00" fill="#000000">+ $groups</text>
<text text-anchor="start" x="8" y="-94.5" font-family="Helvetica,sans-Serif" font-size="10.00" fill="#000000">+ $level</text>
<text text-anchor="start" x="8" y="-84.5" font-family="Helvetica,sans-Serif" font-size="10.00" fill="#000000">+ $pbac</text>
<text text-anchor="start" x="8" y="-74.5" font-family="Helvetica,sans-Serif" font-size="10.00" fill="#000000">+ $ajax</text>
<polyline fill="none" stroke="#000000" points="0,-68.5 122.7041,-68.5 "/>
<text text-anchor="start" x="8" y="-56.5" font-family="Helvetica,sans-Serif" font-size="10.00" fill="#000000">+ isUserAllowed()</text>
<text text-anchor="start" x="8" y="-46.5" font-family="Helvetica,sans-Serif" font-size="10.00" fill="#000000"># isUserMatched()</text>
<text text-anchor="start" x="8" y="-36.5" font-family="Helvetica,sans-Serif" font-size="10.00" fill="#000000"># isGroupMatched()</text>
<text text-anchor="start" x="8" y="-26.5" font-family="Helvetica,sans-Serif" font-size="10.00" fill="#000000"># isAjaxMatched()</text>
<text text-anchor="start" x="8" y="-16.5" font-family="Helvetica,sans-Serif" font-size="10.00" fill="#000000"># isPbacMatched()</text>
<text text-anchor="start" x="8" y="-6.5" font-family="Helvetica,sans-Serif" font-size="10.00" fill="#000000"># isLevelMatched()</text>
</g>
<!-- Node1 -->
<g id="node2" class="node">
<title>Node1</title>
<polygon fill="#ffffff" stroke="#bfbfbf" points="23.3423,-171.5 23.3423,-225.5 99.3618,-225.5 99.3618,-171.5 23.3423,-171.5"/>
<text text-anchor="middle" x="61.3521" y="-213.5" font-family="Helvetica,sans-Serif" font-size="10.00" fill="#000000">CAccessRule</text>
<polyline fill="none" stroke="#bfbfbf" points="23.3423,-207.5 99.3618,-207.5 "/>
<text text-anchor="middle" x="61.3521" y="-195.5" font-family="Helvetica,sans-Serif" font-size="10.00" fill="#000000"> </text>
<polyline fill="none" stroke="#bfbfbf" points="23.3423,-189.5 99.3618,-189.5 "/>
<text text-anchor="middle" x="61.3521" y="-177.5" font-family="Helvetica,sans-Serif" font-size="10.00" fill="#000000"> </text>
</g>
<!-- Node1&#45;&gt;Node0 -->
<g id="edge1" class="edge">
<title>Node1&#45;&gt;Node0</title>
<path fill="none" stroke="#191970" d="M61.3521,-161.2321C61.3521,-152.8764 61.3521,-143.7626 61.3521,-134.607"/>
<polygon fill="none" stroke="#191970" points="57.8521,-161.3567 61.3521,-171.3567 64.8521,-161.3567 57.8521,-161.3567"/>
</g>
</g>
</svg>
