<?xml version="1.0" encoding="UTF-8" standalone="no"?>
<!DOCTYPE svg PUBLIC "-//W3C//DTD SVG 1.1//EN"
 "http://www.w3.org/Graphics/SVG/1.1/DTD/svg11.dtd">
<!-- Generated by graphviz version 2.40.1 (20161225.0304)
 -->
<!-- Title: Google_CreativeDisapprovalReasons Pages: 1 -->
<svg width="152pt" height="244pt"
 viewBox="0.00 0.00 151.85 244.00" xmlns="http://www.w3.org/2000/svg" xmlns:xlink="http://www.w3.org/1999/xlink">
<g id="graph0" class="graph" transform="scale(1 1) rotate(0) translate(4 240)">
<title>Google_CreativeDisapprovalReasons</title>
<polygon fill="#ffffff" stroke="transparent" points="-4,4 -4,-240 147.8467,-240 147.8467,4 -4,4"/>
<!-- Node2 -->
<g id="node1" class="node">
<title>Node2</title>
<polygon fill="#bfbfbf" stroke="#000000" points="0,-.5 0,-104.5 143.8467,-104.5 143.8467,-.5 0,-.5"/>
<text text-anchor="start" x="8" y="-92.5" font-family="Helvetica,sans-Serif" font-size="10.00" fill="#000000">Google_CreativeDisapproval</text>
<text text-anchor="middle" x="71.9233" y="-82.5" font-family="Helvetica,sans-Serif" font-size="10.00" fill="#000000">Reasons</text>
<polyline fill="none" stroke="#000000" points="0,-76.5 143.8467,-76.5 "/>
<text text-anchor="start" x="8" y="-64.5" font-family="Helvetica,sans-Serif" font-size="10.00" fill="#000000">+ $details</text>
<text text-anchor="start" x="8" y="-54.5" font-family="Helvetica,sans-Serif" font-size="10.00" fill="#000000">+ $reason</text>
<polyline fill="none" stroke="#000000" points="0,-48.5 143.8467,-48.5 "/>
<text text-anchor="start" x="8" y="-36.5" font-family="Helvetica,sans-Serif" font-size="10.00" fill="#000000">+ setDetails()</text>
<text text-anchor="start" x="8" y="-26.5" font-family="Helvetica,sans-Serif" font-size="10.00" fill="#000000">+ getDetails()</text>
<text text-anchor="start" x="8" y="-16.5" font-family="Helvetica,sans-Serif" font-size="10.00" fill="#000000">+ setReason()</text>
<text text-anchor="start" x="8" y="-6.5" font-family="Helvetica,sans-Serif" font-size="10.00" fill="#000000">+ getReason()</text>
</g>
<!-- Node3 -->
<g id="node2" class="node">
<title>Node3</title>
<g id="a_node2"><a xlink:href="class_google___model.html" target="_top" xlink:title="{Google_Model\n||+ __construct()\l+ assertIsArray()\l# mapTypes()\l# isAssociativeArray()\l# useObjects()\l}">
<polygon fill="#ffffff" stroke="#000000" points="15.5786,-141.5 15.5786,-235.5 128.2681,-235.5 128.2681,-141.5 15.5786,-141.5"/>
<text text-anchor="middle" x="71.9233" y="-223.5" font-family="Helvetica,sans-Serif" font-size="10.00" fill="#000000">Google_Model</text>
<polyline fill="none" stroke="#000000" points="15.5786,-217.5 128.2681,-217.5 "/>
<text text-anchor="middle" x="71.9233" y="-205.5" font-family="Helvetica,sans-Serif" font-size="10.00" fill="#000000"> </text>
<polyline fill="none" stroke="#000000" points="15.5786,-199.5 128.2681,-199.5 "/>
<text text-anchor="start" x="23.5786" y="-187.5" font-family="Helvetica,sans-Serif" font-size="10.00" fill="#000000">+ __construct()</text>
<text text-anchor="start" x="23.5786" y="-177.5" font-family="Helvetica,sans-Serif" font-size="10.00" fill="#000000">+ assertIsArray()</text>
<text text-anchor="start" x="23.5786" y="-167.5" font-family="Helvetica,sans-Serif" font-size="10.00" fill="#000000"># mapTypes()</text>
<text text-anchor="start" x="23.5786" y="-157.5" font-family="Helvetica,sans-Serif" font-size="10.00" fill="#000000"># isAssociativeArray()</text>
<text text-anchor="start" x="23.5786" y="-147.5" font-family="Helvetica,sans-Serif" font-size="10.00" fill="#000000"># useObjects()</text>
</a>
</g>
</g>
<!-- Node3&#45;&gt;Node2 -->
<g id="edge1" class="edge">
<title>Node3&#45;&gt;Node2</title>
<path fill="none" stroke="#191970" d="M71.9233,-131.1629C71.9233,-122.3884 71.9233,-113.3711 71.9233,-104.715"/>
<polygon fill="none" stroke="#191970" points="68.4234,-131.3154 71.9233,-141.3155 75.4234,-131.3155 68.4234,-131.3154"/>
</g>
</g>
</svg>
