<?xml version="1.0" encoding="UTF-8" standalone="no"?>
<!DOCTYPE svg PUBLIC "-//W3C//DTD SVG 1.1//EN"
 "http://www.w3.org/Graphics/SVG/1.1/DTD/svg11.dtd">
<!-- Generated by graphviz version 2.40.1 (20161225.0304)
 -->
<!-- Title: Swift_ByteStream_AbstractFilterableInputStream Pages: 1 -->
<svg width="230pt" height="284pt"
 viewBox="0.00 0.00 230.28 284.00" xmlns="http://www.w3.org/2000/svg" xmlns:xlink="http://www.w3.org/1999/xlink">
<g id="graph0" class="graph" transform="scale(1 1) rotate(0) translate(4 280)">
<title>Swift_ByteStream_AbstractFilterableInputStream</title>
<polygon fill="#ffffff" stroke="transparent" points="-4,4 -4,-280 226.2793,-280 226.2793,4 -4,4"/>
<!-- Node5 -->
<g id="node1" class="node">
<title>Node5</title>
<polygon fill="#bfbfbf" stroke="#000000" points="50,-.5 50,-144.5 187.7139,-144.5 187.7139,-.5 50,-.5"/>
<text text-anchor="start" x="58" y="-132.5" font-family="Helvetica,sans-Serif" font-size="10.00" fill="#000000">Swift_ByteStream_Abstract</text>
<text text-anchor="middle" x="118.8569" y="-122.5" font-family="Helvetica,sans-Serif" font-size="10.00" fill="#000000">FilterableInputStream</text>
<polyline fill="none" stroke="#000000" points="50,-116.5 187.7139,-116.5 "/>
<text text-anchor="middle" x="118.8569" y="-104.5" font-family="Helvetica,sans-Serif" font-size="10.00" fill="#000000"> </text>
<polyline fill="none" stroke="#000000" points="50,-98.5 187.7139,-98.5 "/>
<text text-anchor="start" x="58" y="-86.5" font-family="Helvetica,sans-Serif" font-size="10.00" fill="#000000">+ addFilter()</text>
<text text-anchor="start" x="58" y="-76.5" font-family="Helvetica,sans-Serif" font-size="10.00" fill="#000000">+ removeFilter()</text>
<text text-anchor="start" x="58" y="-66.5" font-family="Helvetica,sans-Serif" font-size="10.00" fill="#000000">+ write()</text>
<text text-anchor="start" x="58" y="-56.5" font-family="Helvetica,sans-Serif" font-size="10.00" fill="#000000">+ commit()</text>
<text text-anchor="start" x="58" y="-46.5" font-family="Helvetica,sans-Serif" font-size="10.00" fill="#000000">+ bind()</text>
<text text-anchor="start" x="58" y="-36.5" font-family="Helvetica,sans-Serif" font-size="10.00" fill="#000000">+ unbind()</text>
<text text-anchor="start" x="58" y="-26.5" font-family="Helvetica,sans-Serif" font-size="10.00" fill="#000000">+ flushBuffers()</text>
<text text-anchor="start" x="58" y="-16.5" font-family="Helvetica,sans-Serif" font-size="10.00" fill="#000000"># _commit()</text>
<text text-anchor="start" x="58" y="-6.5" font-family="Helvetica,sans-Serif" font-size="10.00" fill="#000000"># _flush()</text>
</g>
<!-- Node6 -->
<g id="node2" class="node">
<title>Node6</title>
<g id="a_node2"><a xlink:href="interface_swift___input_byte_stream.html" target="_top" xlink:title="{Swift_InputByteStream\n||+ write()\l+ commit()\l+ bind()\l+ unbind()\l+ flushBuffers()\l}">
<polygon fill="#ffffff" stroke="#000000" points="0,-181.5 0,-275.5 117.7139,-275.5 117.7139,-181.5 0,-181.5"/>
<text text-anchor="middle" x="58.8569" y="-263.5" font-family="Helvetica,sans-Serif" font-size="10.00" fill="#000000">Swift_InputByteStream</text>
<polyline fill="none" stroke="#000000" points="0,-257.5 117.7139,-257.5 "/>
<text text-anchor="middle" x="58.8569" y="-245.5" font-family="Helvetica,sans-Serif" font-size="10.00" fill="#000000"> </text>
<polyline fill="none" stroke="#000000" points="0,-239.5 117.7139,-239.5 "/>
<text text-anchor="start" x="8" y="-227.5" font-family="Helvetica,sans-Serif" font-size="10.00" fill="#000000">+ write()</text>
<text text-anchor="start" x="8" y="-217.5" font-family="Helvetica,sans-Serif" font-size="10.00" fill="#000000">+ commit()</text>
<text text-anchor="start" x="8" y="-207.5" font-family="Helvetica,sans-Serif" font-size="10.00" fill="#000000">+ bind()</text>
<text text-anchor="start" x="8" y="-197.5" font-family="Helvetica,sans-Serif" font-size="10.00" fill="#000000">+ unbind()</text>
<text text-anchor="start" x="8" y="-187.5" font-family="Helvetica,sans-Serif" font-size="10.00" fill="#000000">+ flushBuffers()</text>
</a>
</g>
</g>
<!-- Node6&#45;&gt;Node5 -->
<g id="edge1" class="edge">
<title>Node6&#45;&gt;Node5</title>
<path fill="none" stroke="#191970" d="M80.6457,-171.8492C84.0491,-163.0002 87.6054,-153.7541 91.1199,-144.6162"/>
<polygon fill="none" stroke="#191970" points="77.3449,-170.6816 77.0217,-181.2715 83.8783,-173.1945 77.3449,-170.6816"/>
</g>
<!-- Node7 -->
<g id="node3" class="node">
<title>Node7</title>
<g id="a_node3"><a xlink:href="interface_swift___filterable.html" target="_top" xlink:title="{Swift_Filterable\n||+ addFilter()\l+ removeFilter()\l}">
<polygon fill="#ffffff" stroke="#000000" points="135.4346,-196.5 135.4346,-260.5 222.2793,-260.5 222.2793,-196.5 135.4346,-196.5"/>
<text text-anchor="middle" x="178.8569" y="-248.5" font-family="Helvetica,sans-Serif" font-size="10.00" fill="#000000">Swift_Filterable</text>
<polyline fill="none" stroke="#000000" points="135.4346,-242.5 222.2793,-242.5 "/>
<text text-anchor="middle" x="178.8569" y="-230.5" font-family="Helvetica,sans-Serif" font-size="10.00" fill="#000000"> </text>
<polyline fill="none" stroke="#000000" points="135.4346,-224.5 222.2793,-224.5 "/>
<text text-anchor="start" x="143.4346" y="-212.5" font-family="Helvetica,sans-Serif" font-size="10.00" fill="#000000">+ addFilter()</text>
<text text-anchor="start" x="143.4346" y="-202.5" font-family="Helvetica,sans-Serif" font-size="10.00" fill="#000000">+ removeFilter()</text>
</a>
</g>
</g>
<!-- Node7&#45;&gt;Node5 -->
<g id="edge2" class="edge">
<title>Node7&#45;&gt;Node5</title>
<path fill="none" stroke="#191970" d="M162.7579,-186.6426C157.7791,-173.6976 152.1444,-159.0474 146.6121,-144.6634"/>
<polygon fill="none" stroke="#191970" points="159.5683,-188.0997 166.4249,-196.1767 166.1018,-185.5868 159.5683,-188.0997"/>
</g>
</g>
</svg>
