<?xml version="1.0" encoding="UTF-8" standalone="no"?>
<!DOCTYPE svg PUBLIC "-//W3C//DTD SVG 1.1//EN"
 "http://www.w3.org/Graphics/SVG/1.1/DTD/svg11.dtd">
<!-- Generated by graphviz version 2.40.1 (20161225.0304)
 -->
<!-- Title: Swift_IoException Pages: 1 -->
<svg width="328pt" height="336pt"
 viewBox="0.00 0.00 327.90 336.00" xmlns="http://www.w3.org/2000/svg" xmlns:xlink="http://www.w3.org/1999/xlink">
<g id="graph0" class="graph" transform="scale(1 1) rotate(0) translate(4 332)">
<title>Swift_IoException</title>
<polygon fill="#ffffff" stroke="transparent" points="-4,4 -4,-332 323.895,-332 323.895,4 -4,4"/>
<!-- Node0 -->
<g id="node1" class="node">
<title>Node0</title>
<polygon fill="#bfbfbf" stroke="#000000" points="122.3643,-91.5 122.3643,-145.5 217.8516,-145.5 217.8516,-91.5 122.3643,-91.5"/>
<text text-anchor="middle" x="170.1079" y="-133.5" font-family="Helvetica,sans-Serif" font-size="10.00" fill="#000000">Swift_IoException</text>
<polyline fill="none" stroke="#000000" points="122.3643,-127.5 217.8516,-127.5 "/>
<text text-anchor="middle" x="170.1079" y="-115.5" font-family="Helvetica,sans-Serif" font-size="10.00" fill="#000000"> </text>
<polyline fill="none" stroke="#000000" points="122.3643,-109.5 217.8516,-109.5 "/>
<text text-anchor="start" x="130.3643" y="-97.5" font-family="Helvetica,sans-Serif" font-size="10.00" fill="#000000">+ __construct()</text>
</g>
<!-- Node3 -->
<g id="node4" class="node">
<title>Node3</title>
<g id="a_node4"><a xlink:href="class_swift___plugins___pop___pop3_exception.html" target="_top" xlink:title="{Swift_Plugins_Pop_Pop3Exception\n||+ __construct()\l}">
<polygon fill="#ffffff" stroke="#000000" points="0,-.5 0,-54.5 172.2158,-54.5 172.2158,-.5 0,-.5"/>
<text text-anchor="middle" x="86.1079" y="-42.5" font-family="Helvetica,sans-Serif" font-size="10.00" fill="#000000">Swift_Plugins_Pop_Pop3Exception</text>
<polyline fill="none" stroke="#000000" points="0,-36.5 172.2158,-36.5 "/>
<text text-anchor="middle" x="86.1079" y="-24.5" font-family="Helvetica,sans-Serif" font-size="10.00" fill="#000000"> </text>
<polyline fill="none" stroke="#000000" points="0,-18.5 172.2158,-18.5 "/>
<text text-anchor="start" x="8" y="-6.5" font-family="Helvetica,sans-Serif" font-size="10.00" fill="#000000">+ __construct()</text>
</a>
</g>
</g>
<!-- Node0&#45;&gt;Node3 -->
<g id="edge3" class="edge">
<title>Node0&#45;&gt;Node3</title>
<path fill="none" stroke="#191970" d="M137.9801,-83.6949C129.1396,-74.1176 119.6804,-63.8702 111.2929,-54.7837"/>
<polygon fill="none" stroke="#191970" points="135.5505,-86.2229 144.9051,-91.197 140.6941,-81.4749 135.5505,-86.2229"/>
</g>
<!-- Node4 -->
<g id="node5" class="node">
<title>Node4</title>
<g id="a_node5"><a xlink:href="class_swift___transport_exception.html" target="_top" xlink:title="{Swift_TransportException\n||+ __construct()\l}">
<polygon fill="#ffffff" stroke="#000000" points="190.3208,-.5 190.3208,-54.5 319.895,-54.5 319.895,-.5 190.3208,-.5"/>
<text text-anchor="middle" x="255.1079" y="-42.5" font-family="Helvetica,sans-Serif" font-size="10.00" fill="#000000">Swift_TransportException</text>
<polyline fill="none" stroke="#000000" points="190.3208,-36.5 319.895,-36.5 "/>
<text text-anchor="middle" x="255.1079" y="-24.5" font-family="Helvetica,sans-Serif" font-size="10.00" fill="#000000"> </text>
<polyline fill="none" stroke="#000000" points="190.3208,-18.5 319.895,-18.5 "/>
<text text-anchor="start" x="198.3208" y="-6.5" font-family="Helvetica,sans-Serif" font-size="10.00" fill="#000000">+ __construct()</text>
</a>
</g>
</g>
<!-- Node0&#45;&gt;Node4 -->
<g id="edge4" class="edge">
<title>Node0&#45;&gt;Node4</title>
<path fill="none" stroke="#191970" d="M202.6182,-83.6949C211.564,-74.1176 221.1357,-63.8702 229.6231,-54.7837"/>
<polygon fill="none" stroke="#191970" points="199.879,-81.5 195.6107,-91.197 204.9946,-86.2782 199.879,-81.5"/>
</g>
<!-- Node1 -->
<g id="node2" class="node">
<title>Node1</title>
<g id="a_node2"><a xlink:href="class_swift___swift_exception.html" target="_top" xlink:title="{Swift_SwiftException\n||+ __construct()\l}">
<polygon fill="#ffffff" stroke="#000000" points="115.6992,-182.5 115.6992,-236.5 224.5166,-236.5 224.5166,-182.5 115.6992,-182.5"/>
<text text-anchor="middle" x="170.1079" y="-224.5" font-family="Helvetica,sans-Serif" font-size="10.00" fill="#000000">Swift_SwiftException</text>
<polyline fill="none" stroke="#000000" points="115.6992,-218.5 224.5166,-218.5 "/>
<text text-anchor="middle" x="170.1079" y="-206.5" font-family="Helvetica,sans-Serif" font-size="10.00" fill="#000000"> </text>
<polyline fill="none" stroke="#000000" points="115.6992,-200.5 224.5166,-200.5 "/>
<text text-anchor="start" x="123.6992" y="-188.5" font-family="Helvetica,sans-Serif" font-size="10.00" fill="#000000">+ __construct()</text>
</a>
</g>
</g>
<!-- Node1&#45;&gt;Node0 -->
<g id="edge1" class="edge">
<title>Node1&#45;&gt;Node0</title>
<path fill="none" stroke="#191970" d="M170.1079,-172.12C170.1079,-163.3006 170.1079,-154.0605 170.1079,-145.7837"/>
<polygon fill="none" stroke="#191970" points="166.608,-172.197 170.1079,-182.197 173.608,-172.197 166.608,-172.197"/>
</g>
<!-- Node2 -->
<g id="node3" class="node">
<title>Node2</title>
<polygon fill="#ffffff" stroke="#bfbfbf" points="140.1499,-273.5 140.1499,-327.5 200.0659,-327.5 200.0659,-273.5 140.1499,-273.5"/>
<text text-anchor="middle" x="170.1079" y="-315.5" font-family="Helvetica,sans-Serif" font-size="10.00" fill="#000000">Exception</text>
<polyline fill="none" stroke="#bfbfbf" points="140.1499,-309.5 200.0659,-309.5 "/>
<text text-anchor="middle" x="170.1079" y="-297.5" font-family="Helvetica,sans-Serif" font-size="10.00" fill="#000000"> </text>
<polyline fill="none" stroke="#bfbfbf" points="140.1499,-291.5 200.0659,-291.5 "/>
<text text-anchor="middle" x="170.1079" y="-279.5" font-family="Helvetica,sans-Serif" font-size="10.00" fill="#000000"> </text>
</g>
<!-- Node2&#45;&gt;Node1 -->
<g id="edge2" class="edge">
<title>Node2&#45;&gt;Node1</title>
<path fill="none" stroke="#191970" d="M170.1079,-263.12C170.1079,-254.3006 170.1079,-245.0605 170.1079,-236.7837"/>
<polygon fill="none" stroke="#191970" points="166.608,-263.197 170.1079,-273.197 173.608,-263.197 166.608,-263.197"/>
</g>
</g>
</svg>
