<?xml version="1.0" encoding="UTF-8" standalone="no"?>
<!DOCTYPE svg PUBLIC "-//W3C//DTD SVG 1.1//EN"
 "http://www.w3.org/Graphics/SVG/1.1/DTD/svg11.dtd">
<!-- Generated by graphviz version 2.40.1 (20161225.0304)
 -->
<!-- Title: Google_LicenseAssignmentInsert Pages: 1 -->
<svg width="149pt" height="214pt"
 viewBox="0.00 0.00 148.52 214.00" xmlns="http://www.w3.org/2000/svg" xmlns:xlink="http://www.w3.org/1999/xlink">
<g id="graph0" class="graph" transform="scale(1 1) rotate(0) translate(4 210)">
<title>Google_LicenseAssignmentInsert</title>
<polygon fill="#ffffff" stroke="transparent" points="-4,4 -4,-210 144.5215,-210 144.5215,4 -4,4"/>
<!-- Node2 -->
<g id="node1" class="node">
<title>Node2</title>
<polygon fill="#bfbfbf" stroke="#000000" points="0,-.5 0,-74.5 140.5215,-74.5 140.5215,-.5 0,-.5"/>
<text text-anchor="start" x="8" y="-62.5" font-family="Helvetica,sans-Serif" font-size="10.00" fill="#000000">Google_LicenseAssignment</text>
<text text-anchor="middle" x="70.2607" y="-52.5" font-family="Helvetica,sans-Serif" font-size="10.00" fill="#000000">Insert</text>
<polyline fill="none" stroke="#000000" points="0,-46.5 140.5215,-46.5 "/>
<text text-anchor="start" x="8" y="-34.5" font-family="Helvetica,sans-Serif" font-size="10.00" fill="#000000">+ $userId</text>
<polyline fill="none" stroke="#000000" points="0,-28.5 140.5215,-28.5 "/>
<text text-anchor="start" x="8" y="-16.5" font-family="Helvetica,sans-Serif" font-size="10.00" fill="#000000">+ setUserId()</text>
<text text-anchor="start" x="8" y="-6.5" font-family="Helvetica,sans-Serif" font-size="10.00" fill="#000000">+ getUserId()</text>
</g>
<!-- Node3 -->
<g id="node2" class="node">
<title>Node3</title>
<g id="a_node2"><a xlink:href="class_google___model.html" target="_top" xlink:title="{Google_Model\n||+ __construct()\l+ assertIsArray()\l# mapTypes()\l# isAssociativeArray()\l# useObjects()\l}">
<polygon fill="#ffffff" stroke="#000000" points="13.916,-111.5 13.916,-205.5 126.6055,-205.5 126.6055,-111.5 13.916,-111.5"/>
<text text-anchor="middle" x="70.2607" y="-193.5" font-family="Helvetica,sans-Serif" font-size="10.00" fill="#000000">Google_Model</text>
<polyline fill="none" stroke="#000000" points="13.916,-187.5 126.6055,-187.5 "/>
<text text-anchor="middle" x="70.2607" y="-175.5" font-family="Helvetica,sans-Serif" font-size="10.00" fill="#000000"> </text>
<polyline fill="none" stroke="#000000" points="13.916,-169.5 126.6055,-169.5 "/>
<text text-anchor="start" x="21.916" y="-157.5" font-family="Helvetica,sans-Serif" font-size="10.00" fill="#000000">+ __construct()</text>
<text text-anchor="start" x="21.916" y="-147.5" font-family="Helvetica,sans-Serif" font-size="10.00" fill="#000000">+ assertIsArray()</text>
<text text-anchor="start" x="21.916" y="-137.5" font-family="Helvetica,sans-Serif" font-size="10.00" fill="#000000"># mapTypes()</text>
<text text-anchor="start" x="21.916" y="-127.5" font-family="Helvetica,sans-Serif" font-size="10.00" fill="#000000"># isAssociativeArray()</text>
<text text-anchor="start" x="21.916" y="-117.5" font-family="Helvetica,sans-Serif" font-size="10.00" fill="#000000"># useObjects()</text>
</a>
</g>
</g>
<!-- Node3&#45;&gt;Node2 -->
<g id="edge1" class="edge">
<title>Node3&#45;&gt;Node2</title>
<path fill="none" stroke="#191970" d="M70.2607,-101.2279C70.2607,-92.1684 70.2607,-83.0122 70.2607,-74.5748"/>
<polygon fill="none" stroke="#191970" points="66.7608,-101.3717 70.2607,-111.3718 73.7608,-101.3718 66.7608,-101.3717"/>
</g>
</g>
</svg>
