<?xml version="1.0" encoding="UTF-8" standalone="no"?>
<!DOCTYPE svg PUBLIC "-//W3C//DTD SVG 1.1//EN"
 "http://www.w3.org/Graphics/SVG/1.1/DTD/svg11.dtd">
<!-- Generated by graphviz version 2.40.1 (20161225.0304)
 -->
<!-- Title: InstallController Pages: 1 -->
<svg width="177pt" height="335pt"
 viewBox="0.00 0.00 176.54 335.00" xmlns="http://www.w3.org/2000/svg" xmlns:xlink="http://www.w3.org/1999/xlink">
<g id="graph0" class="graph" transform="scale(1 1) rotate(0) translate(4 331)">
<title>InstallController</title>
<polygon fill="#ffffff" stroke="transparent" points="-4,4 -4,-331 172.5439,-331 172.5439,4 -4,4"/>
<!-- Node3 -->
<g id="node1" class="node">
<title>Node3</title>
<polygon fill="#bfbfbf" stroke="#000000" points="20.2271,-.5 20.2271,-64.5 148.3169,-64.5 148.3169,-.5 20.2271,-.5"/>
<text text-anchor="middle" x="84.272" y="-52.5" font-family="Helvetica,sans-Serif" font-size="10.00" fill="#000000">InstallController</text>
<polyline fill="none" stroke="#000000" points="20.2271,-46.5 148.3169,-46.5 "/>
<text text-anchor="start" x="28.2271" y="-34.5" font-family="Helvetica,sans-Serif" font-size="10.00" fill="#000000">+ $_permissionControl</text>
<polyline fill="none" stroke="#000000" points="20.2271,-28.5 148.3169,-28.5 "/>
<text text-anchor="start" x="28.2271" y="-16.5" font-family="Helvetica,sans-Serif" font-size="10.00" fill="#000000">+ actionIndex()</text>
<text text-anchor="start" x="28.2271" y="-6.5" font-family="Helvetica,sans-Serif" font-size="10.00" fill="#000000"># performAjaxValidation()</text>
</g>
<!-- Node4 -->
<g id="node2" class="node">
<title>Node4</title>
<g id="a_node2"><a xlink:href="class_controller.html" target="_top" xlink:title="{Controller\n|+ $layout\l+ $title\l+ $menu\l+ $breadcrumbs\l+ $_permissionControl\l|+ getUser()\l+ filterUserGroupsAccessControl()\l+ getMapkey()\l+ filterUserGroupsAccessControl()\l# beforeAction()\l}">
<polygon fill="#ffffff" stroke="#000000" points="0,-101.5 0,-235.5 168.5439,-235.5 168.5439,-101.5 0,-101.5"/>
<text text-anchor="middle" x="84.272" y="-223.5" font-family="Helvetica,sans-Serif" font-size="10.00" fill="#000000">Controller</text>
<polyline fill="none" stroke="#000000" points="0,-217.5 168.5439,-217.5 "/>
<text text-anchor="start" x="8" y="-205.5" font-family="Helvetica,sans-Serif" font-size="10.00" fill="#000000">+ $layout</text>
<text text-anchor="start" x="8" y="-195.5" font-family="Helvetica,sans-Serif" font-size="10.00" fill="#000000">+ $title</text>
<text text-anchor="start" x="8" y="-185.5" font-family="Helvetica,sans-Serif" font-size="10.00" fill="#000000">+ $menu</text>
<text text-anchor="start" x="8" y="-175.5" font-family="Helvetica,sans-Serif" font-size="10.00" fill="#000000">+ $breadcrumbs</text>
<text text-anchor="start" x="8" y="-165.5" font-family="Helvetica,sans-Serif" font-size="10.00" fill="#000000">+ $_permissionControl</text>
<polyline fill="none" stroke="#000000" points="0,-159.5 168.5439,-159.5 "/>
<text text-anchor="start" x="8" y="-147.5" font-family="Helvetica,sans-Serif" font-size="10.00" fill="#000000">+ getUser()</text>
<text text-anchor="start" x="8" y="-137.5" font-family="Helvetica,sans-Serif" font-size="10.00" fill="#000000">+ filterUserGroupsAccessControl()</text>
<text text-anchor="start" x="8" y="-127.5" font-family="Helvetica,sans-Serif" font-size="10.00" fill="#000000">+ getMapkey()</text>
<text text-anchor="start" x="8" y="-117.5" font-family="Helvetica,sans-Serif" font-size="10.00" fill="#000000">+ filterUserGroupsAccessControl()</text>
<text text-anchor="start" x="8" y="-107.5" font-family="Helvetica,sans-Serif" font-size="10.00" fill="#000000"># beforeAction()</text>
</a>
</g>
</g>
<!-- Node4&#45;&gt;Node3 -->
<g id="edge1" class="edge">
<title>Node4&#45;&gt;Node3</title>
<path fill="none" stroke="#191970" d="M84.272,-91.1901C84.272,-81.9302 84.272,-72.905 84.272,-64.819"/>
<polygon fill="none" stroke="#191970" points="80.7721,-91.2968 84.272,-101.2969 87.7721,-91.2969 80.7721,-91.2968"/>
</g>
<!-- Node5 -->
<g id="node3" class="node">
<title>Node5</title>
<polygon fill="#ffffff" stroke="#bfbfbf" points="50.9863,-272.5 50.9863,-326.5 117.5576,-326.5 117.5576,-272.5 50.9863,-272.5"/>
<text text-anchor="middle" x="84.272" y="-314.5" font-family="Helvetica,sans-Serif" font-size="10.00" fill="#000000">CController</text>
<polyline fill="none" stroke="#bfbfbf" points="50.9863,-308.5 117.5576,-308.5 "/>
<text text-anchor="middle" x="84.272" y="-296.5" font-family="Helvetica,sans-Serif" font-size="10.00" fill="#000000"> </text>
<polyline fill="none" stroke="#bfbfbf" points="50.9863,-290.5 117.5576,-290.5 "/>
<text text-anchor="middle" x="84.272" y="-278.5" font-family="Helvetica,sans-Serif" font-size="10.00" fill="#000000"> </text>
</g>
<!-- Node5&#45;&gt;Node4 -->
<g id="edge2" class="edge">
<title>Node5&#45;&gt;Node4</title>
<path fill="none" stroke="#191970" d="M78.1134,-262.2321C77.7409,-253.8764 77.5444,-244.7626 77.5238,-235.607"/>
<polygon fill="none" stroke="#191970" points="74.6266,-262.5676 78.6792,-272.3567 81.6156,-262.1769 74.6266,-262.5676"/>
</g>
<!-- Node5&#45;&gt;Node4 -->
<g id="edge3" class="edge">
<title>Node5&#45;&gt;Node4</title>
<path fill="none" stroke="#191970" d="M90.4306,-262.2321C90.8031,-253.8764 90.9996,-244.7626 91.0202,-235.607"/>
<polygon fill="none" stroke="#191970" points="86.9283,-262.1769 89.8647,-272.3567 93.9174,-262.5676 86.9283,-262.1769"/>
</g>
</g>
</svg>
