<?xml version="1.0" encoding="UTF-8" standalone="no"?>
<!DOCTYPE svg PUBLIC "-//W3C//DTD SVG 1.1//EN"
 "http://www.w3.org/Graphics/SVG/1.1/DTD/svg11.dtd">
<!-- Generated by graphviz version 2.40.1 (20161225.0304)
 -->
<!-- Title: Google_ScheduleServiceResource Pages: 1 -->
<svg width="180pt" height="204pt"
 viewBox="0.00 0.00 179.65 204.00" xmlns="http://www.w3.org/2000/svg" xmlns:xlink="http://www.w3.org/1999/xlink">
<g id="graph0" class="graph" transform="scale(1 1) rotate(0) translate(4 200)">
<title>Google_ScheduleServiceResource</title>
<polygon fill="#ffffff" stroke="transparent" points="-4,4 -4,-200 175.6494,-200 175.6494,4 -4,4"/>
<!-- Node0 -->
<g id="node1" class="node">
<title>Node0</title>
<polygon fill="#bfbfbf" stroke="#000000" points="0,-.5 0,-74.5 171.6494,-74.5 171.6494,-.5 0,-.5"/>
<text text-anchor="middle" x="85.8247" y="-62.5" font-family="Helvetica,sans-Serif" font-size="10.00" fill="#000000">Google_ScheduleServiceResource</text>
<polyline fill="none" stroke="#000000" points="0,-56.5 171.6494,-56.5 "/>
<text text-anchor="middle" x="85.8247" y="-44.5" font-family="Helvetica,sans-Serif" font-size="10.00" fill="#000000"> </text>
<polyline fill="none" stroke="#000000" points="0,-38.5 171.6494,-38.5 "/>
<text text-anchor="start" x="8" y="-26.5" font-family="Helvetica,sans-Serif" font-size="10.00" fill="#000000">+ get()</text>
<text text-anchor="start" x="8" y="-16.5" font-family="Helvetica,sans-Serif" font-size="10.00" fill="#000000">+ patch()</text>
<text text-anchor="start" x="8" y="-6.5" font-family="Helvetica,sans-Serif" font-size="10.00" fill="#000000">+ update()</text>
</g>
<!-- Node1 -->
<g id="node2" class="node">
<title>Node1</title>
<g id="a_node2"><a xlink:href="class_google___service_resource.html" target="_top" xlink:title="{Google_ServiceResource\n||+ __construct()\l+ __call()\l+ useObjects()\l# stripNull()\l}">
<polygon fill="#ffffff" stroke="#000000" points="20.8496,-111.5 20.8496,-195.5 150.7998,-195.5 150.7998,-111.5 20.8496,-111.5"/>
<text text-anchor="middle" x="85.8247" y="-183.5" font-family="Helvetica,sans-Serif" font-size="10.00" fill="#000000">Google_ServiceResource</text>
<polyline fill="none" stroke="#000000" points="20.8496,-177.5 150.7998,-177.5 "/>
<text text-anchor="middle" x="85.8247" y="-165.5" font-family="Helvetica,sans-Serif" font-size="10.00" fill="#000000"> </text>
<polyline fill="none" stroke="#000000" points="20.8496,-159.5 150.7998,-159.5 "/>
<text text-anchor="start" x="28.8496" y="-147.5" font-family="Helvetica,sans-Serif" font-size="10.00" fill="#000000">+ __construct()</text>
<text text-anchor="start" x="28.8496" y="-137.5" font-family="Helvetica,sans-Serif" font-size="10.00" fill="#000000">+ __call()</text>
<text text-anchor="start" x="28.8496" y="-127.5" font-family="Helvetica,sans-Serif" font-size="10.00" fill="#000000">+ useObjects()</text>
<text text-anchor="start" x="28.8496" y="-117.5" font-family="Helvetica,sans-Serif" font-size="10.00" fill="#000000"># stripNull()</text>
</a>
</g>
</g>
<!-- Node1&#45;&gt;Node0 -->
<g id="edge1" class="edge">
<title>Node1&#45;&gt;Node0</title>
<path fill="none" stroke="#191970" d="M85.8247,-101.0572C85.8247,-92.2275 85.8247,-83.2244 85.8247,-74.8766"/>
<polygon fill="none" stroke="#191970" points="82.3248,-101.2932 85.8247,-111.2932 89.3248,-101.2932 82.3248,-101.2932"/>
</g>
</g>
</svg>
