<?xml version="1.0" encoding="UTF-8" standalone="no"?>
<!DOCTYPE svg PUBLIC "-//W3C//DTD SVG 1.1//EN"
 "http://www.w3.org/Graphics/SVG/1.1/DTD/svg11.dtd">
<!-- Generated by graphviz version 2.40.1 (20161225.0304)
 -->
<!-- Title: Google_ActivityObjectResharers Pages: 1 -->
<svg width="169pt" height="274pt"
 viewBox="0.00 0.00 168.51 274.00" xmlns="http://www.w3.org/2000/svg" xmlns:xlink="http://www.w3.org/1999/xlink">
<g id="graph0" class="graph" transform="scale(1 1) rotate(0) translate(4 270)">
<title>Google_ActivityObjectResharers</title>
<polygon fill="#ffffff" stroke="transparent" points="-4,4 -4,-270 164.5068,-270 164.5068,4 -4,4"/>
<!-- Node2 -->
<g id="node1" class="node">
<title>Node2</title>
<polygon fill="#bfbfbf" stroke="#000000" points="0,-.5 0,-134.5 160.5068,-134.5 160.5068,-.5 0,-.5"/>
<text text-anchor="middle" x="80.2534" y="-122.5" font-family="Helvetica,sans-Serif" font-size="10.00" fill="#000000">Google_ActivityObjectResharers</text>
<polyline fill="none" stroke="#000000" points="0,-116.5 160.5068,-116.5 "/>
<text text-anchor="start" x="8" y="-104.5" font-family="Helvetica,sans-Serif" font-size="10.00" fill="#000000">+ $selfLink</text>
<text text-anchor="start" x="8" y="-94.5" font-family="Helvetica,sans-Serif" font-size="10.00" fill="#000000">+ $totalItems</text>
<polyline fill="none" stroke="#000000" points="0,-88.5 160.5068,-88.5 "/>
<text text-anchor="start" x="8" y="-76.5" font-family="Helvetica,sans-Serif" font-size="10.00" fill="#000000">+ setSelfLink()</text>
<text text-anchor="start" x="8" y="-66.5" font-family="Helvetica,sans-Serif" font-size="10.00" fill="#000000">+ getSelfLink()</text>
<text text-anchor="start" x="8" y="-56.5" font-family="Helvetica,sans-Serif" font-size="10.00" fill="#000000">+ setTotalItems()</text>
<text text-anchor="start" x="8" y="-46.5" font-family="Helvetica,sans-Serif" font-size="10.00" fill="#000000">+ getTotalItems()</text>
<text text-anchor="start" x="8" y="-36.5" font-family="Helvetica,sans-Serif" font-size="10.00" fill="#000000">+ setSelfLink()</text>
<text text-anchor="start" x="8" y="-26.5" font-family="Helvetica,sans-Serif" font-size="10.00" fill="#000000">+ getSelfLink()</text>
<text text-anchor="start" x="8" y="-16.5" font-family="Helvetica,sans-Serif" font-size="10.00" fill="#000000">+ setTotalItems()</text>
<text text-anchor="start" x="8" y="-6.5" font-family="Helvetica,sans-Serif" font-size="10.00" fill="#000000">+ getTotalItems()</text>
</g>
<!-- Node3 -->
<g id="node2" class="node">
<title>Node3</title>
<g id="a_node2"><a xlink:href="class_google___model.html" target="_top" xlink:title="{Google_Model\n||+ __construct()\l+ assertIsArray()\l# mapTypes()\l# isAssociativeArray()\l# useObjects()\l}">
<polygon fill="#ffffff" stroke="#000000" points="23.9087,-171.5 23.9087,-265.5 136.5981,-265.5 136.5981,-171.5 23.9087,-171.5"/>
<text text-anchor="middle" x="80.2534" y="-253.5" font-family="Helvetica,sans-Serif" font-size="10.00" fill="#000000">Google_Model</text>
<polyline fill="none" stroke="#000000" points="23.9087,-247.5 136.5981,-247.5 "/>
<text text-anchor="middle" x="80.2534" y="-235.5" font-family="Helvetica,sans-Serif" font-size="10.00" fill="#000000"> </text>
<polyline fill="none" stroke="#000000" points="23.9087,-229.5 136.5981,-229.5 "/>
<text text-anchor="start" x="31.9087" y="-217.5" font-family="Helvetica,sans-Serif" font-size="10.00" fill="#000000">+ __construct()</text>
<text text-anchor="start" x="31.9087" y="-207.5" font-family="Helvetica,sans-Serif" font-size="10.00" fill="#000000">+ assertIsArray()</text>
<text text-anchor="start" x="31.9087" y="-197.5" font-family="Helvetica,sans-Serif" font-size="10.00" fill="#000000"># mapTypes()</text>
<text text-anchor="start" x="31.9087" y="-187.5" font-family="Helvetica,sans-Serif" font-size="10.00" fill="#000000"># isAssociativeArray()</text>
<text text-anchor="start" x="31.9087" y="-177.5" font-family="Helvetica,sans-Serif" font-size="10.00" fill="#000000"># useObjects()</text>
</a>
</g>
</g>
<!-- Node3&#45;&gt;Node2 -->
<g id="edge1" class="edge">
<title>Node3&#45;&gt;Node2</title>
<path fill="none" stroke="#191970" d="M73.6742,-160.8599C73.5072,-152.2753 73.4627,-143.3638 73.5406,-134.605"/>
<polygon fill="none" stroke="#191970" points="70.1824,-161.2303 73.9386,-171.137 77.1801,-161.0502 70.1824,-161.2303"/>
</g>
<!-- Node3&#45;&gt;Node2 -->
<g id="edge2" class="edge">
<title>Node3&#45;&gt;Node2</title>
<path fill="none" stroke="#191970" d="M86.8327,-160.8599C86.9997,-152.2753 87.0442,-143.3638 86.9662,-134.605"/>
<polygon fill="none" stroke="#191970" points="83.3267,-161.0502 86.5683,-171.137 90.3244,-161.2303 83.3267,-161.0502"/>
</g>
</g>
</svg>
