<?xml version="1.0" encoding="UTF-8" standalone="no"?>
<!DOCTYPE svg PUBLIC "-//W3C//DTD SVG 1.1//EN"
 "http://www.w3.org/Graphics/SVG/1.1/DTD/svg11.dtd">
<!-- Generated by graphviz version 2.40.1 (20161225.0304)
 -->
<!-- Title: Google_MyconfigServiceResource Pages: 1 -->
<svg width="178pt" height="204pt"
 viewBox="0.00 0.00 177.96 204.00" xmlns="http://www.w3.org/2000/svg" xmlns:xlink="http://www.w3.org/1999/xlink">
<g id="graph0" class="graph" transform="scale(1 1) rotate(0) translate(4 200)">
<title>Google_MyconfigServiceResource</title>
<polygon fill="#ffffff" stroke="transparent" points="-4,4 -4,-200 173.9648,-200 173.9648,4 -4,4"/>
<!-- Node2 -->
<g id="node1" class="node">
<title>Node2</title>
<polygon fill="#bfbfbf" stroke="#000000" points="0,-.5 0,-74.5 169.9648,-74.5 169.9648,-.5 0,-.5"/>
<text text-anchor="middle" x="84.9824" y="-62.5" font-family="Helvetica,sans-Serif" font-size="10.00" fill="#000000">Google_MyconfigServiceResource</text>
<polyline fill="none" stroke="#000000" points="0,-56.5 169.9648,-56.5 "/>
<text text-anchor="middle" x="84.9824" y="-44.5" font-family="Helvetica,sans-Serif" font-size="10.00" fill="#000000"> </text>
<polyline fill="none" stroke="#000000" points="0,-38.5 169.9648,-38.5 "/>
<text text-anchor="start" x="8" y="-26.5" font-family="Helvetica,sans-Serif" font-size="10.00" fill="#000000">+ releaseDownloadAccess()</text>
<text text-anchor="start" x="8" y="-16.5" font-family="Helvetica,sans-Serif" font-size="10.00" fill="#000000">+ requestAccess()</text>
<text text-anchor="start" x="8" y="-6.5" font-family="Helvetica,sans-Serif" font-size="10.00" fill="#000000">+ syncVolumeLicenses()</text>
</g>
<!-- Node3 -->
<g id="node2" class="node">
<title>Node3</title>
<g id="a_node2"><a xlink:href="class_google___service_resource.html" target="_top" xlink:title="{Google_ServiceResource\n||+ __construct()\l+ __call()\l+ useObjects()\l# stripNull()\l}">
<polygon fill="#ffffff" stroke="#000000" points="20.0073,-111.5 20.0073,-195.5 149.9575,-195.5 149.9575,-111.5 20.0073,-111.5"/>
<text text-anchor="middle" x="84.9824" y="-183.5" font-family="Helvetica,sans-Serif" font-size="10.00" fill="#000000">Google_ServiceResource</text>
<polyline fill="none" stroke="#000000" points="20.0073,-177.5 149.9575,-177.5 "/>
<text text-anchor="middle" x="84.9824" y="-165.5" font-family="Helvetica,sans-Serif" font-size="10.00" fill="#000000"> </text>
<polyline fill="none" stroke="#000000" points="20.0073,-159.5 149.9575,-159.5 "/>
<text text-anchor="start" x="28.0073" y="-147.5" font-family="Helvetica,sans-Serif" font-size="10.00" fill="#000000">+ __construct()</text>
<text text-anchor="start" x="28.0073" y="-137.5" font-family="Helvetica,sans-Serif" font-size="10.00" fill="#000000">+ __call()</text>
<text text-anchor="start" x="28.0073" y="-127.5" font-family="Helvetica,sans-Serif" font-size="10.00" fill="#000000">+ useObjects()</text>
<text text-anchor="start" x="28.0073" y="-117.5" font-family="Helvetica,sans-Serif" font-size="10.00" fill="#000000"># stripNull()</text>
</a>
</g>
</g>
<!-- Node3&#45;&gt;Node2 -->
<g id="edge1" class="edge">
<title>Node3&#45;&gt;Node2</title>
<path fill="none" stroke="#191970" d="M84.9824,-101.0572C84.9824,-92.2275 84.9824,-83.2244 84.9824,-74.8766"/>
<polygon fill="none" stroke="#191970" points="81.4825,-101.2932 84.9824,-111.2932 88.4825,-101.2932 81.4825,-101.2932"/>
</g>
</g>
</svg>
