<?xml version="1.0" encoding="UTF-8" standalone="no"?>
<!DOCTYPE svg PUBLIC "-//W3C//DTD SVG 1.1//EN"
 "http://www.w3.org/Graphics/SVG/1.1/DTD/svg11.dtd">
<!-- Generated by graphviz version 2.40.1 (20161225.0304)
 -->
<!-- Title: CKFinder_Connector_ErrorHandler_FileUpload Pages: 1 -->
<svg width="140pt" height="244pt"
 viewBox="0.00 0.00 140.17 244.00" xmlns="http://www.w3.org/2000/svg" xmlns:xlink="http://www.w3.org/1999/xlink">
<g id="graph0" class="graph" transform="scale(1 1) rotate(0) translate(4 240)">
<title>CKFinder_Connector_ErrorHandler_FileUpload</title>
<polygon fill="#ffffff" stroke="transparent" points="-4,4 -4,-240 136.167,-240 136.167,4 -4,4"/>
<!-- Node2 -->
<g id="node1" class="node">
<title>Node2</title>
<polygon fill="#bfbfbf" stroke="#000000" points="0,-.5 0,-74.5 132.167,-74.5 132.167,-.5 0,-.5"/>
<text text-anchor="start" x="8" y="-62.5" font-family="Helvetica,sans-Serif" font-size="10.00" fill="#000000">CKFinder_Connector</text>
<text text-anchor="middle" x="66.0835" y="-52.5" font-family="Helvetica,sans-Serif" font-size="10.00" fill="#000000">_ErrorHandler_FileUpload</text>
<polyline fill="none" stroke="#000000" points="0,-46.5 132.167,-46.5 "/>
<text text-anchor="middle" x="66.0835" y="-34.5" font-family="Helvetica,sans-Serif" font-size="10.00" fill="#000000"> </text>
<polyline fill="none" stroke="#000000" points="0,-28.5 132.167,-28.5 "/>
<text text-anchor="start" x="8" y="-16.5" font-family="Helvetica,sans-Serif" font-size="10.00" fill="#000000">+ throwError()</text>
<text text-anchor="start" x="8" y="-6.5" font-family="Helvetica,sans-Serif" font-size="10.00" fill="#000000">+ throwError()</text>
</g>
<!-- Node3 -->
<g id="node2" class="node">
<title>Node3</title>
<g id="a_node2"><a xlink:href="class_c_k_finder___connector___error_handler___base.html" target="_top" xlink:title="{CKFinder_Connector\l_ErrorHandler_Base\n|+ $_catchAllErrors\l+ $_skipErrorsArray\l|+ setCatchAllErros()\l+ setSkipErrorsArray()\l+ throwError()\l+ setCatchAllErros()\l+ setSkipErrorsArray()\l+ throwError()\l}">
<polygon fill="#ffffff" stroke="#000000" points="8.4912,-111.5 8.4912,-235.5 123.6758,-235.5 123.6758,-111.5 8.4912,-111.5"/>
<text text-anchor="start" x="16.4912" y="-223.5" font-family="Helvetica,sans-Serif" font-size="10.00" fill="#000000">CKFinder_Connector</text>
<text text-anchor="middle" x="66.0835" y="-213.5" font-family="Helvetica,sans-Serif" font-size="10.00" fill="#000000">_ErrorHandler_Base</text>
<polyline fill="none" stroke="#000000" points="8.4912,-207.5 123.6758,-207.5 "/>
<text text-anchor="start" x="16.4912" y="-195.5" font-family="Helvetica,sans-Serif" font-size="10.00" fill="#000000">+ $_catchAllErrors</text>
<text text-anchor="start" x="16.4912" y="-185.5" font-family="Helvetica,sans-Serif" font-size="10.00" fill="#000000">+ $_skipErrorsArray</text>
<polyline fill="none" stroke="#000000" points="8.4912,-179.5 123.6758,-179.5 "/>
<text text-anchor="start" x="16.4912" y="-167.5" font-family="Helvetica,sans-Serif" font-size="10.00" fill="#000000">+ setCatchAllErros()</text>
<text text-anchor="start" x="16.4912" y="-157.5" font-family="Helvetica,sans-Serif" font-size="10.00" fill="#000000">+ setSkipErrorsArray()</text>
<text text-anchor="start" x="16.4912" y="-147.5" font-family="Helvetica,sans-Serif" font-size="10.00" fill="#000000">+ throwError()</text>
<text text-anchor="start" x="16.4912" y="-137.5" font-family="Helvetica,sans-Serif" font-size="10.00" fill="#000000">+ setCatchAllErros()</text>
<text text-anchor="start" x="16.4912" y="-127.5" font-family="Helvetica,sans-Serif" font-size="10.00" fill="#000000">+ setSkipErrorsArray()</text>
<text text-anchor="start" x="16.4912" y="-117.5" font-family="Helvetica,sans-Serif" font-size="10.00" fill="#000000">+ throwError()</text>
</a>
</g>
</g>
<!-- Node3&#45;&gt;Node2 -->
<g id="edge1" class="edge">
<title>Node3&#45;&gt;Node2</title>
<path fill="none" stroke="#191970" d="M59.3444,-101.3955C59.394,-92.1182 59.6115,-82.9431 59.9972,-74.5643"/>
<polygon fill="none" stroke="#191970" points="55.8444,-101.474 59.3567,-111.4697 62.8444,-101.4654 55.8444,-101.474"/>
</g>
<!-- Node3&#45;&gt;Node2 -->
<g id="edge2" class="edge">
<title>Node3&#45;&gt;Node2</title>
<path fill="none" stroke="#191970" d="M72.8226,-101.3955C72.773,-92.1182 72.5555,-82.9431 72.1698,-74.5643"/>
<polygon fill="none" stroke="#191970" points="69.3226,-101.4654 72.8103,-111.4697 76.3226,-101.474 69.3226,-101.4654"/>
</g>
</g>
</svg>
