<?xml version="1.0" encoding="UTF-8" standalone="no"?>
<!DOCTYPE svg PUBLIC "-//W3C//DTD SVG 1.1//EN"
 "http://www.w3.org/Graphics/SVG/1.1/DTD/svg11.dtd">
<!-- Generated by graphviz version 2.40.1 (20161225.0304)
 -->
<!-- Title: loid Pages: 1 -->
<svg width="132pt" height="164pt"
 viewBox="0.00 0.00 131.84 164.00" xmlns="http://www.w3.org/2000/svg" xmlns:xlink="http://www.w3.org/1999/xlink">
<g id="graph0" class="graph" transform="scale(1 1) rotate(0) translate(4 160)">
<title>loid</title>
<polygon fill="#ffffff" stroke="transparent" points="-4,4 -4,-160 127.8418,-160 127.8418,4 -4,4"/>
<!-- Node0 -->
<g id="node1" class="node">
<title>Node0</title>
<polygon fill="#bfbfbf" stroke="#000000" points="36.8286,-.5 36.8286,-64.5 87.0132,-64.5 87.0132,-.5 36.8286,-.5"/>
<text text-anchor="middle" x="61.9209" y="-52.5" font-family="Helvetica,sans-Serif" font-size="10.00" fill="#000000">loid</text>
<polyline fill="none" stroke="#000000" points="36.8286,-46.5 87.0132,-46.5 "/>
<text text-anchor="middle" x="61.9209" y="-34.5" font-family="Helvetica,sans-Serif" font-size="10.00" fill="#000000"> </text>
<polyline fill="none" stroke="#000000" points="36.8286,-28.5 87.0132,-28.5 "/>
<text text-anchor="start" x="44.8286" y="-16.5" font-family="Helvetica,sans-Serif" font-size="10.00" fill="#000000">+ init()</text>
<text text-anchor="start" x="44.8286" y="-6.5" font-family="Helvetica,sans-Serif" font-size="10.00" fill="#000000">+ load()</text>
</g>
<!-- Node1 -->
<g id="node2" class="node">
<title>Node1</title>
<polygon fill="#ffffff" stroke="#bfbfbf" points="0,-101.5 0,-155.5 123.8418,-155.5 123.8418,-101.5 0,-101.5"/>
<text text-anchor="middle" x="61.9209" y="-143.5" font-family="Helvetica,sans-Serif" font-size="10.00" fill="#000000">CApplicationComponent</text>
<polyline fill="none" stroke="#bfbfbf" points="0,-137.5 123.8418,-137.5 "/>
<text text-anchor="middle" x="61.9209" y="-125.5" font-family="Helvetica,sans-Serif" font-size="10.00" fill="#000000"> </text>
<polyline fill="none" stroke="#bfbfbf" points="0,-119.5 123.8418,-119.5 "/>
<text text-anchor="middle" x="61.9209" y="-107.5" font-family="Helvetica,sans-Serif" font-size="10.00" fill="#000000"> </text>
</g>
<!-- Node1&#45;&gt;Node0 -->
<g id="edge1" class="edge">
<title>Node1&#45;&gt;Node0</title>
<path fill="none" stroke="#191970" d="M61.9209,-91.2276C61.9209,-82.4295 61.9209,-73.1248 61.9209,-64.5792"/>
<polygon fill="none" stroke="#191970" points="58.421,-91.247 61.9209,-101.247 65.421,-91.2471 58.421,-91.247"/>
</g>
</g>
</svg>
