<?xml version="1.0" encoding="UTF-8" standalone="no"?>
<!DOCTYPE svg PUBLIC "-//W3C//DTD SVG 1.1//EN"
 "http://www.w3.org/Graphics/SVG/1.1/DTD/svg11.dtd">
<!-- Generated by graphviz version 2.40.1 (20161225.0304)
 -->
<!-- Title: Графічна ієрархія класів Pages: 1 -->
<svg width="258pt" height="101pt"
 viewBox="0.00 0.00 258.33 101.00" xmlns="http://www.w3.org/2000/svg" xmlns:xlink="http://www.w3.org/1999/xlink">
<g id="graph0" class="graph" transform="scale(1 1) rotate(0) translate(4 97)">
<title>Графічна ієрархія класів</title>
<polygon fill="#ffffff" stroke="transparent" points="-4,4 -4,-97 254.334,-97 254.334,4 -4,4"/>
<!-- Node0 -->
<g id="node1" class="node">
<title>Node0</title>
<g id="a_node1"><a xlink:href="class_google___cache.html" target="_top" xlink:title="Google_Cache">
<polygon fill="#ffffff" stroke="#000000" points="0,-37.5 0,-55.5 82.7139,-55.5 82.7139,-37.5 0,-37.5"/>
<text text-anchor="middle" x="41.3569" y="-43.5" font-family="Helvetica,sans-Serif" font-size="10.00" fill="#000000">Google_Cache</text>
</a>
</g>
</g>
<!-- Node1 -->
<g id="node2" class="node">
<title>Node1</title>
<g id="a_node2"><a xlink:href="class_google___file_cache.html" target="_top" xlink:title="Google_FileCache">
<polygon fill="#ffffff" stroke="#000000" points="135.1104,-74.5 135.1104,-92.5 233.9375,-92.5 233.9375,-74.5 135.1104,-74.5"/>
<text text-anchor="middle" x="184.5239" y="-80.5" font-family="Helvetica,sans-Serif" font-size="10.00" fill="#000000">Google_FileCache</text>
</a>
</g>
</g>
<!-- Node0&#45;&gt;Node1 -->
<g id="edge1" class="edge">
<title>Node0&#45;&gt;Node1</title>
<path fill="none" stroke="#191970" d="M86.0835,-58.0591C106.4799,-63.3304 130.2788,-69.4809 149.3667,-74.414"/>
<polygon fill="#191970" stroke="#191970" points="86.9372,-54.6648 76.3795,-55.5512 85.1856,-61.4421 86.9372,-54.6648"/>
</g>
<!-- Node2 -->
<g id="node3" class="node">
<title>Node2</title>
<g id="a_node3"><a xlink:href="class_google___memcache_cache.html" target="_top" xlink:title="Google_MemcacheCache">
<polygon fill="#ffffff" stroke="#000000" points="118.7139,-37.5 118.7139,-55.5 250.334,-55.5 250.334,-37.5 118.7139,-37.5"/>
<text text-anchor="middle" x="184.5239" y="-43.5" font-family="Helvetica,sans-Serif" font-size="10.00" fill="#000000">Google_MemcacheCache</text>
</a>
</g>
</g>
<!-- Node0&#45;&gt;Node2 -->
<g id="edge2" class="edge">
<title>Node0&#45;&gt;Node2</title>
<path fill="none" stroke="#191970" d="M92.7758,-46.5C101.1738,-46.5 109.9749,-46.5 118.6629,-46.5"/>
<polygon fill="#191970" stroke="#191970" points="92.7668,-43.0001 82.7668,-46.5 92.7667,-50.0001 92.7668,-43.0001"/>
</g>
<!-- Node3 -->
<g id="node4" class="node">
<title>Node3</title>
<g id="a_node4"><a xlink:href="classgoogle_apc_cache.html" target="_top" xlink:title="googleApcCache">
<polygon fill="#ffffff" stroke="#000000" points="138.4404,-.5 138.4404,-18.5 230.6074,-18.5 230.6074,-.5 138.4404,-.5"/>
<text text-anchor="middle" x="184.5239" y="-6.5" font-family="Helvetica,sans-Serif" font-size="10.00" fill="#000000">googleApcCache</text>
</a>
</g>
</g>
<!-- Node0&#45;&gt;Node3 -->
<g id="edge3" class="edge">
<title>Node0&#45;&gt;Node3</title>
<path fill="none" stroke="#191970" d="M86.0835,-34.9409C106.4799,-29.6696 130.2788,-23.5191 149.3667,-18.586"/>
<polygon fill="#191970" stroke="#191970" points="85.1856,-31.5579 76.3795,-37.4488 86.9372,-38.3352 85.1856,-31.5579"/>
</g>
</g>
</svg>
