<?xml version="1.0" encoding="UTF-8" standalone="no"?>
<!DOCTYPE svg PUBLIC "-//W3C//DTD SVG 1.1//EN"
 "http://www.w3.org/Graphics/SVG/1.1/DTD/svg11.dtd">
<!-- Generated by graphviz version 2.40.1 (20161225.0304)
 -->
<!-- Title: Графічна ієрархія класів Pages: 1 -->
<svg width="210pt" height="360pt"
 viewBox="0.00 0.00 209.95 360.00" xmlns="http://www.w3.org/2000/svg" xmlns:xlink="http://www.w3.org/1999/xlink">
<g id="graph0" class="graph" transform="scale(1 1) rotate(0) translate(4 356)">
<title>Графічна ієрархія класів</title>
<polygon fill="#ffffff" stroke="transparent" points="-4,4 -4,-356 205.9453,-356 205.9453,4 -4,4"/>
<!-- Node1490 -->
<g id="node1" class="node">
<title>Node1490</title>
<polygon fill="#ffffff" stroke="#bfbfbf" points="0,-166.5 0,-184.5 54.3447,-184.5 54.3447,-166.5 0,-166.5"/>
<text text-anchor="middle" x="27.1724" y="-172.5" font-family="Helvetica,sans-Serif" font-size="10.00" fill="#000000">CWidget</text>
</g>
<!-- Node0 -->
<g id="node2" class="node">
<title>Node0</title>
<g id="a_node2"><a xlink:href="classcollection_widget.html" target="_top" xlink:title="collectionWidget">
<polygon fill="#ffffff" stroke="#000000" points="101.7388,-333.5 101.7388,-351.5 190.5513,-351.5 190.5513,-333.5 101.7388,-333.5"/>
<text text-anchor="middle" x="146.145" y="-339.5" font-family="Helvetica,sans-Serif" font-size="10.00" fill="#000000">collectionWidget</text>
</a>
</g>
</g>
<!-- Node1490&#45;&gt;Node0 -->
<g id="edge1" class="edge">
<title>Node1490&#45;&gt;Node0</title>
<path fill="none" stroke="#191970" d="M30.0968,-194.8451C35.8848,-226.4587 51.7552,-289.1994 90.3447,-324.5 94.4005,-328.2101 99.228,-331.1559 104.3213,-333.4948"/>
<polygon fill="#191970" stroke="#191970" points="33.5036,-193.9978 28.3971,-184.7148 26.6001,-195.1561 33.5036,-193.9978"/>
</g>
<!-- Node1492 -->
<g id="node3" class="node">
<title>Node1492</title>
<g id="a_node3"><a xlink:href="class_e_auth_redirect_widget.html" target="_top" xlink:title="EAuthRedirectWidget">
<polygon fill="#ffffff" stroke="#000000" points="90.3447,-296.5 90.3447,-314.5 201.9453,-314.5 201.9453,-296.5 90.3447,-296.5"/>
<text text-anchor="middle" x="146.145" y="-302.5" font-family="Helvetica,sans-Serif" font-size="10.00" fill="#000000">EAuthRedirectWidget</text>
</a>
</g>
</g>
<!-- Node1490&#45;&gt;Node1492 -->
<g id="edge2" class="edge">
<title>Node1490&#45;&gt;Node1492</title>
<path fill="none" stroke="#191970" d="M32.913,-194.2137C41.4714,-219.0524 59.9151,-262.6584 90.3447,-287.5 94.8393,-291.1692 100.0987,-294.0968 105.5596,-296.4312"/>
<polygon fill="#191970" stroke="#191970" points="36.1861,-192.9617 29.7561,-184.5412 29.5316,-195.1336 36.1861,-192.9617"/>
</g>
<!-- Node1493 -->
<g id="node4" class="node">
<title>Node1493</title>
<g id="a_node4"><a xlink:href="class_e_auth_widget.html" target="_top" xlink:title="EAuthWidget">
<polygon fill="#ffffff" stroke="#000000" points="108.9629,-259.5 108.9629,-277.5 183.3271,-277.5 183.3271,-259.5 108.9629,-259.5"/>
<text text-anchor="middle" x="146.145" y="-265.5" font-family="Helvetica,sans-Serif" font-size="10.00" fill="#000000">EAuthWidget</text>
</a>
</g>
</g>
<!-- Node1490&#45;&gt;Node1493 -->
<g id="edge3" class="edge">
<title>Node1490&#45;&gt;Node1493</title>
<path fill="none" stroke="#191970" d="M37.9085,-193.2635C49.036,-210.2506 67.9266,-235.4438 90.3447,-250.5 95.9219,-254.2457 102.3322,-257.2564 108.7754,-259.6621"/>
<polygon fill="#191970" stroke="#191970" points="40.8529,-191.3709 32.5522,-184.7869 34.9353,-195.1102 40.8529,-191.3709"/>
</g>
<!-- Node1494 -->
<g id="node5" class="node">
<title>Node1494</title>
<g id="a_node5"><a xlink:href="class_e_fancy_box.html" target="_top" xlink:title="EFancyBox">
<polygon fill="#ffffff" stroke="#000000" points="112.5786,-222.5 112.5786,-240.5 179.7114,-240.5 179.7114,-222.5 112.5786,-222.5"/>
<text text-anchor="middle" x="146.145" y="-228.5" font-family="Helvetica,sans-Serif" font-size="10.00" fill="#000000">EFancyBox</text>
</a>
</g>
</g>
<!-- Node1490&#45;&gt;Node1494 -->
<g id="edge4" class="edge">
<title>Node1490&#45;&gt;Node1494</title>
<path fill="none" stroke="#191970" d="M48.6258,-190.0925C60.548,-197.7636 75.8615,-206.9138 90.3447,-213.5 97.7575,-216.8709 105.9866,-219.8928 113.7978,-222.4547"/>
<polygon fill="#191970" stroke="#191970" points="50.519,-187.1485 40.2398,-184.5817 46.6747,-192.9985 50.519,-187.1485"/>
</g>
<!-- Node1495 -->
<g id="node6" class="node">
<title>Node1495</title>
<g id="a_node6"><a xlink:href="class_e_fine_uploader.html" target="_top" xlink:title="EFineUploader">
<polygon fill="#ffffff" stroke="#000000" points="104.793,-185.5 104.793,-203.5 187.4971,-203.5 187.4971,-185.5 104.793,-185.5"/>
<text text-anchor="middle" x="146.145" y="-191.5" font-family="Helvetica,sans-Serif" font-size="10.00" fill="#000000">EFineUploader</text>
</a>
</g>
</g>
<!-- Node1490&#45;&gt;Node1495 -->
<g id="edge5" class="edge">
<title>Node1490&#45;&gt;Node1495</title>
<path fill="none" stroke="#191970" d="M64.6778,-181.4896C77.3392,-183.5117 91.5466,-185.7806 104.508,-187.8506"/>
<polygon fill="#191970" stroke="#191970" points="64.8939,-177.9799 54.4671,-179.859 63.79,-184.8923 64.8939,-177.9799"/>
</g>
<!-- Node1496 -->
<g id="node7" class="node">
<title>Node1496</title>
<g id="a_node7"><a xlink:href="class_hole_sent.html" target="_top" xlink:title="HoleSent">
<polygon fill="#ffffff" stroke="#000000" points="117.5762,-148.5 117.5762,-166.5 174.7139,-166.5 174.7139,-148.5 117.5762,-148.5"/>
<text text-anchor="middle" x="146.145" y="-154.5" font-family="Helvetica,sans-Serif" font-size="10.00" fill="#000000">HoleSent</text>
</a>
</g>
</g>
<!-- Node1490&#45;&gt;Node1496 -->
<g id="edge6" class="edge">
<title>Node1490&#45;&gt;Node1496</title>
<path fill="none" stroke="#191970" d="M64.6426,-169.8309C81.6637,-167.2557 101.4846,-164.2569 117.3178,-161.8614"/>
<polygon fill="#191970" stroke="#191970" points="63.831,-166.4138 54.4671,-171.3704 64.8782,-173.335 63.831,-166.4138"/>
</g>
<!-- Node1497 -->
<g id="node8" class="node">
<title>Node1497</title>
<g id="a_node8"><a xlink:href="class_kyiv.html" target="_top" xlink:title="Kyiv">
<polygon fill="#ffffff" stroke="#000000" points="128.6992,-111.5 128.6992,-129.5 163.5908,-129.5 163.5908,-111.5 128.6992,-111.5"/>
<text text-anchor="middle" x="146.145" y="-117.5" font-family="Helvetica,sans-Serif" font-size="10.00" fill="#000000">Kyiv</text>
</a>
</g>
</g>
<!-- Node1490&#45;&gt;Node1497 -->
<g id="edge7" class="edge">
<title>Node1490&#45;&gt;Node1497</title>
<path fill="none" stroke="#191970" d="M50.0397,-161.0694C61.8038,-154.0095 76.5396,-145.716 90.3447,-139.5 102.7555,-133.9118 117.3319,-129.0017 128.4739,-125.5735"/>
<polygon fill="#191970" stroke="#191970" points="48.022,-158.2006 41.3167,-166.4036 51.6739,-164.1725 48.022,-158.2006"/>
</g>
<!-- Node1498 -->
<g id="node9" class="node">
<title>Node1498</title>
<g id="a_node9"><a xlink:href="classnews_widget.html" target="_top" xlink:title="newsWidget">
<polygon fill="#ffffff" stroke="#000000" points="110.9111,-74.5 110.9111,-92.5 181.3789,-92.5 181.3789,-74.5 110.9111,-74.5"/>
<text text-anchor="middle" x="146.145" y="-80.5" font-family="Helvetica,sans-Serif" font-size="10.00" fill="#000000">newsWidget</text>
</a>
</g>
</g>
<!-- Node1490&#45;&gt;Node1498 -->
<g id="edge8" class="edge">
<title>Node1490&#45;&gt;Node1498</title>
<path fill="none" stroke="#191970" d="M38.7456,-157.309C50.069,-140.8619 68.7317,-117.0594 90.3447,-102.5 96.5407,-98.3262 103.7403,-94.9878 110.8675,-92.3477"/>
<polygon fill="#191970" stroke="#191970" points="35.5785,-155.7512 32.9598,-166.0173 41.409,-159.625 35.5785,-155.7512"/>
</g>
<!-- Node1499 -->
<g id="node10" class="node">
<title>Node1499</title>
<g id="a_node10"><a xlink:href="class_poll01.html" target="_top" xlink:title="Poll01">
<polygon fill="#ffffff" stroke="#000000" points="124.2461,-37.5 124.2461,-55.5 168.0439,-55.5 168.0439,-37.5 124.2461,-37.5"/>
<text text-anchor="middle" x="146.145" y="-43.5" font-family="Helvetica,sans-Serif" font-size="10.00" fill="#000000">Poll01</text>
</a>
</g>
</g>
<!-- Node1490&#45;&gt;Node1499 -->
<g id="edge9" class="edge">
<title>Node1490&#45;&gt;Node1499</title>
<path fill="none" stroke="#191970" d="M33.1942,-156.8265C41.9779,-132.4487 60.5777,-90.0098 90.3447,-65.5 99.9831,-57.5639 113.1078,-52.8768 124.2069,-50.1443"/>
<polygon fill="#191970" stroke="#191970" points="29.863,-155.7512 29.9352,-166.3458 36.4856,-158.0186 29.863,-155.7512"/>
</g>
<!-- Node1500 -->
<g id="node11" class="node">
<title>Node1500</title>
<g id="a_node11"><a xlink:href="classsocial_widget.html" target="_top" xlink:title="socialWidget">
<polygon fill="#ffffff" stroke="#000000" points="109.8003,-.5 109.8003,-18.5 182.4897,-18.5 182.4897,-.5 109.8003,-.5"/>
<text text-anchor="middle" x="146.145" y="-6.5" font-family="Helvetica,sans-Serif" font-size="10.00" fill="#000000">socialWidget</text>
</a>
</g>
</g>
<!-- Node1490&#45;&gt;Node1500 -->
<g id="edge10" class="edge">
<title>Node1490&#45;&gt;Node1500</title>
<path fill="none" stroke="#191970" d="M30.2388,-156.4787C36.2318,-125.3819 52.3911,-63.6137 90.3447,-28.5 95.8284,-23.4266 102.7221,-19.7017 109.7756,-16.9687"/>
<polygon fill="#191970" stroke="#191970" points="26.7721,-155.9835 28.4693,-166.4415 33.6642,-157.2077 26.7721,-155.9835"/>
</g>
</g>
</svg>
