<?xml version="1.0" encoding="UTF-8" standalone="no"?>
<!DOCTYPE svg PUBLIC "-//W3C//DTD SVG 1.1//EN"
 "http://www.w3.org/Graphics/SVG/1.1/DTD/svg11.dtd">
<!-- Generated by graphviz version 2.40.1 (20161225.0304)
 -->
<!-- Title: Графічна ієрархія класів Pages: 1 -->
<svg width="223pt" height="101pt"
 viewBox="0.00 0.00 223.28 101.00" xmlns="http://www.w3.org/2000/svg" xmlns:xlink="http://www.w3.org/1999/xlink">
<g id="graph0" class="graph" transform="scale(1 1) rotate(0) translate(4 97)">
<title>Графічна ієрархія класів</title>
<polygon fill="#ffffff" stroke="transparent" points="-4,4 -4,-97 219.2754,-97 219.2754,4 -4,4"/>
<!-- Node1512 -->
<g id="node1" class="node">
<title>Node1512</title>
<polygon fill="#ffffff" stroke="#bfbfbf" points="0,-37.5 0,-55.5 76.5762,-55.5 76.5762,-37.5 0,-37.5"/>
<text text-anchor="middle" x="38.2881" y="-43.5" font-family="Helvetica,sans-Serif" font-size="10.00" fill="#000000">CUserIdentity</text>
</g>
<!-- Node0 -->
<g id="node2" class="node">
<title>Node0</title>
<g id="a_node2"><a xlink:href="class_service_user_identity.html" target="_top" xlink:title="ServiceUserIdentity">
<polygon fill="#ffffff" stroke="#000000" points="112.5762,-74.5 112.5762,-92.5 215.2754,-92.5 215.2754,-74.5 112.5762,-74.5"/>
<text text-anchor="middle" x="163.9258" y="-80.5" font-family="Helvetica,sans-Serif" font-size="10.00" fill="#000000">ServiceUserIdentity</text>
</a>
</g>
</g>
<!-- Node1512&#45;&gt;Node0 -->
<g id="edge1" class="edge">
<title>Node1512&#45;&gt;Node0</title>
<path fill="none" stroke="#191970" d="M79.0093,-58.4923C96.5736,-63.6649 116.7792,-69.6155 133.0732,-74.414"/>
<polygon fill="#191970" stroke="#191970" points="79.604,-55.0189 69.0225,-55.5512 77.6264,-61.7337 79.604,-55.0189"/>
</g>
<!-- Node1514 -->
<g id="node3" class="node">
<title>Node1514</title>
<g id="a_node3"><a xlink:href="class_user_groups_identity.html" target="_top" xlink:title="UserGroupsIdentity">
<polygon fill="#ffffff" stroke="#000000" points="112.8521,-37.5 112.8521,-55.5 214.9995,-55.5 214.9995,-37.5 112.8521,-37.5"/>
<text text-anchor="middle" x="163.9258" y="-43.5" font-family="Helvetica,sans-Serif" font-size="10.00" fill="#000000">UserGroupsIdentity</text>
</a>
</g>
</g>
<!-- Node1512&#45;&gt;Node1514 -->
<g id="edge2" class="edge">
<title>Node1512&#45;&gt;Node1514</title>
<path fill="none" stroke="#191970" d="M86.8276,-46.5C95.3455,-46.5 104.2333,-46.5 112.8185,-46.5"/>
<polygon fill="#191970" stroke="#191970" points="86.6662,-43.0001 76.6662,-46.5 86.6662,-50.0001 86.6662,-43.0001"/>
</g>
<!-- Node1515 -->
<g id="node4" class="node">
<title>Node1515</title>
<g id="a_node4"><a xlink:href="class_user_identity.html" target="_top" xlink:title="UserIdentity">
<polygon fill="#ffffff" stroke="#000000" points="129.2485,-.5 129.2485,-18.5 198.603,-18.5 198.603,-.5 129.2485,-.5"/>
<text text-anchor="middle" x="163.9258" y="-6.5" font-family="Helvetica,sans-Serif" font-size="10.00" fill="#000000">UserIdentity</text>
</a>
</g>
</g>
<!-- Node1512&#45;&gt;Node1515 -->
<g id="edge3" class="edge">
<title>Node1512&#45;&gt;Node1515</title>
<path fill="none" stroke="#191970" d="M79.0093,-34.5077C96.5736,-29.3351 116.7792,-23.3845 133.0732,-18.586"/>
<polygon fill="#191970" stroke="#191970" points="77.6264,-31.2663 69.0225,-37.4488 79.604,-37.9811 77.6264,-31.2663"/>
</g>
</g>
</svg>
