<?xml version="1.0" encoding="UTF-8" standalone="no"?>
<!DOCTYPE svg PUBLIC "-//W3C//DTD SVG 1.1//EN"
 "http://www.w3.org/Graphics/SVG/1.1/DTD/svg11.dtd">
<!-- Generated by graphviz version 2.40.1 (20161225.0304)
 -->
<!-- Title: Графічна ієрархія класів Pages: 1 -->
<svg width="236pt" height="286pt"
 viewBox="0.00 0.00 235.50 286.00" xmlns="http://www.w3.org/2000/svg" xmlns:xlink="http://www.w3.org/1999/xlink">
<g id="graph0" class="graph" transform="scale(1 1) rotate(0) translate(4 282)">
<title>Графічна ієрархія класів</title>
<polygon fill="#ffffff" stroke="transparent" points="-4,4 -4,-282 231.502,-282 231.502,4 -4,4"/>
<!-- Node1577 -->
<g id="node1" class="node">
<title>Node1577</title>
<polygon fill="#ffffff" stroke="#bfbfbf" points="0,-129.5 0,-147.5 73.7881,-147.5 73.7881,-129.5 0,-129.5"/>
<text text-anchor="middle" x="36.894" y="-135.5" font-family="Helvetica,sans-Serif" font-size="10.00" fill="#000000">CFormModel</text>
</g>
<!-- Node0 -->
<g id="node2" class="node">
<title>Node0</title>
<g id="a_node2"><a xlink:href="class_community_form.html" target="_top" xlink:title="CommunityForm">
<polygon fill="#ffffff" stroke="#000000" points="123.6968,-259.5 123.6968,-277.5 213.5933,-277.5 213.5933,-259.5 123.6968,-259.5"/>
<text text-anchor="middle" x="168.645" y="-265.5" font-family="Helvetica,sans-Serif" font-size="10.00" fill="#000000">CommunityForm</text>
</a>
</g>
</g>
<!-- Node1577&#45;&gt;Node0 -->
<g id="edge1" class="edge">
<title>Node1577&#45;&gt;Node0</title>
<path fill="none" stroke="#191970" d="M44.1074,-156.964C54.7568,-181.8405 77.0279,-225.837 109.7881,-250.5 114.654,-254.1632 120.2709,-257.0875 126.0632,-259.4204"/>
<polygon fill="#191970" stroke="#191970" points="47.2931,-155.5076 40.2582,-147.5854 40.8173,-158.1655 47.2931,-155.5076"/>
</g>
<!-- Node1579 -->
<g id="node3" class="node">
<title>Node1579</title>
<g id="a_node3"><a xlink:href="class_contact_form.html" target="_top" xlink:title="ContactForm">
<polygon fill="#ffffff" stroke="#000000" points="131.7485,-222.5 131.7485,-240.5 205.5415,-240.5 205.5415,-222.5 131.7485,-222.5"/>
<text text-anchor="middle" x="168.645" y="-228.5" font-family="Helvetica,sans-Serif" font-size="10.00" fill="#000000">ContactForm</text>
</a>
</g>
</g>
<!-- Node1577&#45;&gt;Node1579 -->
<g id="edge2" class="edge">
<title>Node1577&#45;&gt;Node1579</title>
<path fill="none" stroke="#191970" d="M49.4747,-155.813C62.6917,-172.8175 84.9789,-198.3502 109.7881,-213.5 116.4453,-217.5653 124.0918,-220.7757 131.6219,-223.2883"/>
<polygon fill="#191970" stroke="#191970" points="52.2429,-153.6708 43.4245,-147.7983 46.656,-157.8883 52.2429,-153.6708"/>
</g>
<!-- Node1580 -->
<g id="node4" class="node">
<title>Node1580</title>
<g id="a_node4"><a xlink:href="class_hole.html" target="_top" xlink:title="Hole">
<polygon fill="#ffffff" stroke="#000000" points="150.3618,-185.5 150.3618,-203.5 186.9282,-203.5 186.9282,-185.5 150.3618,-185.5"/>
<text text-anchor="middle" x="168.645" y="-191.5" font-family="Helvetica,sans-Serif" font-size="10.00" fill="#000000">Hole</text>
</a>
</g>
</g>
<!-- Node1577&#45;&gt;Node1580 -->
<g id="edge3" class="edge">
<title>Node1577&#45;&gt;Node1580</title>
<path fill="none" stroke="#191970" d="M61.0735,-152.5361C75.0153,-160.2627 93.0481,-169.645 109.7881,-176.5 123.0386,-181.9261 138.5435,-186.6035 150.3122,-189.8293"/>
<polygon fill="#191970" stroke="#191970" points="62.5716,-149.3629 52.1413,-147.5029 59.1352,-155.4614 62.5716,-149.3629"/>
</g>
<!-- Node1581 -->
<g id="node5" class="node">
<title>Node1581</title>
<g id="a_node5"><a xlink:href="class_hole_request_form.html" target="_top" xlink:title="HoleRequestForm">
<polygon fill="#ffffff" stroke="#000000" points="120.0737,-148.5 120.0737,-166.5 217.2163,-166.5 217.2163,-148.5 120.0737,-148.5"/>
<text text-anchor="middle" x="168.645" y="-154.5" font-family="Helvetica,sans-Serif" font-size="10.00" fill="#000000">HoleRequestForm</text>
</a>
</g>
</g>
<!-- Node1577&#45;&gt;Node1581 -->
<g id="edge4" class="edge">
<title>Node1577&#45;&gt;Node1581</title>
<path fill="none" stroke="#191970" d="M83.9765,-145.2898C95.693,-146.9795 108.2752,-148.794 120.0624,-150.4938"/>
<polygon fill="#191970" stroke="#191970" points="84.3419,-141.8064 73.9446,-143.8431 83.3427,-148.7347 84.3419,-141.8064"/>
</g>
<!-- Node1582 -->
<g id="node6" class="node">
<title>Node1582</title>
<g id="a_node6"><a xlink:href="class_login_form.html" target="_top" xlink:title="LoginForm">
<polygon fill="#ffffff" stroke="#000000" points="136.7461,-111.5 136.7461,-129.5 200.5439,-129.5 200.5439,-111.5 136.7461,-111.5"/>
<text text-anchor="middle" x="168.645" y="-117.5" font-family="Helvetica,sans-Serif" font-size="10.00" fill="#000000">LoginForm</text>
</a>
</g>
</g>
<!-- Node1577&#45;&gt;Node1582 -->
<g id="edge5" class="edge">
<title>Node1577&#45;&gt;Node1582</title>
<path fill="none" stroke="#191970" d="M83.9123,-132.0763C101.286,-129.7027 120.5707,-127.068 136.3479,-124.9125"/>
<polygon fill="#191970" stroke="#191970" points="83.3788,-128.6166 73.9446,-133.4381 84.3264,-135.5522 83.3788,-128.6166"/>
</g>
<!-- Node1583 -->
<g id="node7" class="node">
<title>Node1583</title>
<g id="a_node7"><a xlink:href="class_picture_files.html" target="_top" xlink:title="PictureFiles">
<polygon fill="#ffffff" stroke="#000000" points="134.5269,-74.5 134.5269,-92.5 202.7632,-92.5 202.7632,-74.5 134.5269,-74.5"/>
<text text-anchor="middle" x="168.645" y="-80.5" font-family="Helvetica,sans-Serif" font-size="10.00" fill="#000000">PictureFiles</text>
</a>
</g>
</g>
<!-- Node1577&#45;&gt;Node1583 -->
<g id="edge6" class="edge">
<title>Node1577&#45;&gt;Node1583</title>
<path fill="none" stroke="#191970" d="M62.2815,-124.8187C76.1035,-117.6632 93.636,-109.0544 109.7881,-102.5 118.7426,-98.8663 128.6755,-95.4392 137.792,-92.5226"/>
<polygon fill="#191970" stroke="#191970" points="60.5956,-121.7507 53.3678,-129.4973 63.8489,-127.9488 60.5956,-121.7507"/>
</g>
<!-- Node1584 -->
<g id="node8" class="node">
<title>Node1584</title>
<g id="a_node8"><a xlink:href="class_request_form.html" target="_top" xlink:title="RequestForm">
<polygon fill="#ffffff" stroke="#000000" points="130.3569,-37.5 130.3569,-55.5 206.9331,-55.5 206.9331,-37.5 130.3569,-37.5"/>
<text text-anchor="middle" x="168.645" y="-43.5" font-family="Helvetica,sans-Serif" font-size="10.00" fill="#000000">RequestForm</text>
</a>
</g>
</g>
<!-- Node1577&#45;&gt;Node1584 -->
<g id="edge7" class="edge">
<title>Node1577&#45;&gt;Node1584</title>
<path fill="none" stroke="#191970" d="M50.4222,-120.7577C63.839,-104.2896 85.8136,-80.1722 109.7881,-65.5 116.3822,-61.4645 123.9228,-58.196 131.3559,-55.5823"/>
<polygon fill="#191970" stroke="#191970" points="47.3517,-118.9976 43.8905,-129.0112 52.8408,-123.3416 47.3517,-118.9976"/>
</g>
<!-- Node1585 -->
<g id="node9" class="node">
<title>Node1585</title>
<g id="a_node9"><a xlink:href="class_user_groups_installation.html" target="_top" xlink:title="UserGroupsInstallation">
<polygon fill="#ffffff" stroke="#000000" points="109.7881,-.5 109.7881,-18.5 227.502,-18.5 227.502,-.5 109.7881,-.5"/>
<text text-anchor="middle" x="168.645" y="-6.5" font-family="Helvetica,sans-Serif" font-size="10.00" fill="#000000">UserGroupsInstallation</text>
</a>
</g>
</g>
<!-- Node1577&#45;&gt;Node1585 -->
<g id="edge8" class="edge">
<title>Node1577&#45;&gt;Node1585</title>
<path fill="none" stroke="#191970" d="M44.412,-120.074C55.2876,-95.6606 77.6852,-52.8495 109.7881,-28.5 115.2633,-24.3471 121.6794,-21.0832 128.2239,-18.5233"/>
<polygon fill="#191970" stroke="#191970" points="41.1791,-118.7325 40.4617,-129.303 47.6144,-121.487 41.1791,-118.7325"/>
</g>
</g>
</svg>
