<?xml version="1.0" encoding="UTF-8" standalone="no"?>
<!DOCTYPE svg PUBLIC "-//W3C//DTD SVG 1.1//EN"
 "http://www.w3.org/Graphics/SVG/1.1/DTD/svg11.dtd">
<!-- Generated by graphviz version 2.40.1 (20161225.0304)
 -->
<!-- Title: Графічна ієрархія класів Pages: 1 -->
<svg width="646pt" height="195pt"
 viewBox="0.00 0.00 646.16 195.00" xmlns="http://www.w3.org/2000/svg" xmlns:xlink="http://www.w3.org/1999/xlink">
<g id="graph0" class="graph" transform="scale(1 1) rotate(0) translate(4 191)">
<title>Графічна ієрархія класів</title>
<polygon fill="#ffffff" stroke="transparent" points="-4,4 -4,-191 642.1572,-191 642.1572,4 -4,4"/>
<!-- Node32 -->
<g id="node1" class="node">
<title>Node32</title>
<g id="a_node1"><a xlink:href="interface_swift___transport.html" target="_top" xlink:title="Swift_Transport">
<polygon fill="#ffffff" stroke="#000000" points="0,-70.5 0,-88.5 85.6582,-88.5 85.6582,-70.5 0,-70.5"/>
<text text-anchor="middle" x="42.8291" y="-76.5" font-family="Helvetica,sans-Serif" font-size="10.00" fill="#000000">Swift_Transport</text>
</a>
</g>
</g>
<!-- Node33 -->
<g id="node2" class="node">
<title>Node33</title>
<g id="a_node2"><a xlink:href="class_swift___transport___abstract_smtp_transport.html" target="_top" xlink:title="Swift_Transport_Abstract\lSmtpTransport">
<polygon fill="#ffffff" stroke="#000000" points="135.291,-121.5 135.291,-149.5 263.1904,-149.5 263.1904,-121.5 135.291,-121.5"/>
<text text-anchor="start" x="143.291" y="-137.5" font-family="Helvetica,sans-Serif" font-size="10.00" fill="#000000">Swift_Transport_Abstract</text>
<text text-anchor="middle" x="199.2407" y="-127.5" font-family="Helvetica,sans-Serif" font-size="10.00" fill="#000000">SmtpTransport</text>
</a>
</g>
</g>
<!-- Node32&#45;&gt;Node33 -->
<g id="edge1" class="edge">
<title>Node32&#45;&gt;Node33</title>
<path fill="none" stroke="#191970" d="M77.8771,-92.0482C102.2486,-100.774 134.7614,-112.4145 160.0009,-121.451"/>
<polygon fill="#191970" stroke="#191970" points="78.902,-88.6977 68.3074,-88.622 76.5424,-95.288 78.902,-88.6977"/>
</g>
<!-- Node36 -->
<g id="node7" class="node">
<title>Node36</title>
<g id="a_node7"><a xlink:href="class_swift___transport___load_balanced_transport.html" target="_top" xlink:title="Swift_Transport_LoadBalanced\lTransport">
<polygon fill="#ffffff" stroke="#000000" points="121.6582,-65.5 121.6582,-93.5 276.8232,-93.5 276.8232,-65.5 121.6582,-65.5"/>
<text text-anchor="start" x="129.6582" y="-81.5" font-family="Helvetica,sans-Serif" font-size="10.00" fill="#000000">Swift_Transport_LoadBalanced</text>
<text text-anchor="middle" x="199.2407" y="-71.5" font-family="Helvetica,sans-Serif" font-size="10.00" fill="#000000">Transport</text>
</a>
</g>
</g>
<!-- Node32&#45;&gt;Node36 -->
<g id="edge6" class="edge">
<title>Node32&#45;&gt;Node36</title>
<path fill="none" stroke="#191970" d="M96.0876,-79.5C104.2606,-79.5 112.8396,-79.5 121.4126,-79.5"/>
<polygon fill="#191970" stroke="#191970" points="95.9833,-76.0001 85.9833,-79.5 95.9833,-83.0001 95.9833,-76.0001"/>
</g>
<!-- Node40 -->
<g id="node11" class="node">
<title>Node40</title>
<g id="a_node11"><a xlink:href="class_swift___transport___mail_transport.html" target="_top" xlink:title="Swift_Transport_MailTransport">
<polygon fill="#ffffff" stroke="#000000" points="123.25,-10.5 123.25,-28.5 275.2314,-28.5 275.2314,-10.5 123.25,-10.5"/>
<text text-anchor="middle" x="199.2407" y="-16.5" font-family="Helvetica,sans-Serif" font-size="10.00" fill="#000000">Swift_Transport_MailTransport</text>
</a>
</g>
</g>
<!-- Node32&#45;&gt;Node40 -->
<g id="edge10" class="edge">
<title>Node32&#45;&gt;Node40</title>
<path fill="none" stroke="#191970" d="M76.1887,-66.7032C106.1339,-55.2161 149.3293,-38.6462 175.7741,-28.5019"/>
<polygon fill="#191970" stroke="#191970" points="74.6677,-63.5379 66.5847,-70.3873 77.1749,-70.0735 74.6677,-63.5379"/>
</g>
<!-- Node1 -->
<g id="node3" class="node">
<title>Node1</title>
<g id="a_node3"><a xlink:href="class_swift___transport___esmtp_transport.html" target="_top" xlink:title="Swift_Transport_EsmtpTransport">
<polygon fill="#ffffff" stroke="#000000" points="312.8232,-168.5 312.8232,-186.5 474.8096,-186.5 474.8096,-168.5 312.8232,-168.5"/>
<text text-anchor="middle" x="393.8164" y="-174.5" font-family="Helvetica,sans-Serif" font-size="10.00" fill="#000000">Swift_Transport_EsmtpTransport</text>
</a>
</g>
</g>
<!-- Node33&#45;&gt;Node1 -->
<g id="edge2" class="edge">
<title>Node33&#45;&gt;Node1</title>
<path fill="none" stroke="#191970" d="M273.2781,-151.4813C299.8789,-157.2232 328.9432,-163.4968 351.8663,-168.4449"/>
<polygon fill="#191970" stroke="#191970" points="273.735,-147.9994 263.2216,-149.3105 272.2579,-154.8418 273.735,-147.9994"/>
</g>
<!-- Node34 -->
<g id="node5" class="node">
<title>Node34</title>
<g id="a_node5"><a xlink:href="class_swift___transport___sendmail_transport.html" target="_top" xlink:title="Swift_Transport_Sendmail\lTransport">
<polygon fill="#ffffff" stroke="#000000" points="327.3618,-121.5 327.3618,-149.5 460.271,-149.5 460.271,-121.5 327.3618,-121.5"/>
<text text-anchor="start" x="335.3618" y="-137.5" font-family="Helvetica,sans-Serif" font-size="10.00" fill="#000000">Swift_Transport_Sendmail</text>
<text text-anchor="middle" x="393.8164" y="-127.5" font-family="Helvetica,sans-Serif" font-size="10.00" fill="#000000">Transport</text>
</a>
</g>
</g>
<!-- Node33&#45;&gt;Node34 -->
<g id="edge4" class="edge">
<title>Node33&#45;&gt;Node34</title>
<path fill="none" stroke="#191970" d="M273.4693,-135.5C291.1171,-135.5 309.8391,-135.5 327.1262,-135.5"/>
<polygon fill="#191970" stroke="#191970" points="273.2216,-132.0001 263.2216,-135.5 273.2215,-139.0001 273.2216,-132.0001"/>
</g>
<!-- Node2 -->
<g id="node4" class="node">
<title>Node2</title>
<g id="a_node4"><a xlink:href="class_swift___smtp_transport.html" target="_top" xlink:title="Swift_SmtpTransport">
<polygon fill="#ffffff" stroke="#000000" points="519.9844,-168.5 519.9844,-186.5 628.9824,-186.5 628.9824,-168.5 519.9844,-168.5"/>
<text text-anchor="middle" x="574.4834" y="-174.5" font-family="Helvetica,sans-Serif" font-size="10.00" fill="#000000">Swift_SmtpTransport</text>
</a>
</g>
</g>
<!-- Node1&#45;&gt;Node2 -->
<g id="edge3" class="edge">
<title>Node1&#45;&gt;Node2</title>
<path fill="none" stroke="#191970" d="M484.9068,-177.5C496.8345,-177.5 508.7446,-177.5 519.8053,-177.5"/>
<polygon fill="#191970" stroke="#191970" points="484.9017,-174.0001 474.9016,-177.5 484.9016,-181.0001 484.9017,-174.0001"/>
</g>
<!-- Node35 -->
<g id="node6" class="node">
<title>Node35</title>
<g id="a_node6"><a xlink:href="class_swift___sendmail_transport.html" target="_top" xlink:title="Swift_SendmailTransport">
<polygon fill="#ffffff" stroke="#000000" points="510.8096,-126.5 510.8096,-144.5 638.1572,-144.5 638.1572,-126.5 510.8096,-126.5"/>
<text text-anchor="middle" x="574.4834" y="-132.5" font-family="Helvetica,sans-Serif" font-size="10.00" fill="#000000">Swift_SendmailTransport</text>
</a>
</g>
</g>
<!-- Node34&#45;&gt;Node35 -->
<g id="edge5" class="edge">
<title>Node34&#45;&gt;Node35</title>
<path fill="none" stroke="#191970" d="M470.4339,-135.5C483.7897,-135.5 497.5551,-135.5 510.5253,-135.5"/>
<polygon fill="#191970" stroke="#191970" points="470.3205,-132.0001 460.3204,-135.5 470.3204,-139.0001 470.3205,-132.0001"/>
</g>
<!-- Node37 -->
<g id="node8" class="node">
<title>Node37</title>
<g id="a_node8"><a xlink:href="class_swift___load_balanced_transport.html" target="_top" xlink:title="Swift_LoadBalancedTransport">
<polygon fill="#ffffff" stroke="#000000" points="319.0146,-84.5 319.0146,-102.5 468.6182,-102.5 468.6182,-84.5 319.0146,-84.5"/>
<text text-anchor="middle" x="393.8164" y="-90.5" font-family="Helvetica,sans-Serif" font-size="10.00" fill="#000000">Swift_LoadBalancedTransport</text>
</a>
</g>
</g>
<!-- Node36&#45;&gt;Node37 -->
<g id="edge7" class="edge">
<title>Node36&#45;&gt;Node37</title>
<path fill="none" stroke="#191970" d="M287.0585,-85.8186C297.6347,-86.5796 308.3617,-87.3514 318.733,-88.0976"/>
<polygon fill="#191970" stroke="#191970" points="287.2065,-82.3203 276.981,-85.0935 286.704,-89.3023 287.2065,-82.3203"/>
</g>
<!-- Node38 -->
<g id="node9" class="node">
<title>Node38</title>
<g id="a_node9"><a xlink:href="class_swift___transport___failover_transport.html" target="_top" xlink:title="Swift_Transport_Failover\lTransport">
<polygon fill="#ffffff" stroke="#000000" points="330.4233,-37.5 330.4233,-65.5 457.2095,-65.5 457.2095,-37.5 330.4233,-37.5"/>
<text text-anchor="start" x="338.4233" y="-53.5" font-family="Helvetica,sans-Serif" font-size="10.00" fill="#000000">Swift_Transport_Failover</text>
<text text-anchor="middle" x="393.8164" y="-43.5" font-family="Helvetica,sans-Serif" font-size="10.00" fill="#000000">Transport</text>
</a>
</g>
</g>
<!-- Node36&#45;&gt;Node38 -->
<g id="edge8" class="edge">
<title>Node36&#45;&gt;Node38</title>
<path fill="none" stroke="#191970" d="M287.0031,-66.8707C301.5693,-64.7746 316.423,-62.6371 330.2413,-60.6486"/>
<polygon fill="#191970" stroke="#191970" points="286.3805,-63.4242 276.981,-68.3129 287.3776,-70.3528 286.3805,-63.4242"/>
</g>
<!-- Node39 -->
<g id="node10" class="node">
<title>Node39</title>
<g id="a_node10"><a xlink:href="class_swift___failover_transport.html" target="_top" xlink:title="Swift_FailoverTransport">
<polygon fill="#ffffff" stroke="#000000" points="513.8711,-42.5 513.8711,-60.5 635.0957,-60.5 635.0957,-42.5 513.8711,-42.5"/>
<text text-anchor="middle" x="574.4834" y="-48.5" font-family="Helvetica,sans-Serif" font-size="10.00" fill="#000000">Swift_FailoverTransport</text>
</a>
</g>
</g>
<!-- Node38&#45;&gt;Node39 -->
<g id="edge9" class="edge">
<title>Node38&#45;&gt;Node39</title>
<path fill="none" stroke="#191970" d="M467.2616,-51.5C482.6621,-51.5 498.7416,-51.5 513.6228,-51.5"/>
<polygon fill="#191970" stroke="#191970" points="467.2588,-48.0001 457.2588,-51.5 467.2588,-55.0001 467.2588,-48.0001"/>
</g>
<!-- Node41 -->
<g id="node12" class="node">
<title>Node41</title>
<g id="a_node12"><a xlink:href="class_swift___mail_transport.html" target="_top" xlink:title="Swift_MailTransport">
<polygon fill="#ffffff" stroke="#000000" points="341.8198,-.5 341.8198,-18.5 445.813,-18.5 445.813,-.5 341.8198,-.5"/>
<text text-anchor="middle" x="393.8164" y="-6.5" font-family="Helvetica,sans-Serif" font-size="10.00" fill="#000000">Swift_MailTransport</text>
</a>
</g>
</g>
<!-- Node40&#45;&gt;Node41 -->
<g id="edge11" class="edge">
<title>Node40&#45;&gt;Node41</title>
<path fill="none" stroke="#191970" d="M285.5275,-15.0654C304.6227,-14.084 324.2906,-13.0732 341.5378,-12.1868"/>
<polygon fill="#191970" stroke="#191970" points="285.1119,-11.582 275.3047,-15.5908 285.4712,-18.5728 285.1119,-11.582"/>
</g>
<!-- Node0 -->
<g id="node13" class="node">
<title>Node0</title>
<g id="a_node13"><a xlink:href="interface_swift___transport___smtp_agent.html" target="_top" xlink:title="Swift_Transport_SmtpAgent">
<polygon fill="#ffffff" stroke="#000000" points="128.8945,-168.5 128.8945,-186.5 269.5869,-186.5 269.5869,-168.5 128.8945,-168.5"/>
<text text-anchor="middle" x="199.2407" y="-174.5" font-family="Helvetica,sans-Serif" font-size="10.00" fill="#000000">Swift_Transport_SmtpAgent</text>
</a>
</g>
</g>
<!-- Node0&#45;&gt;Node1 -->
<g id="edge12" class="edge">
<title>Node0&#45;&gt;Node1</title>
<path fill="none" stroke="#191970" d="M279.9982,-177.5C290.7824,-177.5 301.8459,-177.5 312.6374,-177.5"/>
<polygon fill="#191970" stroke="#191970" points="279.7622,-174.0001 269.7621,-177.5 279.7621,-181.0001 279.7622,-174.0001"/>
</g>
</g>
</svg>
