<?xml version="1.0" encoding="UTF-8" standalone="no"?>
<!DOCTYPE svg PUBLIC "-//W3C//DTD SVG 1.1//EN"
 "http://www.w3.org/Graphics/SVG/1.1/DTD/svg11.dtd">
<!-- Generated by graphviz version 2.40.1 (20161225.0304)
 -->
<!-- Title: Графічна ієрархія класів Pages: 1 -->
<svg width="203pt" height="101pt"
 viewBox="0.00 0.00 203.48 101.00" xmlns="http://www.w3.org/2000/svg" xmlns:xlink="http://www.w3.org/1999/xlink">
<g id="graph0" class="graph" transform="scale(1 1) rotate(0) translate(4 97)">
<title>Графічна ієрархія класів</title>
<polygon fill="#ffffff" stroke="transparent" points="-4,4 -4,-97 199.4805,-97 199.4805,4 -4,4"/>
<!-- Node1586 -->
<g id="node1" class="node">
<title>Node1586</title>
<polygon fill="#ffffff" stroke="#bfbfbf" points="0,-37.5 0,-55.5 67.1377,-55.5 67.1377,-37.5 0,-37.5"/>
<text text-anchor="middle" x="33.5688" y="-43.5" font-family="Helvetica,sans-Serif" font-size="10.00" fill="#000000">CException</text>
</g>
<!-- Node0 -->
<g id="node2" class="node">
<title>Node0</title>
<g id="a_node2"><a xlink:href="class_e_auth_exception.html" target="_top" xlink:title="EAuthException">
<polygon fill="#ffffff" stroke="#000000" points="105.7305,-74.5 105.7305,-92.5 192.8877,-92.5 192.8877,-74.5 105.7305,-74.5"/>
<text text-anchor="middle" x="149.3091" y="-80.5" font-family="Helvetica,sans-Serif" font-size="10.00" fill="#000000">EAuthException</text>
</a>
</g>
</g>
<!-- Node1586&#45;&gt;Node0 -->
<g id="edge1" class="edge">
<title>Node1586&#45;&gt;Node0</title>
<path fill="none" stroke="#191970" d="M71.5364,-58.6375C87.6103,-63.7761 106.0169,-69.6603 120.887,-74.414"/>
<polygon fill="#191970" stroke="#191970" points="72.473,-55.2625 61.8821,-55.5512 70.3414,-61.9301 72.473,-55.2625"/>
</g>
<!-- Node1588 -->
<g id="node3" class="node">
<title>Node1588</title>
<g id="a_node3"><a xlink:href="class_e_yii_pdf_exception.html" target="_top" xlink:title="EYiiPdfException">
<polygon fill="#ffffff" stroke="#000000" points="103.1377,-37.5 103.1377,-55.5 195.4805,-55.5 195.4805,-37.5 103.1377,-37.5"/>
<text text-anchor="middle" x="149.3091" y="-43.5" font-family="Helvetica,sans-Serif" font-size="10.00" fill="#000000">EYiiPdfException</text>
</a>
</g>
</g>
<!-- Node1586&#45;&gt;Node1588 -->
<g id="edge2" class="edge">
<title>Node1586&#45;&gt;Node1588</title>
<path fill="none" stroke="#191970" d="M77.5455,-46.5C85.8016,-46.5 94.4588,-46.5 102.7894,-46.5"/>
<polygon fill="#191970" stroke="#191970" points="77.3569,-43.0001 67.3569,-46.5 77.3568,-50.0001 77.3569,-43.0001"/>
</g>
<!-- Node1589 -->
<g id="node4" class="node">
<title>Node1589</title>
<g id="a_node4"><a xlink:href="class_o_auth_exception.html" target="_top" xlink:title="OAuthException">
<polygon fill="#ffffff" stroke="#000000" points="105.1763,-.5 105.1763,-18.5 193.4419,-18.5 193.4419,-.5 105.1763,-.5"/>
<text text-anchor="middle" x="149.3091" y="-6.5" font-family="Helvetica,sans-Serif" font-size="10.00" fill="#000000">OAuthException</text>
</a>
</g>
</g>
<!-- Node1586&#45;&gt;Node1589 -->
<g id="edge3" class="edge">
<title>Node1586&#45;&gt;Node1589</title>
<path fill="none" stroke="#191970" d="M71.5364,-34.3625C87.6103,-29.2239 106.0169,-23.3397 120.887,-18.586"/>
<polygon fill="#191970" stroke="#191970" points="70.3414,-31.0699 61.8821,-37.4488 72.473,-37.7375 70.3414,-31.0699"/>
</g>
</g>
</svg>
