<?xml version="1.0" encoding="UTF-8" standalone="no"?>
<!DOCTYPE svg PUBLIC "-//W3C//DTD SVG 1.1//EN"
 "http://www.w3.org/Graphics/SVG/1.1/DTD/svg11.dtd">
<!-- Generated by graphviz version 2.40.1 (20161225.0304)
 -->
<!-- Title: Графічна ієрархія класів Pages: 1 -->
<svg width="223pt" height="64pt"
 viewBox="0.00 0.00 223.11 64.00" xmlns="http://www.w3.org/2000/svg" xmlns:xlink="http://www.w3.org/1999/xlink">
<g id="graph0" class="graph" transform="scale(1 1) rotate(0) translate(4 60)">
<title>Графічна ієрархія класів</title>
<polygon fill="#ffffff" stroke="transparent" points="-4,4 -4,-60 219.1094,-60 219.1094,4 -4,4"/>
<!-- Node1503 -->
<g id="node1" class="node">
<title>Node1503</title>
<polygon fill="#ffffff" stroke="#bfbfbf" points="0,-18.5 0,-36.5 76.4053,-36.5 76.4053,-18.5 0,-18.5"/>
<text text-anchor="middle" x="38.2026" y="-24.5" font-family="Helvetica,sans-Serif" font-size="10.00" fill="#000000">CWebModule</text>
</g>
<!-- Node0 -->
<g id="node2" class="node">
<title>Node0</title>
<g id="a_node2"><a xlink:href="class_comments_module.html" target="_top" xlink:title="CommentsModule">
<polygon fill="#ffffff" stroke="#000000" points="115.186,-37.5 115.186,-55.5 212.3286,-55.5 212.3286,-37.5 115.186,-37.5"/>
<text text-anchor="middle" x="163.7573" y="-43.5" font-family="Helvetica,sans-Serif" font-size="10.00" fill="#000000">CommentsModule</text>
</a>
</g>
</g>
<!-- Node1503&#45;&gt;Node0 -->
<g id="edge1" class="edge">
<title>Node1503&#45;&gt;Node0</title>
<path fill="none" stroke="#191970" d="M86.4722,-34.8046C95.8139,-36.2182 105.6092,-37.7005 114.9675,-39.1167"/>
<polygon fill="#191970" stroke="#191970" points="86.9666,-31.3396 76.5554,-33.3039 85.9191,-38.2608 86.9666,-31.3396"/>
</g>
<!-- Node1505 -->
<g id="node3" class="node">
<title>Node1505</title>
<g id="a_node3"><a xlink:href="class_user_groups_module.html" target="_top" xlink:title="UserGroupsModule">
<polygon fill="#ffffff" stroke="#000000" points="112.4053,-.5 112.4053,-18.5 215.1094,-18.5 215.1094,-.5 112.4053,-.5"/>
<text text-anchor="middle" x="163.7573" y="-6.5" font-family="Helvetica,sans-Serif" font-size="10.00" fill="#000000">UserGroupsModule</text>
</a>
</g>
</g>
<!-- Node1503&#45;&gt;Node1505 -->
<g id="edge2" class="edge">
<title>Node1503&#45;&gt;Node1505</title>
<path fill="none" stroke="#191970" d="M86.5786,-20.5646C94.9794,-19.3603 103.7439,-18.1038 112.2252,-16.8878"/>
<polygon fill="#191970" stroke="#191970" points="85.9575,-17.1178 76.5554,-22.0016 86.9509,-24.047 85.9575,-17.1178"/>
</g>
</g>
</svg>
