<?xml version="1.0" encoding="UTF-8" standalone="no"?>
<!DOCTYPE svg PUBLIC "-//W3C//DTD SVG 1.1//EN"
 "http://www.w3.org/Graphics/SVG/1.1/DTD/svg11.dtd">
<!-- Generated by graphviz version 2.40.1 (20161225.0304)
 -->
<!-- Title: Графічна ієрархія класів Pages: 1 -->
<svg width="320pt" height="730pt"
 viewBox="0.00 0.00 319.74 730.00" xmlns="http://www.w3.org/2000/svg" xmlns:xlink="http://www.w3.org/1999/xlink">
<g id="graph0" class="graph" transform="scale(1 1) rotate(0) translate(4 726)">
<title>Графічна ієрархія класів</title>
<polygon fill="#ffffff" stroke="transparent" points="-4,4 -4,-726 315.7383,-726 315.7383,4 -4,4"/>
<!-- Node1590 -->
<g id="node1" class="node">
<title>Node1590</title>
<polygon fill="#ffffff" stroke="#bfbfbf" points="0,-351.5 0,-369.5 66.5713,-369.5 66.5713,-351.5 0,-351.5"/>
<text text-anchor="middle" x="33.2856" y="-357.5" font-family="Helvetica,sans-Serif" font-size="10.00" fill="#000000">CController</text>
</g>
<!-- Node0 -->
<g id="node2" class="node">
<title>Node0</title>
<g id="a_node2"><a xlink:href="class_controller.html" target="_top" xlink:title="Controller">
<polygon fill="#ffffff" stroke="#000000" points="102.5713,-351.5 102.5713,-369.5 161.9209,-369.5 161.9209,-351.5 102.5713,-351.5"/>
<text text-anchor="middle" x="132.2461" y="-357.5" font-family="Helvetica,sans-Serif" font-size="10.00" fill="#000000">Controller</text>
</a>
</g>
</g>
<!-- Node1590&#45;&gt;Node0 -->
<g id="edge1" class="edge">
<title>Node1590&#45;&gt;Node0</title>
<path fill="none" stroke="#191970" d="M77.0617,-360.5C85.6353,-360.5 94.4404,-360.5 102.4289,-360.5"/>
<polygon fill="#191970" stroke="#191970" points="76.7892,-357.0001 66.7891,-360.5 76.7891,-364.0001 76.7892,-357.0001"/>
</g>
<!-- Node1 -->
<g id="node3" class="node">
<title>Node1</title>
<g id="a_node3"><a xlink:href="class_admin_controller.html" target="_top" xlink:title="AdminController">
<polygon fill="#ffffff" stroke="#000000" points="210.9824,-703.5 210.9824,-721.5 298.6768,-721.5 298.6768,-703.5 210.9824,-703.5"/>
<text text-anchor="middle" x="254.8296" y="-709.5" font-family="Helvetica,sans-Serif" font-size="10.00" fill="#000000">AdminController</text>
</a>
</g>
</g>
<!-- Node0&#45;&gt;Node1 -->
<g id="edge2" class="edge">
<title>Node0&#45;&gt;Node1</title>
<path fill="none" stroke="#191970" d="M133.5256,-380.1339C138.0971,-444.4238 155.6592,-647.2098 197.9209,-694.5 201.5115,-698.5178 205.9915,-701.6461 210.8513,-704.0804"/>
<polygon fill="#191970" stroke="#191970" points="136.9938,-379.5481 132.8201,-369.81 130.0101,-380.0253 136.9938,-379.5481"/>
</g>
<!-- Node2 -->
<g id="node4" class="node">
<title>Node2</title>
<g id="a_node4"><a xlink:href="class_authority_controller.html" target="_top" xlink:title="AuthorityController">
<polygon fill="#ffffff" stroke="#000000" points="205.4233,-666.5 205.4233,-684.5 304.2358,-684.5 304.2358,-666.5 205.4233,-666.5"/>
<text text-anchor="middle" x="254.8296" y="-672.5" font-family="Helvetica,sans-Serif" font-size="10.00" fill="#000000">AuthorityController</text>
</a>
</g>
</g>
<!-- Node0&#45;&gt;Node2 -->
<g id="edge3" class="edge">
<title>Node0&#45;&gt;Node2</title>
<path fill="none" stroke="#191970" d="M134.0224,-379.8568C139.8267,-439.051 160.0723,-616.1354 197.9209,-657.5 201.2786,-661.1696 205.3779,-664.0959 209.8226,-666.4287"/>
<polygon fill="#191970" stroke="#191970" points="137.4842,-379.2886 133.0531,-369.6649 130.5156,-379.9514 137.4842,-379.2886"/>
</g>
<!-- Node3 -->
<g id="node5" class="node">
<title>Node3</title>
<g id="a_node5"><a xlink:href="class_comment_controller.html" target="_top" xlink:title="CommentController">
<polygon fill="#ffffff" stroke="#000000" points="203.4824,-629.5 203.4824,-647.5 306.1768,-647.5 306.1768,-629.5 203.4824,-629.5"/>
<text text-anchor="middle" x="254.8296" y="-635.5" font-family="Helvetica,sans-Serif" font-size="10.00" fill="#000000">CommentController</text>
</a>
</g>
</g>
<!-- Node0&#45;&gt;Node3 -->
<g id="edge4" class="edge">
<title>Node0&#45;&gt;Node3</title>
<path fill="none" stroke="#191970" d="M134.6388,-379.5354C141.7648,-433.351 164.4527,-584.9994 197.9209,-620.5 201.404,-624.1946 205.6386,-627.1343 210.2095,-629.4728"/>
<polygon fill="#191970" stroke="#191970" points="138.1095,-379.0824 133.3561,-369.6137 131.1672,-379.9799 138.1095,-379.0824"/>
</g>
<!-- Node4 -->
<g id="node6" class="node">
<title>Node4</title>
<g id="a_node6"><a xlink:href="class_event_controller.html" target="_top" xlink:title="EventController">
<polygon fill="#ffffff" stroke="#000000" points="212.3691,-592.5 212.3691,-610.5 297.29,-610.5 297.29,-592.5 212.3691,-592.5"/>
<text text-anchor="middle" x="254.8296" y="-598.5" font-family="Helvetica,sans-Serif" font-size="10.00" fill="#000000">EventController</text>
</a>
</g>
</g>
<!-- Node0&#45;&gt;Node4 -->
<g id="edge5" class="edge">
<title>Node0&#45;&gt;Node4</title>
<path fill="none" stroke="#191970" d="M135.5129,-379.6359C144.1425,-428.0904 168.8881,-553.8827 197.9209,-583.5 201.9831,-587.644 206.9913,-590.8363 212.3372,-593.295"/>
<polygon fill="#191970" stroke="#191970" points="138.922,-378.8118 133.7542,-369.5628 132.0263,-380.0158 138.922,-378.8118"/>
</g>
<!-- Node5 -->
<g id="node7" class="node">
<title>Node5</title>
<g id="a_node7"><a xlink:href="class_holes_controller.html" target="_top" xlink:title="HolesController">
<polygon fill="#ffffff" stroke="#000000" points="212.3716,-555.5 212.3716,-573.5 297.2876,-573.5 297.2876,-555.5 212.3716,-555.5"/>
<text text-anchor="middle" x="254.8296" y="-561.5" font-family="Helvetica,sans-Serif" font-size="10.00" fill="#000000">HolesController</text>
</a>
</g>
</g>
<!-- Node0&#45;&gt;Node5 -->
<g id="edge6" class="edge">
<title>Node0&#45;&gt;Node5</title>
<path fill="none" stroke="#191970" d="M133.5381,-379.8527C137.0856,-417.3622 150.1881,-500.3209 197.9209,-546.5 202.017,-550.4628 206.9799,-553.5537 212.248,-555.9644"/>
<polygon fill="#191970" stroke="#191970" points="137.0165,-379.4448 132.7161,-369.762 130.0396,-380.0131 137.0165,-379.4448"/>
</g>
<!-- Node6 -->
<g id="node8" class="node">
<title>Node6</title>
<g id="a_node8"><a xlink:href="class_install_controller.html" target="_top" xlink:title="InstallController">
<polygon fill="#ffffff" stroke="#000000" points="212.0933,-518.5 212.0933,-536.5 297.5659,-536.5 297.5659,-518.5 212.0933,-518.5"/>
<text text-anchor="middle" x="254.8296" y="-524.5" font-family="Helvetica,sans-Serif" font-size="10.00" fill="#000000">InstallController</text>
</a>
</g>
</g>
<!-- Node0&#45;&gt;Node6 -->
<g id="edge7" class="edge">
<title>Node0&#45;&gt;Node6</title>
<path fill="none" stroke="#191970" d="M135.4966,-379.8832C141.8174,-411.5518 158.744,-474.3699 197.9209,-509.5 202.0098,-513.1666 206.8449,-516.0864 211.9419,-518.4117"/>
<polygon fill="#191970" stroke="#191970" points="138.8807,-378.9342 133.6262,-369.7341 131.9967,-380.2029 138.8807,-378.9342"/>
</g>
<!-- Node7 -->
<g id="node9" class="node">
<title>Node7</title>
<g id="a_node9"><a xlink:href="class_messengers_controller.html" target="_top" xlink:title="MessengersController">
<polygon fill="#ffffff" stroke="#000000" points="197.9209,-481.5 197.9209,-499.5 311.7383,-499.5 311.7383,-481.5 197.9209,-481.5"/>
<text text-anchor="middle" x="254.8296" y="-487.5" font-family="Helvetica,sans-Serif" font-size="10.00" fill="#000000">MessengersController</text>
</a>
</g>
</g>
<!-- Node0&#45;&gt;Node7 -->
<g id="edge8" class="edge">
<title>Node0&#45;&gt;Node7</title>
<path fill="none" stroke="#191970" d="M138.3988,-379.2448C147.5055,-404.1187 166.9159,-447.7644 197.9209,-472.5 202.5381,-476.1836 207.9205,-479.1192 213.4985,-481.4573"/>
<polygon fill="#191970" stroke="#191970" points="141.6202,-377.8522 135.0287,-369.5574 135.0089,-380.1522 141.6202,-377.8522"/>
</g>
<!-- Node8 -->
<g id="node10" class="node">
<title>Node8</title>
<g id="a_node10"><a xlink:href="class_migration_controller.html" target="_top" xlink:title="MigrationController">
<polygon fill="#ffffff" stroke="#000000" points="204.5908,-444.5 204.5908,-462.5 305.0684,-462.5 305.0684,-444.5 204.5908,-444.5"/>
<text text-anchor="middle" x="254.8296" y="-450.5" font-family="Helvetica,sans-Serif" font-size="10.00" fill="#000000">MigrationController</text>
</a>
</g>
</g>
<!-- Node0&#45;&gt;Node8 -->
<g id="edge9" class="edge">
<title>Node0&#45;&gt;Node8</title>
<path fill="none" stroke="#191970" d="M143.5492,-378.2785C155.2241,-395.277 174.9413,-420.4784 197.9209,-435.5 203.472,-439.1287 209.8044,-442.0681 216.1804,-444.436"/>
<polygon fill="#191970" stroke="#191970" points="146.3661,-376.1933 137.9209,-369.7956 140.5332,-380.0633 146.3661,-376.1933"/>
</g>
<!-- Node9 -->
<g id="node11" class="node">
<title>Node9</title>
<g id="a_node11"><a xlink:href="class_news_controller.html" target="_top" xlink:title="NewsController">
<polygon fill="#ffffff" stroke="#000000" points="212.6523,-407.5 212.6523,-425.5 297.0068,-425.5 297.0068,-407.5 212.6523,-407.5"/>
<text text-anchor="middle" x="254.8296" y="-413.5" font-family="Helvetica,sans-Serif" font-size="10.00" fill="#000000">NewsController</text>
</a>
</g>
</g>
<!-- Node0&#45;&gt;Node9 -->
<g id="edge10" class="edge">
<title>Node0&#45;&gt;Node9</title>
<path fill="none" stroke="#191970" d="M154.6083,-375.0743C167.0203,-382.74 182.9382,-391.8909 197.9209,-398.5 205.5057,-401.8458 213.9075,-404.8582 221.8749,-407.419"/>
<polygon fill="#191970" stroke="#191970" points="156.1998,-371.9402 145.8738,-369.5685 152.467,-377.8619 156.1998,-371.9402"/>
</g>
<!-- Node10 -->
<g id="node12" class="node">
<title>Node10</title>
<g id="a_node12"><a xlink:href="class_payments_controller.html" target="_top" xlink:title="PaymentsController">
<polygon fill="#ffffff" stroke="#000000" points="202.9233,-370.5 202.9233,-388.5 306.7358,-388.5 306.7358,-370.5 202.9233,-370.5"/>
<text text-anchor="middle" x="254.8296" y="-376.5" font-family="Helvetica,sans-Serif" font-size="10.00" fill="#000000">PaymentsController</text>
</a>
</g>
</g>
<!-- Node0&#45;&gt;Node10 -->
<g id="edge11" class="edge">
<title>Node0&#45;&gt;Node10</title>
<path fill="none" stroke="#191970" d="M172.3723,-366.7194C182.0567,-368.2205 192.5447,-369.8461 202.6904,-371.4186"/>
<polygon fill="#191970" stroke="#191970" points="172.6515,-363.221 162.2334,-365.1479 171.5793,-370.1384 172.6515,-363.221"/>
</g>
<!-- Node11 -->
<g id="node13" class="node">
<title>Node11</title>
<g id="a_node13"><a xlink:href="class_profile_controller.html" target="_top" xlink:title="ProfileController">
<polygon fill="#ffffff" stroke="#000000" points="210.9824,-333.5 210.9824,-351.5 298.6768,-351.5 298.6768,-333.5 210.9824,-333.5"/>
<text text-anchor="middle" x="254.8296" y="-339.5" font-family="Helvetica,sans-Serif" font-size="10.00" fill="#000000">ProfileController</text>
</a>
</g>
</g>
<!-- Node0&#45;&gt;Node11 -->
<g id="edge12" class="edge">
<title>Node0&#45;&gt;Node11</title>
<path fill="none" stroke="#191970" d="M172.2286,-354.629C184.5575,-352.8187 198.2002,-350.8154 210.7865,-348.9672"/>
<polygon fill="#191970" stroke="#191970" points="171.6188,-351.1809 162.2334,-356.0967 172.6358,-358.1067 171.6188,-351.1809"/>
</g>
<!-- Node12 -->
<g id="node14" class="node">
<title>Node12</title>
<g id="a_node14"><a xlink:href="class_settings_controller.html" target="_top" xlink:title="SettingsController">
<polygon fill="#ffffff" stroke="#000000" points="207.0884,-296.5 207.0884,-314.5 302.5708,-314.5 302.5708,-296.5 207.0884,-296.5"/>
<text text-anchor="middle" x="254.8296" y="-302.5" font-family="Helvetica,sans-Serif" font-size="10.00" fill="#000000">SettingsController</text>
</a>
</g>
</g>
<!-- Node0&#45;&gt;Node12 -->
<g id="edge13" class="edge">
<title>Node0&#45;&gt;Node12</title>
<path fill="none" stroke="#191970" d="M155.7082,-346.3009C168.0109,-339.202 183.4884,-330.8042 197.9209,-324.5 206.3207,-320.8309 215.6702,-317.4392 224.3239,-314.5677"/>
<polygon fill="#191970" stroke="#191970" points="153.8404,-343.3388 146.989,-351.4201 157.3846,-349.3753 153.8404,-343.3388"/>
</g>
<!-- Node13 -->
<g id="node15" class="node">
<title>Node13</title>
<g id="a_node15"><a xlink:href="class_site_controller.html" target="_top" xlink:title="SiteController">
<polygon fill="#ffffff" stroke="#000000" points="216.5391,-259.5 216.5391,-277.5 293.1201,-277.5 293.1201,-259.5 216.5391,-259.5"/>
<text text-anchor="middle" x="254.8296" y="-265.5" font-family="Helvetica,sans-Serif" font-size="10.00" fill="#000000">SiteController</text>
</a>
</g>
</g>
<!-- Node0&#45;&gt;Node13 -->
<g id="edge14" class="edge">
<title>Node0&#45;&gt;Node13</title>
<path fill="none" stroke="#191970" d="M144.0859,-342.7552C155.9221,-326.2852 175.545,-302.1665 197.9209,-287.5 204.1061,-283.4459 211.2378,-280.1791 218.3153,-277.5747"/>
<polygon fill="#191970" stroke="#191970" points="141.1812,-340.8019 138.3434,-351.0096 146.9274,-344.7995 141.1812,-340.8019"/>
</g>
<!-- Node14 -->
<g id="node16" class="node">
<title>Node14</title>
<g id="a_node16"><a xlink:href="class_sprav_controller.html" target="_top" xlink:title="SpravController">
<polygon fill="#ffffff" stroke="#000000" points="212.0933,-222.5 212.0933,-240.5 297.5659,-240.5 297.5659,-222.5 212.0933,-222.5"/>
<text text-anchor="middle" x="254.8296" y="-228.5" font-family="Helvetica,sans-Serif" font-size="10.00" fill="#000000">SpravController</text>
</a>
</g>
</g>
<!-- Node0&#45;&gt;Node14 -->
<g id="edge15" class="edge">
<title>Node0&#45;&gt;Node14</title>
<path fill="none" stroke="#191970" d="M138.6866,-341.7961C148.018,-317.3846 167.5758,-274.9084 197.9209,-250.5 203.0342,-246.3871 209.0773,-243.1478 215.2829,-240.6013"/>
<polygon fill="#191970" stroke="#191970" points="135.348,-340.7357 135.2139,-351.3297 141.9252,-343.1315 135.348,-340.7357"/>
</g>
<!-- Node15 -->
<g id="node17" class="node">
<title>Node15</title>
<g id="a_node17"><a xlink:href="class_statics_controller.html" target="_top" xlink:title="StaticsController">
<polygon fill="#ffffff" stroke="#000000" points="210.1499,-185.5 210.1499,-203.5 299.5093,-203.5 299.5093,-185.5 210.1499,-185.5"/>
<text text-anchor="middle" x="254.8296" y="-191.5" font-family="Helvetica,sans-Serif" font-size="10.00" fill="#000000">StaticsController</text>
</a>
</g>
</g>
<!-- Node0&#45;&gt;Node15 -->
<g id="edge16" class="edge">
<title>Node0&#45;&gt;Node15</title>
<path fill="none" stroke="#191970" d="M135.6372,-341.4412C142.1609,-310.2903 159.3734,-248.446 197.9209,-213.5 202.4739,-209.3724 207.951,-206.1381 213.6844,-203.6047"/>
<polygon fill="#191970" stroke="#191970" points="132.1695,-340.9384 133.6977,-351.4224 139.041,-342.2737 132.1695,-340.9384"/>
</g>
<!-- Node16 -->
<g id="node18" class="node">
<title>Node16</title>
<g id="a_node18"><a xlink:href="class_u_g_default_controller.html" target="_top" xlink:title="UGDefaultController">
<polygon fill="#ffffff" stroke="#000000" points="201.8125,-148.5 201.8125,-166.5 307.8467,-166.5 307.8467,-148.5 201.8125,-148.5"/>
<text text-anchor="middle" x="254.8296" y="-154.5" font-family="Helvetica,sans-Serif" font-size="10.00" fill="#000000">UGDefaultController</text>
</a>
</g>
</g>
<!-- Node0&#45;&gt;Node16 -->
<g id="edge17" class="edge">
<title>Node0&#45;&gt;Node16</title>
<path fill="none" stroke="#191970" d="M133.7184,-340.9361C137.5625,-303.7134 151.1331,-222.3337 197.9209,-176.5 202.1621,-172.3453 207.336,-169.0987 212.8169,-166.562"/>
<polygon fill="#191970" stroke="#191970" points="130.1901,-341.096 132.7823,-351.3688 137.162,-341.7216 130.1901,-341.096"/>
</g>
<!-- Node17 -->
<g id="node19" class="node">
<title>Node17</title>
<g id="a_node19"><a xlink:href="class_update_controller.html" target="_top" xlink:title="UpdateController">
<polygon fill="#ffffff" stroke="#000000" points="209.0317,-111.5 209.0317,-129.5 300.6274,-129.5 300.6274,-111.5 209.0317,-111.5"/>
<text text-anchor="middle" x="254.8296" y="-117.5" font-family="Helvetica,sans-Serif" font-size="10.00" fill="#000000">UpdateController</text>
</a>
</g>
</g>
<!-- Node0&#45;&gt;Node17 -->
<g id="edge18" class="edge">
<title>Node0&#45;&gt;Node17</title>
<path fill="none" stroke="#191970" d="M135.6233,-341.2355C144.4278,-293.0397 169.3901,-168.9992 197.9209,-139.5 201.9037,-135.3821 206.8018,-132.1566 212.0383,-129.6301"/>
<polygon fill="#191970" stroke="#191970" points="132.1428,-340.8161 133.8238,-351.2767 139.033,-342.051 132.1428,-340.8161"/>
</g>
<!-- Node18 -->
<g id="node20" class="node">
<title>Node18</title>
<g id="a_node20"><a xlink:href="class_user_controller.html" target="_top" xlink:title="UserController">
<polygon fill="#ffffff" stroke="#000000" points="214.5981,-74.5 214.5981,-92.5 295.061,-92.5 295.061,-74.5 214.5981,-74.5"/>
<text text-anchor="middle" x="254.8296" y="-80.5" font-family="Helvetica,sans-Serif" font-size="10.00" fill="#000000">UserController</text>
</a>
</g>
</g>
<!-- Node0&#45;&gt;Node18 -->
<g id="edge19" class="edge">
<title>Node0&#45;&gt;Node18</title>
<path fill="none" stroke="#191970" d="M134.7329,-341.2996C142.0389,-287.6712 165.0121,-137.9023 197.9209,-102.5 202.4596,-97.6174 208.2857,-93.9886 214.4719,-91.2919"/>
<polygon fill="#191970" stroke="#191970" points="131.2295,-341.0943 133.38,-351.4686 138.1683,-342.0175 131.2295,-341.0943"/>
</g>
<!-- Node19 -->
<g id="node21" class="node">
<title>Node19</title>
<g id="a_node21"><a xlink:href="class_video_controller.html" target="_top" xlink:title="VideoController">
<polygon fill="#ffffff" stroke="#000000" points="212.4546,-37.5 212.4546,-55.5 297.2046,-55.5 297.2046,-37.5 212.4546,-37.5"/>
<text text-anchor="middle" x="254.8296" y="-43.5" font-family="Helvetica,sans-Serif" font-size="10.00" fill="#000000">VideoController</text>
</a>
</g>
</g>
<!-- Node0&#45;&gt;Node19 -->
<g id="edge20" class="edge">
<title>Node0&#45;&gt;Node19</title>
<path fill="none" stroke="#191970" d="M134.0696,-341.2984C140.0113,-282.5748 160.6134,-106.8699 197.9209,-65.5 201.897,-61.0909 206.9239,-57.7033 212.3363,-55.1008"/>
<polygon fill="#191970" stroke="#191970" points="130.5709,-341.1145 133.0761,-351.4089 137.5373,-341.7991 130.5709,-341.1145"/>
</g>
<!-- Node20 -->
<g id="node22" class="node">
<title>Node20</title>
<g id="a_node22"><a xlink:href="class_xml_controller.html" target="_top" xlink:title="XmlController">
<polygon fill="#ffffff" stroke="#000000" points="216.5439,-.5 216.5439,-18.5 293.1152,-18.5 293.1152,-.5 216.5439,-.5"/>
<text text-anchor="middle" x="254.8296" y="-6.5" font-family="Helvetica,sans-Serif" font-size="10.00" fill="#000000">XmlController</text>
</a>
</g>
</g>
<!-- Node0&#45;&gt;Node20 -->
<g id="edge21" class="edge">
<title>Node0&#45;&gt;Node20</title>
<path fill="none" stroke="#191970" d="M133.5719,-341.0087C138.2883,-277.1819 156.2507,-75.8262 197.9209,-28.5 202.808,-22.9495 209.3617,-19.0163 216.2817,-16.2303"/>
<polygon fill="#191970" stroke="#191970" points="130.0613,-341.0347 132.8426,-351.258 137.0436,-341.5316 130.0613,-341.0347"/>
</g>
</g>
</svg>
