<?xml version="1.0" encoding="UTF-8" standalone="no"?>
<!DOCTYPE svg PUBLIC "-//W3C//DTD SVG 1.1//EN"
 "http://www.w3.org/Graphics/SVG/1.1/DTD/svg11.dtd">
<!-- Generated by graphviz version 2.40.1 (20161225.0304)
 -->
<!-- Title: Графічна ієрархія класів Pages: 1 -->
<svg width="720pt" height="495pt"
 viewBox="0.00 0.00 720.01 495.00" xmlns="http://www.w3.org/2000/svg" xmlns:xlink="http://www.w3.org/1999/xlink">
<g id="graph0" class="graph" transform="scale(1 1) rotate(0) translate(4 491)">
<title>Графічна ієрархія класів</title>
<polygon fill="#ffffff" stroke="transparent" points="-4,4 -4,-491 716.0078,-491 716.0078,4 -4,4"/>
<!-- Node1614 -->
<g id="node1" class="node">
<title>Node1614</title>
<polygon fill="#ffffff" stroke="#bfbfbf" points="0,-111.5 0,-129.5 74.9209,-129.5 74.9209,-111.5 0,-111.5"/>
<text text-anchor="middle" x="37.4604" y="-117.5" font-family="Helvetica,sans-Serif" font-size="10.00" fill="#000000">CComponent</text>
</g>
<!-- Node183 -->
<g id="node2" class="node">
<title>Node183</title>
<g id="a_node2"><a xlink:href="class_e_auth_service_base.html" target="_top" xlink:title="EAuthServiceBase">
<polygon fill="#ffffff" stroke="#000000" points="112.5908,-224.5 112.5908,-242.5 211.9697,-242.5 211.9697,-224.5 112.5908,-224.5"/>
<text text-anchor="middle" x="162.2803" y="-230.5" font-family="Helvetica,sans-Serif" font-size="10.00" fill="#000000">EAuthServiceBase</text>
</a>
</g>
</g>
<!-- Node1614&#45;&gt;Node183 -->
<g id="edge1" class="edge">
<title>Node1614&#45;&gt;Node183</title>
<path fill="none" stroke="#191970" d="M55.1367,-136.5024C81.7241,-160.5721 131.1402,-205.3088 152.2735,-224.4408"/>
<polygon fill="#191970" stroke="#191970" points="57.4373,-133.864 47.675,-129.7473 52.7394,-139.0533 57.4373,-133.864"/>
</g>
<!-- Node1615 -->
<g id="node24" class="node">
<title>Node1615</title>
<g id="a_node24"><a xlink:href="class_e_geo_i_p.html" target="_top" xlink:title="EGeoIP">
<polygon fill="#ffffff" stroke="#000000" points="136.7705,-.5 136.7705,-18.5 187.79,-18.5 187.79,-.5 136.7705,-.5"/>
<text text-anchor="middle" x="162.2803" y="-6.5" font-family="Helvetica,sans-Serif" font-size="10.00" fill="#000000">EGeoIP</text>
</a>
</g>
</g>
<!-- Node1614&#45;&gt;Node1615 -->
<g id="edge23" class="edge">
<title>Node1614&#45;&gt;Node1615</title>
<path fill="none" stroke="#191970" d="M47.2943,-102.6497C59.6113,-81.8379 82.5799,-47.7188 110.9209,-27.5 118.5356,-22.0676 127.9416,-18.1449 136.6148,-15.3767"/>
<polygon fill="#191970" stroke="#191970" points="44.1991,-101.0116 42.2647,-111.4284 50.2728,-104.4915 44.1991,-101.0116"/>
</g>
<!-- Node1616 -->
<g id="node25" class="node">
<title>Node1616</title>
<g id="a_node25"><a xlink:href="class_e_o_auth_component.html" target="_top" xlink:title="EOAuthComponent">
<polygon fill="#ffffff" stroke="#000000" points="110.9209,-148.5 110.9209,-166.5 213.6396,-166.5 213.6396,-148.5 110.9209,-148.5"/>
<text text-anchor="middle" x="162.2803" y="-154.5" font-family="Helvetica,sans-Serif" font-size="10.00" fill="#000000">EOAuthComponent</text>
</a>
</g>
</g>
<!-- Node1614&#45;&gt;Node1616 -->
<g id="edge24" class="edge">
<title>Node1614&#45;&gt;Node1616</title>
<path fill="none" stroke="#191970" d="M77.9166,-132.4923C95.3665,-137.6649 115.4406,-143.6155 131.6285,-148.414"/>
<polygon fill="#191970" stroke="#191970" points="78.5772,-129.0377 67.9948,-129.5512 76.5877,-135.749 78.5772,-129.0377"/>
</g>
<!-- Node1619 -->
<g id="node29" class="node">
<title>Node1619</title>
<g id="a_node29"><a xlink:href="class_messenger.html" target="_top" xlink:title="Messenger">
<polygon fill="#ffffff" stroke="#000000" points="129.5464,-111.5 129.5464,-129.5 195.0142,-129.5 195.0142,-111.5 129.5464,-111.5"/>
<text text-anchor="middle" x="162.2803" y="-117.5" font-family="Helvetica,sans-Serif" font-size="10.00" fill="#000000">Messenger</text>
</a>
</g>
</g>
<!-- Node1614&#45;&gt;Node1619 -->
<g id="edge28" class="edge">
<title>Node1614&#45;&gt;Node1619</title>
<path fill="none" stroke="#191970" d="M85.6314,-120.5C100.2232,-120.5 115.9119,-120.5 129.271,-120.5"/>
<polygon fill="#191970" stroke="#191970" points="85.2493,-117.0001 75.2492,-120.5 85.2492,-124.0001 85.2493,-117.0001"/>
</g>
<!-- Node1620 -->
<g id="node30" class="node">
<title>Node1620</title>
<g id="a_node30"><a xlink:href="class_yii_mail_message.html" target="_top" xlink:title="YiiMailMessage">
<polygon fill="#ffffff" stroke="#000000" points="119.4512,-37.5 119.4512,-55.5 205.1094,-55.5 205.1094,-37.5 119.4512,-37.5"/>
<text text-anchor="middle" x="162.2803" y="-43.5" font-family="Helvetica,sans-Serif" font-size="10.00" fill="#000000">YiiMailMessage</text>
</a>
</g>
</g>
<!-- Node1614&#45;&gt;Node1620 -->
<g id="edge29" class="edge">
<title>Node1614&#45;&gt;Node1620</title>
<path fill="none" stroke="#191970" d="M54.7493,-104.8015C68.9905,-92.5155 90.1502,-75.6916 110.9209,-64.5 117.3256,-61.0491 124.5239,-58.0456 131.459,-55.5327"/>
<polygon fill="#191970" stroke="#191970" points="52.4099,-102.1979 47.2189,-111.434 57.0366,-107.4509 52.4099,-102.1979"/>
</g>
<!-- Node184 -->
<g id="node3" class="node">
<title>Node184</title>
<g id="a_node3"><a xlink:href="class_e_o_auth2_service.html" target="_top" xlink:title="EOAuth2Service">
<polygon fill="#ffffff" stroke="#000000" points="256.8638,-338.5 256.8638,-356.5 346.7896,-356.5 346.7896,-338.5 256.8638,-338.5"/>
<text text-anchor="middle" x="301.8267" y="-344.5" font-family="Helvetica,sans-Serif" font-size="10.00" fill="#000000">EOAuth2Service</text>
</a>
</g>
</g>
<!-- Node183&#45;&gt;Node184 -->
<g id="edge2" class="edge">
<title>Node183&#45;&gt;Node184</title>
<path fill="none" stroke="#191970" d="M181.6591,-249.3312C211.2894,-273.5372 266.9108,-318.9761 290.6392,-338.3606"/>
<polygon fill="#191970" stroke="#191970" points="183.6586,-246.4452 173.6999,-242.8291 179.23,-251.8662 183.6586,-246.4452"/>
</g>
<!-- Node195 -->
<g id="node14" class="node">
<title>Node195</title>
<g id="a_node14"><a xlink:href="class_e_o_auth_service.html" target="_top" xlink:title="EOAuthService">
<polygon fill="#ffffff" stroke="#000000" points="259.6445,-246.5 259.6445,-264.5 344.0088,-264.5 344.0088,-246.5 259.6445,-246.5"/>
<text text-anchor="middle" x="301.8267" y="-252.5" font-family="Helvetica,sans-Serif" font-size="10.00" fill="#000000">EOAuthService</text>
</a>
</g>
</g>
<!-- Node183&#45;&gt;Node195 -->
<g id="edge13" class="edge">
<title>Node183&#45;&gt;Node195</title>
<path fill="none" stroke="#191970" d="M222.2217,-242.95C234.7922,-244.9318 247.7971,-246.982 259.5602,-248.8365"/>
<polygon fill="#191970" stroke="#191970" points="222.6887,-239.4805 212.2656,-241.3804 221.5985,-246.3951 222.6887,-239.4805"/>
</g>
<!-- Node198 -->
<g id="node17" class="node">
<title>Node198</title>
<g id="a_node17"><a xlink:href="class_e_open_i_d_service.html" target="_top" xlink:title="EOpenIDService">
<polygon fill="#ffffff" stroke="#000000" points="256.5879,-185.5 256.5879,-203.5 347.0654,-203.5 347.0654,-185.5 256.5879,-185.5"/>
<text text-anchor="middle" x="301.8267" y="-191.5" font-family="Helvetica,sans-Serif" font-size="10.00" fill="#000000">EOpenIDService</text>
</a>
</g>
</g>
<!-- Node183&#45;&gt;Node198 -->
<g id="edge16" class="edge">
<title>Node183&#45;&gt;Node198</title>
<path fill="none" stroke="#191970" d="M204.4808,-221.7059C225.232,-215.9064 249.8608,-209.0233 269.1533,-203.6315"/>
<polygon fill="#191970" stroke="#191970" points="203.3346,-218.3921 194.6458,-224.4546 205.2188,-225.1337 203.3346,-218.3921"/>
</g>
<!-- Node185 -->
<g id="node4" class="node">
<title>Node185</title>
<g id="a_node4"><a xlink:href="class_facebook_o_auth_service.html" target="_top" xlink:title="FacebookOAuthService">
<polygon fill="#ffffff" stroke="#000000" points="399.1812,-357.5 399.1812,-375.5 520.7915,-375.5 520.7915,-357.5 399.1812,-357.5"/>
<text text-anchor="middle" x="459.9863" y="-363.5" font-family="Helvetica,sans-Serif" font-size="10.00" fill="#000000">FacebookOAuthService</text>
</a>
</g>
</g>
<!-- Node184&#45;&gt;Node185 -->
<g id="edge3" class="edge">
<title>Node184&#45;&gt;Node185</title>
<path fill="none" stroke="#191970" d="M357.2513,-354.1583C370.7593,-355.781 385.2816,-357.5256 399.0312,-359.1774"/>
<polygon fill="#191970" stroke="#191970" points="357.495,-350.6625 347.1489,-352.9446 356.66,-357.6125 357.495,-350.6625"/>
</g>
<!-- Node187 -->
<g id="node6" class="node">
<title>Node187</title>
<g id="a_node6"><a xlink:href="class_google_o_auth_service.html" target="_top" xlink:title="GoogleOAuthService">
<polygon fill="#ffffff" stroke="#000000" points="405.0161,-320.5 405.0161,-338.5 514.9565,-338.5 514.9565,-320.5 405.0161,-320.5"/>
<text text-anchor="middle" x="459.9863" y="-326.5" font-family="Helvetica,sans-Serif" font-size="10.00" fill="#000000">GoogleOAuthService</text>
</a>
</g>
</g>
<!-- Node184&#45;&gt;Node187 -->
<g id="edge5" class="edge">
<title>Node184&#45;&gt;Node187</title>
<path fill="none" stroke="#191970" d="M357.0919,-341.2103C372.5593,-339.45 389.3673,-337.5371 404.8285,-335.7775"/>
<polygon fill="#191970" stroke="#191970" points="356.6889,-337.7335 347.1489,-342.3419 357.4805,-344.6886 356.6889,-337.7335"/>
</g>
<!-- Node188 -->
<g id="node7" class="node">
<title>Node188</title>
<g id="a_node7"><a xlink:href="class_mailru_o_auth_service.html" target="_top" xlink:title="MailruOAuthService">
<polygon fill="#ffffff" stroke="#000000" points="407.5259,-283.5 407.5259,-301.5 512.4468,-301.5 512.4468,-283.5 407.5259,-283.5"/>
<text text-anchor="middle" x="459.9863" y="-289.5" font-family="Helvetica,sans-Serif" font-size="10.00" fill="#000000">MailruOAuthService</text>
</a>
</g>
</g>
<!-- Node184&#45;&gt;Node188 -->
<g id="edge6" class="edge">
<title>Node184&#45;&gt;Node188</title>
<path fill="none" stroke="#191970" d="M331.2579,-334.4288C348.2399,-327.1544 370.1107,-318.2364 390.0137,-311.5 400.7448,-307.8679 412.579,-304.4413 423.4142,-301.5246"/>
<polygon fill="#191970" stroke="#191970" points="329.6606,-331.3064 321.8759,-338.4931 332.4432,-337.7296 329.6606,-331.3064"/>
</g>
<!-- Node190 -->
<g id="node9" class="node">
<title>Node190</title>
<g id="a_node9"><a xlink:href="class_moikrug_o_auth_service.html" target="_top" xlink:title="MoikrugOAuthService">
<polygon fill="#ffffff" stroke="#000000" points="403.356,-468.5 403.356,-486.5 516.6167,-486.5 516.6167,-468.5 403.356,-468.5"/>
<text text-anchor="middle" x="459.9863" y="-474.5" font-family="Helvetica,sans-Serif" font-size="10.00" fill="#000000">MoikrugOAuthService</text>
</a>
</g>
</g>
<!-- Node184&#45;&gt;Node190 -->
<g id="edge8" class="edge">
<title>Node184&#45;&gt;Node190</title>
<path fill="none" stroke="#191970" d="M311.2283,-365.8504C325.0382,-390.9224 353.2078,-435.502 390.0137,-459.5 395.6876,-463.1995 402.0813,-466.1392 408.6386,-468.475"/>
<polygon fill="#191970" stroke="#191970" points="314.1452,-363.8817 306.3529,-356.7031 307.9678,-367.1742 314.1452,-363.8817"/>
</g>
<!-- Node191 -->
<g id="node10" class="node">
<title>Node191</title>
<g id="a_node10"><a xlink:href="class_odnoklassniki_o_auth_service.html" target="_top" xlink:title="OdnoklassnikiOAuthService">
<polygon fill="#ffffff" stroke="#000000" points="390.0137,-431.5 390.0137,-449.5 529.959,-449.5 529.959,-431.5 390.0137,-431.5"/>
<text text-anchor="middle" x="459.9863" y="-437.5" font-family="Helvetica,sans-Serif" font-size="10.00" fill="#000000">OdnoklassnikiOAuthService</text>
</a>
</g>
</g>
<!-- Node184&#45;&gt;Node191 -->
<g id="edge9" class="edge">
<title>Node184&#45;&gt;Node191</title>
<path fill="none" stroke="#191970" d="M316.9451,-364.2152C333.3273,-381.3255 361.0325,-407.4756 390.0137,-422.5 397.0294,-426.1371 404.8297,-429.0741 412.6037,-431.4355"/>
<polygon fill="#191970" stroke="#191970" points="319.2416,-361.5465 309.8565,-356.6302 314.1273,-366.3261 319.2416,-361.5465"/>
</g>
<!-- Node193 -->
<g id="node12" class="node">
<title>Node193</title>
<g id="a_node12"><a xlink:href="class_v_kontakte_o_auth_service.html" target="_top" xlink:title="VKontakteOAuthService">
<polygon fill="#ffffff" stroke="#000000" points="398.0679,-394.5 398.0679,-412.5 521.9048,-412.5 521.9048,-394.5 398.0679,-394.5"/>
<text text-anchor="middle" x="459.9863" y="-400.5" font-family="Helvetica,sans-Serif" font-size="10.00" fill="#000000">VKontakteOAuthService</text>
</a>
</g>
</g>
<!-- Node184&#45;&gt;Node193 -->
<g id="edge11" class="edge">
<title>Node184&#45;&gt;Node193</title>
<path fill="none" stroke="#191970" d="M329.8226,-360.8876C346.945,-368.7408 369.4417,-378.4692 390.0137,-385.5 399.7466,-388.8264 410.4236,-391.8686 420.4413,-394.4675"/>
<polygon fill="#191970" stroke="#191970" points="330.9609,-357.5571 320.4175,-356.515 328.0098,-363.9046 330.9609,-357.5571"/>
</g>
<!-- Node186 -->
<g id="node5" class="node">
<title>Node186</title>
<g id="a_node5"><a xlink:href="class_custom_facebook_service.html" target="_top" xlink:title="CustomFacebookService">
<polygon fill="#ffffff" stroke="#000000" points="575.1265,-357.5 575.1265,-375.5 702.8403,-375.5 702.8403,-357.5 575.1265,-357.5"/>
<text text-anchor="middle" x="638.9834" y="-363.5" font-family="Helvetica,sans-Serif" font-size="10.00" fill="#000000">CustomFacebookService</text>
</a>
</g>
</g>
<!-- Node185&#45;&gt;Node186 -->
<g id="edge4" class="edge">
<title>Node185&#45;&gt;Node186</title>
<path fill="none" stroke="#191970" d="M531.2133,-366.5C545.6566,-366.5 560.763,-366.5 574.9399,-366.5"/>
<polygon fill="#191970" stroke="#191970" points="530.8364,-363.0001 520.8363,-366.5 530.8363,-370.0001 530.8364,-363.0001"/>
</g>
<!-- Node189 -->
<g id="node8" class="node">
<title>Node189</title>
<g id="a_node8"><a xlink:href="class_custom_mailru_service.html" target="_top" xlink:title="CustomMailruService">
<polygon fill="#ffffff" stroke="#000000" points="583.4712,-283.5 583.4712,-301.5 694.4956,-301.5 694.4956,-283.5 583.4712,-283.5"/>
<text text-anchor="middle" x="638.9834" y="-289.5" font-family="Helvetica,sans-Serif" font-size="10.00" fill="#000000">CustomMailruService</text>
</a>
</g>
</g>
<!-- Node188&#45;&gt;Node189 -->
<g id="edge7" class="edge">
<title>Node188&#45;&gt;Node189</title>
<path fill="none" stroke="#191970" d="M522.8146,-292.5C542.4855,-292.5 564.0481,-292.5 583.1987,-292.5"/>
<polygon fill="#191970" stroke="#191970" points="522.7233,-289.0001 512.7232,-292.5 522.7232,-296.0001 522.7233,-289.0001"/>
</g>
<!-- Node192 -->
<g id="node11" class="node">
<title>Node192</title>
<g id="a_node11"><a xlink:href="class_custom_odnoklassniki_service.html" target="_top" xlink:title="CustomOdnoklassnikiService">
<polygon fill="#ffffff" stroke="#000000" points="565.959,-431.5 565.959,-449.5 712.0078,-449.5 712.0078,-431.5 565.959,-431.5"/>
<text text-anchor="middle" x="638.9834" y="-437.5" font-family="Helvetica,sans-Serif" font-size="10.00" fill="#000000">CustomOdnoklassnikiService</text>
</a>
</g>
</g>
<!-- Node191&#45;&gt;Node192 -->
<g id="edge10" class="edge">
<title>Node191&#45;&gt;Node192</title>
<path fill="none" stroke="#191970" d="M539.9812,-440.5C548.5804,-440.5 557.2978,-440.5 565.8113,-440.5"/>
<polygon fill="#191970" stroke="#191970" points="539.9603,-437.0001 529.9603,-440.5 539.9603,-444.0001 539.9603,-437.0001"/>
</g>
<!-- Node194 -->
<g id="node13" class="node">
<title>Node194</title>
<g id="a_node13"><a xlink:href="class_custom_v_kontakte_service.html" target="_top" xlink:title="CustomVKontakteService">
<polygon fill="#ffffff" stroke="#000000" points="574.0132,-394.5 574.0132,-412.5 703.9536,-412.5 703.9536,-394.5 574.0132,-394.5"/>
<text text-anchor="middle" x="638.9834" y="-400.5" font-family="Helvetica,sans-Serif" font-size="10.00" fill="#000000">CustomVKontakteService</text>
</a>
</g>
</g>
<!-- Node193&#45;&gt;Node194 -->
<g id="edge12" class="edge">
<title>Node193&#45;&gt;Node194</title>
<path fill="none" stroke="#191970" d="M532.4558,-403.5C546.1838,-403.5 560.467,-403.5 573.948,-403.5"/>
<polygon fill="#191970" stroke="#191970" points="532.0885,-400.0001 522.0885,-403.5 532.0884,-407.0001 532.0885,-400.0001"/>
</g>
<!-- Node196 -->
<g id="node15" class="node">
<title>Node196</title>
<g id="a_node15"><a xlink:href="class_twitter_o_auth_service.html" target="_top" xlink:title="TwitterOAuthService">
<polygon fill="#ffffff" stroke="#000000" points="406.4126,-246.5 406.4126,-264.5 513.5601,-264.5 513.5601,-246.5 406.4126,-246.5"/>
<text text-anchor="middle" x="459.9863" y="-252.5" font-family="Helvetica,sans-Serif" font-size="10.00" fill="#000000">TwitterOAuthService</text>
</a>
</g>
</g>
<!-- Node195&#45;&gt;Node196 -->
<g id="edge14" class="edge">
<title>Node195&#45;&gt;Node196</title>
<path fill="none" stroke="#191970" d="M354.316,-255.5C370.9652,-255.5 389.394,-255.5 406.1372,-255.5"/>
<polygon fill="#191970" stroke="#191970" points="354.2106,-252.0001 344.2105,-255.5 354.2105,-259.0001 354.2106,-252.0001"/>
</g>
<!-- Node197 -->
<g id="node16" class="node">
<title>Node197</title>
<g id="a_node16"><a xlink:href="class_custom_twitter_service.html" target="_top" xlink:title="CustomTwitterService">
<polygon fill="#ffffff" stroke="#000000" points="582.3579,-246.5 582.3579,-264.5 695.6089,-264.5 695.6089,-246.5 582.3579,-246.5"/>
<text text-anchor="middle" x="638.9834" y="-252.5" font-family="Helvetica,sans-Serif" font-size="10.00" fill="#000000">CustomTwitterService</text>
</a>
</g>
</g>
<!-- Node196&#45;&gt;Node197 -->
<g id="edge15" class="edge">
<title>Node196&#45;&gt;Node197</title>
<path fill="none" stroke="#191970" d="M523.7847,-255.5C542.8523,-255.5 563.6204,-255.5 582.2055,-255.5"/>
<polygon fill="#191970" stroke="#191970" points="523.6914,-252.0001 513.6914,-255.5 523.6913,-259.0001 523.6914,-252.0001"/>
</g>
<!-- Node199 -->
<g id="node18" class="node">
<title>Node199</title>
<g id="a_node18"><a xlink:href="class_google_open_i_d_service.html" target="_top" xlink:title="GoogleOpenIDService">
<polygon fill="#ffffff" stroke="#000000" points="401.9595,-172.5 401.9595,-190.5 518.0132,-190.5 518.0132,-172.5 401.9595,-172.5"/>
<text text-anchor="middle" x="459.9863" y="-178.5" font-family="Helvetica,sans-Serif" font-size="10.00" fill="#000000">GoogleOpenIDService</text>
</a>
</g>
</g>
<!-- Node198&#45;&gt;Node199 -->
<g id="edge17" class="edge">
<title>Node198&#45;&gt;Node199</title>
<path fill="none" stroke="#191970" d="M357.4152,-189.9309C371.835,-188.7456 387.401,-187.4662 401.9434,-186.2709"/>
<polygon fill="#191970" stroke="#191970" points="356.8285,-186.4672 347.1489,-190.7747 357.402,-193.4437 356.8285,-186.4672"/>
</g>
<!-- Node201 -->
<g id="node20" class="node">
<title>Node201</title>
<g id="a_node20"><a xlink:href="class_l_j_open_i_d_service.html" target="_top" xlink:title="LJOpenIDService">
<polygon fill="#ffffff" stroke="#000000" points="412.8018,-135.5 412.8018,-153.5 507.1709,-153.5 507.1709,-135.5 412.8018,-135.5"/>
<text text-anchor="middle" x="459.9863" y="-141.5" font-family="Helvetica,sans-Serif" font-size="10.00" fill="#000000">LJOpenIDService</text>
</a>
</g>
</g>
<!-- Node198&#45;&gt;Node201 -->
<g id="edge19" class="edge">
<title>Node198&#45;&gt;Node201</title>
<path fill="none" stroke="#191970" d="M337.925,-182.1249C343.3221,-180.2528 348.8171,-178.3343 354.0137,-176.5 370.0549,-170.8376 373.7918,-168.622 390.0137,-163.5 401.1772,-159.9752 413.4642,-156.5038 424.5852,-153.5123"/>
<polygon fill="#191970" stroke="#191970" points="336.7092,-178.8419 328.4013,-185.4168 338.996,-185.4578 336.7092,-178.8419"/>
</g>
<!-- Node202 -->
<g id="node21" class="node">
<title>Node202</title>
<g id="a_node21"><a xlink:href="class_mailru_open_i_d_service.html" target="_top" xlink:title="MailruOpenIDService">
<polygon fill="#ffffff" stroke="#000000" points="404.4692,-98.5 404.4692,-116.5 515.5034,-116.5 515.5034,-98.5 404.4692,-98.5"/>
<text text-anchor="middle" x="459.9863" y="-104.5" font-family="Helvetica,sans-Serif" font-size="10.00" fill="#000000">MailruOpenIDService</text>
</a>
</g>
</g>
<!-- Node198&#45;&gt;Node202 -->
<g id="edge20" class="edge">
<title>Node198&#45;&gt;Node202</title>
<path fill="none" stroke="#191970" d="M347.0306,-181.0125C349.4772,-179.6433 351.826,-178.143 354.0137,-176.5 376.199,-159.839 367.177,-141.2565 390.0137,-125.5 395.3824,-121.7958 401.4572,-118.8537 407.7296,-116.517"/>
<polygon fill="#191970" stroke="#191970" points="345.3561,-177.9338 337.8552,-185.4163 348.385,-184.2446 345.3561,-177.9338"/>
</g>
<!-- Node203 -->
<g id="node22" class="node">
<title>Node203</title>
<g id="a_node22"><a xlink:href="class_yandex_open_i_d_service.html" target="_top" xlink:title="YandexOpenIDService">
<polygon fill="#ffffff" stroke="#000000" points="401.4932,-209.5 401.4932,-227.5 518.4795,-227.5 518.4795,-209.5 401.4932,-209.5"/>
<text text-anchor="middle" x="459.9863" y="-215.5" font-family="Helvetica,sans-Serif" font-size="10.00" fill="#000000">YandexOpenIDService</text>
</a>
</g>
</g>
<!-- Node198&#45;&gt;Node203 -->
<g id="edge21" class="edge">
<title>Node198&#45;&gt;Node203</title>
<path fill="none" stroke="#191970" d="M357.3029,-202.9183C371.5626,-205.0821 386.9496,-207.417 401.363,-209.6042"/>
<polygon fill="#191970" stroke="#191970" points="357.5608,-199.4174 347.1489,-201.3774 356.5106,-206.3382 357.5608,-199.4174"/>
</g>
<!-- Node200 -->
<g id="node19" class="node">
<title>Node200</title>
<g id="a_node19"><a xlink:href="class_custom_google_service.html" target="_top" xlink:title="CustomGoogleService">
<polygon fill="#ffffff" stroke="#000000" points="580.9614,-172.5 580.9614,-190.5 697.0054,-190.5 697.0054,-172.5 580.9614,-172.5"/>
<text text-anchor="middle" x="638.9834" y="-178.5" font-family="Helvetica,sans-Serif" font-size="10.00" fill="#000000">CustomGoogleService</text>
</a>
</g>
</g>
<!-- Node199&#45;&gt;Node200 -->
<g id="edge18" class="edge">
<title>Node199&#45;&gt;Node200</title>
<path fill="none" stroke="#191970" d="M528.1736,-181.5C545.5395,-181.5 564.0419,-181.5 580.8537,-181.5"/>
<polygon fill="#191970" stroke="#191970" points="528.1016,-178.0001 518.1015,-181.5 528.1015,-185.0001 528.1016,-178.0001"/>
</g>
<!-- Node204 -->
<g id="node23" class="node">
<title>Node204</title>
<g id="a_node23"><a xlink:href="class_custom_yandex_service.html" target="_top" xlink:title="CustomYandexService">
<polygon fill="#ffffff" stroke="#000000" points="580.4951,-209.5 580.4951,-227.5 697.4717,-227.5 697.4717,-209.5 580.4951,-209.5"/>
<text text-anchor="middle" x="638.9834" y="-215.5" font-family="Helvetica,sans-Serif" font-size="10.00" fill="#000000">CustomYandexService</text>
</a>
</g>
</g>
<!-- Node203&#45;&gt;Node204 -->
<g id="edge22" class="edge">
<title>Node203&#45;&gt;Node204</title>
<path fill="none" stroke="#191970" d="M528.9759,-218.5C545.8973,-218.5 563.8526,-218.5 580.2414,-218.5"/>
<polygon fill="#191970" stroke="#191970" points="528.5967,-215.0001 518.5967,-218.5 528.5966,-222.0001 528.5967,-215.0001"/>
</g>
<!-- Node1617 -->
<g id="node26" class="node">
<title>Node1617</title>
<g id="a_node26"><a xlink:href="class_e_o_auth_provider.html" target="_top" xlink:title="EOAuthProvider">
<polygon fill="#ffffff" stroke="#000000" points="257.6987,-111.5 257.6987,-129.5 345.9546,-129.5 345.9546,-111.5 257.6987,-111.5"/>
<text text-anchor="middle" x="301.8267" y="-117.5" font-family="Helvetica,sans-Serif" font-size="10.00" fill="#000000">EOAuthProvider</text>
</a>
</g>
</g>
<!-- Node1616&#45;&gt;Node1617 -->
<g id="edge25" class="edge">
<title>Node1616&#45;&gt;Node1617</title>
<path fill="none" stroke="#191970" d="M206.147,-145.869C225.9672,-140.6138 249.0379,-134.4967 267.5585,-129.586"/>
<polygon fill="#191970" stroke="#191970" points="205.1861,-142.5027 196.4172,-148.4488 206.9802,-149.2689 205.1861,-142.5027"/>
</g>
<!-- Node0 -->
<g id="node27" class="node">
<title>Node0</title>
<g id="a_node27"><a xlink:href="class_e_o_auth_user_identity.html" target="_top" xlink:title="EOAuthUserIdentity">
<polygon fill="#ffffff" stroke="#000000" points="249.6396,-74.5 249.6396,-92.5 354.0137,-92.5 354.0137,-74.5 249.6396,-74.5"/>
<text text-anchor="middle" x="301.8267" y="-80.5" font-family="Helvetica,sans-Serif" font-size="10.00" fill="#000000">EOAuthUserIdentity</text>
</a>
</g>
</g>
<!-- Node1616&#45;&gt;Node0 -->
<g id="edge26" class="edge">
<title>Node1616&#45;&gt;Node0</title>
<path fill="none" stroke="#191970" d="M202.8999,-144.4447C206.6423,-142.6618 210.2838,-140.6829 213.6396,-138.5 232.8725,-125.9894 230.2691,-113.7964 249.6396,-101.5 255.3036,-97.9045 261.772,-94.9295 268.1815,-92.5044"/>
<polygon fill="#191970" stroke="#191970" points="201.3064,-141.3197 193.4949,-148.4774 204.065,-147.7533 201.3064,-141.3197"/>
</g>
<!-- Node1618 -->
<g id="node28" class="node">
<title>Node1618</title>
<g id="a_node28"><a xlink:href="class_e_o_auth_utils.html" target="_top" xlink:title="EOAuthUtils">
<polygon fill="#ffffff" stroke="#000000" points="266.5952,-148.5 266.5952,-166.5 337.0581,-166.5 337.0581,-148.5 266.5952,-148.5"/>
<text text-anchor="middle" x="301.8267" y="-154.5" font-family="Helvetica,sans-Serif" font-size="10.00" fill="#000000">EOAuthUtils</text>
</a>
</g>
</g>
<!-- Node1616&#45;&gt;Node1618 -->
<g id="edge27" class="edge">
<title>Node1616&#45;&gt;Node1618</title>
<path fill="none" stroke="#191970" d="M223.8577,-157.5C238.4783,-157.5 253.5857,-157.5 266.5639,-157.5"/>
<polygon fill="#191970" stroke="#191970" points="223.8458,-154.0001 213.8457,-157.5 223.8457,-161.0001 223.8458,-154.0001"/>
</g>
<!-- Node182 -->
<g id="node31" class="node">
<title>Node182</title>
<g id="a_node31"><a xlink:href="interface_i_auth_service.html" target="_top" xlink:title="IAuthService">
<polygon fill="#ffffff" stroke="#000000" points="1.1133,-243.5 1.1133,-261.5 73.8076,-261.5 73.8076,-243.5 1.1133,-243.5"/>
<text text-anchor="middle" x="37.4604" y="-249.5" font-family="Helvetica,sans-Serif" font-size="10.00" fill="#000000">IAuthService</text>
</a>
</g>
</g>
<!-- Node182&#45;&gt;Node183 -->
<g id="edge30" class="edge">
<title>Node182&#45;&gt;Node183</title>
<path fill="none" stroke="#191970" d="M83.8235,-245.4427C93.1973,-244.0158 103.0893,-242.51 112.5727,-241.0665"/>
<polygon fill="#191970" stroke="#191970" points="83.2584,-241.9883 73.8991,-246.9533 84.3119,-248.9085 83.2584,-241.9883"/>
</g>
<!-- Node182&#45;&gt;Node184 -->
<g id="edge31" class="edge">
<title>Node182&#45;&gt;Node184</title>
<path fill="none" stroke="#191970" d="M72.3072,-265.0222C126.3389,-284.4385 229.0438,-321.3455 276.5549,-338.4186"/>
<polygon fill="#191970" stroke="#191970" points="73.4035,-261.6971 62.809,-261.609 71.0362,-268.2846 73.4035,-261.6971"/>
</g>
<!-- Node182&#45;&gt;Node195 -->
<g id="edge32" class="edge">
<title>Node182&#45;&gt;Node195</title>
<path fill="none" stroke="#191970" d="M84.0917,-253.0292C133.7648,-253.5929 211.697,-254.4772 259.6121,-255.021"/>
<polygon fill="#191970" stroke="#191970" points="83.981,-249.5278 73.9419,-252.914 83.9015,-256.5273 83.981,-249.5278"/>
</g>
<!-- Node182&#45;&gt;Node198 -->
<g id="edge33" class="edge">
<title>Node182&#45;&gt;Node198</title>
<path fill="none" stroke="#191970" d="M60.6588,-238.1157C74.6899,-230.1149 93.2332,-220.7411 110.9209,-215.5 159.3544,-201.1485 217.322,-196.4286 256.5767,-194.9667"/>
<polygon fill="#191970" stroke="#191970" points="58.5761,-235.2801 51.7318,-243.3676 62.1256,-241.3135 58.5761,-235.2801"/>
</g>
<!-- Node175 -->
<g id="node32" class="node">
<title>Node175</title>
<polygon fill="#ffffff" stroke="#bfbfbf" points="126.2139,-74.5 126.2139,-92.5 198.3467,-92.5 198.3467,-74.5 126.2139,-74.5"/>
<text text-anchor="middle" x="162.2803" y="-80.5" font-family="Helvetica,sans-Serif" font-size="10.00" fill="#000000">IUserIdentity</text>
</g>
<!-- Node175&#45;&gt;Node0 -->
<g id="edge34" class="edge">
<title>Node175&#45;&gt;Node0</title>
<path fill="none" stroke="#191970" d="M208.737,-83.5C221.7809,-83.5 236.0533,-83.5 249.418,-83.5"/>
<polygon fill="#191970" stroke="#191970" points="208.5802,-80.0001 198.5802,-83.5 208.5801,-87.0001 208.5802,-80.0001"/>
</g>
</g>
</svg>
