<?xml version="1.0" encoding="UTF-8" standalone="no"?>
<!DOCTYPE svg PUBLIC "-//W3C//DTD SVG 1.1//EN"
 "http://www.w3.org/Graphics/SVG/1.1/DTD/svg11.dtd">
<!-- Generated by graphviz version 2.40.1 (20161225.0304)
 -->
<!-- Title: Графічна ієрархія класів Pages: 1 -->
<svg width="484pt" height="195pt"
 viewBox="0.00 0.00 484.48 195.00" xmlns="http://www.w3.org/2000/svg" xmlns:xlink="http://www.w3.org/1999/xlink">
<g id="graph0" class="graph" transform="scale(1 1) rotate(0) translate(4 191)">
<title>Графічна ієрархія класів</title>
<polygon fill="#ffffff" stroke="transparent" points="-4,4 -4,-191 480.4795,-191 480.4795,4 -4,4"/>
<!-- Node0 -->
<g id="node1" class="node">
<title>Node0</title>
<g id="a_node1"><a xlink:href="interface_swift___events___event.html" target="_top" xlink:title="Swift_Events_Event">
<polygon fill="#ffffff" stroke="#000000" points="0,-94.5 0,-112.5 104.9355,-112.5 104.9355,-94.5 0,-94.5"/>
<text text-anchor="middle" x="52.4678" y="-100.5" font-family="Helvetica,sans-Serif" font-size="10.00" fill="#000000">Swift_Events_Event</text>
</a>
</g>
</g>
<!-- Node1 -->
<g id="node2" class="node">
<title>Node1</title>
<g id="a_node2"><a xlink:href="class_swift___events___event_object.html" target="_top" xlink:title="Swift_Events_EventObject">
<polygon fill="#ffffff" stroke="#000000" points="140.9355,-94.5 140.9355,-112.5 274.7725,-112.5 274.7725,-94.5 140.9355,-94.5"/>
<text text-anchor="middle" x="207.854" y="-100.5" font-family="Helvetica,sans-Serif" font-size="10.00" fill="#000000">Swift_Events_EventObject</text>
</a>
</g>
</g>
<!-- Node0&#45;&gt;Node1 -->
<g id="edge1" class="edge">
<title>Node0&#45;&gt;Node1</title>
<path fill="none" stroke="#191970" d="M115.1763,-103.5C123.5796,-103.5 132.226,-103.5 140.7018,-103.5"/>
<polygon fill="#191970" stroke="#191970" points="115.0745,-100.0001 105.0745,-103.5 115.0744,-107.0001 115.0745,-100.0001"/>
</g>
<!-- Node2 -->
<g id="node3" class="node">
<title>Node2</title>
<g id="a_node3"><a xlink:href="class_swift___events___command_event.html" target="_top" xlink:title="Swift_Events_CommandEvent">
<polygon fill="#ffffff" stroke="#000000" points="318.0942,-168.5 318.0942,-186.5 469.1577,-186.5 469.1577,-168.5 318.0942,-168.5"/>
<text text-anchor="middle" x="393.626" y="-174.5" font-family="Helvetica,sans-Serif" font-size="10.00" fill="#000000">Swift_Events_CommandEvent</text>
</a>
</g>
</g>
<!-- Node1&#45;&gt;Node2 -->
<g id="edge2" class="edge">
<title>Node1&#45;&gt;Node2</title>
<path fill="none" stroke="#191970" d="M230.0676,-118.0099C250.3382,-130.6507 281.5088,-148.6144 310.7725,-159.5 320.4298,-163.0924 331.0006,-166.066 341.2633,-168.4906"/>
<polygon fill="#191970" stroke="#191970" points="231.8869,-115.0192 221.567,-112.6211 228.139,-120.9314 231.8869,-115.0192"/>
</g>
<!-- Node3 -->
<g id="node4" class="node">
<title>Node3</title>
<g id="a_node4"><a xlink:href="class_swift___events___response_event.html" target="_top" xlink:title="Swift_Events_ResponseEvent">
<polygon fill="#ffffff" stroke="#000000" points="318.6436,-131.5 318.6436,-149.5 468.6084,-149.5 468.6084,-131.5 318.6436,-131.5"/>
<text text-anchor="middle" x="393.626" y="-137.5" font-family="Helvetica,sans-Serif" font-size="10.00" fill="#000000">Swift_Events_ResponseEvent</text>
</a>
</g>
</g>
<!-- Node1&#45;&gt;Node3 -->
<g id="edge3" class="edge">
<title>Node1&#45;&gt;Node3</title>
<path fill="none" stroke="#191970" d="M263.4167,-114.5664C290.5298,-119.9665 322.7321,-126.3801 348.3286,-131.4782"/>
<polygon fill="#191970" stroke="#191970" points="263.79,-111.072 253.2989,-112.5512 262.4226,-117.9372 263.79,-111.072"/>
</g>
<!-- Node4 -->
<g id="node5" class="node">
<title>Node4</title>
<g id="a_node5"><a xlink:href="class_swift___events___send_event.html" target="_top" xlink:title="Swift_Events_SendEvent">
<polygon fill="#ffffff" stroke="#000000" points="329.481,-94.5 329.481,-112.5 457.771,-112.5 457.771,-94.5 329.481,-94.5"/>
<text text-anchor="middle" x="393.626" y="-100.5" font-family="Helvetica,sans-Serif" font-size="10.00" fill="#000000">Swift_Events_SendEvent</text>
</a>
</g>
</g>
<!-- Node1&#45;&gt;Node4 -->
<g id="edge4" class="edge">
<title>Node1&#45;&gt;Node4</title>
<path fill="none" stroke="#191970" d="M285.0441,-103.5C299.8184,-103.5 315.1384,-103.5 329.4499,-103.5"/>
<polygon fill="#191970" stroke="#191970" points="284.922,-100.0001 274.9219,-103.5 284.9219,-107.0001 284.922,-100.0001"/>
</g>
<!-- Node5 -->
<g id="node6" class="node">
<title>Node5</title>
<g id="a_node6"><a xlink:href="class_swift___events___transport_change_event.html" target="_top" xlink:title="Swift_Events_TransportChange\lEvent">
<polygon fill="#ffffff" stroke="#000000" points="315.2158,-47.5 315.2158,-75.5 472.0361,-75.5 472.0361,-47.5 315.2158,-47.5"/>
<text text-anchor="start" x="323.2158" y="-63.5" font-family="Helvetica,sans-Serif" font-size="10.00" fill="#000000">Swift_Events_TransportChange</text>
<text text-anchor="middle" x="393.626" y="-53.5" font-family="Helvetica,sans-Serif" font-size="10.00" fill="#000000">Event</text>
</a>
</g>
</g>
<!-- Node1&#45;&gt;Node5 -->
<g id="edge5" class="edge">
<title>Node1&#45;&gt;Node5</title>
<path fill="none" stroke="#191970" d="M257.4902,-92.2781C280.2425,-87.1342 307.4519,-80.9825 331.5436,-75.5358"/>
<polygon fill="#191970" stroke="#191970" points="256.6887,-88.8708 247.7068,-94.4899 258.2324,-95.6985 256.6887,-88.8708"/>
</g>
<!-- Node6 -->
<g id="node7" class="node">
<title>Node6</title>
<g id="a_node7"><a xlink:href="class_swift___events___transport_exception_event.html" target="_top" xlink:title="Swift_Events_TransportException\lEvent">
<polygon fill="#ffffff" stroke="#000000" points="310.7725,-.5 310.7725,-28.5 476.4795,-28.5 476.4795,-.5 310.7725,-.5"/>
<text text-anchor="start" x="318.7725" y="-16.5" font-family="Helvetica,sans-Serif" font-size="10.00" fill="#000000">Swift_Events_TransportException</text>
<text text-anchor="middle" x="393.626" y="-6.5" font-family="Helvetica,sans-Serif" font-size="10.00" fill="#000000">Event</text>
</a>
</g>
</g>
<!-- Node1&#45;&gt;Node6 -->
<g id="edge6" class="edge">
<title>Node1&#45;&gt;Node6</title>
<path fill="none" stroke="#191970" d="M227.9603,-88.3856C248.0349,-73.8924 280.2163,-52.242 310.7725,-38.5 319.1038,-34.7531 328.169,-31.4292 337.1453,-28.5394"/>
<polygon fill="#191970" stroke="#191970" points="225.8855,-85.5668 219.8881,-94.3008 230.023,-91.2131 225.8855,-85.5668"/>
</g>
</g>
</svg>
