<?xml version="1.0" encoding="UTF-8" standalone="no"?>
<!DOCTYPE svg PUBLIC "-//W3C//DTD SVG 1.1//EN"
 "http://www.w3.org/Graphics/SVG/1.1/DTD/svg11.dtd">
<!-- Generated by graphviz version 2.40.1 (20161225.0304)
 -->
<!-- Title: Графічна ієрархія класів Pages: 1 -->
<svg width="296pt" height="131pt"
 viewBox="0.00 0.00 295.55 131.00" xmlns="http://www.w3.org/2000/svg" xmlns:xlink="http://www.w3.org/1999/xlink">
<g id="graph0" class="graph" transform="scale(1 1) rotate(0) translate(4 127)">
<title>Графічна ієрархія класів</title>
<polygon fill="#ffffff" stroke="transparent" points="-4,4 -4,-127 291.5508,-127 291.5508,4 -4,4"/>
<!-- Node0 -->
<g id="node1" class="node">
<title>Node0</title>
<g id="a_node1"><a xlink:href="class_c_k_finder___connector___error_handler___base.html" target="_top" xlink:title="CKFinder_Connector\l_ErrorHandler_Base">
<polygon fill="#ffffff" stroke="#000000" points="0,-47.5 0,-75.5 109.9355,-75.5 109.9355,-47.5 0,-47.5"/>
<text text-anchor="start" x="8" y="-63.5" font-family="Helvetica,sans-Serif" font-size="10.00" fill="#000000">CKFinder_Connector</text>
<text text-anchor="middle" x="54.9678" y="-53.5" font-family="Helvetica,sans-Serif" font-size="10.00" fill="#000000">_ErrorHandler_Base</text>
</a>
</g>
</g>
<!-- Node1 -->
<g id="node2" class="node">
<title>Node1</title>
<g id="a_node2"><a xlink:href="class_c_k_finder___connector___error_handler___file_upload.html" target="_top" xlink:title="CKFinder_Connector\l_ErrorHandler_FileUpload">
<polygon fill="#ffffff" stroke="#000000" points="150.6597,-94.5 150.6597,-122.5 282.8267,-122.5 282.8267,-94.5 150.6597,-94.5"/>
<text text-anchor="start" x="158.6597" y="-110.5" font-family="Helvetica,sans-Serif" font-size="10.00" fill="#000000">CKFinder_Connector</text>
<text text-anchor="middle" x="216.7432" y="-100.5" font-family="Helvetica,sans-Serif" font-size="10.00" fill="#000000">_ErrorHandler_FileUpload</text>
</a>
</g>
</g>
<!-- Node0&#45;&gt;Node1 -->
<g id="edge1" class="edge">
<title>Node0&#45;&gt;Node1</title>
<path fill="none" stroke="#191970" d="M113.1151,-78.3933C131.2809,-83.671 151.1123,-89.4325 168.5184,-94.4894"/>
<polygon fill="#191970" stroke="#191970" points="114.0852,-75.0305 103.5057,-75.6015 112.1322,-81.7526 114.0852,-75.0305"/>
</g>
<!-- Node2 -->
<g id="node3" class="node">
<title>Node2</title>
<g id="a_node3"><a xlink:href="class_c_k_finder___connector___error_handler___http.html" target="_top" xlink:title="CKFinder_Connector\l_ErrorHandler_Http">
<polygon fill="#ffffff" stroke="#000000" points="161.7754,-47.5 161.7754,-75.5 271.7109,-75.5 271.7109,-47.5 161.7754,-47.5"/>
<text text-anchor="start" x="169.7754" y="-63.5" font-family="Helvetica,sans-Serif" font-size="10.00" fill="#000000">CKFinder_Connector</text>
<text text-anchor="middle" x="216.7432" y="-53.5" font-family="Helvetica,sans-Serif" font-size="10.00" fill="#000000">_ErrorHandler_Http</text>
</a>
</g>
</g>
<!-- Node0&#45;&gt;Node2 -->
<g id="edge2" class="edge">
<title>Node0&#45;&gt;Node2</title>
<path fill="none" stroke="#191970" d="M120.5141,-61.5C134.2068,-61.5 148.5083,-61.5 161.7706,-61.5"/>
<polygon fill="#191970" stroke="#191970" points="120.1892,-58.0001 110.1892,-61.5 120.1892,-65.0001 120.1892,-58.0001"/>
</g>
<!-- Node3 -->
<g id="node4" class="node">
<title>Node3</title>
<g id="a_node4"><a xlink:href="class_c_k_finder___connector___error_handler___quick_upload.html" target="_top" xlink:title="CKFinder_Connector\l_ErrorHandler_QuickUpload">
<polygon fill="#ffffff" stroke="#000000" points="145.9355,-.5 145.9355,-28.5 287.5508,-28.5 287.5508,-.5 145.9355,-.5"/>
<text text-anchor="start" x="153.9355" y="-16.5" font-family="Helvetica,sans-Serif" font-size="10.00" fill="#000000">CKFinder_Connector</text>
<text text-anchor="middle" x="216.7432" y="-6.5" font-family="Helvetica,sans-Serif" font-size="10.00" fill="#000000">_ErrorHandler_QuickUpload</text>
</a>
</g>
</g>
<!-- Node0&#45;&gt;Node3 -->
<g id="edge3" class="edge">
<title>Node0&#45;&gt;Node3</title>
<path fill="none" stroke="#191970" d="M113.1151,-44.6067C131.2809,-39.329 151.1123,-33.5675 168.5184,-28.5106"/>
<polygon fill="#191970" stroke="#191970" points="112.1322,-41.2474 103.5057,-47.3985 114.0852,-47.9695 112.1322,-41.2474"/>
</g>
</g>
</svg>
