<?xml version="1.0" encoding="UTF-8" standalone="no"?>
<!DOCTYPE svg PUBLIC "-//W3C//DTD SVG 1.1//EN"
 "http://www.w3.org/Graphics/SVG/1.1/DTD/svg11.dtd">
<!-- Generated by graphviz version 2.40.1 (20161225.0304)
 -->
<!-- Title: Графічна ієрархія класів Pages: 1 -->
<svg width="223pt" height="64pt"
 viewBox="0.00 0.00 223.30 64.00" xmlns="http://www.w3.org/2000/svg" xmlns:xlink="http://www.w3.org/1999/xlink">
<g id="graph0" class="graph" transform="scale(1 1) rotate(0) translate(4 60)">
<title>Графічна ієрархія класів</title>
<polygon fill="#ffffff" stroke="transparent" points="-4,4 -4,-60 219.2998,-60 219.2998,4 -4,4"/>
<!-- Node0 -->
<g id="node1" class="node">
<title>Node0</title>
<g id="a_node1"><a xlink:href="class_google___i_o.html" target="_top" xlink:title="Google_IO">
<polygon fill="#ffffff" stroke="#000000" points="0,-18.5 0,-36.5 64.3643,-36.5 64.3643,-18.5 0,-18.5"/>
<text text-anchor="middle" x="32.1821" y="-24.5" font-family="Helvetica,sans-Serif" font-size="10.00" fill="#000000">Google_IO</text>
</a>
</g>
</g>
<!-- Node1 -->
<g id="node2" class="node">
<title>Node1</title>
<g id="a_node2"><a xlink:href="class_google___curl_i_o.html" target="_top" xlink:title="Google_CurlIO">
<polygon fill="#ffffff" stroke="#000000" points="116.4824,-37.5 116.4824,-55.5 199.1816,-55.5 199.1816,-37.5 116.4824,-37.5"/>
<text text-anchor="middle" x="157.832" y="-43.5" font-family="Helvetica,sans-Serif" font-size="10.00" fill="#000000">Google_CurlIO</text>
</a>
</g>
</g>
<!-- Node0&#45;&gt;Node1 -->
<g id="edge1" class="edge">
<title>Node0&#45;&gt;Node1</title>
<path fill="none" stroke="#191970" d="M74.4788,-33.8958C87.8948,-35.9245 102.7139,-38.1654 116.0906,-40.1881"/>
<polygon fill="#191970" stroke="#191970" points="74.951,-30.4275 64.5401,-32.393 73.9044,-37.3489 74.951,-30.4275"/>
</g>
<!-- Node2 -->
<g id="node3" class="node">
<title>Node2</title>
<g id="a_node3"><a xlink:href="class_google___http_stream_i_o.html" target="_top" xlink:title="Google_HttpStreamIO">
<polygon fill="#ffffff" stroke="#000000" points="100.3643,-.5 100.3643,-18.5 215.2998,-18.5 215.2998,-.5 100.3643,-.5"/>
<text text-anchor="middle" x="157.832" y="-6.5" font-family="Helvetica,sans-Serif" font-size="10.00" fill="#000000">Google_HttpStreamIO</text>
</a>
</g>
</g>
<!-- Node0&#45;&gt;Node2 -->
<g id="edge2" class="edge">
<title>Node0&#45;&gt;Node2</title>
<path fill="none" stroke="#191970" d="M74.6323,-21.4188C82.8594,-20.2402 91.6093,-18.9868 100.2272,-17.7522"/>
<polygon fill="#191970" stroke="#191970" points="73.9427,-17.9818 64.5401,-22.8646 74.9354,-24.911 73.9427,-17.9818"/>
</g>
</g>
</svg>
