<?xml version="1.0" encoding="UTF-8" standalone="no"?>
<!DOCTYPE svg PUBLIC "-//W3C//DTD SVG 1.1//EN"
 "http://www.w3.org/Graphics/SVG/1.1/DTD/svg11.dtd">
<!-- Generated by graphviz version 2.40.1 (20161225.0304)
 -->
<!-- Title: Графічна ієрархія класів Pages: 1 -->
<svg width="298pt" height="101pt"
 viewBox="0.00 0.00 298.33 101.00" xmlns="http://www.w3.org/2000/svg" xmlns:xlink="http://www.w3.org/1999/xlink">
<g id="graph0" class="graph" transform="scale(1 1) rotate(0) translate(4 97)">
<title>Графічна ієрархія класів</title>
<polygon fill="#ffffff" stroke="transparent" points="-4,4 -4,-97 294.3291,-97 294.3291,4 -4,4"/>
<!-- Node0 -->
<g id="node1" class="node">
<title>Node0</title>
<g id="a_node1"><a xlink:href="interface_swift___key_cache.html" target="_top" xlink:title="Swift_KeyCache">
<polygon fill="#ffffff" stroke="#000000" points="0,-37.5 0,-55.5 89.3691,-55.5 89.3691,-37.5 0,-37.5"/>
<text text-anchor="middle" x="44.6846" y="-43.5" font-family="Helvetica,sans-Serif" font-size="10.00" fill="#000000">Swift_KeyCache</text>
</a>
</g>
</g>
<!-- Node1 -->
<g id="node2" class="node">
<title>Node1</title>
<g id="a_node2"><a xlink:href="class_swift___key_cache___array_key_cache.html" target="_top" xlink:title="Swift_KeyCache_ArrayKeyCache">
<polygon fill="#ffffff" stroke="#000000" points="125.3691,-74.5 125.3691,-92.5 290.3291,-92.5 290.3291,-74.5 125.3691,-74.5"/>
<text text-anchor="middle" x="207.8491" y="-80.5" font-family="Helvetica,sans-Serif" font-size="10.00" fill="#000000">Swift_KeyCache_ArrayKeyCache</text>
</a>
</g>
</g>
<!-- Node0&#45;&gt;Node1 -->
<g id="edge1" class="edge">
<title>Node0&#45;&gt;Node1</title>
<path fill="none" stroke="#191970" d="M92.1984,-57.8256C103.0894,-60.3836 114.6241,-63.0626 125.3691,-65.5 138.519,-68.483 152.8697,-71.6466 165.8599,-74.4759"/>
<polygon fill="#191970" stroke="#191970" points="92.9548,-54.4081 82.4186,-55.5209 91.3491,-61.2215 92.9548,-54.4081"/>
</g>
<!-- Node2 -->
<g id="node3" class="node">
<title>Node2</title>
<g id="a_node3"><a xlink:href="class_swift___key_cache___disk_key_cache.html" target="_top" xlink:title="Swift_KeyCache_DiskKeyCache">
<polygon fill="#ffffff" stroke="#000000" points="127.5933,-37.5 127.5933,-55.5 288.105,-55.5 288.105,-37.5 127.5933,-37.5"/>
<text text-anchor="middle" x="207.8491" y="-43.5" font-family="Helvetica,sans-Serif" font-size="10.00" fill="#000000">Swift_KeyCache_DiskKeyCache</text>
</a>
</g>
</g>
<!-- Node0&#45;&gt;Node2 -->
<g id="edge2" class="edge">
<title>Node0&#45;&gt;Node2</title>
<path fill="none" stroke="#191970" d="M99.8421,-46.5C108.6864,-46.5 117.9952,-46.5 127.2864,-46.5"/>
<polygon fill="#191970" stroke="#191970" points="99.702,-43.0001 89.7019,-46.5 99.7019,-50.0001 99.702,-43.0001"/>
</g>
<!-- Node3 -->
<g id="node4" class="node">
<title>Node3</title>
<g id="a_node4"><a xlink:href="class_swift___key_cache___null_key_cache.html" target="_top" xlink:title="Swift_KeyCache_NullKeyCache">
<polygon fill="#ffffff" stroke="#000000" points="128.7017,-.5 128.7017,-18.5 286.9966,-18.5 286.9966,-.5 128.7017,-.5"/>
<text text-anchor="middle" x="207.8491" y="-6.5" font-family="Helvetica,sans-Serif" font-size="10.00" fill="#000000">Swift_KeyCache_NullKeyCache</text>
</a>
</g>
</g>
<!-- Node0&#45;&gt;Node3 -->
<g id="edge3" class="edge">
<title>Node0&#45;&gt;Node3</title>
<path fill="none" stroke="#191970" d="M94.4321,-35.219C118.0458,-29.8643 145.8797,-23.5525 168.0642,-18.5218"/>
<polygon fill="#191970" stroke="#191970" points="93.5775,-31.8239 84.5991,-37.4488 95.1256,-38.6505 93.5775,-31.8239"/>
</g>
</g>
</svg>
