<?xml version="1.0" encoding="UTF-8" standalone="no"?>
<!DOCTYPE svg PUBLIC "-//W3C//DTD SVG 1.1//EN"
 "http://www.w3.org/Graphics/SVG/1.1/DTD/svg11.dtd">
<!-- Generated by graphviz version 2.40.1 (20161225.0304)
 -->
<!-- Title: Графічна ієрархія класів Pages: 1 -->
<svg width="239pt" height="64pt"
 viewBox="0.00 0.00 238.85 64.00" xmlns="http://www.w3.org/2000/svg" xmlns:xlink="http://www.w3.org/1999/xlink">
<g id="graph0" class="graph" transform="scale(1 1) rotate(0) translate(4 60)">
<title>Графічна ієрархія класів</title>
<polygon fill="#ffffff" stroke="transparent" points="-4,4 -4,-60 234.8467,-60 234.8467,4 -4,4"/>
<!-- Node0 -->
<g id="node1" class="node">
<title>Node0</title>
<g id="a_node1"><a xlink:href="class_u_g_cron_job.html" target="_top" xlink:title="UGCronJob">
<polygon fill="#ffffff" stroke="#000000" points="0,-18.5 0,-36.5 68.7979,-36.5 68.7979,-18.5 0,-18.5"/>
<text text-anchor="middle" x="34.3989" y="-24.5" font-family="Helvetica,sans-Serif" font-size="10.00" fill="#000000">UGCronJob</text>
</a>
</g>
</g>
<!-- Node1 -->
<g id="node2" class="node">
<title>Node1</title>
<g id="a_node2"><a xlink:href="class_u_g_c_j_garbage_collection.html" target="_top" xlink:title="UGCJGarbageCollection">
<polygon fill="#ffffff" stroke="#000000" points="104.7979,-37.5 104.7979,-55.5 230.8467,-55.5 230.8467,-37.5 104.7979,-37.5"/>
<text text-anchor="middle" x="167.8223" y="-43.5" font-family="Helvetica,sans-Serif" font-size="10.00" fill="#000000">UGCJGarbageCollection</text>
</a>
</g>
</g>
<!-- Node0&#45;&gt;Node1 -->
<g id="edge1" class="edge">
<title>Node0&#45;&gt;Node1</title>
<path fill="none" stroke="#191970" d="M79.1532,-33.8732C87.3282,-35.0373 95.9984,-36.272 104.5913,-37.4957"/>
<polygon fill="#191970" stroke="#191970" points="79.4996,-30.3873 69.106,-32.4424 78.5127,-37.3174 79.4996,-30.3873"/>
</g>
<!-- Node2 -->
<g id="node3" class="node">
<title>Node2</title>
<g id="a_node3"><a xlink:href="class_u_g_c_j_unban.html" target="_top" xlink:title="UGCJUnban">
<polygon fill="#ffffff" stroke="#000000" points="131.4775,-.5 131.4775,-18.5 204.167,-18.5 204.167,-.5 131.4775,-.5"/>
<text text-anchor="middle" x="167.8223" y="-6.5" font-family="Helvetica,sans-Serif" font-size="10.00" fill="#000000">UGCJUnban</text>
</a>
</g>
</g>
<!-- Node0&#45;&gt;Node2 -->
<g id="edge2" class="edge">
<title>Node0&#45;&gt;Node2</title>
<path fill="none" stroke="#191970" d="M79.3427,-21.4367C96.2934,-19.1499 115.35,-16.579 131.4244,-14.4104"/>
<polygon fill="#191970" stroke="#191970" points="78.5483,-18.0121 69.106,-22.8177 79.4842,-24.9492 78.5483,-18.0121"/>
</g>
</g>
</svg>
