<?xml version="1.0" encoding="UTF-8" standalone="no"?>
<!DOCTYPE svg PUBLIC "-//W3C//DTD SVG 1.1//EN"
 "http://www.w3.org/Graphics/SVG/1.1/DTD/svg11.dtd">
<!-- Generated by graphviz version 2.40.1 (20161225.0304)
 -->
<!-- Title: Графічна ієрархія класів Pages: 1 -->
<svg width="290pt" height="84pt"
 viewBox="0.00 0.00 289.99 84.00" xmlns="http://www.w3.org/2000/svg" xmlns:xlink="http://www.w3.org/1999/xlink">
<g id="graph0" class="graph" transform="scale(1 1) rotate(0) translate(4 80)">
<title>Графічна ієрархія класів</title>
<polygon fill="#ffffff" stroke="transparent" points="-4,4 -4,-80 285.9941,-80 285.9941,4 -4,4"/>
<!-- Node0 -->
<g id="node1" class="node">
<title>Node0</title>
<g id="a_node1"><a xlink:href="interface_swift___plugins___reporter.html" target="_top" xlink:title="Swift_Plugins_Reporter">
<polygon fill="#ffffff" stroke="#000000" points="0,-28.5 0,-46.5 120.4971,-46.5 120.4971,-28.5 0,-28.5"/>
<text text-anchor="middle" x="60.2485" y="-34.5" font-family="Helvetica,sans-Serif" font-size="10.00" fill="#000000">Swift_Plugins_Reporter</text>
</a>
</g>
</g>
<!-- Node1 -->
<g id="node2" class="node">
<title>Node1</title>
<g id="a_node2"><a xlink:href="class_swift___plugins___reporters___hit_reporter.html" target="_top" xlink:title="Swift_Plugins_Reporters\l_HitReporter">
<polygon fill="#ffffff" stroke="#000000" points="156.4971,-47.5 156.4971,-75.5 281.9941,-75.5 281.9941,-47.5 156.4971,-47.5"/>
<text text-anchor="start" x="164.4971" y="-63.5" font-family="Helvetica,sans-Serif" font-size="10.00" fill="#000000">Swift_Plugins_Reporters</text>
<text text-anchor="middle" x="219.2456" y="-53.5" font-family="Helvetica,sans-Serif" font-size="10.00" fill="#000000">_HitReporter</text>
</a>
</g>
</g>
<!-- Node0&#45;&gt;Node1 -->
<g id="edge1" class="edge">
<title>Node0&#45;&gt;Node1</title>
<path fill="none" stroke="#191970" d="M130.0671,-48.0388C138.8072,-49.3581 147.7058,-50.7013 156.3317,-52.0034"/>
<polygon fill="#191970" stroke="#191970" points="130.3159,-44.5368 119.9055,-46.505 129.2711,-51.4584 130.3159,-44.5368"/>
</g>
<!-- Node2 -->
<g id="node3" class="node">
<title>Node2</title>
<g id="a_node3"><a xlink:href="class_swift___plugins___reporters___html_reporter.html" target="_top" xlink:title="Swift_Plugins_Reporters\l_HtmlReporter">
<polygon fill="#ffffff" stroke="#000000" points="156.4971,-.5 156.4971,-28.5 281.9941,-28.5 281.9941,-.5 156.4971,-.5"/>
<text text-anchor="start" x="164.4971" y="-16.5" font-family="Helvetica,sans-Serif" font-size="10.00" fill="#000000">Swift_Plugins_Reporters</text>
<text text-anchor="middle" x="219.2456" y="-6.5" font-family="Helvetica,sans-Serif" font-size="10.00" fill="#000000">_HtmlReporter</text>
</a>
</g>
</g>
<!-- Node0&#45;&gt;Node2 -->
<g id="edge2" class="edge">
<title>Node0&#45;&gt;Node2</title>
<path fill="none" stroke="#191970" d="M130.7733,-27.2981C139.3344,-26.0597 148.0361,-24.8009 156.4744,-23.5803"/>
<polygon fill="#191970" stroke="#191970" points="130.208,-23.8434 120.8121,-28.7391 131.2102,-30.7713 130.208,-23.8434"/>
</g>
</g>
</svg>
