<?xml version="1.0" encoding="UTF-8" standalone="no"?>
<!DOCTYPE svg PUBLIC "-//W3C//DTD SVG 1.1//EN"
 "http://www.w3.org/Graphics/SVG/1.1/DTD/svg11.dtd">
<!-- Generated by graphviz version 2.40.1 (20161225.0304)
 -->
<!-- Title: Графічна ієрархія класів Pages: 1 -->
<svg width="303pt" height="131pt"
 viewBox="0.00 0.00 303.32 131.00" xmlns="http://www.w3.org/2000/svg" xmlns:xlink="http://www.w3.org/1999/xlink">
<g id="graph0" class="graph" transform="scale(1 1) rotate(0) translate(4 127)">
<title>Графічна ієрархія класів</title>
<polygon fill="#ffffff" stroke="transparent" points="-4,4 -4,-127 299.3242,-127 299.3242,4 -4,4"/>
<!-- Node0 -->
<g id="node1" class="node">
<title>Node0</title>
<g id="a_node1"><a xlink:href="interface_swift___character_reader.html" target="_top" xlink:title="Swift_CharacterReader">
<polygon fill="#ffffff" stroke="#000000" points="0,-52.5 0,-70.5 119.9355,-70.5 119.9355,-52.5 0,-52.5"/>
<text text-anchor="middle" x="59.9678" y="-58.5" font-family="Helvetica,sans-Serif" font-size="10.00" fill="#000000">Swift_CharacterReader</text>
</a>
</g>
</g>
<!-- Node1 -->
<g id="node2" class="node">
<title>Node1</title>
<g id="a_node2"><a xlink:href="class_swift___character_reader___generic_fixed_width_reader.html" target="_top" xlink:title="Swift_CharacterReader\l_GenericFixedWidthReader">
<polygon fill="#ffffff" stroke="#000000" points="155.9355,-94.5 155.9355,-122.5 295.3242,-122.5 295.3242,-94.5 155.9355,-94.5"/>
<text text-anchor="start" x="163.9355" y="-110.5" font-family="Helvetica,sans-Serif" font-size="10.00" fill="#000000">Swift_CharacterReader</text>
<text text-anchor="middle" x="225.6299" y="-100.5" font-family="Helvetica,sans-Serif" font-size="10.00" fill="#000000">_GenericFixedWidthReader</text>
</a>
</g>
</g>
<!-- Node0&#45;&gt;Node1 -->
<g id="edge1" class="edge">
<title>Node0&#45;&gt;Node1</title>
<path fill="none" stroke="#191970" d="M101.5718,-73.3035C124.227,-79.731 152.4052,-87.7254 176.1782,-94.4701"/>
<polygon fill="#191970" stroke="#191970" points="102.4847,-69.9244 91.9091,-70.5621 100.5741,-76.6586 102.4847,-69.9244"/>
</g>
<!-- Node2 -->
<g id="node3" class="node">
<title>Node2</title>
<g id="a_node3"><a xlink:href="class_swift___character_reader___us_ascii_reader.html" target="_top" xlink:title="Swift_CharacterReader\l_UsAsciiReader">
<polygon fill="#ffffff" stroke="#000000" points="165.6621,-47.5 165.6621,-75.5 285.5977,-75.5 285.5977,-47.5 165.6621,-47.5"/>
<text text-anchor="start" x="173.6621" y="-63.5" font-family="Helvetica,sans-Serif" font-size="10.00" fill="#000000">Swift_CharacterReader</text>
<text text-anchor="middle" x="225.6299" y="-53.5" font-family="Helvetica,sans-Serif" font-size="10.00" fill="#000000">_UsAsciiReader</text>
</a>
</g>
</g>
<!-- Node0&#45;&gt;Node2 -->
<g id="edge2" class="edge">
<title>Node0&#45;&gt;Node2</title>
<path fill="none" stroke="#191970" d="M130.3765,-61.5C142.0318,-61.5 154.0229,-61.5 165.3983,-61.5"/>
<polygon fill="#191970" stroke="#191970" points="130.2443,-58.0001 120.2442,-61.5 130.2442,-65.0001 130.2443,-58.0001"/>
</g>
<!-- Node3 -->
<g id="node4" class="node">
<title>Node3</title>
<g id="a_node4"><a xlink:href="class_swift___character_reader___utf8_reader.html" target="_top" xlink:title="Swift_CharacterReader\l_Utf8Reader">
<polygon fill="#ffffff" stroke="#000000" points="165.6621,-.5 165.6621,-28.5 285.5977,-28.5 285.5977,-.5 165.6621,-.5"/>
<text text-anchor="start" x="173.6621" y="-16.5" font-family="Helvetica,sans-Serif" font-size="10.00" fill="#000000">Swift_CharacterReader</text>
<text text-anchor="middle" x="225.6299" y="-6.5" font-family="Helvetica,sans-Serif" font-size="10.00" fill="#000000">_Utf8Reader</text>
</a>
</g>
</g>
<!-- Node0&#45;&gt;Node3 -->
<g id="edge3" class="edge">
<title>Node0&#45;&gt;Node3</title>
<path fill="none" stroke="#191970" d="M101.5718,-49.6965C124.227,-43.269 152.4052,-35.2746 176.1782,-28.5299"/>
<polygon fill="#191970" stroke="#191970" points="100.5741,-46.3414 91.9091,-52.4379 102.4847,-53.0756 100.5741,-46.3414"/>
</g>
</g>
</svg>
