<?xml version="1.0" encoding="UTF-8" standalone="no"?>
<!DOCTYPE svg PUBLIC "-//W3C//DTD SVG 1.1//EN"
 "http://www.w3.org/Graphics/SVG/1.1/DTD/svg11.dtd">
<!-- Generated by graphviz version 2.40.1 (20161225.0304)
 -->
<!-- Title: Графічна ієрархія класів Pages: 1 -->
<svg width="647pt" height="648pt"
 viewBox="0.00 0.00 647.14 648.00" xmlns="http://www.w3.org/2000/svg" xmlns:xlink="http://www.w3.org/1999/xlink">
<g id="graph0" class="graph" transform="scale(1 1) rotate(0) translate(4 644)">
<title>Графічна ієрархія класів</title>
<polygon fill="#ffffff" stroke="transparent" points="-4,4 -4,-644 643.1406,-644 643.1406,4 -4,4"/>
<!-- Node0 -->
<g id="node1" class="node">
<title>Node0</title>
<g id="a_node1"><a xlink:href="class_c_k_finder___connector___command_handler___command_handler_base.html" target="_top" xlink:title="CKFinder_Connector\l_CommandHandler_CommandHandlerBase">
<polygon fill="#ffffff" stroke="#000000" points="0,-483.5 0,-511.5 212.2109,-511.5 212.2109,-483.5 0,-483.5"/>
<text text-anchor="start" x="8" y="-499.5" font-family="Helvetica,sans-Serif" font-size="10.00" fill="#000000">CKFinder_Connector</text>
<text text-anchor="middle" x="106.1055" y="-489.5" font-family="Helvetica,sans-Serif" font-size="10.00" fill="#000000">_CommandHandler_CommandHandlerBase</text>
</a>
</g>
</g>
<!-- Node1 -->
<g id="node2" class="node">
<title>Node1</title>
<g id="a_node2"><a xlink:href="class_c_k_finder___connector___command_handler___download_file.html" target="_top" xlink:title="CKFinder_Connector\l_CommandHandler_DownloadFile">
<polygon fill="#ffffff" stroke="#000000" points="249.5928,-554.5 249.5928,-582.5 418.4492,-582.5 418.4492,-554.5 249.5928,-554.5"/>
<text text-anchor="start" x="257.5928" y="-570.5" font-family="Helvetica,sans-Serif" font-size="10.00" fill="#000000">CKFinder_Connector</text>
<text text-anchor="middle" x="334.021" y="-560.5" font-family="Helvetica,sans-Serif" font-size="10.00" fill="#000000">_CommandHandler_DownloadFile</text>
</a>
</g>
</g>
<!-- Node0&#45;&gt;Node1 -->
<g id="edge1" class="edge">
<title>Node0&#45;&gt;Node1</title>
<path fill="none" stroke="#191970" d="M155.0939,-514.9081C182.3709,-524.3834 217.0221,-536.0632 248.2109,-545.5 258.2494,-548.5373 269.0094,-551.5839 279.3994,-554.4205"/>
<polygon fill="#191970" stroke="#191970" points="155.993,-511.5149 145.3982,-511.5251 153.6869,-518.1242 155.993,-511.5149"/>
</g>
<!-- Node2 -->
<g id="node3" class="node">
<title>Node2</title>
<g id="a_node3"><a xlink:href="class_c_k_finder___connector___command_handler___file_upload.html" target="_top" xlink:title="CKFinder_Connector\l_CommandHandler_FileUpload">
<polygon fill="#ffffff" stroke="#000000" points="255.9844,-507.5 255.9844,-535.5 412.0576,-535.5 412.0576,-507.5 255.9844,-507.5"/>
<text text-anchor="start" x="263.9844" y="-523.5" font-family="Helvetica,sans-Serif" font-size="10.00" fill="#000000">CKFinder_Connector</text>
<text text-anchor="middle" x="334.021" y="-513.5" font-family="Helvetica,sans-Serif" font-size="10.00" fill="#000000">_CommandHandler_FileUpload</text>
</a>
</g>
</g>
<!-- Node0&#45;&gt;Node2 -->
<g id="edge2" class="edge">
<title>Node0&#45;&gt;Node2</title>
<path fill="none" stroke="#191970" d="M222.3431,-509.7401C233.6735,-510.9332 244.9739,-512.1231 255.7959,-513.2627"/>
<polygon fill="#191970" stroke="#191970" points="222.7012,-506.2585 212.3896,-508.692 221.9681,-513.22 222.7012,-506.2585"/>
</g>
<!-- Node4 -->
<g id="node5" class="node">
<title>Node4</title>
<g id="a_node5"><a xlink:href="class_c_k_finder___connector___command_handler___thumbnail.html" target="_top" xlink:title="CKFinder_Connector\l_CommandHandler_Thumbnail">
<polygon fill="#ffffff" stroke="#000000" points="256.541,-460.5 256.541,-488.5 411.501,-488.5 411.501,-460.5 256.541,-460.5"/>
<text text-anchor="start" x="264.541" y="-476.5" font-family="Helvetica,sans-Serif" font-size="10.00" fill="#000000">CKFinder_Connector</text>
<text text-anchor="middle" x="334.021" y="-466.5" font-family="Helvetica,sans-Serif" font-size="10.00" fill="#000000">_CommandHandler_Thumbnail</text>
</a>
</g>
</g>
<!-- Node0&#45;&gt;Node4 -->
<g id="edge4" class="edge">
<title>Node0&#45;&gt;Node4</title>
<path fill="none" stroke="#191970" d="M222.5012,-485.754C234.0111,-484.5925 245.4879,-483.4343 256.4616,-482.3269"/>
<polygon fill="#191970" stroke="#191970" points="221.9876,-482.2879 212.3896,-486.7744 222.6905,-489.2526 221.9876,-482.2879"/>
</g>
<!-- Node5 -->
<g id="node6" class="node">
<title>Node5</title>
<g id="a_node6"><a xlink:href="class_c_k_finder___connector___command_handler___xml_command_handler_base.html" target="_top" xlink:title="CKFinder_Connector\l_CommandHandler_XmlCommand\lHandlerBase">
<polygon fill="#ffffff" stroke="#000000" points="248.2109,-300.5 248.2109,-338.5 419.8311,-338.5 419.8311,-300.5 248.2109,-300.5"/>
<text text-anchor="start" x="256.2109" y="-326.5" font-family="Helvetica,sans-Serif" font-size="10.00" fill="#000000">CKFinder_Connector</text>
<text text-anchor="start" x="256.2109" y="-316.5" font-family="Helvetica,sans-Serif" font-size="10.00" fill="#000000">_CommandHandler_XmlCommand</text>
<text text-anchor="middle" x="334.021" y="-306.5" font-family="Helvetica,sans-Serif" font-size="10.00" fill="#000000">HandlerBase</text>
</a>
</g>
</g>
<!-- Node0&#45;&gt;Node5 -->
<g id="edge5" class="edge">
<title>Node0&#45;&gt;Node5</title>
<path fill="none" stroke="#191970" d="M132.3876,-476.9739C176.8752,-442.2295 266.3838,-372.324 309.5878,-338.5821"/>
<polygon fill="#191970" stroke="#191970" points="130.0984,-474.3208 124.3715,-483.2344 134.4071,-479.8376 130.0984,-474.3208"/>
</g>
<!-- Node3 -->
<g id="node4" class="node">
<title>Node3</title>
<g id="a_node4"><a xlink:href="class_c_k_finder___connector___command_handler___quick_upload.html" target="_top" xlink:title="CKFinder_Connector\l_CommandHandler_QuickUpload">
<polygon fill="#ffffff" stroke="#000000" points="464.7251,-611.5 464.7251,-639.5 630.2466,-639.5 630.2466,-611.5 464.7251,-611.5"/>
<text text-anchor="start" x="472.7251" y="-627.5" font-family="Helvetica,sans-Serif" font-size="10.00" fill="#000000">CKFinder_Connector</text>
<text text-anchor="middle" x="547.4858" y="-617.5" font-family="Helvetica,sans-Serif" font-size="10.00" fill="#000000">_CommandHandler_QuickUpload</text>
</a>
</g>
</g>
<!-- Node2&#45;&gt;Node3 -->
<g id="edge3" class="edge">
<title>Node2&#45;&gt;Node3</title>
<path fill="none" stroke="#191970" d="M411.875,-540.2911C414.6422,-541.8879 417.307,-543.6204 419.8311,-545.5 443.8624,-563.3961 431.5616,-584.9282 455.8311,-602.5 460.6148,-605.9636 465.8657,-608.9079 471.3577,-611.4105"/>
<polygon fill="#191970" stroke="#191970" points="413.2354,-537.0562 402.7358,-535.6389 410.0598,-543.2945 413.2354,-537.0562"/>
</g>
<!-- Node6 -->
<g id="node7" class="node">
<title>Node6</title>
<g id="a_node7"><a xlink:href="class_c_k_finder___connector___command_handler___copy_files.html" target="_top" xlink:title="CKFinder_Connector\l_CommandHandler_CopyFiles">
<polygon fill="#ffffff" stroke="#000000" points="471.1216,-564.5 471.1216,-592.5 623.8501,-592.5 623.8501,-564.5 471.1216,-564.5"/>
<text text-anchor="start" x="479.1216" y="-580.5" font-family="Helvetica,sans-Serif" font-size="10.00" fill="#000000">CKFinder_Connector</text>
<text text-anchor="middle" x="547.4858" y="-570.5" font-family="Helvetica,sans-Serif" font-size="10.00" fill="#000000">_CommandHandler_CopyFiles</text>
</a>
</g>
</g>
<!-- Node5&#45;&gt;Node6 -->
<g id="edge6" class="edge">
<title>Node5&#45;&gt;Node6</title>
<path fill="none" stroke="#191970" d="M354.7043,-346.9393C373.5347,-372.8548 401.1671,-413.3351 419.8311,-451.5 441.3193,-495.4403 419.7666,-522.4568 455.8311,-555.5 460.3066,-559.6006 465.4031,-562.9964 470.8475,-565.8054"/>
<polygon fill="#191970" stroke="#191970" points="357.4199,-344.724 348.6814,-338.7333 351.7768,-348.8659 357.4199,-344.724"/>
</g>
<!-- Node7 -->
<g id="node8" class="node">
<title>Node7</title>
<g id="a_node8"><a xlink:href="class_c_k_finder___connector___command_handler___create_folder.html" target="_top" xlink:title="CKFinder_Connector\l_CommandHandler_CreateFolder">
<polygon fill="#ffffff" stroke="#000000" points="464.1709,-517.5 464.1709,-545.5 630.8008,-545.5 630.8008,-517.5 464.1709,-517.5"/>
<text text-anchor="start" x="472.1709" y="-533.5" font-family="Helvetica,sans-Serif" font-size="10.00" fill="#000000">CKFinder_Connector</text>
<text text-anchor="middle" x="547.4858" y="-523.5" font-family="Helvetica,sans-Serif" font-size="10.00" fill="#000000">_CommandHandler_CreateFolder</text>
</a>
</g>
</g>
<!-- Node5&#45;&gt;Node7 -->
<g id="edge7" class="edge">
<title>Node5&#45;&gt;Node7</title>
<path fill="none" stroke="#191970" d="M352.1314,-347.1281C369.5714,-373.7877 396.6448,-415.3161 419.8311,-451.5 435.9968,-476.7279 431.5616,-490.9282 455.8311,-508.5 460.6148,-511.9636 465.8657,-514.9079 471.3577,-517.4105"/>
<polygon fill="#191970" stroke="#191970" points="355.011,-345.1364 346.6059,-338.6862 349.154,-348.9701 355.011,-345.1364"/>
</g>
<!-- Node8 -->
<g id="node9" class="node">
<title>Node8</title>
<g id="a_node9"><a xlink:href="class_c_k_finder___connector___command_handler___delete_file.html" target="_top" xlink:title="CKFinder_Connector\l_CommandHandler_DeleteFile">
<polygon fill="#ffffff" stroke="#000000" points="470.8408,-470.5 470.8408,-498.5 624.1309,-498.5 624.1309,-470.5 470.8408,-470.5"/>
<text text-anchor="start" x="478.8408" y="-486.5" font-family="Helvetica,sans-Serif" font-size="10.00" fill="#000000">CKFinder_Connector</text>
<text text-anchor="middle" x="547.4858" y="-476.5" font-family="Helvetica,sans-Serif" font-size="10.00" fill="#000000">_CommandHandler_DeleteFile</text>
</a>
</g>
</g>
<!-- Node5&#45;&gt;Node8 -->
<g id="edge8" class="edge">
<title>Node5&#45;&gt;Node8</title>
<path fill="none" stroke="#191970" d="M350.4508,-347.492C370.9673,-379.9296 409.1163,-432.6126 455.8311,-461.5 461.4124,-464.9514 467.4872,-467.8857 473.7651,-470.3803"/>
<polygon fill="#191970" stroke="#191970" points="353.3803,-345.5748 345.1392,-338.9164 347.4294,-349.2608 353.3803,-345.5748"/>
</g>
<!-- Node9 -->
<g id="node10" class="node">
<title>Node9</title>
<g id="a_node10"><a xlink:href="class_c_k_finder___connector___command_handler___delete_folder.html" target="_top" xlink:title="CKFinder_Connector\l_CommandHandler_DeleteFolder">
<polygon fill="#ffffff" stroke="#000000" points="464.7251,-423.5 464.7251,-451.5 630.2466,-451.5 630.2466,-423.5 464.7251,-423.5"/>
<text text-anchor="start" x="472.7251" y="-439.5" font-family="Helvetica,sans-Serif" font-size="10.00" fill="#000000">CKFinder_Connector</text>
<text text-anchor="middle" x="547.4858" y="-429.5" font-family="Helvetica,sans-Serif" font-size="10.00" fill="#000000">_CommandHandler_DeleteFolder</text>
</a>
</g>
</g>
<!-- Node5&#45;&gt;Node9 -->
<g id="edge9" class="edge">
<title>Node5&#45;&gt;Node9</title>
<path fill="none" stroke="#191970" d="M360.7664,-345.7813C384.0549,-367.2552 419.6708,-396.8487 455.8311,-414.5 462.9077,-417.9544 470.5528,-420.922 478.3044,-423.4639"/>
<polygon fill="#191970" stroke="#191970" points="363.0483,-343.123 353.3582,-338.839 358.2618,-348.2308 363.0483,-343.123"/>
</g>
<!-- Node10 -->
<g id="node11" class="node">
<title>Node10</title>
<g id="a_node11"><a xlink:href="class_c_k_finder___connector___command_handler___file_editor.html" target="_top" xlink:title="CKFinder_Connector\l_CommandHandler_FileEditor">
<polygon fill="#ffffff" stroke="#000000" points="472.2324,-376.5 472.2324,-404.5 622.7393,-404.5 622.7393,-376.5 472.2324,-376.5"/>
<text text-anchor="start" x="480.2324" y="-392.5" font-family="Helvetica,sans-Serif" font-size="10.00" fill="#000000">CKFinder_Connector</text>
<text text-anchor="middle" x="547.4858" y="-382.5" font-family="Helvetica,sans-Serif" font-size="10.00" fill="#000000">_CommandHandler_FileEditor</text>
</a>
</g>
</g>
<!-- Node5&#45;&gt;Node10 -->
<g id="edge10" class="edge">
<title>Node5&#45;&gt;Node10</title>
<path fill="none" stroke="#191970" d="M387.7502,-342.4081C408.7671,-350.9095 433.2155,-360.2402 455.8311,-367.5 465.672,-370.659 476.2202,-373.6562 486.5315,-376.3798"/>
<polygon fill="#191970" stroke="#191970" points="388.9352,-339.1115 378.3542,-338.5709 386.2887,-345.5919 388.9352,-339.1115"/>
</g>
<!-- Node11 -->
<g id="node12" class="node">
<title>Node11</title>
<g id="a_node12"><a xlink:href="class_c_k_finder___connector___command_handler___get_files.html" target="_top" xlink:title="CKFinder_Connector\l_CommandHandler_GetFiles">
<polygon fill="#ffffff" stroke="#000000" points="474.7349,-329.5 474.7349,-357.5 620.2368,-357.5 620.2368,-329.5 474.7349,-329.5"/>
<text text-anchor="start" x="482.7349" y="-345.5" font-family="Helvetica,sans-Serif" font-size="10.00" fill="#000000">CKFinder_Connector</text>
<text text-anchor="middle" x="547.4858" y="-335.5" font-family="Helvetica,sans-Serif" font-size="10.00" fill="#000000">_CommandHandler_GetFiles</text>
</a>
</g>
</g>
<!-- Node5&#45;&gt;Node11 -->
<g id="edge11" class="edge">
<title>Node5&#45;&gt;Node11</title>
<path fill="none" stroke="#191970" d="M430.1617,-330.3092C445.0362,-331.9815 460.1878,-333.685 474.4456,-335.288"/>
<polygon fill="#191970" stroke="#191970" points="430.2511,-326.7972 419.9226,-329.158 429.4689,-333.7534 430.2511,-326.7972"/>
</g>
<!-- Node12 -->
<g id="node13" class="node">
<title>Node12</title>
<g id="a_node13"><a xlink:href="class_c_k_finder___connector___command_handler___get_folders.html" target="_top" xlink:title="CKFinder_Connector\l_CommandHandler_GetFolders">
<polygon fill="#ffffff" stroke="#000000" points="468.6191,-282.5 468.6191,-310.5 626.3525,-310.5 626.3525,-282.5 468.6191,-282.5"/>
<text text-anchor="start" x="476.6191" y="-298.5" font-family="Helvetica,sans-Serif" font-size="10.00" fill="#000000">CKFinder_Connector</text>
<text text-anchor="middle" x="547.4858" y="-288.5" font-family="Helvetica,sans-Serif" font-size="10.00" fill="#000000">_CommandHandler_GetFolders</text>
</a>
</g>
</g>
<!-- Node5&#45;&gt;Node12 -->
<g id="edge12" class="edge">
<title>Node5&#45;&gt;Node12</title>
<path fill="none" stroke="#191970" d="M430.1122,-309.1466C442.8903,-307.7698 455.8739,-306.3708 468.3205,-305.0298"/>
<polygon fill="#191970" stroke="#191970" points="429.4901,-305.6932 419.9226,-310.2444 430.24,-312.653 429.4901,-305.6932"/>
</g>
<!-- Node13 -->
<g id="node14" class="node">
<title>Node13</title>
<g id="a_node14"><a xlink:href="class_c_k_finder___connector___command_handler___image_resize.html" target="_top" xlink:title="CKFinder_Connector\l_CommandHandler_ImageResize">
<polygon fill="#ffffff" stroke="#000000" points="464.1709,-235.5 464.1709,-263.5 630.8008,-263.5 630.8008,-235.5 464.1709,-235.5"/>
<text text-anchor="start" x="472.1709" y="-251.5" font-family="Helvetica,sans-Serif" font-size="10.00" fill="#000000">CKFinder_Connector</text>
<text text-anchor="middle" x="547.4858" y="-241.5" font-family="Helvetica,sans-Serif" font-size="10.00" fill="#000000">_CommandHandler_ImageResize</text>
</a>
</g>
</g>
<!-- Node5&#45;&gt;Node13 -->
<g id="edge13" class="edge">
<title>Node5&#45;&gt;Node13</title>
<path fill="none" stroke="#191970" d="M390.5127,-296.7549C410.93,-288.9105 434.2633,-280.3753 455.8311,-273.5 466.8013,-270.003 478.625,-266.6239 490.0153,-263.5598"/>
<polygon fill="#191970" stroke="#191970" points="389.1106,-293.5446 381.0501,-300.4206 391.6392,-300.0719 389.1106,-293.5446"/>
</g>
<!-- Node14 -->
<g id="node15" class="node">
<title>Node14</title>
<g id="a_node15"><a xlink:href="class_c_k_finder___connector___command_handler___image_resize_info.html" target="_top" xlink:title="CKFinder_Connector\l_CommandHandler_ImageResizeInfo">
<polygon fill="#ffffff" stroke="#000000" points="455.8311,-188.5 455.8311,-216.5 639.1406,-216.5 639.1406,-188.5 455.8311,-188.5"/>
<text text-anchor="start" x="463.8311" y="-204.5" font-family="Helvetica,sans-Serif" font-size="10.00" fill="#000000">CKFinder_Connector</text>
<text text-anchor="middle" x="547.4858" y="-194.5" font-family="Helvetica,sans-Serif" font-size="10.00" fill="#000000">_CommandHandler_ImageResizeInfo</text>
</a>
</g>
</g>
<!-- Node5&#45;&gt;Node14 -->
<g id="edge14" class="edge">
<title>Node5&#45;&gt;Node14</title>
<path fill="none" stroke="#191970" d="M361.3345,-293.5136C384.7184,-272.5953 420.1711,-243.9059 455.8311,-226.5 463.6654,-222.676 472.1844,-219.4066 480.7687,-216.6262"/>
<polygon fill="#191970" stroke="#191970" points="358.9322,-290.9673 353.8841,-300.2822 363.6392,-296.1484 358.9322,-290.9673"/>
</g>
<!-- Node15 -->
<g id="node16" class="node">
<title>Node15</title>
<g id="a_node16"><a xlink:href="class_c_k_finder___connector___command_handler___init.html" target="_top" xlink:title="CKFinder_Connector\l_CommandHandler_Init">
<polygon fill="#ffffff" stroke="#000000" points="486.6807,-141.5 486.6807,-169.5 608.291,-169.5 608.291,-141.5 486.6807,-141.5"/>
<text text-anchor="start" x="494.6807" y="-157.5" font-family="Helvetica,sans-Serif" font-size="10.00" fill="#000000">CKFinder_Connector</text>
<text text-anchor="middle" x="547.4858" y="-147.5" font-family="Helvetica,sans-Serif" font-size="10.00" fill="#000000">_CommandHandler_Init</text>
</a>
</g>
</g>
<!-- Node5&#45;&gt;Node15 -->
<g id="edge15" class="edge">
<title>Node5&#45;&gt;Node15</title>
<path fill="none" stroke="#191970" d="M350.8632,-291.5779C371.5826,-259.6468 409.7382,-208.1055 455.8311,-179.5 465.0553,-173.7754 475.6153,-169.4073 486.2092,-166.0768"/>
<polygon fill="#191970" stroke="#191970" points="347.6542,-290.102 345.2463,-300.4196 353.5628,-293.8556 347.6542,-290.102"/>
</g>
<!-- Node16 -->
<g id="node17" class="node">
<title>Node16</title>
<g id="a_node17"><a xlink:href="class_c_k_finder___connector___command_handler___move_files.html" target="_top" xlink:title="CKFinder_Connector\l_CommandHandler_MoveFiles">
<polygon fill="#ffffff" stroke="#000000" points="470.5674,-94.5 470.5674,-122.5 624.4043,-122.5 624.4043,-94.5 470.5674,-94.5"/>
<text text-anchor="start" x="478.5674" y="-110.5" font-family="Helvetica,sans-Serif" font-size="10.00" fill="#000000">CKFinder_Connector</text>
<text text-anchor="middle" x="547.4858" y="-100.5" font-family="Helvetica,sans-Serif" font-size="10.00" fill="#000000">_CommandHandler_MoveFiles</text>
</a>
</g>
</g>
<!-- Node5&#45;&gt;Node16 -->
<g id="edge16" class="edge">
<title>Node5&#45;&gt;Node16</title>
<path fill="none" stroke="#191970" d="M344.8553,-290.7291C361.9625,-249.2943 399.2176,-173.3262 455.8311,-132.5 461.3011,-128.5553 467.3699,-125.2586 473.7055,-122.5034"/>
<polygon fill="#191970" stroke="#191970" points="341.5166,-289.651 341.0351,-300.2349 348.0117,-292.2613 341.5166,-289.651"/>
</g>
<!-- Node17 -->
<g id="node18" class="node">
<title>Node17</title>
<g id="a_node18"><a xlink:href="class_c_k_finder___connector___command_handler___rename_file.html" target="_top" xlink:title="CKFinder_Connector\l_CommandHandler_RenameFile">
<polygon fill="#ffffff" stroke="#000000" points="466.395,-47.5 466.395,-75.5 628.5767,-75.5 628.5767,-47.5 466.395,-47.5"/>
<text text-anchor="start" x="474.395" y="-63.5" font-family="Helvetica,sans-Serif" font-size="10.00" fill="#000000">CKFinder_Connector</text>
<text text-anchor="middle" x="547.4858" y="-53.5" font-family="Helvetica,sans-Serif" font-size="10.00" fill="#000000">_CommandHandler_RenameFile</text>
</a>
</g>
</g>
<!-- Node5&#45;&gt;Node17 -->
<g id="edge17" class="edge">
<title>Node5&#45;&gt;Node17</title>
<path fill="none" stroke="#191970" d="M340.8679,-290.5725C354.1705,-240.8576 388.3176,-139.3703 455.8311,-85.5 460.7169,-81.6015 466.1717,-78.3316 471.9189,-75.5895"/>
<polygon fill="#191970" stroke="#191970" points="337.4521,-289.8021 338.3412,-300.3595 344.2299,-291.5519 337.4521,-289.8021"/>
</g>
<!-- Node18 -->
<g id="node19" class="node">
<title>Node18</title>
<g id="a_node19"><a xlink:href="class_c_k_finder___connector___command_handler___rename_folder.html" target="_top" xlink:title="CKFinder_Connector\l_CommandHandler_RenameFolder">
<polygon fill="#ffffff" stroke="#000000" points="460.2793,-.5 460.2793,-28.5 634.6924,-28.5 634.6924,-.5 460.2793,-.5"/>
<text text-anchor="start" x="468.2793" y="-16.5" font-family="Helvetica,sans-Serif" font-size="10.00" fill="#000000">CKFinder_Connector</text>
<text text-anchor="middle" x="547.4858" y="-6.5" font-family="Helvetica,sans-Serif" font-size="10.00" fill="#000000">_CommandHandler_RenameFolder</text>
</a>
</g>
</g>
<!-- Node5&#45;&gt;Node18 -->
<g id="edge18" class="edge">
<title>Node5&#45;&gt;Node18</title>
<path fill="none" stroke="#191970" d="M338.1468,-290.2678C347.8101,-233.0107 377.3442,-105.8158 455.8311,-38.5 460.3259,-34.6449 465.369,-31.3995 470.7174,-28.6685"/>
<polygon fill="#191970" stroke="#191970" points="334.6445,-290.0042 336.5183,-300.432 341.5563,-291.1117 334.6445,-290.0042"/>
</g>
</g>
</svg>
