<?xml version="1.0" encoding="UTF-8" standalone="no"?>
<!DOCTYPE svg PUBLIC "-//W3C//DTD SVG 1.1//EN"
 "http://www.w3.org/Graphics/SVG/1.1/DTD/svg11.dtd">
<!-- Generated by graphviz version 2.40.1 (20161225.0304)
 -->
<!-- Title: Графічна ієрархія класів Pages: 1 -->
<svg width="232pt" height="101pt"
 viewBox="0.00 0.00 231.60 101.00" xmlns="http://www.w3.org/2000/svg" xmlns:xlink="http://www.w3.org/1999/xlink">
<g id="graph0" class="graph" transform="scale(1 1) rotate(0) translate(4 97)">
<title>Графічна ієрархія класів</title>
<polygon fill="#ffffff" stroke="transparent" points="-4,4 -4,-97 227.6006,-97 227.6006,4 -4,4"/>
<!-- Node0 -->
<g id="node1" class="node">
<title>Node0</title>
<g id="a_node1"><a xlink:href="interface_u_g_mail_message.html" target="_top" xlink:title="UGMailMessage">
<polygon fill="#ffffff" stroke="#000000" points="0,-37.5 0,-55.5 89.9111,-55.5 89.9111,-37.5 0,-37.5"/>
<text text-anchor="middle" x="44.9556" y="-43.5" font-family="Helvetica,sans-Serif" font-size="10.00" fill="#000000">UGMailMessage</text>
</a>
</g>
</g>
<!-- Node1 -->
<g id="node2" class="node">
<title>Node1</title>
<g id="a_node2"><a xlink:href="class_u_g_mail_activation.html" target="_top" xlink:title="UGMailActivation">
<polygon fill="#ffffff" stroke="#000000" points="128.4111,-74.5 128.4111,-92.5 221.1006,-92.5 221.1006,-74.5 128.4111,-74.5"/>
<text text-anchor="middle" x="174.7559" y="-80.5" font-family="Helvetica,sans-Serif" font-size="10.00" fill="#000000">UGMailActivation</text>
</a>
</g>
</g>
<!-- Node0&#45;&gt;Node1 -->
<g id="edge1" class="edge">
<title>Node0&#45;&gt;Node1</title>
<path fill="none" stroke="#191970" d="M86.5179,-58.3475C104.7816,-63.5536 125.8899,-69.5706 142.8811,-74.414"/>
<polygon fill="#191970" stroke="#191970" points="87.2847,-54.9267 76.7083,-55.5512 85.3657,-61.6585 87.2847,-54.9267"/>
</g>
<!-- Node2 -->
<g id="node3" class="node">
<title>Node2</title>
<g id="a_node3"><a xlink:href="class_u_g_mail_invitation.html" target="_top" xlink:title="UGMailInvitation">
<polygon fill="#ffffff" stroke="#000000" points="130.0762,-37.5 130.0762,-55.5 219.4355,-55.5 219.4355,-37.5 130.0762,-37.5"/>
<text text-anchor="middle" x="174.7559" y="-43.5" font-family="Helvetica,sans-Serif" font-size="10.00" fill="#000000">UGMailInvitation</text>
</a>
</g>
</g>
<!-- Node0&#45;&gt;Node2 -->
<g id="edge2" class="edge">
<title>Node0&#45;&gt;Node2</title>
<path fill="none" stroke="#191970" d="M100.1473,-46.5C110.0401,-46.5 120.2409,-46.5 129.8019,-46.5"/>
<polygon fill="#191970" stroke="#191970" points="99.9892,-43.0001 89.9891,-46.5 99.9891,-50.0001 99.9892,-43.0001"/>
</g>
<!-- Node3 -->
<g id="node4" class="node">
<title>Node3</title>
<g id="a_node4"><a xlink:href="class_u_g_mail_pass_reset.html" target="_top" xlink:title="UGMailPassReset">
<polygon fill="#ffffff" stroke="#000000" points="125.9111,-.5 125.9111,-18.5 223.6006,-18.5 223.6006,-.5 125.9111,-.5"/>
<text text-anchor="middle" x="174.7559" y="-6.5" font-family="Helvetica,sans-Serif" font-size="10.00" fill="#000000">UGMailPassReset</text>
</a>
</g>
</g>
<!-- Node0&#45;&gt;Node3 -->
<g id="edge3" class="edge">
<title>Node0&#45;&gt;Node3</title>
<path fill="none" stroke="#191970" d="M86.5179,-34.6525C104.7816,-29.4464 125.8899,-23.4294 142.8811,-18.586"/>
<polygon fill="#191970" stroke="#191970" points="85.3657,-31.3415 76.7083,-37.4488 87.2847,-38.0733 85.3657,-31.3415"/>
</g>
</g>
</svg>
