<?xml version="1.0" encoding="UTF-8" standalone="no"?>
<!DOCTYPE svg PUBLIC "-//W3C//DTD SVG 1.1//EN"
 "http://www.w3.org/Graphics/SVG/1.1/DTD/svg11.dtd">
<!-- Generated by graphviz version 2.40.1 (20161225.0304)
 -->
<!-- Title: Графічна ієрархія класів Pages: 1 -->
<svg width="256pt" height="1470pt"
 viewBox="0.00 0.00 256.08 1470.00" xmlns="http://www.w3.org/2000/svg" xmlns:xlink="http://www.w3.org/1999/xlink">
<g id="graph0" class="graph" transform="scale(1 1) rotate(0) translate(4 1466)">
<title>Графічна ієрархія класів</title>
<polygon fill="#ffffff" stroke="transparent" points="-4,4 -4,-1466 252.0781,-1466 252.0781,4 -4,4"/>
<!-- Node1635 -->
<g id="node1" class="node">
<title>Node1635</title>
<polygon fill="#ffffff" stroke="#bfbfbf" points="0,-721.5 0,-739.5 82.6895,-739.5 82.6895,-721.5 0,-721.5"/>
<text text-anchor="middle" x="41.3447" y="-727.5" font-family="Helvetica,sans-Serif" font-size="10.00" fill="#000000">CActiveRecord</text>
</g>
<!-- Node0 -->
<g id="node2" class="node">
<title>Node0</title>
<g id="a_node2"><a xlink:href="class_atype_htype_rel.html" target="_top" xlink:title="AtypeHtypeRel">
<polygon fill="#ffffff" stroke="#000000" points="142.0342,-1443.5 142.0342,-1461.5 224.7334,-1461.5 224.7334,-1443.5 142.0342,-1443.5"/>
<text text-anchor="middle" x="183.3838" y="-1449.5" font-family="Helvetica,sans-Serif" font-size="10.00" fill="#000000">AtypeHtypeRel</text>
</a>
</g>
</g>
<!-- Node1635&#45;&gt;Node0 -->
<g id="edge1" class="edge">
<title>Node1635&#45;&gt;Node0</title>
<path fill="none" stroke="#191970" d="M42.1824,-749.6546C47.0403,-856.9715 72.977,-1380.7133 118.6895,-1434.5 124.6539,-1441.5179 133.098,-1445.9186 141.9233,-1448.649"/>
<polygon fill="#191970" stroke="#191970" points="45.6773,-749.4594 41.7354,-739.6252 38.6842,-749.7711 45.6773,-749.4594"/>
</g>
<!-- Node1637 -->
<g id="node3" class="node">
<title>Node1637</title>
<g id="a_node3"><a xlink:href="class_authority.html" target="_top" xlink:title="Authority">
<polygon fill="#ffffff" stroke="#000000" points="155.6523,-1406.5 155.6523,-1424.5 211.1152,-1424.5 211.1152,-1406.5 155.6523,-1406.5"/>
<text text-anchor="middle" x="183.3838" y="-1412.5" font-family="Helvetica,sans-Serif" font-size="10.00" fill="#000000">Authority</text>
</a>
</g>
</g>
<!-- Node1635&#45;&gt;Node1637 -->
<g id="edge2" class="edge">
<title>Node1635&#45;&gt;Node1637</title>
<path fill="none" stroke="#191970" d="M42.3026,-749.6115C47.67,-853.4279 75.3321,-1346.7944 118.6895,-1397.5 127.7056,-1408.0442 142.3187,-1412.675 155.3771,-1414.6117"/>
<polygon fill="#191970" stroke="#191970" points="45.7981,-749.431 41.7934,-739.6222 38.8072,-749.7875 45.7981,-749.431"/>
</g>
<!-- Node1638 -->
<g id="node4" class="node">
<title>Node1638</title>
<g id="a_node4"><a xlink:href="class_authority_relation.html" target="_top" xlink:title="AuthorityRelation">
<polygon fill="#ffffff" stroke="#000000" points="137.3076,-1369.5 137.3076,-1387.5 229.46,-1387.5 229.46,-1369.5 137.3076,-1369.5"/>
<text text-anchor="middle" x="183.3838" y="-1375.5" font-family="Helvetica,sans-Serif" font-size="10.00" fill="#000000">AuthorityRelation</text>
</a>
</g>
</g>
<!-- Node1635&#45;&gt;Node1638 -->
<g id="edge3" class="edge">
<title>Node1635&#45;&gt;Node1638</title>
<path fill="none" stroke="#191970" d="M42.4494,-749.7878C48.3809,-850.47 77.7136,-1312.9039 118.6895,-1360.5 123.5575,-1366.1545 130.0349,-1370.1068 137.0127,-1372.8545"/>
<polygon fill="#191970" stroke="#191970" points="45.9305,-749.358 41.8557,-739.5781 38.9423,-749.7645 45.9305,-749.358"/>
</g>
<!-- Node1639 -->
<g id="node5" class="node">
<title>Node1639</title>
<g id="a_node5"><a xlink:href="class_authority_type.html" target="_top" xlink:title="AuthorityType">
<polygon fill="#ffffff" stroke="#000000" points="144.8101,-1332.5 144.8101,-1350.5 221.9575,-1350.5 221.9575,-1332.5 144.8101,-1332.5"/>
<text text-anchor="middle" x="183.3838" y="-1338.5" font-family="Helvetica,sans-Serif" font-size="10.00" fill="#000000">AuthorityType</text>
</a>
</g>
</g>
<!-- Node1635&#45;&gt;Node1639 -->
<g id="edge4" class="edge">
<title>Node1635&#45;&gt;Node1639</title>
<path fill="none" stroke="#191970" d="M42.63,-750.1739C49.1878,-847.9902 80.1173,-1279.0361 118.6895,-1323.5 125.3358,-1331.1616 134.9366,-1335.6946 144.716,-1338.3406"/>
<polygon fill="#191970" stroke="#191970" points="46.1058,-749.692 41.9522,-739.9454 39.1212,-750.1549 46.1058,-749.692"/>
</g>
<!-- Node1640 -->
<g id="node6" class="node">
<title>Node1640</title>
<g id="a_node6"><a xlink:href="class_comment.html" target="_top" xlink:title="Comment">
<polygon fill="#ffffff" stroke="#000000" points="153.7114,-1295.5 153.7114,-1313.5 213.0562,-1313.5 213.0562,-1295.5 153.7114,-1295.5"/>
<text text-anchor="middle" x="183.3838" y="-1301.5" font-family="Helvetica,sans-Serif" font-size="10.00" fill="#000000">Comment</text>
</a>
</g>
</g>
<!-- Node1635&#45;&gt;Node1640 -->
<g id="edge5" class="edge">
<title>Node1635&#45;&gt;Node1640</title>
<path fill="none" stroke="#191970" d="M42.7818,-749.8218C49.8916,-843.2129 82.4188,-1245.0474 118.6895,-1286.5 127.3645,-1296.4144 140.9861,-1301.0833 153.4971,-1303.2059"/>
<polygon fill="#191970" stroke="#191970" points="46.2678,-749.5031 42.0264,-739.7943 39.2875,-750.029 46.2678,-749.5031"/>
</g>
<!-- Node1641 -->
<g id="node7" class="node">
<title>Node1641</title>
<g id="a_node7"><a xlink:href="class_comment_setting.html" target="_top" xlink:title="CommentSetting">
<polygon fill="#ffffff" stroke="#000000" points="138.145,-1258.5 138.145,-1276.5 228.6226,-1276.5 228.6226,-1258.5 138.145,-1258.5"/>
<text text-anchor="middle" x="183.3838" y="-1264.5" font-family="Helvetica,sans-Serif" font-size="10.00" fill="#000000">CommentSetting</text>
</a>
</g>
</g>
<!-- Node1635&#45;&gt;Node1641 -->
<g id="edge6" class="edge">
<title>Node1635&#45;&gt;Node1641</title>
<path fill="none" stroke="#191970" d="M41.5088,-749.7951C42.6218,-834.5779 51.284,-1173.2154 118.6895,-1249.5 123.8615,-1255.3534 130.7577,-1259.3758 138.1212,-1262.1248"/>
<polygon fill="#191970" stroke="#191970" points="45.0062,-749.5313 41.3965,-739.5704 38.0066,-749.6083 45.0062,-749.5313"/>
</g>
<!-- Node1642 -->
<g id="node8" class="node">
<title>Node1642</title>
<g id="a_node8"><a xlink:href="class_event.html" target="_top" xlink:title="Event">
<polygon fill="#ffffff" stroke="#000000" points="162.5981,-1221.5 162.5981,-1239.5 204.1694,-1239.5 204.1694,-1221.5 162.5981,-1221.5"/>
<text text-anchor="middle" x="183.3838" y="-1227.5" font-family="Helvetica,sans-Serif" font-size="10.00" fill="#000000">Event</text>
</a>
</g>
</g>
<!-- Node1635&#45;&gt;Node1642 -->
<g id="edge7" class="edge">
<title>Node1635&#45;&gt;Node1642</title>
<path fill="none" stroke="#191970" d="M41.7559,-749.95C43.8663,-831.1775 55.9838,-1142.3282 118.6895,-1212.5 129.6426,-1224.7573 148.1559,-1228.9729 162.5785,-1230.2869"/>
<polygon fill="#191970" stroke="#191970" points="45.2488,-749.6041 41.5124,-739.69 38.2508,-749.7703 45.2488,-749.6041"/>
</g>
<!-- Node1643 -->
<g id="node9" class="node">
<title>Node1643</title>
<g id="a_node9"><a xlink:href="class_event_media.html" target="_top" xlink:title="EventMedia">
<polygon fill="#ffffff" stroke="#000000" points="148.98,-1184.5 148.98,-1202.5 217.7876,-1202.5 217.7876,-1184.5 148.98,-1184.5"/>
<text text-anchor="middle" x="183.3838" y="-1190.5" font-family="Helvetica,sans-Serif" font-size="10.00" fill="#000000">EventMedia</text>
</a>
</g>
</g>
<!-- Node1635&#45;&gt;Node1643 -->
<g id="edge8" class="edge">
<title>Node1635&#45;&gt;Node1643</title>
<path fill="none" stroke="#191970" d="M42.0395,-749.9205C45.1922,-827.1433 60.6215,-1111.3607 118.6895,-1175.5 126.4357,-1184.0561 137.8658,-1188.6865 148.9721,-1191.148"/>
<polygon fill="#191970" stroke="#191970" points="45.5291,-749.58 41.6469,-739.7221 38.5343,-749.8493 45.5291,-749.58"/>
</g>
<!-- Node1644 -->
<g id="node10" class="node">
<title>Node1644</title>
<g id="a_node10"><a xlink:href="class_event_tree.html" target="_top" xlink:title="EventTree">
<polygon fill="#ffffff" stroke="#000000" points="152.5005,-1147.5 152.5005,-1165.5 214.2671,-1165.5 214.2671,-1147.5 152.5005,-1147.5"/>
<text text-anchor="middle" x="183.3838" y="-1153.5" font-family="Helvetica,sans-Serif" font-size="10.00" fill="#000000">EventTree</text>
</a>
</g>
</g>
<!-- Node1635&#45;&gt;Node1644 -->
<g id="edge9" class="edge">
<title>Node1635&#45;&gt;Node1644</title>
<path fill="none" stroke="#191970" d="M42.3608,-749.6935C46.5967,-822.4817 65.1956,-1080.3116 118.6895,-1138.5 127.2897,-1147.855 140.2948,-1152.5069 152.3945,-1154.7646"/>
<polygon fill="#191970" stroke="#191970" points="45.8527,-749.4487 41.8012,-739.6592 38.8636,-749.8386 45.8527,-749.4487"/>
</g>
<!-- Node1645 -->
<g id="node11" class="node">
<title>Node1645</title>
<g id="a_node11"><a xlink:href="class_event_type.html" target="_top" xlink:title="EventType">
<polygon fill="#ffffff" stroke="#000000" points="151.7559,-1110.5 151.7559,-1128.5 215.0117,-1128.5 215.0117,-1110.5 151.7559,-1110.5"/>
<text text-anchor="middle" x="183.3838" y="-1116.5" font-family="Helvetica,sans-Serif" font-size="10.00" fill="#000000">EventType</text>
</a>
</g>
</g>
<!-- Node1635&#45;&gt;Node1645 -->
<g id="edge10" class="edge">
<title>Node1635&#45;&gt;Node1645</title>
<path fill="none" stroke="#191970" d="M42.7898,-750.1278C48.2602,-819.1585 69.9113,-1049.3999 118.6895,-1101.5 127.1354,-1110.5211 139.6787,-1115.1577 151.4783,-1117.494"/>
<polygon fill="#191970" stroke="#191970" points="46.2547,-749.5349 42.0007,-739.8316 39.2752,-750.0698 46.2547,-749.5349"/>
</g>
<!-- Node1646 -->
<g id="node12" class="node">
<title>Node1646</title>
<g id="a_node12"><a xlink:href="class_globals.html" target="_top" xlink:title="Globals">
<polygon fill="#ffffff" stroke="#000000" points="158.4307,-1073.5 158.4307,-1091.5 208.3369,-1091.5 208.3369,-1073.5 158.4307,-1073.5"/>
<text text-anchor="middle" x="183.3838" y="-1079.5" font-family="Helvetica,sans-Serif" font-size="10.00" fill="#000000">Globals</text>
</a>
</g>
</g>
<!-- Node1635&#45;&gt;Node1646 -->
<g id="edge11" class="edge">
<title>Node1635&#45;&gt;Node1646</title>
<path fill="none" stroke="#191970" d="M43.2461,-749.8006C49.9387,-813.8997 74.4244,-1018.252 118.6895,-1064.5 128.8465,-1075.112 144.6773,-1079.6383 158.1362,-1081.4988"/>
<polygon fill="#191970" stroke="#191970" points="46.6959,-749.1287 42.2028,-739.5338 39.7318,-749.8365 46.6959,-749.1287"/>
</g>
<!-- Node1647 -->
<g id="node13" class="node">
<title>Node1647</title>
<g id="a_node13"><a xlink:href="class_hole_answer_files.html" target="_top" xlink:title="HoleAnswerFiles">
<polygon fill="#ffffff" stroke="#000000" points="137.8716,-1036.5 137.8716,-1054.5 228.896,-1054.5 228.896,-1036.5 137.8716,-1036.5"/>
<text text-anchor="middle" x="183.3838" y="-1042.5" font-family="Helvetica,sans-Serif" font-size="10.00" fill="#000000">HoleAnswerFiles</text>
</a>
</g>
</g>
<!-- Node1635&#45;&gt;Node1647 -->
<g id="edge12" class="edge">
<title>Node1635&#45;&gt;Node1647</title>
<path fill="none" stroke="#191970" d="M43.8646,-749.9468C51.9456,-809.4031 79.0214,-987.1677 118.6895,-1027.5 123.9214,-1032.8196 130.5808,-1036.6043 137.6269,-1039.2893"/>
<polygon fill="#191970" stroke="#191970" points="47.291,-749.1603 42.5036,-739.7088 40.352,-750.0828 47.291,-749.1603"/>
</g>
<!-- Node1648 -->
<g id="node14" class="node">
<title>Node1648</title>
<g id="a_node14"><a xlink:href="class_hole_answer_results.html" target="_top" xlink:title="HoleAnswerResults">
<polygon fill="#ffffff" stroke="#000000" points="131.7559,-999.5 131.7559,-1017.5 235.0117,-1017.5 235.0117,-999.5 131.7559,-999.5"/>
<text text-anchor="middle" x="183.3838" y="-1005.5" font-family="Helvetica,sans-Serif" font-size="10.00" fill="#000000">HoleAnswerResults</text>
</a>
</g>
</g>
<!-- Node1635&#45;&gt;Node1648 -->
<g id="edge13" class="edge">
<title>Node1635&#45;&gt;Node1648</title>
<path fill="none" stroke="#191970" d="M44.5776,-749.6256C54.0809,-803.6826 83.4833,-955.9141 118.6895,-990.5 122.4319,-994.1765 126.8577,-997.1167 131.6108,-999.4658"/>
<polygon fill="#191970" stroke="#191970" points="48.0071,-748.9169 42.8568,-739.6582 41.1091,-750.1079 48.0071,-748.9169"/>
</g>
<!-- Node1649 -->
<g id="node15" class="node">
<title>Node1649</title>
<g id="a_node15"><a xlink:href="class_hole_answers.html" target="_top" xlink:title="HoleAnswers">
<polygon fill="#ffffff" stroke="#000000" points="145.9282,-962.5 145.9282,-980.5 220.8394,-980.5 220.8394,-962.5 145.9282,-962.5"/>
<text text-anchor="middle" x="183.3838" y="-968.5" font-family="Helvetica,sans-Serif" font-size="10.00" fill="#000000">HoleAnswers</text>
</a>
</g>
</g>
<!-- Node1635&#45;&gt;Node1649 -->
<g id="edge14" class="edge">
<title>Node1635&#45;&gt;Node1649</title>
<path fill="none" stroke="#191970" d="M42.2681,-749.9886C45.3907,-793.1648 59.0482,-897.4738 118.6895,-953.5 126.082,-960.4444 135.9217,-964.7477 145.6915,-967.403"/>
<polygon fill="#191970" stroke="#191970" points="45.7456,-749.5091 41.6476,-739.7389 38.7584,-749.9322 45.7456,-749.5091"/>
</g>
<!-- Node1650 -->
<g id="node16" class="node">
<title>Node1650</title>
<g id="a_node16"><a xlink:href="class_hole_check.html" target="_top" xlink:title="HoleCheck">
<polygon fill="#ffffff" stroke="#000000" points="150.9282,-925.5 150.9282,-943.5 215.8394,-943.5 215.8394,-925.5 150.9282,-925.5"/>
<text text-anchor="middle" x="183.3838" y="-931.5" font-family="Helvetica,sans-Serif" font-size="10.00" fill="#000000">HoleCheck</text>
</a>
</g>
</g>
<!-- Node1635&#45;&gt;Node1650 -->
<g id="edge15" class="edge">
<title>Node1635&#45;&gt;Node1650</title>
<path fill="none" stroke="#191970" d="M43.8193,-750.0733C49.6649,-787.9688 67.8799,-871.5719 118.6895,-916.5 127.5104,-924.2999 139.4411,-928.747 150.6547,-931.2727"/>
<polygon fill="#191970" stroke="#191970" points="47.243,-749.2862 42.3799,-739.8734 40.3117,-750.2644 47.243,-749.2862"/>
</g>
<!-- Node1651 -->
<g id="node17" class="node">
<title>Node1651</title>
<g id="a_node17"><a xlink:href="class_hole_fixeds.html" target="_top" xlink:title="HoleFixeds">
<polygon fill="#ffffff" stroke="#000000" points="150.374,-888.5 150.374,-906.5 216.3936,-906.5 216.3936,-888.5 150.374,-888.5"/>
<text text-anchor="middle" x="183.3838" y="-894.5" font-family="Helvetica,sans-Serif" font-size="10.00" fill="#000000">HoleFixeds</text>
</a>
</g>
</g>
<!-- Node1635&#45;&gt;Node1651 -->
<g id="edge16" class="edge">
<title>Node1635&#45;&gt;Node1651</title>
<path fill="none" stroke="#191970" d="M45.9547,-749.6757C54.6154,-781.5128 76.3774,-845.1661 118.6895,-879.5 127.6518,-886.7724 139.3574,-891.112 150.3443,-893.6995"/>
<polygon fill="#191970" stroke="#191970" points="49.3061,-748.6546 43.4255,-739.8416 42.5267,-750.3982 49.3061,-748.6546"/>
</g>
<!-- Node1652 -->
<g id="node18" class="node">
<title>Node1652</title>
<g id="a_node18"><a xlink:href="class_hole_pictures.html" target="_top" xlink:title="HolePictures">
<polygon fill="#ffffff" stroke="#000000" points="147.0391,-851.5 147.0391,-869.5 219.7285,-869.5 219.7285,-851.5 147.0391,-851.5"/>
<text text-anchor="middle" x="183.3838" y="-857.5" font-family="Helvetica,sans-Serif" font-size="10.00" fill="#000000">HolePictures</text>
</a>
</g>
</g>
<!-- Node1635&#45;&gt;Node1652 -->
<g id="edge17" class="edge">
<title>Node1635&#45;&gt;Node1652</title>
<path fill="none" stroke="#191970" d="M49.2115,-749.0884C60.7567,-774.1084 84.6696,-818.2697 118.6895,-842.5 126.9509,-848.3841 137.0689,-852.3478 146.8275,-855.0167"/>
<polygon fill="#191970" stroke="#191970" points="52.2802,-747.3745 45.0273,-739.6514 45.881,-750.2118 52.2802,-747.3745"/>
</g>
<!-- Node1653 -->
<g id="node19" class="node">
<title>Node1653</title>
<g id="a_node19"><a xlink:href="class_hole_requests.html" target="_top" xlink:title="HoleRequests">
<polygon fill="#ffffff" stroke="#000000" points="143.9775,-814.5 143.9775,-832.5 222.79,-832.5 222.79,-814.5 143.9775,-814.5"/>
<text text-anchor="middle" x="183.3838" y="-820.5" font-family="Helvetica,sans-Serif" font-size="10.00" fill="#000000">HoleRequests</text>
</a>
</g>
</g>
<!-- Node1635&#45;&gt;Node1653 -->
<g id="edge18" class="edge">
<title>Node1635&#45;&gt;Node1653</title>
<path fill="none" stroke="#191970" d="M54.6152,-747.6476C68.7258,-764.7346 92.5752,-790.5241 118.6895,-805.5 126.3756,-809.9078 135.1999,-813.2849 143.8091,-815.8548"/>
<polygon fill="#191970" stroke="#191970" points="57.1524,-745.2171 48.1636,-739.6089 51.6931,-749.5986 57.1524,-745.2171"/>
</g>
<!-- Node1654 -->
<g id="node20" class="node">
<title>Node1654</title>
<g id="a_node20"><a xlink:href="class_hole_request_sent.html" target="_top" xlink:title="HoleRequestSent">
<polygon fill="#ffffff" stroke="#000000" points="136.1919,-777.5 136.1919,-795.5 230.5757,-795.5 230.5757,-777.5 136.1919,-777.5"/>
<text text-anchor="middle" x="183.3838" y="-783.5" font-family="Helvetica,sans-Serif" font-size="10.00" fill="#000000">HoleRequestSent</text>
</a>
</g>
</g>
<!-- Node1635&#45;&gt;Node1654 -->
<g id="edge19" class="edge">
<title>Node1635&#45;&gt;Node1654</title>
<path fill="none" stroke="#191970" d="M66.6065,-744.3922C81.4675,-752.1866 100.7986,-761.6836 118.6895,-768.5 127.5139,-771.8621 137.2308,-774.8986 146.3921,-777.4791"/>
<polygon fill="#191970" stroke="#191970" points="68.0171,-741.1779 57.5464,-739.5613 64.7236,-747.3547 68.0171,-741.1779"/>
</g>
<!-- Node1655 -->
<g id="node21" class="node">
<title>Node1655</title>
<g id="a_node21"><a xlink:href="class_holes.html" target="_top" xlink:title="Holes">
<polygon fill="#ffffff" stroke="#000000" points="162.6006,-740.5 162.6006,-758.5 204.167,-758.5 204.167,-740.5 162.6006,-740.5"/>
<text text-anchor="middle" x="183.3838" y="-746.5" font-family="Helvetica,sans-Serif" font-size="10.00" fill="#000000">Holes</text>
</a>
</g>
</g>
<!-- Node1635&#45;&gt;Node1655 -->
<g id="edge20" class="edge">
<title>Node1635&#45;&gt;Node1655</title>
<path fill="none" stroke="#191970" d="M92.842,-737.3886C116.7907,-740.5921 143.9504,-744.2252 162.2234,-746.6695"/>
<polygon fill="#191970" stroke="#191970" points="93.1859,-733.9035 82.8101,-736.0467 92.2578,-740.8417 93.1859,-733.9035"/>
</g>
<!-- Node1656 -->
<g id="node22" class="node">
<title>Node1656</title>
<g id="a_node22"><a xlink:href="class_hole_types.html" target="_top" xlink:title="HoleTypes">
<polygon fill="#ffffff" stroke="#000000" points="151.7583,-703.5 151.7583,-721.5 215.0093,-721.5 215.0093,-703.5 151.7583,-703.5"/>
<text text-anchor="middle" x="183.3838" y="-709.5" font-family="Helvetica,sans-Serif" font-size="10.00" fill="#000000">HoleTypes</text>
</a>
</g>
</g>
<!-- Node1635&#45;&gt;Node1656 -->
<g id="edge21" class="edge">
<title>Node1635&#45;&gt;Node1656</title>
<path fill="none" stroke="#191970" d="M92.8501,-723.973C112.4932,-721.4837 134.2956,-718.7207 151.5821,-716.5301"/>
<polygon fill="#191970" stroke="#191970" points="92.2907,-720.5157 82.8101,-725.2453 93.1708,-727.4602 92.2907,-720.5157"/>
</g>
<!-- Node1657 -->
<g id="node23" class="node">
<title>Node1657</title>
<g id="a_node23"><a xlink:href="class_job.html" target="_top" xlink:title="Job">
<polygon fill="#ffffff" stroke="#000000" points="167.3223,-666.5 167.3223,-684.5 199.4453,-684.5 199.4453,-666.5 167.3223,-666.5"/>
<text text-anchor="middle" x="183.3838" y="-672.5" font-family="Helvetica,sans-Serif" font-size="10.00" fill="#000000">Job</text>
</a>
</g>
</g>
<!-- Node1635&#45;&gt;Node1657 -->
<g id="edge22" class="edge">
<title>Node1635&#45;&gt;Node1657</title>
<path fill="none" stroke="#191970" d="M67.8787,-716.9453C82.6143,-709.7256 101.4098,-701.0168 118.6895,-694.5 134.8999,-688.3865 153.9897,-682.9914 167.2116,-679.5273"/>
<polygon fill="#191970" stroke="#191970" points="66.2369,-713.8527 58.8384,-721.4365 69.3514,-720.1217 66.2369,-713.8527"/>
</g>
<!-- Node1658 -->
<g id="node24" class="node">
<title>Node1658</title>
<g id="a_node24"><a xlink:href="class_messengers.html" target="_top" xlink:title="Messengers">
<polygon fill="#ffffff" stroke="#000000" points="148.1499,-629.5 148.1499,-647.5 218.6177,-647.5 218.6177,-629.5 148.1499,-629.5"/>
<text text-anchor="middle" x="183.3838" y="-635.5" font-family="Helvetica,sans-Serif" font-size="10.00" fill="#000000">Messengers</text>
</a>
</g>
</g>
<!-- Node1635&#45;&gt;Node1658 -->
<g id="edge23" class="edge">
<title>Node1635&#45;&gt;Node1658</title>
<path fill="none" stroke="#191970" d="M54.9828,-713.636C69.2323,-697.075 93.0525,-672.2156 118.6895,-657.5 127.6236,-652.3718 138.06,-648.5241 147.9103,-645.6826"/>
<polygon fill="#191970" stroke="#191970" points="52.1824,-711.5285 48.4447,-721.4422 57.5488,-716.0232 52.1824,-711.5285"/>
</g>
<!-- Node1659 -->
<g id="node25" class="node">
<title>Node1659</title>
<g id="a_node25"><a xlink:href="class_messengers_items.html" target="_top" xlink:title="MessengersItems">
<polygon fill="#ffffff" stroke="#000000" points="135.9258,-592.5 135.9258,-610.5 230.8418,-610.5 230.8418,-592.5 135.9258,-592.5"/>
<text text-anchor="middle" x="183.3838" y="-598.5" font-family="Helvetica,sans-Serif" font-size="10.00" fill="#000000">MessengersItems</text>
</a>
</g>
</g>
<!-- Node1635&#45;&gt;Node1659 -->
<g id="edge24" class="edge">
<title>Node1635&#45;&gt;Node1659</title>
<path fill="none" stroke="#191970" d="M49.5243,-711.947C61.2928,-687.39 85.3158,-644.4172 118.6895,-620.5 124.4936,-616.3405 131.2049,-613.0845 138.0615,-610.5375"/>
<polygon fill="#191970" stroke="#191970" points="46.2505,-710.6881 45.2393,-721.2346 52.6067,-713.6206 46.2505,-710.6881"/>
</g>
<!-- Node1660 -->
<g id="node26" class="node">
<title>Node1660</title>
<g id="a_node26"><a xlink:href="class_news.html" target="_top" xlink:title="News">
<polygon fill="#ffffff" stroke="#000000" points="162.8813,-555.5 162.8813,-573.5 203.8862,-573.5 203.8862,-555.5 162.8813,-555.5"/>
<text text-anchor="middle" x="183.3838" y="-561.5" font-family="Helvetica,sans-Serif" font-size="10.00" fill="#000000">News</text>
</a>
</g>
</g>
<!-- Node1635&#45;&gt;Node1660 -->
<g id="edge25" class="edge">
<title>Node1635&#45;&gt;Node1660</title>
<path fill="none" stroke="#191970" d="M46.0847,-711.643C54.9367,-680.3235 76.973,-617.654 118.6895,-583.5 131.1889,-573.2665 149.0118,-568.5448 162.7866,-566.3662"/>
<polygon fill="#191970" stroke="#191970" points="42.7005,-710.7504 43.4928,-721.3156 49.4619,-712.5623 42.7005,-710.7504"/>
</g>
<!-- Node1661 -->
<g id="node27" class="node">
<title>Node1661</title>
<g id="a_node27"><a xlink:href="class_notify.html" target="_top" xlink:title="Notify">
<polygon fill="#ffffff" stroke="#000000" points="162.603,-518.5 162.603,-536.5 204.1646,-536.5 204.1646,-518.5 162.603,-518.5"/>
<text text-anchor="middle" x="183.3838" y="-524.5" font-family="Helvetica,sans-Serif" font-size="10.00" fill="#000000">Notify</text>
</a>
</g>
</g>
<!-- Node1635&#45;&gt;Node1661 -->
<g id="edge26" class="edge">
<title>Node1635&#45;&gt;Node1661</title>
<path fill="none" stroke="#191970" d="M43.9425,-711.196C50.0036,-673.811 68.5784,-591.2788 118.6895,-546.5 130.7352,-535.7361 148.5935,-531.0558 162.4974,-529.0282"/>
<polygon fill="#191970" stroke="#191970" points="40.4554,-710.8502 42.4421,-721.2571 47.3789,-711.8827 40.4554,-710.8502"/>
</g>
<!-- Node1662 -->
<g id="node28" class="node">
<title>Node1662</title>
<g id="a_node28"><a xlink:href="class_payments.html" target="_top" xlink:title="Payments">
<polygon fill="#ffffff" stroke="#000000" points="153.1523,-481.5 153.1523,-499.5 213.6152,-499.5 213.6152,-481.5 153.1523,-481.5"/>
<text text-anchor="middle" x="183.3838" y="-487.5" font-family="Helvetica,sans-Serif" font-size="10.00" fill="#000000">Payments</text>
</a>
</g>
</g>
<!-- Node1635&#45;&gt;Node1662 -->
<g id="edge27" class="edge">
<title>Node1635&#45;&gt;Node1662</title>
<path fill="none" stroke="#191970" d="M42.3838,-711.2432C45.7415,-668.5702 59.8457,-565.4169 118.6895,-509.5 127.9389,-500.7106 141.0403,-495.9614 153.0366,-493.4054"/>
<polygon fill="#191970" stroke="#191970" points="38.8816,-711.1607 41.7051,-721.3723 45.866,-711.6287 38.8816,-711.1607"/>
</g>
<!-- Node1663 -->
<g id="node29" class="node">
<title>Node1663</title>
<g id="a_node29"><a xlink:href="class_poll.html" target="_top" xlink:title="Poll">
<polygon fill="#ffffff" stroke="#000000" points="167.0464,-444.5 167.0464,-462.5 199.7212,-462.5 199.7212,-444.5 167.0464,-444.5"/>
<text text-anchor="middle" x="183.3838" y="-450.5" font-family="Helvetica,sans-Serif" font-size="10.00" fill="#000000">Poll</text>
</a>
</g>
</g>
<!-- Node1635&#45;&gt;Node1663 -->
<g id="edge28" class="edge">
<title>Node1635&#45;&gt;Node1663</title>
<path fill="none" stroke="#191970" d="M44.6228,-711.5446C54.247,-657.9651 83.9416,-507.0537 118.6895,-472.5 131.4723,-459.7886 152.2872,-455.4949 166.8448,-454.0914"/>
<polygon fill="#191970" stroke="#191970" points="41.1706,-710.9675 42.8791,-721.4237 48.0641,-712.1843 41.1706,-710.9675"/>
</g>
<!-- Node1664 -->
<g id="node30" class="node">
<title>Node1664</title>
<g id="a_node30"><a xlink:href="class_profile.html" target="_top" xlink:title="Profile">
<polygon fill="#ffffff" stroke="#000000" points="161.2114,-407.5 161.2114,-425.5 205.5562,-425.5 205.5562,-407.5 161.2114,-407.5"/>
<text text-anchor="middle" x="183.3838" y="-413.5" font-family="Helvetica,sans-Serif" font-size="10.00" fill="#000000">Profile</text>
</a>
</g>
</g>
<!-- Node1635&#45;&gt;Node1664 -->
<g id="edge29" class="edge">
<title>Node1635&#45;&gt;Node1664</title>
<path fill="none" stroke="#191970" d="M43.9086,-711.2073C52.1175,-652.2188 79.5255,-475.8263 118.6895,-435.5 129.6994,-424.1633 147.0882,-419.4996 161.0664,-417.6235"/>
<polygon fill="#191970" stroke="#191970" points="40.4068,-710.9836 42.525,-721.3645 47.3428,-711.9284 40.4068,-710.9836"/>
</g>
<!-- Node1665 -->
<g id="node31" class="node">
<title>Node1665</title>
<g id="a_node31"><a xlink:href="class_region.html" target="_top" xlink:title="Region">
<polygon fill="#ffffff" stroke="#000000" points="159.5391,-370.5 159.5391,-388.5 207.2285,-388.5 207.2285,-370.5 159.5391,-370.5"/>
<text text-anchor="middle" x="183.3838" y="-376.5" font-family="Helvetica,sans-Serif" font-size="10.00" fill="#000000">Region</text>
</a>
</g>
</g>
<!-- Node1635&#45;&gt;Node1665 -->
<g id="edge30" class="edge">
<title>Node1635&#45;&gt;Node1665</title>
<path fill="none" stroke="#191970" d="M43.3333,-710.918C50.2234,-646.8078 75.0706,-444.6683 118.6895,-398.5 129.1403,-387.4383 145.66,-382.7115 159.3898,-380.7383"/>
<polygon fill="#191970" stroke="#191970" points="39.8158,-710.9037 42.2553,-721.2138 46.7777,-711.6327 39.8158,-710.9037"/>
</g>
<!-- Node1666 -->
<g id="node32" class="node">
<title>Node1666</title>
<g id="a_node32"><a xlink:href="class_user_area_shape_points.html" target="_top" xlink:title="UserAreaShapePoints">
<polygon fill="#ffffff" stroke="#000000" points="125.9111,-333.5 125.9111,-351.5 240.8564,-351.5 240.8564,-333.5 125.9111,-333.5"/>
<text text-anchor="middle" x="183.3838" y="-339.5" font-family="Helvetica,sans-Serif" font-size="10.00" fill="#000000">UserAreaShapePoints</text>
</a>
</g>
</g>
<!-- Node1635&#45;&gt;Node1666 -->
<g id="edge31" class="edge">
<title>Node1635&#45;&gt;Node1666</title>
<path fill="none" stroke="#191970" d="M42.8314,-711.0011C48.4418,-642.4204 70.5065,-413.6502 118.6895,-361.5 122.5025,-357.373 127.1601,-354.1256 132.2114,-351.5731"/>
<polygon fill="#191970" stroke="#191970" points="39.3218,-710.9848 42.021,-721.23 46.2999,-711.5377 39.3218,-710.9848"/>
</g>
<!-- Node1667 -->
<g id="node33" class="node">
<title>Node1667</title>
<g id="a_node33"><a xlink:href="class_user_area_shapes.html" target="_top" xlink:title="UserAreaShapes">
<polygon fill="#ffffff" stroke="#000000" points="137.3076,-296.5 137.3076,-314.5 229.46,-314.5 229.46,-296.5 137.3076,-296.5"/>
<text text-anchor="middle" x="183.3838" y="-302.5" font-family="Helvetica,sans-Serif" font-size="10.00" fill="#000000">UserAreaShapes</text>
</a>
</g>
</g>
<!-- Node1635&#45;&gt;Node1667 -->
<g id="edge32" class="edge">
<title>Node1635&#45;&gt;Node1667</title>
<path fill="none" stroke="#191970" d="M42.4277,-710.9742C46.8595,-638.02 65.9463,-382.6483 118.6895,-324.5 123.7228,-318.9508 130.2829,-314.9887 137.2917,-312.167"/>
<polygon fill="#191970" stroke="#191970" points="38.9081,-711.2101 41.8205,-721.3967 45.8962,-711.6172 38.9081,-711.2101"/>
</g>
<!-- Node1668 -->
<g id="node34" class="node">
<title>Node1668</title>
<g id="a_node34"><a xlink:href="class_user_groups_access.html" target="_top" xlink:title="UserGroupsAccess">
<polygon fill="#ffffff" stroke="#000000" points="132.3149,-259.5 132.3149,-277.5 234.4526,-277.5 234.4526,-259.5 132.3149,-259.5"/>
<text text-anchor="middle" x="183.3838" y="-265.5" font-family="Helvetica,sans-Serif" font-size="10.00" fill="#000000">UserGroupsAccess</text>
</a>
</g>
</g>
<!-- Node1635&#45;&gt;Node1668 -->
<g id="edge33" class="edge">
<title>Node1635&#45;&gt;Node1668</title>
<path fill="none" stroke="#191970" d="M42.0787,-711.1895C45.3816,-634.4009 61.308,-351.749 118.6895,-287.5 122.4323,-283.3092 127.046,-280.022 132.0724,-277.4468"/>
<polygon fill="#191970" stroke="#191970" points="38.5757,-711.1963 41.666,-721.3304 45.5699,-711.4811 38.5757,-711.1963"/>
</g>
<!-- Node1669 -->
<g id="node35" class="node">
<title>Node1669</title>
<g id="a_node35"><a xlink:href="class_user_groups_configuration.html" target="_top" xlink:title="UserGroupsConfiguration">
<polygon fill="#ffffff" stroke="#000000" points="118.6895,-222.5 118.6895,-240.5 248.0781,-240.5 248.0781,-222.5 118.6895,-222.5"/>
<text text-anchor="middle" x="183.3838" y="-228.5" font-family="Helvetica,sans-Serif" font-size="10.00" fill="#000000">UserGroupsConfiguration</text>
</a>
</g>
</g>
<!-- Node1635&#45;&gt;Node1669 -->
<g id="edge34" class="edge">
<title>Node1635&#45;&gt;Node1669</title>
<path fill="none" stroke="#191970" d="M41.7945,-711.1534C44.0601,-630.3547 56.7154,-320.8122 118.6895,-250.5 122.3274,-246.3726 126.8102,-243.1203 131.7049,-240.5609"/>
<polygon fill="#191970" stroke="#191970" points="38.2903,-711.272 41.5309,-721.3591 45.288,-711.4528 38.2903,-711.272"/>
</g>
<!-- Node1670 -->
<g id="node36" class="node">
<title>Node1670</title>
<g id="a_node36"><a xlink:href="class_usergroups_cron.html" target="_top" xlink:title="UsergroupsCron">
<polygon fill="#ffffff" stroke="#000000" points="138.7017,-185.5 138.7017,-203.5 228.0659,-203.5 228.0659,-185.5 138.7017,-185.5"/>
<text text-anchor="middle" x="183.3838" y="-191.5" font-family="Helvetica,sans-Serif" font-size="10.00" fill="#000000">UsergroupsCron</text>
</a>
</g>
</g>
<!-- Node1635&#45;&gt;Node1670 -->
<g id="edge35" class="edge">
<title>Node1635&#45;&gt;Node1670</title>
<path fill="none" stroke="#191970" d="M41.5464,-711.3017C42.8192,-626.9414 52.0612,-289.9561 118.6895,-213.5 123.9192,-207.4989 130.9352,-203.3453 138.4196,-200.4812"/>
<polygon fill="#191970" stroke="#191970" points="38.0445,-711.4308 41.4145,-721.4753 45.0439,-711.5216 38.0445,-711.4308"/>
</g>
<!-- Node1671 -->
<g id="node37" class="node">
<title>Node1671</title>
<g id="a_node37"><a xlink:href="class_user_groups_group.html" target="_top" xlink:title="UserGroupsGroup">
<polygon fill="#ffffff" stroke="#000000" points="134.5342,-148.5 134.5342,-166.5 232.2334,-166.5 232.2334,-148.5 134.5342,-148.5"/>
<text text-anchor="middle" x="183.3838" y="-154.5" font-family="Helvetica,sans-Serif" font-size="10.00" fill="#000000">UserGroupsGroup</text>
</a>
</g>
</g>
<!-- Node1635&#45;&gt;Node1671 -->
<g id="edge36" class="edge">
<title>Node1635&#45;&gt;Node1671</title>
<path fill="none" stroke="#191970" d="M42.7987,-711.258C49.9883,-618.2512 82.8326,-218.0546 118.6895,-176.5 122.972,-171.5369 128.4767,-167.836 134.4639,-165.0825"/>
<polygon fill="#191970" stroke="#191970" points="39.3079,-711.0062 42.0346,-721.2441 46.2874,-711.5403 39.3079,-711.0062"/>
</g>
<!-- Node1672 -->
<g id="node38" class="node">
<title>Node1672</title>
<g id="a_node38"><a xlink:href="class_user_groups_lookup.html" target="_top" xlink:title="UserGroupsLookup">
<polygon fill="#ffffff" stroke="#000000" points="132.0269,-111.5 132.0269,-129.5 234.7407,-129.5 234.7407,-111.5 132.0269,-111.5"/>
<text text-anchor="middle" x="183.3838" y="-117.5" font-family="Helvetica,sans-Serif" font-size="10.00" fill="#000000">UserGroupsLookup</text>
</a>
</g>
</g>
<!-- Node1635&#45;&gt;Node1672 -->
<g id="edge37" class="edge">
<title>Node1635&#45;&gt;Node1672</title>
<path fill="none" stroke="#191970" d="M42.647,-710.9029C49.2873,-613.4672 80.5531,-184.0817 118.6895,-139.5 122.3419,-135.2302 126.8992,-131.8936 131.8934,-129.2904"/>
<polygon fill="#191970" stroke="#191970" points="39.1408,-710.8789 41.9605,-721.0916 46.125,-711.3495 39.1408,-710.8789"/>
</g>
<!-- Node1673 -->
<g id="node39" class="node">
<title>Node1673</title>
<g id="a_node39"><a xlink:href="class_user_groups_user.html" target="_top" xlink:title="UserGroupsUser">
<polygon fill="#ffffff" stroke="#000000" points="137.874,-74.5 137.874,-92.5 228.8936,-92.5 228.8936,-74.5 137.874,-74.5"/>
<text text-anchor="middle" x="183.3838" y="-80.5" font-family="Helvetica,sans-Serif" font-size="10.00" fill="#000000">UserGroupsUser</text>
</a>
</g>
</g>
<!-- Node1635&#45;&gt;Node1673 -->
<g id="edge38" class="edge">
<title>Node1635&#45;&gt;Node1673</title>
<path fill="none" stroke="#191970" d="M42.4659,-711.2837C48.4814,-610.9733 78.1725,-150.2301 118.6895,-102.5 123.6893,-96.61 130.4112,-92.4942 137.6348,-89.6292"/>
<polygon fill="#191970" stroke="#191970" points="38.9609,-711.2662 41.8636,-721.4556 45.9487,-711.68 38.9609,-711.2662"/>
</g>
<!-- Node1674 -->
<g id="node40" class="node">
<title>Node1674</title>
<g id="a_node40"><a xlink:href="class_user_hole_area.html" target="_top" xlink:title="UserHoleArea">
<polygon fill="#ffffff" stroke="#000000" points="143.9824,-37.5 143.9824,-55.5 222.7852,-55.5 222.7852,-37.5 143.9824,-37.5"/>
<text text-anchor="middle" x="183.3838" y="-43.5" font-family="Helvetica,sans-Serif" font-size="10.00" fill="#000000">UserHoleArea</text>
</a>
</g>
</g>
<!-- Node1635&#45;&gt;Node1674 -->
<g id="edge39" class="edge">
<title>Node1635&#45;&gt;Node1674</title>
<path fill="none" stroke="#191970" d="M42.3355,-711.1403C47.8288,-607.0089 75.8574,-116.3042 118.6895,-65.5 125.103,-57.8927 134.3898,-53.2425 143.9347,-50.4243"/>
<polygon fill="#191970" stroke="#191970" points="38.8256,-711.2417 41.8012,-721.41 45.8161,-711.6054 38.8256,-711.2417"/>
</g>
<!-- Node1675 -->
<g id="node41" class="node">
<title>Node1675</title>
<g id="a_node41"><a xlink:href="class_user_selected_lists.html" target="_top" xlink:title="UserSelectedLists">
<polygon fill="#ffffff" stroke="#000000" points="135.0884,-.5 135.0884,-18.5 231.6792,-18.5 231.6792,-.5 135.0884,-.5"/>
<text text-anchor="middle" x="183.3838" y="-6.5" font-family="Helvetica,sans-Serif" font-size="10.00" fill="#000000">UserSelectedLists</text>
</a>
</g>
</g>
<!-- Node1635&#45;&gt;Node1675 -->
<g id="edge40" class="edge">
<title>Node1635&#45;&gt;Node1675</title>
<path fill="none" stroke="#191970" d="M42.1985,-711.4099C47.1442,-604.4535 73.4813,-82.453 118.6895,-28.5 123.05,-23.2959 128.7555,-19.4747 134.9727,-16.6768"/>
<polygon fill="#191970" stroke="#191970" points="38.7019,-711.2567 41.7432,-721.4057 45.6946,-711.5753 38.7019,-711.2567"/>
</g>
</g>
</svg>
