<?xml version="1.0" encoding="UTF-8" standalone="no"?>
<!DOCTYPE svg PUBLIC "-//W3C//DTD SVG 1.1//EN"
 "http://www.w3.org/Graphics/SVG/1.1/DTD/svg11.dtd">
<!-- Generated by graphviz version 2.40.1 (20161225.0304)
 -->
<!-- Title: Графічна ієрархія класів Pages: 1 -->
<svg width="591pt" height="247pt"
 viewBox="0.00 0.00 591.29 247.00" xmlns="http://www.w3.org/2000/svg" xmlns:xlink="http://www.w3.org/1999/xlink">
<g id="graph0" class="graph" transform="scale(1 1) rotate(0) translate(4 243)">
<title>Графічна ієрархія класів</title>
<polygon fill="#ffffff" stroke="transparent" points="-4,4 -4,-243 587.2939,-243 587.2939,4 -4,4"/>
<!-- Node0 -->
<g id="node1" class="node">
<title>Node0</title>
<g id="a_node1"><a xlink:href="interface_swift___mime___header.html" target="_top" xlink:title="Swift_Mime_Header">
<polygon fill="#ffffff" stroke="#000000" points="0,-52.5 0,-70.5 106.0342,-70.5 106.0342,-52.5 0,-52.5"/>
<text text-anchor="middle" x="53.0171" y="-58.5" font-family="Helvetica,sans-Serif" font-size="10.00" fill="#000000">Swift_Mime_Header</text>
</a>
</g>
</g>
<!-- Node1 -->
<g id="node2" class="node">
<title>Node1</title>
<g id="a_node2"><a xlink:href="class_swift___mime___headers___abstract_header.html" target="_top" xlink:title="Swift_Mime_Headers\l_AbstractHeader">
<polygon fill="#ffffff" stroke="#000000" points="155.6499,-92.5 155.6499,-120.5 266.6841,-120.5 266.6841,-92.5 155.6499,-92.5"/>
<text text-anchor="start" x="163.6499" y="-108.5" font-family="Helvetica,sans-Serif" font-size="10.00" fill="#000000">Swift_Mime_Headers</text>
<text text-anchor="middle" x="211.167" y="-98.5" font-family="Helvetica,sans-Serif" font-size="10.00" fill="#000000">_AbstractHeader</text>
</a>
</g>
</g>
<!-- Node0&#45;&gt;Node1 -->
<g id="edge1" class="edge">
<title>Node0&#45;&gt;Node1</title>
<path fill="none" stroke="#191970" d="M94.7321,-73.3696C115.3001,-79.222 140.2466,-86.3203 161.7644,-92.443"/>
<polygon fill="#191970" stroke="#191970" points="95.5972,-69.9769 85.0211,-70.6064 93.6814,-76.7096 95.5972,-69.9769"/>
</g>
<!-- Node8 -->
<g id="node9" class="node">
<title>Node8</title>
<g id="a_node9"><a xlink:href="interface_swift___mime___parameterized_header.html" target="_top" xlink:title="Swift_Mime_Parameterized\lHeader">
<polygon fill="#ffffff" stroke="#000000" points="142.0342,-24.5 142.0342,-52.5 280.2998,-52.5 280.2998,-24.5 142.0342,-24.5"/>
<text text-anchor="start" x="150.0342" y="-40.5" font-family="Helvetica,sans-Serif" font-size="10.00" fill="#000000">Swift_Mime_Parameterized</text>
<text text-anchor="middle" x="211.167" y="-30.5" font-family="Helvetica,sans-Serif" font-size="10.00" fill="#000000">Header</text>
</a>
</g>
</g>
<!-- Node0&#45;&gt;Node8 -->
<g id="edge8" class="edge">
<title>Node0&#45;&gt;Node8</title>
<path fill="none" stroke="#191970" d="M116.2581,-52.3028C124.695,-51.0758 133.3826,-49.8123 141.9152,-48.5714"/>
<polygon fill="#191970" stroke="#191970" points="115.5108,-48.8745 106.1187,-53.7773 116.5183,-55.8017 115.5108,-48.8745"/>
</g>
<!-- Node2 -->
<g id="node3" class="node">
<title>Node2</title>
<g id="a_node3"><a xlink:href="class_swift___mime___headers___date_header.html" target="_top" xlink:title="Swift_Mime_Headers\l_DateHeader">
<polygon fill="#ffffff" stroke="#000000" points="316.5854,-210.5 316.5854,-238.5 427.6196,-238.5 427.6196,-210.5 316.5854,-210.5"/>
<text text-anchor="start" x="324.5854" y="-226.5" font-family="Helvetica,sans-Serif" font-size="10.00" fill="#000000">Swift_Mime_Headers</text>
<text text-anchor="middle" x="372.1025" y="-216.5" font-family="Helvetica,sans-Serif" font-size="10.00" fill="#000000">_DateHeader</text>
</a>
</g>
</g>
<!-- Node1&#45;&gt;Node2 -->
<g id="edge2" class="edge">
<title>Node1&#45;&gt;Node2</title>
<path fill="none" stroke="#191970" d="M230.867,-128.2013C250.7894,-149.146 283.2778,-180.6641 316.2998,-201.5 321.5284,-204.7991 327.3109,-207.7991 333.1144,-210.4628"/>
<polygon fill="#191970" stroke="#191970" points="233.2634,-125.6401 223.8718,-120.7361 228.1555,-130.4264 233.2634,-125.6401"/>
</g>
<!-- Node3 -->
<g id="node4" class="node">
<title>Node3</title>
<g id="a_node4"><a xlink:href="class_swift___mime___headers___identification_header.html" target="_top" xlink:title="Swift_Mime_Headers\l_IdentificationHeader">
<polygon fill="#ffffff" stroke="#000000" points="316.5854,-163.5 316.5854,-191.5 427.6196,-191.5 427.6196,-163.5 316.5854,-163.5"/>
<text text-anchor="start" x="324.5854" y="-179.5" font-family="Helvetica,sans-Serif" font-size="10.00" fill="#000000">Swift_Mime_Headers</text>
<text text-anchor="middle" x="372.1025" y="-169.5" font-family="Helvetica,sans-Serif" font-size="10.00" fill="#000000">_IdentificationHeader</text>
</a>
</g>
</g>
<!-- Node1&#45;&gt;Node3 -->
<g id="edge3" class="edge">
<title>Node1&#45;&gt;Node3</title>
<path fill="none" stroke="#191970" d="M250.6529,-124.9501C270.3068,-134.0256 294.473,-145.0231 316.2998,-154.5 323.1241,-157.463 330.4554,-160.5516 337.4875,-163.4683"/>
<polygon fill="#191970" stroke="#191970" points="251.9422,-121.6901 241.3971,-120.6643 249.0009,-128.0422 251.9422,-121.6901"/>
</g>
<!-- Node4 -->
<g id="node5" class="node">
<title>Node4</title>
<g id="a_node5"><a xlink:href="class_swift___mime___headers___mailbox_header.html" target="_top" xlink:title="Swift_Mime_Headers\l_MailboxHeader">
<polygon fill="#ffffff" stroke="#000000" points="316.5854,-116.5 316.5854,-144.5 427.6196,-144.5 427.6196,-116.5 316.5854,-116.5"/>
<text text-anchor="start" x="324.5854" y="-132.5" font-family="Helvetica,sans-Serif" font-size="10.00" fill="#000000">Swift_Mime_Headers</text>
<text text-anchor="middle" x="372.1025" y="-122.5" font-family="Helvetica,sans-Serif" font-size="10.00" fill="#000000">_MailboxHeader</text>
</a>
</g>
</g>
<!-- Node1&#45;&gt;Node4 -->
<g id="edge4" class="edge">
<title>Node1&#45;&gt;Node4</title>
<path fill="none" stroke="#191970" d="M277.2784,-116.3591C290.2627,-118.2954 303.7623,-120.3086 316.3655,-122.188"/>
<polygon fill="#191970" stroke="#191970" points="277.4097,-112.84 267.0028,-114.8267 276.3771,-119.7635 277.4097,-112.84"/>
</g>
<!-- Node5 -->
<g id="node6" class="node">
<title>Node5</title>
<g id="a_node6"><a xlink:href="class_swift___mime___headers___path_header.html" target="_top" xlink:title="Swift_Mime_Headers\l_PathHeader">
<polygon fill="#ffffff" stroke="#000000" points="316.5854,-69.5 316.5854,-97.5 427.6196,-97.5 427.6196,-69.5 316.5854,-69.5"/>
<text text-anchor="start" x="324.5854" y="-85.5" font-family="Helvetica,sans-Serif" font-size="10.00" fill="#000000">Swift_Mime_Headers</text>
<text text-anchor="middle" x="372.1025" y="-75.5" font-family="Helvetica,sans-Serif" font-size="10.00" fill="#000000">_PathHeader</text>
</a>
</g>
</g>
<!-- Node1&#45;&gt;Node5 -->
<g id="edge5" class="edge">
<title>Node1&#45;&gt;Node5</title>
<path fill="none" stroke="#191970" d="M277.2784,-97.0517C290.2627,-95.1961 303.7623,-93.2668 316.3655,-91.4656"/>
<polygon fill="#191970" stroke="#191970" points="276.407,-93.6406 267.0028,-98.5203 277.3974,-100.5702 276.407,-93.6406"/>
</g>
<!-- Node6 -->
<g id="node7" class="node">
<title>Node6</title>
<g id="a_node7"><a xlink:href="class_swift___mime___headers___unstructured_header.html" target="_top" xlink:title="Swift_Mime_Headers\l_UnstructuredHeader">
<polygon fill="#ffffff" stroke="#000000" points="316.2998,-22.5 316.2998,-50.5 427.9053,-50.5 427.9053,-22.5 316.2998,-22.5"/>
<text text-anchor="start" x="324.2998" y="-38.5" font-family="Helvetica,sans-Serif" font-size="10.00" fill="#000000">Swift_Mime_Headers</text>
<text text-anchor="middle" x="372.1025" y="-28.5" font-family="Helvetica,sans-Serif" font-size="10.00" fill="#000000">_UnstructuredHeader</text>
</a>
</g>
</g>
<!-- Node1&#45;&gt;Node6 -->
<g id="edge6" class="edge">
<title>Node1&#45;&gt;Node6</title>
<path fill="none" stroke="#191970" d="M252.7707,-88.2251C272.0799,-79.7617 295.3481,-69.589 316.2998,-60.5 323.7494,-57.2683 331.7661,-53.8094 339.3347,-50.5523"/>
<polygon fill="#191970" stroke="#191970" points="251.1056,-85.1335 243.3531,-92.3549 253.9169,-91.5441 251.1056,-85.1335"/>
</g>
<!-- Node9 -->
<g id="node8" class="node">
<title>Node9</title>
<g id="a_node8"><a xlink:href="class_swift___mime___headers___parameterized_header.html" target="_top" xlink:title="Swift_Mime_Headers\l_ParameterizedHeader">
<polygon fill="#ffffff" stroke="#000000" points="463.9053,-.5 463.9053,-28.5 583.2939,-28.5 583.2939,-.5 463.9053,-.5"/>
<text text-anchor="start" x="471.9053" y="-16.5" font-family="Helvetica,sans-Serif" font-size="10.00" fill="#000000">Swift_Mime_Headers</text>
<text text-anchor="middle" x="523.5996" y="-6.5" font-family="Helvetica,sans-Serif" font-size="10.00" fill="#000000">_ParameterizedHeader</text>
</a>
</g>
</g>
<!-- Node6&#45;&gt;Node9 -->
<g id="edge7" class="edge">
<title>Node6&#45;&gt;Node9</title>
<path fill="none" stroke="#191970" d="M438.0303,-26.9262C446.5924,-25.6828 455.3249,-24.4147 463.78,-23.1868"/>
<polygon fill="#191970" stroke="#191970" points="437.4772,-23.4697 428.084,-28.3705 438.4832,-30.397 437.4772,-23.4697"/>
</g>
<!-- Node8&#45;&gt;Node9 -->
<g id="edge9" class="edge">
<title>Node8&#45;&gt;Node9</title>
<path fill="none" stroke="#191970" d="M267.5944,-21.8804C283.2277,-18.0081 300.3004,-14.449 316.2998,-12.5 365.6032,-6.4939 421.9903,-7.5443 463.497,-9.7888"/>
<polygon fill="#191970" stroke="#191970" points="266.371,-18.5808 257.5548,-24.4565 268.1109,-25.3612 266.371,-18.5808"/>
</g>
</g>
</svg>
