<?xml version="1.0" encoding="UTF-8" standalone="no"?>
<!DOCTYPE svg PUBLIC "-//W3C//DTD SVG 1.1//EN"
 "http://www.w3.org/Graphics/SVG/1.1/DTD/svg11.dtd">
<!-- Generated by graphviz version 2.40.1 (20161225.0304)
 -->
<!-- Title: Графічна ієрархія класів Pages: 1 -->
<svg width="409pt" height="138pt"
 viewBox="0.00 0.00 408.66 138.00" xmlns="http://www.w3.org/2000/svg" xmlns:xlink="http://www.w3.org/1999/xlink">
<g id="graph0" class="graph" transform="scale(1 1) rotate(0) translate(4 134)">
<title>Графічна ієрархія класів</title>
<polygon fill="#ffffff" stroke="transparent" points="-4,4 -4,-134 404.6592,-134 404.6592,4 -4,4"/>
<!-- Node1559 -->
<g id="node1" class="node">
<title>Node1559</title>
<polygon fill="#ffffff" stroke="#bfbfbf" points="0,-55.5 0,-73.5 67.1279,-73.5 67.1279,-55.5 0,-55.5"/>
<text text-anchor="middle" x="33.564" y="-61.5" font-family="Helvetica,sans-Serif" font-size="10.00" fill="#000000">CJuiWidget</text>
</g>
<!-- Node0 -->
<g id="node2" class="node">
<title>Node0</title>
<g id="a_node2"><a xlink:href="class_e_comments_base_widget.html" target="_top" xlink:title="ECommentsBaseWidget">
<polygon fill="#ffffff" stroke="#000000" points="103.1279,-55.5 103.1279,-73.5 228.0586,-73.5 228.0586,-55.5 103.1279,-55.5"/>
<text text-anchor="middle" x="165.5933" y="-61.5" font-family="Helvetica,sans-Serif" font-size="10.00" fill="#000000">ECommentsBaseWidget</text>
</a>
</g>
</g>
<!-- Node1559&#45;&gt;Node0 -->
<g id="edge1" class="edge">
<title>Node1559&#45;&gt;Node0</title>
<path fill="none" stroke="#191970" d="M77.3225,-64.5C85.5529,-64.5 94.3061,-64.5 102.9807,-64.5"/>
<polygon fill="#191970" stroke="#191970" points="77.2222,-61.0001 67.2221,-64.5 77.2221,-68.0001 77.2222,-61.0001"/>
</g>
<!-- Node1 -->
<g id="node3" class="node">
<title>Node1</title>
<g id="a_node3"><a xlink:href="class_comments.html" target="_top" xlink:title="Comments">
<polygon fill="#ffffff" stroke="#000000" points="300.1865,-111.5 300.1865,-129.5 364.5313,-129.5 364.5313,-111.5 300.1865,-111.5"/>
<text text-anchor="middle" x="332.3589" y="-117.5" font-family="Helvetica,sans-Serif" font-size="10.00" fill="#000000">Comments</text>
</a>
</g>
</g>
<!-- Node0&#45;&gt;Node1 -->
<g id="edge2" class="edge">
<title>Node0&#45;&gt;Node1</title>
<path fill="none" stroke="#191970" d="M196.6988,-77.5206C215.9183,-85.3106 241.1965,-95.101 264.0586,-102.5 275.7254,-106.2758 288.6993,-109.8483 300.1789,-112.8003"/>
<polygon fill="#191970" stroke="#191970" points="197.8261,-74.2002 187.2455,-73.6525 195.1752,-80.6789 197.8261,-74.2002"/>
</g>
<!-- Node2 -->
<g id="node4" class="node">
<title>Node2</title>
<g id="a_node4"><a xlink:href="class_e_comments_form_widget.html" target="_top" xlink:title="ECommentsFormWidget">
<polygon fill="#ffffff" stroke="#000000" points="269.625,-74.5 269.625,-92.5 395.0928,-92.5 395.0928,-74.5 269.625,-74.5"/>
<text text-anchor="middle" x="332.3589" y="-80.5" font-family="Helvetica,sans-Serif" font-size="10.00" fill="#000000">ECommentsFormWidget</text>
</a>
</g>
</g>
<!-- Node0&#45;&gt;Node2 -->
<g id="edge3" class="edge">
<title>Node0&#45;&gt;Node2</title>
<path fill="none" stroke="#191970" d="M238.407,-72.7958C248.7463,-73.9738 259.3061,-75.1769 269.4364,-76.3311"/>
<polygon fill="#191970" stroke="#191970" points="238.497,-69.2835 228.1651,-71.629 237.7046,-76.2385 238.497,-69.2835"/>
</g>
<!-- Node3 -->
<g id="node5" class="node">
<title>Node3</title>
<g id="a_node5"><a xlink:href="class_e_comments_last_list_widget.html" target="_top" xlink:title="ECommentsLastListWidget">
<polygon fill="#ffffff" stroke="#000000" points="264.0586,-37.5 264.0586,-55.5 400.6592,-55.5 400.6592,-37.5 264.0586,-37.5"/>
<text text-anchor="middle" x="332.3589" y="-43.5" font-family="Helvetica,sans-Serif" font-size="10.00" fill="#000000">ECommentsLastListWidget</text>
</a>
</g>
</g>
<!-- Node0&#45;&gt;Node3 -->
<g id="edge4" class="edge">
<title>Node0&#45;&gt;Node3</title>
<path fill="none" stroke="#191970" d="M238.3848,-56.6432C246.8429,-55.7303 255.4487,-54.8014 263.8465,-53.8949"/>
<polygon fill="#191970" stroke="#191970" points="237.7317,-53.1933 228.1651,-57.7463 238.483,-60.1528 237.7317,-53.1933"/>
</g>
<!-- Node4 -->
<g id="node6" class="node">
<title>Node4</title>
<g id="a_node6"><a xlink:href="class_e_comments_list_widget.html" target="_top" xlink:title="ECommentsListWidget">
<polygon fill="#ffffff" stroke="#000000" points="273.5093,-.5 273.5093,-18.5 391.2085,-18.5 391.2085,-.5 273.5093,-.5"/>
<text text-anchor="middle" x="332.3589" y="-6.5" font-family="Helvetica,sans-Serif" font-size="10.00" fill="#000000">ECommentsListWidget</text>
</a>
</g>
</g>
<!-- Node0&#45;&gt;Node4 -->
<g id="edge5" class="edge">
<title>Node0&#45;&gt;Node4</title>
<path fill="none" stroke="#191970" d="M198.3092,-51.8007C217.3637,-44.5902 241.9239,-35.6128 264.0586,-28.5 274.9562,-24.9982 286.9498,-21.5331 297.8049,-18.5403"/>
<polygon fill="#191970" stroke="#191970" points="196.9866,-48.5591 188.8888,-55.391 199.4796,-55.1002 196.9866,-48.5591"/>
</g>
</g>
</svg>
