<?xml version="1.0" encoding="UTF-8" standalone="no"?>
<!DOCTYPE svg PUBLIC "-//W3C//DTD SVG 1.1//EN"
 "http://www.w3.org/Graphics/SVG/1.1/DTD/svg11.dtd">
<!-- Generated by graphviz version 2.40.1 (20161225.0304)
 -->
<!-- Title: Графічна ієрархія класів Pages: 1 -->
<svg width="217pt" height="64pt"
 viewBox="0.00 0.00 216.66 64.00" xmlns="http://www.w3.org/2000/svg" xmlns:xlink="http://www.w3.org/1999/xlink">
<g id="graph0" class="graph" transform="scale(1 1) rotate(0) translate(4 60)">
<title>Графічна ієрархія класів</title>
<polygon fill="#ffffff" stroke="transparent" points="-4,4 -4,-60 212.6641,-60 212.6641,4 -4,4"/>
<!-- Node0 -->
<g id="node1" class="node">
<title>Node0</title>
<g id="a_node1"><a xlink:href="class_google___auth.html" target="_top" xlink:title="Google_Auth">
<polygon fill="#ffffff" stroke="#000000" points="0,-18.5 0,-36.5 74.3789,-36.5 74.3789,-18.5 0,-18.5"/>
<text text-anchor="middle" x="37.1895" y="-24.5" font-family="Helvetica,sans-Serif" font-size="10.00" fill="#000000">Google_Auth</text>
</a>
</g>
</g>
<!-- Node1 -->
<g id="node2" class="node">
<title>Node1</title>
<g id="a_node2"><a xlink:href="class_google___auth_none.html" target="_top" xlink:title="Google_AuthNone">
<polygon fill="#ffffff" stroke="#000000" points="110.3789,-37.5 110.3789,-55.5 208.6641,-55.5 208.6641,-37.5 110.3789,-37.5"/>
<text text-anchor="middle" x="159.5215" y="-43.5" font-family="Helvetica,sans-Serif" font-size="10.00" fill="#000000">Google_AuthNone</text>
</a>
</g>
</g>
<!-- Node0&#45;&gt;Node1 -->
<g id="edge1" class="edge">
<title>Node0&#45;&gt;Node1</title>
<path fill="none" stroke="#191970" d="M84.5799,-34.8604C92.9824,-36.1655 101.7508,-37.5273 110.2051,-38.8404"/>
<polygon fill="#191970" stroke="#191970" points="84.9765,-31.3802 74.5578,-33.3039 83.9021,-38.2972 84.9765,-31.3802"/>
</g>
<!-- Node2 -->
<g id="node3" class="node">
<title>Node2</title>
<g id="a_node3"><a xlink:href="class_google___o_auth2.html" target="_top" xlink:title="Google_OAuth2">
<polygon fill="#ffffff" stroke="#000000" points="115.6621,-.5 115.6621,-18.5 203.3809,-18.5 203.3809,-.5 115.6621,-.5"/>
<text text-anchor="middle" x="159.5215" y="-6.5" font-family="Helvetica,sans-Serif" font-size="10.00" fill="#000000">Google_OAuth2</text>
</a>
</g>
</g>
<!-- Node0&#45;&gt;Node2 -->
<g id="edge2" class="edge">
<title>Node0&#45;&gt;Node2</title>
<path fill="none" stroke="#191970" d="M84.5245,-20.5351C94.7164,-19.0355 105.4489,-17.4563 115.508,-15.9762"/>
<polygon fill="#191970" stroke="#191970" points="83.9417,-17.0831 74.5578,-22.0016 84.9608,-24.0085 83.9417,-17.0831"/>
</g>
</g>
</svg>
