<?xml version="1.0" encoding="UTF-8" standalone="no"?>
<!DOCTYPE svg PUBLIC "-//W3C//DTD SVG 1.1//EN"
 "http://www.w3.org/Graphics/SVG/1.1/DTD/svg11.dtd">
<!-- Generated by graphviz version 2.40.1 (20161225.0304)
 -->
<!-- Title: Графічна ієрархія класів Pages: 1 -->
<svg width="612pt" height="249pt"
 viewBox="0.00 0.00 611.90 249.00" xmlns="http://www.w3.org/2000/svg" xmlns:xlink="http://www.w3.org/1999/xlink">
<g id="graph0" class="graph" transform="scale(1 1) rotate(0) translate(4 245)">
<title>Графічна ієрархія класів</title>
<polygon fill="#ffffff" stroke="transparent" points="-4,4 -4,-245 607.8994,-245 607.8994,4 -4,4"/>
<!-- Node1472 -->
<g id="node1" class="node">
<title>Node1472</title>
<polygon fill="#ffffff" stroke="#bfbfbf" points="0,-102.5 0,-120.5 59.916,-120.5 59.916,-102.5 0,-102.5"/>
<text text-anchor="middle" x="29.958" y="-108.5" font-family="Helvetica,sans-Serif" font-size="10.00" fill="#000000">Exception</text>
</g>
<!-- Node0 -->
<g id="node2" class="node">
<title>Node0</title>
<g id="a_node2"><a xlink:href="class_google___exception.html" target="_top" xlink:title="Google_Exception">
<polygon fill="#ffffff" stroke="#000000" points="101.4629,-148.5 101.4629,-166.5 199.1865,-166.5 199.1865,-148.5 101.4629,-148.5"/>
<text text-anchor="middle" x="150.3247" y="-154.5" font-family="Helvetica,sans-Serif" font-size="10.00" fill="#000000">Google_Exception</text>
</a>
</g>
</g>
<!-- Node1472&#45;&gt;Node0 -->
<g id="edge1" class="edge">
<title>Node1472&#45;&gt;Node0</title>
<path fill="none" stroke="#191970" d="M63.1551,-124.1868C83.2759,-131.8763 108.4719,-141.5053 126.5935,-148.4308"/>
<polygon fill="#191970" stroke="#191970" points="64.3292,-120.8886 53.7386,-120.5881 61.8302,-127.4274 64.3292,-120.8886"/>
</g>
<!-- Node1478 -->
<g id="node7" class="node">
<title>Node1478</title>
<g id="a_node7"><a xlink:href="classphpmailer_exception.html" target="_top" xlink:title="phpmailerException">
<polygon fill="#ffffff" stroke="#000000" points="98.4111,-102.5 98.4111,-120.5 202.2383,-120.5 202.2383,-102.5 98.4111,-102.5"/>
<text text-anchor="middle" x="150.3247" y="-108.5" font-family="Helvetica,sans-Serif" font-size="10.00" fill="#000000">phpmailerException</text>
</a>
</g>
</g>
<!-- Node1472&#45;&gt;Node1478 -->
<g id="edge6" class="edge">
<title>Node1472&#45;&gt;Node1478</title>
<path fill="none" stroke="#191970" d="M70.1921,-111.5C79.1649,-111.5 88.8047,-111.5 98.1796,-111.5"/>
<polygon fill="#191970" stroke="#191970" points="70.0212,-108.0001 60.0211,-111.5 70.0211,-115.0001 70.0212,-108.0001"/>
</g>
<!-- Node1479 -->
<g id="node8" class="node">
<title>Node1479</title>
<g id="a_node8"><a xlink:href="class_swift___swift_exception.html" target="_top" xlink:title="Swift_SwiftException">
<polygon fill="#ffffff" stroke="#000000" points="95.916,-47.5 95.916,-65.5 204.7334,-65.5 204.7334,-47.5 95.916,-47.5"/>
<text text-anchor="middle" x="150.3247" y="-53.5" font-family="Helvetica,sans-Serif" font-size="10.00" fill="#000000">Swift_SwiftException</text>
</a>
</g>
</g>
<!-- Node1472&#45;&gt;Node1479 -->
<g id="edge7" class="edge">
<title>Node1472&#45;&gt;Node1479</title>
<path fill="none" stroke="#191970" d="M59.0815,-98.1924C81.1825,-88.0937 110.9814,-74.4774 130.4191,-65.5956"/>
<polygon fill="#191970" stroke="#191970" points="57.4749,-95.0784 49.8341,-102.4179 60.3842,-101.4452 57.4749,-95.0784"/>
</g>
<!-- Node1 -->
<g id="node3" class="node">
<title>Node1</title>
<g id="a_node3"><a xlink:href="class_google___auth_exception.html" target="_top" xlink:title="Google_AuthException">
<polygon fill="#ffffff" stroke="#000000" points="259.061,-222.5 259.061,-240.5 377.356,-240.5 377.356,-222.5 259.061,-222.5"/>
<text text-anchor="middle" x="318.2085" y="-228.5" font-family="Helvetica,sans-Serif" font-size="10.00" fill="#000000">Google_AuthException</text>
</a>
</g>
</g>
<!-- Node0&#45;&gt;Node1 -->
<g id="edge2" class="edge">
<title>Node0&#45;&gt;Node1</title>
<path fill="none" stroke="#191970" d="M170.5663,-172.7351C188.236,-185.3554 215.0095,-202.8831 240.7334,-213.5 249.4132,-217.0823 258.9482,-220.0316 268.2717,-222.4313"/>
<polygon fill="#191970" stroke="#191970" points="172.3528,-169.7063 162.2097,-166.6454 168.2302,-175.3635 172.3528,-169.7063"/>
</g>
<!-- Node2 -->
<g id="node4" class="node">
<title>Node2</title>
<g id="a_node4"><a xlink:href="class_google___cache_exception.html" target="_top" xlink:title="Google_CacheException">
<polygon fill="#ffffff" stroke="#000000" points="254.8936,-185.5 254.8936,-203.5 381.5234,-203.5 381.5234,-185.5 254.8936,-185.5"/>
<text text-anchor="middle" x="318.2085" y="-191.5" font-family="Helvetica,sans-Serif" font-size="10.00" fill="#000000">Google_CacheException</text>
</a>
</g>
</g>
<!-- Node0&#45;&gt;Node2 -->
<g id="edge3" class="edge">
<title>Node0&#45;&gt;Node2</title>
<path fill="none" stroke="#191970" d="M201.1859,-168.7093C225.5519,-174.0794 254.3448,-180.4251 277.2729,-185.4782"/>
<polygon fill="#191970" stroke="#191970" points="201.9127,-165.2856 191.3937,-166.5512 200.406,-172.1215 201.9127,-165.2856"/>
</g>
<!-- Node3 -->
<g id="node5" class="node">
<title>Node3</title>
<g id="a_node5"><a xlink:href="class_google___i_o_exception.html" target="_top" xlink:title="Google_IOException">
<polygon fill="#ffffff" stroke="#000000" points="264.0684,-148.5 264.0684,-166.5 372.3486,-166.5 372.3486,-148.5 264.0684,-148.5"/>
<text text-anchor="middle" x="318.2085" y="-154.5" font-family="Helvetica,sans-Serif" font-size="10.00" fill="#000000">Google_IOException</text>
</a>
</g>
</g>
<!-- Node0&#45;&gt;Node3 -->
<g id="edge4" class="edge">
<title>Node0&#45;&gt;Node3</title>
<path fill="none" stroke="#191970" d="M209.53,-157.5C227.2063,-157.5 246.4895,-157.5 263.84,-157.5"/>
<polygon fill="#191970" stroke="#191970" points="209.335,-154.0001 199.335,-157.5 209.3349,-161.0001 209.335,-154.0001"/>
</g>
<!-- Node4 -->
<g id="node6" class="node">
<title>Node4</title>
<g id="a_node6"><a xlink:href="class_google___service_exception.html" target="_top" xlink:title="Google_ServiceException">
<polygon fill="#ffffff" stroke="#000000" points="252.6743,-111.5 252.6743,-129.5 383.7427,-129.5 383.7427,-111.5 252.6743,-111.5"/>
<text text-anchor="middle" x="318.2085" y="-117.5" font-family="Helvetica,sans-Serif" font-size="10.00" fill="#000000">Google_ServiceException</text>
</a>
</g>
</g>
<!-- Node0&#45;&gt;Node4 -->
<g id="edge5" class="edge">
<title>Node0&#45;&gt;Node4</title>
<path fill="none" stroke="#191970" d="M201.1859,-146.2907C225.5519,-140.9206 254.3448,-134.5749 277.2729,-129.5218"/>
<polygon fill="#191970" stroke="#191970" points="200.406,-142.8785 191.3937,-148.4488 201.9127,-149.7144 200.406,-142.8785"/>
</g>
<!-- Node1480 -->
<g id="node9" class="node">
<title>Node1480</title>
<g id="a_node9"><a xlink:href="class_swift___dependency_exception.html" target="_top" xlink:title="Swift_DependencyException">
<polygon fill="#ffffff" stroke="#000000" points="246.5586,-74.5 246.5586,-92.5 389.8584,-92.5 389.8584,-74.5 246.5586,-74.5"/>
<text text-anchor="middle" x="318.2085" y="-80.5" font-family="Helvetica,sans-Serif" font-size="10.00" fill="#000000">Swift_DependencyException</text>
</a>
</g>
</g>
<!-- Node1479&#45;&gt;Node1480 -->
<g id="edge8" class="edge">
<title>Node1479&#45;&gt;Node1480</title>
<path fill="none" stroke="#191970" d="M214.8724,-66.8809C230.3931,-69.377 246.8496,-72.0237 261.9582,-74.4535"/>
<polygon fill="#191970" stroke="#191970" points="215.2607,-63.3985 204.8318,-65.2661 214.1491,-70.3097 215.2607,-63.3985"/>
</g>
<!-- Node1481 -->
<g id="node10" class="node">
<title>Node1481</title>
<g id="a_node10"><a xlink:href="class_swift___io_exception.html" target="_top" xlink:title="Swift_IoException">
<polygon fill="#ffffff" stroke="#000000" points="270.4648,-37.5 270.4648,-55.5 365.9521,-55.5 365.9521,-37.5 270.4648,-37.5"/>
<text text-anchor="middle" x="318.2085" y="-43.5" font-family="Helvetica,sans-Serif" font-size="10.00" fill="#000000">Swift_IoException</text>
</a>
</g>
</g>
<!-- Node1479&#45;&gt;Node1481 -->
<g id="edge9" class="edge">
<title>Node1479&#45;&gt;Node1481</title>
<path fill="none" stroke="#191970" d="M214.8886,-52.6542C233.2774,-51.5589 252.9786,-50.3854 270.1946,-49.36"/>
<polygon fill="#191970" stroke="#191970" points="214.6059,-49.1648 204.8318,-53.2533 215.0222,-56.1524 214.6059,-49.1648"/>
</g>
<!-- Node1484 -->
<g id="node13" class="node">
<title>Node1484</title>
<g id="a_node13"><a xlink:href="class_swift___rfc_compliance_exception.html" target="_top" xlink:title="Swift_RfcComplianceException">
<polygon fill="#ffffff" stroke="#000000" points="240.7334,-.5 240.7334,-18.5 395.6836,-18.5 395.6836,-.5 240.7334,-.5"/>
<text text-anchor="middle" x="318.2085" y="-6.5" font-family="Helvetica,sans-Serif" font-size="10.00" fill="#000000">Swift_RfcComplianceException</text>
</a>
</g>
</g>
<!-- Node1479&#45;&gt;Node1484 -->
<g id="edge12" class="edge">
<title>Node1479&#45;&gt;Node1484</title>
<path fill="none" stroke="#191970" d="M187.5793,-44.4122C203.8367,-39.2801 223.1622,-33.3708 240.7334,-28.5 253.2785,-25.0224 267.0565,-21.537 279.4706,-18.5183"/>
<polygon fill="#191970" stroke="#191970" points="186.3656,-41.1254 177.8963,-47.4911 188.4868,-47.7963 186.3656,-41.1254"/>
</g>
<!-- Node1482 -->
<g id="node11" class="node">
<title>Node1482</title>
<g id="a_node11"><a xlink:href="class_swift___plugins___pop___pop3_exception.html" target="_top" xlink:title="Swift_Plugins_Pop_Pop3Exception">
<polygon fill="#ffffff" stroke="#000000" points="431.6836,-55.5 431.6836,-73.5 603.8994,-73.5 603.8994,-55.5 431.6836,-55.5"/>
<text text-anchor="middle" x="517.7915" y="-61.5" font-family="Helvetica,sans-Serif" font-size="10.00" fill="#000000">Swift_Plugins_Pop_Pop3Exception</text>
</a>
</g>
</g>
<!-- Node1481&#45;&gt;Node1482 -->
<g id="edge10" class="edge">
<title>Node1481&#45;&gt;Node1482</title>
<path fill="none" stroke="#191970" d="M376.4279,-51.7507C393.6071,-53.3001 412.7879,-55.0299 431.342,-56.7033"/>
<polygon fill="#191970" stroke="#191970" points="376.2876,-48.2239 366.0136,-50.8114 375.6588,-55.1956 376.2876,-48.2239"/>
</g>
<!-- Node1483 -->
<g id="node12" class="node">
<title>Node1483</title>
<g id="a_node12"><a xlink:href="class_swift___transport_exception.html" target="_top" xlink:title="Swift_TransportException">
<polygon fill="#ffffff" stroke="#000000" points="453.0044,-18.5 453.0044,-36.5 582.5786,-36.5 582.5786,-18.5 453.0044,-18.5"/>
<text text-anchor="middle" x="517.7915" y="-24.5" font-family="Helvetica,sans-Serif" font-size="10.00" fill="#000000">Swift_TransportException</text>
</a>
</g>
</g>
<!-- Node1481&#45;&gt;Node1483 -->
<g id="edge11" class="edge">
<title>Node1481&#45;&gt;Node1483</title>
<path fill="none" stroke="#191970" d="M376.0279,-40.9957C400.0084,-38.7128 427.9431,-36.0534 452.6445,-33.7019"/>
<polygon fill="#191970" stroke="#191970" points="375.6369,-37.517 366.0136,-41.949 376.3003,-44.4855 375.6369,-37.517"/>
</g>
</g>
</svg>
