<?xml version="1.0" encoding="UTF-8" standalone="no"?>
<!DOCTYPE svg PUBLIC "-//W3C//DTD SVG 1.1//EN"
 "http://www.w3.org/Graphics/SVG/1.1/DTD/svg11.dtd">
<!-- Generated by graphviz version 2.40.1 (20161225.0304)
 -->
<!-- Title: Графічна ієрархія класів Pages: 1 -->
<svg width="309pt" height="1729pt"
 viewBox="0.00 0.00 308.91 1729.00" xmlns="http://www.w3.org/2000/svg" xmlns:xlink="http://www.w3.org/1999/xlink">
<g id="graph0" class="graph" transform="scale(1 1) rotate(0) translate(4 1725)">
<title>Графічна ієрархія класів</title>
<polygon fill="#ffffff" stroke="transparent" points="-4,4 -4,-1725 304.9053,-1725 304.9053,4 -4,4"/>
<!-- Node0 -->
<g id="node1" class="node">
<title>Node0</title>
<g id="a_node1"><a xlink:href="class_google___service.html" target="_top" xlink:title="Google_Service">
<polygon fill="#ffffff" stroke="#000000" points="0,-851.5 0,-869.5 87.1523,-869.5 87.1523,-851.5 0,-851.5"/>
<text text-anchor="middle" x="43.5762" y="-857.5" font-family="Helvetica,sans-Serif" font-size="10.00" fill="#000000">Google_Service</text>
</a>
</g>
</g>
<!-- Node1 -->
<g id="node2" class="node">
<title>Node1</title>
<g id="a_node2"><a xlink:href="class_google___adexchangebuyer_service.html" target="_top" xlink:title="Google_AdexchangebuyerService">
<polygon fill="#ffffff" stroke="#000000" points="128.145,-1702.5 128.145,-1720.5 295.9126,-1720.5 295.9126,-1702.5 128.145,-1702.5"/>
<text text-anchor="middle" x="212.0288" y="-1708.5" font-family="Helvetica,sans-Serif" font-size="10.00" fill="#000000">Google_AdexchangebuyerService</text>
</a>
</g>
</g>
<!-- Node0&#45;&gt;Node1 -->
<g id="edge1" class="edge">
<title>Node0&#45;&gt;Node1</title>
<path fill="none" stroke="#191970" d="M44.0655,-879.7751C47.2618,-998.8171 66.82,-1630.9451 123.1523,-1693.5 126.3129,-1697.0096 129.9532,-1699.9439 133.9174,-1702.3894"/>
<polygon fill="#191970" stroke="#191970" points="47.5605,-879.5347 43.7999,-869.6297 40.5629,-879.7179 47.5605,-879.5347"/>
</g>
<!-- Node2 -->
<g id="node3" class="node">
<title>Node2</title>
<g id="a_node3"><a xlink:href="class_google___ad_exchange_seller_service.html" target="_top" xlink:title="Google_AdExchangeSellerService">
<polygon fill="#ffffff" stroke="#000000" points="127.3149,-1665.5 127.3149,-1683.5 296.7427,-1683.5 296.7427,-1665.5 127.3149,-1665.5"/>
<text text-anchor="middle" x="212.0288" y="-1671.5" font-family="Helvetica,sans-Serif" font-size="10.00" fill="#000000">Google_AdExchangeSellerService</text>
</a>
</g>
</g>
<!-- Node0&#45;&gt;Node2 -->
<g id="edge2" class="edge">
<title>Node0&#45;&gt;Node2</title>
<path fill="none" stroke="#191970" d="M44.1623,-879.9917C47.8392,-996.4249 69.3347,-1597.0012 123.1523,-1656.5 126.3206,-1660.0027 129.9668,-1662.9316 133.9354,-1665.3732"/>
<polygon fill="#191970" stroke="#191970" points="47.6531,-879.6373 43.8459,-869.7502 40.6564,-879.8535 47.6531,-879.6373"/>
</g>
<!-- Node3 -->
<g id="node4" class="node">
<title>Node3</title>
<g id="a_node4"><a xlink:href="class_google___ad_sense_host_service.html" target="_top" xlink:title="Google_AdSenseHostService">
<polygon fill="#ffffff" stroke="#000000" points="137.8789,-1628.5 137.8789,-1646.5 286.1787,-1646.5 286.1787,-1628.5 137.8789,-1628.5"/>
<text text-anchor="middle" x="212.0288" y="-1634.5" font-family="Helvetica,sans-Serif" font-size="10.00" fill="#000000">Google_AdSenseHostService</text>
</a>
</g>
</g>
<!-- Node0&#45;&gt;Node3 -->
<g id="edge3" class="edge">
<title>Node0&#45;&gt;Node3</title>
<path fill="none" stroke="#191970" d="M44.2542,-879.7788C48.3911,-992.4773 71.78,-1562.9792 123.1523,-1619.5 127.282,-1624.0435 132.2161,-1627.6205 137.6137,-1630.4198"/>
<polygon fill="#191970" stroke="#191970" points="47.7445,-879.4446 43.8869,-869.577 40.749,-879.6965 47.7445,-879.4446"/>
</g>
<!-- Node4 -->
<g id="node5" class="node">
<title>Node4</title>
<g id="a_node5"><a xlink:href="class_google___ad_sense_service.html" target="_top" xlink:title="Google_AdSenseService">
<polygon fill="#ffffff" stroke="#000000" points="148.1597,-1591.5 148.1597,-1609.5 275.8979,-1609.5 275.8979,-1591.5 148.1597,-1591.5"/>
<text text-anchor="middle" x="212.0288" y="-1597.5" font-family="Helvetica,sans-Serif" font-size="10.00" fill="#000000">Google_AdSenseService</text>
</a>
</g>
</g>
<!-- Node0&#45;&gt;Node4 -->
<g id="edge4" class="edge">
<title>Node0&#45;&gt;Node4</title>
<path fill="none" stroke="#191970" d="M44.3806,-880.1991C49.0644,-990.5592 74.3172,-1529.0565 123.1523,-1582.5 129.8428,-1589.8218 138.6229,-1594.63 148.0588,-1597.7184"/>
<polygon fill="#191970" stroke="#191970" points="47.8642,-879.7303 43.9504,-869.8849 40.8703,-880.0221 47.8642,-879.7303"/>
</g>
<!-- Node5 -->
<g id="node6" class="node">
<title>Node5</title>
<g id="a_node6"><a xlink:href="class_google___analytics_service.html" target="_top" xlink:title="Google_AnalyticsService">
<polygon fill="#ffffff" stroke="#000000" points="148.4453,-1554.5 148.4453,-1572.5 275.6123,-1572.5 275.6123,-1554.5 148.4453,-1554.5"/>
<text text-anchor="middle" x="212.0288" y="-1560.5" font-family="Helvetica,sans-Serif" font-size="10.00" fill="#000000">Google_AnalyticsService</text>
</a>
</g>
</g>
<!-- Node0&#45;&gt;Node5 -->
<g id="edge5" class="edge">
<title>Node0&#45;&gt;Node5</title>
<path fill="none" stroke="#191970" d="M44.4863,-879.8457C49.6547,-986.0201 76.7359,-1495.0023 123.1523,-1545.5 129.8643,-1552.8021 138.6553,-1557.6003 148.0955,-1560.6848"/>
<polygon fill="#191970" stroke="#191970" points="47.9724,-879.4696 43.9975,-869.6487 40.9804,-879.8048 47.9724,-879.4696"/>
</g>
<!-- Node6 -->
<g id="node7" class="node">
<title>Node6</title>
<g id="a_node7"><a xlink:href="class_google___android_publisher_service.html" target="_top" xlink:title="Google_AndroidPublisherService">
<polygon fill="#ffffff" stroke="#000000" points="130.374,-1517.5 130.374,-1535.5 293.6836,-1535.5 293.6836,-1517.5 130.374,-1517.5"/>
<text text-anchor="middle" x="212.0288" y="-1523.5" font-family="Helvetica,sans-Serif" font-size="10.00" fill="#000000">Google_AndroidPublisherService</text>
</a>
</g>
</g>
<!-- Node0&#45;&gt;Node6 -->
<g id="edge6" class="edge">
<title>Node0&#45;&gt;Node6</title>
<path fill="none" stroke="#191970" d="M44.6336,-880.0791C50.3816,-983.2661 79.2363,-1461.035 123.1523,-1508.5 126.3599,-1511.9667 130.0362,-1514.8681 134.0273,-1517.2891"/>
<polygon fill="#191970" stroke="#191970" points="48.1158,-879.6569 44.0724,-869.8639 41.1263,-880.0409 48.1158,-879.6569"/>
</g>
<!-- Node7 -->
<g id="node8" class="node">
<title>Node7</title>
<g id="a_node8"><a xlink:href="class_google___appstate_service.html" target="_top" xlink:title="Google_AppstateService">
<polygon fill="#ffffff" stroke="#000000" points="148.7163,-1480.5 148.7163,-1498.5 275.3413,-1498.5 275.3413,-1480.5 148.7163,-1480.5"/>
<text text-anchor="middle" x="212.0288" y="-1486.5" font-family="Helvetica,sans-Serif" font-size="10.00" fill="#000000">Google_AppstateService</text>
</a>
</g>
</g>
<!-- Node0&#45;&gt;Node7 -->
<g id="edge7" class="edge">
<title>Node0&#45;&gt;Node7</title>
<path fill="none" stroke="#191970" d="M44.7736,-879.8868C51.0738,-979.0895 81.6717,-1426.9951 123.1523,-1471.5 130.0221,-1478.8706 139.0117,-1483.6809 148.632,-1486.7504"/>
<polygon fill="#191970" stroke="#191970" points="48.2595,-879.5512 44.1404,-869.7899 41.2733,-879.9894 48.2595,-879.5512"/>
</g>
<!-- Node8 -->
<g id="node9" class="node">
<title>Node8</title>
<g id="a_node9"><a xlink:href="class_google___audit_service.html" target="_top" xlink:title="Google_AuditService">
<polygon fill="#ffffff" stroke="#000000" points="157.0562,-1443.5 157.0562,-1461.5 267.0015,-1461.5 267.0015,-1443.5 157.0562,-1443.5"/>
<text text-anchor="middle" x="212.0288" y="-1449.5" font-family="Helvetica,sans-Serif" font-size="10.00" fill="#000000">Google_AuditService</text>
</a>
</g>
</g>
<!-- Node0&#45;&gt;Node8 -->
<g id="edge8" class="edge">
<title>Node0&#45;&gt;Node8</title>
<path fill="none" stroke="#191970" d="M44.9439,-879.8917C51.8535,-975.4123 84.1304,-1392.9776 123.1523,-1434.5 131.993,-1443.9072 144.2889,-1449.1347 156.9194,-1451.895"/>
<polygon fill="#191970" stroke="#191970" points="48.4175,-879.3957 44.2131,-869.6708 41.4353,-879.895 48.4175,-879.3957"/>
</g>
<!-- Node9 -->
<g id="node10" class="node">
<title>Node9</title>
<g id="a_node10"><a xlink:href="class_google___bigquery_service.html" target="_top" xlink:title="Google_BigqueryService">
<polygon fill="#ffffff" stroke="#000000" points="148.7188,-1406.5 148.7188,-1424.5 275.3389,-1424.5 275.3389,-1406.5 148.7188,-1406.5"/>
<text text-anchor="middle" x="212.0288" y="-1412.5" font-family="Helvetica,sans-Serif" font-size="10.00" fill="#000000">Google_BigqueryService</text>
</a>
</g>
</g>
<!-- Node0&#45;&gt;Node9 -->
<g id="edge9" class="edge">
<title>Node0&#45;&gt;Node9</title>
<path fill="none" stroke="#191970" d="M45.1044,-879.4956C52.5925,-970.4781 86.5302,-1358.8948 123.1523,-1397.5 129.9783,-1404.6956 138.8272,-1409.4398 148.2899,-1412.5032"/>
<polygon fill="#191970" stroke="#191970" points="48.591,-879.1874 44.2906,-869.5046 41.6141,-879.7558 48.591,-879.1874"/>
</g>
<!-- Node10 -->
<g id="node11" class="node">
<title>Node10</title>
<g id="a_node11"><a xlink:href="class_google___blogger_service.html" target="_top" xlink:title="Google_BloggerService">
<polygon fill="#ffffff" stroke="#000000" points="151.2188,-1369.5 151.2188,-1387.5 272.8389,-1387.5 272.8389,-1369.5 151.2188,-1369.5"/>
<text text-anchor="middle" x="212.0288" y="-1375.5" font-family="Helvetica,sans-Serif" font-size="10.00" fill="#000000">Google_BloggerService</text>
</a>
</g>
</g>
<!-- Node0&#45;&gt;Node10 -->
<g id="edge10" class="edge">
<title>Node0&#45;&gt;Node10</title>
<path fill="none" stroke="#191970" d="M43.8206,-879.7448C45.2811,-962.8285 55.3185,-1289.7558 123.1523,-1360.5 130.6705,-1368.3408 140.5926,-1373.2625 151.0765,-1376.2692"/>
<polygon fill="#191970" stroke="#191970" points="47.3194,-879.6367 43.6663,-869.6917 40.3203,-879.7442 47.3194,-879.6367"/>
</g>
<!-- Node11 -->
<g id="node12" class="node">
<title>Node11</title>
<g id="a_node12"><a xlink:href="class_google___books_service.html" target="_top" xlink:title="Google_BooksService">
<polygon fill="#ffffff" stroke="#000000" points="154.5562,-1332.5 154.5562,-1350.5 269.5015,-1350.5 269.5015,-1332.5 154.5562,-1332.5"/>
<text text-anchor="middle" x="212.0288" y="-1338.5" font-family="Helvetica,sans-Serif" font-size="10.00" fill="#000000">Google_BooksService</text>
</a>
</g>
</g>
<!-- Node0&#45;&gt;Node11 -->
<g id="edge11" class="edge">
<title>Node0&#45;&gt;Node11</title>
<path fill="none" stroke="#191970" d="M44.0907,-879.8198C46.6081,-959.1411 60.2046,-1258.6597 123.1523,-1323.5 131.4866,-1332.0848 142.7054,-1337.1588 154.3617,-1340.0499"/>
<polygon fill="#191970" stroke="#191970" points="47.5877,-879.6613 43.7952,-869.7686 40.5907,-879.8672 47.5877,-879.6613"/>
</g>
<!-- Node12 -->
<g id="node13" class="node">
<title>Node12</title>
<g id="a_node13"><a xlink:href="class_google___calendar_service.html" target="_top" xlink:title="Google_CalendarService">
<polygon fill="#ffffff" stroke="#000000" points="148.1621,-1295.5 148.1621,-1313.5 275.8955,-1313.5 275.8955,-1295.5 148.1621,-1295.5"/>
<text text-anchor="middle" x="212.0288" y="-1301.5" font-family="Helvetica,sans-Serif" font-size="10.00" fill="#000000">Google_CalendarService</text>
</a>
</g>
</g>
<!-- Node0&#45;&gt;Node12 -->
<g id="edge12" class="edge">
<title>Node0&#45;&gt;Node12</title>
<path fill="none" stroke="#191970" d="M44.4219,-880.1694C48.0891,-955.9378 65.1439,-1227.6057 123.1523,-1286.5 130.0018,-1293.454 138.7465,-1298.0955 148.0668,-1301.1366"/>
<polygon fill="#191970" stroke="#191970" points="47.8987,-879.5827 43.944,-869.7537 40.9061,-879.9036 47.8987,-879.5827"/>
</g>
<!-- Node13 -->
<g id="node14" class="node">
<title>Node13</title>
<g id="a_node14"><a xlink:href="class_google___civic_info_service.html" target="_top" xlink:title="Google_CivicInfoService">
<polygon fill="#ffffff" stroke="#000000" points="149.2803,-1258.5 149.2803,-1276.5 274.7773,-1276.5 274.7773,-1258.5 149.2803,-1258.5"/>
<text text-anchor="middle" x="212.0288" y="-1264.5" font-family="Helvetica,sans-Serif" font-size="10.00" fill="#000000">Google_CivicInfoService</text>
</a>
</g>
</g>
<!-- Node0&#45;&gt;Node13 -->
<g id="edge13" class="edge">
<title>Node0&#45;&gt;Node13</title>
<path fill="none" stroke="#191970" d="M44.7774,-879.8224C49.5944,-950.8811 69.8862,-1196.338 123.1523,-1249.5 130.2839,-1256.6176 139.4044,-1261.3014 149.0738,-1264.3234"/>
<polygon fill="#191970" stroke="#191970" points="48.2568,-879.3907 44.1138,-869.6396 41.2716,-879.8461 48.2568,-879.3907"/>
</g>
<!-- Node14 -->
<g id="node15" class="node">
<title>Node14</title>
<g id="a_node15"><a xlink:href="class_google___compute_service.html" target="_top" xlink:title="Google_ComputeService">
<polygon fill="#ffffff" stroke="#000000" points="148.1646,-1221.5 148.1646,-1239.5 275.8931,-1239.5 275.8931,-1221.5 148.1646,-1221.5"/>
<text text-anchor="middle" x="212.0288" y="-1227.5" font-family="Helvetica,sans-Serif" font-size="10.00" fill="#000000">Google_ComputeService</text>
</a>
</g>
</g>
<!-- Node0&#45;&gt;Node14 -->
<g id="edge14" class="edge">
<title>Node0&#45;&gt;Node14</title>
<path fill="none" stroke="#191970" d="M45.2513,-880.1037C51.3752,-947.0642 74.7637,-1165.1883 123.1523,-1212.5 130.0189,-1219.2138 138.6594,-1223.75 147.8385,-1226.7652"/>
<polygon fill="#191970" stroke="#191970" points="48.7026,-879.3989 44.3333,-869.747 41.73,-880.017 48.7026,-879.3989"/>
</g>
<!-- Node15 -->
<g id="node16" class="node">
<title>Node15</title>
<g id="a_node16"><a xlink:href="class_google___coordinate_service.html" target="_top" xlink:title="Google_CoordinateService">
<polygon fill="#ffffff" stroke="#000000" points="143.9922,-1184.5 143.9922,-1202.5 280.0654,-1202.5 280.0654,-1184.5 143.9922,-1184.5"/>
<text text-anchor="middle" x="212.0288" y="-1190.5" font-family="Helvetica,sans-Serif" font-size="10.00" fill="#000000">Google_CoordinateService</text>
</a>
</g>
</g>
<!-- Node0&#45;&gt;Node15 -->
<g id="edge15" class="edge">
<title>Node0&#45;&gt;Node15</title>
<path fill="none" stroke="#191970" d="M45.7542,-879.6437C53.1708,-941.4095 79.437,-1133.8184 123.1523,-1175.5 129.0772,-1181.1493 136.2622,-1185.2462 143.9508,-1188.1883"/>
<polygon fill="#191970" stroke="#191970" points="49.2288,-879.2215 44.5888,-869.6968 42.2763,-880.0361 49.2288,-879.2215"/>
</g>
<!-- Node16 -->
<g id="node17" class="node">
<title>Node16</title>
<g id="a_node17"><a xlink:href="class_google___customsearch_service.html" target="_top" xlink:title="Google_CustomsearchService">
<polygon fill="#ffffff" stroke="#000000" points="136.2188,-1147.5 136.2188,-1165.5 287.8389,-1165.5 287.8389,-1147.5 136.2188,-1147.5"/>
<text text-anchor="middle" x="212.0288" y="-1153.5" font-family="Helvetica,sans-Serif" font-size="10.00" fill="#000000">Google_CustomsearchService</text>
</a>
</g>
</g>
<!-- Node0&#45;&gt;Node16 -->
<g id="edge16" class="edge">
<title>Node0&#45;&gt;Node16</title>
<path fill="none" stroke="#191970" d="M46.4867,-879.9458C55.427,-937.0618 84.2588,-1102.5625 123.1523,-1138.5 126.9681,-1142.0257 131.2769,-1144.9416 135.8883,-1147.3462"/>
<polygon fill="#191970" stroke="#191970" points="49.9005,-879.1162 44.9253,-869.7622 42.9813,-880.1771 49.9005,-879.1162"/>
</g>
<!-- Node17 -->
<g id="node18" class="node">
<title>Node17</title>
<g id="a_node18"><a xlink:href="class_google___datastore_service.html" target="_top" xlink:title="Google_DatastoreService">
<polygon fill="#ffffff" stroke="#000000" points="146.7754,-1110.5 146.7754,-1128.5 277.2822,-1128.5 277.2822,-1110.5 146.7754,-1110.5"/>
<text text-anchor="middle" x="212.0288" y="-1116.5" font-family="Helvetica,sans-Serif" font-size="10.00" fill="#000000">Google_DatastoreService</text>
</a>
</g>
</g>
<!-- Node0&#45;&gt;Node17 -->
<g id="edge17" class="edge">
<title>Node0&#45;&gt;Node17</title>
<path fill="none" stroke="#191970" d="M47.3375,-879.6924C57.8312,-931.2852 88.9139,-1071.1143 123.1523,-1101.5 129.864,-1107.4564 137.9931,-1111.6528 146.5755,-1114.5775"/>
<polygon fill="#191970" stroke="#191970" points="50.7097,-878.7061 45.3175,-869.5861 43.8455,-880.0782 50.7097,-878.7061"/>
</g>
<!-- Node18 -->
<g id="node19" class="node">
<title>Node18</title>
<g id="a_node19"><a xlink:href="class_google___dfareporting_service.html" target="_top" xlink:title="Google_DfareportingService">
<polygon fill="#ffffff" stroke="#000000" points="140.938,-1073.5 140.938,-1091.5 283.1196,-1091.5 283.1196,-1073.5 140.938,-1073.5"/>
<text text-anchor="middle" x="212.0288" y="-1079.5" font-family="Helvetica,sans-Serif" font-size="10.00" fill="#000000">Google_DfareportingService</text>
</a>
</g>
</g>
<!-- Node0&#45;&gt;Node18 -->
<g id="edge18" class="edge">
<title>Node0&#45;&gt;Node18</title>
<path fill="none" stroke="#191970" d="M45.1139,-879.7527C49.4602,-920.5803 65.5711,-1016.0641 123.1523,-1064.5 128.3328,-1068.8577 134.2805,-1072.2593 140.5915,-1074.9031"/>
<polygon fill="#191970" stroke="#191970" points="48.5768,-879.1933 44.1586,-869.5638 41.6074,-879.8468 48.5768,-879.1933"/>
</g>
<!-- Node19 -->
<g id="node20" class="node">
<title>Node19</title>
<g id="a_node20"><a xlink:href="class_google___directory_service.html" target="_top" xlink:title="Google_DirectoryService">
<polygon fill="#ffffff" stroke="#000000" points="148.4502,-1036.5 148.4502,-1054.5 275.6074,-1054.5 275.6074,-1036.5 148.4502,-1036.5"/>
<text text-anchor="middle" x="212.0288" y="-1042.5" font-family="Helvetica,sans-Serif" font-size="10.00" fill="#000000">Google_DirectoryService</text>
</a>
</g>
</g>
<!-- Node0&#45;&gt;Node19 -->
<g id="edge19" class="edge">
<title>Node0&#45;&gt;Node19</title>
<path fill="none" stroke="#191970" d="M46.9768,-879.8652C54.2405,-915.1353 74.7294,-989.6874 123.1523,-1027.5 130.4732,-1033.2167 139.1404,-1037.2545 148.1444,-1040.0835"/>
<polygon fill="#191970" stroke="#191970" points="50.3849,-879.0526 45.0646,-869.8905 43.5101,-880.3706 50.3849,-879.0526"/>
</g>
<!-- Node20 -->
<g id="node21" class="node">
<title>Node20</title>
<g id="a_node21"><a xlink:href="class_google___drive_service.html" target="_top" xlink:title="Google_DriveService">
<polygon fill="#ffffff" stroke="#000000" points="156.7852,-999.5 156.7852,-1017.5 267.2725,-1017.5 267.2725,-999.5 156.7852,-999.5"/>
<text text-anchor="middle" x="212.0288" y="-1005.5" font-family="Helvetica,sans-Serif" font-size="10.00" fill="#000000">Google_DriveService</text>
</a>
</g>
</g>
<!-- Node0&#45;&gt;Node20 -->
<g id="edge20" class="edge">
<title>Node0&#45;&gt;Node20</title>
<path fill="none" stroke="#191970" d="M49.5277,-879.1505C59.7205,-907.9051 83.3595,-962.6485 123.1523,-990.5 132.9547,-997.3608 144.77,-1001.7344 156.5392,-1004.493"/>
<polygon fill="#191970" stroke="#191970" points="52.7888,-877.8678 46.2739,-869.5127 46.1566,-880.1069 52.7888,-877.8678"/>
</g>
<!-- Node21 -->
<g id="node22" class="node">
<title>Node21</title>
<g id="a_node22"><a xlink:href="class_google___freebase_service.html" target="_top" xlink:title="Google_FreebaseService">
<polygon fill="#ffffff" stroke="#000000" points="147.3296,-962.5 147.3296,-980.5 276.728,-980.5 276.728,-962.5 147.3296,-962.5"/>
<text text-anchor="middle" x="212.0288" y="-968.5" font-family="Helvetica,sans-Serif" font-size="10.00" fill="#000000">Google_FreebaseService</text>
</a>
</g>
</g>
<!-- Node0&#45;&gt;Node21 -->
<g id="edge21" class="edge">
<title>Node0&#45;&gt;Node21</title>
<path fill="none" stroke="#191970" d="M53.7464,-878.4213C66.8926,-899.8446 91.8568,-935.1034 123.1523,-953.5 130.4812,-957.8082 138.6728,-961.0997 147.0369,-963.6119"/>
<polygon fill="#191970" stroke="#191970" points="56.6656,-876.4818 48.5575,-869.662 50.643,-880.0496 56.6656,-876.4818"/>
</g>
<!-- Node22 -->
<g id="node23" class="node">
<title>Node22</title>
<g id="a_node23"><a xlink:href="class_google___fusiontables_service.html" target="_top" xlink:title="Google_FusiontablesService">
<polygon fill="#ffffff" stroke="#000000" points="140.103,-925.5 140.103,-943.5 283.9546,-943.5 283.9546,-925.5 140.103,-925.5"/>
<text text-anchor="middle" x="212.0288" y="-931.5" font-family="Helvetica,sans-Serif" font-size="10.00" fill="#000000">Google_FusiontablesService</text>
</a>
</g>
</g>
<!-- Node0&#45;&gt;Node22 -->
<g id="edge22" class="edge">
<title>Node0&#45;&gt;Node22</title>
<path fill="none" stroke="#191970" d="M61.1788,-876.1508C76.4993,-888.9324 99.8485,-906.4675 123.1523,-916.5 131.6838,-920.1729 141.0036,-923.1088 150.2951,-925.4525"/>
<polygon fill="#191970" stroke="#191970" points="63.4177,-873.4602 53.5446,-869.6167 58.866,-878.7783 63.4177,-873.4602"/>
</g>
<!-- Node23 -->
<g id="node24" class="node">
<title>Node23</title>
<g id="a_node24"><a xlink:href="class_google___games_management_service.html" target="_top" xlink:title="Google_GamesManagementService">
<polygon fill="#ffffff" stroke="#000000" points="123.1523,-888.5 123.1523,-906.5 300.9053,-906.5 300.9053,-888.5 123.1523,-888.5"/>
<text text-anchor="middle" x="212.0288" y="-894.5" font-family="Helvetica,sans-Serif" font-size="10.00" fill="#000000">Google_GamesManagementService</text>
</a>
</g>
</g>
<!-- Node0&#45;&gt;Node23 -->
<g id="edge23" class="edge">
<title>Node0&#45;&gt;Node23</title>
<path fill="none" stroke="#191970" d="M90.4148,-871.9681C101.1548,-874.5185 112.5362,-877.1583 123.1523,-879.5 136.9886,-882.552 152.0811,-885.6828 165.8363,-888.4597"/>
<polygon fill="#191970" stroke="#191970" points="90.8999,-868.4854 80.36,-869.5629 89.2714,-875.2934 90.8999,-868.4854"/>
</g>
<!-- Node24 -->
<g id="node25" class="node">
<title>Node24</title>
<g id="a_node25"><a xlink:href="class_google___games_service.html" target="_top" xlink:title="Google_GamesService">
<polygon fill="#ffffff" stroke="#000000" points="152.3369,-851.5 152.3369,-869.5 271.7207,-869.5 271.7207,-851.5 152.3369,-851.5"/>
<text text-anchor="middle" x="212.0288" y="-857.5" font-family="Helvetica,sans-Serif" font-size="10.00" fill="#000000">Google_GamesService</text>
</a>
</g>
</g>
<!-- Node0&#45;&gt;Node24 -->
<g id="edge24" class="edge">
<title>Node0&#45;&gt;Node24</title>
<path fill="none" stroke="#191970" d="M97.4229,-860.5C114.8957,-860.5 134.3826,-860.5 152.2599,-860.5"/>
<polygon fill="#191970" stroke="#191970" points="97.3954,-857.0001 87.3954,-860.5 97.3953,-864.0001 97.3954,-857.0001"/>
</g>
<!-- Node25 -->
<g id="node26" class="node">
<title>Node25</title>
<g id="a_node26"><a xlink:href="class_google___gan_service.html" target="_top" xlink:title="Google_GanService">
<polygon fill="#ffffff" stroke="#000000" points="159.002,-814.5 159.002,-832.5 265.0557,-832.5 265.0557,-814.5 159.002,-814.5"/>
<text text-anchor="middle" x="212.0288" y="-820.5" font-family="Helvetica,sans-Serif" font-size="10.00" fill="#000000">Google_GanService</text>
</a>
</g>
</g>
<!-- Node0&#45;&gt;Node25 -->
<g id="edge25" class="edge">
<title>Node0&#45;&gt;Node25</title>
<path fill="none" stroke="#191970" d="M93.009,-849.2229C102.9835,-846.9743 113.3997,-844.6454 123.1523,-842.5 138.1002,-839.2118 154.4803,-835.6876 169.0613,-832.5783"/>
<polygon fill="#191970" stroke="#191970" points="92.2048,-845.8162 83.2226,-851.4349 93.7482,-852.644 92.2048,-845.8162"/>
</g>
<!-- Node26 -->
<g id="node27" class="node">
<title>Node26</title>
<g id="a_node27"><a xlink:href="class_google___groupssettings_service.html" target="_top" xlink:title="Google_GroupssettingsService">
<polygon fill="#ffffff" stroke="#000000" points="134.8247,-777.5 134.8247,-795.5 289.2329,-795.5 289.2329,-777.5 134.8247,-777.5"/>
<text text-anchor="middle" x="212.0288" y="-783.5" font-family="Helvetica,sans-Serif" font-size="10.00" fill="#000000">Google_GroupssettingsService</text>
</a>
</g>
</g>
<!-- Node0&#45;&gt;Node26 -->
<g id="edge26" class="edge">
<title>Node0&#45;&gt;Node26</title>
<path fill="none" stroke="#191970" d="M61.7759,-844.7808C77.1474,-832.3114 100.2573,-815.3881 123.1523,-805.5 132.7127,-801.371 143.2509,-798.1082 153.6272,-795.5393"/>
<polygon fill="#191970" stroke="#191970" points="59.5347,-842.0925 54.0829,-851.177 64.0099,-847.4751 59.5347,-842.0925"/>
</g>
<!-- Node27 -->
<g id="node28" class="node">
<title>Node27</title>
<g id="a_node28"><a xlink:href="class_google___licensing_service.html" target="_top" xlink:title="Google_LicensingService">
<polygon fill="#ffffff" stroke="#000000" points="147.3271,-740.5 147.3271,-758.5 276.7305,-758.5 276.7305,-740.5 147.3271,-740.5"/>
<text text-anchor="middle" x="212.0288" y="-746.5" font-family="Helvetica,sans-Serif" font-size="10.00" fill="#000000">Google_LicensingService</text>
</a>
</g>
</g>
<!-- Node0&#45;&gt;Node27 -->
<g id="edge27" class="edge">
<title>Node0&#45;&gt;Node27</title>
<path fill="none" stroke="#191970" d="M53.8273,-842.8273C67.0548,-821.6905 92.1005,-786.8672 123.1523,-768.5 130.4859,-764.1622 138.6802,-760.809 147.0457,-758.218"/>
<polygon fill="#191970" stroke="#191970" points="50.7821,-841.0993 48.6023,-851.4675 56.772,-844.7216 50.7821,-841.0993"/>
</g>
<!-- Node28 -->
<g id="node29" class="node">
<title>Node28</title>
<g id="a_node29"><a xlink:href="class_google___mirror_service.html" target="_top" xlink:title="Google_MirrorService">
<polygon fill="#ffffff" stroke="#000000" points="155.4009,-703.5 155.4009,-721.5 268.6567,-721.5 268.6567,-703.5 155.4009,-703.5"/>
<text text-anchor="middle" x="212.0288" y="-709.5" font-family="Helvetica,sans-Serif" font-size="10.00" fill="#000000">Google_MirrorService</text>
</a>
</g>
</g>
<!-- Node0&#45;&gt;Node28 -->
<g id="edge28" class="edge">
<title>Node0&#45;&gt;Node28</title>
<path fill="none" stroke="#191970" d="M49.7558,-841.6275C60.1342,-813.0514 83.8745,-759.2064 123.1523,-731.5 132.5646,-724.8606 143.8359,-720.4628 155.1406,-717.568"/>
<polygon fill="#191970" stroke="#191970" points="46.3938,-840.6404 46.4279,-851.2352 53.0082,-842.9316 46.3938,-840.6404"/>
</g>
<!-- Node29 -->
<g id="node30" class="node">
<title>Node29</title>
<g id="a_node30"><a xlink:href="class_google___moderator_service.html" target="_top" xlink:title="Google_ModeratorService">
<polygon fill="#ffffff" stroke="#000000" points="145.6646,-666.5 145.6646,-684.5 278.3931,-684.5 278.3931,-666.5 145.6646,-666.5"/>
<text text-anchor="middle" x="212.0288" y="-672.5" font-family="Helvetica,sans-Serif" font-size="10.00" fill="#000000">Google_ModeratorService</text>
</a>
</g>
</g>
<!-- Node0&#45;&gt;Node29 -->
<g id="edge29" class="edge">
<title>Node0&#45;&gt;Node29</title>
<path fill="none" stroke="#191970" d="M47.0526,-841.2978C54.4404,-806.3158 75.1249,-732.3313 123.1523,-694.5 129.7217,-689.3253 137.3804,-685.4789 145.3957,-682.6325"/>
<polygon fill="#191970" stroke="#191970" points="43.6028,-840.7018 45.1034,-851.1898 50.4708,-842.0552 43.6028,-840.7018"/>
</g>
<!-- Node30 -->
<g id="node31" class="node">
<title>Node30</title>
<g id="a_node31"><a xlink:href="class_google___oauth2_service.html" target="_top" xlink:title="Google_Oauth2Service">
<polygon fill="#ffffff" stroke="#000000" points="152.0513,-629.5 152.0513,-647.5 272.0063,-647.5 272.0063,-629.5 152.0513,-629.5"/>
<text text-anchor="middle" x="212.0288" y="-635.5" font-family="Helvetica,sans-Serif" font-size="10.00" fill="#000000">Google_Oauth2Service</text>
</a>
</g>
</g>
<!-- Node0&#45;&gt;Node30 -->
<g id="edge30" class="edge">
<title>Node0&#45;&gt;Node30</title>
<path fill="none" stroke="#191970" d="M45.2192,-841.0846C49.7526,-800.3773 66.1779,-705.8707 123.1523,-657.5 131.3316,-650.5559 141.4365,-645.9603 151.8668,-642.9554"/>
<polygon fill="#191970" stroke="#191970" points="41.7343,-840.7603 44.2321,-851.0565 48.7003,-841.4499 41.7343,-840.7603"/>
</g>
<!-- Node31 -->
<g id="node32" class="node">
<title>Node31</title>
<g id="a_node32"><a xlink:href="class_google___orkut_service.html" target="_top" xlink:title="Google_OrkutService">
<polygon fill="#ffffff" stroke="#000000" points="156.2285,-592.5 156.2285,-610.5 267.8291,-610.5 267.8291,-592.5 156.2285,-592.5"/>
<text text-anchor="middle" x="212.0288" y="-598.5" font-family="Helvetica,sans-Serif" font-size="10.00" fill="#000000">Google_OrkutService</text>
</a>
</g>
</g>
<!-- Node0&#45;&gt;Node31 -->
<g id="edge31" class="edge">
<title>Node0&#45;&gt;Node31</title>
<path fill="none" stroke="#191970" d="M47.3666,-841.4058C57.934,-790.0744 89.1868,-650.9344 123.1523,-620.5 132.3183,-612.2869 144.1496,-607.3148 156.171,-604.3712"/>
<polygon fill="#191970" stroke="#191970" points="43.8849,-840.9651 45.3317,-851.4607 50.7458,-842.3537 43.8849,-840.9651"/>
</g>
<!-- Node32 -->
<g id="node33" class="node">
<title>Node32</title>
<g id="a_node33"><a xlink:href="class_google___pagespeedonline_service.html" target="_top" xlink:title="Google_PagespeedonlineService">
<polygon fill="#ffffff" stroke="#000000" points="129.8076,-555.5 129.8076,-573.5 294.25,-573.5 294.25,-555.5 129.8076,-555.5"/>
<text text-anchor="middle" x="212.0288" y="-561.5" font-family="Helvetica,sans-Serif" font-size="10.00" fill="#000000">Google_PagespeedonlineService</text>
</a>
</g>
</g>
<!-- Node0&#45;&gt;Node32 -->
<g id="edge32" class="edge">
<title>Node0&#45;&gt;Node32</title>
<path fill="none" stroke="#191970" d="M46.5151,-841.1427C55.5345,-784.284 84.5646,-619.5081 123.1523,-583.5 127.4207,-579.517 132.3118,-576.2884 137.5565,-573.6794"/>
<polygon fill="#191970" stroke="#191970" points="43.0168,-840.8613 44.9392,-851.2803 49.9338,-841.9365 43.0168,-840.8613"/>
</g>
<!-- Node33 -->
<g id="node34" class="node">
<title>Node33</title>
<g id="a_node34"><a xlink:href="class_google___plus_service.html" target="_top" xlink:title="Google_PlusService">
<polygon fill="#ffffff" stroke="#000000" points="158.7261,-518.5 158.7261,-536.5 265.3315,-536.5 265.3315,-518.5 158.7261,-518.5"/>
<text text-anchor="middle" x="212.0288" y="-524.5" font-family="Helvetica,sans-Serif" font-size="10.00" fill="#000000">Google_PlusService</text>
</a>
</g>
</g>
<!-- Node0&#45;&gt;Node33 -->
<g id="edge33" class="edge">
<title>Node0&#45;&gt;Node33</title>
<path fill="none" stroke="#191970" d="M45.8283,-841.0507C53.3917,-779.1266 79.8664,-588.1886 123.1523,-546.5 132.6988,-537.3058 145.5494,-532.0996 158.508,-529.2543"/>
<polygon fill="#191970" stroke="#191970" points="42.31,-840.9975 44.6022,-851.3414 49.2608,-841.8257 42.31,-840.9975"/>
</g>
<!-- Node34 -->
<g id="node35" class="node">
<title>Node34</title>
<g id="a_node35"><a xlink:href="class_google___prediction_service.html" target="_top" xlink:title="Google_PredictionService">
<polygon fill="#ffffff" stroke="#000000" points="146.2188,-481.5 146.2188,-499.5 277.8389,-499.5 277.8389,-481.5 146.2188,-481.5"/>
<text text-anchor="middle" x="212.0288" y="-487.5" font-family="Helvetica,sans-Serif" font-size="10.00" fill="#000000">Google_PredictionService</text>
</a>
</g>
</g>
<!-- Node0&#45;&gt;Node34 -->
<g id="edge34" class="edge">
<title>Node0&#45;&gt;Node34</title>
<path fill="none" stroke="#191970" d="M45.2784,-840.9704C51.4912,-774.2602 75.135,-556.9287 123.1523,-509.5 129.551,-503.1798 137.5064,-498.7321 146.0081,-495.6364"/>
<polygon fill="#191970" stroke="#191970" points="41.7604,-841.0138 44.3464,-851.2881 48.732,-841.6436 41.7604,-841.0138"/>
</g>
<!-- Node35 -->
<g id="node36" class="node">
<title>Node35</title>
<g id="a_node36"><a xlink:href="class_google___reports_service.html" target="_top" xlink:title="Google_ReportsService">
<polygon fill="#ffffff" stroke="#000000" points="150.9453,-444.5 150.9453,-462.5 273.1123,-462.5 273.1123,-444.5 150.9453,-444.5"/>
<text text-anchor="middle" x="212.0288" y="-450.5" font-family="Helvetica,sans-Serif" font-size="10.00" fill="#000000">Google_ReportsService</text>
</a>
</g>
</g>
<!-- Node0&#45;&gt;Node35 -->
<g id="edge35" class="edge">
<title>Node0&#45;&gt;Node35</title>
<path fill="none" stroke="#191970" d="M44.8037,-841.2453C49.7135,-770.433 70.2908,-525.8032 123.1523,-472.5 130.7076,-464.8816 140.5199,-459.97 150.8572,-456.8646"/>
<polygon fill="#191970" stroke="#191970" points="41.3002,-841.1818 44.1265,-851.3927 48.2847,-841.6479 41.3002,-841.1818"/>
</g>
<!-- Node36 -->
<g id="node37" class="node">
<title>Node36</title>
<g id="a_node37"><a xlink:href="class_google___reseller_service.html" target="_top" xlink:title="Google_ResellerService">
<polygon fill="#ffffff" stroke="#000000" points="150.1128,-407.5 150.1128,-425.5 273.9448,-425.5 273.9448,-407.5 150.1128,-407.5"/>
<text text-anchor="middle" x="212.0288" y="-413.5" font-family="Helvetica,sans-Serif" font-size="10.00" fill="#000000">Google_ResellerService</text>
</a>
</g>
</g>
<!-- Node0&#45;&gt;Node36 -->
<g id="edge36" class="edge">
<title>Node0&#45;&gt;Node36</title>
<path fill="none" stroke="#191970" d="M44.4481,-840.895C48.2128,-765.3723 65.5806,-494.5597 123.1523,-435.5 130.4215,-428.0429 139.8499,-423.1681 149.841,-420.0395"/>
<polygon fill="#191970" stroke="#191970" points="40.9335,-841.1225 43.9567,-851.2768 47.9257,-841.4536 40.9335,-841.1225"/>
</g>
<!-- Node37 -->
<g id="node38" class="node">
<title>Node37</title>
<g id="a_node38"><a xlink:href="class_google___shopping_service.html" target="_top" xlink:title="Google_ShoppingService">
<polygon fill="#ffffff" stroke="#000000" points="147.3223,-370.5 147.3223,-388.5 276.7354,-388.5 276.7354,-370.5 147.3223,-370.5"/>
<text text-anchor="middle" x="212.0288" y="-376.5" font-family="Helvetica,sans-Serif" font-size="10.00" fill="#000000">Google_ShoppingService</text>
</a>
</g>
</g>
<!-- Node0&#45;&gt;Node37 -->
<g id="edge37" class="edge">
<title>Node0&#45;&gt;Node37</title>
<path fill="none" stroke="#191970" d="M44.1162,-841.2398C46.7344,-762.1608 60.6747,-463.5307 123.1523,-398.5 129.7113,-391.673 138.0778,-387.0025 147.0444,-383.8526"/>
<polygon fill="#191970" stroke="#191970" points="40.6172,-841.1572 43.8076,-851.2602 47.6139,-841.3727 40.6172,-841.1572"/>
</g>
<!-- Node38 -->
<g id="node39" class="node">
<title>Node38</title>
<g id="a_node39"><a xlink:href="class_google___site_verification_service.html" target="_top" xlink:title="Google_SiteVerificationService">
<polygon fill="#ffffff" stroke="#000000" points="135.3765,-333.5 135.3765,-351.5 288.6812,-351.5 288.6812,-333.5 135.3765,-333.5"/>
<text text-anchor="middle" x="212.0288" y="-339.5" font-family="Helvetica,sans-Serif" font-size="10.00" fill="#000000">Google_SiteVerificationService</text>
</a>
</g>
</g>
<!-- Node0&#45;&gt;Node38 -->
<g id="edge38" class="edge">
<title>Node0&#45;&gt;Node38</title>
<path fill="none" stroke="#191970" d="M43.8456,-841.3115C45.4107,-758.4682 55.8215,-432.4597 123.1523,-361.5 126.9536,-357.4939 131.3767,-354.2281 136.1806,-351.575"/>
<polygon fill="#191970" stroke="#191970" points="40.3458,-841.2784 43.6785,-851.3354 47.3448,-841.3952 40.3458,-841.2784"/>
</g>
<!-- Node39 -->
<g id="node40" class="node">
<title>Node39</title>
<g id="a_node40"><a xlink:href="class_google___s_q_l_admin_service.html" target="_top" xlink:title="Google_SQLAdminService">
<polygon fill="#ffffff" stroke="#000000" points="144.2754,-296.5 144.2754,-314.5 279.7822,-314.5 279.7822,-296.5 144.2754,-296.5"/>
<text text-anchor="middle" x="212.0288" y="-302.5" font-family="Helvetica,sans-Serif" font-size="10.00" fill="#000000">Google_SQLAdminService</text>
</a>
</g>
</g>
<!-- Node0&#45;&gt;Node39 -->
<g id="edge39" class="edge">
<title>Node0&#45;&gt;Node39</title>
<path fill="none" stroke="#191970" d="M45.164,-840.9656C52.8011,-749.1282 86.8772,-363.1442 123.1523,-324.5 128.9838,-318.2877 136.3096,-313.8509 144.2399,-310.7168"/>
<polygon fill="#191970" stroke="#191970" points="41.6633,-840.8314 44.3311,-851.0848 48.6398,-841.4056 41.6633,-840.8314"/>
</g>
<!-- Node40 -->
<g id="node41" class="node">
<title>Node40</title>
<g id="a_node41"><a xlink:href="class_google___storage_service.html" target="_top" xlink:title="Google_StorageService">
<polygon fill="#ffffff" stroke="#000000" points="150.9404,-259.5 150.9404,-277.5 273.1172,-277.5 273.1172,-259.5 150.9404,-259.5"/>
<text text-anchor="middle" x="212.0288" y="-265.5" font-family="Helvetica,sans-Serif" font-size="10.00" fill="#000000">Google_StorageService</text>
</a>
</g>
</g>
<!-- Node0&#45;&gt;Node40 -->
<g id="edge40" class="edge">
<title>Node0&#45;&gt;Node40</title>
<path fill="none" stroke="#191970" d="M44.9552,-841.1503C51.9193,-745.8353 84.4163,-329.1562 123.1523,-287.5 130.5662,-279.5272 140.4402,-274.4719 150.9095,-271.3407"/>
<polygon fill="#191970" stroke="#191970" points="41.4482,-841.1229 44.2185,-851.3491 48.43,-841.6273 41.4482,-841.1229"/>
</g>
<!-- Node41 -->
<g id="node42" class="node">
<title>Node41</title>
<g id="a_node42"><a xlink:href="class_google___taskqueue_service.html" target="_top" xlink:title="Google_TaskqueueService">
<polygon fill="#ffffff" stroke="#000000" points="144.2681,-222.5 144.2681,-240.5 279.7896,-240.5 279.7896,-222.5 144.2681,-222.5"/>
<text text-anchor="middle" x="212.0288" y="-228.5" font-family="Helvetica,sans-Serif" font-size="10.00" fill="#000000">Google_TaskqueueService</text>
</a>
</g>
</g>
<!-- Node0&#45;&gt;Node41 -->
<g id="edge41" class="edge">
<title>Node0&#45;&gt;Node41</title>
<path fill="none" stroke="#191970" d="M44.7848,-841.1531C51.1411,-742.1535 81.974,-295.1516 123.1523,-250.5 128.9287,-244.2365 136.2226,-239.77 144.137,-236.621"/>
<polygon fill="#191970" stroke="#191970" points="41.2859,-841.0277 44.1458,-851.2292 48.2718,-841.4709 41.2859,-841.0277"/>
</g>
<!-- Node42 -->
<g id="node43" class="node">
<title>Node42</title>
<g id="a_node43"><a xlink:href="class_google___tasks_service.html" target="_top" xlink:title="Google_TasksService">
<polygon fill="#ffffff" stroke="#000000" points="155.6719,-185.5 155.6719,-203.5 268.3857,-203.5 268.3857,-185.5 155.6719,-185.5"/>
<text text-anchor="middle" x="212.0288" y="-191.5" font-family="Helvetica,sans-Serif" font-size="10.00" fill="#000000">Google_TasksService</text>
</a>
</g>
</g>
<!-- Node0&#45;&gt;Node42 -->
<g id="edge42" class="edge">
<title>Node0&#45;&gt;Node42</title>
<path fill="none" stroke="#191970" d="M44.6449,-840.9593C50.4508,-737.9739 79.5548,-261.1245 123.1523,-213.5 131.5692,-204.3057 143.255,-198.9766 155.3906,-196.0028"/>
<polygon fill="#191970" stroke="#191970" points="41.1386,-840.9756 44.0779,-851.1545 48.1278,-841.3643 41.1386,-840.9756"/>
</g>
<!-- Node43 -->
<g id="node44" class="node">
<title>Node43</title>
<g id="a_node44"><a xlink:href="class_google___translate_service.html" target="_top" xlink:title="Google_TranslateService">
<polygon fill="#ffffff" stroke="#000000" points="147.7935,-148.5 147.7935,-166.5 276.2642,-166.5 276.2642,-148.5 147.7935,-148.5"/>
<text text-anchor="middle" x="212.0288" y="-154.5" font-family="Helvetica,sans-Serif" font-size="10.00" fill="#000000">Google_TranslateService</text>
</a>
</g>
</g>
<!-- Node0&#45;&gt;Node43 -->
<g id="edge43" class="edge">
<title>Node0&#45;&gt;Node43</title>
<path fill="none" stroke="#191970" d="M44.4973,-841.1907C49.725,-735.2148 77.0711,-227.1703 123.1523,-176.5 129.7343,-169.2626 138.3411,-164.4164 147.606,-161.2276"/>
<polygon fill="#191970" stroke="#191970" points="40.9923,-841.2105 44.0029,-851.3686 47.9841,-841.5503 40.9923,-841.2105"/>
</g>
<!-- Node44 -->
<g id="node45" class="node">
<title>Node44</title>
<g id="a_node45"><a xlink:href="class_google___urlshortener_service.html" target="_top" xlink:title="Google_UrlshortenerService">
<polygon fill="#ffffff" stroke="#000000" points="140.9429,-111.5 140.9429,-129.5 283.1147,-129.5 283.1147,-111.5 140.9429,-111.5"/>
<text text-anchor="middle" x="212.0288" y="-117.5" font-family="Helvetica,sans-Serif" font-size="10.00" fill="#000000">Google_UrlshortenerService</text>
</a>
</g>
</g>
<!-- Node0&#45;&gt;Node44 -->
<g id="edge44" class="edge">
<title>Node0&#45;&gt;Node44</title>
<path fill="none" stroke="#191970" d="M44.3918,-840.8365C49.1368,-730.6744 74.6684,-193.1289 123.1523,-139.5 128.0199,-134.1159 134.0077,-130.0533 140.5562,-127.0111"/>
<polygon fill="#191970" stroke="#191970" points="40.8821,-840.9929 43.9558,-851.1321 47.8758,-841.2892 40.8821,-840.9929"/>
</g>
<!-- Node45 -->
<g id="node46" class="node">
<title>Node45</title>
<g id="a_node46"><a xlink:href="class_google___webfonts_service.html" target="_top" xlink:title="Google_WebfontsService">
<polygon fill="#ffffff" stroke="#000000" points="147.4199,-74.5 147.4199,-92.5 276.6377,-92.5 276.6377,-74.5 147.4199,-74.5"/>
<text text-anchor="middle" x="212.0288" y="-80.5" font-family="Helvetica,sans-Serif" font-size="10.00" fill="#000000">Google_WebfontsService</text>
</a>
</g>
</g>
<!-- Node0&#45;&gt;Node45 -->
<g id="edge45" class="edge">
<title>Node0&#45;&gt;Node45</title>
<path fill="none" stroke="#191970" d="M44.265,-841.2546C48.4642,-728.7508 72.1482,-159.2195 123.1523,-102.5 129.5881,-95.3431 138.003,-90.5182 147.0885,-87.3202"/>
<polygon fill="#191970" stroke="#191970" points="40.7605,-841.3174 43.8921,-851.4388 47.7558,-841.5736 40.7605,-841.3174"/>
</g>
<!-- Node46 -->
<g id="node47" class="node">
<title>Node46</title>
<g id="a_node47"><a xlink:href="class_google___you_tube_analytics_service.html" target="_top" xlink:title="Google_YouTubeAnalyticsService">
<polygon fill="#ffffff" stroke="#000000" points="128.7944,-37.5 128.7944,-55.5 295.2632,-55.5 295.2632,-37.5 128.7944,-37.5"/>
<text text-anchor="middle" x="212.0288" y="-43.5" font-family="Helvetica,sans-Serif" font-size="10.00" fill="#000000">Google_YouTubeAnalyticsService</text>
</a>
</g>
</g>
<!-- Node0&#45;&gt;Node46 -->
<g id="edge46" class="edge">
<title>Node0&#45;&gt;Node46</title>
<path fill="none" stroke="#191970" d="M44.1732,-841.0409C47.9141,-724.8017 69.7191,-125.2104 123.1523,-65.5 126.7298,-61.5023 130.9247,-58.2313 135.51,-55.5645"/>
<polygon fill="#191970" stroke="#191970" points="40.6678,-841.1601 43.8511,-851.2653 47.6643,-841.3805 40.6678,-841.1601"/>
</g>
<!-- Node47 -->
<g id="node48" class="node">
<title>Node47</title>
<g id="a_node48"><a xlink:href="class_google___you_tube_service.html" target="_top" xlink:title="Google_YouTubeService">
<polygon fill="#ffffff" stroke="#000000" points="148.8018,-.5 148.8018,-18.5 275.2559,-18.5 275.2559,-.5 148.8018,-.5"/>
<text text-anchor="middle" x="212.0288" y="-6.5" font-family="Helvetica,sans-Serif" font-size="10.00" fill="#000000">Google_YouTubeService</text>
</a>
</g>
</g>
<!-- Node0&#45;&gt;Node47 -->
<g id="edge47" class="edge">
<title>Node0&#45;&gt;Node47</title>
<path fill="none" stroke="#191970" d="M44.0763,-841.2561C47.3377,-722.4057 67.2212,-91.2798 123.1523,-28.5 129.8698,-20.96 138.7833,-16.0025 148.375,-12.8075"/>
<polygon fill="#191970" stroke="#191970" points="40.5741,-841.295 43.805,-851.3851 47.5716,-841.4824 40.5741,-841.295"/>
</g>
</g>
</svg>
