<?xml version="1.0" encoding="UTF-8" standalone="no"?>
<!DOCTYPE svg PUBLIC "-//W3C//DTD SVG 1.1//EN"
 "http://www.w3.org/Graphics/SVG/1.1/DTD/svg11.dtd">
<!-- Generated by graphviz version 2.40.1 (20161225.0304)
 -->
<!-- Title: Графічна ієрархія класів Pages: 1 -->
<svg width="314pt" height="131pt"
 viewBox="0.00 0.00 314.08 131.00" xmlns="http://www.w3.org/2000/svg" xmlns:xlink="http://www.w3.org/1999/xlink">
<g id="graph0" class="graph" transform="scale(1 1) rotate(0) translate(4 127)">
<title>Графічна ієрархія класів</title>
<polygon fill="#ffffff" stroke="transparent" points="-4,4 -4,-127 310.0762,-127 310.0762,4 -4,4"/>
<!-- Node0 -->
<g id="node1" class="node">
<title>Node0</title>
<g id="a_node1"><a xlink:href="interface_swift___transport___esmtp___authenticator.html" target="_top" xlink:title="Swift_Transport_Esmtp\l_Authenticator">
<polygon fill="#ffffff" stroke="#000000" points="0,-47.5 0,-75.5 119.5596,-75.5 119.5596,-47.5 0,-47.5"/>
<text text-anchor="start" x="8" y="-63.5" font-family="Helvetica,sans-Serif" font-size="10.00" fill="#000000">Swift_Transport_Esmtp</text>
<text text-anchor="middle" x="59.7798" y="-53.5" font-family="Helvetica,sans-Serif" font-size="10.00" fill="#000000">_Authenticator</text>
</a>
</g>
</g>
<!-- Node1 -->
<g id="node2" class="node">
<title>Node1</title>
<g id="a_node2"><a xlink:href="class_swift___transport___esmtp___auth___cram_md5_authenticator.html" target="_top" xlink:title="Swift_Transport_Esmtp\l_Auth_CramMd5Authenticator">
<polygon fill="#ffffff" stroke="#000000" points="155.5596,-94.5 155.5596,-122.5 306.0762,-122.5 306.0762,-94.5 155.5596,-94.5"/>
<text text-anchor="start" x="163.5596" y="-110.5" font-family="Helvetica,sans-Serif" font-size="10.00" fill="#000000">Swift_Transport_Esmtp</text>
<text text-anchor="middle" x="230.8179" y="-100.5" font-family="Helvetica,sans-Serif" font-size="10.00" fill="#000000">_Auth_CramMd5Authenticator</text>
</a>
</g>
</g>
<!-- Node0&#45;&gt;Node1 -->
<g id="edge1" class="edge">
<title>Node0&#45;&gt;Node1</title>
<path fill="none" stroke="#191970" d="M120.991,-78.3204C140.2691,-83.6179 161.3444,-89.4092 179.8319,-94.4894"/>
<polygon fill="#191970" stroke="#191970" points="121.6668,-74.8764 111.0969,-75.6015 119.812,-81.6262 121.6668,-74.8764"/>
</g>
<!-- Node2 -->
<g id="node3" class="node">
<title>Node2</title>
<g id="a_node3"><a xlink:href="class_swift___transport___esmtp___auth___login_authenticator.html" target="_top" xlink:title="Swift_Transport_Esmtp\l_Auth_LoginAuthenticator">
<polygon fill="#ffffff" stroke="#000000" points="165.2739,-47.5 165.2739,-75.5 296.3618,-75.5 296.3618,-47.5 165.2739,-47.5"/>
<text text-anchor="start" x="173.2739" y="-63.5" font-family="Helvetica,sans-Serif" font-size="10.00" fill="#000000">Swift_Transport_Esmtp</text>
<text text-anchor="middle" x="230.8179" y="-53.5" font-family="Helvetica,sans-Serif" font-size="10.00" fill="#000000">_Auth_LoginAuthenticator</text>
</a>
</g>
</g>
<!-- Node0&#45;&gt;Node2 -->
<g id="edge2" class="edge">
<title>Node0&#45;&gt;Node2</title>
<path fill="none" stroke="#191970" d="M129.7683,-61.5C141.4825,-61.5 153.599,-61.5 165.1983,-61.5"/>
<polygon fill="#191970" stroke="#191970" points="129.6006,-58.0001 119.6006,-61.5 129.6006,-65.0001 129.6006,-58.0001"/>
</g>
<!-- Node3 -->
<g id="node4" class="node">
<title>Node3</title>
<g id="a_node4"><a xlink:href="class_swift___transport___esmtp___auth___plain_authenticator.html" target="_top" xlink:title="Swift_Transport_Esmtp\l_Auth_PlainAuthenticator">
<polygon fill="#ffffff" stroke="#000000" points="166.3896,-.5 166.3896,-28.5 295.2461,-28.5 295.2461,-.5 166.3896,-.5"/>
<text text-anchor="start" x="174.3896" y="-16.5" font-family="Helvetica,sans-Serif" font-size="10.00" fill="#000000">Swift_Transport_Esmtp</text>
<text text-anchor="middle" x="230.8179" y="-6.5" font-family="Helvetica,sans-Serif" font-size="10.00" fill="#000000">_Auth_PlainAuthenticator</text>
</a>
</g>
</g>
<!-- Node0&#45;&gt;Node3 -->
<g id="edge3" class="edge">
<title>Node0&#45;&gt;Node3</title>
<path fill="none" stroke="#191970" d="M120.991,-44.6796C140.2691,-39.3821 161.3444,-33.5908 179.8319,-28.5106"/>
<polygon fill="#191970" stroke="#191970" points="119.812,-41.3738 111.0969,-47.3985 121.6668,-48.1236 119.812,-41.3738"/>
</g>
</g>
</svg>
