<?xml version="1.0" encoding="UTF-8" standalone="no"?>
<!DOCTYPE svg PUBLIC "-//W3C//DTD SVG 1.1//EN"
 "http://www.w3.org/Graphics/SVG/1.1/DTD/svg11.dtd">
<!-- Generated by graphviz version 2.40.1 (20161225.0304)
 -->
<!-- Title: Графічна ієрархія класів Pages: 1 -->
<svg width="285pt" height="131pt"
 viewBox="0.00 0.00 285.02 131.00" xmlns="http://www.w3.org/2000/svg" xmlns:xlink="http://www.w3.org/1999/xlink">
<g id="graph0" class="graph" transform="scale(1 1) rotate(0) translate(4 127)">
<title>Графічна ієрархія класів</title>
<polygon fill="#ffffff" stroke="transparent" points="-4,4 -4,-127 281.0234,-127 281.0234,4 -4,4"/>
<!-- Node0 -->
<g id="node1" class="node">
<title>Node0</title>
<g id="a_node1"><a xlink:href="class_o_auth_signature_method.html" target="_top" xlink:title="OAuthSignatureMethod">
<polygon fill="#ffffff" stroke="#000000" points="0,-52.5 0,-70.5 120.5117,-70.5 120.5117,-52.5 0,-52.5"/>
<text text-anchor="middle" x="60.2559" y="-58.5" font-family="Helvetica,sans-Serif" font-size="10.00" fill="#000000">OAuthSignatureMethod</text>
</a>
</g>
</g>
<!-- Node1 -->
<g id="node2" class="node">
<title>Node1</title>
<g id="a_node2"><a xlink:href="class_o_auth_signature_method___h_m_a_c___s_h_a1.html" target="_top" xlink:title="OAuthSignatureMethod\l_HMAC_SHA1">
<polygon fill="#ffffff" stroke="#000000" points="156.5117,-94.5 156.5117,-122.5 277.0234,-122.5 277.0234,-94.5 156.5117,-94.5"/>
<text text-anchor="start" x="164.5117" y="-110.5" font-family="Helvetica,sans-Serif" font-size="10.00" fill="#000000">OAuthSignatureMethod</text>
<text text-anchor="middle" x="216.7676" y="-100.5" font-family="Helvetica,sans-Serif" font-size="10.00" fill="#000000">_HMAC_SHA1</text>
</a>
</g>
</g>
<!-- Node0&#45;&gt;Node1 -->
<g id="edge1" class="edge">
<title>Node0&#45;&gt;Node1</title>
<path fill="none" stroke="#191970" d="M100.139,-73.4768C121.4429,-79.8743 147.7889,-87.7859 170.0474,-94.4701"/>
<polygon fill="#191970" stroke="#191970" points="101.017,-70.0861 90.4329,-70.5621 99.0037,-76.7904 101.017,-70.0861"/>
</g>
<!-- Node2 -->
<g id="node3" class="node">
<title>Node2</title>
<g id="a_node3"><a xlink:href="class_o_auth_signature_method___p_l_a_i_n_t_e_x_t.html" target="_top" xlink:title="OAuthSignatureMethod\l_PLAINTEXT">
<polygon fill="#ffffff" stroke="#000000" points="156.5117,-47.5 156.5117,-75.5 277.0234,-75.5 277.0234,-47.5 156.5117,-47.5"/>
<text text-anchor="start" x="164.5117" y="-63.5" font-family="Helvetica,sans-Serif" font-size="10.00" fill="#000000">OAuthSignatureMethod</text>
<text text-anchor="middle" x="216.7676" y="-53.5" font-family="Helvetica,sans-Serif" font-size="10.00" fill="#000000">_PLAINTEXT</text>
</a>
</g>
</g>
<!-- Node0&#45;&gt;Node2 -->
<g id="edge2" class="edge">
<title>Node0&#45;&gt;Node2</title>
<path fill="none" stroke="#191970" d="M131.0253,-61.5C139.5053,-61.5 148.1036,-61.5 156.417,-61.5"/>
<polygon fill="#191970" stroke="#191970" points="130.7674,-58.0001 120.7674,-61.5 130.7673,-65.0001 130.7674,-58.0001"/>
</g>
<!-- Node3 -->
<g id="node4" class="node">
<title>Node3</title>
<g id="a_node4"><a xlink:href="class_o_auth_signature_method___r_s_a___s_h_a1.html" target="_top" xlink:title="OAuthSignatureMethod\l_RSA_SHA1">
<polygon fill="#ffffff" stroke="#000000" points="156.5117,-.5 156.5117,-28.5 277.0234,-28.5 277.0234,-.5 156.5117,-.5"/>
<text text-anchor="start" x="164.5117" y="-16.5" font-family="Helvetica,sans-Serif" font-size="10.00" fill="#000000">OAuthSignatureMethod</text>
<text text-anchor="middle" x="216.7676" y="-6.5" font-family="Helvetica,sans-Serif" font-size="10.00" fill="#000000">_RSA_SHA1</text>
</a>
</g>
</g>
<!-- Node0&#45;&gt;Node3 -->
<g id="edge3" class="edge">
<title>Node0&#45;&gt;Node3</title>
<path fill="none" stroke="#191970" d="M100.139,-49.5232C121.4429,-43.1257 147.7889,-35.2141 170.0474,-28.5299"/>
<polygon fill="#191970" stroke="#191970" points="99.0037,-46.2096 90.4329,-52.4379 101.017,-52.9139 99.0037,-46.2096"/>
</g>
</g>
</svg>
