<?xml version="1.0" encoding="UTF-8" standalone="no"?>
<!DOCTYPE svg PUBLIC "-//W3C//DTD SVG 1.1//EN"
 "http://www.w3.org/Graphics/SVG/1.1/DTD/svg11.dtd">
<!-- Generated by graphviz version 2.40.1 (20161225.0304)
 -->
<!-- Title: Графічна ієрархія класів Pages: 1 -->
<svg width="271pt" height="212pt"
 viewBox="0.00 0.00 270.56 212.00" xmlns="http://www.w3.org/2000/svg" xmlns:xlink="http://www.w3.org/1999/xlink">
<g id="graph0" class="graph" transform="scale(1 1) rotate(0) translate(4 208)">
<title>Графічна ієрархія класів</title>
<polygon fill="#ffffff" stroke="transparent" points="-4,4 -4,-208 266.5557,-208 266.5557,4 -4,4"/>
<!-- Node1625 -->
<g id="node1" class="node">
<title>Node1625</title>
<polygon fill="#ffffff" stroke="#bfbfbf" points="0,-92.5 0,-110.5 123.8418,-110.5 123.8418,-92.5 0,-92.5"/>
<text text-anchor="middle" x="61.9209" y="-98.5" font-family="Helvetica,sans-Serif" font-size="10.00" fill="#000000">CApplicationComponent</text>
</g>
<!-- Node0 -->
<g id="node2" class="node">
<title>Node0</title>
<g id="a_node2"><a xlink:href="class_c_image_component.html" target="_top" xlink:title="CImageComponent">
<polygon fill="#ffffff" stroke="#000000" points="159.8418,-185.5 159.8418,-203.5 262.5557,-203.5 262.5557,-185.5 159.8418,-185.5"/>
<text text-anchor="middle" x="211.1987" y="-191.5" font-family="Helvetica,sans-Serif" font-size="10.00" fill="#000000">CImageComponent</text>
</a>
</g>
</g>
<!-- Node1625&#45;&gt;Node0 -->
<g id="edge1" class="edge">
<title>Node1625&#45;&gt;Node0</title>
<path fill="none" stroke="#191970" d="M79.1315,-117.4239C97.8198,-134.0293 129.1272,-159.905 159.8418,-176.5 166.2422,-179.9581 173.4386,-182.9644 180.3731,-185.4778"/>
<polygon fill="#191970" stroke="#191970" points="81.2475,-114.6188 71.4804,-110.5134 76.5555,-119.8136 81.2475,-114.6188"/>
</g>
<!-- Node1627 -->
<g id="node3" class="node">
<title>Node1627</title>
<g id="a_node3"><a xlink:href="class_e_auth.html" target="_top" xlink:title="EAuth">
<polygon fill="#ffffff" stroke="#000000" points="189.5781,-148.5 189.5781,-166.5 232.8193,-166.5 232.8193,-148.5 189.5781,-148.5"/>
<text text-anchor="middle" x="211.1987" y="-154.5" font-family="Helvetica,sans-Serif" font-size="10.00" fill="#000000">EAuth</text>
</a>
</g>
</g>
<!-- Node1625&#45;&gt;Node1627 -->
<g id="edge2" class="edge">
<title>Node1625&#45;&gt;Node1627</title>
<path fill="none" stroke="#191970" d="M94.1981,-114.3348C113.2406,-121.8295 137.8447,-131.3795 159.8418,-139.5 169.5027,-143.0665 180.2473,-146.8591 189.4012,-150.0387"/>
<polygon fill="#191970" stroke="#191970" points="95.377,-111.0374 84.7903,-110.6213 92.8068,-117.5485 95.377,-111.0374"/>
</g>
<!-- Node1628 -->
<g id="node4" class="node">
<title>Node1628</title>
<g id="a_node4"><a xlink:href="class_e_yii_pdf.html" target="_top" xlink:title="EYiiPdf">
<polygon fill="#ffffff" stroke="#000000" points="186.9854,-111.5 186.9854,-129.5 235.4121,-129.5 235.4121,-111.5 186.9854,-111.5"/>
<text text-anchor="middle" x="211.1987" y="-117.5" font-family="Helvetica,sans-Serif" font-size="10.00" fill="#000000">EYiiPdf</text>
</a>
</g>
</g>
<!-- Node1625&#45;&gt;Node1628 -->
<g id="edge3" class="edge">
<title>Node1625&#45;&gt;Node1628</title>
<path fill="none" stroke="#191970" d="M134.1133,-110.6886C153.0887,-113.1038 172.2752,-115.5458 186.76,-117.3895"/>
<polygon fill="#191970" stroke="#191970" points="134.2932,-107.1834 123.9313,-109.3926 133.4093,-114.1273 134.2932,-107.1834"/>
</g>
<!-- Node1629 -->
<g id="node5" class="node">
<title>Node1629</title>
<g id="a_node5"><a xlink:href="classloid.html" target="_top" xlink:title="loid">
<polygon fill="#ffffff" stroke="#000000" points="195.4155,-74.5 195.4155,-92.5 226.9819,-92.5 226.9819,-74.5 195.4155,-74.5"/>
<text text-anchor="middle" x="211.1987" y="-80.5" font-family="Helvetica,sans-Serif" font-size="10.00" fill="#000000">loid</text>
</a>
</g>
</g>
<!-- Node1625&#45;&gt;Node1629 -->
<g id="edge4" class="edge">
<title>Node1625&#45;&gt;Node1629</title>
<path fill="none" stroke="#191970" d="M134.1076,-92.7957C157.1403,-90.0184 180.4846,-87.2035 195.3548,-85.4105"/>
<polygon fill="#191970" stroke="#191970" points="133.4403,-89.3507 123.9313,-94.0228 134.2784,-96.3004 133.4403,-89.3507"/>
</g>
<!-- Node1630 -->
<g id="node6" class="node">
<title>Node1630</title>
<g id="a_node6"><a xlink:href="class_printer.html" target="_top" xlink:title="Printer">
<polygon fill="#ffffff" stroke="#000000" points="188.4722,-37.5 188.4722,-55.5 233.9253,-55.5 233.9253,-37.5 188.4722,-37.5"/>
<text text-anchor="middle" x="211.1987" y="-43.5" font-family="Helvetica,sans-Serif" font-size="10.00" fill="#000000">Printer</text>
</a>
</g>
</g>
<!-- Node1625&#45;&gt;Node1630 -->
<g id="edge5" class="edge">
<title>Node1625&#45;&gt;Node1630</title>
<path fill="none" stroke="#191970" d="M96.0825,-88.9135C124.408,-78.4772 163.8837,-63.9328 188.4708,-54.8739"/>
<polygon fill="#191970" stroke="#191970" points="94.7444,-85.6764 86.5711,-92.4179 97.1645,-92.2448 94.7444,-85.6764"/>
</g>
<!-- Node1631 -->
<g id="node7" class="node">
<title>Node1631</title>
<g id="a_node7"><a xlink:href="class_yii_mail.html" target="_top" xlink:title="YiiMail">
<polygon fill="#ffffff" stroke="#000000" points="188.6577,-.5 188.6577,-18.5 233.7397,-18.5 233.7397,-.5 188.6577,-.5"/>
<text text-anchor="middle" x="211.1987" y="-6.5" font-family="Helvetica,sans-Serif" font-size="10.00" fill="#000000">YiiMail</text>
</a>
</g>
</g>
<!-- Node1625&#45;&gt;Node1631 -->
<g id="edge6" class="edge">
<title>Node1625&#45;&gt;Node1631</title>
<path fill="none" stroke="#191970" d="M79.8683,-85.6219C98.7312,-69.5556 129.7855,-44.8216 159.8418,-28.5 168.8646,-23.6003 179.4148,-19.4532 188.5979,-16.2956"/>
<polygon fill="#191970" stroke="#191970" points="77.3824,-83.1444 72.1068,-92.3324 81.9606,-88.4396 77.3824,-83.1444"/>
</g>
</g>
</svg>
