<?xml version="1.0" encoding="UTF-8" standalone="no"?>
<!DOCTYPE svg PUBLIC "-//W3C//DTD SVG 1.1//EN"
 "http://www.w3.org/Graphics/SVG/1.1/DTD/svg11.dtd">
<!-- Generated by graphviz version 2.40.1 (20161225.0304)
 -->
<!-- Title: Графічна ієрархія класів Pages: 1 -->
<svg width="1158pt" height="401pt"
 viewBox="0.00 0.00 1158.00 401.00" xmlns="http://www.w3.org/2000/svg" xmlns:xlink="http://www.w3.org/1999/xlink">
<g id="graph0" class="graph" transform="scale(1 1) rotate(0) translate(4 397)">
<title>Графічна ієрархія класів</title>
<polygon fill="#ffffff" stroke="transparent" points="-4,4 -4,-397 1153.9971,-397 1153.9971,4 -4,4"/>
<!-- Node91 -->
<g id="node1" class="node">
<title>Node91</title>
<g id="a_node1"><a xlink:href="interface_swift___mime___charset_observer.html" target="_top" xlink:title="Swift_Mime_CharsetObserver">
<polygon fill="#ffffff" stroke="#000000" points="3.3423,-216.5 3.3423,-234.5 152.7163,-234.5 152.7163,-216.5 3.3423,-216.5"/>
<text text-anchor="middle" x="78.0293" y="-222.5" font-family="Helvetica,sans-Serif" font-size="10.00" fill="#000000">Swift_Mime_CharsetObserver</text>
</a>
</g>
</g>
<!-- Node92 -->
<g id="node2" class="node">
<title>Node92</title>
<g id="a_node2"><a xlink:href="interface_swift___encoder.html" target="_top" xlink:title="Swift_Encoder">
<polygon fill="#ffffff" stroke="#000000" points="221.5068,-244.5 221.5068,-262.5 301.9844,-262.5 301.9844,-244.5 221.5068,-244.5"/>
<text text-anchor="middle" x="261.7456" y="-250.5" font-family="Helvetica,sans-Serif" font-size="10.00" fill="#000000">Swift_Encoder</text>
</a>
</g>
</g>
<!-- Node91&#45;&gt;Node92 -->
<g id="edge1" class="edge">
<title>Node91&#45;&gt;Node92</title>
<path fill="none" stroke="#191970" d="M147.3302,-236.0621C172.2893,-239.8661 199.6169,-244.031 221.304,-247.3363"/>
<polygon fill="#191970" stroke="#191970" points="147.5828,-232.5602 137.1695,-234.5135 146.528,-239.4803 147.5828,-232.5602"/>
</g>
<!-- Node103 -->
<g id="node13" class="node">
<title>Node103</title>
<g id="a_node13"><a xlink:href="interface_swift___mime___header_factory.html" target="_top" xlink:title="Swift_Mime_HeaderFactory">
<polygon fill="#ffffff" stroke="#000000" points="192.0586,-179.5 192.0586,-197.5 331.4326,-197.5 331.4326,-179.5 192.0586,-179.5"/>
<text text-anchor="middle" x="261.7456" y="-185.5" font-family="Helvetica,sans-Serif" font-size="10.00" fill="#000000">Swift_Mime_HeaderFactory</text>
</a>
</g>
</g>
<!-- Node91&#45;&gt;Node103 -->
<g id="edge16" class="edge">
<title>Node91&#45;&gt;Node103</title>
<path fill="none" stroke="#191970" d="M132.9772,-214.4336C159.7903,-209.0335 191.6362,-202.6199 216.9495,-197.5218"/>
<polygon fill="#191970" stroke="#191970" points="132.0835,-211.0433 122.9714,-216.4488 133.4656,-217.9055 132.0835,-211.0433"/>
</g>
<!-- Node105 -->
<g id="node15" class="node">
<title>Node105</title>
<g id="a_node15"><a xlink:href="interface_swift___mime___header_set.html" target="_top" xlink:title="Swift_Mime_HeaderSet">
<polygon fill="#ffffff" stroke="#000000" points="201.2236,-336.5 201.2236,-354.5 322.2676,-354.5 322.2676,-336.5 201.2236,-336.5"/>
<text text-anchor="middle" x="261.7456" y="-342.5" font-family="Helvetica,sans-Serif" font-size="10.00" fill="#000000">Swift_Mime_HeaderSet</text>
</a>
</g>
</g>
<!-- Node91&#45;&gt;Node105 -->
<g id="edge18" class="edge">
<title>Node91&#45;&gt;Node105</title>
<path fill="none" stroke="#191970" d="M100.2611,-240.0214C138.6048,-265.0668 216.1018,-315.6863 247.7768,-336.3758"/>
<polygon fill="#191970" stroke="#191970" points="102.1242,-237.0578 91.8379,-234.5195 98.2961,-242.9184 102.1242,-237.0578"/>
</g>
<!-- Node1 -->
<g id="node17" class="node">
<title>Node1</title>
<g id="a_node17"><a xlink:href="interface_swift___mime___mime_entity.html" target="_top" xlink:title="Swift_Mime_MimeEntity">
<polygon fill="#ffffff" stroke="#000000" points="200.4009,-111.5 200.4009,-129.5 323.0903,-129.5 323.0903,-111.5 200.4009,-111.5"/>
<text text-anchor="middle" x="261.7456" y="-117.5" font-family="Helvetica,sans-Serif" font-size="10.00" fill="#000000">Swift_Mime_MimeEntity</text>
</a>
</g>
</g>
<!-- Node91&#45;&gt;Node1 -->
<g id="edge20" class="edge">
<title>Node91&#45;&gt;Node1</title>
<path fill="none" stroke="#191970" d="M103.001,-211.2278C141.4288,-189.2651 213.9615,-147.8102 245.9311,-129.5385"/>
<polygon fill="#191970" stroke="#191970" points="100.9568,-208.3648 94.0115,-216.3656 104.4303,-214.4422 100.9568,-208.3648"/>
</g>
<!-- Node93 -->
<g id="node3" class="node">
<title>Node93</title>
<g id="a_node3"><a xlink:href="class_swift___encoder___base64_encoder.html" target="_top" xlink:title="Swift_Encoder_Base64Encoder">
<polygon fill="#ffffff" stroke="#000000" points="373.8022,-226.5 373.8022,-244.5 531.0034,-244.5 531.0034,-226.5 373.8022,-226.5"/>
<text text-anchor="middle" x="452.4028" y="-232.5" font-family="Helvetica,sans-Serif" font-size="10.00" fill="#000000">Swift_Encoder_Base64Encoder</text>
</a>
</g>
</g>
<!-- Node92&#45;&gt;Node93 -->
<g id="edge2" class="edge">
<title>Node92&#45;&gt;Node93</title>
<path fill="none" stroke="#191970" d="M312.2747,-248.7295C331.049,-246.957 352.824,-244.9013 373.5307,-242.9463"/>
<polygon fill="#191970" stroke="#191970" points="311.8058,-245.2581 302.1791,-249.6827 312.4638,-252.2272 311.8058,-245.2581"/>
</g>
<!-- Node96 -->
<g id="node6" class="node">
<title>Node96</title>
<g id="a_node6"><a xlink:href="class_swift___encoder___qp_encoder.html" target="_top" xlink:title="Swift_Encoder_QpEncoder">
<polygon fill="#ffffff" stroke="#000000" points="384.0903,-300.5 384.0903,-318.5 520.7153,-318.5 520.7153,-300.5 384.0903,-300.5"/>
<text text-anchor="middle" x="452.4028" y="-306.5" font-family="Helvetica,sans-Serif" font-size="10.00" fill="#000000">Swift_Encoder_QpEncoder</text>
</a>
</g>
</g>
<!-- Node92&#45;&gt;Node96 -->
<g id="edge5" class="edge">
<title>Node92&#45;&gt;Node96</title>
<path fill="none" stroke="#191970" d="M293.7237,-266.2863C314.4957,-274.2699 342.2887,-284.3525 367.4326,-291.5 379.1813,-294.8397 392.0018,-297.868 404.0398,-300.4477"/>
<polygon fill="#191970" stroke="#191970" points="294.7217,-262.9191 284.133,-262.5578 292.1852,-269.4435 294.7217,-262.9191"/>
</g>
<!-- Node99 -->
<g id="node9" class="node">
<title>Node99</title>
<g id="a_node9"><a xlink:href="class_swift___encoder___rfc2231_encoder.html" target="_top" xlink:title="Swift_Encoder_Rfc2231Encoder">
<polygon fill="#ffffff" stroke="#000000" points="372.1372,-263.5 372.1372,-281.5 532.6685,-281.5 532.6685,-263.5 372.1372,-263.5"/>
<text text-anchor="middle" x="452.4028" y="-269.5" font-family="Helvetica,sans-Serif" font-size="10.00" fill="#000000">Swift_Encoder_Rfc2231Encoder</text>
</a>
</g>
</g>
<!-- Node92&#45;&gt;Node99 -->
<g id="edge8" class="edge">
<title>Node92&#45;&gt;Node99</title>
<path fill="none" stroke="#191970" d="M312.3104,-258.5391C330.6081,-260.3625 351.7524,-262.4696 371.9787,-264.4853"/>
<polygon fill="#191970" stroke="#191970" points="312.4769,-255.0384 302.1791,-257.5294 311.7827,-262.0039 312.4769,-255.0384"/>
</g>
<!-- Node100 -->
<g id="node10" class="node">
<title>Node100</title>
<g id="a_node10"><a xlink:href="interface_swift___mime___content_encoder.html" target="_top" xlink:title="Swift_Mime_ContentEncoder">
<polygon fill="#ffffff" stroke="#000000" points="379.6494,-189.5 379.6494,-207.5 525.1563,-207.5 525.1563,-189.5 379.6494,-189.5"/>
<text text-anchor="middle" x="452.4028" y="-195.5" font-family="Helvetica,sans-Serif" font-size="10.00" fill="#000000">Swift_Mime_ContentEncoder</text>
</a>
</g>
</g>
<!-- Node92&#45;&gt;Node100 -->
<g id="edge9" class="edge">
<title>Node92&#45;&gt;Node100</title>
<path fill="none" stroke="#191970" d="M295.4251,-240.986C316.0415,-233.5871 343.0582,-224.3547 367.4326,-217.5 380.3835,-213.8579 394.5994,-210.4517 407.6354,-207.5577"/>
<polygon fill="#191970" stroke="#191970" points="294.0676,-237.7551 285.858,-244.4524 296.4523,-244.3364 294.0676,-237.7551"/>
</g>
<!-- Node102 -->
<g id="node12" class="node">
<title>Node102</title>
<g id="a_node12"><a xlink:href="interface_swift___mime___header_encoder.html" target="_top" xlink:title="Swift_Mime_HeaderEncoder">
<polygon fill="#ffffff" stroke="#000000" points="380.7627,-337.5 380.7627,-355.5 524.043,-355.5 524.043,-337.5 380.7627,-337.5"/>
<text text-anchor="middle" x="452.4028" y="-343.5" font-family="Helvetica,sans-Serif" font-size="10.00" fill="#000000">Swift_Mime_HeaderEncoder</text>
</a>
</g>
</g>
<!-- Node92&#45;&gt;Node102 -->
<g id="edge13" class="edge">
<title>Node92&#45;&gt;Node102</title>
<path fill="none" stroke="#191970" d="M279.2895,-269.4283C299.1994,-286.6295 333.3526,-313.5677 367.4326,-328.5 375.7195,-332.131 384.7895,-335.0487 393.8203,-337.388"/>
<polygon fill="#191970" stroke="#191970" points="281.4875,-266.7003 271.6704,-262.7159 276.8602,-271.9527 281.4875,-266.7003"/>
</g>
<!-- Node94 -->
<g id="node4" class="node">
<title>Node94</title>
<g id="a_node4"><a xlink:href="class_swift___mime___content_encoder___base64_content_encoder.html" target="_top" xlink:title="Swift_Mime_ContentEncoder\l_Base64ContentEncoder">
<polygon fill="#ffffff" stroke="#000000" points="573.373,-195.5 573.373,-223.5 718.8799,-223.5 718.8799,-195.5 573.373,-195.5"/>
<text text-anchor="start" x="581.373" y="-211.5" font-family="Helvetica,sans-Serif" font-size="10.00" fill="#000000">Swift_Mime_ContentEncoder</text>
<text text-anchor="middle" x="646.1265" y="-201.5" font-family="Helvetica,sans-Serif" font-size="10.00" fill="#000000">_Base64ContentEncoder</text>
</a>
</g>
</g>
<!-- Node93&#45;&gt;Node94 -->
<g id="edge3" class="edge">
<title>Node93&#45;&gt;Node94</title>
<path fill="none" stroke="#191970" d="M529.8719,-225.1027C544.1264,-223.1896 558.9652,-221.1981 573.0841,-219.3031"/>
<polygon fill="#191970" stroke="#191970" points="529.0598,-221.6803 519.6143,-226.4794 529.991,-228.6181 529.0598,-221.6803"/>
</g>
<!-- Node95 -->
<g id="node5" class="node">
<title>Node95</title>
<g id="a_node5"><a xlink:href="class_swift___mime___header_encoder___base64_header_encoder.html" target="_top" xlink:title="Swift_Mime_HeaderEncoder\l_Base64HeaderEncoder">
<polygon fill="#ffffff" stroke="#000000" points="574.4863,-289.5 574.4863,-317.5 717.7666,-317.5 717.7666,-289.5 574.4863,-289.5"/>
<text text-anchor="start" x="582.4863" y="-305.5" font-family="Helvetica,sans-Serif" font-size="10.00" fill="#000000">Swift_Mime_HeaderEncoder</text>
<text text-anchor="middle" x="646.1265" y="-295.5" font-family="Helvetica,sans-Serif" font-size="10.00" fill="#000000">_Base64HeaderEncoder</text>
</a>
</g>
</g>
<!-- Node93&#45;&gt;Node95 -->
<g id="edge4" class="edge">
<title>Node93&#45;&gt;Node95</title>
<path fill="none" stroke="#191970" d="M518.0719,-247.3479C524.7154,-249.3827 531.2601,-251.75 537.373,-254.5 555.3722,-262.5971 555.7395,-271.6349 573.373,-280.5 580.0009,-283.8321 587.2104,-286.807 594.43,-289.4215"/>
<polygon fill="#191970" stroke="#191970" points="518.881,-243.9396 508.3067,-244.5988 516.984,-250.6777 518.881,-243.9396"/>
</g>
<!-- Node97 -->
<g id="node7" class="node">
<title>Node97</title>
<g id="a_node7"><a xlink:href="class_swift___mime___content_encoder___qp_content_encoder.html" target="_top" xlink:title="Swift_Mime_ContentEncoder\l_QpContentEncoder">
<polygon fill="#ffffff" stroke="#000000" points="573.373,-242.5 573.373,-270.5 718.8799,-270.5 718.8799,-242.5 573.373,-242.5"/>
<text text-anchor="start" x="581.373" y="-258.5" font-family="Helvetica,sans-Serif" font-size="10.00" fill="#000000">Swift_Mime_ContentEncoder</text>
<text text-anchor="middle" x="646.1265" y="-248.5" font-family="Helvetica,sans-Serif" font-size="10.00" fill="#000000">_QpContentEncoder</text>
</a>
</g>
</g>
<!-- Node96&#45;&gt;Node97 -->
<g id="edge6" class="edge">
<title>Node96&#45;&gt;Node97</title>
<path fill="none" stroke="#191970" d="M509.4126,-298.2659C518.7931,-296.1762 528.3839,-293.8919 537.373,-291.5 544.0577,-289.7213 575.7504,-279.4882 603.2113,-270.5429"/>
<polygon fill="#191970" stroke="#191970" points="508.3826,-294.908 499.3547,-300.4529 509.8701,-301.7481 508.3826,-294.908"/>
</g>
<!-- Node98 -->
<g id="node8" class="node">
<title>Node98</title>
<g id="a_node8"><a xlink:href="class_swift___mime___header_encoder___qp_header_encoder.html" target="_top" xlink:title="Swift_Mime_HeaderEncoder\l_QpHeaderEncoder">
<polygon fill="#ffffff" stroke="#000000" points="574.4863,-336.5 574.4863,-364.5 717.7666,-364.5 717.7666,-336.5 574.4863,-336.5"/>
<text text-anchor="start" x="582.4863" y="-352.5" font-family="Helvetica,sans-Serif" font-size="10.00" fill="#000000">Swift_Mime_HeaderEncoder</text>
<text text-anchor="middle" x="646.1265" y="-342.5" font-family="Helvetica,sans-Serif" font-size="10.00" fill="#000000">_QpHeaderEncoder</text>
</a>
</g>
</g>
<!-- Node96&#45;&gt;Node98 -->
<g id="edge7" class="edge">
<title>Node96&#45;&gt;Node98</title>
<path fill="none" stroke="#191970" d="M505.2864,-320.6924C528.2337,-325.549 555.3617,-331.2904 579.6526,-336.4314"/>
<polygon fill="#191970" stroke="#191970" points="505.9044,-317.2457 495.3964,-318.5992 504.455,-324.094 505.9044,-317.2457"/>
</g>
<!-- Node100&#45;&gt;Node94 -->
<g id="edge10" class="edge">
<title>Node100&#45;&gt;Node94</title>
<path fill="none" stroke="#191970" d="M535.3767,-203.2114C547.9663,-203.9263 560.8755,-204.6593 573.2297,-205.3608"/>
<polygon fill="#191970" stroke="#191970" points="535.5478,-199.7156 525.3654,-202.643 535.1509,-206.7043 535.5478,-199.7156"/>
</g>
<!-- Node100&#45;&gt;Node97 -->
<g id="edge12" class="edge">
<title>Node100&#45;&gt;Node97</title>
<path fill="none" stroke="#191970" d="M510.3145,-209.83C519.4513,-212.0808 528.7299,-214.6443 537.373,-217.5 553.9982,-222.9929 557,-227.2958 573.373,-233.5 581.5488,-236.598 590.3446,-239.6273 598.8974,-242.4175"/>
<polygon fill="#191970" stroke="#191970" points="511.0292,-206.4026 500.4926,-207.5113 509.4209,-213.2153 511.0292,-206.4026"/>
</g>
<!-- Node101 -->
<g id="node11" class="node">
<title>Node101</title>
<g id="a_node11"><a xlink:href="class_swift___mime___content_encoder___plain_content_encoder.html" target="_top" xlink:title="Swift_Mime_ContentEncoder\l_PlainContentEncoder">
<polygon fill="#ffffff" stroke="#000000" points="573.373,-148.5 573.373,-176.5 718.8799,-176.5 718.8799,-148.5 573.373,-148.5"/>
<text text-anchor="start" x="581.373" y="-164.5" font-family="Helvetica,sans-Serif" font-size="10.00" fill="#000000">Swift_Mime_ContentEncoder</text>
<text text-anchor="middle" x="646.1265" y="-154.5" font-family="Helvetica,sans-Serif" font-size="10.00" fill="#000000">_PlainContentEncoder</text>
</a>
</g>
</g>
<!-- Node100&#45;&gt;Node101 -->
<g id="edge11" class="edge">
<title>Node100&#45;&gt;Node101</title>
<path fill="none" stroke="#191970" d="M511.2352,-187.5671C530.7236,-183.9455 552.6536,-179.8702 573.0777,-176.0748"/>
<polygon fill="#191970" stroke="#191970" points="510.4797,-184.1475 501.2875,-189.4157 511.7587,-191.0296 510.4797,-184.1475"/>
</g>
<!-- Node102&#45;&gt;Node95 -->
<g id="edge14" class="edge">
<title>Node102&#45;&gt;Node95</title>
<path fill="none" stroke="#191970" d="M505.5927,-335.3791C516.1311,-333.1344 527.1074,-330.7671 537.373,-328.5 553.1691,-325.0116 570.2308,-321.1391 586.0519,-317.5042"/>
<polygon fill="#191970" stroke="#191970" points="504.7162,-331.9871 495.6604,-337.4865 506.1691,-338.8347 504.7162,-331.9871"/>
</g>
<!-- Node102&#45;&gt;Node98 -->
<g id="edge15" class="edge">
<title>Node102&#45;&gt;Node98</title>
<path fill="none" stroke="#191970" d="M534.3462,-348.192C547.6525,-348.4667 561.3435,-348.7494 574.3823,-349.0186"/>
<polygon fill="#191970" stroke="#191970" points="534.3332,-344.691 524.2631,-347.9838 534.1886,-351.6896 534.3332,-344.691"/>
</g>
<!-- Node104 -->
<g id="node14" class="node">
<title>Node104</title>
<g id="a_node14"><a xlink:href="class_swift___mime___simple_header_factory.html" target="_top" xlink:title="Swift_Mime_SimpleHeaderFactory">
<polygon fill="#ffffff" stroke="#000000" points="367.4326,-152.5 367.4326,-170.5 537.373,-170.5 537.373,-152.5 367.4326,-152.5"/>
<text text-anchor="middle" x="452.4028" y="-158.5" font-family="Helvetica,sans-Serif" font-size="10.00" fill="#000000">Swift_Mime_SimpleHeaderFactory</text>
</a>
</g>
</g>
<!-- Node103&#45;&gt;Node104 -->
<g id="edge17" class="edge">
<title>Node103&#45;&gt;Node104</title>
<path fill="none" stroke="#191970" d="M335.6692,-178.0313C353.178,-175.5518 371.7027,-172.9284 388.7117,-170.5196"/>
<polygon fill="#191970" stroke="#191970" points="334.9072,-174.6042 325.4968,-179.4719 335.8888,-181.535 334.9072,-174.6042"/>
</g>
<!-- Node106 -->
<g id="node16" class="node">
<title>Node106</title>
<g id="a_node16"><a xlink:href="class_swift___mime___simple_header_set.html" target="_top" xlink:title="Swift_Mime_SimpleHeaderSet">
<polygon fill="#ffffff" stroke="#000000" points="376.5977,-374.5 376.5977,-392.5 528.208,-392.5 528.208,-374.5 376.5977,-374.5"/>
<text text-anchor="middle" x="452.4028" y="-380.5" font-family="Helvetica,sans-Serif" font-size="10.00" fill="#000000">Swift_Mime_SimpleHeaderSet</text>
</a>
</g>
</g>
<!-- Node105&#45;&gt;Node106 -->
<g id="edge19" class="edge">
<title>Node105&#45;&gt;Node106</title>
<path fill="none" stroke="#191970" d="M316.803,-356.4735C345.4843,-362.19 380.1247,-369.0942 407.2141,-374.4934"/>
<polygon fill="#191970" stroke="#191970" points="317.42,-353.0277 306.9287,-354.5055 316.0517,-359.8927 317.42,-353.0277"/>
</g>
<!-- Node2 -->
<g id="node18" class="node">
<title>Node2</title>
<g id="a_node18"><a xlink:href="interface_swift___mime___message.html" target="_top" xlink:title="Swift_Mime_Message">
<polygon fill="#ffffff" stroke="#000000" points="589.2202,-111.5 589.2202,-129.5 703.0327,-129.5 703.0327,-111.5 589.2202,-111.5"/>
<text text-anchor="middle" x="646.1265" y="-117.5" font-family="Helvetica,sans-Serif" font-size="10.00" fill="#000000">Swift_Mime_Message</text>
</a>
</g>
</g>
<!-- Node1&#45;&gt;Node2 -->
<g id="edge21" class="edge">
<title>Node1&#45;&gt;Node2</title>
<path fill="none" stroke="#191970" d="M333.6506,-120.5C407.4915,-120.5 520.9467,-120.5 588.9148,-120.5"/>
<polygon fill="#191970" stroke="#191970" points="333.5031,-117.0001 323.503,-120.5 333.503,-124.0001 333.5031,-117.0001"/>
</g>
<!-- Node5 -->
<g id="node21" class="node">
<title>Node5</title>
<g id="a_node21"><a xlink:href="class_swift___mime___simple_mime_entity.html" target="_top" xlink:title="Swift_Mime_SimpleMimeEntity">
<polygon fill="#ffffff" stroke="#000000" points="375.7749,-73.5 375.7749,-91.5 529.0308,-91.5 529.0308,-73.5 375.7749,-73.5"/>
<text text-anchor="middle" x="452.4028" y="-79.5" font-family="Helvetica,sans-Serif" font-size="10.00" fill="#000000">Swift_Mime_SimpleMimeEntity</text>
</a>
</g>
</g>
<!-- Node1&#45;&gt;Node5 -->
<g id="edge24" class="edge">
<title>Node1&#45;&gt;Node5</title>
<path fill="none" stroke="#191970" d="M316.803,-109.5265C345.4843,-103.81 380.1247,-96.9058 407.2141,-91.5066"/>
<polygon fill="#191970" stroke="#191970" points="316.0517,-106.1073 306.9287,-111.4945 317.42,-112.9723 316.0517,-106.1073"/>
</g>
<!-- Node12 -->
<g id="node19" class="node">
<title>Node12</title>
<g id="a_node19"><a xlink:href="class_swift___mime___simple_message.html" target="_top" xlink:title="Swift_Mime_SimpleMessage">
<polygon fill="#ffffff" stroke="#000000" points="754.8799,-111.5 754.8799,-129.5 899.2588,-129.5 899.2588,-111.5 754.8799,-111.5"/>
<text text-anchor="middle" x="827.0693" y="-117.5" font-family="Helvetica,sans-Serif" font-size="10.00" fill="#000000">Swift_Mime_SimpleMessage</text>
</a>
</g>
</g>
<!-- Node2&#45;&gt;Node12 -->
<g id="edge22" class="edge">
<title>Node2&#45;&gt;Node12</title>
<path fill="none" stroke="#191970" d="M713.4677,-120.5C726.8752,-120.5 741.0092,-120.5 754.5806,-120.5"/>
<polygon fill="#191970" stroke="#191970" points="713.378,-117.0001 703.3779,-120.5 713.3779,-124.0001 713.378,-117.0001"/>
</g>
<!-- Node13 -->
<g id="node20" class="node">
<title>Node13</title>
<g id="a_node20"><a xlink:href="class_swift___message.html" target="_top" xlink:title="Swift_Message">
<polygon fill="#ffffff" stroke="#000000" points="947.2119,-111.5 947.2119,-129.5 1031.0195,-129.5 1031.0195,-111.5 947.2119,-111.5"/>
<text text-anchor="middle" x="989.1157" y="-117.5" font-family="Helvetica,sans-Serif" font-size="10.00" fill="#000000">Swift_Message</text>
</a>
</g>
</g>
<!-- Node12&#45;&gt;Node13 -->
<g id="edge23" class="edge">
<title>Node12&#45;&gt;Node13</title>
<path fill="none" stroke="#191970" d="M909.8365,-120.5C922.6641,-120.5 935.4333,-120.5 946.8573,-120.5"/>
<polygon fill="#191970" stroke="#191970" points="909.5612,-117.0001 899.5612,-120.5 909.5612,-124.0001 909.5612,-117.0001"/>
</g>
<!-- Node6 -->
<g id="node22" class="node">
<title>Node6</title>
<g id="a_node22"><a xlink:href="class_swift___mime___attachment.html" target="_top" xlink:title="Swift_Mime_Attachment">
<polygon fill="#ffffff" stroke="#000000" points="584.2178,-37.5 584.2178,-55.5 708.0352,-55.5 708.0352,-37.5 584.2178,-37.5"/>
<text text-anchor="middle" x="646.1265" y="-43.5" font-family="Helvetica,sans-Serif" font-size="10.00" fill="#000000">Swift_Mime_Attachment</text>
</a>
</g>
</g>
<!-- Node5&#45;&gt;Node6 -->
<g id="edge25" class="edge">
<title>Node5&#45;&gt;Node6</title>
<path fill="none" stroke="#191970" d="M511.2241,-71.5691C538.8546,-66.4345 571.3949,-60.3875 597.5933,-55.519"/>
<polygon fill="#191970" stroke="#191970" points="510.4797,-68.1475 501.2875,-73.4157 511.7587,-75.0296 510.4797,-68.1475"/>
</g>
<!-- Node11 -->
<g id="node27" class="node">
<title>Node11</title>
<g id="a_node27"><a xlink:href="class_swift___mime___mime_part.html" target="_top" xlink:title="Swift_Mime_MimePart">
<polygon fill="#ffffff" stroke="#000000" points="588.1167,-74.5 588.1167,-92.5 704.1362,-92.5 704.1362,-74.5 588.1167,-74.5"/>
<text text-anchor="middle" x="646.1265" y="-80.5" font-family="Helvetica,sans-Serif" font-size="10.00" fill="#000000">Swift_Mime_MimePart</text>
</a>
</g>
</g>
<!-- Node5&#45;&gt;Node11 -->
<g id="edge30" class="edge">
<title>Node5&#45;&gt;Node11</title>
<path fill="none" stroke="#191970" d="M539.4062,-82.9491C555.8314,-83.0339 572.6386,-83.1207 587.9122,-83.1995"/>
<polygon fill="#191970" stroke="#191970" points="539.2637,-79.4484 529.2458,-82.8967 539.2275,-86.4483 539.2637,-79.4484"/>
</g>
<!-- Node7 -->
<g id="node23" class="node">
<title>Node7</title>
<g id="a_node23"><a xlink:href="class_swift___attachment.html" target="_top" xlink:title="Swift_Attachment">
<polygon fill="#ffffff" stroke="#000000" points="780.1631,-.5 780.1631,-18.5 873.9756,-18.5 873.9756,-.5 780.1631,-.5"/>
<text text-anchor="middle" x="827.0693" y="-6.5" font-family="Helvetica,sans-Serif" font-size="10.00" fill="#000000">Swift_Attachment</text>
</a>
</g>
</g>
<!-- Node6&#45;&gt;Node7 -->
<g id="edge26" class="edge">
<title>Node6&#45;&gt;Node7</title>
<path fill="none" stroke="#191970" d="M700.2449,-35.4336C726.6531,-30.0335 758.0183,-23.6199 782.9495,-18.5218"/>
<polygon fill="#191970" stroke="#191970" points="699.4861,-32.0163 690.3901,-37.4488 700.8886,-38.8744 699.4861,-32.0163"/>
</g>
<!-- Node8 -->
<g id="node24" class="node">
<title>Node8</title>
<g id="a_node24"><a xlink:href="class_swift___mime___embedded_file.html" target="_top" xlink:title="Swift_Mime_EmbeddedFile">
<polygon fill="#ffffff" stroke="#000000" points="758.21,-37.5 758.21,-55.5 895.9287,-55.5 895.9287,-37.5 758.21,-37.5"/>
<text text-anchor="middle" x="827.0693" y="-43.5" font-family="Helvetica,sans-Serif" font-size="10.00" fill="#000000">Swift_Mime_EmbeddedFile</text>
</a>
</g>
</g>
<!-- Node6&#45;&gt;Node8 -->
<g id="edge27" class="edge">
<title>Node6&#45;&gt;Node8</title>
<path fill="none" stroke="#191970" d="M718.4636,-46.5C731.4989,-46.5 745.058,-46.5 757.9976,-46.5"/>
<polygon fill="#191970" stroke="#191970" points="718.1436,-43.0001 708.1436,-46.5 718.1436,-50.0001 718.1436,-43.0001"/>
</g>
<!-- Node9 -->
<g id="node25" class="node">
<title>Node9</title>
<g id="a_node25"><a xlink:href="class_swift___embedded_file.html" target="_top" xlink:title="Swift_EmbeddedFile">
<polygon fill="#ffffff" stroke="#000000" points="935.2588,-37.5 935.2588,-55.5 1042.9727,-55.5 1042.9727,-37.5 935.2588,-37.5"/>
<text text-anchor="middle" x="989.1157" y="-43.5" font-family="Helvetica,sans-Serif" font-size="10.00" fill="#000000">Swift_EmbeddedFile</text>
</a>
</g>
</g>
<!-- Node8&#45;&gt;Node9 -->
<g id="edge28" class="edge">
<title>Node8&#45;&gt;Node9</title>
<path fill="none" stroke="#191970" d="M906.3001,-46.5C915.967,-46.5 925.6679,-46.5 934.8521,-46.5"/>
<polygon fill="#191970" stroke="#191970" points="906.2617,-43.0001 896.2616,-46.5 906.2616,-50.0001 906.2617,-43.0001"/>
</g>
<!-- Node10 -->
<g id="node26" class="node">
<title>Node10</title>
<g id="a_node26"><a xlink:href="class_swift___image.html" target="_top" xlink:title="Swift_Image">
<polygon fill="#ffffff" stroke="#000000" points="1078.9727,-37.5 1078.9727,-55.5 1149.9971,-55.5 1149.9971,-37.5 1078.9727,-37.5"/>
<text text-anchor="middle" x="1114.4849" y="-43.5" font-family="Helvetica,sans-Serif" font-size="10.00" fill="#000000">Swift_Image</text>
</a>
</g>
</g>
<!-- Node9&#45;&gt;Node10 -->
<g id="edge29" class="edge">
<title>Node9&#45;&gt;Node10</title>
<path fill="none" stroke="#191970" d="M1053.2668,-46.5C1062.0232,-46.5 1070.7413,-46.5 1078.7374,-46.5"/>
<polygon fill="#191970" stroke="#191970" points="1053.0111,-43.0001 1043.0111,-46.5 1053.0111,-50.0001 1053.0111,-43.0001"/>
</g>
<!-- Node11&#45;&gt;Node12 -->
<g id="edge31" class="edge">
<title>Node11&#45;&gt;Node12</title>
<path fill="none" stroke="#191970" d="M700.2449,-94.5664C726.6531,-99.9665 758.0183,-106.3801 782.9495,-111.4782"/>
<polygon fill="#191970" stroke="#191970" points="700.8886,-91.1256 690.3901,-92.5512 699.4861,-97.9837 700.8886,-91.1256"/>
</g>
<!-- Node14 -->
<g id="node28" class="node">
<title>Node14</title>
<g id="a_node28"><a xlink:href="class_swift___mime_part.html" target="_top" xlink:title="Swift_MimePart">
<polygon fill="#ffffff" stroke="#000000" points="784.062,-74.5 784.062,-92.5 870.0767,-92.5 870.0767,-74.5 784.062,-74.5"/>
<text text-anchor="middle" x="827.0693" y="-80.5" font-family="Helvetica,sans-Serif" font-size="10.00" fill="#000000">Swift_MimePart</text>
</a>
</g>
</g>
<!-- Node11&#45;&gt;Node14 -->
<g id="edge32" class="edge">
<title>Node11&#45;&gt;Node14</title>
<path fill="none" stroke="#191970" d="M714.5413,-83.5C737.7988,-83.5 763.1272,-83.5 783.8548,-83.5"/>
<polygon fill="#191970" stroke="#191970" points="714.374,-80.0001 704.3739,-83.5 714.3739,-87.0001 714.374,-80.0001"/>
</g>
<!-- Node0 -->
<g id="node29" class="node">
<title>Node0</title>
<g id="a_node29"><a xlink:href="interface_swift___mime___encoding_observer.html" target="_top" xlink:title="Swift_Mime_EncodingObserver">
<polygon fill="#ffffff" stroke="#000000" points="0,-111.5 0,-129.5 156.0586,-129.5 156.0586,-111.5 0,-111.5"/>
<text text-anchor="middle" x="78.0293" y="-117.5" font-family="Helvetica,sans-Serif" font-size="10.00" fill="#000000">Swift_Mime_EncodingObserver</text>
</a>
</g>
</g>
<!-- Node0&#45;&gt;Node1 -->
<g id="edge33" class="edge">
<title>Node0&#45;&gt;Node1</title>
<path fill="none" stroke="#191970" d="M166.2871,-120.5C177.7994,-120.5 189.3872,-120.5 200.3258,-120.5"/>
<polygon fill="#191970" stroke="#191970" points="166.208,-117.0001 156.2079,-120.5 166.2079,-124.0001 166.208,-117.0001"/>
</g>
</g>
</svg>
