<?xml version="1.0" encoding="UTF-8" standalone="no"?>
<!DOCTYPE svg PUBLIC "-//W3C//DTD SVG 1.1//EN"
 "http://www.w3.org/Graphics/SVG/1.1/DTD/svg11.dtd">
<!-- Generated by graphviz version 2.40.1 (20161225.0304)
 -->
<!-- Title: Графічна ієрархія класів Pages: 1 -->
<svg width="288pt" height="84pt"
 viewBox="0.00 0.00 288.29 84.00" xmlns="http://www.w3.org/2000/svg" xmlns:xlink="http://www.w3.org/1999/xlink">
<g id="graph0" class="graph" transform="scale(1 1) rotate(0) translate(4 80)">
<title>Графічна ієрархія класів</title>
<polygon fill="#ffffff" stroke="transparent" points="-4,4 -4,-80 284.29,-80 284.29,4 -4,4"/>
<!-- Node0 -->
<g id="node1" class="node">
<title>Node0</title>
<g id="a_node1"><a xlink:href="interface_swift___stream_filter.html" target="_top" xlink:title="Swift_StreamFilter">
<polygon fill="#ffffff" stroke="#000000" points="0,-28.5 0,-46.5 97.6846,-46.5 97.6846,-28.5 0,-28.5"/>
<text text-anchor="middle" x="48.8423" y="-34.5" font-family="Helvetica,sans-Serif" font-size="10.00" fill="#000000">Swift_StreamFilter</text>
</a>
</g>
</g>
<!-- Node1 -->
<g id="node2" class="node">
<title>Node1</title>
<g id="a_node2"><a xlink:href="class_swift___stream_filters___byte_array_replacement_filter.html" target="_top" xlink:title="Swift_StreamFilters\l_ByteArrayReplacementFilter">
<polygon fill="#ffffff" stroke="#000000" points="133.6846,-47.5 133.6846,-75.5 280.29,-75.5 280.29,-47.5 133.6846,-47.5"/>
<text text-anchor="start" x="141.6846" y="-63.5" font-family="Helvetica,sans-Serif" font-size="10.00" fill="#000000">Swift_StreamFilters</text>
<text text-anchor="middle" x="206.9873" y="-53.5" font-family="Helvetica,sans-Serif" font-size="10.00" fill="#000000">_ByteArrayReplacementFilter</text>
</a>
</g>
</g>
<!-- Node0&#45;&gt;Node1 -->
<g id="edge1" class="edge">
<title>Node0&#45;&gt;Node1</title>
<path fill="none" stroke="#191970" d="M107.9736,-46.4737C116.2892,-47.7357 124.9197,-49.0455 133.4633,-50.342"/>
<polygon fill="#191970" stroke="#191970" points="108.4254,-43.0023 98.0135,-44.9622 107.3751,-49.9231 108.4254,-43.0023"/>
</g>
<!-- Node2 -->
<g id="node3" class="node">
<title>Node2</title>
<g id="a_node3"><a xlink:href="class_swift___stream_filters___string_replacement_filter.html" target="_top" xlink:title="Swift_StreamFilters\l_StringReplacementFilter">
<polygon fill="#ffffff" stroke="#000000" points="142.5737,-.5 142.5737,-28.5 271.4009,-28.5 271.4009,-.5 142.5737,-.5"/>
<text text-anchor="start" x="150.5737" y="-16.5" font-family="Helvetica,sans-Serif" font-size="10.00" fill="#000000">Swift_StreamFilters</text>
<text text-anchor="middle" x="206.9873" y="-6.5" font-family="Helvetica,sans-Serif" font-size="10.00" fill="#000000">_StringReplacementFilter</text>
</a>
</g>
</g>
<!-- Node0&#45;&gt;Node2 -->
<g id="edge2" class="edge">
<title>Node0&#45;&gt;Node2</title>
<path fill="none" stroke="#191970" d="M108.1107,-28.8802C119.3095,-27.2515 131.0747,-25.5404 142.4267,-23.8894"/>
<polygon fill="#191970" stroke="#191970" points="107.4056,-25.4459 98.0135,-30.3487 108.4131,-32.373 107.4056,-25.4459"/>
</g>
</g>
</svg>
