<?xml version="1.0" encoding="UTF-8" standalone="no"?>
<!DOCTYPE svg PUBLIC "-//W3C//DTD SVG 1.1//EN"
 "http://www.w3.org/Graphics/SVG/1.1/DTD/svg11.dtd">
<!-- Generated by graphviz version 2.40.1 (20161225.0304)
 -->
<!-- Title: Графічна ієрархія класів Pages: 1 -->
<svg width="749pt" height="640pt"
 viewBox="0.00 0.00 748.67 639.94" xmlns="http://www.w3.org/2000/svg" xmlns:xlink="http://www.w3.org/1999/xlink">
<g id="graph0" class="graph" transform="scale(1 1) rotate(0) translate(4 635.943)">
<title>Графічна ієрархія класів</title>
<polygon fill="#ffffff" stroke="transparent" points="-4,4 -4,-635.943 744.667,-635.943 744.667,4 -4,4"/>
<!-- Node120 -->
<g id="node1" class="node">
<title>Node120</title>
<g id="a_node1"><a xlink:href="interface_swift___events___event_listener.html" target="_top" xlink:title="Swift_Events_EventListener">
<polygon fill="#ffffff" stroke="#000000" points="0,-393.5 0,-411.5 140.5117,-411.5 140.5117,-393.5 0,-393.5"/>
<text text-anchor="middle" x="70.2559" y="-399.5" font-family="Helvetica,sans-Serif" font-size="10.00" fill="#000000">Swift_Events_EventListener</text>
</a>
</g>
</g>
<!-- Node121 -->
<g id="node2" class="node">
<title>Node121</title>
<g id="a_node2"><a xlink:href="interface_swift___events___command_listener.html" target="_top" xlink:title="Swift_Events_CommandListener">
<polygon fill="#ffffff" stroke="#000000" points="185.4229,-351.5 185.4229,-369.5 346.4912,-369.5 346.4912,-351.5 185.4229,-351.5"/>
<text text-anchor="middle" x="265.957" y="-357.5" font-family="Helvetica,sans-Serif" font-size="10.00" fill="#000000">Swift_Events_CommandListener</text>
</a>
</g>
</g>
<!-- Node120&#45;&gt;Node121 -->
<g id="edge1" class="edge">
<title>Node120&#45;&gt;Node121</title>
<path fill="none" stroke="#191970" d="M121.8325,-391.2939C139.2013,-387.5313 158.6934,-383.3209 176.5117,-379.5 191.7236,-376.238 208.3967,-372.6891 223.183,-369.551"/>
<polygon fill="#191970" stroke="#191970" points="120.9117,-387.9121 111.8801,-393.4512 122.3946,-394.7533 120.9117,-387.9121"/>
</g>
<!-- Node122 -->
<g id="node6" class="node">
<title>Node122</title>
<g id="a_node6"><a xlink:href="interface_swift___events___response_listener.html" target="_top" xlink:title="Swift_Events_ResponseListener">
<polygon fill="#ffffff" stroke="#000000" points="185.9722,-314.5 185.9722,-332.5 345.9419,-332.5 345.9419,-314.5 185.9722,-314.5"/>
<text text-anchor="middle" x="265.957" y="-320.5" font-family="Helvetica,sans-Serif" font-size="10.00" fill="#000000">Swift_Events_ResponseListener</text>
</a>
</g>
</g>
<!-- Node120&#45;&gt;Node122 -->
<g id="edge5" class="edge">
<title>Node120&#45;&gt;Node122</title>
<path fill="none" stroke="#191970" d="M91.7613,-387.7481C112.5719,-374.1179 145.4432,-354.2537 176.5117,-342.5 187.2024,-338.4556 198.9548,-335.1832 210.3261,-332.5685"/>
<polygon fill="#191970" stroke="#191970" points="89.7429,-384.8871 83.3597,-393.3432 93.623,-390.7134 89.7429,-384.8871"/>
</g>
<!-- Node123 -->
<g id="node7" class="node">
<title>Node123</title>
<g id="a_node7"><a xlink:href="interface_swift___events___send_listener.html" target="_top" xlink:title="Swift_Events_SendListener">
<polygon fill="#ffffff" stroke="#000000" points="196.8096,-519.5 196.8096,-537.5 335.1045,-537.5 335.1045,-519.5 196.8096,-519.5"/>
<text text-anchor="middle" x="265.957" y="-525.5" font-family="Helvetica,sans-Serif" font-size="10.00" fill="#000000">Swift_Events_SendListener</text>
</a>
</g>
</g>
<!-- Node120&#45;&gt;Node123 -->
<g id="edge8" class="edge">
<title>Node120&#45;&gt;Node123</title>
<path fill="none" stroke="#191970" d="M82.0389,-419.8043C99.6068,-444.1597 135.077,-488.0755 176.5117,-510.5 183.3378,-514.1943 190.8277,-517.1338 198.4772,-519.4721"/>
<polygon fill="#191970" stroke="#191970" points="84.8232,-417.6791 76.2073,-411.5133 79.0976,-421.7062 84.8232,-417.6791"/>
</g>
<!-- Node125 -->
<g id="node11" class="node">
<title>Node125</title>
<g id="a_node11"><a xlink:href="interface_swift___events___transport_change_listener.html" target="_top" xlink:title="Swift_Events_TransportChange\lListener">
<polygon fill="#ffffff" stroke="#000000" points="187.5469,-435.5 187.5469,-463.5 344.3672,-463.5 344.3672,-435.5 187.5469,-435.5"/>
<text text-anchor="start" x="195.5469" y="-451.5" font-family="Helvetica,sans-Serif" font-size="10.00" fill="#000000">Swift_Events_TransportChange</text>
<text text-anchor="middle" x="265.957" y="-441.5" font-family="Helvetica,sans-Serif" font-size="10.00" fill="#000000">Listener</text>
</a>
</g>
</g>
<!-- Node120&#45;&gt;Node125 -->
<g id="edge13" class="edge">
<title>Node120&#45;&gt;Node125</title>
<path fill="none" stroke="#191970" d="M117.97,-413.9591C144.9712,-420.4438 178.951,-428.6045 207.5384,-435.4701"/>
<polygon fill="#191970" stroke="#191970" points="118.5299,-410.4941 107.989,-411.5621 116.8952,-417.3006 118.5299,-410.4941"/>
</g>
<!-- Node126 -->
<g id="node13" class="node">
<title>Node126</title>
<g id="a_node13"><a xlink:href="interface_swift___events___transport_exception_listener.html" target="_top" xlink:title="Swift_Events_TransportException\lListener">
<polygon fill="#ffffff" stroke="#000000" points="183.1035,-388.5 183.1035,-416.5 348.8105,-416.5 348.8105,-388.5 183.1035,-388.5"/>
<text text-anchor="start" x="191.1035" y="-404.5" font-family="Helvetica,sans-Serif" font-size="10.00" fill="#000000">Swift_Events_TransportException</text>
<text text-anchor="middle" x="265.957" y="-394.5" font-family="Helvetica,sans-Serif" font-size="10.00" fill="#000000">Listener</text>
</a>
</g>
</g>
<!-- Node120&#45;&gt;Node126 -->
<g id="edge16" class="edge">
<title>Node120&#45;&gt;Node126</title>
<path fill="none" stroke="#191970" d="M150.7047,-402.5C161.3186,-402.5 172.2148,-402.5 182.8718,-402.5"/>
<polygon fill="#191970" stroke="#191970" points="150.632,-399.0001 140.632,-402.5 150.632,-406.0001 150.632,-399.0001"/>
</g>
<!-- Node118 -->
<g id="node3" class="node">
<title>Node118</title>
<g id="a_node3"><a xlink:href="class_swift___plugins___bandwidth_monitor_plugin.html" target="_top" xlink:title="Swift_Plugins_BandwidthMonitor\lPlugin">
<polygon fill="#ffffff" stroke="#000000" points="392.2397,-346.5 392.2397,-374.5 553.8745,-374.5 553.8745,-346.5 392.2397,-346.5"/>
<text text-anchor="start" x="400.2397" y="-362.5" font-family="Helvetica,sans-Serif" font-size="10.00" fill="#000000">Swift_Plugins_BandwidthMonitor</text>
<text text-anchor="middle" x="473.0571" y="-352.5" font-family="Helvetica,sans-Serif" font-size="10.00" fill="#000000">Plugin</text>
</a>
</g>
</g>
<!-- Node121&#45;&gt;Node118 -->
<g id="edge2" class="edge">
<title>Node121&#45;&gt;Node118</title>
<path fill="none" stroke="#191970" d="M356.8198,-360.5C368.5077,-360.5 380.4144,-360.5 391.9323,-360.5"/>
<polygon fill="#191970" stroke="#191970" points="356.6204,-357.0001 346.6204,-360.5 356.6203,-364.0001 356.6204,-357.0001"/>
</g>
<!-- Node58 -->
<g id="node5" class="node">
<title>Node58</title>
<g id="a_node5"><a xlink:href="class_swift___plugins___logger_plugin.html" target="_top" xlink:title="Swift_Plugins_LoggerPlugin">
<polygon fill="#ffffff" stroke="#000000" points="402.7939,-393.5 402.7939,-411.5 543.3203,-411.5 543.3203,-393.5 402.7939,-393.5"/>
<text text-anchor="middle" x="473.0571" y="-399.5" font-family="Helvetica,sans-Serif" font-size="10.00" fill="#000000">Swift_Plugins_LoggerPlugin</text>
</a>
</g>
</g>
<!-- Node121&#45;&gt;Node58 -->
<g id="edge4" class="edge">
<title>Node121&#45;&gt;Node58</title>
<path fill="none" stroke="#191970" d="M320.5111,-371.5636C354.1369,-378.3829 396.7207,-387.0189 428.3456,-393.4325"/>
<polygon fill="#191970" stroke="#191970" points="320.8814,-368.0675 310.3852,-369.5101 319.49,-374.9278 320.8814,-368.0675"/>
</g>
<!-- Node1 -->
<g id="node4" class="node">
<title>Node1</title>
<g id="a_node4"><a xlink:href="class_swift___plugins___throttler_plugin.html" target="_top" xlink:title="Swift_Plugins_ThrottlerPlugin">
<polygon fill="#ffffff" stroke="#000000" points="592.3794,-351.5 592.3794,-369.5 738.9995,-369.5 738.9995,-351.5 592.3794,-351.5"/>
<text text-anchor="middle" x="665.6895" y="-357.5" font-family="Helvetica,sans-Serif" font-size="10.00" fill="#000000">Swift_Plugins_ThrottlerPlugin</text>
</a>
</g>
</g>
<!-- Node118&#45;&gt;Node1 -->
<g id="edge3" class="edge">
<title>Node118&#45;&gt;Node1</title>
<path fill="none" stroke="#191970" d="M564.0656,-360.5C573.4617,-360.5 582.9254,-360.5 592.0974,-360.5"/>
<polygon fill="#191970" stroke="#191970" points="563.9133,-357.0001 553.9133,-360.5 563.9133,-364.0001 563.9133,-357.0001"/>
</g>
<!-- Node122&#45;&gt;Node118 -->
<g id="edge6" class="edge">
<title>Node122&#45;&gt;Node118</title>
<path fill="none" stroke="#191970" d="M326.2415,-334.2703C347.5626,-338.0795 371.8675,-342.4217 394.4823,-346.462"/>
<polygon fill="#191970" stroke="#191970" points="326.8143,-330.8173 316.3546,-332.5039 325.5831,-337.7082 326.8143,-330.8173"/>
</g>
<!-- Node122&#45;&gt;Node58 -->
<g id="edge7" class="edge">
<title>Node122&#45;&gt;Node58</title>
<path fill="none" stroke="#191970" d="M342.3032,-336.0421C346.8614,-337.9068 351.2687,-340.046 355.4023,-342.5 376.5432,-355.0503 370.3098,-371.8688 391.4023,-384.5 397.5049,-388.1545 404.2628,-391.0694 411.2017,-393.3941"/>
<polygon fill="#191970" stroke="#191970" points="343.3681,-332.7053 332.7739,-332.5874 340.9822,-339.2862 343.3681,-332.7053"/>
</g>
<!-- Node123&#45;&gt;Node118 -->
<g id="edge10" class="edge">
<title>Node123&#45;&gt;Node118</title>
<path fill="none" stroke="#191970" d="M344.2968,-518.4694C348.2934,-516.2402 352.0382,-513.6061 355.4023,-510.5 398.1931,-470.9911 350.376,-425.8381 391.4023,-384.5 395.2535,-380.6196 399.6971,-377.3595 404.4815,-374.6216"/>
<polygon fill="#191970" stroke="#191970" points="342.7691,-515.32 335.1952,-522.7285 345.736,-521.6601 342.7691,-515.32"/>
</g>
<!-- Node51 -->
<g id="node8" class="node">
<title>Node51</title>
<g id="a_node8"><a xlink:href="class_swift___plugins___anti_flood_plugin.html" target="_top" xlink:title="Swift_Plugins_AntiFloodPlugin">
<polygon fill="#ffffff" stroke="#000000" points="397.2397,-565.5 397.2397,-583.5 548.8745,-583.5 548.8745,-565.5 397.2397,-565.5"/>
<text text-anchor="middle" x="473.0571" y="-571.5" font-family="Helvetica,sans-Serif" font-size="10.00" fill="#000000">Swift_Plugins_AntiFloodPlugin</text>
</a>
</g>
</g>
<!-- Node123&#45;&gt;Node51 -->
<g id="edge9" class="edge">
<title>Node123&#45;&gt;Node51</title>
<path fill="none" stroke="#191970" d="M320.1949,-539.6969C331.8279,-542.1891 344.0374,-544.8732 355.4023,-547.5 371.4711,-551.214 375.3479,-552.7245 391.4023,-556.5 404.2616,-559.5241 418.2964,-562.6727 431.0463,-565.4752"/>
<polygon fill="#191970" stroke="#191970" points="320.6654,-536.2188 310.1561,-537.5625 319.2096,-543.0657 320.6654,-536.2188"/>
</g>
<!-- Node62 -->
<g id="node9" class="node">
<title>Node62</title>
<g id="a_node9"><a xlink:href="class_swift___plugins___decorator_plugin.html" target="_top" xlink:title="Swift_Plugins_DecoratorPlugin">
<polygon fill="#ffffff" stroke="#000000" points="396.4097,-528.5 396.4097,-546.5 549.7046,-546.5 549.7046,-528.5 396.4097,-528.5"/>
<text text-anchor="middle" x="473.0571" y="-534.5" font-family="Helvetica,sans-Serif" font-size="10.00" fill="#000000">Swift_Plugins_DecoratorPlugin</text>
</a>
</g>
</g>
<!-- Node123&#45;&gt;Node62 -->
<g id="edge11" class="edge">
<title>Node123&#45;&gt;Node62</title>
<path fill="none" stroke="#191970" d="M345.4795,-531.9558C362.1891,-532.682 379.7822,-533.4465 396.3849,-534.168"/>
<polygon fill="#191970" stroke="#191970" points="345.3489,-528.4469 335.2063,-531.5094 345.0449,-535.4403 345.3489,-528.4469"/>
</g>
<!-- Node124 -->
<g id="node10" class="node">
<title>Node124</title>
<g id="a_node10"><a xlink:href="class_swift___plugins___reporter_plugin.html" target="_top" xlink:title="Swift_Plugins_ReporterPlugin">
<polygon fill="#ffffff" stroke="#000000" points="398.9097,-491.5 398.9097,-509.5 547.2046,-509.5 547.2046,-491.5 398.9097,-491.5"/>
<text text-anchor="middle" x="473.0571" y="-497.5" font-family="Helvetica,sans-Serif" font-size="10.00" fill="#000000">Swift_Plugins_ReporterPlugin</text>
</a>
</g>
</g>
<!-- Node123&#45;&gt;Node124 -->
<g id="edge12" class="edge">
<title>Node123&#45;&gt;Node124</title>
<path fill="none" stroke="#191970" d="M342.7091,-518.1231C363.5384,-515.307 385.9213,-512.2808 406.1595,-509.5446"/>
<polygon fill="#191970" stroke="#191970" points="342.0657,-514.6782 332.6248,-519.4865 343.0036,-521.615 342.0657,-514.6782"/>
</g>
<!-- Node125&#45;&gt;Node58 -->
<g id="edge14" class="edge">
<title>Node125&#45;&gt;Node58</title>
<path fill="none" stroke="#191970" d="M337.6108,-433.2386C369.6991,-425.9564 406.3159,-417.6465 433.3803,-411.5044"/>
<polygon fill="#191970" stroke="#191970" points="336.7908,-429.8357 327.8134,-435.4621 338.34,-436.6621 336.7908,-429.8357"/>
</g>
<!-- Node56 -->
<g id="node12" class="node">
<title>Node56</title>
<g id="a_node12"><a xlink:href="class_swift___plugins___pop_before_smtp_plugin.html" target="_top" xlink:title="Swift_Plugins_PopBeforeSmtp\lPlugin">
<polygon fill="#ffffff" stroke="#000000" points="396.9639,-440.5 396.9639,-468.5 549.1504,-468.5 549.1504,-440.5 396.9639,-440.5"/>
<text text-anchor="start" x="404.9639" y="-456.5" font-family="Helvetica,sans-Serif" font-size="10.00" fill="#000000">Swift_Plugins_PopBeforeSmtp</text>
<text text-anchor="middle" x="473.0571" y="-446.5" font-family="Helvetica,sans-Serif" font-size="10.00" fill="#000000">Plugin</text>
</a>
</g>
</g>
<!-- Node125&#45;&gt;Node56 -->
<g id="edge15" class="edge">
<title>Node125&#45;&gt;Node56</title>
<path fill="none" stroke="#191970" d="M354.7012,-451.6425C368.7561,-451.9819 383.1826,-452.3302 396.9159,-452.6617"/>
<polygon fill="#191970" stroke="#191970" points="354.6296,-448.1399 344.548,-451.3974 354.4606,-455.1379 354.6296,-448.1399"/>
</g>
<!-- Node126&#45;&gt;Node58 -->
<g id="edge17" class="edge">
<title>Node126&#45;&gt;Node58</title>
<path fill="none" stroke="#191970" d="M359.0747,-402.5C373.7139,-402.5 388.6342,-402.5 402.649,-402.5"/>
<polygon fill="#191970" stroke="#191970" points="358.9993,-399.0001 348.9993,-402.5 358.9992,-406.0001 358.9993,-399.0001"/>
</g>
<!-- Node119 -->
<g id="node14" class="node">
<title>Node119</title>
<g id="a_node14"><a xlink:href="interface_swift___filterable.html" target="_top" xlink:title="Swift_Filterable">
<polygon fill="#ffffff" stroke="#000000" points="223.7773,-107.5 223.7773,-125.5 308.1367,-125.5 308.1367,-107.5 223.7773,-107.5"/>
<text text-anchor="middle" x="265.957" y="-113.5" font-family="Helvetica,sans-Serif" font-size="10.00" fill="#000000">Swift_Filterable</text>
</a>
</g>
</g>
<!-- Node115 -->
<g id="node15" class="node">
<title>Node115</title>
<g id="a_node15"><a xlink:href="class_swift___byte_stream___abstract_filterable_input_stream.html" target="_top" xlink:title="Swift_ByteStream_Abstract\lFilterableInputStream">
<polygon fill="#ffffff" stroke="#000000" points="404.2002,-121.5 404.2002,-149.5 541.9141,-149.5 541.9141,-121.5 404.2002,-121.5"/>
<text text-anchor="start" x="412.2002" y="-137.5" font-family="Helvetica,sans-Serif" font-size="10.00" fill="#000000">Swift_ByteStream_Abstract</text>
<text text-anchor="middle" x="473.0571" y="-127.5" font-family="Helvetica,sans-Serif" font-size="10.00" fill="#000000">FilterableInputStream</text>
</a>
</g>
</g>
<!-- Node119&#45;&gt;Node115 -->
<g id="edge18" class="edge">
<title>Node119&#45;&gt;Node115</title>
<path fill="none" stroke="#191970" d="M318.3646,-121.308C344.284,-123.686 375.9117,-126.5876 403.7989,-129.146"/>
<polygon fill="#191970" stroke="#191970" points="318.6445,-117.8191 308.3666,-120.3908 318.005,-124.7898 318.6445,-117.8191"/>
</g>
<!-- Node66 -->
<g id="node16" class="node">
<title>Node66</title>
<g id="a_node16"><a xlink:href="class_swift___byte_stream___file_byte_stream.html" target="_top" xlink:title="Swift_ByteStream_FileByte\lStream">
<polygon fill="#ffffff" stroke="#000000" points="597.1108,-37.5 597.1108,-65.5 734.2681,-65.5 734.2681,-37.5 597.1108,-37.5"/>
<text text-anchor="start" x="605.1108" y="-53.5" font-family="Helvetica,sans-Serif" font-size="10.00" fill="#000000">Swift_ByteStream_FileByte</text>
<text text-anchor="middle" x="665.6895" y="-43.5" font-family="Helvetica,sans-Serif" font-size="10.00" fill="#000000">Stream</text>
</a>
</g>
</g>
<!-- Node115&#45;&gt;Node66 -->
<g id="edge19" class="edge">
<title>Node115&#45;&gt;Node66</title>
<path fill="none" stroke="#191970" d="M536.5239,-118.2788C542.7315,-116.1676 548.8842,-113.9006 554.7119,-111.5 586.5069,-98.4025 621.0436,-78.8031 643.0005,-65.6029"/>
<polygon fill="#191970" stroke="#191970" points="535.1831,-115.0346 526.7628,-121.465 537.3552,-121.6891 535.1831,-115.0346"/>
</g>
<!-- Node68 -->
<g id="node17" class="node">
<title>Node68</title>
<g id="a_node17"><a xlink:href="class_swift___transport___stream_buffer.html" target="_top" xlink:title="Swift_Transport_StreamBuffer">
<polygon fill="#ffffff" stroke="#000000" points="590.7119,-105.5 590.7119,-123.5 740.667,-123.5 740.667,-105.5 590.7119,-105.5"/>
<text text-anchor="middle" x="665.6895" y="-111.5" font-family="Helvetica,sans-Serif" font-size="10.00" fill="#000000">Swift_Transport_StreamBuffer</text>
</a>
</g>
</g>
<!-- Node115&#45;&gt;Node68 -->
<g id="edge20" class="edge">
<title>Node115&#45;&gt;Node68</title>
<path fill="none" stroke="#191970" d="M552.1562,-126.8769C564.881,-125.4897 578.0202,-124.0573 590.6461,-122.6809"/>
<polygon fill="#191970" stroke="#191970" points="551.6195,-123.4146 542.0577,-127.9778 552.3782,-130.3734 551.6195,-123.4146"/>
</g>
<!-- Node114 -->
<g id="node18" class="node">
<title>Node114</title>
<g id="a_node18"><a xlink:href="interface_swift___input_byte_stream.html" target="_top" xlink:title="Swift_InputByteStream">
<polygon fill="#ffffff" stroke="#000000" points="207.1001,-144.5 207.1001,-162.5 324.814,-162.5 324.814,-144.5 207.1001,-144.5"/>
<text text-anchor="middle" x="265.957" y="-150.5" font-family="Helvetica,sans-Serif" font-size="10.00" fill="#000000">Swift_InputByteStream</text>
</a>
</g>
</g>
<!-- Node114&#45;&gt;Node118 -->
<g id="edge25" class="edge">
<title>Node114&#45;&gt;Node118</title>
<path fill="none" stroke="#191970" d="M282.486,-169.8947C301.752,-189.6346 333.7124,-224.4043 355.4023,-258.5 376.1126,-291.0557 362.1131,-312.3817 391.4023,-337.5 395.427,-340.9516 399.9345,-343.8872 404.7095,-346.3838"/>
<polygon fill="#191970" stroke="#191970" points="284.8254,-167.2828 275.3057,-162.6325 279.8477,-172.2044 284.8254,-167.2828"/>
</g>
<!-- Node114&#45;&gt;Node115 -->
<g id="edge21" class="edge">
<title>Node114&#45;&gt;Node115</title>
<path fill="none" stroke="#191970" d="M335.0416,-147.4955C357.2421,-145.566 381.8283,-143.4291 404.025,-141.4999"/>
<polygon fill="#191970" stroke="#191970" points="334.6858,-144.0132 325.0265,-148.366 335.292,-150.9869 334.6858,-144.0132"/>
</g>
<!-- Node64 -->
<g id="node19" class="node">
<title>Node64</title>
<g id="a_node19"><a xlink:href="class_swift___byte_stream___array_byte_stream.html" target="_top" xlink:title="Swift_ByteStream_ArrayByte\lStream">
<polygon fill="#ffffff" stroke="#000000" points="400.5894,-37.5 400.5894,-65.5 545.5249,-65.5 545.5249,-37.5 400.5894,-37.5"/>
<text text-anchor="start" x="408.5894" y="-53.5" font-family="Helvetica,sans-Serif" font-size="10.00" fill="#000000">Swift_ByteStream_ArrayByte</text>
<text text-anchor="middle" x="473.0571" y="-43.5" font-family="Helvetica,sans-Serif" font-size="10.00" fill="#000000">Stream</text>
</a>
</g>
</g>
<!-- Node114&#45;&gt;Node64 -->
<g id="edge22" class="edge">
<title>Node114&#45;&gt;Node64</title>
<path fill="none" stroke="#191970" d="M335.133,-145.7956C342.353,-143.2131 349.2786,-139.8544 355.4023,-135.5 381.058,-117.2572 366.458,-93.704 391.4023,-74.5 395.9536,-70.9961 401.0133,-68.0259 406.3208,-65.5083"/>
<polygon fill="#191970" stroke="#191970" points="333.6869,-142.5782 325.1529,-148.8567 335.7396,-149.2705 333.6869,-142.5782"/>
</g>
<!-- Node116 -->
<g id="node20" class="node">
<title>Node116</title>
<g id="a_node20"><a xlink:href="interface_swift___key_cache___key_cache_input_stream.html" target="_top" xlink:title="Swift_KeyCache_KeyCacheInput\lStream">
<polygon fill="#ffffff" stroke="#000000" points="391.4023,-168.5 391.4023,-196.5 554.7119,-196.5 554.7119,-168.5 391.4023,-168.5"/>
<text text-anchor="start" x="399.4023" y="-184.5" font-family="Helvetica,sans-Serif" font-size="10.00" fill="#000000">Swift_KeyCache_KeyCacheInput</text>
<text text-anchor="middle" x="473.0571" y="-174.5" font-family="Helvetica,sans-Serif" font-size="10.00" fill="#000000">Stream</text>
</a>
</g>
</g>
<!-- Node114&#45;&gt;Node116 -->
<g id="edge23" class="edge">
<title>Node114&#45;&gt;Node116</title>
<path fill="none" stroke="#191970" d="M335.1116,-163.1836C353.0674,-165.698 372.58,-168.4303 391.1244,-171.027"/>
<polygon fill="#191970" stroke="#191970" points="335.4152,-159.6921 325.0265,-161.7714 334.4444,-166.6245 335.4152,-159.6921"/>
</g>
<!-- Node67 -->
<g id="node22" class="node">
<title>Node67</title>
<g id="a_node22"><a xlink:href="interface_swift___transport___io_buffer.html" target="_top" xlink:title="Swift_Transport_IoBuffer">
<polygon fill="#ffffff" stroke="#000000" points="410.0254,-84.5 410.0254,-102.5 536.0889,-102.5 536.0889,-84.5 410.0254,-84.5"/>
<text text-anchor="middle" x="473.0571" y="-90.5" font-family="Helvetica,sans-Serif" font-size="10.00" fill="#000000">Swift_Transport_IoBuffer</text>
</a>
</g>
</g>
<!-- Node114&#45;&gt;Node67 -->
<g id="edge26" class="edge">
<title>Node114&#45;&gt;Node67</title>
<path fill="none" stroke="#191970" d="M335.2951,-142.3639C342.2003,-140.4215 349.0129,-138.1511 355.4023,-135.5 373.1638,-128.1306 373.7094,-119.0324 391.4023,-111.5 399.9505,-107.8608 409.328,-104.9162 418.5859,-102.5464"/>
<polygon fill="#191970" stroke="#191970" points="333.9587,-139.094 325.1501,-144.9813 335.7075,-145.8721 333.9587,-139.094"/>
</g>
<!-- Node117 -->
<g id="node21" class="node">
<title>Node117</title>
<g id="a_node21"><a xlink:href="class_swift___key_cache___simple_key_cache_input_stream.html" target="_top" xlink:title="Swift_KeyCache_SimpleKey\lCacheInputStream">
<polygon fill="#ffffff" stroke="#000000" points="594.3252,-168.5 594.3252,-196.5 737.0537,-196.5 737.0537,-168.5 594.3252,-168.5"/>
<text text-anchor="start" x="602.3252" y="-184.5" font-family="Helvetica,sans-Serif" font-size="10.00" fill="#000000">Swift_KeyCache_SimpleKey</text>
<text text-anchor="middle" x="665.6895" y="-174.5" font-family="Helvetica,sans-Serif" font-size="10.00" fill="#000000">CacheInputStream</text>
</a>
</g>
</g>
<!-- Node116&#45;&gt;Node117 -->
<g id="edge24" class="edge">
<title>Node116&#45;&gt;Node117</title>
<path fill="none" stroke="#191970" d="M564.959,-182.5C574.793,-182.5 584.6884,-182.5 594.234,-182.5"/>
<polygon fill="#191970" stroke="#191970" points="564.7506,-179.0001 554.7506,-182.5 564.7505,-186.0001 564.7506,-179.0001"/>
</g>
<!-- Node67&#45;&gt;Node68 -->
<g id="edge27" class="edge">
<title>Node67&#45;&gt;Node68</title>
<path fill="none" stroke="#191970" d="M546.458,-101.5019C560.8417,-103.0699 575.9493,-104.7169 590.3938,-106.2916"/>
<polygon fill="#191970" stroke="#191970" points="546.4526,-97.9806 536.1322,-100.3762 545.6939,-104.9394 546.4526,-97.9806"/>
</g>
<!-- Node63 -->
<g id="node23" class="node">
<title>Node63</title>
<g id="a_node23"><a xlink:href="interface_swift___output_byte_stream.html" target="_top" xlink:title="Swift_OutputByteStream">
<polygon fill="#ffffff" stroke="#000000" points="203.2109,-42.5 203.2109,-60.5 328.7031,-60.5 328.7031,-42.5 203.2109,-42.5"/>
<text text-anchor="middle" x="265.957" y="-48.5" font-family="Helvetica,sans-Serif" font-size="10.00" fill="#000000">Swift_OutputByteStream</text>
</a>
</g>
</g>
<!-- Node63&#45;&gt;Node64 -->
<g id="edge28" class="edge">
<title>Node63&#45;&gt;Node64</title>
<path fill="none" stroke="#191970" d="M339.1912,-51.5C359.1195,-51.5 380.6907,-51.5 400.577,-51.5"/>
<polygon fill="#191970" stroke="#191970" points="338.9374,-48.0001 328.9374,-51.5 338.9374,-55.0001 338.9374,-48.0001"/>
</g>
<!-- Node63&#45;&gt;Node67 -->
<g id="edge31" class="edge">
<title>Node63&#45;&gt;Node67</title>
<path fill="none" stroke="#191970" d="M320.5111,-62.5636C354.1369,-69.3829 396.7207,-78.0189 428.3456,-84.4325"/>
<polygon fill="#191970" stroke="#191970" points="320.8814,-59.0675 310.3852,-60.5101 319.49,-65.9278 320.8814,-59.0675"/>
</g>
<!-- Node65 -->
<g id="node24" class="node">
<title>Node65</title>
<g id="a_node24"><a xlink:href="interface_swift___file_stream.html" target="_top" xlink:title="Swift_FileStream">
<polygon fill="#ffffff" stroke="#000000" points="427.269,-.5 427.269,-18.5 518.8452,-18.5 518.8452,-.5 427.269,-.5"/>
<text text-anchor="middle" x="473.0571" y="-6.5" font-family="Helvetica,sans-Serif" font-size="10.00" fill="#000000">Swift_FileStream</text>
</a>
</g>
</g>
<!-- Node63&#45;&gt;Node65 -->
<g id="edge29" class="edge">
<title>Node63&#45;&gt;Node65</title>
<path fill="none" stroke="#191970" d="M320.5111,-40.4364C354.1369,-33.6171 396.7207,-24.9811 428.3456,-18.5675"/>
<polygon fill="#191970" stroke="#191970" points="319.49,-37.0722 310.3852,-42.4899 320.8814,-43.9325 319.49,-37.0722"/>
</g>
<!-- Node65&#45;&gt;Node66 -->
<g id="edge30" class="edge">
<title>Node65&#45;&gt;Node66</title>
<path fill="none" stroke="#191970" d="M524.2092,-20.6528C547.8657,-25.8107 576.221,-31.993 601.3145,-37.4642"/>
<polygon fill="#191970" stroke="#191970" points="524.8977,-17.2207 514.3816,-18.5101 523.4064,-24.0601 524.8977,-17.2207"/>
</g>
<!-- Node61 -->
<g id="node25" class="node">
<title>Node61</title>
<g id="a_node25"><a xlink:href="interface_swift___plugins___decorator___replacements.html" target="_top" xlink:title="Swift_Plugins_Decorator\l_Replacements">
<polygon fill="#ffffff" stroke="#000000" points="203.2085,-556.5 203.2085,-584.5 328.7056,-584.5 328.7056,-556.5 203.2085,-556.5"/>
<text text-anchor="start" x="211.2085" y="-572.5" font-family="Helvetica,sans-Serif" font-size="10.00" fill="#000000">Swift_Plugins_Decorator</text>
<text text-anchor="middle" x="265.957" y="-562.5" font-family="Helvetica,sans-Serif" font-size="10.00" fill="#000000">_Replacements</text>
</a>
</g>
</g>
<!-- Node61&#45;&gt;Node62 -->
<g id="edge32" class="edge">
<title>Node61&#45;&gt;Node62</title>
<path fill="none" stroke="#191970" d="M338.9027,-558.8766C364.3263,-554.8255 392.4542,-550.3435 416.3602,-546.5343"/>
<polygon fill="#191970" stroke="#191970" points="338.262,-555.4344 328.9374,-560.4645 339.3636,-562.3472 338.262,-555.4344"/>
</g>
<!-- Node57 -->
<g id="node26" class="node">
<title>Node57</title>
<g id="a_node26"><a xlink:href="interface_swift___plugins___logger.html" target="_top" xlink:title="Swift_Plugins_Logger">
<polygon fill="#ffffff" stroke="#000000" points="209.5928,-267.5 209.5928,-285.5 322.3213,-285.5 322.3213,-267.5 209.5928,-267.5"/>
<text text-anchor="middle" x="265.957" y="-273.5" font-family="Helvetica,sans-Serif" font-size="10.00" fill="#000000">Swift_Plugins_Logger</text>
</a>
</g>
</g>
<!-- Node57&#45;&gt;Node58 -->
<g id="edge33" class="edge">
<title>Node57&#45;&gt;Node58</title>
<path fill="none" stroke="#191970" d="M327.7283,-289.0133C337.7689,-293.0625 347.4629,-298.4181 355.4023,-305.5 384.1967,-331.1842 361.4021,-360.2353 391.4023,-384.5 395.9171,-388.1516 401.0145,-391.1015 406.4022,-393.4799"/>
<polygon fill="#191970" stroke="#191970" points="328.6359,-285.6199 318.0415,-285.5175 326.2597,-292.2043 328.6359,-285.6199"/>
</g>
<!-- Node59 -->
<g id="node27" class="node">
<title>Node59</title>
<g id="a_node27"><a xlink:href="class_swift___plugins___loggers___array_logger.html" target="_top" xlink:title="Swift_Plugins_Loggers\l_ArrayLogger">
<polygon fill="#ffffff" stroke="#000000" points="414.1929,-262.5 414.1929,-290.5 531.9214,-290.5 531.9214,-262.5 414.1929,-262.5"/>
<text text-anchor="start" x="422.1929" y="-278.5" font-family="Helvetica,sans-Serif" font-size="10.00" fill="#000000">Swift_Plugins_Loggers</text>
<text text-anchor="middle" x="473.0571" y="-268.5" font-family="Helvetica,sans-Serif" font-size="10.00" fill="#000000">_ArrayLogger</text>
</a>
</g>
</g>
<!-- Node57&#45;&gt;Node59 -->
<g id="edge34" class="edge">
<title>Node57&#45;&gt;Node59</title>
<path fill="none" stroke="#191970" d="M332.7541,-276.5C358.9065,-276.5 388.653,-276.5 414.005,-276.5"/>
<polygon fill="#191970" stroke="#191970" points="332.5481,-273.0001 322.548,-276.5 332.548,-280.0001 332.5481,-273.0001"/>
</g>
<!-- Node60 -->
<g id="node28" class="node">
<title>Node60</title>
<g id="a_node28"><a xlink:href="class_swift___plugins___loggers___echo_logger.html" target="_top" xlink:title="Swift_Plugins_Loggers\l_EchoLogger">
<polygon fill="#ffffff" stroke="#000000" points="414.1929,-215.5 414.1929,-243.5 531.9214,-243.5 531.9214,-215.5 414.1929,-215.5"/>
<text text-anchor="start" x="422.1929" y="-231.5" font-family="Helvetica,sans-Serif" font-size="10.00" fill="#000000">Swift_Plugins_Loggers</text>
<text text-anchor="middle" x="473.0571" y="-221.5" font-family="Helvetica,sans-Serif" font-size="10.00" fill="#000000">_EchoLogger</text>
</a>
</g>
</g>
<!-- Node57&#45;&gt;Node60 -->
<g id="edge35" class="edge">
<title>Node57&#45;&gt;Node60</title>
<path fill="none" stroke="#191970" d="M315.9768,-265.1483C345.5117,-258.4456 383.0603,-249.9242 414.0396,-242.8936"/>
<polygon fill="#191970" stroke="#191970" points="314.8654,-261.8115 305.888,-267.4379 316.4147,-268.6379 314.8654,-261.8115"/>
</g>
<!-- Node55 -->
<g id="node29" class="node">
<title>Node55</title>
<g id="a_node29"><a xlink:href="interface_swift___plugins___pop___pop3_connection.html" target="_top" xlink:title="Swift_Plugins_Pop_Pop3Connection">
<polygon fill="#ffffff" stroke="#000000" points="176.5117,-482.5 176.5117,-500.5 355.4023,-500.5 355.4023,-482.5 176.5117,-482.5"/>
<text text-anchor="middle" x="265.957" y="-488.5" font-family="Helvetica,sans-Serif" font-size="10.00" fill="#000000">Swift_Plugins_Pop_Pop3Connection</text>
</a>
</g>
</g>
<!-- Node55&#45;&gt;Node56 -->
<g id="edge36" class="edge">
<title>Node55&#45;&gt;Node56</title>
<path fill="none" stroke="#191970" d="M326.2533,-480.7276C348.3277,-476.7839 373.5992,-472.2689 396.8815,-468.1093"/>
<polygon fill="#191970" stroke="#191970" points="325.5831,-477.2918 316.3546,-482.4961 326.8143,-484.1827 325.5831,-477.2918"/>
</g>
<!-- Node50 -->
<g id="node30" class="node">
<title>Node50</title>
<g id="a_node30"><a xlink:href="interface_swift___plugins___sleeper.html" target="_top" xlink:title="Swift_Plugins_Sleeper">
<polygon fill="#ffffff" stroke="#000000" points="207.9277,-603.5 207.9277,-621.5 323.9863,-621.5 323.9863,-603.5 207.9277,-603.5"/>
<text text-anchor="middle" x="265.957" y="-609.5" font-family="Helvetica,sans-Serif" font-size="10.00" fill="#000000">Swift_Plugins_Sleeper</text>
</a>
</g>
</g>
<!-- Node50&#45;&gt;Node1 -->
<g id="edge38" class="edge">
<title>Node50&#45;&gt;Node1</title>
<path fill="none" stroke="#191970" d="M315.291,-623.2988C376.9376,-633.8707 483.0311,-642.1194 554.7119,-593.5 636.2891,-538.1682 659.6152,-405.8615 664.5625,-369.7445"/>
<polygon fill="#191970" stroke="#191970" points="315.8844,-619.8495 305.4223,-621.521 314.6433,-626.7386 315.8844,-619.8495"/>
</g>
<!-- Node50&#45;&gt;Node51 -->
<g id="edge37" class="edge">
<title>Node50&#45;&gt;Node51</title>
<path fill="none" stroke="#191970" d="M324.9479,-601.676C356.2598,-595.9307 394.2885,-588.953 423.9711,-583.5066"/>
<polygon fill="#191970" stroke="#191970" points="324.241,-598.2472 315.0369,-603.4945 325.5043,-605.1322 324.241,-598.2472"/>
</g>
<!-- Node0 -->
<g id="node31" class="node">
<title>Node0</title>
<g id="a_node31"><a xlink:href="interface_swift___plugins___timer.html" target="_top" xlink:title="Swift_Plugins_Timer">
<polygon fill="#ffffff" stroke="#000000" points="419.6689,-309.5 419.6689,-327.5 526.4453,-327.5 526.4453,-309.5 419.6689,-309.5"/>
<text text-anchor="middle" x="473.0571" y="-315.5" font-family="Helvetica,sans-Serif" font-size="10.00" fill="#000000">Swift_Plugins_Timer</text>
</a>
</g>
</g>
<!-- Node0&#45;&gt;Node1 -->
<g id="edge39" class="edge">
<title>Node0&#45;&gt;Node1</title>
<path fill="none" stroke="#191970" d="M524.205,-329.6519C555.4181,-336.4573 594.8126,-345.0466 624.1014,-351.4325"/>
<polygon fill="#191970" stroke="#191970" points="524.8977,-326.2207 514.3816,-327.5101 523.4064,-333.0601 524.8977,-326.2207"/>
</g>
</g>
</svg>
