<?xml version="1.0" encoding="UTF-8" standalone="no"?>
<!DOCTYPE svg PUBLIC "-//W3C//DTD SVG 1.1//EN"
 "http://www.w3.org/Graphics/SVG/1.1/DTD/svg11.dtd">
<!-- Generated by graphviz version 2.40.1 (20161225.0304)
 -->
<!-- Title: Графічна ієрархія класів Pages: 1 -->
<svg width="261pt" height="64pt"
 viewBox="0.00 0.00 261.07 64.00" xmlns="http://www.w3.org/2000/svg" xmlns:xlink="http://www.w3.org/1999/xlink">
<g id="graph0" class="graph" transform="scale(1 1) rotate(0) translate(4 60)">
<title>Графічна ієрархія класів</title>
<polygon fill="#ffffff" stroke="transparent" points="-4,4 -4,-60 257.0684,-60 257.0684,4 -4,4"/>
<!-- Node0 -->
<g id="node1" class="node">
<title>Node0</title>
<g id="a_node1"><a xlink:href="class_image___driver.html" target="_top" xlink:title="Image_Driver">
<polygon fill="#ffffff" stroke="#000000" points="0,-18.5 0,-36.5 76.0195,-36.5 76.0195,-18.5 0,-18.5"/>
<text text-anchor="middle" x="38.0098" y="-24.5" font-family="Helvetica,sans-Serif" font-size="10.00" fill="#000000">Image_Driver</text>
</a>
</g>
</g>
<!-- Node1 -->
<g id="node2" class="node">
<title>Node1</title>
<g id="a_node2"><a xlink:href="class_image___g_d___driver.html" target="_top" xlink:title="Image_GD_Driver">
<polygon fill="#ffffff" stroke="#000000" points="134.2534,-37.5 134.2534,-55.5 230.8345,-55.5 230.8345,-37.5 134.2534,-37.5"/>
<text text-anchor="middle" x="182.5439" y="-43.5" font-family="Helvetica,sans-Serif" font-size="10.00" fill="#000000">Image_GD_Driver</text>
</a>
</g>
</g>
<!-- Node0&#45;&gt;Node1 -->
<g id="edge1" class="edge">
<title>Node0&#45;&gt;Node1</title>
<path fill="none" stroke="#191970" d="M86.668,-33.8965C101.9764,-35.9088 118.8726,-38.13 134.1618,-40.1398"/>
<polygon fill="#191970" stroke="#191970" points="86.7337,-30.3751 76.3628,-32.5418 85.8213,-37.3154 86.7337,-30.3751"/>
</g>
<!-- Node2 -->
<g id="node3" class="node">
<title>Node2</title>
<g id="a_node3"><a xlink:href="class_image___image_magick___driver.html" target="_top" xlink:title="Image_ImageMagick_Driver">
<polygon fill="#ffffff" stroke="#000000" points="112.0195,-.5 112.0195,-18.5 253.0684,-18.5 253.0684,-.5 112.0195,-.5"/>
<text text-anchor="middle" x="182.5439" y="-6.5" font-family="Helvetica,sans-Serif" font-size="10.00" fill="#000000">Image_ImageMagick_Driver</text>
</a>
</g>
</g>
<!-- Node0&#45;&gt;Node2 -->
<g id="edge2" class="edge">
<title>Node0&#45;&gt;Node2</title>
<path fill="none" stroke="#191970" d="M86.439,-21.4687C94.6165,-20.4503 103.2526,-19.3748 111.8589,-18.303"/>
<polygon fill="#191970" stroke="#191970" points="85.8536,-18.0145 76.3628,-22.7236 86.7187,-24.9608 85.8536,-18.0145"/>
</g>
</g>
</svg>
