<?xml version="1.0" encoding="UTF-8" standalone="no"?>
<!DOCTYPE svg PUBLIC "-//W3C//DTD SVG 1.1//EN"
 "http://www.w3.org/Graphics/SVG/1.1/DTD/svg11.dtd">
<!-- Generated by graphviz version 2.40.1 (20161225.0304)
 -->
<!-- Title: Swift_Mime_HeaderFactory Pages: 1 -->
<svg width="165pt" height="204pt"
 viewBox="0.00 0.00 164.90 204.00" xmlns="http://www.w3.org/2000/svg" xmlns:xlink="http://www.w3.org/1999/xlink">
<g id="graph0" class="graph" transform="scale(1 1) rotate(0) translate(4 200)">
<title>Swift_Mime_HeaderFactory</title>
<polygon fill="#ffffff" stroke="transparent" points="-4,4 -4,-200 160.8984,-200 160.8984,4 -4,4"/>
<!-- Node3 -->
<g id="node1" class="node">
<title>Node3</title>
<polygon fill="#bfbfbf" stroke="#000000" points="0,-.5 0,-104.5 156.8984,-104.5 156.8984,-.5 0,-.5"/>
<text text-anchor="middle" x="78.4492" y="-92.5" font-family="Helvetica,sans-Serif" font-size="10.00" fill="#000000">Swift_Mime_HeaderFactory</text>
<polyline fill="none" stroke="#000000" points="0,-86.5 156.8984,-86.5 "/>
<text text-anchor="middle" x="78.4492" y="-74.5" font-family="Helvetica,sans-Serif" font-size="10.00" fill="#000000"> </text>
<polyline fill="none" stroke="#000000" points="0,-68.5 156.8984,-68.5 "/>
<text text-anchor="start" x="8" y="-56.5" font-family="Helvetica,sans-Serif" font-size="10.00" fill="#000000">+ createMailboxHeader()</text>
<text text-anchor="start" x="8" y="-46.5" font-family="Helvetica,sans-Serif" font-size="10.00" fill="#000000">+ createDateHeader()</text>
<text text-anchor="start" x="8" y="-36.5" font-family="Helvetica,sans-Serif" font-size="10.00" fill="#000000">+ createTextHeader()</text>
<text text-anchor="start" x="8" y="-26.5" font-family="Helvetica,sans-Serif" font-size="10.00" fill="#000000">+ createParameterizedHeader()</text>
<text text-anchor="start" x="8" y="-16.5" font-family="Helvetica,sans-Serif" font-size="10.00" fill="#000000">+ createIdHeader()</text>
<text text-anchor="start" x="8" y="-6.5" font-family="Helvetica,sans-Serif" font-size="10.00" fill="#000000">+ createPathHeader()</text>
</g>
<!-- Node4 -->
<g id="node2" class="node">
<title>Node4</title>
<g id="a_node2"><a xlink:href="interface_swift___mime___charset_observer.html" target="_top" xlink:title="{Swift_Mime_CharsetObserver\n||+ charsetChanged()\l}">
<polygon fill="#ffffff" stroke="#000000" points="3.7622,-141.5 3.7622,-195.5 153.1362,-195.5 153.1362,-141.5 3.7622,-141.5"/>
<text text-anchor="middle" x="78.4492" y="-183.5" font-family="Helvetica,sans-Serif" font-size="10.00" fill="#000000">Swift_Mime_CharsetObserver</text>
<polyline fill="none" stroke="#000000" points="3.7622,-177.5 153.1362,-177.5 "/>
<text text-anchor="middle" x="78.4492" y="-165.5" font-family="Helvetica,sans-Serif" font-size="10.00" fill="#000000"> </text>
<polyline fill="none" stroke="#000000" points="3.7622,-159.5 153.1362,-159.5 "/>
<text text-anchor="start" x="11.7622" y="-147.5" font-family="Helvetica,sans-Serif" font-size="10.00" fill="#000000">+ charsetChanged()</text>
</a>
</g>
</g>
<!-- Node4&#45;&gt;Node3 -->
<g id="edge1" class="edge">
<title>Node4&#45;&gt;Node3</title>
<path fill="none" stroke="#191970" d="M78.4492,-131.0375C78.4492,-122.6013 78.4492,-113.4994 78.4492,-104.5858"/>
<polygon fill="none" stroke="#191970" points="74.9493,-131.3031 78.4492,-141.3032 81.9493,-131.3032 74.9493,-131.3031"/>
</g>
</g>
</svg>
