<?xml version="1.0" encoding="UTF-8" standalone="no"?>
<!DOCTYPE svg PUBLIC "-//W3C//DTD SVG 1.1//EN"
 "http://www.w3.org/Graphics/SVG/1.1/DTD/svg11.dtd">
<!-- Generated by graphviz version 2.40.1 (20161225.0304)
 -->
<!-- Title: Swift_CharacterReaderFactory Pages: 1 -->
<svg width="170pt" height="174pt"
 viewBox="0.00 0.00 170.17 174.00" xmlns="http://www.w3.org/2000/svg" xmlns:xlink="http://www.w3.org/1999/xlink">
<g id="graph0" class="graph" transform="scale(1 1) rotate(0) translate(4 170)">
<title>Swift_CharacterReaderFactory</title>
<polygon fill="#ffffff" stroke="transparent" points="-4,4 -4,-170 166.1719,-170 166.1719,4 -4,4"/>
<!-- Node0 -->
<g id="node1" class="node">
<title>Node0</title>
<polygon fill="#bfbfbf" stroke="#000000" points="4.4482,-111.5 4.4482,-165.5 157.7236,-165.5 157.7236,-111.5 4.4482,-111.5"/>
<text text-anchor="middle" x="81.0859" y="-153.5" font-family="Helvetica,sans-Serif" font-size="10.00" fill="#000000">Swift_CharacterReaderFactory</text>
<polyline fill="none" stroke="#000000" points="4.4482,-147.5 157.7236,-147.5 "/>
<text text-anchor="middle" x="81.0859" y="-135.5" font-family="Helvetica,sans-Serif" font-size="10.00" fill="#000000"> </text>
<polyline fill="none" stroke="#000000" points="4.4482,-129.5 157.7236,-129.5 "/>
<text text-anchor="start" x="12.4482" y="-117.5" font-family="Helvetica,sans-Serif" font-size="10.00" fill="#000000">+ getReaderFor()</text>
</g>
<!-- Node1 -->
<g id="node2" class="node">
<title>Node1</title>
<g id="a_node2"><a xlink:href="class_swift___character_reader_factory___simple_character_reader_factory.html" target="_top" xlink:title="{Swift_CharacterReaderFactory\l_SimpleCharacterReaderFactory\n||+ __construct()\l+ getReaderFor()\l}">
<polygon fill="#ffffff" stroke="#000000" points="0,-.5 0,-74.5 162.1719,-74.5 162.1719,-.5 0,-.5"/>
<text text-anchor="start" x="8" y="-62.5" font-family="Helvetica,sans-Serif" font-size="10.00" fill="#000000">Swift_CharacterReaderFactory</text>
<text text-anchor="middle" x="81.0859" y="-52.5" font-family="Helvetica,sans-Serif" font-size="10.00" fill="#000000">_SimpleCharacterReaderFactory</text>
<polyline fill="none" stroke="#000000" points="0,-46.5 162.1719,-46.5 "/>
<text text-anchor="middle" x="81.0859" y="-34.5" font-family="Helvetica,sans-Serif" font-size="10.00" fill="#000000"> </text>
<polyline fill="none" stroke="#000000" points="0,-28.5 162.1719,-28.5 "/>
<text text-anchor="start" x="8" y="-16.5" font-family="Helvetica,sans-Serif" font-size="10.00" fill="#000000">+ __construct()</text>
<text text-anchor="start" x="8" y="-6.5" font-family="Helvetica,sans-Serif" font-size="10.00" fill="#000000">+ getReaderFor()</text>
</a>
</g>
</g>
<!-- Node0&#45;&gt;Node1 -->
<g id="edge1" class="edge">
<title>Node0&#45;&gt;Node1</title>
<path fill="none" stroke="#191970" d="M81.0859,-101.1725C81.0859,-92.4692 81.0859,-83.2047 81.0859,-74.515"/>
<polygon fill="none" stroke="#191970" points="77.586,-101.4338 81.0859,-111.4339 84.586,-101.4339 77.586,-101.4338"/>
</g>
</g>
</svg>
