<?xml version="1.0" encoding="UTF-8" standalone="no"?>
<!DOCTYPE svg PUBLIC "-//W3C//DTD SVG 1.1//EN"
 "http://www.w3.org/Graphics/SVG/1.1/DTD/svg11.dtd">
<!-- Generated by graphviz version 2.40.1 (20161225.0304)
 -->
<!-- Title: Swift_Plugins_Timer Pages: 1 -->
<svg width="159pt" height="204pt"
 viewBox="0.00 0.00 158.76 204.00" xmlns="http://www.w3.org/2000/svg" xmlns:xlink="http://www.w3.org/1999/xlink">
<g id="graph0" class="graph" transform="scale(1 1) rotate(0) translate(4 200)">
<title>Swift_Plugins_Timer</title>
<polygon fill="#ffffff" stroke="transparent" points="-4,4 -4,-200 154.7607,-200 154.7607,4 -4,4"/>
<!-- Node0 -->
<g id="node1" class="node">
<title>Node0</title>
<polygon fill="#bfbfbf" stroke="#000000" points="21.9922,-141.5 21.9922,-195.5 128.7686,-195.5 128.7686,-141.5 21.9922,-141.5"/>
<text text-anchor="middle" x="75.3804" y="-183.5" font-family="Helvetica,sans-Serif" font-size="10.00" fill="#000000">Swift_Plugins_Timer</text>
<polyline fill="none" stroke="#000000" points="21.9922,-177.5 128.7686,-177.5 "/>
<text text-anchor="middle" x="75.3804" y="-165.5" font-family="Helvetica,sans-Serif" font-size="10.00" fill="#000000"> </text>
<polyline fill="none" stroke="#000000" points="21.9922,-159.5 128.7686,-159.5 "/>
<text text-anchor="start" x="29.9922" y="-147.5" font-family="Helvetica,sans-Serif" font-size="10.00" fill="#000000">+ getTimestamp()</text>
</g>
<!-- Node1 -->
<g id="node2" class="node">
<title>Node1</title>
<g id="a_node2"><a xlink:href="class_swift___plugins___throttler_plugin.html" target="_top" xlink:title="{Swift_Plugins_ThrottlerPlugin\n|+ BYTES_PER_MINUTE\l+ MESSAGES_PER_MINUTE\l|+ __construct()\l+ beforeSendPerformed()\l+ sendPerformed()\l+ sleep()\l+ getTimestamp()\l}">
<polygon fill="#ffffff" stroke="#000000" points="0,-.5 0,-104.5 150.7607,-104.5 150.7607,-.5 0,-.5"/>
<text text-anchor="middle" x="75.3804" y="-92.5" font-family="Helvetica,sans-Serif" font-size="10.00" fill="#000000">Swift_Plugins_ThrottlerPlugin</text>
<polyline fill="none" stroke="#000000" points="0,-86.5 150.7607,-86.5 "/>
<text text-anchor="start" x="8" y="-74.5" font-family="Helvetica,sans-Serif" font-size="10.00" fill="#000000">+ BYTES_PER_MINUTE</text>
<text text-anchor="start" x="8" y="-64.5" font-family="Helvetica,sans-Serif" font-size="10.00" fill="#000000">+ MESSAGES_PER_MINUTE</text>
<polyline fill="none" stroke="#000000" points="0,-58.5 150.7607,-58.5 "/>
<text text-anchor="start" x="8" y="-46.5" font-family="Helvetica,sans-Serif" font-size="10.00" fill="#000000">+ __construct()</text>
<text text-anchor="start" x="8" y="-36.5" font-family="Helvetica,sans-Serif" font-size="10.00" fill="#000000">+ beforeSendPerformed()</text>
<text text-anchor="start" x="8" y="-26.5" font-family="Helvetica,sans-Serif" font-size="10.00" fill="#000000">+ sendPerformed()</text>
<text text-anchor="start" x="8" y="-16.5" font-family="Helvetica,sans-Serif" font-size="10.00" fill="#000000">+ sleep()</text>
<text text-anchor="start" x="8" y="-6.5" font-family="Helvetica,sans-Serif" font-size="10.00" fill="#000000">+ getTimestamp()</text>
</a>
</g>
</g>
<!-- Node0&#45;&gt;Node1 -->
<g id="edge1" class="edge">
<title>Node0&#45;&gt;Node1</title>
<path fill="none" stroke="#191970" d="M75.3804,-131.0375C75.3804,-122.6013 75.3804,-113.4994 75.3804,-104.5858"/>
<polygon fill="none" stroke="#191970" points="71.8805,-131.3031 75.3804,-141.3032 78.8805,-131.3032 71.8805,-131.3031"/>
</g>
</g>
</svg>
