<?xml version="1.0" encoding="UTF-8" standalone="no"?>
<!DOCTYPE svg PUBLIC "-//W3C//DTD SVG 1.1//EN"
 "http://www.w3.org/Graphics/SVG/1.1/DTD/svg11.dtd">
<!-- Generated by graphviz version 2.40.1 (20161225.0304)
 -->
<!-- Title: Swift_Plugins_Logger Pages: 1 -->
<svg width="420pt" height="274pt"
 viewBox="0.00 0.00 420.13 274.00" xmlns="http://www.w3.org/2000/svg" xmlns:xlink="http://www.w3.org/1999/xlink">
<g id="graph0" class="graph" transform="scale(1 1) rotate(0) translate(4 270)">
<title>Swift_Plugins_Logger</title>
<polygon fill="#ffffff" stroke="transparent" points="-4,4 -4,-270 416.1274,-270 416.1274,4 -4,4"/>
<!-- Node0 -->
<g id="node1" class="node">
<title>Node0</title>
<polygon fill="#bfbfbf" stroke="#000000" points="160.8989,-191.5 160.8989,-265.5 273.6274,-265.5 273.6274,-191.5 160.8989,-191.5"/>
<text text-anchor="middle" x="217.2632" y="-253.5" font-family="Helvetica,sans-Serif" font-size="10.00" fill="#000000">Swift_Plugins_Logger</text>
<polyline fill="none" stroke="#000000" points="160.8989,-247.5 273.6274,-247.5 "/>
<text text-anchor="middle" x="217.2632" y="-235.5" font-family="Helvetica,sans-Serif" font-size="10.00" fill="#000000"> </text>
<polyline fill="none" stroke="#000000" points="160.8989,-229.5 273.6274,-229.5 "/>
<text text-anchor="start" x="168.8989" y="-217.5" font-family="Helvetica,sans-Serif" font-size="10.00" fill="#000000">+ add()</text>
<text text-anchor="start" x="168.8989" y="-207.5" font-family="Helvetica,sans-Serif" font-size="10.00" fill="#000000">+ clear()</text>
<text text-anchor="start" x="168.8989" y="-197.5" font-family="Helvetica,sans-Serif" font-size="10.00" fill="#000000">+ dump()</text>
</g>
<!-- Node1 -->
<g id="node2" class="node">
<title>Node1</title>
<g id="a_node2"><a xlink:href="class_swift___plugins___logger_plugin.html" target="_top" xlink:title="{Swift_Plugins_LoggerPlugin\n||+ __construct()\l+ add()\l+ clear()\l+ dump()\l+ commandSent()\l+ responseReceived()\l+ beforeTransportStarted()\l+ transportStarted()\l+ beforeTransportStopped()\l+ transportStopped()\l+ exceptionThrown()\l}">
<polygon fill="#ffffff" stroke="#000000" points="0,-.5 0,-154.5 140.5264,-154.5 140.5264,-.5 0,-.5"/>
<text text-anchor="middle" x="70.2632" y="-142.5" font-family="Helvetica,sans-Serif" font-size="10.00" fill="#000000">Swift_Plugins_LoggerPlugin</text>
<polyline fill="none" stroke="#000000" points="0,-136.5 140.5264,-136.5 "/>
<text text-anchor="middle" x="70.2632" y="-124.5" font-family="Helvetica,sans-Serif" font-size="10.00" fill="#000000"> </text>
<polyline fill="none" stroke="#000000" points="0,-118.5 140.5264,-118.5 "/>
<text text-anchor="start" x="8" y="-106.5" font-family="Helvetica,sans-Serif" font-size="10.00" fill="#000000">+ __construct()</text>
<text text-anchor="start" x="8" y="-96.5" font-family="Helvetica,sans-Serif" font-size="10.00" fill="#000000">+ add()</text>
<text text-anchor="start" x="8" y="-86.5" font-family="Helvetica,sans-Serif" font-size="10.00" fill="#000000">+ clear()</text>
<text text-anchor="start" x="8" y="-76.5" font-family="Helvetica,sans-Serif" font-size="10.00" fill="#000000">+ dump()</text>
<text text-anchor="start" x="8" y="-66.5" font-family="Helvetica,sans-Serif" font-size="10.00" fill="#000000">+ commandSent()</text>
<text text-anchor="start" x="8" y="-56.5" font-family="Helvetica,sans-Serif" font-size="10.00" fill="#000000">+ responseReceived()</text>
<text text-anchor="start" x="8" y="-46.5" font-family="Helvetica,sans-Serif" font-size="10.00" fill="#000000">+ beforeTransportStarted()</text>
<text text-anchor="start" x="8" y="-36.5" font-family="Helvetica,sans-Serif" font-size="10.00" fill="#000000">+ transportStarted()</text>
<text text-anchor="start" x="8" y="-26.5" font-family="Helvetica,sans-Serif" font-size="10.00" fill="#000000">+ beforeTransportStopped()</text>
<text text-anchor="start" x="8" y="-16.5" font-family="Helvetica,sans-Serif" font-size="10.00" fill="#000000">+ transportStopped()</text>
<text text-anchor="start" x="8" y="-6.5" font-family="Helvetica,sans-Serif" font-size="10.00" fill="#000000">+ exceptionThrown()</text>
</a>
</g>
</g>
<!-- Node0&#45;&gt;Node1 -->
<g id="edge1" class="edge">
<title>Node0&#45;&gt;Node1</title>
<path fill="none" stroke="#191970" d="M173.8558,-183.9114C163.3971,-173.1682 151.9559,-161.4156 140.6148,-149.766"/>
<polygon fill="none" stroke="#191970" points="171.4427,-186.4502 180.9261,-191.1741 176.4584,-181.5673 171.4427,-186.4502"/>
</g>
<!-- Node2 -->
<g id="node3" class="node">
<title>Node2</title>
<g id="a_node3"><a xlink:href="class_swift___plugins___loggers___array_logger.html" target="_top" xlink:title="{Swift_Plugins_Loggers\l_ArrayLogger\n||+ __construct()\l+ add()\l+ clear()\l+ dump()\l}">
<polygon fill="#ffffff" stroke="#000000" points="158.3989,-30.5 158.3989,-124.5 276.1274,-124.5 276.1274,-30.5 158.3989,-30.5"/>
<text text-anchor="start" x="166.3989" y="-112.5" font-family="Helvetica,sans-Serif" font-size="10.00" fill="#000000">Swift_Plugins_Loggers</text>
<text text-anchor="middle" x="217.2632" y="-102.5" font-family="Helvetica,sans-Serif" font-size="10.00" fill="#000000">_ArrayLogger</text>
<polyline fill="none" stroke="#000000" points="158.3989,-96.5 276.1274,-96.5 "/>
<text text-anchor="middle" x="217.2632" y="-84.5" font-family="Helvetica,sans-Serif" font-size="10.00" fill="#000000"> </text>
<polyline fill="none" stroke="#000000" points="158.3989,-78.5 276.1274,-78.5 "/>
<text text-anchor="start" x="166.3989" y="-66.5" font-family="Helvetica,sans-Serif" font-size="10.00" fill="#000000">+ __construct()</text>
<text text-anchor="start" x="166.3989" y="-56.5" font-family="Helvetica,sans-Serif" font-size="10.00" fill="#000000">+ add()</text>
<text text-anchor="start" x="166.3989" y="-46.5" font-family="Helvetica,sans-Serif" font-size="10.00" fill="#000000">+ clear()</text>
<text text-anchor="start" x="166.3989" y="-36.5" font-family="Helvetica,sans-Serif" font-size="10.00" fill="#000000">+ dump()</text>
</a>
</g>
</g>
<!-- Node0&#45;&gt;Node2 -->
<g id="edge2" class="edge">
<title>Node0&#45;&gt;Node2</title>
<path fill="none" stroke="#191970" d="M217.2632,-180.9298C217.2632,-162.9866 217.2632,-142.5933 217.2632,-124.6853"/>
<polygon fill="none" stroke="#191970" points="213.7633,-181.1741 217.2632,-191.1741 220.7633,-181.1742 213.7633,-181.1741"/>
</g>
<!-- Node3 -->
<g id="node4" class="node">
<title>Node3</title>
<g id="a_node4"><a xlink:href="class_swift___plugins___loggers___echo_logger.html" target="_top" xlink:title="{Swift_Plugins_Loggers\l_EchoLogger\n||+ __construct()\l+ add()\l+ clear()\l+ dump()\l}">
<polygon fill="#ffffff" stroke="#000000" points="294.3989,-30.5 294.3989,-124.5 412.1274,-124.5 412.1274,-30.5 294.3989,-30.5"/>
<text text-anchor="start" x="302.3989" y="-112.5" font-family="Helvetica,sans-Serif" font-size="10.00" fill="#000000">Swift_Plugins_Loggers</text>
<text text-anchor="middle" x="353.2632" y="-102.5" font-family="Helvetica,sans-Serif" font-size="10.00" fill="#000000">_EchoLogger</text>
<polyline fill="none" stroke="#000000" points="294.3989,-96.5 412.1274,-96.5 "/>
<text text-anchor="middle" x="353.2632" y="-84.5" font-family="Helvetica,sans-Serif" font-size="10.00" fill="#000000"> </text>
<polyline fill="none" stroke="#000000" points="294.3989,-78.5 412.1274,-78.5 "/>
<text text-anchor="start" x="302.3989" y="-66.5" font-family="Helvetica,sans-Serif" font-size="10.00" fill="#000000">+ __construct()</text>
<text text-anchor="start" x="302.3989" y="-56.5" font-family="Helvetica,sans-Serif" font-size="10.00" fill="#000000">+ add()</text>
<text text-anchor="start" x="302.3989" y="-46.5" font-family="Helvetica,sans-Serif" font-size="10.00" fill="#000000">+ clear()</text>
<text text-anchor="start" x="302.3989" y="-36.5" font-family="Helvetica,sans-Serif" font-size="10.00" fill="#000000">+ dump()</text>
</a>
</g>
</g>
<!-- Node0&#45;&gt;Node3 -->
<g id="edge3" class="edge">
<title>Node0&#45;&gt;Node3</title>
<path fill="none" stroke="#191970" d="M258.953,-183.8152C267.6914,-174.3439 276.8159,-164.3754 285.2632,-155 294.0099,-145.2923 303.2976,-134.8192 312.1065,-124.8066"/>
<polygon fill="none" stroke="#191970" points="256.2668,-181.5649 252.0481,-191.2836 261.4067,-186.317 256.2668,-181.5649"/>
</g>
</g>
</svg>
