<?xml version="1.0" encoding="UTF-8" standalone="no"?>
<!DOCTYPE svg PUBLIC "-//W3C//DTD SVG 1.1//EN"
 "http://www.w3.org/Graphics/SVG/1.1/DTD/svg11.dtd">
<!-- Generated by graphviz version 2.40.1 (20161225.0304)
 -->
<!-- Title: Swift_Mailer_RecipientIterator Pages: 1 -->
<svg width="157pt" height="194pt"
 viewBox="0.00 0.00 157.39 194.00" xmlns="http://www.w3.org/2000/svg" xmlns:xlink="http://www.w3.org/1999/xlink">
<g id="graph0" class="graph" transform="scale(1 1) rotate(0) translate(4 190)">
<title>Swift_Mailer_RecipientIterator</title>
<polygon fill="#ffffff" stroke="transparent" points="-4,4 -4,-190 153.3887,-190 153.3887,4 -4,4"/>
<!-- Node0 -->
<g id="node1" class="node">
<title>Node0</title>
<polygon fill="#bfbfbf" stroke="#000000" points="0,-121.5 0,-185.5 149.3887,-185.5 149.3887,-121.5 0,-121.5"/>
<text text-anchor="middle" x="74.6943" y="-173.5" font-family="Helvetica,sans-Serif" font-size="10.00" fill="#000000">Swift_Mailer_RecipientIterator</text>
<polyline fill="none" stroke="#000000" points="0,-167.5 149.3887,-167.5 "/>
<text text-anchor="middle" x="74.6943" y="-155.5" font-family="Helvetica,sans-Serif" font-size="10.00" fill="#000000"> </text>
<polyline fill="none" stroke="#000000" points="0,-149.5 149.3887,-149.5 "/>
<text text-anchor="start" x="8" y="-137.5" font-family="Helvetica,sans-Serif" font-size="10.00" fill="#000000">+ hasNext()</text>
<text text-anchor="start" x="8" y="-127.5" font-family="Helvetica,sans-Serif" font-size="10.00" fill="#000000">+ nextRecipient()</text>
</g>
<!-- Node1 -->
<g id="node2" class="node">
<title>Node1</title>
<g id="a_node2"><a xlink:href="class_swift___mailer___array_recipient_iterator.html" target="_top" xlink:title="{Swift_Mailer_ArrayRecipient\lIterator\n||+ __construct()\l+ hasNext()\l+ nextRecipient()\l}">
<polygon fill="#ffffff" stroke="#000000" points="3.894,-.5 3.894,-84.5 145.4946,-84.5 145.4946,-.5 3.894,-.5"/>
<text text-anchor="start" x="11.894" y="-72.5" font-family="Helvetica,sans-Serif" font-size="10.00" fill="#000000">Swift_Mailer_ArrayRecipient</text>
<text text-anchor="middle" x="74.6943" y="-62.5" font-family="Helvetica,sans-Serif" font-size="10.00" fill="#000000">Iterator</text>
<polyline fill="none" stroke="#000000" points="3.894,-56.5 145.4946,-56.5 "/>
<text text-anchor="middle" x="74.6943" y="-44.5" font-family="Helvetica,sans-Serif" font-size="10.00" fill="#000000"> </text>
<polyline fill="none" stroke="#000000" points="3.894,-38.5 145.4946,-38.5 "/>
<text text-anchor="start" x="11.894" y="-26.5" font-family="Helvetica,sans-Serif" font-size="10.00" fill="#000000">+ __construct()</text>
<text text-anchor="start" x="11.894" y="-16.5" font-family="Helvetica,sans-Serif" font-size="10.00" fill="#000000">+ hasNext()</text>
<text text-anchor="start" x="11.894" y="-6.5" font-family="Helvetica,sans-Serif" font-size="10.00" fill="#000000">+ nextRecipient()</text>
</a>
</g>
</g>
<!-- Node0&#45;&gt;Node1 -->
<g id="edge1" class="edge">
<title>Node0&#45;&gt;Node1</title>
<path fill="none" stroke="#191970" d="M74.6943,-111.1673C74.6943,-102.5509 74.6943,-93.4852 74.6943,-84.8676"/>
<polygon fill="none" stroke="#191970" points="71.1944,-111.3942 74.6943,-121.3942 78.1944,-111.3942 71.1944,-111.3942"/>
</g>
</g>
</svg>
