<?xml version="1.0" encoding="UTF-8" standalone="no"?>
<!DOCTYPE svg PUBLIC "-//W3C//DTD SVG 1.1//EN"
 "http://www.w3.org/Graphics/SVG/1.1/DTD/svg11.dtd">
<!-- Generated by graphviz version 2.40.1 (20161225.0304)
 -->
<!-- Title: Swift_Events_SendListener Pages: 1 -->
<svg width="149pt" height="164pt"
 viewBox="0.00 0.00 148.51 164.00" xmlns="http://www.w3.org/2000/svg" xmlns:xlink="http://www.w3.org/1999/xlink">
<g id="graph0" class="graph" transform="scale(1 1) rotate(0) translate(4 160)">
<title>Swift_Events_SendListener</title>
<polygon fill="#ffffff" stroke="transparent" points="-4,4 -4,-160 144.5117,-160 144.5117,4 -4,4"/>
<!-- Node7 -->
<g id="node1" class="node">
<title>Node7</title>
<polygon fill="#bfbfbf" stroke="#000000" points="1.1084,-.5 1.1084,-64.5 139.4033,-64.5 139.4033,-.5 1.1084,-.5"/>
<text text-anchor="middle" x="70.2559" y="-52.5" font-family="Helvetica,sans-Serif" font-size="10.00" fill="#000000">Swift_Events_SendListener</text>
<polyline fill="none" stroke="#000000" points="1.1084,-46.5 139.4033,-46.5 "/>
<text text-anchor="middle" x="70.2559" y="-34.5" font-family="Helvetica,sans-Serif" font-size="10.00" fill="#000000"> </text>
<polyline fill="none" stroke="#000000" points="1.1084,-28.5 139.4033,-28.5 "/>
<text text-anchor="start" x="9.1084" y="-16.5" font-family="Helvetica,sans-Serif" font-size="10.00" fill="#000000">+ beforeSendPerformed()</text>
<text text-anchor="start" x="9.1084" y="-6.5" font-family="Helvetica,sans-Serif" font-size="10.00" fill="#000000">+ sendPerformed()</text>
</g>
<!-- Node8 -->
<g id="node2" class="node">
<title>Node8</title>
<g id="a_node2"><a xlink:href="interface_swift___events___event_listener.html" target="_top" xlink:title="{Swift_Events_EventListener\n||}">
<polygon fill="#ffffff" stroke="#000000" points="0,-101.5 0,-155.5 140.5117,-155.5 140.5117,-101.5 0,-101.5"/>
<text text-anchor="middle" x="70.2559" y="-143.5" font-family="Helvetica,sans-Serif" font-size="10.00" fill="#000000">Swift_Events_EventListener</text>
<polyline fill="none" stroke="#000000" points="0,-137.5 140.5117,-137.5 "/>
<text text-anchor="middle" x="70.2559" y="-125.5" font-family="Helvetica,sans-Serif" font-size="10.00" fill="#000000"> </text>
<polyline fill="none" stroke="#000000" points="0,-119.5 140.5117,-119.5 "/>
<text text-anchor="middle" x="70.2559" y="-107.5" font-family="Helvetica,sans-Serif" font-size="10.00" fill="#000000"> </text>
</a>
</g>
</g>
<!-- Node8&#45;&gt;Node7 -->
<g id="edge1" class="edge">
<title>Node8&#45;&gt;Node7</title>
<path fill="none" stroke="#191970" d="M70.2559,-91.2276C70.2559,-82.4295 70.2559,-73.1248 70.2559,-64.5792"/>
<polygon fill="none" stroke="#191970" points="66.756,-91.247 70.2559,-101.247 73.756,-91.2471 66.756,-91.247"/>
</g>
</g>
</svg>
