<?xml version="1.0" encoding="UTF-8" standalone="no"?>
<!DOCTYPE svg PUBLIC "-//W3C//DTD SVG 1.1//EN"
 "http://www.w3.org/Graphics/SVG/1.1/DTD/svg11.dtd">
<!-- Generated by graphviz version 2.40.1 (20161225.0304)
 -->
<!-- Title: Swift_Mime_HeaderEncoder Pages: 1 -->
<svg width="157pt" height="245pt"
 viewBox="0.00 0.00 157.37 245.00" xmlns="http://www.w3.org/2000/svg" xmlns:xlink="http://www.w3.org/1999/xlink">
<g id="graph0" class="graph" transform="scale(1 1) rotate(0) translate(4 241)">
<title>Swift_Mime_HeaderEncoder</title>
<polygon fill="#ffffff" stroke="transparent" points="-4,4 -4,-241 153.374,-241 153.374,4 -4,4"/>
<!-- Node5 -->
<g id="node1" class="node">
<title>Node5</title>
<polygon fill="#bfbfbf" stroke="#000000" points="3.0469,-.5 3.0469,-54.5 146.3271,-54.5 146.3271,-.5 3.0469,-.5"/>
<text text-anchor="middle" x="74.687" y="-42.5" font-family="Helvetica,sans-Serif" font-size="10.00" fill="#000000">Swift_Mime_HeaderEncoder</text>
<polyline fill="none" stroke="#000000" points="3.0469,-36.5 146.3271,-36.5 "/>
<text text-anchor="middle" x="74.687" y="-24.5" font-family="Helvetica,sans-Serif" font-size="10.00" fill="#000000"> </text>
<polyline fill="none" stroke="#000000" points="3.0469,-18.5 146.3271,-18.5 "/>
<text text-anchor="start" x="11.0469" y="-6.5" font-family="Helvetica,sans-Serif" font-size="10.00" fill="#000000">+ getName()</text>
</g>
<!-- Node6 -->
<g id="node2" class="node">
<title>Node6</title>
<g id="a_node2"><a xlink:href="interface_swift___encoder.html" target="_top" xlink:title="{Swift_Encoder\n||+ encodeString()\l}">
<polygon fill="#ffffff" stroke="#000000" points="29.5825,-91.5 29.5825,-145.5 119.7915,-145.5 119.7915,-91.5 29.5825,-91.5"/>
<text text-anchor="middle" x="74.687" y="-133.5" font-family="Helvetica,sans-Serif" font-size="10.00" fill="#000000">Swift_Encoder</text>
<polyline fill="none" stroke="#000000" points="29.5825,-127.5 119.7915,-127.5 "/>
<text text-anchor="middle" x="74.687" y="-115.5" font-family="Helvetica,sans-Serif" font-size="10.00" fill="#000000"> </text>
<polyline fill="none" stroke="#000000" points="29.5825,-109.5 119.7915,-109.5 "/>
<text text-anchor="start" x="37.5825" y="-97.5" font-family="Helvetica,sans-Serif" font-size="10.00" fill="#000000">+ encodeString()</text>
</a>
</g>
</g>
<!-- Node6&#45;&gt;Node5 -->
<g id="edge1" class="edge">
<title>Node6&#45;&gt;Node5</title>
<path fill="none" stroke="#191970" d="M74.687,-81.12C74.687,-72.3006 74.687,-63.0605 74.687,-54.7837"/>
<polygon fill="none" stroke="#191970" points="71.1871,-81.197 74.687,-91.197 78.1871,-81.197 71.1871,-81.197"/>
</g>
<!-- Node7 -->
<g id="node3" class="node">
<title>Node7</title>
<g id="a_node3"><a xlink:href="interface_swift___mime___charset_observer.html" target="_top" xlink:title="{Swift_Mime_CharsetObserver\n||+ charsetChanged()\l}">
<polygon fill="#ffffff" stroke="#000000" points="0,-182.5 0,-236.5 149.374,-236.5 149.374,-182.5 0,-182.5"/>
<text text-anchor="middle" x="74.687" y="-224.5" font-family="Helvetica,sans-Serif" font-size="10.00" fill="#000000">Swift_Mime_CharsetObserver</text>
<polyline fill="none" stroke="#000000" points="0,-218.5 149.374,-218.5 "/>
<text text-anchor="middle" x="74.687" y="-206.5" font-family="Helvetica,sans-Serif" font-size="10.00" fill="#000000"> </text>
<polyline fill="none" stroke="#000000" points="0,-200.5 149.374,-200.5 "/>
<text text-anchor="start" x="8" y="-188.5" font-family="Helvetica,sans-Serif" font-size="10.00" fill="#000000">+ charsetChanged()</text>
</a>
</g>
</g>
<!-- Node7&#45;&gt;Node6 -->
<g id="edge2" class="edge">
<title>Node7&#45;&gt;Node6</title>
<path fill="none" stroke="#191970" d="M74.687,-172.12C74.687,-163.3006 74.687,-154.0605 74.687,-145.7837"/>
<polygon fill="none" stroke="#191970" points="71.1871,-172.197 74.687,-182.197 78.1871,-172.197 71.1871,-172.197"/>
</g>
</g>
</svg>
