<?xml version="1.0" encoding="UTF-8" standalone="no"?>
<!DOCTYPE svg PUBLIC "-//W3C//DTD SVG 1.1//EN"
 "http://www.w3.org/Graphics/SVG/1.1/DTD/svg11.dtd">
<!-- Generated by graphviz version 2.40.1 (20161225.0304)
 -->
<!-- Title: Swift_KeyCache_KeyCacheInputStream Pages: 1 -->
<svg width="171pt" height="244pt"
 viewBox="0.00 0.00 171.31 244.00" xmlns="http://www.w3.org/2000/svg" xmlns:xlink="http://www.w3.org/1999/xlink">
<g id="graph0" class="graph" transform="scale(1 1) rotate(0) translate(4 240)">
<title>Swift_KeyCache_KeyCacheInputStream</title>
<polygon fill="#ffffff" stroke="transparent" points="-4,4 -4,-240 167.3096,-240 167.3096,4 -4,4"/>
<!-- Node3 -->
<g id="node1" class="node">
<title>Node3</title>
<polygon fill="#bfbfbf" stroke="#000000" points="0,-.5 0,-104.5 163.3096,-104.5 163.3096,-.5 0,-.5"/>
<text text-anchor="start" x="8" y="-92.5" font-family="Helvetica,sans-Serif" font-size="10.00" fill="#000000">Swift_KeyCache_KeyCacheInput</text>
<text text-anchor="middle" x="81.6548" y="-82.5" font-family="Helvetica,sans-Serif" font-size="10.00" fill="#000000">Stream</text>
<polyline fill="none" stroke="#000000" points="0,-76.5 163.3096,-76.5 "/>
<text text-anchor="middle" x="81.6548" y="-64.5" font-family="Helvetica,sans-Serif" font-size="10.00" fill="#000000"> </text>
<polyline fill="none" stroke="#000000" points="0,-58.5 163.3096,-58.5 "/>
<text text-anchor="start" x="8" y="-46.5" font-family="Helvetica,sans-Serif" font-size="10.00" fill="#000000">+ setKeyCache()</text>
<text text-anchor="start" x="8" y="-36.5" font-family="Helvetica,sans-Serif" font-size="10.00" fill="#000000">+ setNsKey()</text>
<text text-anchor="start" x="8" y="-26.5" font-family="Helvetica,sans-Serif" font-size="10.00" fill="#000000">+ setItemKey()</text>
<text text-anchor="start" x="8" y="-16.5" font-family="Helvetica,sans-Serif" font-size="10.00" fill="#000000">+ setWriteThroughStream()</text>
<text text-anchor="start" x="8" y="-6.5" font-family="Helvetica,sans-Serif" font-size="10.00" fill="#000000">+ __clone()</text>
</g>
<!-- Node4 -->
<g id="node2" class="node">
<title>Node4</title>
<g id="a_node2"><a xlink:href="interface_swift___input_byte_stream.html" target="_top" xlink:title="{Swift_InputByteStream\n||+ write()\l+ commit()\l+ bind()\l+ unbind()\l+ flushBuffers()\l}">
<polygon fill="#ffffff" stroke="#000000" points="22.7979,-141.5 22.7979,-235.5 140.5117,-235.5 140.5117,-141.5 22.7979,-141.5"/>
<text text-anchor="middle" x="81.6548" y="-223.5" font-family="Helvetica,sans-Serif" font-size="10.00" fill="#000000">Swift_InputByteStream</text>
<polyline fill="none" stroke="#000000" points="22.7979,-217.5 140.5117,-217.5 "/>
<text text-anchor="middle" x="81.6548" y="-205.5" font-family="Helvetica,sans-Serif" font-size="10.00" fill="#000000"> </text>
<polyline fill="none" stroke="#000000" points="22.7979,-199.5 140.5117,-199.5 "/>
<text text-anchor="start" x="30.7979" y="-187.5" font-family="Helvetica,sans-Serif" font-size="10.00" fill="#000000">+ write()</text>
<text text-anchor="start" x="30.7979" y="-177.5" font-family="Helvetica,sans-Serif" font-size="10.00" fill="#000000">+ commit()</text>
<text text-anchor="start" x="30.7979" y="-167.5" font-family="Helvetica,sans-Serif" font-size="10.00" fill="#000000">+ bind()</text>
<text text-anchor="start" x="30.7979" y="-157.5" font-family="Helvetica,sans-Serif" font-size="10.00" fill="#000000">+ unbind()</text>
<text text-anchor="start" x="30.7979" y="-147.5" font-family="Helvetica,sans-Serif" font-size="10.00" fill="#000000">+ flushBuffers()</text>
</a>
</g>
</g>
<!-- Node4&#45;&gt;Node3 -->
<g id="edge1" class="edge">
<title>Node4&#45;&gt;Node3</title>
<path fill="none" stroke="#191970" d="M81.6548,-131.1629C81.6548,-122.3884 81.6548,-113.3711 81.6548,-104.715"/>
<polygon fill="none" stroke="#191970" points="78.1549,-131.3154 81.6548,-141.3155 85.1549,-131.3155 78.1549,-131.3154"/>
</g>
</g>
</svg>
