<?xml version="1.0" encoding="UTF-8" standalone="no"?>
<!DOCTYPE svg PUBLIC "-//W3C//DTD SVG 1.1//EN"
 "http://www.w3.org/Graphics/SVG/1.1/DTD/svg11.dtd">
<!-- Generated by graphviz version 2.40.1 (20161225.0304)
 -->
<!-- Title: UGMailMessage Pages: 1 -->
<svg width="324pt" height="234pt"
 viewBox="0.00 0.00 324.19 234.00" xmlns="http://www.w3.org/2000/svg" xmlns:xlink="http://www.w3.org/1999/xlink">
<g id="graph0" class="graph" transform="scale(1 1) rotate(0) translate(4 230)">
<title>UGMailMessage</title>
<polygon fill="#ffffff" stroke="transparent" points="-4,4 -4,-230 320.1895,-230 320.1895,4 -4,4"/>
<!-- Node0 -->
<g id="node1" class="node">
<title>Node0</title>
<polygon fill="#bfbfbf" stroke="#000000" points="110.3892,-131.5 110.3892,-225.5 200.3003,-225.5 200.3003,-131.5 110.3892,-131.5"/>
<text text-anchor="middle" x="155.3447" y="-213.5" font-family="Helvetica,sans-Serif" font-size="10.00" fill="#000000">UGMailMessage</text>
<polyline fill="none" stroke="#000000" points="110.3892,-207.5 200.3003,-207.5 "/>
<text text-anchor="middle" x="155.3447" y="-195.5" font-family="Helvetica,sans-Serif" font-size="10.00" fill="#000000"> </text>
<polyline fill="none" stroke="#000000" points="110.3892,-189.5 200.3003,-189.5 "/>
<text text-anchor="start" x="118.3892" y="-177.5" font-family="Helvetica,sans-Serif" font-size="10.00" fill="#000000">+ mailHeader()</text>
<text text-anchor="start" x="118.3892" y="-167.5" font-family="Helvetica,sans-Serif" font-size="10.00" fill="#000000">+ mailSubject()</text>
<text text-anchor="start" x="118.3892" y="-157.5" font-family="Helvetica,sans-Serif" font-size="10.00" fill="#000000">+ mailBody()</text>
<text text-anchor="start" x="118.3892" y="-147.5" font-family="Helvetica,sans-Serif" font-size="10.00" fill="#000000">+ mailSuccess()</text>
<text text-anchor="start" x="118.3892" y="-137.5" font-family="Helvetica,sans-Serif" font-size="10.00" fill="#000000">+ mailError()</text>
</g>
<!-- Node1 -->
<g id="node2" class="node">
<title>Node1</title>
<g id="a_node2"><a xlink:href="class_u_g_mail_activation.html" target="_top" xlink:title="{UGMailActivation\n||+ mailHeader()\l+ mailSubject()\l+ mailBody()\l+ mailSuccess()\l+ mailError()\l}">
<polygon fill="#ffffff" stroke="#000000" points="0,-.5 0,-94.5 92.6895,-94.5 92.6895,-.5 0,-.5"/>
<text text-anchor="middle" x="46.3447" y="-82.5" font-family="Helvetica,sans-Serif" font-size="10.00" fill="#000000">UGMailActivation</text>
<polyline fill="none" stroke="#000000" points="0,-76.5 92.6895,-76.5 "/>
<text text-anchor="middle" x="46.3447" y="-64.5" font-family="Helvetica,sans-Serif" font-size="10.00" fill="#000000"> </text>
<polyline fill="none" stroke="#000000" points="0,-58.5 92.6895,-58.5 "/>
<text text-anchor="start" x="8" y="-46.5" font-family="Helvetica,sans-Serif" font-size="10.00" fill="#000000">+ mailHeader()</text>
<text text-anchor="start" x="8" y="-36.5" font-family="Helvetica,sans-Serif" font-size="10.00" fill="#000000">+ mailSubject()</text>
<text text-anchor="start" x="8" y="-26.5" font-family="Helvetica,sans-Serif" font-size="10.00" fill="#000000">+ mailBody()</text>
<text text-anchor="start" x="8" y="-16.5" font-family="Helvetica,sans-Serif" font-size="10.00" fill="#000000">+ mailSuccess()</text>
<text text-anchor="start" x="8" y="-6.5" font-family="Helvetica,sans-Serif" font-size="10.00" fill="#000000">+ mailError()</text>
</a>
</g>
</g>
<!-- Node0&#45;&gt;Node1 -->
<g id="edge1" class="edge">
<title>Node0&#45;&gt;Node1</title>
<path fill="none" stroke="#191970" d="M109.4219,-123.3083C101.5116,-113.8015 93.354,-103.9974 85.6385,-94.7246"/>
<polygon fill="none" stroke="#191970" points="106.9067,-125.7576 115.9932,-131.206 112.2876,-121.2803 106.9067,-125.7576"/>
</g>
<!-- Node2 -->
<g id="node3" class="node">
<title>Node2</title>
<g id="a_node3"><a xlink:href="class_u_g_mail_invitation.html" target="_top" xlink:title="{UGMailInvitation\n||+ mailHeader()\l+ mailSubject()\l+ mailBody()\l+ mailSuccess()\l+ mailError()\l}">
<polygon fill="#ffffff" stroke="#000000" points="110.665,-.5 110.665,-94.5 200.0244,-94.5 200.0244,-.5 110.665,-.5"/>
<text text-anchor="middle" x="155.3447" y="-82.5" font-family="Helvetica,sans-Serif" font-size="10.00" fill="#000000">UGMailInvitation</text>
<polyline fill="none" stroke="#000000" points="110.665,-76.5 200.0244,-76.5 "/>
<text text-anchor="middle" x="155.3447" y="-64.5" font-family="Helvetica,sans-Serif" font-size="10.00" fill="#000000"> </text>
<polyline fill="none" stroke="#000000" points="110.665,-58.5 200.0244,-58.5 "/>
<text text-anchor="start" x="118.665" y="-46.5" font-family="Helvetica,sans-Serif" font-size="10.00" fill="#000000">+ mailHeader()</text>
<text text-anchor="start" x="118.665" y="-36.5" font-family="Helvetica,sans-Serif" font-size="10.00" fill="#000000">+ mailSubject()</text>
<text text-anchor="start" x="118.665" y="-26.5" font-family="Helvetica,sans-Serif" font-size="10.00" fill="#000000">+ mailBody()</text>
<text text-anchor="start" x="118.665" y="-16.5" font-family="Helvetica,sans-Serif" font-size="10.00" fill="#000000">+ mailSuccess()</text>
<text text-anchor="start" x="118.665" y="-6.5" font-family="Helvetica,sans-Serif" font-size="10.00" fill="#000000">+ mailError()</text>
</a>
</g>
</g>
<!-- Node0&#45;&gt;Node2 -->
<g id="edge2" class="edge">
<title>Node0&#45;&gt;Node2</title>
<path fill="none" stroke="#191970" d="M155.3447,-121.0214C155.3447,-112.2362 155.3447,-103.2556 155.3447,-94.7246"/>
<polygon fill="none" stroke="#191970" points="151.8448,-121.206 155.3447,-131.206 158.8448,-121.206 151.8448,-121.206"/>
</g>
<!-- Node3 -->
<g id="node4" class="node">
<title>Node3</title>
<g id="a_node4"><a xlink:href="class_u_g_mail_pass_reset.html" target="_top" xlink:title="{UGMailPassReset\n||+ mailHeader()\l+ mailSubject()\l+ mailBody()\l+ mailSuccess()\l+ mailError()\l}">
<polygon fill="#ffffff" stroke="#000000" points="218.5,-.5 218.5,-94.5 316.1895,-94.5 316.1895,-.5 218.5,-.5"/>
<text text-anchor="middle" x="267.3447" y="-82.5" font-family="Helvetica,sans-Serif" font-size="10.00" fill="#000000">UGMailPassReset</text>
<polyline fill="none" stroke="#000000" points="218.5,-76.5 316.1895,-76.5 "/>
<text text-anchor="middle" x="267.3447" y="-64.5" font-family="Helvetica,sans-Serif" font-size="10.00" fill="#000000"> </text>
<polyline fill="none" stroke="#000000" points="218.5,-58.5 316.1895,-58.5 "/>
<text text-anchor="start" x="226.5" y="-46.5" font-family="Helvetica,sans-Serif" font-size="10.00" fill="#000000">+ mailHeader()</text>
<text text-anchor="start" x="226.5" y="-36.5" font-family="Helvetica,sans-Serif" font-size="10.00" fill="#000000">+ mailSubject()</text>
<text text-anchor="start" x="226.5" y="-26.5" font-family="Helvetica,sans-Serif" font-size="10.00" fill="#000000">+ mailBody()</text>
<text text-anchor="start" x="226.5" y="-16.5" font-family="Helvetica,sans-Serif" font-size="10.00" fill="#000000">+ mailSuccess()</text>
<text text-anchor="start" x="226.5" y="-6.5" font-family="Helvetica,sans-Serif" font-size="10.00" fill="#000000">+ mailError()</text>
</a>
</g>
</g>
<!-- Node0&#45;&gt;Node3 -->
<g id="edge3" class="edge">
<title>Node0&#45;&gt;Node3</title>
<path fill="none" stroke="#191970" d="M202.2877,-123.5934C210.4918,-113.9976 218.9623,-104.0902 226.9695,-94.7246"/>
<polygon fill="none" stroke="#191970" points="199.6174,-121.3308 195.7793,-131.206 204.938,-125.8797 199.6174,-121.3308"/>
</g>
</g>
</svg>
