<?xml version="1.0" encoding="UTF-8" standalone="no"?>
<!DOCTYPE svg PUBLIC "-//W3C//DTD SVG 1.1//EN"
 "http://www.w3.org/Graphics/SVG/1.1/DTD/svg11.dtd">
<!-- Generated by graphviz version 2.40.1 (20161225.0304)
 -->
<!-- Title: Swift_Plugins_Decorator_Replacements Pages: 1 -->
<svg width="161pt" height="194pt"
 viewBox="0.00 0.00 161.29 194.00" xmlns="http://www.w3.org/2000/svg" xmlns:xlink="http://www.w3.org/1999/xlink">
<g id="graph0" class="graph" transform="scale(1 1) rotate(0) translate(4 190)">
<title>Swift_Plugins_Decorator_Replacements</title>
<polygon fill="#ffffff" stroke="transparent" points="-4,4 -4,-190 157.2949,-190 157.2949,4 -4,4"/>
<!-- Node0 -->
<g id="node1" class="node">
<title>Node0</title>
<polygon fill="#bfbfbf" stroke="#000000" points="13.8989,-121.5 13.8989,-185.5 139.396,-185.5 139.396,-121.5 13.8989,-121.5"/>
<text text-anchor="start" x="21.8989" y="-173.5" font-family="Helvetica,sans-Serif" font-size="10.00" fill="#000000">Swift_Plugins_Decorator</text>
<text text-anchor="middle" x="76.6475" y="-163.5" font-family="Helvetica,sans-Serif" font-size="10.00" fill="#000000">_Replacements</text>
<polyline fill="none" stroke="#000000" points="13.8989,-157.5 139.396,-157.5 "/>
<text text-anchor="middle" x="76.6475" y="-145.5" font-family="Helvetica,sans-Serif" font-size="10.00" fill="#000000"> </text>
<polyline fill="none" stroke="#000000" points="13.8989,-139.5 139.396,-139.5 "/>
<text text-anchor="start" x="21.8989" y="-127.5" font-family="Helvetica,sans-Serif" font-size="10.00" fill="#000000">+ getReplacementsFor()</text>
</g>
<!-- Node1 -->
<g id="node2" class="node">
<title>Node1</title>
<g id="a_node2"><a xlink:href="class_swift___plugins___decorator_plugin.html" target="_top" xlink:title="{Swift_Plugins_DecoratorPlugin\n||+ __construct()\l+ beforeSendPerformed()\l+ getReplacementsFor()\l+ sendPerformed()\l}">
<polygon fill="#ffffff" stroke="#000000" points="0,-.5 0,-84.5 153.2949,-84.5 153.2949,-.5 0,-.5"/>
<text text-anchor="middle" x="76.6475" y="-72.5" font-family="Helvetica,sans-Serif" font-size="10.00" fill="#000000">Swift_Plugins_DecoratorPlugin</text>
<polyline fill="none" stroke="#000000" points="0,-66.5 153.2949,-66.5 "/>
<text text-anchor="middle" x="76.6475" y="-54.5" font-family="Helvetica,sans-Serif" font-size="10.00" fill="#000000"> </text>
<polyline fill="none" stroke="#000000" points="0,-48.5 153.2949,-48.5 "/>
<text text-anchor="start" x="8" y="-36.5" font-family="Helvetica,sans-Serif" font-size="10.00" fill="#000000">+ __construct()</text>
<text text-anchor="start" x="8" y="-26.5" font-family="Helvetica,sans-Serif" font-size="10.00" fill="#000000">+ beforeSendPerformed()</text>
<text text-anchor="start" x="8" y="-16.5" font-family="Helvetica,sans-Serif" font-size="10.00" fill="#000000">+ getReplacementsFor()</text>
<text text-anchor="start" x="8" y="-6.5" font-family="Helvetica,sans-Serif" font-size="10.00" fill="#000000">+ sendPerformed()</text>
</a>
</g>
</g>
<!-- Node0&#45;&gt;Node1 -->
<g id="edge1" class="edge">
<title>Node0&#45;&gt;Node1</title>
<path fill="none" stroke="#191970" d="M76.6475,-111.1673C76.6475,-102.5509 76.6475,-93.4852 76.6475,-84.8676"/>
<polygon fill="none" stroke="#191970" points="73.1476,-111.3942 76.6475,-121.3942 80.1476,-111.3942 73.1476,-111.3942"/>
</g>
</g>
</svg>
