<?xml version="1.0" encoding="UTF-8" standalone="no"?>
<!DOCTYPE svg PUBLIC "-//W3C//DTD SVG 1.1//EN"
 "http://www.w3.org/Graphics/SVG/1.1/DTD/svg11.dtd">
<!-- Generated by graphviz version 2.40.1 (20161225.0304)
 -->
<!-- Title: Swift_Events_ResponseListener Pages: 1 -->
<svg width="168pt" height="154pt"
 viewBox="0.00 0.00 167.97 154.00" xmlns="http://www.w3.org/2000/svg" xmlns:xlink="http://www.w3.org/1999/xlink">
<g id="graph0" class="graph" transform="scale(1 1) rotate(0) translate(4 150)">
<title>Swift_Events_ResponseListener</title>
<polygon fill="#ffffff" stroke="transparent" points="-4,4 -4,-150 163.9697,-150 163.9697,4 -4,4"/>
<!-- Node5 -->
<g id="node1" class="node">
<title>Node5</title>
<polygon fill="#bfbfbf" stroke="#000000" points="0,-.5 0,-54.5 159.9697,-54.5 159.9697,-.5 0,-.5"/>
<text text-anchor="middle" x="79.9849" y="-42.5" font-family="Helvetica,sans-Serif" font-size="10.00" fill="#000000">Swift_Events_ResponseListener</text>
<polyline fill="none" stroke="#000000" points="0,-36.5 159.9697,-36.5 "/>
<text text-anchor="middle" x="79.9849" y="-24.5" font-family="Helvetica,sans-Serif" font-size="10.00" fill="#000000"> </text>
<polyline fill="none" stroke="#000000" points="0,-18.5 159.9697,-18.5 "/>
<text text-anchor="start" x="8" y="-6.5" font-family="Helvetica,sans-Serif" font-size="10.00" fill="#000000">+ responseReceived()</text>
</g>
<!-- Node6 -->
<g id="node2" class="node">
<title>Node6</title>
<g id="a_node2"><a xlink:href="interface_swift___events___event_listener.html" target="_top" xlink:title="{Swift_Events_EventListener\n||}">
<polygon fill="#ffffff" stroke="#000000" points="9.729,-91.5 9.729,-145.5 150.2407,-145.5 150.2407,-91.5 9.729,-91.5"/>
<text text-anchor="middle" x="79.9849" y="-133.5" font-family="Helvetica,sans-Serif" font-size="10.00" fill="#000000">Swift_Events_EventListener</text>
<polyline fill="none" stroke="#000000" points="9.729,-127.5 150.2407,-127.5 "/>
<text text-anchor="middle" x="79.9849" y="-115.5" font-family="Helvetica,sans-Serif" font-size="10.00" fill="#000000"> </text>
<polyline fill="none" stroke="#000000" points="9.729,-109.5 150.2407,-109.5 "/>
<text text-anchor="middle" x="79.9849" y="-97.5" font-family="Helvetica,sans-Serif" font-size="10.00" fill="#000000"> </text>
</a>
</g>
</g>
<!-- Node6&#45;&gt;Node5 -->
<g id="edge1" class="edge">
<title>Node6&#45;&gt;Node5</title>
<path fill="none" stroke="#191970" d="M79.9849,-81.12C79.9849,-72.3006 79.9849,-63.0605 79.9849,-54.7837"/>
<polygon fill="none" stroke="#191970" points="76.485,-81.197 79.9849,-91.197 83.485,-81.197 76.485,-81.197"/>
</g>
</g>
</svg>
