<?xml version="1.0" encoding="UTF-8" standalone="no"?>
<!DOCTYPE svg PUBLIC "-//W3C//DTD SVG 1.1//EN"
 "http://www.w3.org/Graphics/SVG/1.1/DTD/svg11.dtd">
<!-- Generated by graphviz version 2.40.1 (20161225.0304)
 -->
<!-- Title: Swift_Events_SendListener Pages: 1 -->
<svg width="677pt" height="516pt"
 viewBox="0.00 0.00 676.96 516.00" xmlns="http://www.w3.org/2000/svg" xmlns:xlink="http://www.w3.org/1999/xlink">
<g id="graph0" class="graph" transform="scale(1 1) rotate(0) translate(4 512)">
<title>Swift_Events_SendListener</title>
<polygon fill="#ffffff" stroke="transparent" points="-4,4 -4,-512 672.9648,-512 672.9648,4 -4,4"/>
<!-- Node0 -->
<g id="node1" class="node">
<title>Node0</title>
<polygon fill="#bfbfbf" stroke="#000000" points="268.6699,-352.5 268.6699,-416.5 406.9648,-416.5 406.9648,-352.5 268.6699,-352.5"/>
<text text-anchor="middle" x="337.8174" y="-404.5" font-family="Helvetica,sans-Serif" font-size="10.00" fill="#000000">Swift_Events_SendListener</text>
<polyline fill="none" stroke="#000000" points="268.6699,-398.5 406.9648,-398.5 "/>
<text text-anchor="middle" x="337.8174" y="-386.5" font-family="Helvetica,sans-Serif" font-size="10.00" fill="#000000"> </text>
<polyline fill="none" stroke="#000000" points="268.6699,-380.5 406.9648,-380.5 "/>
<text text-anchor="start" x="276.6699" y="-368.5" font-family="Helvetica,sans-Serif" font-size="10.00" fill="#000000">+ beforeSendPerformed()</text>
<text text-anchor="start" x="276.6699" y="-358.5" font-family="Helvetica,sans-Serif" font-size="10.00" fill="#000000">+ sendPerformed()</text>
</g>
<!-- Node2 -->
<g id="node3" class="node">
<title>Node2</title>
<g id="a_node3"><a xlink:href="class_swift___plugins___anti_flood_plugin.html" target="_top" xlink:title="{Swift_Plugins_AntiFloodPlugin\n||+ __construct()\l+ setThreshold()\l+ getThreshold()\l+ setSleepTime()\l+ getSleepTime()\l+ beforeSendPerformed()\l+ sendPerformed()\l+ sleep()\l}">
<polygon fill="#ffffff" stroke="#000000" points="0,-166.5 0,-290.5 151.6348,-290.5 151.6348,-166.5 0,-166.5"/>
<text text-anchor="middle" x="75.8174" y="-278.5" font-family="Helvetica,sans-Serif" font-size="10.00" fill="#000000">Swift_Plugins_AntiFloodPlugin</text>
<polyline fill="none" stroke="#000000" points="0,-272.5 151.6348,-272.5 "/>
<text text-anchor="middle" x="75.8174" y="-260.5" font-family="Helvetica,sans-Serif" font-size="10.00" fill="#000000"> </text>
<polyline fill="none" stroke="#000000" points="0,-254.5 151.6348,-254.5 "/>
<text text-anchor="start" x="8" y="-242.5" font-family="Helvetica,sans-Serif" font-size="10.00" fill="#000000">+ __construct()</text>
<text text-anchor="start" x="8" y="-232.5" font-family="Helvetica,sans-Serif" font-size="10.00" fill="#000000">+ setThreshold()</text>
<text text-anchor="start" x="8" y="-222.5" font-family="Helvetica,sans-Serif" font-size="10.00" fill="#000000">+ getThreshold()</text>
<text text-anchor="start" x="8" y="-212.5" font-family="Helvetica,sans-Serif" font-size="10.00" fill="#000000">+ setSleepTime()</text>
<text text-anchor="start" x="8" y="-202.5" font-family="Helvetica,sans-Serif" font-size="10.00" fill="#000000">+ getSleepTime()</text>
<text text-anchor="start" x="8" y="-192.5" font-family="Helvetica,sans-Serif" font-size="10.00" fill="#000000">+ beforeSendPerformed()</text>
<text text-anchor="start" x="8" y="-182.5" font-family="Helvetica,sans-Serif" font-size="10.00" fill="#000000">+ sendPerformed()</text>
<text text-anchor="start" x="8" y="-172.5" font-family="Helvetica,sans-Serif" font-size="10.00" fill="#000000">+ sleep()</text>
</a>
</g>
</g>
<!-- Node0&#45;&gt;Node2 -->
<g id="edge2" class="edge">
<title>Node0&#45;&gt;Node2</title>
<path fill="none" stroke="#191970" d="M258.7634,-362.0699C226.8323,-350.9818 190.5759,-335.6919 160.8174,-316 149.867,-308.7539 139.2351,-299.8853 129.4096,-290.6052"/>
<polygon fill="none" stroke="#191970" points="257.9279,-365.4822 268.5222,-365.3764 260.1742,-358.8525 257.9279,-365.4822"/>
</g>
<!-- Node3 -->
<g id="node4" class="node">
<title>Node3</title>
<g id="a_node4"><a xlink:href="class_swift___plugins___bandwidth_monitor_plugin.html" target="_top" xlink:title="{Swift_Plugins_BandwidthMonitor\lPlugin\n||+ beforeSendPerformed()\l+ sendPerformed()\l+ commandSent()\l+ responseReceived()\l+ write()\l+ commit()\l+ bind()\l+ unbind()\l+ flushBuffers()\l+ getBytesOut()\l+ getBytesIn()\l+ reset()\l}">
<polygon fill="#ffffff" stroke="#000000" points="170,-141.5 170,-315.5 331.6348,-315.5 331.6348,-141.5 170,-141.5"/>
<text text-anchor="start" x="178" y="-303.5" font-family="Helvetica,sans-Serif" font-size="10.00" fill="#000000">Swift_Plugins_BandwidthMonitor</text>
<text text-anchor="middle" x="250.8174" y="-293.5" font-family="Helvetica,sans-Serif" font-size="10.00" fill="#000000">Plugin</text>
<polyline fill="none" stroke="#000000" points="170,-287.5 331.6348,-287.5 "/>
<text text-anchor="middle" x="250.8174" y="-275.5" font-family="Helvetica,sans-Serif" font-size="10.00" fill="#000000"> </text>
<polyline fill="none" stroke="#000000" points="170,-269.5 331.6348,-269.5 "/>
<text text-anchor="start" x="178" y="-257.5" font-family="Helvetica,sans-Serif" font-size="10.00" fill="#000000">+ beforeSendPerformed()</text>
<text text-anchor="start" x="178" y="-247.5" font-family="Helvetica,sans-Serif" font-size="10.00" fill="#000000">+ sendPerformed()</text>
<text text-anchor="start" x="178" y="-237.5" font-family="Helvetica,sans-Serif" font-size="10.00" fill="#000000">+ commandSent()</text>
<text text-anchor="start" x="178" y="-227.5" font-family="Helvetica,sans-Serif" font-size="10.00" fill="#000000">+ responseReceived()</text>
<text text-anchor="start" x="178" y="-217.5" font-family="Helvetica,sans-Serif" font-size="10.00" fill="#000000">+ write()</text>
<text text-anchor="start" x="178" y="-207.5" font-family="Helvetica,sans-Serif" font-size="10.00" fill="#000000">+ commit()</text>
<text text-anchor="start" x="178" y="-197.5" font-family="Helvetica,sans-Serif" font-size="10.00" fill="#000000">+ bind()</text>
<text text-anchor="start" x="178" y="-187.5" font-family="Helvetica,sans-Serif" font-size="10.00" fill="#000000">+ unbind()</text>
<text text-anchor="start" x="178" y="-177.5" font-family="Helvetica,sans-Serif" font-size="10.00" fill="#000000">+ flushBuffers()</text>
<text text-anchor="start" x="178" y="-167.5" font-family="Helvetica,sans-Serif" font-size="10.00" fill="#000000">+ getBytesOut()</text>
<text text-anchor="start" x="178" y="-157.5" font-family="Helvetica,sans-Serif" font-size="10.00" fill="#000000">+ getBytesIn()</text>
<text text-anchor="start" x="178" y="-147.5" font-family="Helvetica,sans-Serif" font-size="10.00" fill="#000000">+ reset()</text>
</a>
</g>
</g>
<!-- Node0&#45;&gt;Node3 -->
<g id="edge3" class="edge">
<title>Node0&#45;&gt;Node3</title>
<path fill="none" stroke="#191970" d="M314.9049,-343.4156C310.0481,-334.7067 304.7462,-325.1999 299.3394,-315.5049"/>
<polygon fill="none" stroke="#191970" points="311.8634,-345.1478 319.7909,-352.1767 317.977,-341.7383 311.8634,-345.1478"/>
</g>
<!-- Node5 -->
<g id="node6" class="node">
<title>Node5</title>
<g id="a_node6"><a xlink:href="class_swift___plugins___decorator_plugin.html" target="_top" xlink:title="{Swift_Plugins_DecoratorPlugin\n||+ __construct()\l+ beforeSendPerformed()\l+ getReplacementsFor()\l+ sendPerformed()\l}">
<polygon fill="#ffffff" stroke="#000000" points="349.1699,-186.5 349.1699,-270.5 502.4648,-270.5 502.4648,-186.5 349.1699,-186.5"/>
<text text-anchor="middle" x="425.8174" y="-258.5" font-family="Helvetica,sans-Serif" font-size="10.00" fill="#000000">Swift_Plugins_DecoratorPlugin</text>
<polyline fill="none" stroke="#000000" points="349.1699,-252.5 502.4648,-252.5 "/>
<text text-anchor="middle" x="425.8174" y="-240.5" font-family="Helvetica,sans-Serif" font-size="10.00" fill="#000000"> </text>
<polyline fill="none" stroke="#000000" points="349.1699,-234.5 502.4648,-234.5 "/>
<text text-anchor="start" x="357.1699" y="-222.5" font-family="Helvetica,sans-Serif" font-size="10.00" fill="#000000">+ __construct()</text>
<text text-anchor="start" x="357.1699" y="-212.5" font-family="Helvetica,sans-Serif" font-size="10.00" fill="#000000">+ beforeSendPerformed()</text>
<text text-anchor="start" x="357.1699" y="-202.5" font-family="Helvetica,sans-Serif" font-size="10.00" fill="#000000">+ getReplacementsFor()</text>
<text text-anchor="start" x="357.1699" y="-192.5" font-family="Helvetica,sans-Serif" font-size="10.00" fill="#000000">+ sendPerformed()</text>
</a>
</g>
</g>
<!-- Node0&#45;&gt;Node5 -->
<g id="edge5" class="edge">
<title>Node0&#45;&gt;Node5</title>
<path fill="none" stroke="#191970" d="M361.0969,-343.2318C373.7499,-320.8015 389.3653,-293.1196 402.0876,-270.5665"/>
<polygon fill="none" stroke="#191970" points="357.9159,-341.7473 356.051,-352.1767 364.0127,-345.1865 357.9159,-341.7473"/>
</g>
<!-- Node6 -->
<g id="node7" class="node">
<title>Node6</title>
<g id="a_node7"><a xlink:href="class_swift___plugins___reporter_plugin.html" target="_top" xlink:title="{Swift_Plugins_ReporterPlugin\n||+ __construct()\l+ beforeSendPerformed()\l+ sendPerformed()\l}">
<polygon fill="#ffffff" stroke="#000000" points="520.6699,-191.5 520.6699,-265.5 668.9648,-265.5 668.9648,-191.5 520.6699,-191.5"/>
<text text-anchor="middle" x="594.8174" y="-253.5" font-family="Helvetica,sans-Serif" font-size="10.00" fill="#000000">Swift_Plugins_ReporterPlugin</text>
<polyline fill="none" stroke="#000000" points="520.6699,-247.5 668.9648,-247.5 "/>
<text text-anchor="middle" x="594.8174" y="-235.5" font-family="Helvetica,sans-Serif" font-size="10.00" fill="#000000"> </text>
<polyline fill="none" stroke="#000000" points="520.6699,-229.5 668.9648,-229.5 "/>
<text text-anchor="start" x="528.6699" y="-217.5" font-family="Helvetica,sans-Serif" font-size="10.00" fill="#000000">+ __construct()</text>
<text text-anchor="start" x="528.6699" y="-207.5" font-family="Helvetica,sans-Serif" font-size="10.00" fill="#000000">+ beforeSendPerformed()</text>
<text text-anchor="start" x="528.6699" y="-197.5" font-family="Helvetica,sans-Serif" font-size="10.00" fill="#000000">+ sendPerformed()</text>
</a>
</g>
</g>
<!-- Node0&#45;&gt;Node6 -->
<g id="edge6" class="edge">
<title>Node0&#45;&gt;Node6</title>
<path fill="none" stroke="#191970" d="M416.8225,-361.6188C447.9376,-350.5611 483.0356,-335.4137 511.8174,-316 532.1268,-302.301 551.209,-282.847 565.9435,-265.7598"/>
<polygon fill="none" stroke="#191970" points="415.6065,-358.336 407.3054,-364.9194 417.9002,-364.9495 415.6065,-358.336"/>
</g>
<!-- Node1 -->
<g id="node2" class="node">
<title>Node1</title>
<g id="a_node2"><a xlink:href="interface_swift___events___event_listener.html" target="_top" xlink:title="{Swift_Events_EventListener\n||}">
<polygon fill="#ffffff" stroke="#000000" points="267.5615,-453.5 267.5615,-507.5 408.0732,-507.5 408.0732,-453.5 267.5615,-453.5"/>
<text text-anchor="middle" x="337.8174" y="-495.5" font-family="Helvetica,sans-Serif" font-size="10.00" fill="#000000">Swift_Events_EventListener</text>
<polyline fill="none" stroke="#000000" points="267.5615,-489.5 408.0732,-489.5 "/>
<text text-anchor="middle" x="337.8174" y="-477.5" font-family="Helvetica,sans-Serif" font-size="10.00" fill="#000000"> </text>
<polyline fill="none" stroke="#000000" points="267.5615,-471.5 408.0732,-471.5 "/>
<text text-anchor="middle" x="337.8174" y="-459.5" font-family="Helvetica,sans-Serif" font-size="10.00" fill="#000000"> </text>
</a>
</g>
</g>
<!-- Node1&#45;&gt;Node0 -->
<g id="edge1" class="edge">
<title>Node1&#45;&gt;Node0</title>
<path fill="none" stroke="#191970" d="M337.8174,-443.2276C337.8174,-434.4295 337.8174,-425.1248 337.8174,-416.5792"/>
<polygon fill="none" stroke="#191970" points="334.3175,-443.247 337.8174,-453.247 341.3175,-443.2471 334.3175,-443.247"/>
</g>
<!-- Node4 -->
<g id="node5" class="node">
<title>Node4</title>
<g id="a_node5"><a xlink:href="class_swift___plugins___throttler_plugin.html" target="_top" xlink:title="{Swift_Plugins_ThrottlerPlugin\n|+ BYTES_PER_MINUTE\l+ MESSAGES_PER_MINUTE\l|+ __construct()\l+ beforeSendPerformed()\l+ sendPerformed()\l+ sleep()\l+ getTimestamp()\l}">
<polygon fill="#ffffff" stroke="#000000" points="175.437,-.5 175.437,-104.5 326.1978,-104.5 326.1978,-.5 175.437,-.5"/>
<text text-anchor="middle" x="250.8174" y="-92.5" font-family="Helvetica,sans-Serif" font-size="10.00" fill="#000000">Swift_Plugins_ThrottlerPlugin</text>
<polyline fill="none" stroke="#000000" points="175.437,-86.5 326.1978,-86.5 "/>
<text text-anchor="start" x="183.437" y="-74.5" font-family="Helvetica,sans-Serif" font-size="10.00" fill="#000000">+ BYTES_PER_MINUTE</text>
<text text-anchor="start" x="183.437" y="-64.5" font-family="Helvetica,sans-Serif" font-size="10.00" fill="#000000">+ MESSAGES_PER_MINUTE</text>
<polyline fill="none" stroke="#000000" points="175.437,-58.5 326.1978,-58.5 "/>
<text text-anchor="start" x="183.437" y="-46.5" font-family="Helvetica,sans-Serif" font-size="10.00" fill="#000000">+ __construct()</text>
<text text-anchor="start" x="183.437" y="-36.5" font-family="Helvetica,sans-Serif" font-size="10.00" fill="#000000">+ beforeSendPerformed()</text>
<text text-anchor="start" x="183.437" y="-26.5" font-family="Helvetica,sans-Serif" font-size="10.00" fill="#000000">+ sendPerformed()</text>
<text text-anchor="start" x="183.437" y="-16.5" font-family="Helvetica,sans-Serif" font-size="10.00" fill="#000000">+ sleep()</text>
<text text-anchor="start" x="183.437" y="-6.5" font-family="Helvetica,sans-Serif" font-size="10.00" fill="#000000">+ getTimestamp()</text>
</a>
</g>
</g>
<!-- Node3&#45;&gt;Node4 -->
<g id="edge4" class="edge">
<title>Node3&#45;&gt;Node4</title>
<path fill="none" stroke="#191970" d="M250.8174,-131.0787C250.8174,-122.081 250.8174,-113.2162 250.8174,-104.8665"/>
<polygon fill="none" stroke="#191970" points="247.3175,-131.2734 250.8174,-141.2734 254.3175,-131.2735 247.3175,-131.2734"/>
</g>
</g>
</svg>
