<?xml version="1.0" encoding="UTF-8" standalone="no"?>
<!DOCTYPE svg PUBLIC "-//W3C//DTD SVG 1.1//EN"
 "http://www.w3.org/Graphics/SVG/1.1/DTD/svg11.dtd">
<!-- Generated by graphviz version 2.40.1 (20161225.0304)
 -->
<!-- Title: Swift_Mime_HeaderSet Pages: 1 -->
<svg width="157pt" height="254pt"
 viewBox="0.00 0.00 157.37 254.00" xmlns="http://www.w3.org/2000/svg" xmlns:xlink="http://www.w3.org/1999/xlink">
<g id="graph0" class="graph" transform="scale(1 1) rotate(0) translate(4 250)">
<title>Swift_Mime_HeaderSet</title>
<polygon fill="#ffffff" stroke="transparent" points="-4,4 -4,-250 153.374,-250 153.374,4 -4,4"/>
<!-- Node3 -->
<g id="node1" class="node">
<title>Node3</title>
<polygon fill="#bfbfbf" stroke="#000000" points="1.792,-.5 1.792,-154.5 147.582,-154.5 147.582,-.5 1.792,-.5"/>
<text text-anchor="middle" x="74.687" y="-142.5" font-family="Helvetica,sans-Serif" font-size="10.00" fill="#000000">Swift_Mime_HeaderSet</text>
<polyline fill="none" stroke="#000000" points="1.792,-136.5 147.582,-136.5 "/>
<text text-anchor="middle" x="74.687" y="-124.5" font-family="Helvetica,sans-Serif" font-size="10.00" fill="#000000"> </text>
<polyline fill="none" stroke="#000000" points="1.792,-118.5 147.582,-118.5 "/>
<text text-anchor="start" x="9.792" y="-106.5" font-family="Helvetica,sans-Serif" font-size="10.00" fill="#000000">+ addMailboxHeader()</text>
<text text-anchor="start" x="9.792" y="-96.5" font-family="Helvetica,sans-Serif" font-size="10.00" fill="#000000">+ addDateHeader()</text>
<text text-anchor="start" x="9.792" y="-86.5" font-family="Helvetica,sans-Serif" font-size="10.00" fill="#000000">+ addTextHeader()</text>
<text text-anchor="start" x="9.792" y="-76.5" font-family="Helvetica,sans-Serif" font-size="10.00" fill="#000000">+ addParameterizedHeader()</text>
<text text-anchor="start" x="9.792" y="-66.5" font-family="Helvetica,sans-Serif" font-size="10.00" fill="#000000">+ addIdHeader()</text>
<text text-anchor="start" x="9.792" y="-56.5" font-family="Helvetica,sans-Serif" font-size="10.00" fill="#000000">+ addPathHeader()</text>
<text text-anchor="start" x="9.792" y="-46.5" font-family="Helvetica,sans-Serif" font-size="10.00" fill="#000000">+ has()</text>
<text text-anchor="start" x="9.792" y="-36.5" font-family="Helvetica,sans-Serif" font-size="10.00" fill="#000000">+ set()</text>
<text text-anchor="start" x="9.792" y="-26.5" font-family="Helvetica,sans-Serif" font-size="10.00" fill="#000000">+ get()</text>
<text text-anchor="start" x="9.792" y="-16.5" font-family="Helvetica,sans-Serif" font-size="10.00" fill="#000000">+ getAll()</text>
<text text-anchor="start" x="9.792" y="-6.5" font-family="Helvetica,sans-Serif" font-size="10.00" fill="#000000">і ще 6...</text>
</g>
<!-- Node4 -->
<g id="node2" class="node">
<title>Node4</title>
<g id="a_node2"><a xlink:href="interface_swift___mime___charset_observer.html" target="_top" xlink:title="{Swift_Mime_CharsetObserver\n||+ charsetChanged()\l}">
<polygon fill="#ffffff" stroke="#000000" points="0,-191.5 0,-245.5 149.374,-245.5 149.374,-191.5 0,-191.5"/>
<text text-anchor="middle" x="74.687" y="-233.5" font-family="Helvetica,sans-Serif" font-size="10.00" fill="#000000">Swift_Mime_CharsetObserver</text>
<polyline fill="none" stroke="#000000" points="0,-227.5 149.374,-227.5 "/>
<text text-anchor="middle" x="74.687" y="-215.5" font-family="Helvetica,sans-Serif" font-size="10.00" fill="#000000"> </text>
<polyline fill="none" stroke="#000000" points="0,-209.5 149.374,-209.5 "/>
<text text-anchor="start" x="8" y="-197.5" font-family="Helvetica,sans-Serif" font-size="10.00" fill="#000000">+ charsetChanged()</text>
</a>
</g>
</g>
<!-- Node4&#45;&gt;Node3 -->
<g id="edge1" class="edge">
<title>Node4&#45;&gt;Node3</title>
<path fill="none" stroke="#191970" d="M74.687,-181.0381C74.687,-172.845 74.687,-163.8826 74.687,-154.7679"/>
<polygon fill="none" stroke="#191970" points="71.1871,-181.3137 74.687,-191.3138 78.1871,-181.3138 71.1871,-181.3137"/>
</g>
</g>
</svg>
