<?xml version="1.0" encoding="UTF-8" standalone="no"?>
<!DOCTYPE svg PUBLIC "-//W3C//DTD SVG 1.1//EN"
 "http://www.w3.org/Graphics/SVG/1.1/DTD/svg11.dtd">
<!-- Generated by graphviz version 2.40.1 (20161225.0304)
 -->
<!-- Title: Swift_FileStream Pages: 1 -->
<svg width="133pt" height="164pt"
 viewBox="0.00 0.00 133.49 164.00" xmlns="http://www.w3.org/2000/svg" xmlns:xlink="http://www.w3.org/1999/xlink">
<g id="graph0" class="graph" transform="scale(1 1) rotate(0) translate(4 160)">
<title>Swift_FileStream</title>
<polygon fill="#ffffff" stroke="transparent" points="-4,4 -4,-160 129.4922,-160 129.4922,4 -4,4"/>
<!-- Node3 -->
<g id="node1" class="node">
<title>Node3</title>
<polygon fill="#bfbfbf" stroke="#000000" points="16.958,-.5 16.958,-54.5 108.5342,-54.5 108.5342,-.5 16.958,-.5"/>
<text text-anchor="middle" x="62.7461" y="-42.5" font-family="Helvetica,sans-Serif" font-size="10.00" fill="#000000">Swift_FileStream</text>
<polyline fill="none" stroke="#000000" points="16.958,-36.5 108.5342,-36.5 "/>
<text text-anchor="middle" x="62.7461" y="-24.5" font-family="Helvetica,sans-Serif" font-size="10.00" fill="#000000"> </text>
<polyline fill="none" stroke="#000000" points="16.958,-18.5 108.5342,-18.5 "/>
<text text-anchor="start" x="24.958" y="-6.5" font-family="Helvetica,sans-Serif" font-size="10.00" fill="#000000">+ getPath()</text>
</g>
<!-- Node4 -->
<g id="node2" class="node">
<title>Node4</title>
<g id="a_node2"><a xlink:href="interface_swift___output_byte_stream.html" target="_top" xlink:title="{Swift_OutputByteStream\n||+ read()\l+ setReadPointer()\l}">
<polygon fill="#ffffff" stroke="#000000" points="0,-91.5 0,-155.5 125.4922,-155.5 125.4922,-91.5 0,-91.5"/>
<text text-anchor="middle" x="62.7461" y="-143.5" font-family="Helvetica,sans-Serif" font-size="10.00" fill="#000000">Swift_OutputByteStream</text>
<polyline fill="none" stroke="#000000" points="0,-137.5 125.4922,-137.5 "/>
<text text-anchor="middle" x="62.7461" y="-125.5" font-family="Helvetica,sans-Serif" font-size="10.00" fill="#000000"> </text>
<polyline fill="none" stroke="#000000" points="0,-119.5 125.4922,-119.5 "/>
<text text-anchor="start" x="8" y="-107.5" font-family="Helvetica,sans-Serif" font-size="10.00" fill="#000000">+ read()</text>
<text text-anchor="start" x="8" y="-97.5" font-family="Helvetica,sans-Serif" font-size="10.00" fill="#000000">+ setReadPointer()</text>
</a>
</g>
</g>
<!-- Node4&#45;&gt;Node3 -->
<g id="edge1" class="edge">
<title>Node4&#45;&gt;Node3</title>
<path fill="none" stroke="#191970" d="M62.7461,-80.9788C62.7461,-72.0509 62.7461,-62.8669 62.7461,-54.6839"/>
<polygon fill="none" stroke="#191970" points="59.2462,-81.2663 62.7461,-91.2663 66.2462,-81.2664 59.2462,-81.2663"/>
</g>
</g>
</svg>
