<?xml version="1.0" encoding="UTF-8" standalone="no"?>
<!DOCTYPE svg PUBLIC "-//W3C//DTD SVG 1.1//EN"
 "http://www.w3.org/Graphics/SVG/1.1/DTD/svg11.dtd">
<!-- Generated by graphviz version 2.40.1 (20161225.0304)
 -->
<!-- Title: Swift_Events_TransportExceptionListener Pages: 1 -->
<svg width="174pt" height="355pt"
 viewBox="0.00 0.00 173.71 355.00" xmlns="http://www.w3.org/2000/svg" xmlns:xlink="http://www.w3.org/1999/xlink">
<g id="graph0" class="graph" transform="scale(1 1) rotate(0) translate(4 351)">
<title>Swift_Events_TransportExceptionListener</title>
<polygon fill="#ffffff" stroke="transparent" points="-4,4 -4,-351 169.707,-351 169.707,4 -4,4"/>
<!-- Node0 -->
<g id="node1" class="node">
<title>Node0</title>
<polygon fill="#bfbfbf" stroke="#000000" points="0,-191.5 0,-255.5 165.707,-255.5 165.707,-191.5 0,-191.5"/>
<text text-anchor="start" x="8" y="-243.5" font-family="Helvetica,sans-Serif" font-size="10.00" fill="#000000">Swift_Events_TransportException</text>
<text text-anchor="middle" x="82.8535" y="-233.5" font-family="Helvetica,sans-Serif" font-size="10.00" fill="#000000">Listener</text>
<polyline fill="none" stroke="#000000" points="0,-227.5 165.707,-227.5 "/>
<text text-anchor="middle" x="82.8535" y="-215.5" font-family="Helvetica,sans-Serif" font-size="10.00" fill="#000000"> </text>
<polyline fill="none" stroke="#000000" points="0,-209.5 165.707,-209.5 "/>
<text text-anchor="start" x="8" y="-197.5" font-family="Helvetica,sans-Serif" font-size="10.00" fill="#000000">+ exceptionThrown()</text>
</g>
<!-- Node2 -->
<g id="node3" class="node">
<title>Node2</title>
<g id="a_node3"><a xlink:href="class_swift___plugins___logger_plugin.html" target="_top" xlink:title="{Swift_Plugins_LoggerPlugin\n||+ __construct()\l+ add()\l+ clear()\l+ dump()\l+ commandSent()\l+ responseReceived()\l+ beforeTransportStarted()\l+ transportStarted()\l+ beforeTransportStopped()\l+ transportStopped()\l+ exceptionThrown()\l}">
<polygon fill="#ffffff" stroke="#000000" points="12.5903,-.5 12.5903,-154.5 153.1167,-154.5 153.1167,-.5 12.5903,-.5"/>
<text text-anchor="middle" x="82.8535" y="-142.5" font-family="Helvetica,sans-Serif" font-size="10.00" fill="#000000">Swift_Plugins_LoggerPlugin</text>
<polyline fill="none" stroke="#000000" points="12.5903,-136.5 153.1167,-136.5 "/>
<text text-anchor="middle" x="82.8535" y="-124.5" font-family="Helvetica,sans-Serif" font-size="10.00" fill="#000000"> </text>
<polyline fill="none" stroke="#000000" points="12.5903,-118.5 153.1167,-118.5 "/>
<text text-anchor="start" x="20.5903" y="-106.5" font-family="Helvetica,sans-Serif" font-size="10.00" fill="#000000">+ __construct()</text>
<text text-anchor="start" x="20.5903" y="-96.5" font-family="Helvetica,sans-Serif" font-size="10.00" fill="#000000">+ add()</text>
<text text-anchor="start" x="20.5903" y="-86.5" font-family="Helvetica,sans-Serif" font-size="10.00" fill="#000000">+ clear()</text>
<text text-anchor="start" x="20.5903" y="-76.5" font-family="Helvetica,sans-Serif" font-size="10.00" fill="#000000">+ dump()</text>
<text text-anchor="start" x="20.5903" y="-66.5" font-family="Helvetica,sans-Serif" font-size="10.00" fill="#000000">+ commandSent()</text>
<text text-anchor="start" x="20.5903" y="-56.5" font-family="Helvetica,sans-Serif" font-size="10.00" fill="#000000">+ responseReceived()</text>
<text text-anchor="start" x="20.5903" y="-46.5" font-family="Helvetica,sans-Serif" font-size="10.00" fill="#000000">+ beforeTransportStarted()</text>
<text text-anchor="start" x="20.5903" y="-36.5" font-family="Helvetica,sans-Serif" font-size="10.00" fill="#000000">+ transportStarted()</text>
<text text-anchor="start" x="20.5903" y="-26.5" font-family="Helvetica,sans-Serif" font-size="10.00" fill="#000000">+ beforeTransportStopped()</text>
<text text-anchor="start" x="20.5903" y="-16.5" font-family="Helvetica,sans-Serif" font-size="10.00" fill="#000000">+ transportStopped()</text>
<text text-anchor="start" x="20.5903" y="-6.5" font-family="Helvetica,sans-Serif" font-size="10.00" fill="#000000">+ exceptionThrown()</text>
</a>
</g>
</g>
<!-- Node0&#45;&gt;Node2 -->
<g id="edge2" class="edge">
<title>Node0&#45;&gt;Node2</title>
<path fill="none" stroke="#191970" d="M82.8535,-181.2248C82.8535,-172.8305 82.8535,-163.7732 82.8535,-154.6292"/>
<polygon fill="none" stroke="#191970" points="79.3536,-181.4596 82.8535,-191.4597 86.3536,-181.4597 79.3536,-181.4596"/>
</g>
<!-- Node1 -->
<g id="node2" class="node">
<title>Node1</title>
<g id="a_node2"><a xlink:href="interface_swift___events___event_listener.html" target="_top" xlink:title="{Swift_Events_EventListener\n||}">
<polygon fill="#ffffff" stroke="#000000" points="12.5977,-292.5 12.5977,-346.5 153.1094,-346.5 153.1094,-292.5 12.5977,-292.5"/>
<text text-anchor="middle" x="82.8535" y="-334.5" font-family="Helvetica,sans-Serif" font-size="10.00" fill="#000000">Swift_Events_EventListener</text>
<polyline fill="none" stroke="#000000" points="12.5977,-328.5 153.1094,-328.5 "/>
<text text-anchor="middle" x="82.8535" y="-316.5" font-family="Helvetica,sans-Serif" font-size="10.00" fill="#000000"> </text>
<polyline fill="none" stroke="#000000" points="12.5977,-310.5 153.1094,-310.5 "/>
<text text-anchor="middle" x="82.8535" y="-298.5" font-family="Helvetica,sans-Serif" font-size="10.00" fill="#000000"> </text>
</a>
</g>
</g>
<!-- Node1&#45;&gt;Node0 -->
<g id="edge1" class="edge">
<title>Node1&#45;&gt;Node0</title>
<path fill="none" stroke="#191970" d="M82.8535,-282.2276C82.8535,-273.4295 82.8535,-264.1248 82.8535,-255.5792"/>
<polygon fill="none" stroke="#191970" points="79.3536,-282.247 82.8535,-292.247 86.3536,-282.2471 79.3536,-282.247"/>
</g>
</g>
</svg>
