<?xml version="1.0" encoding="UTF-8" standalone="no"?>
<!DOCTYPE svg PUBLIC "-//W3C//DTD SVG 1.1//EN"
 "http://www.w3.org/Graphics/SVG/1.1/DTD/svg11.dtd">
<!-- Generated by graphviz version 2.40.1 (20161225.0304)
 -->
<!-- Title: Swift_Encoder Pages: 1 -->
<svg width="823pt" height="466pt"
 viewBox="0.00 0.00 823.39 466.00" xmlns="http://www.w3.org/2000/svg" xmlns:xlink="http://www.w3.org/1999/xlink">
<g id="graph0" class="graph" transform="scale(1 1) rotate(0) translate(4 462)">
<title>Swift_Encoder</title>
<polygon fill="#ffffff" stroke="transparent" points="-4,4 -4,-462 819.3936,-462 819.3936,4 -4,4"/>
<!-- Node0 -->
<g id="node1" class="node">
<title>Node0</title>
<polygon fill="#bfbfbf" stroke="#000000" points="373.6489,-312.5 373.6489,-366.5 463.8579,-366.5 463.8579,-312.5 373.6489,-312.5"/>
<text text-anchor="middle" x="418.7534" y="-354.5" font-family="Helvetica,sans-Serif" font-size="10.00" fill="#000000">Swift_Encoder</text>
<polyline fill="none" stroke="#000000" points="373.6489,-348.5 463.8579,-348.5 "/>
<text text-anchor="middle" x="418.7534" y="-336.5" font-family="Helvetica,sans-Serif" font-size="10.00" fill="#000000"> </text>
<polyline fill="none" stroke="#000000" points="373.6489,-330.5 463.8579,-330.5 "/>
<text text-anchor="start" x="381.6489" y="-318.5" font-family="Helvetica,sans-Serif" font-size="10.00" fill="#000000">+ encodeString()</text>
</g>
<!-- Node2 -->
<g id="node3" class="node">
<title>Node2</title>
<g id="a_node3"><a xlink:href="class_swift___encoder___base64_encoder.html" target="_top" xlink:title="{Swift_Encoder_Base64Encoder\n||+ encodeString()\l+ charsetChanged()\l}">
<polygon fill="#ffffff" stroke="#000000" points="163.1528,-176.5 163.1528,-240.5 320.354,-240.5 320.354,-176.5 163.1528,-176.5"/>
<text text-anchor="middle" x="241.7534" y="-228.5" font-family="Helvetica,sans-Serif" font-size="10.00" fill="#000000">Swift_Encoder_Base64Encoder</text>
<polyline fill="none" stroke="#000000" points="163.1528,-222.5 320.354,-222.5 "/>
<text text-anchor="middle" x="241.7534" y="-210.5" font-family="Helvetica,sans-Serif" font-size="10.00" fill="#000000"> </text>
<polyline fill="none" stroke="#000000" points="163.1528,-204.5 320.354,-204.5 "/>
<text text-anchor="start" x="171.1528" y="-192.5" font-family="Helvetica,sans-Serif" font-size="10.00" fill="#000000">+ encodeString()</text>
<text text-anchor="start" x="171.1528" y="-182.5" font-family="Helvetica,sans-Serif" font-size="10.00" fill="#000000">+ charsetChanged()</text>
</a>
</g>
</g>
<!-- Node0&#45;&gt;Node2 -->
<g id="edge2" class="edge">
<title>Node0&#45;&gt;Node2</title>
<path fill="none" stroke="#191970" d="M371.7019,-306.388C358.0972,-296.6903 343.2737,-286.004 329.7534,-276 314.43,-264.6618 297.7977,-251.9983 283.1606,-240.7302"/>
<polygon fill="none" stroke="#191970" points="369.8148,-309.3408 379.9927,-312.2836 373.8714,-303.636 369.8148,-309.3408"/>
</g>
<!-- Node5 -->
<g id="node6" class="node">
<title>Node5</title>
<g id="a_node6"><a xlink:href="class_swift___encoder___qp_encoder.html" target="_top" xlink:title="{Swift_Encoder_QpEncoder\n|# $_charStream\l# $_filter\l# $_qpMap\l# $_safeMap\l|+ __construct()\l+ encodeString()\l+ charsetChanged()\l# _encodeByteSequence()\l# _nextSequence()\l# _standardize()\l}">
<polygon fill="#ffffff" stroke="#000000" points="517.4409,-141.5 517.4409,-275.5 654.0659,-275.5 654.0659,-141.5 517.4409,-141.5"/>
<text text-anchor="middle" x="585.7534" y="-263.5" font-family="Helvetica,sans-Serif" font-size="10.00" fill="#000000">Swift_Encoder_QpEncoder</text>
<polyline fill="none" stroke="#000000" points="517.4409,-257.5 654.0659,-257.5 "/>
<text text-anchor="start" x="525.4409" y="-245.5" font-family="Helvetica,sans-Serif" font-size="10.00" fill="#000000"># $_charStream</text>
<text text-anchor="start" x="525.4409" y="-235.5" font-family="Helvetica,sans-Serif" font-size="10.00" fill="#000000"># $_filter</text>
<text text-anchor="start" x="525.4409" y="-225.5" font-family="Helvetica,sans-Serif" font-size="10.00" fill="#000000"># $_qpMap</text>
<text text-anchor="start" x="525.4409" y="-215.5" font-family="Helvetica,sans-Serif" font-size="10.00" fill="#000000"># $_safeMap</text>
<polyline fill="none" stroke="#000000" points="517.4409,-209.5 654.0659,-209.5 "/>
<text text-anchor="start" x="525.4409" y="-197.5" font-family="Helvetica,sans-Serif" font-size="10.00" fill="#000000">+ __construct()</text>
<text text-anchor="start" x="525.4409" y="-187.5" font-family="Helvetica,sans-Serif" font-size="10.00" fill="#000000">+ encodeString()</text>
<text text-anchor="start" x="525.4409" y="-177.5" font-family="Helvetica,sans-Serif" font-size="10.00" fill="#000000">+ charsetChanged()</text>
<text text-anchor="start" x="525.4409" y="-167.5" font-family="Helvetica,sans-Serif" font-size="10.00" fill="#000000"># _encodeByteSequence()</text>
<text text-anchor="start" x="525.4409" y="-157.5" font-family="Helvetica,sans-Serif" font-size="10.00" fill="#000000"># _nextSequence()</text>
<text text-anchor="start" x="525.4409" y="-147.5" font-family="Helvetica,sans-Serif" font-size="10.00" fill="#000000"># _standardize()</text>
</a>
</g>
</g>
<!-- Node0&#45;&gt;Node5 -->
<g id="edge5" class="edge">
<title>Node0&#45;&gt;Node5</title>
<path fill="none" stroke="#191970" d="M466.5731,-306.6224C480.0786,-297.0045 494.6578,-286.3015 507.7534,-276 510.85,-273.5641 513.9904,-271.0484 517.1442,-268.4846"/>
<polygon fill="none" stroke="#191970" points="464.4677,-303.8245 458.3256,-312.4574 468.5106,-309.539 464.4677,-303.8245"/>
</g>
<!-- Node8 -->
<g id="node9" class="node">
<title>Node8</title>
<g id="a_node9"><a xlink:href="class_swift___encoder___rfc2231_encoder.html" target="_top" xlink:title="{Swift_Encoder_Rfc2231Encoder\n||+ __construct()\l+ encodeString()\l+ charsetChanged()\l}">
<polygon fill="#ffffff" stroke="#000000" points="338.4878,-171.5 338.4878,-245.5 499.019,-245.5 499.019,-171.5 338.4878,-171.5"/>
<text text-anchor="middle" x="418.7534" y="-233.5" font-family="Helvetica,sans-Serif" font-size="10.00" fill="#000000">Swift_Encoder_Rfc2231Encoder</text>
<polyline fill="none" stroke="#000000" points="338.4878,-227.5 499.019,-227.5 "/>
<text text-anchor="middle" x="418.7534" y="-215.5" font-family="Helvetica,sans-Serif" font-size="10.00" fill="#000000"> </text>
<polyline fill="none" stroke="#000000" points="338.4878,-209.5 499.019,-209.5 "/>
<text text-anchor="start" x="346.4878" y="-197.5" font-family="Helvetica,sans-Serif" font-size="10.00" fill="#000000">+ __construct()</text>
<text text-anchor="start" x="346.4878" y="-187.5" font-family="Helvetica,sans-Serif" font-size="10.00" fill="#000000">+ encodeString()</text>
<text text-anchor="start" x="346.4878" y="-177.5" font-family="Helvetica,sans-Serif" font-size="10.00" fill="#000000">+ charsetChanged()</text>
</a>
</g>
</g>
<!-- Node0&#45;&gt;Node8 -->
<g id="edge8" class="edge">
<title>Node0&#45;&gt;Node8</title>
<path fill="none" stroke="#191970" d="M418.7534,-302.3365C418.7534,-284.5515 418.7534,-263.3136 418.7534,-245.5441"/>
<polygon fill="none" stroke="#191970" points="415.2535,-302.3567 418.7534,-312.3567 422.2535,-302.3568 415.2535,-302.3567"/>
</g>
<!-- Node9 -->
<g id="node10" class="node">
<title>Node9</title>
<g id="a_node10"><a xlink:href="interface_swift___mime___content_encoder.html" target="_top" xlink:title="{Swift_Mime_ContentEncoder\n||+ encodeByteStream()\l+ getName()\l}">
<polygon fill="#ffffff" stroke="#000000" points="0,-176.5 0,-240.5 145.5068,-240.5 145.5068,-176.5 0,-176.5"/>
<text text-anchor="middle" x="72.7534" y="-228.5" font-family="Helvetica,sans-Serif" font-size="10.00" fill="#000000">Swift_Mime_ContentEncoder</text>
<polyline fill="none" stroke="#000000" points="0,-222.5 145.5068,-222.5 "/>
<text text-anchor="middle" x="72.7534" y="-210.5" font-family="Helvetica,sans-Serif" font-size="10.00" fill="#000000"> </text>
<polyline fill="none" stroke="#000000" points="0,-204.5 145.5068,-204.5 "/>
<text text-anchor="start" x="8" y="-192.5" font-family="Helvetica,sans-Serif" font-size="10.00" fill="#000000">+ encodeByteStream()</text>
<text text-anchor="start" x="8" y="-182.5" font-family="Helvetica,sans-Serif" font-size="10.00" fill="#000000">+ getName()</text>
</a>
</g>
</g>
<!-- Node0&#45;&gt;Node9 -->
<g id="edge9" class="edge">
<title>Node0&#45;&gt;Node9</title>
<path fill="none" stroke="#191970" d="M363.49,-333.7325C308.0556,-326.2683 221.429,-309.9491 153.7534,-276 135.7553,-266.9713 118.2691,-253.239 104.178,-240.5123"/>
<polygon fill="none" stroke="#191970" points="363.0993,-337.211 373.4662,-335.0254 363.999,-330.2691 363.0993,-337.211"/>
</g>
<!-- Node11 -->
<g id="node12" class="node">
<title>Node11</title>
<g id="a_node12"><a xlink:href="interface_swift___mime___header_encoder.html" target="_top" xlink:title="{Swift_Mime_HeaderEncoder\n||+ getName()\l}">
<polygon fill="#ffffff" stroke="#000000" points="672.1133,-181.5 672.1133,-235.5 815.3936,-235.5 815.3936,-181.5 672.1133,-181.5"/>
<text text-anchor="middle" x="743.7534" y="-223.5" font-family="Helvetica,sans-Serif" font-size="10.00" fill="#000000">Swift_Mime_HeaderEncoder</text>
<polyline fill="none" stroke="#000000" points="672.1133,-217.5 815.3936,-217.5 "/>
<text text-anchor="middle" x="743.7534" y="-205.5" font-family="Helvetica,sans-Serif" font-size="10.00" fill="#000000"> </text>
<polyline fill="none" stroke="#000000" points="672.1133,-199.5 815.3936,-199.5 "/>
<text text-anchor="start" x="680.1133" y="-187.5" font-family="Helvetica,sans-Serif" font-size="10.00" fill="#000000">+ getName()</text>
</a>
</g>
</g>
<!-- Node0&#45;&gt;Node11 -->
<g id="edge13" class="edge">
<title>Node0&#45;&gt;Node11</title>
<path fill="none" stroke="#191970" d="M474.2475,-332.1757C525.3903,-323.8115 602.2904,-307.0691 662.7534,-276 682.9425,-265.6258 702.5776,-249.4648 717.4586,-235.557"/>
<polygon fill="none" stroke="#191970" points="473.3884,-328.768 464.0578,-333.787 474.4818,-335.682 473.3884,-328.768"/>
</g>
<!-- Node1 -->
<g id="node2" class="node">
<title>Node1</title>
<g id="a_node2"><a xlink:href="interface_swift___mime___charset_observer.html" target="_top" xlink:title="{Swift_Mime_CharsetObserver\n||+ charsetChanged()\l}">
<polygon fill="#ffffff" stroke="#000000" points="344.0664,-403.5 344.0664,-457.5 493.4404,-457.5 493.4404,-403.5 344.0664,-403.5"/>
<text text-anchor="middle" x="418.7534" y="-445.5" font-family="Helvetica,sans-Serif" font-size="10.00" fill="#000000">Swift_Mime_CharsetObserver</text>
<polyline fill="none" stroke="#000000" points="344.0664,-439.5 493.4404,-439.5 "/>
<text text-anchor="middle" x="418.7534" y="-427.5" font-family="Helvetica,sans-Serif" font-size="10.00" fill="#000000"> </text>
<polyline fill="none" stroke="#000000" points="344.0664,-421.5 493.4404,-421.5 "/>
<text text-anchor="start" x="352.0664" y="-409.5" font-family="Helvetica,sans-Serif" font-size="10.00" fill="#000000">+ charsetChanged()</text>
</a>
</g>
</g>
<!-- Node1&#45;&gt;Node0 -->
<g id="edge1" class="edge">
<title>Node1&#45;&gt;Node0</title>
<path fill="none" stroke="#191970" d="M418.7534,-393.12C418.7534,-384.3006 418.7534,-375.0605 418.7534,-366.7837"/>
<polygon fill="none" stroke="#191970" points="415.2535,-393.197 418.7534,-403.197 422.2535,-393.197 415.2535,-393.197"/>
</g>
<!-- Node3 -->
<g id="node4" class="node">
<title>Node3</title>
<g id="a_node4"><a xlink:href="class_swift___mime___content_encoder___base64_content_encoder.html" target="_top" xlink:title="{Swift_Mime_ContentEncoder\l_Base64ContentEncoder\n||+ encodeByteStream()\l+ getName()\l}">
<polygon fill="#ffffff" stroke="#000000" points="166,-15.5 166,-89.5 311.5068,-89.5 311.5068,-15.5 166,-15.5"/>
<text text-anchor="start" x="174" y="-77.5" font-family="Helvetica,sans-Serif" font-size="10.00" fill="#000000">Swift_Mime_ContentEncoder</text>
<text text-anchor="middle" x="238.7534" y="-67.5" font-family="Helvetica,sans-Serif" font-size="10.00" fill="#000000">_Base64ContentEncoder</text>
<polyline fill="none" stroke="#000000" points="166,-61.5 311.5068,-61.5 "/>
<text text-anchor="middle" x="238.7534" y="-49.5" font-family="Helvetica,sans-Serif" font-size="10.00" fill="#000000"> </text>
<polyline fill="none" stroke="#000000" points="166,-43.5 311.5068,-43.5 "/>
<text text-anchor="start" x="174" y="-31.5" font-family="Helvetica,sans-Serif" font-size="10.00" fill="#000000">+ encodeByteStream()</text>
<text text-anchor="start" x="174" y="-21.5" font-family="Helvetica,sans-Serif" font-size="10.00" fill="#000000">+ getName()</text>
</a>
</g>
</g>
<!-- Node2&#45;&gt;Node3 -->
<g id="edge3" class="edge">
<title>Node2&#45;&gt;Node3</title>
<path fill="none" stroke="#191970" d="M240.936,-165.9953C240.4773,-142.1393 239.9102,-112.6526 239.4691,-89.7141"/>
<polygon fill="none" stroke="#191970" points="237.4401,-166.2459 241.1318,-176.1767 244.4388,-166.1112 237.4401,-166.2459"/>
</g>
<!-- Node4 -->
<g id="node5" class="node">
<title>Node4</title>
<g id="a_node5"><a xlink:href="class_swift___mime___header_encoder___base64_header_encoder.html" target="_top" xlink:title="{Swift_Mime_HeaderEncoder\l_Base64HeaderEncoder\n||+ getName()\l}">
<polygon fill="#ffffff" stroke="#000000" points="506.1133,-20.5 506.1133,-84.5 649.3936,-84.5 649.3936,-20.5 506.1133,-20.5"/>
<text text-anchor="start" x="514.1133" y="-72.5" font-family="Helvetica,sans-Serif" font-size="10.00" fill="#000000">Swift_Mime_HeaderEncoder</text>
<text text-anchor="middle" x="577.7534" y="-62.5" font-family="Helvetica,sans-Serif" font-size="10.00" fill="#000000">_Base64HeaderEncoder</text>
<polyline fill="none" stroke="#000000" points="506.1133,-56.5 649.3936,-56.5 "/>
<text text-anchor="middle" x="577.7534" y="-44.5" font-family="Helvetica,sans-Serif" font-size="10.00" fill="#000000"> </text>
<polyline fill="none" stroke="#000000" points="506.1133,-38.5 649.3936,-38.5 "/>
<text text-anchor="start" x="514.1133" y="-26.5" font-family="Helvetica,sans-Serif" font-size="10.00" fill="#000000">+ getName()</text>
</a>
</g>
</g>
<!-- Node2&#45;&gt;Node4 -->
<g id="edge4" class="edge">
<title>Node2&#45;&gt;Node4</title>
<path fill="none" stroke="#191970" d="M284.0707,-170.0655C297.8237,-159.2753 313.6986,-148.4644 329.7534,-141 397.4216,-109.5388 424.6575,-133.1878 493.7534,-105 506.9698,-99.6084 520.446,-92.1942 532.6244,-84.6357"/>
<polygon fill="none" stroke="#191970" points="281.8169,-167.3868 276.2331,-176.3908 286.2131,-172.8341 281.8169,-167.3868"/>
</g>
<!-- Node6 -->
<g id="node7" class="node">
<title>Node6</title>
<g id="a_node7"><a xlink:href="class_swift___mime___content_encoder___qp_content_encoder.html" target="_top" xlink:title="{Swift_Mime_ContentEncoder\l_QpContentEncoder\n||+ __construct()\l+ encodeByteStream()\l+ getName()\l}">
<polygon fill="#ffffff" stroke="#000000" points="339,-10.5 339,-94.5 484.5068,-94.5 484.5068,-10.5 339,-10.5"/>
<text text-anchor="start" x="347" y="-82.5" font-family="Helvetica,sans-Serif" font-size="10.00" fill="#000000">Swift_Mime_ContentEncoder</text>
<text text-anchor="middle" x="411.7534" y="-72.5" font-family="Helvetica,sans-Serif" font-size="10.00" fill="#000000">_QpContentEncoder</text>
<polyline fill="none" stroke="#000000" points="339,-66.5 484.5068,-66.5 "/>
<text text-anchor="middle" x="411.7534" y="-54.5" font-family="Helvetica,sans-Serif" font-size="10.00" fill="#000000"> </text>
<polyline fill="none" stroke="#000000" points="339,-48.5 484.5068,-48.5 "/>
<text text-anchor="start" x="347" y="-36.5" font-family="Helvetica,sans-Serif" font-size="10.00" fill="#000000">+ __construct()</text>
<text text-anchor="start" x="347" y="-26.5" font-family="Helvetica,sans-Serif" font-size="10.00" fill="#000000">+ encodeByteStream()</text>
<text text-anchor="start" x="347" y="-16.5" font-family="Helvetica,sans-Serif" font-size="10.00" fill="#000000">+ getName()</text>
</a>
</g>
</g>
<!-- Node5&#45;&gt;Node6 -->
<g id="edge6" class="edge">
<title>Node5&#45;&gt;Node6</title>
<path fill="none" stroke="#191970" d="M509.1289,-139.8022C491.927,-124.3798 474.1762,-108.4652 458.6183,-94.5168"/>
<polygon fill="none" stroke="#191970" points="507.2019,-142.7752 516.984,-146.8447 511.8747,-137.5632 507.2019,-142.7752"/>
</g>
<!-- Node7 -->
<g id="node8" class="node">
<title>Node7</title>
<g id="a_node8"><a xlink:href="class_swift___mime___header_encoder___qp_header_encoder.html" target="_top" xlink:title="{Swift_Mime_HeaderEncoder\l_QpHeaderEncoder\n||+ __construct()\l+ getName()\l+ encodeString()\l# _encodeByteSequence()\l}">
<polygon fill="#ffffff" stroke="#000000" points="669.1133,-5.5 669.1133,-99.5 812.3936,-99.5 812.3936,-5.5 669.1133,-5.5"/>
<text text-anchor="start" x="677.1133" y="-87.5" font-family="Helvetica,sans-Serif" font-size="10.00" fill="#000000">Swift_Mime_HeaderEncoder</text>
<text text-anchor="middle" x="740.7534" y="-77.5" font-family="Helvetica,sans-Serif" font-size="10.00" fill="#000000">_QpHeaderEncoder</text>
<polyline fill="none" stroke="#000000" points="669.1133,-71.5 812.3936,-71.5 "/>
<text text-anchor="middle" x="740.7534" y="-59.5" font-family="Helvetica,sans-Serif" font-size="10.00" fill="#000000"> </text>
<polyline fill="none" stroke="#000000" points="669.1133,-53.5 812.3936,-53.5 "/>
<text text-anchor="start" x="677.1133" y="-41.5" font-family="Helvetica,sans-Serif" font-size="10.00" fill="#000000">+ __construct()</text>
<text text-anchor="start" x="677.1133" y="-31.5" font-family="Helvetica,sans-Serif" font-size="10.00" fill="#000000">+ getName()</text>
<text text-anchor="start" x="677.1133" y="-21.5" font-family="Helvetica,sans-Serif" font-size="10.00" fill="#000000">+ encodeString()</text>
<text text-anchor="start" x="677.1133" y="-11.5" font-family="Helvetica,sans-Serif" font-size="10.00" fill="#000000"># _encodeByteSequence()</text>
</a>
</g>
</g>
<!-- Node5&#45;&gt;Node7 -->
<g id="edge7" class="edge">
<title>Node5&#45;&gt;Node7</title>
<path fill="none" stroke="#191970" d="M659.6123,-134.1646C671.2545,-122.4473 683.0066,-110.6193 693.8145,-99.7417"/>
<polygon fill="none" stroke="#191970" points="656.9524,-131.8759 652.3869,-141.4366 661.9181,-136.8097 656.9524,-131.8759"/>
</g>
<!-- Node9&#45;&gt;Node3 -->
<g id="edge10" class="edge">
<title>Node9&#45;&gt;Node3</title>
<path fill="none" stroke="#191970" d="M114.605,-169.1696C140.54,-144.797 173.6503,-113.6813 199.1538,-89.7141"/>
<polygon fill="none" stroke="#191970" points="112.039,-166.778 107.1487,-176.1767 116.8328,-171.879 112.039,-166.778"/>
</g>
<!-- Node9&#45;&gt;Node6 -->
<g id="edge12" class="edge">
<title>Node9&#45;&gt;Node6</title>
<path fill="none" stroke="#191970" d="M111.6248,-169.6526C124.1862,-158.9593 138.7642,-148.306 153.7534,-141 222.0049,-107.7332 249.9042,-132.3006 320.7534,-105 328.4973,-102.016 336.3631,-98.4343 344.0629,-94.5616"/>
<polygon fill="none" stroke="#191970" points="109.2783,-167.0552 104.0785,-176.2863 113.8999,-172.3127 109.2783,-167.0552"/>
</g>
<!-- Node10 -->
<g id="node11" class="node">
<title>Node10</title>
<g id="a_node11"><a xlink:href="class_swift___mime___content_encoder___plain_content_encoder.html" target="_top" xlink:title="{Swift_Mime_ContentEncoder\l_PlainContentEncoder\n||+ __construct()\l+ encodeString()\l+ encodeByteStream()\l+ getName()\l+ charsetChanged()\l}">
<polygon fill="#ffffff" stroke="#000000" points="0,-.5 0,-104.5 145.5068,-104.5 145.5068,-.5 0,-.5"/>
<text text-anchor="start" x="8" y="-92.5" font-family="Helvetica,sans-Serif" font-size="10.00" fill="#000000">Swift_Mime_ContentEncoder</text>
<text text-anchor="middle" x="72.7534" y="-82.5" font-family="Helvetica,sans-Serif" font-size="10.00" fill="#000000">_PlainContentEncoder</text>
<polyline fill="none" stroke="#000000" points="0,-76.5 145.5068,-76.5 "/>
<text text-anchor="middle" x="72.7534" y="-64.5" font-family="Helvetica,sans-Serif" font-size="10.00" fill="#000000"> </text>
<polyline fill="none" stroke="#000000" points="0,-58.5 145.5068,-58.5 "/>
<text text-anchor="start" x="8" y="-46.5" font-family="Helvetica,sans-Serif" font-size="10.00" fill="#000000">+ __construct()</text>
<text text-anchor="start" x="8" y="-36.5" font-family="Helvetica,sans-Serif" font-size="10.00" fill="#000000">+ encodeString()</text>
<text text-anchor="start" x="8" y="-26.5" font-family="Helvetica,sans-Serif" font-size="10.00" fill="#000000">+ encodeByteStream()</text>
<text text-anchor="start" x="8" y="-16.5" font-family="Helvetica,sans-Serif" font-size="10.00" fill="#000000">+ getName()</text>
<text text-anchor="start" x="8" y="-6.5" font-family="Helvetica,sans-Serif" font-size="10.00" fill="#000000">+ charsetChanged()</text>
</a>
</g>
</g>
<!-- Node9&#45;&gt;Node10 -->
<g id="edge11" class="edge">
<title>Node9&#45;&gt;Node10</title>
<path fill="none" stroke="#191970" d="M72.7534,-166.0704C72.7534,-147.1516 72.7534,-124.68 72.7534,-104.7389"/>
<polygon fill="none" stroke="#191970" points="69.2535,-166.1767 72.7534,-176.1767 76.2535,-166.1767 69.2535,-166.1767"/>
</g>
<!-- Node11&#45;&gt;Node4 -->
<g id="edge14" class="edge">
<title>Node11&#45;&gt;Node4</title>
<path fill="none" stroke="#191970" d="M707.5068,-174.4369C679.1331,-147.7725 639.9412,-110.9416 612.0732,-84.7523"/>
<polygon fill="none" stroke="#191970" points="705.1544,-177.0292 714.8384,-181.3269 709.9481,-171.9282 705.1544,-177.0292"/>
</g>
<!-- Node11&#45;&gt;Node7 -->
<g id="edge15" class="edge">
<title>Node11&#45;&gt;Node7</title>
<path fill="none" stroke="#191970" d="M743.0376,-171.2752C742.624,-149.7687 742.0997,-122.5086 741.6578,-99.5299"/>
<polygon fill="none" stroke="#191970" points="739.5391,-171.3961 743.2309,-181.3269 746.5378,-171.2614 739.5391,-171.3961"/>
</g>
</g>
</svg>
