<?xml version="1.0" encoding="UTF-8" standalone="no"?>
<!DOCTYPE svg PUBLIC "-//W3C//DTD SVG 1.1//EN"
 "http://www.w3.org/Graphics/SVG/1.1/DTD/svg11.dtd">
<!-- Generated by graphviz version 2.40.1 (20161225.0304)
 -->
<!-- Title: Swift_FileStream Pages: 1 -->
<svg width="145pt" height="315pt"
 viewBox="0.00 0.00 145.16 315.00" xmlns="http://www.w3.org/2000/svg" xmlns:xlink="http://www.w3.org/1999/xlink">
<g id="graph0" class="graph" transform="scale(1 1) rotate(0) translate(4 311)">
<title>Swift_FileStream</title>
<polygon fill="#ffffff" stroke="transparent" points="-4,4 -4,-311 141.1572,-311 141.1572,4 -4,4"/>
<!-- Node0 -->
<g id="node1" class="node">
<title>Node0</title>
<polygon fill="#bfbfbf" stroke="#000000" points="22.7905,-151.5 22.7905,-205.5 114.3667,-205.5 114.3667,-151.5 22.7905,-151.5"/>
<text text-anchor="middle" x="68.5786" y="-193.5" font-family="Helvetica,sans-Serif" font-size="10.00" fill="#000000">Swift_FileStream</text>
<polyline fill="none" stroke="#000000" points="22.7905,-187.5 114.3667,-187.5 "/>
<text text-anchor="middle" x="68.5786" y="-175.5" font-family="Helvetica,sans-Serif" font-size="10.00" fill="#000000"> </text>
<polyline fill="none" stroke="#000000" points="22.7905,-169.5 114.3667,-169.5 "/>
<text text-anchor="start" x="30.7905" y="-157.5" font-family="Helvetica,sans-Serif" font-size="10.00" fill="#000000">+ getPath()</text>
</g>
<!-- Node2 -->
<g id="node3" class="node">
<title>Node2</title>
<g id="a_node3"><a xlink:href="class_swift___byte_stream___file_byte_stream.html" target="_top" xlink:title="{Swift_ByteStream_FileByte\lStream\n||+ __construct()\l+ getPath()\l+ read()\l+ setReadPointer()\l# _commit()\l# _flush()\l}">
<polygon fill="#ffffff" stroke="#000000" points="0,-.5 0,-114.5 137.1572,-114.5 137.1572,-.5 0,-.5"/>
<text text-anchor="start" x="8" y="-102.5" font-family="Helvetica,sans-Serif" font-size="10.00" fill="#000000">Swift_ByteStream_FileByte</text>
<text text-anchor="middle" x="68.5786" y="-92.5" font-family="Helvetica,sans-Serif" font-size="10.00" fill="#000000">Stream</text>
<polyline fill="none" stroke="#000000" points="0,-86.5 137.1572,-86.5 "/>
<text text-anchor="middle" x="68.5786" y="-74.5" font-family="Helvetica,sans-Serif" font-size="10.00" fill="#000000"> </text>
<polyline fill="none" stroke="#000000" points="0,-68.5 137.1572,-68.5 "/>
<text text-anchor="start" x="8" y="-56.5" font-family="Helvetica,sans-Serif" font-size="10.00" fill="#000000">+ __construct()</text>
<text text-anchor="start" x="8" y="-46.5" font-family="Helvetica,sans-Serif" font-size="10.00" fill="#000000">+ getPath()</text>
<text text-anchor="start" x="8" y="-36.5" font-family="Helvetica,sans-Serif" font-size="10.00" fill="#000000">+ read()</text>
<text text-anchor="start" x="8" y="-26.5" font-family="Helvetica,sans-Serif" font-size="10.00" fill="#000000">+ setReadPointer()</text>
<text text-anchor="start" x="8" y="-16.5" font-family="Helvetica,sans-Serif" font-size="10.00" fill="#000000"># _commit()</text>
<text text-anchor="start" x="8" y="-6.5" font-family="Helvetica,sans-Serif" font-size="10.00" fill="#000000"># _flush()</text>
</a>
</g>
</g>
<!-- Node0&#45;&gt;Node2 -->
<g id="edge2" class="edge">
<title>Node0&#45;&gt;Node2</title>
<path fill="none" stroke="#191970" d="M68.5786,-141.172C68.5786,-132.7988 68.5786,-123.728 68.5786,-114.7528"/>
<polygon fill="none" stroke="#191970" points="65.0787,-141.3452 68.5786,-151.3452 72.0787,-141.3453 65.0787,-141.3452"/>
</g>
<!-- Node1 -->
<g id="node2" class="node">
<title>Node1</title>
<g id="a_node2"><a xlink:href="interface_swift___output_byte_stream.html" target="_top" xlink:title="{Swift_OutputByteStream\n||+ read()\l+ setReadPointer()\l}">
<polygon fill="#ffffff" stroke="#000000" points="5.8325,-242.5 5.8325,-306.5 131.3247,-306.5 131.3247,-242.5 5.8325,-242.5"/>
<text text-anchor="middle" x="68.5786" y="-294.5" font-family="Helvetica,sans-Serif" font-size="10.00" fill="#000000">Swift_OutputByteStream</text>
<polyline fill="none" stroke="#000000" points="5.8325,-288.5 131.3247,-288.5 "/>
<text text-anchor="middle" x="68.5786" y="-276.5" font-family="Helvetica,sans-Serif" font-size="10.00" fill="#000000"> </text>
<polyline fill="none" stroke="#000000" points="5.8325,-270.5 131.3247,-270.5 "/>
<text text-anchor="start" x="13.8325" y="-258.5" font-family="Helvetica,sans-Serif" font-size="10.00" fill="#000000">+ read()</text>
<text text-anchor="start" x="13.8325" y="-248.5" font-family="Helvetica,sans-Serif" font-size="10.00" fill="#000000">+ setReadPointer()</text>
</a>
</g>
</g>
<!-- Node1&#45;&gt;Node0 -->
<g id="edge1" class="edge">
<title>Node1&#45;&gt;Node0</title>
<path fill="none" stroke="#191970" d="M68.5786,-231.9788C68.5786,-223.0509 68.5786,-213.8669 68.5786,-205.6839"/>
<polygon fill="none" stroke="#191970" points="65.0787,-232.2663 68.5786,-242.2663 72.0787,-232.2664 65.0787,-232.2663"/>
</g>
</g>
</svg>
