<?xml version="1.0" encoding="UTF-8" standalone="no"?>
<!DOCTYPE svg PUBLIC "-//W3C//DTD SVG 1.1//EN"
 "http://www.w3.org/Graphics/SVG/1.1/DTD/svg11.dtd">
<!-- Generated by graphviz version 2.40.1 (20161225.0304)
 -->
<!-- Title: Swift_Events_TransportExceptionListener Pages: 1 -->
<svg width="174pt" height="164pt"
 viewBox="0.00 0.00 173.71 164.00" xmlns="http://www.w3.org/2000/svg" xmlns:xlink="http://www.w3.org/1999/xlink">
<g id="graph0" class="graph" transform="scale(1 1) rotate(0) translate(4 160)">
<title>Swift_Events_TransportExceptionListener</title>
<polygon fill="#ffffff" stroke="transparent" points="-4,4 -4,-160 169.707,-160 169.707,4 -4,4"/>
<!-- Node3 -->
<g id="node1" class="node">
<title>Node3</title>
<polygon fill="#bfbfbf" stroke="#000000" points="0,-.5 0,-64.5 165.707,-64.5 165.707,-.5 0,-.5"/>
<text text-anchor="start" x="8" y="-52.5" font-family="Helvetica,sans-Serif" font-size="10.00" fill="#000000">Swift_Events_TransportException</text>
<text text-anchor="middle" x="82.8535" y="-42.5" font-family="Helvetica,sans-Serif" font-size="10.00" fill="#000000">Listener</text>
<polyline fill="none" stroke="#000000" points="0,-36.5 165.707,-36.5 "/>
<text text-anchor="middle" x="82.8535" y="-24.5" font-family="Helvetica,sans-Serif" font-size="10.00" fill="#000000"> </text>
<polyline fill="none" stroke="#000000" points="0,-18.5 165.707,-18.5 "/>
<text text-anchor="start" x="8" y="-6.5" font-family="Helvetica,sans-Serif" font-size="10.00" fill="#000000">+ exceptionThrown()</text>
</g>
<!-- Node4 -->
<g id="node2" class="node">
<title>Node4</title>
<g id="a_node2"><a xlink:href="interface_swift___events___event_listener.html" target="_top" xlink:title="{Swift_Events_EventListener\n||}">
<polygon fill="#ffffff" stroke="#000000" points="12.5977,-101.5 12.5977,-155.5 153.1094,-155.5 153.1094,-101.5 12.5977,-101.5"/>
<text text-anchor="middle" x="82.8535" y="-143.5" font-family="Helvetica,sans-Serif" font-size="10.00" fill="#000000">Swift_Events_EventListener</text>
<polyline fill="none" stroke="#000000" points="12.5977,-137.5 153.1094,-137.5 "/>
<text text-anchor="middle" x="82.8535" y="-125.5" font-family="Helvetica,sans-Serif" font-size="10.00" fill="#000000"> </text>
<polyline fill="none" stroke="#000000" points="12.5977,-119.5 153.1094,-119.5 "/>
<text text-anchor="middle" x="82.8535" y="-107.5" font-family="Helvetica,sans-Serif" font-size="10.00" fill="#000000"> </text>
</a>
</g>
</g>
<!-- Node4&#45;&gt;Node3 -->
<g id="edge1" class="edge">
<title>Node4&#45;&gt;Node3</title>
<path fill="none" stroke="#191970" d="M82.8535,-91.2276C82.8535,-82.4295 82.8535,-73.1248 82.8535,-64.5792"/>
<polygon fill="none" stroke="#191970" points="79.3536,-91.247 82.8535,-101.247 86.3536,-91.2471 79.3536,-91.247"/>
</g>
</g>
</svg>
