<?xml version="1.0" encoding="UTF-8" standalone="no"?>
<!DOCTYPE svg PUBLIC "-//W3C//DTD SVG 1.1//EN"
 "http://www.w3.org/Graphics/SVG/1.1/DTD/svg11.dtd">
<!-- Generated by graphviz version 2.40.1 (20161225.0304)
 -->
<!-- Title: Swift_Transport_Esmtp_Authenticator Pages: 1 -->
<svg width="455pt" height="194pt"
 viewBox="0.00 0.00 454.69 194.00" xmlns="http://www.w3.org/2000/svg" xmlns:xlink="http://www.w3.org/1999/xlink">
<g id="graph0" class="graph" transform="scale(1 1) rotate(0) translate(4 190)">
<title>Swift_Transport_Esmtp_Authenticator</title>
<polygon fill="#ffffff" stroke="transparent" points="-4,4 -4,-190 450.6865,-190 450.6865,4 -4,4"/>
<!-- Node0 -->
<g id="node1" class="node">
<title>Node0</title>
<polygon fill="#bfbfbf" stroke="#000000" points="174.4785,-111.5 174.4785,-185.5 294.0381,-185.5 294.0381,-111.5 174.4785,-111.5"/>
<text text-anchor="start" x="182.4785" y="-173.5" font-family="Helvetica,sans-Serif" font-size="10.00" fill="#000000">Swift_Transport_Esmtp</text>
<text text-anchor="middle" x="234.2583" y="-163.5" font-family="Helvetica,sans-Serif" font-size="10.00" fill="#000000">_Authenticator</text>
<polyline fill="none" stroke="#000000" points="174.4785,-157.5 294.0381,-157.5 "/>
<text text-anchor="middle" x="234.2583" y="-145.5" font-family="Helvetica,sans-Serif" font-size="10.00" fill="#000000"> </text>
<polyline fill="none" stroke="#000000" points="174.4785,-139.5 294.0381,-139.5 "/>
<text text-anchor="start" x="182.4785" y="-127.5" font-family="Helvetica,sans-Serif" font-size="10.00" fill="#000000">+ getAuthKeyword()</text>
<text text-anchor="start" x="182.4785" y="-117.5" font-family="Helvetica,sans-Serif" font-size="10.00" fill="#000000">+ authenticate()</text>
</g>
<!-- Node1 -->
<g id="node2" class="node">
<title>Node1</title>
<g id="a_node2"><a xlink:href="class_swift___transport___esmtp___auth___cram_md5_authenticator.html" target="_top" xlink:title="{Swift_Transport_Esmtp\l_Auth_CramMd5Authenticator\n||+ getAuthKeyword()\l+ authenticate()\l}">
<polygon fill="#ffffff" stroke="#000000" points="0,-.5 0,-74.5 150.5166,-74.5 150.5166,-.5 0,-.5"/>
<text text-anchor="start" x="8" y="-62.5" font-family="Helvetica,sans-Serif" font-size="10.00" fill="#000000">Swift_Transport_Esmtp</text>
<text text-anchor="middle" x="75.2583" y="-52.5" font-family="Helvetica,sans-Serif" font-size="10.00" fill="#000000">_Auth_CramMd5Authenticator</text>
<polyline fill="none" stroke="#000000" points="0,-46.5 150.5166,-46.5 "/>
<text text-anchor="middle" x="75.2583" y="-34.5" font-family="Helvetica,sans-Serif" font-size="10.00" fill="#000000"> </text>
<polyline fill="none" stroke="#000000" points="0,-28.5 150.5166,-28.5 "/>
<text text-anchor="start" x="8" y="-16.5" font-family="Helvetica,sans-Serif" font-size="10.00" fill="#000000">+ getAuthKeyword()</text>
<text text-anchor="start" x="8" y="-6.5" font-family="Helvetica,sans-Serif" font-size="10.00" fill="#000000">+ authenticate()</text>
</a>
</g>
</g>
<!-- Node0&#45;&gt;Node1 -->
<g id="edge1" class="edge">
<title>Node0&#45;&gt;Node1</title>
<path fill="none" stroke="#191970" d="M172.4409,-105.3445C157.9337,-95.2168 142.5989,-84.5114 128.5044,-74.6718"/>
<polygon fill="none" stroke="#191970" points="170.6682,-108.3754 180.8713,-111.2298 174.6752,-102.6357 170.6682,-108.3754"/>
</g>
<!-- Node2 -->
<g id="node3" class="node">
<title>Node2</title>
<g id="a_node3"><a xlink:href="class_swift___transport___esmtp___auth___login_authenticator.html" target="_top" xlink:title="{Swift_Transport_Esmtp\l_Auth_LoginAuthenticator\n||+ getAuthKeyword()\l+ authenticate()\l}">
<polygon fill="#ffffff" stroke="#000000" points="168.7144,-.5 168.7144,-74.5 299.8022,-74.5 299.8022,-.5 168.7144,-.5"/>
<text text-anchor="start" x="176.7144" y="-62.5" font-family="Helvetica,sans-Serif" font-size="10.00" fill="#000000">Swift_Transport_Esmtp</text>
<text text-anchor="middle" x="234.2583" y="-52.5" font-family="Helvetica,sans-Serif" font-size="10.00" fill="#000000">_Auth_LoginAuthenticator</text>
<polyline fill="none" stroke="#000000" points="168.7144,-46.5 299.8022,-46.5 "/>
<text text-anchor="middle" x="234.2583" y="-34.5" font-family="Helvetica,sans-Serif" font-size="10.00" fill="#000000"> </text>
<polyline fill="none" stroke="#000000" points="168.7144,-28.5 299.8022,-28.5 "/>
<text text-anchor="start" x="176.7144" y="-16.5" font-family="Helvetica,sans-Serif" font-size="10.00" fill="#000000">+ getAuthKeyword()</text>
<text text-anchor="start" x="176.7144" y="-6.5" font-family="Helvetica,sans-Serif" font-size="10.00" fill="#000000">+ authenticate()</text>
</a>
</g>
</g>
<!-- Node0&#45;&gt;Node2 -->
<g id="edge2" class="edge">
<title>Node0&#45;&gt;Node2</title>
<path fill="none" stroke="#191970" d="M234.2583,-101.1104C234.2583,-92.336 234.2583,-83.2851 234.2583,-74.8608"/>
<polygon fill="none" stroke="#191970" points="230.7584,-101.2298 234.2583,-111.2298 237.7584,-101.2299 230.7584,-101.2298"/>
</g>
<!-- Node3 -->
<g id="node4" class="node">
<title>Node3</title>
<g id="a_node4"><a xlink:href="class_swift___transport___esmtp___auth___plain_authenticator.html" target="_top" xlink:title="{Swift_Transport_Esmtp\l_Auth_PlainAuthenticator\n||+ getAuthKeyword()\l+ authenticate()\l}">
<polygon fill="#ffffff" stroke="#000000" points="317.8301,-.5 317.8301,-74.5 446.6865,-74.5 446.6865,-.5 317.8301,-.5"/>
<text text-anchor="start" x="325.8301" y="-62.5" font-family="Helvetica,sans-Serif" font-size="10.00" fill="#000000">Swift_Transport_Esmtp</text>
<text text-anchor="middle" x="382.2583" y="-52.5" font-family="Helvetica,sans-Serif" font-size="10.00" fill="#000000">_Auth_PlainAuthenticator</text>
<polyline fill="none" stroke="#000000" points="317.8301,-46.5 446.6865,-46.5 "/>
<text text-anchor="middle" x="382.2583" y="-34.5" font-family="Helvetica,sans-Serif" font-size="10.00" fill="#000000"> </text>
<polyline fill="none" stroke="#000000" points="317.8301,-28.5 446.6865,-28.5 "/>
<text text-anchor="start" x="325.8301" y="-16.5" font-family="Helvetica,sans-Serif" font-size="10.00" fill="#000000">+ getAuthKeyword()</text>
<text text-anchor="start" x="325.8301" y="-6.5" font-family="Helvetica,sans-Serif" font-size="10.00" fill="#000000">+ authenticate()</text>
</a>
</g>
</g>
<!-- Node0&#45;&gt;Node3 -->
<g id="edge3" class="edge">
<title>Node0&#45;&gt;Node3</title>
<path fill="none" stroke="#191970" d="M292.1778,-105.0604C305.5693,-95.0167 319.6991,-84.4194 332.6959,-74.6718"/>
<polygon fill="none" stroke="#191970" points="289.8519,-102.4298 283.9519,-111.2298 294.0519,-108.0298 289.8519,-102.4298"/>
</g>
</g>
</svg>
