<?xml version="1.0" encoding="UTF-8" standalone="no"?>
<!DOCTYPE svg PUBLIC "-//W3C//DTD SVG 1.1//EN"
 "http://www.w3.org/Graphics/SVG/1.1/DTD/svg11.dtd">
<!-- Generated by graphviz version 2.40.1 (20161225.0304)
 -->
<!-- Title: Swift_Mime_ContentEncoder Pages: 1 -->
<svg width="157pt" height="255pt"
 viewBox="0.00 0.00 157.37 255.00" xmlns="http://www.w3.org/2000/svg" xmlns:xlink="http://www.w3.org/1999/xlink">
<g id="graph0" class="graph" transform="scale(1 1) rotate(0) translate(4 251)">
<title>Swift_Mime_ContentEncoder</title>
<polygon fill="#ffffff" stroke="transparent" points="-4,4 -4,-251 153.374,-251 153.374,4 -4,4"/>
<!-- Node6 -->
<g id="node1" class="node">
<title>Node6</title>
<polygon fill="#bfbfbf" stroke="#000000" points="1.9336,-.5 1.9336,-64.5 147.4404,-64.5 147.4404,-.5 1.9336,-.5"/>
<text text-anchor="middle" x="74.687" y="-52.5" font-family="Helvetica,sans-Serif" font-size="10.00" fill="#000000">Swift_Mime_ContentEncoder</text>
<polyline fill="none" stroke="#000000" points="1.9336,-46.5 147.4404,-46.5 "/>
<text text-anchor="middle" x="74.687" y="-34.5" font-family="Helvetica,sans-Serif" font-size="10.00" fill="#000000"> </text>
<polyline fill="none" stroke="#000000" points="1.9336,-28.5 147.4404,-28.5 "/>
<text text-anchor="start" x="9.9336" y="-16.5" font-family="Helvetica,sans-Serif" font-size="10.00" fill="#000000">+ encodeByteStream()</text>
<text text-anchor="start" x="9.9336" y="-6.5" font-family="Helvetica,sans-Serif" font-size="10.00" fill="#000000">+ getName()</text>
</g>
<!-- Node7 -->
<g id="node2" class="node">
<title>Node7</title>
<g id="a_node2"><a xlink:href="interface_swift___encoder.html" target="_top" xlink:title="{Swift_Encoder\n||+ encodeString()\l}">
<polygon fill="#ffffff" stroke="#000000" points="29.5825,-101.5 29.5825,-155.5 119.7915,-155.5 119.7915,-101.5 29.5825,-101.5"/>
<text text-anchor="middle" x="74.687" y="-143.5" font-family="Helvetica,sans-Serif" font-size="10.00" fill="#000000">Swift_Encoder</text>
<polyline fill="none" stroke="#000000" points="29.5825,-137.5 119.7915,-137.5 "/>
<text text-anchor="middle" x="74.687" y="-125.5" font-family="Helvetica,sans-Serif" font-size="10.00" fill="#000000"> </text>
<polyline fill="none" stroke="#000000" points="29.5825,-119.5 119.7915,-119.5 "/>
<text text-anchor="start" x="37.5825" y="-107.5" font-family="Helvetica,sans-Serif" font-size="10.00" fill="#000000">+ encodeString()</text>
</a>
</g>
</g>
<!-- Node7&#45;&gt;Node6 -->
<g id="edge1" class="edge">
<title>Node7&#45;&gt;Node6</title>
<path fill="none" stroke="#191970" d="M74.687,-91.2276C74.687,-82.4295 74.687,-73.1248 74.687,-64.5792"/>
<polygon fill="none" stroke="#191970" points="71.1871,-91.247 74.687,-101.247 78.1871,-91.2471 71.1871,-91.247"/>
</g>
<!-- Node8 -->
<g id="node3" class="node">
<title>Node8</title>
<g id="a_node3"><a xlink:href="interface_swift___mime___charset_observer.html" target="_top" xlink:title="{Swift_Mime_CharsetObserver\n||+ charsetChanged()\l}">
<polygon fill="#ffffff" stroke="#000000" points="0,-192.5 0,-246.5 149.374,-246.5 149.374,-192.5 0,-192.5"/>
<text text-anchor="middle" x="74.687" y="-234.5" font-family="Helvetica,sans-Serif" font-size="10.00" fill="#000000">Swift_Mime_CharsetObserver</text>
<polyline fill="none" stroke="#000000" points="0,-228.5 149.374,-228.5 "/>
<text text-anchor="middle" x="74.687" y="-216.5" font-family="Helvetica,sans-Serif" font-size="10.00" fill="#000000"> </text>
<polyline fill="none" stroke="#000000" points="0,-210.5 149.374,-210.5 "/>
<text text-anchor="start" x="8" y="-198.5" font-family="Helvetica,sans-Serif" font-size="10.00" fill="#000000">+ charsetChanged()</text>
</a>
</g>
</g>
<!-- Node8&#45;&gt;Node7 -->
<g id="edge2" class="edge">
<title>Node8&#45;&gt;Node7</title>
<path fill="none" stroke="#191970" d="M74.687,-182.12C74.687,-173.3006 74.687,-164.0605 74.687,-155.7837"/>
<polygon fill="none" stroke="#191970" points="71.1871,-182.197 74.687,-192.197 78.1871,-182.197 71.1871,-182.197"/>
</g>
</g>
</svg>
