<?xml version="1.0" encoding="UTF-8" standalone="no"?>
<!DOCTYPE svg PUBLIC "-//W3C//DTD SVG 1.1//EN"
 "http://www.w3.org/Graphics/SVG/1.1/DTD/svg11.dtd">
<!-- Generated by graphviz version 2.40.1 (20161225.0304)
 -->
<!-- Title: Swift_Events_EventListener Pages: 1 -->
<svg width="1208pt" height="556pt"
 viewBox="0.00 0.00 1208.00 556.00" xmlns="http://www.w3.org/2000/svg" xmlns:xlink="http://www.w3.org/1999/xlink">
<g id="graph0" class="graph" transform="scale(1 1) rotate(0) translate(4 552)">
<title>Swift_Events_EventListener</title>
<polygon fill="#ffffff" stroke="transparent" points="-4,4 -4,-552 1204.001,-552 1204.001,4 -4,4"/>
<!-- Node0 -->
<g id="node1" class="node">
<title>Node0</title>
<polygon fill="#bfbfbf" stroke="#000000" points="372.5977,-493.5 372.5977,-547.5 513.1094,-547.5 513.1094,-493.5 372.5977,-493.5"/>
<text text-anchor="middle" x="442.8535" y="-535.5" font-family="Helvetica,sans-Serif" font-size="10.00" fill="#000000">Swift_Events_EventListener</text>
<polyline fill="none" stroke="#000000" points="372.5977,-529.5 513.1094,-529.5 "/>
<text text-anchor="middle" x="442.8535" y="-517.5" font-family="Helvetica,sans-Serif" font-size="10.00" fill="#000000"> </text>
<polyline fill="none" stroke="#000000" points="372.5977,-511.5 513.1094,-511.5 "/>
<text text-anchor="middle" x="442.8535" y="-499.5" font-family="Helvetica,sans-Serif" font-size="10.00" fill="#000000"> </text>
</g>
<!-- Node1 -->
<g id="node2" class="node">
<title>Node1</title>
<g id="a_node2"><a xlink:href="interface_swift___events___command_listener.html" target="_top" xlink:title="{Swift_Events_CommandListener\n||+ commandSent()\l}">
<polygon fill="#ffffff" stroke="#000000" points="362.3193,-382.5 362.3193,-436.5 523.3877,-436.5 523.3877,-382.5 362.3193,-382.5"/>
<text text-anchor="middle" x="442.8535" y="-424.5" font-family="Helvetica,sans-Serif" font-size="10.00" fill="#000000">Swift_Events_CommandListener</text>
<polyline fill="none" stroke="#000000" points="362.3193,-418.5 523.3877,-418.5 "/>
<text text-anchor="middle" x="442.8535" y="-406.5" font-family="Helvetica,sans-Serif" font-size="10.00" fill="#000000"> </text>
<polyline fill="none" stroke="#000000" points="362.3193,-400.5 523.3877,-400.5 "/>
<text text-anchor="start" x="370.3193" y="-388.5" font-family="Helvetica,sans-Serif" font-size="10.00" fill="#000000">+ commandSent()</text>
</a>
</g>
</g>
<!-- Node0&#45;&gt;Node1 -->
<g id="edge1" class="edge">
<title>Node0&#45;&gt;Node1</title>
<path fill="none" stroke="#191970" d="M442.8535,-483.2125C442.8535,-468.0069 442.8535,-450.75 442.8535,-436.758"/>
<polygon fill="none" stroke="#191970" points="439.3536,-483.3463 442.8535,-493.3463 446.3536,-483.3464 439.3536,-483.3463"/>
</g>
<!-- Node5 -->
<g id="node6" class="node">
<title>Node5</title>
<g id="a_node6"><a xlink:href="interface_swift___events___response_listener.html" target="_top" xlink:title="{Swift_Events_ResponseListener\n||+ responseReceived()\l}">
<polygon fill="#ffffff" stroke="#000000" points="183.8687,-382.5 183.8687,-436.5 343.8384,-436.5 343.8384,-382.5 183.8687,-382.5"/>
<text text-anchor="middle" x="263.8535" y="-424.5" font-family="Helvetica,sans-Serif" font-size="10.00" fill="#000000">Swift_Events_ResponseListener</text>
<polyline fill="none" stroke="#000000" points="183.8687,-418.5 343.8384,-418.5 "/>
<text text-anchor="middle" x="263.8535" y="-406.5" font-family="Helvetica,sans-Serif" font-size="10.00" fill="#000000"> </text>
<polyline fill="none" stroke="#000000" points="183.8687,-400.5 343.8384,-400.5 "/>
<text text-anchor="start" x="191.8687" y="-388.5" font-family="Helvetica,sans-Serif" font-size="10.00" fill="#000000">+ responseReceived()</text>
</a>
</g>
</g>
<!-- Node0&#45;&gt;Node5 -->
<g id="edge5" class="edge">
<title>Node0&#45;&gt;Node5</title>
<path fill="none" stroke="#191970" d="M390.3494,-487.9416C364.0127,-471.6099 332.4891,-452.0617 307.4996,-436.5655"/>
<polygon fill="none" stroke="#191970" points="388.722,-491.0507 399.0652,-493.3463 392.4111,-485.1017 388.722,-491.0507"/>
</g>
<!-- Node6 -->
<g id="node7" class="node">
<title>Node6</title>
<g id="a_node7"><a xlink:href="interface_swift___events___send_listener.html" target="_top" xlink:title="{Swift_Events_SendListener\n||+ beforeSendPerformed()\l+ sendPerformed()\l}">
<polygon fill="#ffffff" stroke="#000000" points="717.7061,-377.5 717.7061,-441.5 856.001,-441.5 856.001,-377.5 717.7061,-377.5"/>
<text text-anchor="middle" x="786.8535" y="-429.5" font-family="Helvetica,sans-Serif" font-size="10.00" fill="#000000">Swift_Events_SendListener</text>
<polyline fill="none" stroke="#000000" points="717.7061,-423.5 856.001,-423.5 "/>
<text text-anchor="middle" x="786.8535" y="-411.5" font-family="Helvetica,sans-Serif" font-size="10.00" fill="#000000"> </text>
<polyline fill="none" stroke="#000000" points="717.7061,-405.5 856.001,-405.5 "/>
<text text-anchor="start" x="725.7061" y="-393.5" font-family="Helvetica,sans-Serif" font-size="10.00" fill="#000000">+ beforeSendPerformed()</text>
<text text-anchor="start" x="725.7061" y="-383.5" font-family="Helvetica,sans-Serif" font-size="10.00" fill="#000000">+ sendPerformed()</text>
</a>
</g>
</g>
<!-- Node0&#45;&gt;Node6 -->
<g id="edge8" class="edge">
<title>Node0&#45;&gt;Node6</title>
<path fill="none" stroke="#191970" d="M523.3588,-507.6273C576.677,-497.5424 647.464,-481.1302 706.8535,-457 717.3287,-452.7439 728.0567,-447.2639 738.1161,-441.5475"/>
<polygon fill="none" stroke="#191970" points="522.4687,-504.2327 513.2753,-509.4987 523.7461,-511.1151 522.4687,-504.2327"/>
</g>
<!-- Node10 -->
<g id="node11" class="node">
<title>Node10</title>
<g id="a_node11"><a xlink:href="interface_swift___events___transport_change_listener.html" target="_top" xlink:title="{Swift_Events_TransportChange\lListener\n||+ beforeTransportStarted()\l+ transportStarted()\l+ beforeTransportStopped()\l+ transportStopped()\l}">
<polygon fill="#ffffff" stroke="#000000" points="541.4434,-362.5 541.4434,-456.5 698.2637,-456.5 698.2637,-362.5 541.4434,-362.5"/>
<text text-anchor="start" x="549.4434" y="-444.5" font-family="Helvetica,sans-Serif" font-size="10.00" fill="#000000">Swift_Events_TransportChange</text>
<text text-anchor="middle" x="619.8535" y="-434.5" font-family="Helvetica,sans-Serif" font-size="10.00" fill="#000000">Listener</text>
<polyline fill="none" stroke="#000000" points="541.4434,-428.5 698.2637,-428.5 "/>
<text text-anchor="middle" x="619.8535" y="-416.5" font-family="Helvetica,sans-Serif" font-size="10.00" fill="#000000"> </text>
<polyline fill="none" stroke="#000000" points="541.4434,-410.5 698.2637,-410.5 "/>
<text text-anchor="start" x="549.4434" y="-398.5" font-family="Helvetica,sans-Serif" font-size="10.00" fill="#000000">+ beforeTransportStarted()</text>
<text text-anchor="start" x="549.4434" y="-388.5" font-family="Helvetica,sans-Serif" font-size="10.00" fill="#000000">+ transportStarted()</text>
<text text-anchor="start" x="549.4434" y="-378.5" font-family="Helvetica,sans-Serif" font-size="10.00" fill="#000000">+ beforeTransportStopped()</text>
<text text-anchor="start" x="549.4434" y="-368.5" font-family="Helvetica,sans-Serif" font-size="10.00" fill="#000000">+ transportStopped()</text>
</a>
</g>
</g>
<!-- Node0&#45;&gt;Node10 -->
<g id="edge13" class="edge">
<title>Node0&#45;&gt;Node10</title>
<path fill="none" stroke="#191970" d="M494.6271,-488.0318C510.2538,-478.232 527.7376,-467.2676 544.569,-456.7123"/>
<polygon fill="none" stroke="#191970" points="492.765,-485.0682 486.1526,-493.3463 496.484,-490.9986 492.765,-485.0682"/>
</g>
<!-- Node12 -->
<g id="node13" class="node">
<title>Node12</title>
<g id="a_node13"><a xlink:href="interface_swift___events___transport_exception_listener.html" target="_top" xlink:title="{Swift_Events_TransportException\lListener\n||+ exceptionThrown()\l}">
<polygon fill="#ffffff" stroke="#000000" points="0,-377.5 0,-441.5 165.707,-441.5 165.707,-377.5 0,-377.5"/>
<text text-anchor="start" x="8" y="-429.5" font-family="Helvetica,sans-Serif" font-size="10.00" fill="#000000">Swift_Events_TransportException</text>
<text text-anchor="middle" x="82.8535" y="-419.5" font-family="Helvetica,sans-Serif" font-size="10.00" fill="#000000">Listener</text>
<polyline fill="none" stroke="#000000" points="0,-413.5 165.707,-413.5 "/>
<text text-anchor="middle" x="82.8535" y="-401.5" font-family="Helvetica,sans-Serif" font-size="10.00" fill="#000000"> </text>
<polyline fill="none" stroke="#000000" points="0,-395.5 165.707,-395.5 "/>
<text text-anchor="start" x="8" y="-383.5" font-family="Helvetica,sans-Serif" font-size="10.00" fill="#000000">+ exceptionThrown()</text>
</a>
</g>
</g>
<!-- Node0&#45;&gt;Node12 -->
<g id="edge16" class="edge">
<title>Node0&#45;&gt;Node12</title>
<path fill="none" stroke="#191970" d="M362.4766,-506.7786C308.4433,-496.2704 236.1683,-479.7038 174.8535,-457 163.2222,-452.6931 151.1774,-447.2572 139.7869,-441.6137"/>
<polygon fill="none" stroke="#191970" points="361.8667,-510.2253 372.3468,-508.6703 363.1844,-503.3505 361.8667,-510.2253"/>
</g>
<!-- Node2 -->
<g id="node3" class="node">
<title>Node2</title>
<g id="a_node3"><a xlink:href="class_swift___plugins___bandwidth_monitor_plugin.html" target="_top" xlink:title="{Swift_Plugins_BandwidthMonitor\lPlugin\n||+ beforeSendPerformed()\l+ sendPerformed()\l+ commandSent()\l+ responseReceived()\l+ write()\l+ commit()\l+ bind()\l+ unbind()\l+ flushBuffers()\l+ getBytesOut()\l+ getBytesIn()\l+ reset()\l}">
<polygon fill="#ffffff" stroke="#000000" points="361.0361,-146.5 361.0361,-320.5 522.6709,-320.5 522.6709,-146.5 361.0361,-146.5"/>
<text text-anchor="start" x="369.0361" y="-308.5" font-family="Helvetica,sans-Serif" font-size="10.00" fill="#000000">Swift_Plugins_BandwidthMonitor</text>
<text text-anchor="middle" x="441.8535" y="-298.5" font-family="Helvetica,sans-Serif" font-size="10.00" fill="#000000">Plugin</text>
<polyline fill="none" stroke="#000000" points="361.0361,-292.5 522.6709,-292.5 "/>
<text text-anchor="middle" x="441.8535" y="-280.5" font-family="Helvetica,sans-Serif" font-size="10.00" fill="#000000"> </text>
<polyline fill="none" stroke="#000000" points="361.0361,-274.5 522.6709,-274.5 "/>
<text text-anchor="start" x="369.0361" y="-262.5" font-family="Helvetica,sans-Serif" font-size="10.00" fill="#000000">+ beforeSendPerformed()</text>
<text text-anchor="start" x="369.0361" y="-252.5" font-family="Helvetica,sans-Serif" font-size="10.00" fill="#000000">+ sendPerformed()</text>
<text text-anchor="start" x="369.0361" y="-242.5" font-family="Helvetica,sans-Serif" font-size="10.00" fill="#000000">+ commandSent()</text>
<text text-anchor="start" x="369.0361" y="-232.5" font-family="Helvetica,sans-Serif" font-size="10.00" fill="#000000">+ responseReceived()</text>
<text text-anchor="start" x="369.0361" y="-222.5" font-family="Helvetica,sans-Serif" font-size="10.00" fill="#000000">+ write()</text>
<text text-anchor="start" x="369.0361" y="-212.5" font-family="Helvetica,sans-Serif" font-size="10.00" fill="#000000">+ commit()</text>
<text text-anchor="start" x="369.0361" y="-202.5" font-family="Helvetica,sans-Serif" font-size="10.00" fill="#000000">+ bind()</text>
<text text-anchor="start" x="369.0361" y="-192.5" font-family="Helvetica,sans-Serif" font-size="10.00" fill="#000000">+ unbind()</text>
<text text-anchor="start" x="369.0361" y="-182.5" font-family="Helvetica,sans-Serif" font-size="10.00" fill="#000000">+ flushBuffers()</text>
<text text-anchor="start" x="369.0361" y="-172.5" font-family="Helvetica,sans-Serif" font-size="10.00" fill="#000000">+ getBytesOut()</text>
<text text-anchor="start" x="369.0361" y="-162.5" font-family="Helvetica,sans-Serif" font-size="10.00" fill="#000000">+ getBytesIn()</text>
<text text-anchor="start" x="369.0361" y="-152.5" font-family="Helvetica,sans-Serif" font-size="10.00" fill="#000000">+ reset()</text>
</a>
</g>
</g>
<!-- Node1&#45;&gt;Node2 -->
<g id="edge2" class="edge">
<title>Node1&#45;&gt;Node2</title>
<path fill="none" stroke="#191970" d="M442.6426,-372.376C442.5561,-357.1471 442.4519,-338.822 442.3481,-320.5513"/>
<polygon fill="none" stroke="#191970" points="439.1426,-372.4058 442.6995,-382.3857 446.1425,-372.3659 439.1426,-372.4058"/>
</g>
<!-- Node4 -->
<g id="node5" class="node">
<title>Node4</title>
<g id="a_node5"><a xlink:href="class_swift___plugins___logger_plugin.html" target="_top" xlink:title="{Swift_Plugins_LoggerPlugin\n||+ __construct()\l+ add()\l+ clear()\l+ dump()\l+ commandSent()\l+ responseReceived()\l+ beforeTransportStarted()\l+ transportStarted()\l+ beforeTransportStopped()\l+ transportStopped()\l+ exceptionThrown()\l}">
<polygon fill="#ffffff" stroke="#000000" points="198.5903,-156.5 198.5903,-310.5 339.1167,-310.5 339.1167,-156.5 198.5903,-156.5"/>
<text text-anchor="middle" x="268.8535" y="-298.5" font-family="Helvetica,sans-Serif" font-size="10.00" fill="#000000">Swift_Plugins_LoggerPlugin</text>
<polyline fill="none" stroke="#000000" points="198.5903,-292.5 339.1167,-292.5 "/>
<text text-anchor="middle" x="268.8535" y="-280.5" font-family="Helvetica,sans-Serif" font-size="10.00" fill="#000000"> </text>
<polyline fill="none" stroke="#000000" points="198.5903,-274.5 339.1167,-274.5 "/>
<text text-anchor="start" x="206.5903" y="-262.5" font-family="Helvetica,sans-Serif" font-size="10.00" fill="#000000">+ __construct()</text>
<text text-anchor="start" x="206.5903" y="-252.5" font-family="Helvetica,sans-Serif" font-size="10.00" fill="#000000">+ add()</text>
<text text-anchor="start" x="206.5903" y="-242.5" font-family="Helvetica,sans-Serif" font-size="10.00" fill="#000000">+ clear()</text>
<text text-anchor="start" x="206.5903" y="-232.5" font-family="Helvetica,sans-Serif" font-size="10.00" fill="#000000">+ dump()</text>
<text text-anchor="start" x="206.5903" y="-222.5" font-family="Helvetica,sans-Serif" font-size="10.00" fill="#000000">+ commandSent()</text>
<text text-anchor="start" x="206.5903" y="-212.5" font-family="Helvetica,sans-Serif" font-size="10.00" fill="#000000">+ responseReceived()</text>
<text text-anchor="start" x="206.5903" y="-202.5" font-family="Helvetica,sans-Serif" font-size="10.00" fill="#000000">+ beforeTransportStarted()</text>
<text text-anchor="start" x="206.5903" y="-192.5" font-family="Helvetica,sans-Serif" font-size="10.00" fill="#000000">+ transportStarted()</text>
<text text-anchor="start" x="206.5903" y="-182.5" font-family="Helvetica,sans-Serif" font-size="10.00" fill="#000000">+ beforeTransportStopped()</text>
<text text-anchor="start" x="206.5903" y="-172.5" font-family="Helvetica,sans-Serif" font-size="10.00" fill="#000000">+ transportStopped()</text>
<text text-anchor="start" x="206.5903" y="-162.5" font-family="Helvetica,sans-Serif" font-size="10.00" fill="#000000">+ exceptionThrown()</text>
</a>
</g>
</g>
<!-- Node1&#45;&gt;Node4 -->
<g id="edge4" class="edge">
<title>Node1&#45;&gt;Node4</title>
<path fill="none" stroke="#191970" d="M404.0019,-375.3653C387.5719,-360.5452 368.4382,-342.7702 351.8535,-326 346.9986,-321.0908 342.0606,-315.9636 337.136,-310.7495"/>
<polygon fill="none" stroke="#191970" points="402.0466,-378.3132 411.8274,-382.3858 406.7212,-373.1027 402.0466,-378.3132"/>
</g>
<!-- Node3 -->
<g id="node4" class="node">
<title>Node3</title>
<g id="a_node4"><a xlink:href="class_swift___plugins___throttler_plugin.html" target="_top" xlink:title="{Swift_Plugins_ThrottlerPlugin\n|+ BYTES_PER_MINUTE\l+ MESSAGES_PER_MINUTE\l|+ __construct()\l+ beforeSendPerformed()\l+ sendPerformed()\l+ sleep()\l+ getTimestamp()\l}">
<polygon fill="#ffffff" stroke="#000000" points="366.4731,-.5 366.4731,-104.5 517.2339,-104.5 517.2339,-.5 366.4731,-.5"/>
<text text-anchor="middle" x="441.8535" y="-92.5" font-family="Helvetica,sans-Serif" font-size="10.00" fill="#000000">Swift_Plugins_ThrottlerPlugin</text>
<polyline fill="none" stroke="#000000" points="366.4731,-86.5 517.2339,-86.5 "/>
<text text-anchor="start" x="374.4731" y="-74.5" font-family="Helvetica,sans-Serif" font-size="10.00" fill="#000000">+ BYTES_PER_MINUTE</text>
<text text-anchor="start" x="374.4731" y="-64.5" font-family="Helvetica,sans-Serif" font-size="10.00" fill="#000000">+ MESSAGES_PER_MINUTE</text>
<polyline fill="none" stroke="#000000" points="366.4731,-58.5 517.2339,-58.5 "/>
<text text-anchor="start" x="374.4731" y="-46.5" font-family="Helvetica,sans-Serif" font-size="10.00" fill="#000000">+ __construct()</text>
<text text-anchor="start" x="374.4731" y="-36.5" font-family="Helvetica,sans-Serif" font-size="10.00" fill="#000000">+ beforeSendPerformed()</text>
<text text-anchor="start" x="374.4731" y="-26.5" font-family="Helvetica,sans-Serif" font-size="10.00" fill="#000000">+ sendPerformed()</text>
<text text-anchor="start" x="374.4731" y="-16.5" font-family="Helvetica,sans-Serif" font-size="10.00" fill="#000000">+ sleep()</text>
<text text-anchor="start" x="374.4731" y="-6.5" font-family="Helvetica,sans-Serif" font-size="10.00" fill="#000000">+ getTimestamp()</text>
</a>
</g>
</g>
<!-- Node2&#45;&gt;Node3 -->
<g id="edge3" class="edge">
<title>Node2&#45;&gt;Node3</title>
<path fill="none" stroke="#191970" d="M441.8535,-136.3844C441.8535,-125.4479 441.8535,-114.641 441.8535,-104.607"/>
<polygon fill="none" stroke="#191970" points="438.3536,-136.446 441.8535,-146.446 445.3536,-136.4461 438.3536,-136.446"/>
</g>
<!-- Node5&#45;&gt;Node2 -->
<g id="edge6" class="edge">
<title>Node5&#45;&gt;Node2</title>
<path fill="none" stroke="#191970" d="M298.6161,-375.128C316.4505,-357.494 338.9815,-335.2161 360.8617,-313.5818"/>
<polygon fill="none" stroke="#191970" points="295.926,-372.8658 291.2759,-382.3857 300.8477,-377.8435 295.926,-372.8658"/>
</g>
<!-- Node5&#45;&gt;Node4 -->
<g id="edge7" class="edge">
<title>Node5&#45;&gt;Node4</title>
<path fill="none" stroke="#191970" d="M264.9084,-372.3685C265.4175,-354.4479 266.0484,-332.2411 266.6552,-310.8812"/>
<polygon fill="none" stroke="#191970" points="261.4093,-372.2903 264.6238,-382.3857 268.4065,-372.4892 261.4093,-372.2903"/>
</g>
<!-- Node6&#45;&gt;Node2 -->
<g id="edge10" class="edge">
<title>Node6&#45;&gt;Node2</title>
<path fill="none" stroke="#191970" d="M729.4127,-372.3737C722.0027,-368.4931 714.3734,-364.911 706.8535,-362 632.802,-333.3337 601.5015,-364.1384 531.8535,-326 528.8074,-324.332 525.8002,-322.5268 522.8383,-320.6073"/>
<polygon fill="none" stroke="#191970" points="728.2024,-375.7005 738.6566,-377.4208 731.5569,-369.5566 728.2024,-375.7005"/>
</g>
<!-- Node7 -->
<g id="node8" class="node">
<title>Node7</title>
<g id="a_node8"><a xlink:href="class_swift___plugins___anti_flood_plugin.html" target="_top" xlink:title="{Swift_Plugins_AntiFloodPlugin\n||+ __construct()\l+ setThreshold()\l+ getThreshold()\l+ setSleepTime()\l+ getSleepTime()\l+ beforeSendPerformed()\l+ sendPerformed()\l+ sleep()\l}">
<polygon fill="#ffffff" stroke="#000000" points="711.0361,-171.5 711.0361,-295.5 862.6709,-295.5 862.6709,-171.5 711.0361,-171.5"/>
<text text-anchor="middle" x="786.8535" y="-283.5" font-family="Helvetica,sans-Serif" font-size="10.00" fill="#000000">Swift_Plugins_AntiFloodPlugin</text>
<polyline fill="none" stroke="#000000" points="711.0361,-277.5 862.6709,-277.5 "/>
<text text-anchor="middle" x="786.8535" y="-265.5" font-family="Helvetica,sans-Serif" font-size="10.00" fill="#000000"> </text>
<polyline fill="none" stroke="#000000" points="711.0361,-259.5 862.6709,-259.5 "/>
<text text-anchor="start" x="719.0361" y="-247.5" font-family="Helvetica,sans-Serif" font-size="10.00" fill="#000000">+ __construct()</text>
<text text-anchor="start" x="719.0361" y="-237.5" font-family="Helvetica,sans-Serif" font-size="10.00" fill="#000000">+ setThreshold()</text>
<text text-anchor="start" x="719.0361" y="-227.5" font-family="Helvetica,sans-Serif" font-size="10.00" fill="#000000">+ getThreshold()</text>
<text text-anchor="start" x="719.0361" y="-217.5" font-family="Helvetica,sans-Serif" font-size="10.00" fill="#000000">+ setSleepTime()</text>
<text text-anchor="start" x="719.0361" y="-207.5" font-family="Helvetica,sans-Serif" font-size="10.00" fill="#000000">+ getSleepTime()</text>
<text text-anchor="start" x="719.0361" y="-197.5" font-family="Helvetica,sans-Serif" font-size="10.00" fill="#000000">+ beforeSendPerformed()</text>
<text text-anchor="start" x="719.0361" y="-187.5" font-family="Helvetica,sans-Serif" font-size="10.00" fill="#000000">+ sendPerformed()</text>
<text text-anchor="start" x="719.0361" y="-177.5" font-family="Helvetica,sans-Serif" font-size="10.00" fill="#000000">+ sleep()</text>
</a>
</g>
</g>
<!-- Node6&#45;&gt;Node7 -->
<g id="edge9" class="edge">
<title>Node6&#45;&gt;Node7</title>
<path fill="none" stroke="#191970" d="M786.8535,-367.1656C786.8535,-345.8056 786.8535,-319.4805 786.8535,-295.8568"/>
<polygon fill="none" stroke="#191970" points="783.3536,-367.2189 786.8535,-377.2189 790.3536,-367.2189 783.3536,-367.2189"/>
</g>
<!-- Node8 -->
<g id="node9" class="node">
<title>Node8</title>
<g id="a_node9"><a xlink:href="class_swift___plugins___decorator_plugin.html" target="_top" xlink:title="{Swift_Plugins_DecoratorPlugin\n||+ __construct()\l+ beforeSendPerformed()\l+ getReplacementsFor()\l+ sendPerformed()\l}">
<polygon fill="#ffffff" stroke="#000000" points="880.2061,-191.5 880.2061,-275.5 1033.501,-275.5 1033.501,-191.5 880.2061,-191.5"/>
<text text-anchor="middle" x="956.8535" y="-263.5" font-family="Helvetica,sans-Serif" font-size="10.00" fill="#000000">Swift_Plugins_DecoratorPlugin</text>
<polyline fill="none" stroke="#000000" points="880.2061,-257.5 1033.501,-257.5 "/>
<text text-anchor="middle" x="956.8535" y="-245.5" font-family="Helvetica,sans-Serif" font-size="10.00" fill="#000000"> </text>
<polyline fill="none" stroke="#000000" points="880.2061,-239.5 1033.501,-239.5 "/>
<text text-anchor="start" x="888.2061" y="-227.5" font-family="Helvetica,sans-Serif" font-size="10.00" fill="#000000">+ __construct()</text>
<text text-anchor="start" x="888.2061" y="-217.5" font-family="Helvetica,sans-Serif" font-size="10.00" fill="#000000">+ beforeSendPerformed()</text>
<text text-anchor="start" x="888.2061" y="-207.5" font-family="Helvetica,sans-Serif" font-size="10.00" fill="#000000">+ getReplacementsFor()</text>
<text text-anchor="start" x="888.2061" y="-197.5" font-family="Helvetica,sans-Serif" font-size="10.00" fill="#000000">+ sendPerformed()</text>
</a>
</g>
</g>
<!-- Node6&#45;&gt;Node8 -->
<g id="edge11" class="edge">
<title>Node6&#45;&gt;Node8</title>
<path fill="none" stroke="#191970" d="M827.5788,-370.3219C841.7486,-356.473 857.6472,-340.6878 871.8535,-326 887.471,-309.8531 904.2812,-291.7255 918.7961,-275.8249"/>
<polygon fill="none" stroke="#191970" points="825.0639,-367.8856 820.3447,-377.3714 829.9493,-372.8989 825.0639,-367.8856"/>
</g>
<!-- Node9 -->
<g id="node10" class="node">
<title>Node9</title>
<g id="a_node10"><a xlink:href="class_swift___plugins___reporter_plugin.html" target="_top" xlink:title="{Swift_Plugins_ReporterPlugin\n||+ __construct()\l+ beforeSendPerformed()\l+ sendPerformed()\l}">
<polygon fill="#ffffff" stroke="#000000" points="1051.7061,-196.5 1051.7061,-270.5 1200.001,-270.5 1200.001,-196.5 1051.7061,-196.5"/>
<text text-anchor="middle" x="1125.8535" y="-258.5" font-family="Helvetica,sans-Serif" font-size="10.00" fill="#000000">Swift_Plugins_ReporterPlugin</text>
<polyline fill="none" stroke="#000000" points="1051.7061,-252.5 1200.001,-252.5 "/>
<text text-anchor="middle" x="1125.8535" y="-240.5" font-family="Helvetica,sans-Serif" font-size="10.00" fill="#000000"> </text>
<polyline fill="none" stroke="#000000" points="1051.7061,-234.5 1200.001,-234.5 "/>
<text text-anchor="start" x="1059.7061" y="-222.5" font-family="Helvetica,sans-Serif" font-size="10.00" fill="#000000">+ __construct()</text>
<text text-anchor="start" x="1059.7061" y="-212.5" font-family="Helvetica,sans-Serif" font-size="10.00" fill="#000000">+ beforeSendPerformed()</text>
<text text-anchor="start" x="1059.7061" y="-202.5" font-family="Helvetica,sans-Serif" font-size="10.00" fill="#000000">+ sendPerformed()</text>
</a>
</g>
</g>
<!-- Node6&#45;&gt;Node9 -->
<g id="edge12" class="edge">
<title>Node6&#45;&gt;Node9</title>
<path fill="none" stroke="#191970" d="M866.1303,-394.9145C919.2455,-382.5378 989.0351,-361.0593 1042.8535,-326 1065.0901,-311.5143 1085.1193,-289.5948 1099.929,-270.7289"/>
<polygon fill="none" stroke="#191970" points="865.0549,-391.5694 856.0772,-397.1953 866.6037,-398.3959 865.0549,-391.5694"/>
</g>
<!-- Node10&#45;&gt;Node4 -->
<g id="edge14" class="edge">
<title>Node10&#45;&gt;Node4</title>
<path fill="none" stroke="#191970" d="M531.3734,-361.839C453.1426,-336.46 420.3337,-365.0188 351.8535,-326 344.2611,-321.674 336.9937,-316.4016 330.1383,-310.5906"/>
<polygon fill="none" stroke="#191970" points="530.5497,-365.2571 541.1444,-365.2095 532.8324,-358.6398 530.5497,-365.2571"/>
</g>
<!-- Node11 -->
<g id="node12" class="node">
<title>Node11</title>
<g id="a_node12"><a xlink:href="class_swift___plugins___pop_before_smtp_plugin.html" target="_top" xlink:title="{Swift_Plugins_PopBeforeSmtp\lPlugin\n||+ __construct()\l+ setConnection()\l+ bindSmtp()\l+ setTimeout()\l+ setUsername()\l+ setPassword()\l+ connect()\l+ disconnect()\l+ beforeTransportStarted()\l+ transportStarted()\l+ beforeTransportStopped()\l+ transportStopped()\l+ newInstance()\l}">
<polygon fill="#ffffff" stroke="#000000" points="540.7603,-141.5 540.7603,-325.5 692.9468,-325.5 692.9468,-141.5 540.7603,-141.5"/>
<text text-anchor="start" x="548.7603" y="-313.5" font-family="Helvetica,sans-Serif" font-size="10.00" fill="#000000">Swift_Plugins_PopBeforeSmtp</text>
<text text-anchor="middle" x="616.8535" y="-303.5" font-family="Helvetica,sans-Serif" font-size="10.00" fill="#000000">Plugin</text>
<polyline fill="none" stroke="#000000" points="540.7603,-297.5 692.9468,-297.5 "/>
<text text-anchor="middle" x="616.8535" y="-285.5" font-family="Helvetica,sans-Serif" font-size="10.00" fill="#000000"> </text>
<polyline fill="none" stroke="#000000" points="540.7603,-279.5 692.9468,-279.5 "/>
<text text-anchor="start" x="548.7603" y="-267.5" font-family="Helvetica,sans-Serif" font-size="10.00" fill="#000000">+ __construct()</text>
<text text-anchor="start" x="548.7603" y="-257.5" font-family="Helvetica,sans-Serif" font-size="10.00" fill="#000000">+ setConnection()</text>
<text text-anchor="start" x="548.7603" y="-247.5" font-family="Helvetica,sans-Serif" font-size="10.00" fill="#000000">+ bindSmtp()</text>
<text text-anchor="start" x="548.7603" y="-237.5" font-family="Helvetica,sans-Serif" font-size="10.00" fill="#000000">+ setTimeout()</text>
<text text-anchor="start" x="548.7603" y="-227.5" font-family="Helvetica,sans-Serif" font-size="10.00" fill="#000000">+ setUsername()</text>
<text text-anchor="start" x="548.7603" y="-217.5" font-family="Helvetica,sans-Serif" font-size="10.00" fill="#000000">+ setPassword()</text>
<text text-anchor="start" x="548.7603" y="-207.5" font-family="Helvetica,sans-Serif" font-size="10.00" fill="#000000">+ connect()</text>
<text text-anchor="start" x="548.7603" y="-197.5" font-family="Helvetica,sans-Serif" font-size="10.00" fill="#000000">+ disconnect()</text>
<text text-anchor="start" x="548.7603" y="-187.5" font-family="Helvetica,sans-Serif" font-size="10.00" fill="#000000">+ beforeTransportStarted()</text>
<text text-anchor="start" x="548.7603" y="-177.5" font-family="Helvetica,sans-Serif" font-size="10.00" fill="#000000">+ transportStarted()</text>
<text text-anchor="start" x="548.7603" y="-167.5" font-family="Helvetica,sans-Serif" font-size="10.00" fill="#000000">+ beforeTransportStopped()</text>
<text text-anchor="start" x="548.7603" y="-157.5" font-family="Helvetica,sans-Serif" font-size="10.00" fill="#000000">+ transportStopped()</text>
<text text-anchor="start" x="548.7603" y="-147.5" font-family="Helvetica,sans-Serif" font-size="10.00" fill="#000000">+ newInstance()</text>
</a>
</g>
</g>
<!-- Node10&#45;&gt;Node11 -->
<g id="edge15" class="edge">
<title>Node10&#45;&gt;Node11</title>
<path fill="none" stroke="#191970" d="M618.8764,-352.1766C618.7311,-343.6487 618.5782,-334.6815 618.4244,-325.6559"/>
<polygon fill="none" stroke="#191970" points="615.3796,-352.3964 619.0496,-362.3352 622.3785,-352.277 615.3796,-352.3964"/>
</g>
<!-- Node12&#45;&gt;Node4 -->
<g id="edge17" class="edge">
<title>Node12&#45;&gt;Node4</title>
<path fill="none" stroke="#191970" d="M124.4236,-370.1649C146.1814,-349.5769 173.4175,-323.805 198.3567,-300.2066"/>
<polygon fill="none" stroke="#191970" points="121.8268,-367.8035 116.9688,-377.2189 126.638,-372.888 121.8268,-367.8035"/>
</g>
</g>
</svg>
