<?xml version="1.0" encoding="UTF-8" standalone="no"?>
<!DOCTYPE svg PUBLIC "-//W3C//DTD SVG 1.1//EN"
 "http://www.w3.org/Graphics/SVG/1.1/DTD/svg11.dtd">
<!-- Generated by graphviz version 2.40.1 (20161225.0304)
 -->
<!-- Title: Swift_Plugins_Reporter Pages: 1 -->
<svg width="276pt" height="194pt"
 viewBox="0.00 0.00 276.50 194.00" xmlns="http://www.w3.org/2000/svg" xmlns:xlink="http://www.w3.org/1999/xlink">
<g id="graph0" class="graph" transform="scale(1 1) rotate(0) translate(4 190)">
<title>Swift_Plugins_Reporter</title>
<polygon fill="#ffffff" stroke="transparent" points="-4,4 -4,-190 272.4971,-190 272.4971,4 -4,4"/>
<!-- Node0 -->
<g id="node1" class="node">
<title>Node0</title>
<polygon fill="#bfbfbf" stroke="#000000" points="73.5,-121.5 73.5,-185.5 193.9971,-185.5 193.9971,-121.5 73.5,-121.5"/>
<text text-anchor="middle" x="133.7485" y="-173.5" font-family="Helvetica,sans-Serif" font-size="10.00" fill="#000000">Swift_Plugins_Reporter</text>
<polyline fill="none" stroke="#000000" points="73.5,-167.5 193.9971,-167.5 "/>
<text text-anchor="start" x="81.5" y="-155.5" font-family="Helvetica,sans-Serif" font-size="10.00" fill="#000000">+ RESULT_PASS</text>
<text text-anchor="start" x="81.5" y="-145.5" font-family="Helvetica,sans-Serif" font-size="10.00" fill="#000000">+ RESULT_FAIL</text>
<polyline fill="none" stroke="#000000" points="73.5,-139.5 193.9971,-139.5 "/>
<text text-anchor="start" x="81.5" y="-127.5" font-family="Helvetica,sans-Serif" font-size="10.00" fill="#000000">+ notify()</text>
</g>
<!-- Node1 -->
<g id="node2" class="node">
<title>Node1</title>
<g id="a_node2"><a xlink:href="class_swift___plugins___reporters___hit_reporter.html" target="_top" xlink:title="{Swift_Plugins_Reporters\l_HitReporter\n||+ notify()\l+ getFailedRecipients()\l+ clear()\l}">
<polygon fill="#ffffff" stroke="#000000" points="0,-.5 0,-84.5 125.4971,-84.5 125.4971,-.5 0,-.5"/>
<text text-anchor="start" x="8" y="-72.5" font-family="Helvetica,sans-Serif" font-size="10.00" fill="#000000">Swift_Plugins_Reporters</text>
<text text-anchor="middle" x="62.7485" y="-62.5" font-family="Helvetica,sans-Serif" font-size="10.00" fill="#000000">_HitReporter</text>
<polyline fill="none" stroke="#000000" points="0,-56.5 125.4971,-56.5 "/>
<text text-anchor="middle" x="62.7485" y="-44.5" font-family="Helvetica,sans-Serif" font-size="10.00" fill="#000000"> </text>
<polyline fill="none" stroke="#000000" points="0,-38.5 125.4971,-38.5 "/>
<text text-anchor="start" x="8" y="-26.5" font-family="Helvetica,sans-Serif" font-size="10.00" fill="#000000">+ notify()</text>
<text text-anchor="start" x="8" y="-16.5" font-family="Helvetica,sans-Serif" font-size="10.00" fill="#000000">+ getFailedRecipients()</text>
<text text-anchor="start" x="8" y="-6.5" font-family="Helvetica,sans-Serif" font-size="10.00" fill="#000000">+ clear()</text>
</a>
</g>
</g>
<!-- Node0&#45;&gt;Node1 -->
<g id="edge1" class="edge">
<title>Node0&#45;&gt;Node1</title>
<path fill="none" stroke="#191970" d="M107.7571,-112.8655C101.9254,-103.7484 95.7241,-94.0534 89.8486,-84.8676"/>
<polygon fill="none" stroke="#191970" points="104.8755,-114.856 113.2124,-121.3942 110.7724,-111.0841 104.8755,-114.856"/>
</g>
<!-- Node2 -->
<g id="node3" class="node">
<title>Node2</title>
<g id="a_node3"><a xlink:href="class_swift___plugins___reporters___html_reporter.html" target="_top" xlink:title="{Swift_Plugins_Reporters\l_HtmlReporter\n||+ notify()\l}">
<polygon fill="#ffffff" stroke="#000000" points="143,-10.5 143,-74.5 268.4971,-74.5 268.4971,-10.5 143,-10.5"/>
<text text-anchor="start" x="151" y="-62.5" font-family="Helvetica,sans-Serif" font-size="10.00" fill="#000000">Swift_Plugins_Reporters</text>
<text text-anchor="middle" x="205.7485" y="-52.5" font-family="Helvetica,sans-Serif" font-size="10.00" fill="#000000">_HtmlReporter</text>
<polyline fill="none" stroke="#000000" points="143,-46.5 268.4971,-46.5 "/>
<text text-anchor="middle" x="205.7485" y="-34.5" font-family="Helvetica,sans-Serif" font-size="10.00" fill="#000000"> </text>
<polyline fill="none" stroke="#000000" points="143,-28.5 268.4971,-28.5 "/>
<text text-anchor="start" x="151" y="-16.5" font-family="Helvetica,sans-Serif" font-size="10.00" fill="#000000">+ notify()</text>
</a>
</g>
</g>
<!-- Node0&#45;&gt;Node2 -->
<g id="edge2" class="edge">
<title>Node0&#45;&gt;Node2</title>
<path fill="none" stroke="#191970" d="M160.1081,-112.8624C168.3011,-100.2314 177.2133,-86.4918 184.97,-74.5336"/>
<polygon fill="none" stroke="#191970" points="157.0795,-111.0999 154.5739,-121.3942 162.9522,-114.9093 157.0795,-111.0999"/>
</g>
</g>
</svg>
