<?xml version="1.0" encoding="UTF-8" standalone="no"?>
<!DOCTYPE svg PUBLIC "-//W3C//DTD SVG 1.1//EN"
 "http://www.w3.org/Graphics/SVG/1.1/DTD/svg11.dtd">
<!-- Generated by graphviz version 2.40.1 (20161225.0304)
 -->
<!-- Title: Swift_Events_CommandListener Pages: 1 -->
<svg width="169pt" height="154pt"
 viewBox="0.00 0.00 169.07 154.00" xmlns="http://www.w3.org/2000/svg" xmlns:xlink="http://www.w3.org/1999/xlink">
<g id="graph0" class="graph" transform="scale(1 1) rotate(0) translate(4 150)">
<title>Swift_Events_CommandListener</title>
<polygon fill="#ffffff" stroke="transparent" points="-4,4 -4,-150 165.0684,-150 165.0684,4 -4,4"/>
<!-- Node5 -->
<g id="node1" class="node">
<title>Node5</title>
<polygon fill="#bfbfbf" stroke="#000000" points="0,-.5 0,-54.5 161.0684,-54.5 161.0684,-.5 0,-.5"/>
<text text-anchor="middle" x="80.5342" y="-42.5" font-family="Helvetica,sans-Serif" font-size="10.00" fill="#000000">Swift_Events_CommandListener</text>
<polyline fill="none" stroke="#000000" points="0,-36.5 161.0684,-36.5 "/>
<text text-anchor="middle" x="80.5342" y="-24.5" font-family="Helvetica,sans-Serif" font-size="10.00" fill="#000000"> </text>
<polyline fill="none" stroke="#000000" points="0,-18.5 161.0684,-18.5 "/>
<text text-anchor="start" x="8" y="-6.5" font-family="Helvetica,sans-Serif" font-size="10.00" fill="#000000">+ commandSent()</text>
</g>
<!-- Node6 -->
<g id="node2" class="node">
<title>Node6</title>
<g id="a_node2"><a xlink:href="interface_swift___events___event_listener.html" target="_top" xlink:title="{Swift_Events_EventListener\n||}">
<polygon fill="#ffffff" stroke="#000000" points="10.2783,-91.5 10.2783,-145.5 150.79,-145.5 150.79,-91.5 10.2783,-91.5"/>
<text text-anchor="middle" x="80.5342" y="-133.5" font-family="Helvetica,sans-Serif" font-size="10.00" fill="#000000">Swift_Events_EventListener</text>
<polyline fill="none" stroke="#000000" points="10.2783,-127.5 150.79,-127.5 "/>
<text text-anchor="middle" x="80.5342" y="-115.5" font-family="Helvetica,sans-Serif" font-size="10.00" fill="#000000"> </text>
<polyline fill="none" stroke="#000000" points="10.2783,-109.5 150.79,-109.5 "/>
<text text-anchor="middle" x="80.5342" y="-97.5" font-family="Helvetica,sans-Serif" font-size="10.00" fill="#000000"> </text>
</a>
</g>
</g>
<!-- Node6&#45;&gt;Node5 -->
<g id="edge1" class="edge">
<title>Node6&#45;&gt;Node5</title>
<path fill="none" stroke="#191970" d="M80.5342,-81.12C80.5342,-72.3006 80.5342,-63.0605 80.5342,-54.7837"/>
<polygon fill="none" stroke="#191970" points="77.0343,-81.197 80.5342,-91.197 84.0343,-81.197 77.0343,-81.197"/>
</g>
</g>
</svg>
