<?xml version="1.0" encoding="UTF-8" standalone="no"?>
<!DOCTYPE svg PUBLIC "-//W3C//DTD SVG 1.1//EN"
 "http://www.w3.org/Graphics/SVG/1.1/DTD/svg11.dtd">
<!-- Generated by graphviz version 2.40.1 (20161225.0304)
 -->
<!-- Title: Swift_StreamFilter Pages: 1 -->
<svg width="302pt" height="194pt"
 viewBox="0.00 0.00 301.72 194.00" xmlns="http://www.w3.org/2000/svg" xmlns:xlink="http://www.w3.org/1999/xlink">
<g id="graph0" class="graph" transform="scale(1 1) rotate(0) translate(4 190)">
<title>Swift_StreamFilter</title>
<polygon fill="#ffffff" stroke="transparent" points="-4,4 -4,-190 297.7163,-190 297.7163,4 -4,4"/>
<!-- Node0 -->
<g id="node1" class="node">
<title>Node0</title>
<polygon fill="#bfbfbf" stroke="#000000" points="102.4604,-121.5 102.4604,-185.5 200.145,-185.5 200.145,-121.5 102.4604,-121.5"/>
<text text-anchor="middle" x="151.3027" y="-173.5" font-family="Helvetica,sans-Serif" font-size="10.00" fill="#000000">Swift_StreamFilter</text>
<polyline fill="none" stroke="#000000" points="102.4604,-167.5 200.145,-167.5 "/>
<text text-anchor="middle" x="151.3027" y="-155.5" font-family="Helvetica,sans-Serif" font-size="10.00" fill="#000000"> </text>
<polyline fill="none" stroke="#000000" points="102.4604,-149.5 200.145,-149.5 "/>
<text text-anchor="start" x="110.4604" y="-137.5" font-family="Helvetica,sans-Serif" font-size="10.00" fill="#000000">+ shouldBuffer()</text>
<text text-anchor="start" x="110.4604" y="-127.5" font-family="Helvetica,sans-Serif" font-size="10.00" fill="#000000">+ filter()</text>
</g>
<!-- Node1 -->
<g id="node2" class="node">
<title>Node1</title>
<g id="a_node2"><a xlink:href="class_swift___stream_filters___byte_array_replacement_filter.html" target="_top" xlink:title="{Swift_StreamFilters\l_ByteArrayReplacementFilter\n||+ __construct()\l+ shouldBuffer()\l+ filter()\l}">
<polygon fill="#ffffff" stroke="#000000" points="0,-.5 0,-84.5 146.6055,-84.5 146.6055,-.5 0,-.5"/>
<text text-anchor="start" x="8" y="-72.5" font-family="Helvetica,sans-Serif" font-size="10.00" fill="#000000">Swift_StreamFilters</text>
<text text-anchor="middle" x="73.3027" y="-62.5" font-family="Helvetica,sans-Serif" font-size="10.00" fill="#000000">_ByteArrayReplacementFilter</text>
<polyline fill="none" stroke="#000000" points="0,-56.5 146.6055,-56.5 "/>
<text text-anchor="middle" x="73.3027" y="-44.5" font-family="Helvetica,sans-Serif" font-size="10.00" fill="#000000"> </text>
<polyline fill="none" stroke="#000000" points="0,-38.5 146.6055,-38.5 "/>
<text text-anchor="start" x="8" y="-26.5" font-family="Helvetica,sans-Serif" font-size="10.00" fill="#000000">+ __construct()</text>
<text text-anchor="start" x="8" y="-16.5" font-family="Helvetica,sans-Serif" font-size="10.00" fill="#000000">+ shouldBuffer()</text>
<text text-anchor="start" x="8" y="-6.5" font-family="Helvetica,sans-Serif" font-size="10.00" fill="#000000">+ filter()</text>
</a>
</g>
</g>
<!-- Node0&#45;&gt;Node1 -->
<g id="edge1" class="edge">
<title>Node0&#45;&gt;Node1</title>
<path fill="none" stroke="#191970" d="M122.9468,-113.1473C116.4826,-103.9483 109.596,-94.1481 103.0746,-84.8676"/>
<polygon fill="none" stroke="#191970" points="120.1287,-115.2246 128.7419,-121.3942 125.8561,-111.1999 120.1287,-115.2246"/>
</g>
<!-- Node2 -->
<g id="node3" class="node">
<title>Node2</title>
<g id="a_node3"><a xlink:href="class_swift___stream_filters___string_replacement_filter.html" target="_top" xlink:title="{Swift_StreamFilters\l_StringReplacementFilter\n||+ __construct()\l+ shouldBuffer()\l+ filter()\l}">
<polygon fill="#ffffff" stroke="#000000" points="164.8892,-.5 164.8892,-84.5 293.7163,-84.5 293.7163,-.5 164.8892,-.5"/>
<text text-anchor="start" x="172.8892" y="-72.5" font-family="Helvetica,sans-Serif" font-size="10.00" fill="#000000">Swift_StreamFilters</text>
<text text-anchor="middle" x="229.3027" y="-62.5" font-family="Helvetica,sans-Serif" font-size="10.00" fill="#000000">_StringReplacementFilter</text>
<polyline fill="none" stroke="#000000" points="164.8892,-56.5 293.7163,-56.5 "/>
<text text-anchor="middle" x="229.3027" y="-44.5" font-family="Helvetica,sans-Serif" font-size="10.00" fill="#000000"> </text>
<polyline fill="none" stroke="#000000" points="164.8892,-38.5 293.7163,-38.5 "/>
<text text-anchor="start" x="172.8892" y="-26.5" font-family="Helvetica,sans-Serif" font-size="10.00" fill="#000000">+ __construct()</text>
<text text-anchor="start" x="172.8892" y="-16.5" font-family="Helvetica,sans-Serif" font-size="10.00" fill="#000000">+ shouldBuffer()</text>
<text text-anchor="start" x="172.8892" y="-6.5" font-family="Helvetica,sans-Serif" font-size="10.00" fill="#000000">+ filter()</text>
</a>
</g>
</g>
<!-- Node0&#45;&gt;Node2 -->
<g id="edge2" class="edge">
<title>Node0&#45;&gt;Node2</title>
<path fill="none" stroke="#191970" d="M179.6587,-113.1473C186.1228,-103.9483 193.0095,-94.1481 199.5309,-84.8676"/>
<polygon fill="none" stroke="#191970" points="176.7494,-111.1999 173.8636,-121.3942 182.4767,-115.2246 176.7494,-111.1999"/>
</g>
</g>
</svg>
