<?xml version="1.0" encoding="UTF-8" standalone="no"?>
<!DOCTYPE svg PUBLIC "-//W3C//DTD SVG 1.1//EN"
 "http://www.w3.org/Graphics/SVG/1.1/DTD/svg11.dtd">
<!-- Generated by graphviz version 2.40.1 (20161225.0304)
 -->
<!-- Title: Swift_Mime_ContentEncoder Pages: 1 -->
<svg width="482pt" height="396pt"
 viewBox="0.00 0.00 481.51 396.00" xmlns="http://www.w3.org/2000/svg" xmlns:xlink="http://www.w3.org/1999/xlink">
<g id="graph0" class="graph" transform="scale(1 1) rotate(0) translate(4 392)">
<title>Swift_Mime_ContentEncoder</title>
<polygon fill="#ffffff" stroke="transparent" points="-4,4 -4,-392 477.5068,-392 477.5068,4 -4,4"/>
<!-- Node0 -->
<g id="node1" class="node">
<title>Node0</title>
<polygon fill="#bfbfbf" stroke="#000000" points="164,-141.5 164,-205.5 309.5068,-205.5 309.5068,-141.5 164,-141.5"/>
<text text-anchor="middle" x="236.7534" y="-193.5" font-family="Helvetica,sans-Serif" font-size="10.00" fill="#000000">Swift_Mime_ContentEncoder</text>
<polyline fill="none" stroke="#000000" points="164,-187.5 309.5068,-187.5 "/>
<text text-anchor="middle" x="236.7534" y="-175.5" font-family="Helvetica,sans-Serif" font-size="10.00" fill="#000000"> </text>
<polyline fill="none" stroke="#000000" points="164,-169.5 309.5068,-169.5 "/>
<text text-anchor="start" x="172" y="-157.5" font-family="Helvetica,sans-Serif" font-size="10.00" fill="#000000">+ encodeByteStream()</text>
<text text-anchor="start" x="172" y="-147.5" font-family="Helvetica,sans-Serif" font-size="10.00" fill="#000000">+ getName()</text>
</g>
<!-- Node3 -->
<g id="node4" class="node">
<title>Node3</title>
<g id="a_node4"><a xlink:href="class_swift___mime___content_encoder___base64_content_encoder.html" target="_top" xlink:title="{Swift_Mime_ContentEncoder\l_Base64ContentEncoder\n||+ encodeByteStream()\l+ getName()\l}">
<polygon fill="#ffffff" stroke="#000000" points="0,-15.5 0,-89.5 145.5068,-89.5 145.5068,-15.5 0,-15.5"/>
<text text-anchor="start" x="8" y="-77.5" font-family="Helvetica,sans-Serif" font-size="10.00" fill="#000000">Swift_Mime_ContentEncoder</text>
<text text-anchor="middle" x="72.7534" y="-67.5" font-family="Helvetica,sans-Serif" font-size="10.00" fill="#000000">_Base64ContentEncoder</text>
<polyline fill="none" stroke="#000000" points="0,-61.5 145.5068,-61.5 "/>
<text text-anchor="middle" x="72.7534" y="-49.5" font-family="Helvetica,sans-Serif" font-size="10.00" fill="#000000"> </text>
<polyline fill="none" stroke="#000000" points="0,-43.5 145.5068,-43.5 "/>
<text text-anchor="start" x="8" y="-31.5" font-family="Helvetica,sans-Serif" font-size="10.00" fill="#000000">+ encodeByteStream()</text>
<text text-anchor="start" x="8" y="-21.5" font-family="Helvetica,sans-Serif" font-size="10.00" fill="#000000">+ getName()</text>
</a>
</g>
</g>
<!-- Node0&#45;&gt;Node3 -->
<g id="edge3" class="edge">
<title>Node0&#45;&gt;Node3</title>
<path fill="none" stroke="#191970" d="M184.9586,-135.2855C165.2213,-120.7233 142.7701,-104.1586 123.1633,-89.6927"/>
<polygon fill="none" stroke="#191970" points="183.1102,-138.2713 193.235,-141.3919 187.2661,-132.6384 183.1102,-138.2713"/>
</g>
<!-- Node4 -->
<g id="node5" class="node">
<title>Node4</title>
<g id="a_node5"><a xlink:href="class_swift___mime___content_encoder___plain_content_encoder.html" target="_top" xlink:title="{Swift_Mime_ContentEncoder\l_PlainContentEncoder\n||+ __construct()\l+ encodeString()\l+ encodeByteStream()\l+ getName()\l+ charsetChanged()\l}">
<polygon fill="#ffffff" stroke="#000000" points="164,-.5 164,-104.5 309.5068,-104.5 309.5068,-.5 164,-.5"/>
<text text-anchor="start" x="172" y="-92.5" font-family="Helvetica,sans-Serif" font-size="10.00" fill="#000000">Swift_Mime_ContentEncoder</text>
<text text-anchor="middle" x="236.7534" y="-82.5" font-family="Helvetica,sans-Serif" font-size="10.00" fill="#000000">_PlainContentEncoder</text>
<polyline fill="none" stroke="#000000" points="164,-76.5 309.5068,-76.5 "/>
<text text-anchor="middle" x="236.7534" y="-64.5" font-family="Helvetica,sans-Serif" font-size="10.00" fill="#000000"> </text>
<polyline fill="none" stroke="#000000" points="164,-58.5 309.5068,-58.5 "/>
<text text-anchor="start" x="172" y="-46.5" font-family="Helvetica,sans-Serif" font-size="10.00" fill="#000000">+ __construct()</text>
<text text-anchor="start" x="172" y="-36.5" font-family="Helvetica,sans-Serif" font-size="10.00" fill="#000000">+ encodeString()</text>
<text text-anchor="start" x="172" y="-26.5" font-family="Helvetica,sans-Serif" font-size="10.00" fill="#000000">+ encodeByteStream()</text>
<text text-anchor="start" x="172" y="-16.5" font-family="Helvetica,sans-Serif" font-size="10.00" fill="#000000">+ getName()</text>
<text text-anchor="start" x="172" y="-6.5" font-family="Helvetica,sans-Serif" font-size="10.00" fill="#000000">+ charsetChanged()</text>
</a>
</g>
</g>
<!-- Node0&#45;&gt;Node4 -->
<g id="edge4" class="edge">
<title>Node0&#45;&gt;Node4</title>
<path fill="none" stroke="#191970" d="M236.7534,-131.3083C236.7534,-122.7813 236.7534,-113.7187 236.7534,-104.8906"/>
<polygon fill="none" stroke="#191970" points="233.2535,-131.3919 236.7534,-141.3919 240.2535,-131.3919 233.2535,-131.3919"/>
</g>
<!-- Node5 -->
<g id="node6" class="node">
<title>Node5</title>
<g id="a_node6"><a xlink:href="class_swift___mime___content_encoder___qp_content_encoder.html" target="_top" xlink:title="{Swift_Mime_ContentEncoder\l_QpContentEncoder\n||+ __construct()\l+ encodeByteStream()\l+ getName()\l}">
<polygon fill="#ffffff" stroke="#000000" points="328,-10.5 328,-94.5 473.5068,-94.5 473.5068,-10.5 328,-10.5"/>
<text text-anchor="start" x="336" y="-82.5" font-family="Helvetica,sans-Serif" font-size="10.00" fill="#000000">Swift_Mime_ContentEncoder</text>
<text text-anchor="middle" x="400.7534" y="-72.5" font-family="Helvetica,sans-Serif" font-size="10.00" fill="#000000">_QpContentEncoder</text>
<polyline fill="none" stroke="#000000" points="328,-66.5 473.5068,-66.5 "/>
<text text-anchor="middle" x="400.7534" y="-54.5" font-family="Helvetica,sans-Serif" font-size="10.00" fill="#000000"> </text>
<polyline fill="none" stroke="#000000" points="328,-48.5 473.5068,-48.5 "/>
<text text-anchor="start" x="336" y="-36.5" font-family="Helvetica,sans-Serif" font-size="10.00" fill="#000000">+ __construct()</text>
<text text-anchor="start" x="336" y="-26.5" font-family="Helvetica,sans-Serif" font-size="10.00" fill="#000000">+ encodeByteStream()</text>
<text text-anchor="start" x="336" y="-16.5" font-family="Helvetica,sans-Serif" font-size="10.00" fill="#000000">+ getName()</text>
</a>
</g>
</g>
<!-- Node0&#45;&gt;Node5 -->
<g id="edge5" class="edge">
<title>Node0&#45;&gt;Node5</title>
<path fill="none" stroke="#191970" d="M288.6834,-135.1858C306.2004,-122.2617 325.8426,-107.7696 343.7314,-94.5712"/>
<polygon fill="none" stroke="#191970" points="286.2407,-132.6384 280.2718,-141.3919 290.3967,-138.2713 286.2407,-132.6384"/>
</g>
<!-- Node1 -->
<g id="node2" class="node">
<title>Node1</title>
<g id="a_node2"><a xlink:href="interface_swift___encoder.html" target="_top" xlink:title="{Swift_Encoder\n||+ encodeString()\l}">
<polygon fill="#ffffff" stroke="#000000" points="191.6489,-242.5 191.6489,-296.5 281.8579,-296.5 281.8579,-242.5 191.6489,-242.5"/>
<text text-anchor="middle" x="236.7534" y="-284.5" font-family="Helvetica,sans-Serif" font-size="10.00" fill="#000000">Swift_Encoder</text>
<polyline fill="none" stroke="#000000" points="191.6489,-278.5 281.8579,-278.5 "/>
<text text-anchor="middle" x="236.7534" y="-266.5" font-family="Helvetica,sans-Serif" font-size="10.00" fill="#000000"> </text>
<polyline fill="none" stroke="#000000" points="191.6489,-260.5 281.8579,-260.5 "/>
<text text-anchor="start" x="199.6489" y="-248.5" font-family="Helvetica,sans-Serif" font-size="10.00" fill="#000000">+ encodeString()</text>
</a>
</g>
</g>
<!-- Node1&#45;&gt;Node0 -->
<g id="edge1" class="edge">
<title>Node1&#45;&gt;Node0</title>
<path fill="none" stroke="#191970" d="M236.7534,-232.2276C236.7534,-223.4295 236.7534,-214.1248 236.7534,-205.5792"/>
<polygon fill="none" stroke="#191970" points="233.2535,-232.247 236.7534,-242.247 240.2535,-232.2471 233.2535,-232.247"/>
</g>
<!-- Node2 -->
<g id="node3" class="node">
<title>Node2</title>
<g id="a_node3"><a xlink:href="interface_swift___mime___charset_observer.html" target="_top" xlink:title="{Swift_Mime_CharsetObserver\n||+ charsetChanged()\l}">
<polygon fill="#ffffff" stroke="#000000" points="162.0664,-333.5 162.0664,-387.5 311.4404,-387.5 311.4404,-333.5 162.0664,-333.5"/>
<text text-anchor="middle" x="236.7534" y="-375.5" font-family="Helvetica,sans-Serif" font-size="10.00" fill="#000000">Swift_Mime_CharsetObserver</text>
<polyline fill="none" stroke="#000000" points="162.0664,-369.5 311.4404,-369.5 "/>
<text text-anchor="middle" x="236.7534" y="-357.5" font-family="Helvetica,sans-Serif" font-size="10.00" fill="#000000"> </text>
<polyline fill="none" stroke="#000000" points="162.0664,-351.5 311.4404,-351.5 "/>
<text text-anchor="start" x="170.0664" y="-339.5" font-family="Helvetica,sans-Serif" font-size="10.00" fill="#000000">+ charsetChanged()</text>
</a>
</g>
</g>
<!-- Node2&#45;&gt;Node1 -->
<g id="edge2" class="edge">
<title>Node2&#45;&gt;Node1</title>
<path fill="none" stroke="#191970" d="M236.7534,-323.12C236.7534,-314.3006 236.7534,-305.0605 236.7534,-296.7837"/>
<polygon fill="none" stroke="#191970" points="233.2535,-323.197 236.7534,-333.197 240.2535,-323.197 233.2535,-323.197"/>
</g>
</g>
</svg>
