<?xml version="1.0" encoding="UTF-8" standalone="no"?>
<!DOCTYPE svg PUBLIC "-//W3C//DTD SVG 1.1//EN"
 "http://www.w3.org/Graphics/SVG/1.1/DTD/svg11.dtd">
<!-- Generated by graphviz version 2.40.1 (20161225.0304)
 -->
<!-- Title: Swift_Mime_HeaderEncoder Pages: 1 -->
<svg width="312pt" height="376pt"
 viewBox="0.00 0.00 312.28 376.00" xmlns="http://www.w3.org/2000/svg" xmlns:xlink="http://www.w3.org/1999/xlink">
<g id="graph0" class="graph" transform="scale(1 1) rotate(0) translate(4 372)">
<title>Swift_Mime_HeaderEncoder</title>
<polygon fill="#ffffff" stroke="transparent" points="-4,4 -4,-372 308.2803,-372 308.2803,4 -4,4"/>
<!-- Node0 -->
<g id="node1" class="node">
<title>Node0</title>
<polygon fill="#bfbfbf" stroke="#000000" points="80,-131.5 80,-185.5 223.2803,-185.5 223.2803,-131.5 80,-131.5"/>
<text text-anchor="middle" x="151.6401" y="-173.5" font-family="Helvetica,sans-Serif" font-size="10.00" fill="#000000">Swift_Mime_HeaderEncoder</text>
<polyline fill="none" stroke="#000000" points="80,-167.5 223.2803,-167.5 "/>
<text text-anchor="middle" x="151.6401" y="-155.5" font-family="Helvetica,sans-Serif" font-size="10.00" fill="#000000"> </text>
<polyline fill="none" stroke="#000000" points="80,-149.5 223.2803,-149.5 "/>
<text text-anchor="start" x="88" y="-137.5" font-family="Helvetica,sans-Serif" font-size="10.00" fill="#000000">+ getName()</text>
</g>
<!-- Node3 -->
<g id="node4" class="node">
<title>Node3</title>
<g id="a_node4"><a xlink:href="class_swift___mime___header_encoder___base64_header_encoder.html" target="_top" xlink:title="{Swift_Mime_HeaderEncoder\l_Base64HeaderEncoder\n||+ getName()\l}">
<polygon fill="#ffffff" stroke="#000000" points="0,-15.5 0,-79.5 143.2803,-79.5 143.2803,-15.5 0,-15.5"/>
<text text-anchor="start" x="8" y="-67.5" font-family="Helvetica,sans-Serif" font-size="10.00" fill="#000000">Swift_Mime_HeaderEncoder</text>
<text text-anchor="middle" x="71.6401" y="-57.5" font-family="Helvetica,sans-Serif" font-size="10.00" fill="#000000">_Base64HeaderEncoder</text>
<polyline fill="none" stroke="#000000" points="0,-51.5 143.2803,-51.5 "/>
<text text-anchor="middle" x="71.6401" y="-39.5" font-family="Helvetica,sans-Serif" font-size="10.00" fill="#000000"> </text>
<polyline fill="none" stroke="#000000" points="0,-33.5 143.2803,-33.5 "/>
<text text-anchor="start" x="8" y="-21.5" font-family="Helvetica,sans-Serif" font-size="10.00" fill="#000000">+ getName()</text>
</a>
</g>
</g>
<!-- Node0&#45;&gt;Node3 -->
<g id="edge3" class="edge">
<title>Node0&#45;&gt;Node3</title>
<path fill="none" stroke="#191970" d="M126.0659,-123.0158C116.0936,-109.1792 104.74,-93.426 94.992,-79.9007"/>
<polygon fill="none" stroke="#191970" points="123.3836,-125.2802 132.0699,-131.3463 129.0624,-121.1873 123.3836,-125.2802"/>
</g>
<!-- Node4 -->
<g id="node5" class="node">
<title>Node4</title>
<g id="a_node5"><a xlink:href="class_swift___mime___header_encoder___qp_header_encoder.html" target="_top" xlink:title="{Swift_Mime_HeaderEncoder\l_QpHeaderEncoder\n||+ __construct()\l+ getName()\l+ encodeString()\l# _encodeByteSequence()\l}">
<polygon fill="#ffffff" stroke="#000000" points="161,-.5 161,-94.5 304.2803,-94.5 304.2803,-.5 161,-.5"/>
<text text-anchor="start" x="169" y="-82.5" font-family="Helvetica,sans-Serif" font-size="10.00" fill="#000000">Swift_Mime_HeaderEncoder</text>
<text text-anchor="middle" x="232.6401" y="-72.5" font-family="Helvetica,sans-Serif" font-size="10.00" fill="#000000">_QpHeaderEncoder</text>
<polyline fill="none" stroke="#000000" points="161,-66.5 304.2803,-66.5 "/>
<text text-anchor="middle" x="232.6401" y="-54.5" font-family="Helvetica,sans-Serif" font-size="10.00" fill="#000000"> </text>
<polyline fill="none" stroke="#000000" points="161,-48.5 304.2803,-48.5 "/>
<text text-anchor="start" x="169" y="-36.5" font-family="Helvetica,sans-Serif" font-size="10.00" fill="#000000">+ __construct()</text>
<text text-anchor="start" x="169" y="-26.5" font-family="Helvetica,sans-Serif" font-size="10.00" fill="#000000">+ getName()</text>
<text text-anchor="start" x="169" y="-16.5" font-family="Helvetica,sans-Serif" font-size="10.00" fill="#000000">+ encodeString()</text>
<text text-anchor="start" x="169" y="-6.5" font-family="Helvetica,sans-Serif" font-size="10.00" fill="#000000"># _encodeByteSequence()</text>
</a>
</g>
</g>
<!-- Node0&#45;&gt;Node4 -->
<g id="edge4" class="edge">
<title>Node0&#45;&gt;Node4</title>
<path fill="none" stroke="#191970" d="M177.5435,-123.0029C184.1111,-114.0028 191.2699,-104.1925 198.1879,-94.7123"/>
<polygon fill="none" stroke="#191970" points="174.5224,-121.2053 171.455,-131.3463 180.177,-125.3316 174.5224,-121.2053"/>
</g>
<!-- Node1 -->
<g id="node2" class="node">
<title>Node1</title>
<g id="a_node2"><a xlink:href="interface_swift___encoder.html" target="_top" xlink:title="{Swift_Encoder\n||+ encodeString()\l}">
<polygon fill="#ffffff" stroke="#000000" points="106.5356,-222.5 106.5356,-276.5 196.7446,-276.5 196.7446,-222.5 106.5356,-222.5"/>
<text text-anchor="middle" x="151.6401" y="-264.5" font-family="Helvetica,sans-Serif" font-size="10.00" fill="#000000">Swift_Encoder</text>
<polyline fill="none" stroke="#000000" points="106.5356,-258.5 196.7446,-258.5 "/>
<text text-anchor="middle" x="151.6401" y="-246.5" font-family="Helvetica,sans-Serif" font-size="10.00" fill="#000000"> </text>
<polyline fill="none" stroke="#000000" points="106.5356,-240.5 196.7446,-240.5 "/>
<text text-anchor="start" x="114.5356" y="-228.5" font-family="Helvetica,sans-Serif" font-size="10.00" fill="#000000">+ encodeString()</text>
</a>
</g>
</g>
<!-- Node1&#45;&gt;Node0 -->
<g id="edge1" class="edge">
<title>Node1&#45;&gt;Node0</title>
<path fill="none" stroke="#191970" d="M151.6401,-212.12C151.6401,-203.3006 151.6401,-194.0605 151.6401,-185.7837"/>
<polygon fill="none" stroke="#191970" points="148.1402,-212.197 151.6401,-222.197 155.1402,-212.197 148.1402,-212.197"/>
</g>
<!-- Node2 -->
<g id="node3" class="node">
<title>Node2</title>
<g id="a_node3"><a xlink:href="interface_swift___mime___charset_observer.html" target="_top" xlink:title="{Swift_Mime_CharsetObserver\n||+ charsetChanged()\l}">
<polygon fill="#ffffff" stroke="#000000" points="76.9531,-313.5 76.9531,-367.5 226.3271,-367.5 226.3271,-313.5 76.9531,-313.5"/>
<text text-anchor="middle" x="151.6401" y="-355.5" font-family="Helvetica,sans-Serif" font-size="10.00" fill="#000000">Swift_Mime_CharsetObserver</text>
<polyline fill="none" stroke="#000000" points="76.9531,-349.5 226.3271,-349.5 "/>
<text text-anchor="middle" x="151.6401" y="-337.5" font-family="Helvetica,sans-Serif" font-size="10.00" fill="#000000"> </text>
<polyline fill="none" stroke="#000000" points="76.9531,-331.5 226.3271,-331.5 "/>
<text text-anchor="start" x="84.9531" y="-319.5" font-family="Helvetica,sans-Serif" font-size="10.00" fill="#000000">+ charsetChanged()</text>
</a>
</g>
</g>
<!-- Node2&#45;&gt;Node1 -->
<g id="edge2" class="edge">
<title>Node2&#45;&gt;Node1</title>
<path fill="none" stroke="#191970" d="M151.6401,-303.12C151.6401,-294.3006 151.6401,-285.0605 151.6401,-276.7837"/>
<polygon fill="none" stroke="#191970" points="148.1402,-303.197 151.6401,-313.197 155.1402,-303.197 148.1402,-303.197"/>
</g>
</g>
</svg>
