<?xml version="1.0" encoding="UTF-8" standalone="no"?>
<!DOCTYPE svg PUBLIC "-//W3C//DTD SVG 1.1//EN"
 "http://www.w3.org/Graphics/SVG/1.1/DTD/svg11.dtd">
<!-- Generated by graphviz version 2.40.1 (20161225.0304)
 -->
<!-- Title: Swift_Events_TransportChangeListener Pages: 1 -->
<svg width="165pt" height="194pt"
 viewBox="0.00 0.00 164.82 194.00" xmlns="http://www.w3.org/2000/svg" xmlns:xlink="http://www.w3.org/1999/xlink">
<g id="graph0" class="graph" transform="scale(1 1) rotate(0) translate(4 190)">
<title>Swift_Events_TransportChangeListener</title>
<polygon fill="#ffffff" stroke="transparent" points="-4,4 -4,-190 160.8203,-190 160.8203,4 -4,4"/>
<!-- Node4 -->
<g id="node1" class="node">
<title>Node4</title>
<polygon fill="#bfbfbf" stroke="#000000" points="0,-.5 0,-94.5 156.8203,-94.5 156.8203,-.5 0,-.5"/>
<text text-anchor="start" x="8" y="-82.5" font-family="Helvetica,sans-Serif" font-size="10.00" fill="#000000">Swift_Events_TransportChange</text>
<text text-anchor="middle" x="78.4102" y="-72.5" font-family="Helvetica,sans-Serif" font-size="10.00" fill="#000000">Listener</text>
<polyline fill="none" stroke="#000000" points="0,-66.5 156.8203,-66.5 "/>
<text text-anchor="middle" x="78.4102" y="-54.5" font-family="Helvetica,sans-Serif" font-size="10.00" fill="#000000"> </text>
<polyline fill="none" stroke="#000000" points="0,-48.5 156.8203,-48.5 "/>
<text text-anchor="start" x="8" y="-36.5" font-family="Helvetica,sans-Serif" font-size="10.00" fill="#000000">+ beforeTransportStarted()</text>
<text text-anchor="start" x="8" y="-26.5" font-family="Helvetica,sans-Serif" font-size="10.00" fill="#000000">+ transportStarted()</text>
<text text-anchor="start" x="8" y="-16.5" font-family="Helvetica,sans-Serif" font-size="10.00" fill="#000000">+ beforeTransportStopped()</text>
<text text-anchor="start" x="8" y="-6.5" font-family="Helvetica,sans-Serif" font-size="10.00" fill="#000000">+ transportStopped()</text>
</g>
<!-- Node5 -->
<g id="node2" class="node">
<title>Node5</title>
<g id="a_node2"><a xlink:href="interface_swift___events___event_listener.html" target="_top" xlink:title="{Swift_Events_EventListener\n||}">
<polygon fill="#ffffff" stroke="#000000" points="8.1543,-131.5 8.1543,-185.5 148.666,-185.5 148.666,-131.5 8.1543,-131.5"/>
<text text-anchor="middle" x="78.4102" y="-173.5" font-family="Helvetica,sans-Serif" font-size="10.00" fill="#000000">Swift_Events_EventListener</text>
<polyline fill="none" stroke="#000000" points="8.1543,-167.5 148.666,-167.5 "/>
<text text-anchor="middle" x="78.4102" y="-155.5" font-family="Helvetica,sans-Serif" font-size="10.00" fill="#000000"> </text>
<polyline fill="none" stroke="#000000" points="8.1543,-149.5 148.666,-149.5 "/>
<text text-anchor="middle" x="78.4102" y="-137.5" font-family="Helvetica,sans-Serif" font-size="10.00" fill="#000000"> </text>
</a>
</g>
</g>
<!-- Node5&#45;&gt;Node4 -->
<g id="edge1" class="edge">
<title>Node5&#45;&gt;Node4</title>
<path fill="none" stroke="#191970" d="M78.4102,-121.3237C78.4102,-112.7904 78.4102,-103.6061 78.4102,-94.7123"/>
<polygon fill="none" stroke="#191970" points="74.9103,-121.3463 78.4102,-131.3463 81.9103,-121.3464 74.9103,-121.3463"/>
</g>
</g>
</svg>
