<?xml version="1.0" encoding="UTF-8" standalone="no"?>
<!DOCTYPE svg PUBLIC "-//W3C//DTD SVG 1.1//EN"
 "http://www.w3.org/Graphics/SVG/1.1/DTD/svg11.dtd">
<!-- Generated by graphviz version 2.40.1 (20161225.0304)
 -->
<!-- Title: Swift_Mime_MimeEntity Pages: 1 -->
<svg width="332pt" height="274pt"
 viewBox="0.00 0.00 331.72 274.00" xmlns="http://www.w3.org/2000/svg" xmlns:xlink="http://www.w3.org/1999/xlink">
<g id="graph0" class="graph" transform="scale(1 1) rotate(0) translate(4 270)">
<title>Swift_Mime_MimeEntity</title>
<polygon fill="#ffffff" stroke="transparent" points="-4,4 -4,-270 327.7163,-270 327.7163,4 -4,4"/>
<!-- Node14 -->
<g id="node1" class="node">
<title>Node14</title>
<polygon fill="#bfbfbf" stroke="#000000" points="95.5933,-.5 95.5933,-174.5 223.7808,-174.5 223.7808,-.5 95.5933,-.5"/>
<text text-anchor="middle" x="159.687" y="-162.5" font-family="Helvetica,sans-Serif" font-size="10.00" fill="#000000">Swift_Mime_MimeEntity</text>
<polyline fill="none" stroke="#000000" points="95.5933,-156.5 223.7808,-156.5 "/>
<text text-anchor="start" x="103.5933" y="-144.5" font-family="Helvetica,sans-Serif" font-size="10.00" fill="#000000">+ LEVEL_TOP</text>
<text text-anchor="start" x="103.5933" y="-134.5" font-family="Helvetica,sans-Serif" font-size="10.00" fill="#000000">+ LEVEL_MIXED</text>
<text text-anchor="start" x="103.5933" y="-124.5" font-family="Helvetica,sans-Serif" font-size="10.00" fill="#000000">+ LEVEL_ALTERNATIVE</text>
<text text-anchor="start" x="103.5933" y="-114.5" font-family="Helvetica,sans-Serif" font-size="10.00" fill="#000000">+ LEVEL_RELATED</text>
<polyline fill="none" stroke="#000000" points="95.5933,-108.5 223.7808,-108.5 "/>
<text text-anchor="start" x="103.5933" y="-96.5" font-family="Helvetica,sans-Serif" font-size="10.00" fill="#000000">+ getNestingLevel()</text>
<text text-anchor="start" x="103.5933" y="-86.5" font-family="Helvetica,sans-Serif" font-size="10.00" fill="#000000">+ getContentType()</text>
<text text-anchor="start" x="103.5933" y="-76.5" font-family="Helvetica,sans-Serif" font-size="10.00" fill="#000000">+ getId()</text>
<text text-anchor="start" x="103.5933" y="-66.5" font-family="Helvetica,sans-Serif" font-size="10.00" fill="#000000">+ getChildren()</text>
<text text-anchor="start" x="103.5933" y="-56.5" font-family="Helvetica,sans-Serif" font-size="10.00" fill="#000000">+ setChildren()</text>
<text text-anchor="start" x="103.5933" y="-46.5" font-family="Helvetica,sans-Serif" font-size="10.00" fill="#000000">+ getHeaders()</text>
<text text-anchor="start" x="103.5933" y="-36.5" font-family="Helvetica,sans-Serif" font-size="10.00" fill="#000000">+ getBody()</text>
<text text-anchor="start" x="103.5933" y="-26.5" font-family="Helvetica,sans-Serif" font-size="10.00" fill="#000000">+ setBody()</text>
<text text-anchor="start" x="103.5933" y="-16.5" font-family="Helvetica,sans-Serif" font-size="10.00" fill="#000000">+ toString()</text>
<text text-anchor="start" x="103.5933" y="-6.5" font-family="Helvetica,sans-Serif" font-size="10.00" fill="#000000">+ toByteStream()</text>
</g>
<!-- Node15 -->
<g id="node2" class="node">
<title>Node15</title>
<g id="a_node2"><a xlink:href="interface_swift___mime___charset_observer.html" target="_top" xlink:title="{Swift_Mime_CharsetObserver\n||+ charsetChanged()\l}">
<polygon fill="#ffffff" stroke="#000000" points="0,-211.5 0,-265.5 149.374,-265.5 149.374,-211.5 0,-211.5"/>
<text text-anchor="middle" x="74.687" y="-253.5" font-family="Helvetica,sans-Serif" font-size="10.00" fill="#000000">Swift_Mime_CharsetObserver</text>
<polyline fill="none" stroke="#000000" points="0,-247.5 149.374,-247.5 "/>
<text text-anchor="middle" x="74.687" y="-235.5" font-family="Helvetica,sans-Serif" font-size="10.00" fill="#000000"> </text>
<polyline fill="none" stroke="#000000" points="0,-229.5 149.374,-229.5 "/>
<text text-anchor="start" x="8" y="-217.5" font-family="Helvetica,sans-Serif" font-size="10.00" fill="#000000">+ charsetChanged()</text>
</a>
</g>
</g>
<!-- Node15&#45;&gt;Node14 -->
<g id="edge1" class="edge">
<title>Node15&#45;&gt;Node14</title>
<path fill="none" stroke="#191970" d="M95.0457,-202.3335C99.8256,-193.842 105.124,-184.4296 110.571,-174.7531"/>
<polygon fill="none" stroke="#191970" points="91.9353,-200.7239 90.0799,-211.155 98.0353,-204.1577 91.9353,-200.7239"/>
</g>
<!-- Node16 -->
<g id="node3" class="node">
<title>Node16</title>
<g id="a_node3"><a xlink:href="interface_swift___mime___encoding_observer.html" target="_top" xlink:title="{Swift_Mime_EncodingObserver\n||+ encoderChanged()\l}">
<polygon fill="#ffffff" stroke="#000000" points="167.6577,-211.5 167.6577,-265.5 323.7163,-265.5 323.7163,-211.5 167.6577,-211.5"/>
<text text-anchor="middle" x="245.687" y="-253.5" font-family="Helvetica,sans-Serif" font-size="10.00" fill="#000000">Swift_Mime_EncodingObserver</text>
<polyline fill="none" stroke="#000000" points="167.6577,-247.5 323.7163,-247.5 "/>
<text text-anchor="middle" x="245.687" y="-235.5" font-family="Helvetica,sans-Serif" font-size="10.00" fill="#000000"> </text>
<polyline fill="none" stroke="#000000" points="167.6577,-229.5 323.7163,-229.5 "/>
<text text-anchor="start" x="175.6577" y="-217.5" font-family="Helvetica,sans-Serif" font-size="10.00" fill="#000000">+ encoderChanged()</text>
</a>
</g>
</g>
<!-- Node16&#45;&gt;Node14 -->
<g id="edge2" class="edge">
<title>Node16&#45;&gt;Node14</title>
<path fill="none" stroke="#191970" d="M225.0889,-202.3335C220.2527,-193.842 214.8919,-184.4296 209.3808,-174.7531"/>
<polygon fill="none" stroke="#191970" points="222.1227,-204.1977 230.1131,-211.155 228.2054,-200.7334 222.1227,-204.1977"/>
</g>
</g>
</svg>
